<?xml version="1.0" standalone="no"?>
<!DOCTYPE svg PUBLIC "-//W3C//DTD SVG 1.1//EN" "http://www.w3.org/Graphics/SVG/1.1/DTD/svg11.dtd" >
<svg xmlns="http://www.w3.org/2000/svg">
<metadata></metadata>
<defs>
<font id="theserifhp9_black_italic" horiz-adv-x="1126" >
<font-face units-per-em="2048" ascent="1516" descent="-532" />
<missing-glyph horiz-adv-x="446" />
<glyph unicode="&#x2e;&#x2e;&#x2e;" horiz-adv-x="1622" d="M35 178q0 91 63 155t150 64q85 0 145 -61.5t60 -145.5q0 -91 -63 -155t-150 -64q-85 0 -145 61.5t-60 145.5zM557 178q0 91 63 155t150 64q85 0 145 -61.5t60 -145.5q0 -91 -63 -155t-150 -64q-85 0 -145 61.5t-60 145.5zM1079 178q0 91 63 155t150 64q85 0 145 -61.5 t60 -145.5q0 -91 -63 -155t-150 -64q-85 0 -145 61.5t-60 145.5z" />
<glyph unicode="&#xfb01;" horiz-adv-x="1325" d="M-207 -473l84 303q46 -12 86 -12q58 0 90.5 34.5t52.5 141.5l138 737h-146l56 287h145l4 24q79 480 633 480q174 0 346 -39l-119 -309q-116 38 -239 38q-115 0 -177 -38t-75 -119l-6 -37h610l-141 -737q100 -17 149 -21l-45 -244q-238 -27 -522 -18l137 733h-246 l-137 -745q-44 -237 -171.5 -357.5t-326.5 -120.5q-90 0 -180 19z" />
<glyph unicode="&#xfb02;" horiz-adv-x="1341" d="M-207 -473l84 303q46 -12 86 -12q58 0 90.5 34.5t52.5 141.5l138 737h-146l56 287h145l18 98q36 197 192.5 301.5t405.5 104.5q208 0 463 -43l-227 -1198q66 -14 149 -21l-45 -244q-241 -27 -524 -18l230 1208q-49 8 -105 8q-70 0 -118 -34t-60 -97l-12 -65h143l-57 -287 h-144l-137 -745q-44 -237 -171.5 -357.5t-326.5 -120.5q-90 0 -180 19z" />
<glyph unicode="&#xfb03;" horiz-adv-x="1923" d="M-207 -473l84 303q46 -12 86 -12q58 0 89.5 34.5t51.5 141.5l138 737h-146l56 287h147l14 82q34 196 178.5 297.5t389.5 101.5q175 0 303 -45q142 68 346 68q174 0 346 -39l-119 -309q-116 38 -239 38q-114 0 -171 -37.5t-71 -119.5l-6 -37h602l-139 -737q58 -13 149 -21 l-45 -244q-250 -26 -524 -18l137 733h-236l-129 -704q-50 -267 -193 -381.5t-396 -114.5q-143 0 -265 45q-117 -68 -258 -68q-90 0 -180 19zM438 -147q42 -17 103 -17q77 0 116 36.5t56 129.5l135 729h-240l-137 -745q-10 -63 -33 -133zM666 1018h237l6 31q15 78 37 131 q-54 14 -90 14q-85 0 -127 -30t-53 -91z" />
<glyph unicode="&#xfb04;" horiz-adv-x="1927" d="M-207 -473l84 303q46 -12 86 -12q58 0 89.5 34.5t51.5 141.5l140 737h-146l56 287h147l14 82q34 196 178.5 297.5t389.5 101.5q73 0 157 -12.5t138 -30.5q135 66 331 66q213 0 455 -43l-227 -1198q58 -13 149 -21l-45 -244q-250 -26 -524 -18l229 1208q-39 8 -96 8 q-68 0 -112 -33.5t-54 -97.5l-10 -65h168l-56 -287h-169l-132 -704q-50 -267 -193 -381.5t-396 -114.5q-143 0 -265 45q-117 -68 -258 -68q-90 0 -180 19zM438 -147q42 -17 103 -17q77 0 116 36.5t56 129.5l137 729h-240l-139 -745q-10 -63 -33 -133zM668 1018h237l19 98 q5 30 16 66q-47 12 -82 12q-85 0 -127 -30t-53 -91z" />
<glyph horiz-adv-x="0" />
<glyph horiz-adv-x="0" />
<glyph horiz-adv-x="682" />
<glyph unicode="&#xd;" horiz-adv-x="1024" />
<glyph unicode=" "  horiz-adv-x="446" />
<glyph unicode="&#x09;" horiz-adv-x="446" />
<glyph unicode="&#xa0;" horiz-adv-x="446" />
<glyph unicode="!" horiz-adv-x="651" d="M80 158q0 97 67 160t160 63q88 0 143.5 -56.5t55.5 -134.5q0 -95 -67 -157t-160 -62q-88 0 -143.5 56t-55.5 131zM186 442l140 1022h428l-246 -1022h-322z" />
<glyph unicode="&#x22;" horiz-adv-x="925" d="M43 854l72 594h356l-154 -594h-274zM485 854l72 594h354l-151 -594h-275z" />
<glyph unicode="#" horiz-adv-x="1431" d="M57 317l52 279h231l37 201h-230l54 278h231l57 307h322l-57 -307h174l57 307h322l-58 -307h230l-54 -278h-231l-37 -201h229l-51 -279h-231l-60 -317h-321l59 317h-174l-59 -317h-322l60 317h-230zM662 596h174l36 201h-174z" />
<glyph unicode="$" horiz-adv-x="1122" d="M-20 14l81 439h289q0 -22 -3.5 -64.5t-4.5 -60.5q65 -19 129 -19q81 0 125.5 24.5t44.5 84.5q0 27 -29 53t-75 49t-101.5 49t-111 60t-101.5 75t-75 101t-29 131q0 190 139.5 319t347.5 148l41 219h254l-41 -215q127 -6 293 -41l-76 -397h-284q5 91 10 129 q-49 18 -109 18q-159 0 -159 -110q0 -27 29.5 -53t77 -50.5t105 -52t115 -63.5t105 -78.5t77 -104t29.5 -133.5q0 -131 -74.5 -239.5t-193.5 -172t-258 -77.5l-58 -291h-251l53 284q-159 2 -311 39z" />
<glyph unicode="%" horiz-adv-x="1703" d="M162 987q0 195 128 327t308 132q155 0 227 -75.5t72 -201.5q0 -127 -62.5 -235.5t-165 -171t-216.5 -62.5q-135 0 -213 69.5t-78 217.5zM190 141l1182 1307l223 -203l-1183 -1308zM461 1008q0 -56 37 -56q43 0 71.5 57t28.5 140q0 45 -37 45q-43 0 -71.5 -56t-28.5 -130z M893 225q0 195 128 327t308 132q156 0 227.5 -75t71.5 -201q0 -127 -62.5 -235.5t-165 -171t-216.5 -62.5q-135 0 -213 69t-78 217zM1192 246q0 -56 37 -56q43 0 71.5 57t28.5 140q0 45 -37 45q-43 0 -71.5 -56t-28.5 -130z" />
<glyph unicode="&#x26;" horiz-adv-x="1701" d="M63 350q0 134 74.5 243t206.5 208q-98 151 -98 305q0 76 36.5 150t99 132t155.5 94t198 36q196 0 298 -88.5t102 -231.5q0 -117 -78 -218.5t-226 -205.5q87 -89 252 -227q35 38 64 91.5t39 100.5q-21 2 -78 13l47 252h565l-49 -252q-36 -8 -112 -17q-63 -206 -224 -383 l111 -82q144 -15 162 -18l-47 -252h-377q-70 56 -144 117q-262 -146 -532 -146q-223 0 -334 103.5t-111 275.5zM453 412q0 -54 34 -86.5t97 -32.5q86 0 194 43q-138 121 -241 227q-84 -78 -84 -151zM610 1137q0 -57 39 -131q119 90 119 161q0 33 -17.5 51.5t-50.5 18.5 q-32 0 -61 -28t-29 -72z" />
<glyph unicode="'" horiz-adv-x="483" d="M43 854l72 594h356l-154 -594h-274z" />
<glyph unicode="(" horiz-adv-x="622" d="M47 260q0 324 133 682.5t400 681.5l258 -123q-195 -258 -313.5 -609t-118.5 -620q0 -330 86 -608l-297 -121q-148 338 -148 717z" />
<glyph unicode=")" horiz-adv-x="622" d="M-156 -334q195 258 313.5 609t118.5 620q0 330 -86 608l297 121q148 -338 148 -717q0 -324 -133 -682.5t-400 -681.5z" />
<glyph unicode="*" horiz-adv-x="802" d="M170 1122l215 41l-186 90l176 205l123 -164v215l250 -30l-91 -203l187 125l78 -236l-215 -41l184 -88l-174 -205l-123 164l-2 -215l-252 31l92 203l-186 -123z" />
<glyph unicode="+" d="M76 455l59 311h314l63 336h356l-63 -336h313l-59 -311h-314l-63 -340h-356l63 340h-313z" />
<glyph unicode="," horiz-adv-x="602" d="M-61 -258q132 108 161 182.5t-26 147.5q-32 47 -33 106.5t24 110.5t78 86t121 35q101 0 166 -79q76 -93 50 -235q-38 -205 -278 -407q-60 -50 -132 -99z" />
<glyph unicode="-" horiz-adv-x="681" d="M74 391l57 297h522l-57 -297h-522z" />
<glyph unicode="." horiz-adv-x="614" d="M37 188q0 97 69.5 165.5t163.5 68.5q91 0 154 -64.5t63 -152.5q0 -97 -69.5 -165.5t-163.5 -68.5q-91 0 -154 64.5t-63 152.5z" />
<glyph unicode="/" horiz-adv-x="1003" d="M-209 -330l1071 1880h375l-1067 -1880h-379z" />
<glyph unicode="0" horiz-adv-x="1220" d="M61 389q0 135 49.5 262.5t135.5 226t213 158.5t272 60q230 0 347.5 -106.5t117.5 -319.5q0 -144 -51.5 -273.5t-141 -223.5t-215.5 -149t-268 -55q-231 0 -345 107t-114 313zM434 438q0 -62 36.5 -103.5t96.5 -41.5q108 0 182 93t74 241q0 61 -33 103t-100 42 q-115 0 -185.5 -97.5t-70.5 -236.5z" />
<glyph unicode="1" horiz-adv-x="786" d="M-49 0l45 246q100 19 203 24l92 461l-189 -72v295l351 117h274l-156 -801q82 -7 152 -24l-47 -246h-725z" />
<glyph unicode="2" horiz-adv-x="962" d="M-33 0l60 305l131 80q206 125 284 203t78 141q0 29 -22.5 47.5t-63.5 18.5q-26 0 -59 -11q-15 -53 -35 -104h-234l66 346q181 68 356 68q111 0 191.5 -23.5t126.5 -67t67 -97t21 -120.5q0 -110 -82 -224t-225 -202l-60 -36l-2 -5q135 9 316 9l-62 -328h-852z" />
<glyph unicode="3" horiz-adv-x="931" d="M-109 -334l95 330q82 -37 174 -37q125 0 191.5 42.5t66.5 113.5q0 137 -350 88l53 301q205 0 302 56t97 147q0 81 -78 81q-28 0 -57 -4q-17 -63 -35 -106h-241l69 354q170 64 336 64q192 0 300 -81t108 -231q0 -107 -69 -204t-189 -150v-2q81 -21 126.5 -93.5 t45.5 -160.5q0 -101 -46.5 -196t-133.5 -172t-226.5 -124t-310.5 -47q-114 0 -228 31z" />
<glyph unicode="4" horiz-adv-x="1157" d="M2 0v301l563 764h492l-137 -731h170l-64 -334h-172l-18 -92q66 -5 149 -25l-43 -233h-692l45 233q114 21 180 25l17 92h-490zM360 332q47 2 203 2l74 383h-2z" />
<glyph unicode="5" horiz-adv-x="925" d="M-92 -350l88 332q63 -17 141 -17q110 0 189.5 45.5t79.5 120.5q0 41 -28.5 68.5t-82 40.5t-107.5 17.5t-127 4.5l150 803h723l-72 -367l-377 4l-30 -157q179 -17 275.5 -106t96.5 -226q0 -111 -43 -206.5t-115.5 -163t-168 -115t-200.5 -70.5t-212 -23q-88 0 -180 15z " />
<glyph unicode="6" horiz-adv-x="1163" d="M76 420q0 89 17 184t53.5 194t89.5 190t130.5 172t170 141t214 94.5t257.5 34.5q40 0 168 -5l-64 -333q-77 14 -141 14q-278 0 -408 -195l-22 -45l2 -2q43 27 106.5 43.5t118.5 16.5q177 0 272 -94t95 -252q0 -129 -49 -242t-133 -193t-201.5 -126t-249.5 -46 q-202 0 -314 118t-112 331zM467 410q0 -54 27.5 -84.5t78.5 -30.5q80 0 125 60.5t45 152.5q0 47 -27 71.5t-75 24.5q-80 0 -127 -58t-47 -136z" />
<glyph unicode="7" horiz-adv-x="958" d="M35 -350q91 248 234 536.5t306 554.5h-161q-17 -68 -45 -145h-301l90 469h889l-62 -322q-336 -566 -524 -1093h-426z" />
<glyph unicode="8" horiz-adv-x="1134" d="M35 313q0 249 266 398q-129 105 -129 272q0 65 23 130.5t71 126t115 107.5t162 75t205 28q223 0 330.5 -87t107.5 -222q0 -126 -66.5 -221t-193.5 -172q155 -114 155 -279q0 -142 -82.5 -257.5t-220 -179t-297.5 -63.5q-219 0 -332.5 96.5t-113.5 247.5zM424 371 q0 -41 28.5 -63.5t82.5 -22.5q64 0 109.5 36.5t45.5 92.5q0 79 -121 145q-145 -87 -145 -188zM557 1018q0 -66 105 -121q141 80 141 174q0 34 -28 53t-79 19q-65 0 -102 -36.5t-37 -88.5z" />
<glyph unicode="9" horiz-adv-x="1163" d="M8 -354l64 336q78 -21 153 -21q149 0 238.5 47.5t146.5 147.5l27 45l-2 2q-38 -28 -99 -45t-122 -17q-171 0 -258.5 100.5t-87.5 256.5q0 124 46.5 234t127.5 190.5t196.5 127t247.5 46.5q224 0 334 -120.5t110 -326.5q0 -90 -13 -182t-45.5 -193t-81.5 -191.5 t-126 -173.5t-173 -143t-229.5 -95.5t-289.5 -35.5q-74 0 -164 11zM455 567q0 -100 98 -100q48 0 84.5 21.5t55.5 55t27.5 66.5t8.5 64q0 40 -24.5 69t-71.5 29q-81 0 -129.5 -60.5t-48.5 -144.5z" />
<glyph unicode=":" horiz-adv-x="632" d="M61 184q0 99 71 168.5t165 69.5q91 0 155 -64t64 -149q0 -100 -69.5 -169t-163.5 -69q-91 0 -156.5 64.5t-65.5 148.5zM166 735q0 99 70.5 168.5t164.5 69.5q91 0 155.5 -64t64.5 -149q0 -100 -70 -169t-164 -69q-91 0 -156 64t-65 149z" />
<glyph unicode=";" horiz-adv-x="632" d="M-33 -258q132 108 161 182.5t-26 147.5q-32 47 -32.5 106.5t24 110.5t78 86t121.5 35q101 0 166 -79q75 -93 49 -235q-38 -205 -278 -407q-60 -50 -132 -99zM166 735q0 99 70.5 168.5t164.5 69.5q91 0 155.5 -64t64.5 -149q0 -100 -70 -169t-164 -69q-91 0 -156 64 t-65 149z" />
<glyph unicode="&#x3c;" d="M139 631l760 614l219 -258l-497 -383l352 -393l-277 -238z" />
<glyph unicode="=" d="M66 233l55 297h921l-55 -297h-921zM152 684l55 297h921l-55 -297h-921z" />
<glyph unicode="&#x3e;" d="M76 231l497 383l-352 394l277 237l557 -657l-760 -615z" />
<glyph unicode="?" horiz-adv-x="921" d="M133 158q0 97 67 160t160 63q88 0 143.5 -56.5t55.5 -134.5q0 -95 -67 -157t-160 -62q-88 0 -143.5 56t-55.5 131zM209 442q-13 76 0.5 140.5t45 108.5t73 81t85.5 66.5t81 56t60.5 58t23.5 65.5q0 38 -26.5 63.5t-78.5 40t-110 21t-138 8.5l109 338q168 -3 296 -34.5 t205 -85.5t115.5 -122.5t38.5 -150.5q0 -81 -25 -148t-64 -112.5t-86.5 -85t-93.5 -72.5t-83 -66.5t-56.5 -76.5t-13.5 -93h-358z" />
<glyph unicode="@" horiz-adv-x="1923" d="M162 465q0 132 32.5 261.5t92 246.5t150.5 216.5t202 172.5t252 114.5t295 41.5q323 0 495 -155t172 -413q0 -108 -23 -207t-71.5 -186.5t-118.5 -152t-170.5 -101.5t-220.5 -37q-91 0 -141.5 41.5t-50.5 118.5h-8q-121 -160 -279 -160q-87 0 -138.5 63t-51.5 189 q0 67 13 135t39 137.5t71.5 129.5t105.5 107t146 74t188 27q70 0 137.5 -16t108.5 -39l-101 -362q-25 -91 -19.5 -124.5t46.5 -33.5q89 0 147 93t58 255q0 142 -92 229t-293 87q-126 0 -232.5 -42.5t-179 -112.5t-123.5 -161.5t-74.5 -188t-23.5 -192.5q0 -186 110 -279.5 t357 -93.5q174 0 381 68l28 -283q-115 -40 -249.5 -63t-239.5 -23q-362 0 -544.5 163t-182.5 456zM858 592q0 -45 27 -45q37 0 83 65.5t85 202.5l18 64q-17 10 -45 10q-47 0 -87 -53.5t-60.5 -121t-20.5 -122.5z" />
<glyph unicode="A" horiz-adv-x="1417" d="M-59 0l45 248q53 14 90 16l559 1118h500l145 -1118q35 -2 84 -16l-47 -248h-602l47 246q87 14 125 18l-8 101h-379l-45 -101q15 -2 110 -18l-47 -246h-577zM639 659h209l-12 154q-17 227 -17 244h-4q-35 -92 -106 -246z" />
<glyph unicode="B" horiz-adv-x="1300" d="M-49 0l47 246q100 19 178 24l160 842q-68 5 -168 25l45 245h166q75 0 258.5 5.5t249.5 5.5q440 0 440 -299q0 -250 -215 -355v-2q68 -26 110 -94t42 -151q0 -101 -48 -192t-132.5 -158t-207 -106.5t-264.5 -39.5q-34 0 -195 2t-292 2h-174zM559 311q40 -4 84 -4 q99 0 157 48t58 114q0 45 -35.5 70.5t-97.5 25.5q-96 0 -121 -2zM659 848q20 -2 62 -2q98 0 147.5 43t49.5 115q0 81 -125 81q-22 0 -88 -4z" />
<glyph unicode="C" horiz-adv-x="1103" d="M80 477q0 136 32.5 267.5t100.5 249t163.5 206.5t230.5 141t292 52q186 0 315 -29l-92 -481h-297q0 4 6 151q-6 2 -36 2q-74 0 -132.5 -51t-91 -128.5t-49 -156.5t-16.5 -147q0 -110 54 -166.5t173 -56.5q145 0 256 51l-16 -350q-172 -49 -352 -49q-95 0 -173.5 17 t-133.5 45.5t-97.5 69t-67.5 83.5t-41 93.5t-22 95t-6 91.5z" />
<glyph unicode="D" horiz-adv-x="1415" d="M-49 0l47 246q100 19 178 24l160 842q-68 5 -168 25l45 245h170q44 0 210.5 4.5t264.5 4.5q131 0 233.5 -27.5t180 -85.5t119 -155t41.5 -228q0 -143 -34.5 -275.5t-106 -247.5t-172.5 -200t-241.5 -133.5t-304.5 -48.5q-92 0 -238.5 5t-209.5 5h-174zM559 326 q28 -7 70 -7q76 0 139.5 28t106 74.5t74.5 103t49.5 119t25.5 116t8 100.5q0 106 -51 157.5t-170 51.5q-82 0 -111 -4z" />
<glyph unicode="E" horiz-adv-x="1093" d="M-49 0l47 246q100 19 178 24l160 842q-68 5 -168 25l45 245h993l-73 -393h-289q0 36 4 94h-143l-48 -243h121q1 3 29 73h246l-78 -413h-248v73h-119l-51 -268h143q15 51 35 107h293l-78 -412h-999z" />
<glyph unicode="F" horiz-adv-x="1058" d="M-49 0l47 246q100 19 178 24l160 842q-68 5 -168 25l45 245h989l-78 -401h-288v17q0 29 4 79h-135l-52 -260h125q2 7 29 74h246l-82 -434h-248v73h-123l-51 -260q77 -5 170 -24l-45 -246h-723z" />
<glyph unicode="G" horiz-adv-x="1353" d="M84 502q0 186 65.5 351t183 287.5t290.5 193.5t376 71q223 0 408 -51l-84 -439h-301q0 73 6 144q-6 1 -27.5 3.5t-33.5 2.5q-92 0 -171 -29t-134.5 -78.5t-95 -114.5t-58.5 -138t-19 -148q0 -107 61 -170t193 -63q61 0 107 10l29 149q-74 5 -164 25l47 246h622l-47 -252 l-86 -17l-80 -417q-229 -93 -495 -93q-155 0 -270.5 38t-185 109t-103 165.5t-33.5 214.5z" />
<glyph unicode="H" horiz-adv-x="1560" d="M-51 0l47 246q100 19 178 24l160 842q-68 5 -168 25l45 245h676l-49 -252q-56 -11 -129 -18l-45 -233h405l45 233q-70 7 -123 18l47 252h674l-45 -245q-114 -21 -180 -25l-160 -842q73 -5 170 -24l-47 -246h-674l47 252q56 11 129 18l54 275h-406l-53 -275q71 -7 125 -18 l-49 -252h-674z" />
<glyph unicode="I" horiz-adv-x="782" d="M-49 0l47 246q100 19 178 24l160 842q-68 5 -168 25l45 245h723l-47 -245q-108 -20 -178 -25l-162 -842q77 -5 170 -24l-45 -246h-723z" />
<glyph unicode="J" horiz-adv-x="763" d="M-53 -6l61 319q46 -16 98 -16q123 0 148 135l129 680q-65 4 -170 25l47 245h655l-47 -252q-52 -12 -112 -18l-138 -723q-11 -60 -33 -115t-61.5 -110t-92.5 -95.5t-131.5 -66t-172.5 -25.5q-93 0 -180 17z" />
<glyph unicode="K" horiz-adv-x="1482" d="M-49 0l47 246q100 19 178 24l160 842q-68 5 -168 25l45 245h657l-49 -252q-53 -12 -110 -18l-68 -352l354 360q-46 6 -63 10l49 252h625l-49 -249q-64 -11 -95 -13l-424 -413l267 -443q62 -5 114 -14l-47 -250h-655l49 252q67 11 80 12l-221 412l-78 -406q55 -6 106 -18 l-49 -252h-655z" />
<glyph unicode="L" horiz-adv-x="1085" d="M-49 0l47 246q100 19 178 24l160 842q-68 5 -168 25l45 245h723l-47 -245q-108 -20 -178 -25l-152 -797h160q26 92 72 183h278l-94 -498h-1024z" />
<glyph unicode="M" horiz-adv-x="1961" d="M-49 0l45 248q61 14 96 16l299 848q-53 4 -158 25l48 245h661l49 -479q15 -144 15 -323h4q62 169 137 329l225 473h680l-49 -245q-118 -21 -170 -25l-23 -848q30 -2 88 -16l-45 -248h-591l45 246q51 11 120 18l25 361q6 95 35 331h-4q-75 -227 -123 -331l-291 -625h-350 l-53 627q-6 86 -6 177q0 74 4 152h-5q-42 -198 -86 -333l-112 -359q47 -5 104 -18l-47 -246h-567z" />
<glyph unicode="N" horiz-adv-x="1552" d="M-49 0l47 246q100 19 178 24l160 842q-65 4 -170 25l47 245h653l152 -540q48 -173 74 -338q17 196 45 348l49 260q-56 6 -105 18l47 252h576l-47 -252q-51 -12 -113 -18l-211 -1112h-473l-155 539q-53 180 -74 352q-11 -146 -35 -281l-59 -340q64 -7 118 -18l-49 -252 h-655z" />
<glyph unicode="O" horiz-adv-x="1406" d="M74 481q0 183 64.5 353.5t174 297.5t265 203t327.5 76q261 0 395 -132.5t134 -381.5q0 -159 -42.5 -303t-119.5 -256.5t-179 -195.5t-227 -127t-258 -44q-270 0 -402 134t-132 376zM471 549q0 -227 193 -227q83 0 154 45t118 119.5t73.5 169.5t26.5 196q0 95 -48.5 153 t-145.5 58q-88 0 -160.5 -46t-117 -120.5t-69 -164.5t-24.5 -183z" />
<glyph unicode="P" horiz-adv-x="1222" d="M-49 0l45 246q100 19 178 24l162 842q-71 5 -170 25l47 245h174q59 0 200 5.5t228 5.5q82 0 154 -14.5t133.5 -44.5t106 -74.5t69.5 -107.5t25 -140q0 -270 -179.5 -437t-482.5 -167q-41 0 -68 2l-24 -140q77 -5 170 -24l-47 -246h-721zM635 725q12 -2 47 -2 q64 0 111.5 22.5t71 59t34 72.5t10.5 73q0 64 -38.5 97.5t-112.5 33.5q-40 0 -56 -2z" />
<glyph unicode="Q" horiz-adv-x="1406" d="M74 481q0 185 62.5 355t170.5 297t263.5 202.5t330.5 75.5q262 0 397.5 -133t135.5 -381q0 -219 -86.5 -411t-233.5 -287q25 -1 68 -10t71 -11h13q30 0 88 6l-60 -317q-79 -11 -132 -11q-17 0 -32 2q-60 4 -118.5 22.5t-100.5 38.5t-110 36t-146 16h-47q-270 0 -402 134 t-132 376zM473 549q0 -227 193 -227q83 0 154 45t118 119.5t73.5 169.5t26.5 196q0 95 -48.5 153t-145.5 58q-88 0 -160.5 -46t-117 -120.5t-69 -164.5t-24.5 -183z" />
<glyph unicode="R" horiz-adv-x="1300" d="M-49 0l47 246q100 19 178 24l160 842q-68 5 -168 25l45 245h162q64 0 224.5 5.5t244.5 5.5q242 0 357.5 -88t115.5 -263q0 -158 -76.5 -281t-239.5 -192q7 -19 28.5 -69t31.5 -78l55 -154q75 -10 115 -20l-47 -248h-406l-145 504h-39l-45 -234q37 -6 84 -18l-49 -252 h-633zM647 778q28 -4 60 -4q94 0 151 62t57 143q0 53 -32 84t-99 31q-53 0 -77 -4z" />
<glyph unicode="S" horiz-adv-x="1007" d="M0 6l82 428h293q1 -31 1 -58q0 -54 -5 -91h47q66 0 108.5 40.5t42.5 84.5q0 32 -23.5 59.5t-61.5 49.5t-83.5 46t-91 54.5t-83.5 68.5t-61.5 95.5t-23.5 127.5q0 100 40 189.5t115.5 159t194.5 110.5t267 41q73 0 170.5 -9.5t156.5 -23.5l-77 -409h-283q-2 17 -2 40 q0 41 6 101h-37q-68 0 -104.5 -33t-36.5 -96q0 -28 23.5 -53t61.5 -46t84 -44.5t92 -54.5t84 -69t61.5 -95t23.5 -127q0 -141 -82 -260t-228 -189t-323 -70q-219 0 -348 33z" />
<glyph unicode="T" horiz-adv-x="1253" d="M127 926l86 456h1194l-88 -456h-285q0 68 6 141h-104l-152 -797q78 -5 170 -24l-47 -246h-723l47 246q104 19 181 24l151 797h-104q-13 -45 -47 -141h-285z" />
<glyph unicode="U" horiz-adv-x="1413" d="M145 379q0 68 17 162l108 571q-54 6 -104 18l47 252h604l-47 -252q-54 -10 -127 -18l-113 -590q-10 -51 -10 -98q0 -150 156 -150q115 0 172 61t84 202l108 575q-64 7 -118 18l49 252h596l-49 -252q-53 -12 -107 -18l-117 -604q-53 -270 -227 -403.5t-446 -133.5 q-128 0 -222 31t-148.5 87.5t-80 128.5t-25.5 161z" />
<glyph unicode="V" horiz-adv-x="1359" d="M156 1130l47 252h588l-46 -245q-122 -19 -124 -19l49 -428q12 -111 12 -246h4q63 156 119 267l201 407q-6 1 -113 19l47 245h584l-47 -252q-45 -9 -86 -12l-568 -1118h-438l-149 1118q-41 3 -80 12z" />
<glyph unicode="W" horiz-adv-x="1949" d="M156 1130l47 252h565l-45 -245q-5 -1 -51.5 -9t-69.5 -10l-12 -393q-3 -146 -21 -299h2q52 167 107 293l289 663h374l45 -641q6 -88 6 -179q0 -66 -3 -134h2q44 194 88 330l114 360q-20 2 -57 9.5t-47 9.5l47 245h571l-47 -252q-40 -9 -86 -12l-407 -1118h-490l-33 518 q-5 77 -5 154q0 98 8 198h-3q-49 -189 -114 -348l-221 -522h-490l17 1118q-41 3 -80 12z" />
<glyph unicode="X" horiz-adv-x="1456" d="M-57 0l47 250q94 12 114 14l437 455l-271 399q-31 2 -102 15l47 249h621l-50 -252q-23 -6 -57 -10l98 -188l166 188q-36 5 -53 10l47 252h617l-50 -249q-18 -2 -42.5 -5.5l-42 -6t-29.5 -3.5l-414 -436l279 -418q38 -3 98 -14l-47 -250h-621l47 252l64 10l-113 211 l-184 -211l63 -10l-49 -252h-620z" />
<glyph unicode="Y" horiz-adv-x="1275" d="M156 1130l47 252h559l-49 -252q-41 -9 -80 -12l39 -145q30 -119 39 -172h6q32 65 96 170l86 147q-42 3 -80 12l49 252h572l-47 -252q-45 -9 -86 -12l-480 -672l-32 -176q79 -5 174 -24l-47 -246h-727l47 246q105 19 180 24l33 174l-219 674q-45 4 -80 12z" />
<glyph unicode="Z" horiz-adv-x="1103" d="M-8 0l57 301l557 692q29 39 68 78q-23 -2 -90 -2h-68q-24 -83 -49 -123h-291l84 436h952l-61 -315l-586 -688q-4 -5 -20.5 -25t-28.5 -32q20 2 117 2h80q23 78 53 137h281l-89 -461h-966z" />
<glyph unicode="[" horiz-adv-x="673" d="M-61 -436l389 2044h508l-60 -301h-162l-274 -1440h162l-56 -303h-507z" />
<glyph unicode="\" horiz-adv-x="1071" d="M221 1550h336l373 -1880h-338z" />
<glyph unicode="]" horiz-adv-x="673" d="M-96 -436l55 303h164l274 1440h-161l57 301h508l-389 -2044h-508z" />
<glyph unicode="^" d="M143 799l437 583h274l225 -579l-274 -131l-135 452l-303 -452z" />
<glyph unicode="_" d="M-174 -496l57 303h1104l-57 -303h-1104z" />
<glyph unicode="`" horiz-adv-x="761" d="M293 1325l153 248l437 -252l-131 -207z" />
<glyph unicode="a" horiz-adv-x="1191" d="M45 305q0 151 43 283t125 234t212.5 161t293.5 59q244 0 422 -34l-142 -727q87 -19 152 -21l-45 -244q-188 -20 -376 -20l-126 2q26 112 60 195h-5q-148 -220 -358 -220q-256 0 -256 332zM424 377q0 -42 8.5 -61t30.5 -19q38 0 91.5 64t99 158t61.5 177l8 43 q-37 11 -70 11q-66 0 -120 -61.5t-81.5 -146t-27.5 -165.5z" />
<glyph unicode="b" horiz-adv-x="1128" d="M23 20l229 1194q-98 17 -162 21l47 244q189 20 394 20q68 0 139 -2l-66 -346q-33 -172 -110 -332h4q150 225 362 225q256 0 256 -331q0 -151 -43 -283t-125 -234.5t-212.5 -161.5t-293.5 -59q-226 0 -419 45zM438 279q37 -11 70 -11q66 0 120 61.5t81.5 146t27.5 165.5 q0 42 -8.5 61t-30.5 19q-38 0 -91.5 -64t-99 -158t-61.5 -177z" />
<glyph unicode="c" horiz-adv-x="890" d="M51 354q0 160 50 292t134.5 217t192 131t225.5 46q161 0 285 -28l-72 -375h-239q0 36 4 90q-10 2 -23 2q-56 0 -113 -80.5t-57 -210.5q0 -73 37 -105t113 -32q89 0 190 33v-318q-152 -41 -293 -41q-223 0 -328.5 95t-105.5 284z" />
<glyph unicode="d" horiz-adv-x="1189" d="M45 305q0 151 43 283t125 234t212.5 161t293.5 59q28 0 61 -4l33 176q-91 16 -172 21l45 244q191 20 403 20q71 0 144 -2l-234 -1216q87 -19 152 -21l-47 -244q-188 -20 -374 -20q-62 0 -124 2q19 103 58 195h-5q-148 -220 -358 -220q-256 0 -256 332zM424 377 q0 -42 8.5 -61t30.5 -19q38 0 91.5 64t99 158t61.5 177l8 43q-37 11 -70 11q-66 0 -120 -61.5t-81.5 -146t-27.5 -165.5z" />
<glyph unicode="e" horiz-adv-x="1032" d="M51 342q0 136 35 252t94 197.5t137 139t164.5 84.5t175.5 27q109 0 186.5 -24.5t116.5 -66.5t55.5 -86.5t16.5 -96.5q0 -82 -31.5 -148t-86.5 -111.5t-133.5 -76.5t-169.5 -46t-197 -17v-25q0 -43 30 -61.5t111 -18.5q142 0 315 62v-281q-210 -70 -432 -70 q-109 0 -185.5 26t-120 76.5t-62.5 115t-19 149.5zM446 598q102 2 161 34t59 87q0 51 -56 51q-110 0 -164 -172z" />
<glyph unicode="f" horiz-adv-x="757" d="M-207 -473l84 303q46 -12 86 -12q58 0 89.5 34.5t51.5 141.5l140 737h-148l58 287h147l14 82q35 205 157 311.5t355 106.5q91 0 160 -17l-80 -301q-47 14 -90 14q-62 0 -96 -28.5t-45 -104.5l-10 -63h170l-56 -287h-170l-139 -745q-44 -237 -171.5 -357.5t-326.5 -120.5 q-90 0 -180 19z" />
<glyph unicode="g" horiz-adv-x="1142" d="M-68 -449l88 332q123 -67 289 -67q243 0 279 178q15 74 76 199h-5q-148 -220 -358 -220q-256 0 -256 332q0 151 43 283t125 234t212.5 161t293.5 59q244 0 422 -34l-199 -1028q-47 -250 -210.5 -364t-473.5 -114q-184 0 -326 49zM424 377q0 -42 8.5 -61t30.5 -19 q38 0 91.5 64t99 158t61.5 177l8 43q-37 11 -70 11q-66 0 -120 -61.5t-81.5 -146t-27.5 -165.5z" />
<glyph unicode="h" horiz-adv-x="1204" d="M18 0l234 1214q-98 17 -162 21l47 244q189 20 394 20q68 0 139 -2l-68 -362q-29 -153 -104 -310h4q150 219 368 219q76 0 128.5 -26t77 -71t31.5 -105q2 -18 2 -37q0 -43 -11 -90l-84 -436q82 -18 149 -21l-45 -244q-159 -18 -366 -18q-75 0 -156 2l119 623q7 38 7 60 q0 11 -2 19q-5 22 -26 21q-32 0 -83 -58.5t-100.5 -158.5t-68.5 -201l-57 -303h-367z" />
<glyph unicode="i" horiz-adv-x="694" d="M76 758l49 246q199 18 387 18q67 0 133 -2l-141 -741q83 -15 149 -19l-45 -244q-172 -20 -396 -20q-63 0 -130 2l143 743q-67 11 -149 17zM293 1296q0 97 71 163.5t166 66.5q89 0 149 -59.5t60 -137.5q0 -100 -71 -166.5t-166 -66.5q-91 0 -150 59.5t-59 140.5z" />
<glyph unicode="j" horiz-adv-x="647" d="M-236 -471l78 313q47 -20 99 -20q58 0 91 38.5t52 129.5l141 747q-101 17 -151 21l49 243q191 21 398 21q61 0 124 -2l-199 -1045q-90 -467 -536 -467q-71 0 -146 21zM297 1296q0 97 71.5 163.5t166.5 66.5q89 0 148.5 -59.5t59.5 -137.5q0 -100 -71 -166.5t-166 -66.5 q-91 0 -150 59.5t-59 140.5z" />
<glyph unicode="k" horiz-adv-x="1210" d="M18 0l232 1214q-94 16 -160 21l47 244q189 20 394 20q68 0 139 -2l-97 -498q-11 -55 -53 -151h2q60 97 157.5 145.5t217.5 48.5q153 0 233 -76.5t80 -197.5q0 -147 -92 -241t-262 -146l74 -109q53 -4 157 -20l-47 -252h-413l-181 330l-61 -330h-367zM561 553 q131 10 196.5 46t65.5 89q0 51 -53 51q-45 0 -101 -48t-108 -138z" />
<glyph unicode="l" horiz-adv-x="628" d="M18 -2l234 1216q-98 17 -162 21l47 244q189 20 395 20q69 0 140 -2l-234 -1216q104 -18 152 -21l-47 -244q-191 -20 -397 -20q-63 0 -128 2z" />
<glyph unicode="m" horiz-adv-x="1847" d="M76 758l49 246q175 18 363 18q68 0 137 -2q-18 -98 -62 -195h4q75 107 161.5 163t203.5 56q93 0 152 -50t59 -150q0 -17 -2 -31h2q74 115 162.5 173t207.5 58q74 0 126 -26.5t77 -71.5q24 -46 31 -106q2 -19 3 -39q0 -43 -11 -88l-82 -432q63 -14 149 -21l-45 -246 q-159 -18 -367 -18q-75 0 -157 2l119 623q7 38 7 60q0 11 -2 19q-5 22 -26 21q-32 0 -83 -58.5t-100.5 -158.5t-68.5 -201l-57 -303h-364l118 621q7 39 7 62q1 11 -1 17q-4 22 -26 21q-32 0 -83 -58.5t-100.5 -158.5t-68.5 -201l-57 -303h-367l141 737q-105 18 -149 21z" />
<glyph unicode="n" horiz-adv-x="1269" d="M76 758l49 246q175 18 363 18q68 0 137 -2q-21 -105 -62 -195h4q150 219 369 219q76 0 128.5 -26t76.5 -71t31 -105q2 -18 2 -37q0 -43 -11 -90l-84 -436q82 -18 150 -21l-45 -244q-159 -18 -366 -18q-75 0 -156 2l118 623q7 39 7 62q1 11 -1 17q-4 22 -26 21 q-32 0 -83 -58.5t-100.5 -158.5t-68.5 -201l-57 -303h-367l141 737q-105 18 -149 21z" />
<glyph unicode="o" horiz-adv-x="1132" d="M47 346q0 132 36.5 246.5t99 195.5t145 139.5t175 86.5t189.5 28q428 0 428 -378q0 -152 -53 -282.5t-141.5 -218.5t-204.5 -138t-242 -50q-233 0 -332.5 95.5t-99.5 275.5zM430 401q0 -100 92 -100q55 0 98 30.5t67 79t36 100.5t12 103q0 54 -22.5 79.5t-77.5 25.5 q-50 0 -91 -31.5t-65 -81t-36.5 -103t-12.5 -102.5z" />
<glyph unicode="p" horiz-adv-x="1187" d="M-160 -477l47 246q79 17 162 24l176 944q-98 17 -149 21l45 243q164 22 363 22q68 0 141 -3q-21 -99 -62 -195h4q147 219 359 219q256 0 256 -331q0 -120 -26.5 -228.5t-81 -201t-133.5 -160t-189.5 -105.5t-241.5 -38q-28 0 -61 4l-35 -191q97 -7 170 -24l-47 -246h-697 zM504 283q37 -11 69 -11q66 0 120.5 60.5t82 144t27.5 164.5q0 42 -8.5 61t-30.5 19q-38 0 -91.5 -63t-99 -156t-61.5 -176z" />
<glyph unicode="q" horiz-adv-x="1142" d="M45 305q0 151 43 283t125 234t212.5 161t293.5 59q232 0 420 -36l-232 -1213q71 -5 152 -24l-47 -246h-697l47 246q99 19 181 24l14 78q32 173 107 322h-5q-148 -220 -358 -220q-256 0 -256 332zM424 377q0 -42 8.5 -61t30.5 -19q38 0 91.5 64t99 158t61.5 177l8 43 q-37 11 -70 11q-66 0 -120 -61.5t-81.5 -146t-27.5 -165.5z" />
<glyph unicode="r" horiz-adv-x="856" d="M76 758l49 246q168 19 352 19q71 0 144 -3q-18 -98 -62 -209h4q77 135 167 193q64 41 144 41q33 0 68 -7l-88 -358q-31 10 -60 10q-82 0 -154 -84q-96 -114 -151 -399l-38 -207h-367l141 737q-80 16 -149 21z" />
<glyph unicode="s" horiz-adv-x="882" d="M-12 10l63 326h240q0 -34 -8 -92q33 -11 84 -11q43 0 67.5 17.5t24.5 44.5q0 20 -20.5 36.5t-53.5 30t-72.5 28.5t-79.5 37t-73 51t-53.5 75t-20.5 104q0 162 140.5 273.5t387.5 111.5q137 0 293 -34l-59 -310h-236q0 61 2 86q-45 9 -59 9q-44 0 -71 -15t-27 -43 q0 -19 20.5 -35t53.5 -30t73 -30t80 -39t73 -52t53.5 -74.5t20.5 -101.5q0 -75 -37 -146t-104.5 -127.5t-170.5 -90.5t-226 -34q-58 0 -150.5 10.5t-154.5 24.5z" />
<glyph unicode="t" horiz-adv-x="761" d="M78 731l57 287h123l55 287l379 71l-67 -358h188l-57 -287h-187l-65 -354q-4 -24 -4 -41q0 -22 6 -32q12 -19 55 -19t109 12l-43 -291q-121 -31 -236 -31q-175 0 -235 88q-38 55 -37 152q0 60 14 135l72 381h-127z" />
<glyph unicode="u" horiz-adv-x="1269" d="M76 758l49 243q192 21 390 21q64 0 128 -2l-119 -623q-7 -38 -7 -60q0 -11 2 -19q5 -22 26 -21q32 0 83.5 59t101 160t67.5 201l4 22q-73 13 -121 17l47 250q168 16 332 16q82 0 162 -4l-142 -737q86 -15 150 -21l-45 -244q-182 -20 -372 -20q-64 0 -128 2q11 96 57 195 h-4q-73 -106 -161.5 -163t-206.5 -57q-76 0 -128.5 26.5t-77 71.5t-31.5 105q-2 18 -2 37q0 43 11 90l84 434q-95 16 -149 21z" />
<glyph unicode="v" horiz-adv-x="1128" d="M59 758l47 246q150 18 337 18q57 0 118 -2v-307q0 -38 -6 -326h4l279 678l389 -98l-525 -967h-473l-41 737q-78 16 -129 21z" />
<glyph unicode="w" horiz-adv-x="1677" d="M53 758l47 246q150 17 330 17q49 0 100 -1l43 -637h2l195 330l-2 24q-93 16 -141 21l47 246q136 18 329 18q59 0 123 -2v-639h2l256 680l388 -92l-492 -969h-457l-16 301l-156 -301h-395l-74 737q-73 15 -129 21z" />
<glyph unicode="x" horiz-adv-x="1081" d="M-74 94l393 438l-98 216q-70 7 -123 18l47 252h377l107 -252l248 326l307 -166l-379 -437l100 -219q71 -7 123 -18l-47 -252h-377l-106 254l-254 -328z" />
<glyph unicode="y" horiz-adv-x="1136" d="M-143 -477l57 313q59 -20 121 -20q97 0 141 34q57 42 57 170q0 299 -40 717q-67 15 -130 21l48 246q151 19 320 19q65 0 132 -3q10 -188 10 -307q0 -161 -14 -346h4q45 94 93.5 220t79.5 217t87 259l385 -94q-159 -365 -292 -613.5t-234.5 -389t-220.5 -259.5 q-109 -109 -215.5 -155t-225.5 -46q-86 0 -163 17z" />
<glyph unicode="z" horiz-adv-x="956" d="M-20 0l53 279l485 477q-28 -4 -96 -4h-37l-33 -90h-246l66 356h821l-53 -281l-469 -454q25 2 92 2h43q14 42 31 90h248l-72 -375h-833z" />
<glyph unicode="{" horiz-adv-x="786" d="M61 494l54 274q43 2 75.5 11t64.5 31.5t54 67.5t33 111l14 86q48 289 177.5 411t365.5 122h53l-59 -301q-64 0 -96.5 -15t-55.5 -64t-43 -153l-16 -86q-35 -184 -99.5 -264t-150.5 -92v-4q38 -6 65 -26.5t46.5 -63.5t19.5 -111t-18 -168l-31 -156q-16 -79 -18.5 -124.5 t11 -71.5t38.5 -33.5t73 -7.5l-57 -303h-51q-233 0 -313.5 124t-24.5 414l31 158q13 55 9.5 94.5t-14 66t-33 42.5t-47 23t-57.5 8z" />
<glyph unicode="|" horiz-adv-x="585" d="M-31 -477l389 2048h293l-391 -2048h-291z" />
<glyph unicode="}" horiz-adv-x="786" d="M-100 -436l55 303q48 0 76 7.5t51.5 33.5t38.5 71.5t31 124.5l30 156q68 344 254 369v4q-39 6 -65.5 24.5t-46.5 59t-19 106.5t17 166l16 86q12 64 15 104t-1 66.5t-21 39.5t-39 17.5t-61 4.5l58 301h53q233 0 312 -121.5t24 -411.5l-16 -86q-13 -55 -8.5 -93.5t14 -62.5 t32.5 -38.5t47 -20t58 -6.5l-51 -274q-89 -3 -146.5 -54t-83.5 -180l-30 -158q-56 -291 -183 -414.5t-360 -123.5h-51z" />
<glyph unicode="~" d="M143 852q10 210 112.5 319t272.5 109q67 0 118.5 -20.5t80.5 -49t50 -57.5t40.5 -49.5t40.5 -20.5q32 0 51 32.5t29 109.5h276q-9 -210 -112 -319t-273 -109q-67 0 -118.5 20t-80 49t-49.5 58t-40.5 49t-40.5 20q-32 0 -51 -32t-29 -109h-277z" />
<glyph unicode="&#xa1;" horiz-adv-x="651" d="M-70 -446l246 1021h322l-140 -1021h-428zM178 827q0 95 67.5 157.5t160.5 62.5q87 0 142.5 -56t55.5 -131q0 -97 -67 -160t-160 -63q-88 0 -143.5 56t-55.5 134z" />
<glyph unicode="&#xa2;" horiz-adv-x="1191" d="M111 580q0 180 67.5 323t208 236.5t338.5 113.5l31 160h229l-31 -153q53 -1 126 -17t116 -35l-74 -387h-229q5 83 8 107q-55 18 -123 18q-137 0 -205.5 -74.5t-68.5 -212.5q0 -97 67.5 -143.5t178.5 -46.5q62 0 149.5 13t140.5 34v-303q-125 -49 -295 -61l-38 -197h-230 l37 192q-195 22 -299 132t-104 301z" />
<glyph unicode="&#xa3;" horiz-adv-x="1040" d="M14 0l52 268q174 53 204 211q8 57 4 74h-157l55 287h129q5 120 12 166q35 216 161 311.5t362 95.5q65 0 149.5 -10.5t134.5 -26.5l-69 -366h-240q0 28 4 94q-8 2 -22 2q-49 0 -73 -26t-36 -89q-7 -31 -16 -151h229l-55 -287h-201q0 -21 -4 -45q-22 -110 -123 -197 q54 4 94 4h74q4 11 20.5 65.5t24.5 76.5h285l-86 -457h-912z" />
<glyph unicode="&#xa4;" d="M6 276l160 164q-21 49 -21 131q0 188 119 338l-100 178l323 197l103 -186q68 10 121 10q30 0 84 -4l163 184l259 -217l-156 -162q16 -43 16 -104q0 -196 -123 -361l109 -184l-328 -201l-108 197q-62 -10 -115 -10q-24 0 -74 4l-168 -187zM471 625q0 -52 24 -82.5 t68 -30.5q51 0 90 23.5t59.5 60.5t30 75t9.5 74q0 97 -101 97q-77 0 -128.5 -64t-51.5 -153z" />
<glyph unicode="&#xa5;" horiz-adv-x="1253" d="M98 293l39 194h297l17 84h-297l34 191h179l-150 356q-49 4 -80 12l47 252h545l-49 -252q-44 -9 -84 -12l35 -88q49 -121 55 -145h6q59 86 117 155l61 78q-46 3 -84 12l48 252h563l-47 -252q-45 -9 -86 -12l-291 -356h190l-35 -191h-309l-16 -84h309l-39 -194h-309 l-10 -51q76 -5 178 -25l-41 -217h-719l41 217q110 21 172 25l10 51h-297z" />
<glyph unicode="&#xa6;" horiz-adv-x="585" d="M-31 -477l148 774h291l-148 -774h-291zM217 817l141 754h293l-143 -754h-291z" />
<glyph unicode="&#xa7;" horiz-adv-x="1091" d="M25 -332l79 316q102 -27 158 -27t94.5 11t56 28.5t24.5 33.5t7 33q0 35 -33.5 72.5t-81 75.5t-95.5 83.5t-81.5 114.5t-33.5 150q0 119 57.5 218.5t151.5 160.5q-43 67 -43 160q0 53 18 107.5t62 111.5t108.5 101t166 72t226.5 28q93 0 207 -15l-76 -309q-70 20 -149 20 q-88 0 -123 -26.5t-35 -73.5q0 -30 33.5 -64t81 -72.5t95 -87.5t81 -127t33.5 -173q0 -108 -60 -206t-145 -153q37 -54 37 -143q0 -85 -38 -162t-110.5 -139.5t-191.5 -99.5t-268 -37q-118 0 -213 18zM453 637q0 -40 36 -85t144 -140q49 38 49 110q0 43 -33 85.5t-145 148.5 q-51 -42 -51 -119z" />
<glyph unicode="&#xa8;" horiz-adv-x="1095" d="M291 1307q0 78 58 134t136 56q75 0 127 -53.5t52 -126.5q0 -81 -57.5 -137t-135.5 -56q-76 0 -128 54.5t-52 128.5zM735 1309q0 77 58.5 132.5t136.5 55.5q75 0 126.5 -53.5t51.5 -126.5q0 -81 -57.5 -137t-135.5 -56q-76 0 -128 54.5t-52 130.5z" />
<glyph unicode="&#xa9;" horiz-adv-x="1546" d="M109 680q7 146 71 279.5t165 229.5t237 153t282 57t276.5 -57t221.5 -153t141 -229.5t43 -279.5t-71 -279.5t-165 -229.5t-237 -153t-282 -57t-276.5 57t-221.5 153t-141 229.5t-43 279.5zM381 680q-9 -185 115.5 -316t308.5 -131q185 0 322.5 131.5t146.5 315.5 q9 185 -115.5 315.5t-308.5 130.5q-185 0 -322.5 -131t-146.5 -315zM489 651q15 78 51 144.5t92 119t139 83t183 30.5q86 0 164 -22l-51 -267h-182v60h-17q-67 0 -90 -121q-15 -77 10 -105t101 -28q49 0 135 22l-29 -227q-129 -27 -209 -27q-184 0 -256.5 89t-40.5 249z" />
<glyph unicode="&#xaa;" horiz-adv-x="972" d="M23 254l57 287h747l-57 -287h-747zM90 846q0 115 34 216t97.5 179t163.5 123t223 45q176 0 326 -27q-61 -304 -100 -522l137 -18l-39 -213q-223 -26 -416 -17q22 78 47 148h-2q-112 -168 -270 -168q-97 0 -149 64t-52 190zM387 911q0 -32 6 -46.5t23 -14.5q46 0 110 94.5 t76 190.5l4 32q-32 9 -53 9q-72 0 -119 -84t-47 -181z" />
<glyph unicode="&#xab;" horiz-adv-x="1144" d="M82 616l280 424l277 -129l-211 -315l94 -322l-309 -118zM592 612l299 412l266 -131l-219 -297l113 -301l-303 -123z" />
<glyph unicode="&#xac;" d="M76 455l59 311h952l-112 -594h-334l53 283h-618z" />
<glyph unicode="&#xad;" horiz-adv-x="681" d="M74 391l57 297h522l-57 -297h-522z" />
<glyph unicode="&#xae;" horiz-adv-x="1159" d="M178 1061q0 154 76.5 278.5t199 192t263.5 67.5q206 0 347.5 -137.5t141.5 -339.5q0 -116 -45 -217.5t-119.5 -171t-172.5 -109.5t-203 -40q-134 0 -246 62.5t-177 172t-65 242.5zM391 1073q0 -121 82.5 -208t202.5 -87q127 0 222 97t95 237q0 120 -82 206.5t-202 86.5 q-128 0 -223 -96.5t-95 -235.5zM477 883l19 98q21 6 39 6l43 223l-35 9l20 96l51 2q51 2 144 2q90 0 135 -33t31 -102q-6 -36 -29 -67.5t-57 -45.5q14 -8 18 -24l12 -60q13 0 25 -4l-14 -100h-152l-12 143h-31l-8 -39q10 0 26 -4l-18 -100h-207zM705 1139q1 0 7.5 -1 t12.5 -1q45 0 51 34q2 12 -6.5 20.5t-28.5 8.5q-8 0 -15.5 -1t-8.5 -1z" />
<glyph unicode="&#xaf;" horiz-adv-x="792" d="M246 1178l49 266h592l-49 -266h-592z" />
<glyph unicode="&#xb0;" horiz-adv-x="813" d="M193 1161q0 69 23 129t61.5 101t88.5 70t103 43t106 14q91 0 157 -24.5t101.5 -67t51.5 -90.5t16 -105q0 -91 -34 -162t-91 -113.5t-124.5 -64t-139.5 -21.5q-154 0 -236.5 79.5t-82.5 211.5zM461 1186q0 -39 21.5 -62.5t60.5 -23.5q41 0 66.5 30.5t25.5 79.5 q0 32 -20.5 57t-53.5 25q-43 0 -71.5 -28.5t-28.5 -77.5z" />
<glyph unicode="&#xb1;" d="M2 0l59 311h959l-59 -311h-959zM131 741l57 308h314l65 333h357l-66 -333h313l-57 -308h-313l-64 -335h-356l63 335h-313z" />
<glyph unicode="&#xb2;" horiz-adv-x="851" d="M76 553l51 266l147 80q148 79 203 122t55 81q0 18 -10 26.5t-35 8.5q-38 0 -67 -11q-3 -13 -15 -45.5t-16 -44.5h-219l57 305q172 60 342 60q180 0 262 -64.5t82 -173.5q0 -66 -51 -141t-164 -137l-94 -51q105 6 266 6l-53 -287h-741z" />
<glyph unicode="&#xb3;" horiz-adv-x="796" d="M68 553l69 229q119 -22 193 -22q83 0 119 13t36 42q0 12 -4 19t-21.5 14.5t-50.5 8.5t-95.5 -2.5t-151.5 -14.5l41 209q104 0 173.5 7t103.5 21.5t46.5 30t12.5 37.5q0 33 -52 33q-26 0 -61 -7q-3 -10 -27 -71h-219l49 260q189 41 322 41q98 0 168 -17t105.5 -46.5 t51 -61.5t15.5 -70q0 -67 -38 -120t-103 -85q49 -14 70.5 -55t21.5 -86q0 -99 -68.5 -174.5t-183.5 -114.5t-258 -39q-125 0 -264 21z" />
<glyph unicode="&#xb4;" horiz-adv-x="802" d="M326 1319l446 254l131 -252l-465 -207z" />
<glyph unicode="&#xb5;" horiz-adv-x="1302" d="M20 -477q7 104 19.5 208.5t36 235t36 198t47 234t42.5 205.5l26 133q-93 16 -151 21l49 246q234 26 520 16l-106 -561q-16 -68 -10 -104t21.5 -47t47.5 -11q35 0 87.5 58.5t100 158.5t64.5 201l4 24q-73 13 -121 17l47 250q252 24 494 12l-103 -531q-18 -99 -18 -143 q0 -34 8.5 -46.5t32.5 -12.5q25 0 35 2l-29 -293q-89 -19 -153 -19q-130 0 -184 43t-54 129q0 30 2 46h-2q-48 -101 -122.5 -155t-141.5 -54q-41 0 -78.5 13.5t-46.5 33.5q0 -96 -4 -127q-32 -205 -29 -381h-367z" />
<glyph unicode="&#xb6;" horiz-adv-x="1228" d="M156 815q0 115 43 218t121.5 180.5t197.5 123t262 45.5l-182 -960q-219 0 -330.5 104t-111.5 289zM512 -197l57 303h131l244 1276h412l-58 -303h-114l-242 -1276h-430z" />
<glyph unicode="&#xb7;" horiz-adv-x="643" d="M135 606q0 95 70 162.5t166 67.5q93 0 156 -65t63 -155q0 -96 -70 -163.5t-166 -67.5q-94 0 -156.5 65t-62.5 156z" />
<glyph unicode="&#xb8;" horiz-adv-x="802" d="M33 -477q55 51 81 98t24.5 102.5t-36.5 118.5l308 78q55 -120 27.5 -221t-128.5 -176h-276z" />
<glyph unicode="&#xb9;" horiz-adv-x="749" d="M61 553l43 225q95 19 177 25l51 276l-148 -61v278l252 86h305l-110 -579q71 -9 141 -25l-43 -225h-668z" />
<glyph unicode="&#xba;" horiz-adv-x="921" d="M23 254l57 287h743l-57 -287h-743zM104 877q0 233 142.5 381.5t365.5 148.5q340 0 340 -289q0 -116 -41.5 -215.5t-111.5 -167t-162 -105.5t-191 -38q-183 0 -262.5 74t-79.5 211zM408 918q0 -76 71 -76q44 0 78 23t52.5 60t28 77t9.5 79q0 41 -17.5 60.5t-60.5 19.5 q-53 0 -91 -42t-54 -95t-16 -106z" />
<glyph unicode="&#xbb;" horiz-adv-x="1144" d="M51 303l219 297l-112 301l303 123l155 -440l-299 -412zM569 285l211 315l-94 322l309 118l131 -460l-280 -424z" />
<glyph unicode="&#xbc;" horiz-adv-x="1638" d="M-35 -2l1469 1487l149 -137l-1470 -1487zM70 686l28 166q51 11 133 22l56 291l-127 -43l-6 201l194 63h268l-96 -512q31 -4 98 -22l-30 -166h-518zM768 178l6 195l281 323h375l-62 -323h107l-39 -195h-107l-4 -28l94 -25l-22 -125h-500l23 125q82 20 118 27l4 26h-274z M989 373h101l26 151z" />
<glyph unicode="&#xbd;" horiz-adv-x="1742" d="M-35 -2l1469 1487l149 -137l-1470 -1487zM70 686l28 166q51 11 133 22l56 291l-127 -43l-6 201l194 63h268l-96 -512q31 -4 98 -22l-30 -166h-518zM809 0l47 248l152 71q144 67 171 86q36 25 42 52q4 22 -7 33.5t-32 11.5q-25 0 -56 -8q-5 -11 -11.5 -26t-11.5 -26.5 t-11 -23.5h-193l59 250q166 53 336 53q168 0 234.5 -51t48.5 -144q-16 -84 -66 -135t-135 -94l-125 -64h277l-43 -233h-676z" />
<glyph unicode="&#xbe;" horiz-adv-x="1638" d="M-35 -2l1469 1487l149 -137l-1470 -1487zM49 678q10 31 28.5 95t28.5 95q86 -22 156 -22q122 0 133 51q2 14 -8 22.5t-33.5 12t-57.5 3t-83 -4.5q-52 -4 -84 -8l35 180h26q79 0 132 7t77.5 20t33.5 24.5t13 28.5q4 23 -10.5 33t-42.5 10q-17 0 -45 -4q-13 -43 -26 -64 h-175l41 215q164 35 285 35q143 0 213 -42.5t49 -143.5q-18 -103 -125 -156q50 -13 69.5 -55t8.5 -99q-21 -112 -137.5 -180.5t-310.5 -68.5q-116 0 -191 16zM768 178l6 195l281 323h375l-62 -323h107l-39 -195h-107l-4 -28l94 -25l-22 -125h-500l23 125q82 20 118 27l4 26 h-274zM989 373h101l26 151z" />
<glyph unicode="&#xbf;" horiz-adv-x="921" d="M-35 -78q0 81 25 148t64 112.5t86.5 84.5t93.5 72t83 66.5t56.5 76.5t13.5 93h358q13 -76 -0.5 -140.5t-45 -108.5t-73 -81t-85 -66t-80.5 -55.5t-60.5 -58t-23.5 -65.5q0 -38 26.5 -63.5t78.5 -40t109.5 -21t137.5 -8.5l-108 -338q-168 3 -296 34.5t-205.5 85.5 t-116 122.5t-38.5 150.5zM395 827q0 95 67.5 157.5t160.5 62.5q87 0 142.5 -56t55.5 -131q0 -97 -67 -160t-160 -63q-88 0 -143.5 56t-55.5 134z" />
<glyph unicode="&#xc0;" horiz-adv-x="1417" d="M-59 0l45 248q53 14 90 16l559 1118h500l145 -1118q35 -2 84 -16l-47 -248h-602l47 246q87 14 125 18l-8 101h-379l-45 -101q15 -2 110 -18l-47 -246h-577zM573 1540l105 252l459 -156l-80 -196zM639 659h209l-12 154q-17 227 -17 244h-4q-35 -92 -106 -246z" />
<glyph unicode="&#xc1;" horiz-adv-x="1417" d="M-59 0l45 248q53 14 90 16l559 1118h500l145 -1118q35 -2 84 -16l-47 -248h-602l47 246q87 14 125 18l-8 101h-379l-45 -101q15 -2 110 -18l-47 -246h-577zM639 659h209l-12 154q-17 227 -17 244h-4q-35 -92 -106 -246zM709 1636l501 156l39 -252l-510 -100z" />
<glyph unicode="&#xc2;" horiz-adv-x="1417" d="M-59 0l45 248q53 14 90 16l559 1118h500l145 -1118q35 -2 84 -16l-47 -248h-602l47 246q87 14 125 18l-8 101h-379l-45 -101q15 -2 110 -18l-47 -246h-577zM561 1608l371 184l336 -184l-90 -168l-269 112l-291 -112zM639 659h209l-12 154q-17 227 -17 244h-4 q-35 -92 -106 -246z" />
<glyph unicode="&#xc3;" horiz-adv-x="1417" d="M-59 0l45 248q53 14 90 16l559 1118h500l145 -1118q35 -2 84 -16l-47 -248h-602l47 246q87 14 125 18l-8 101h-379l-45 -101q15 -2 110 -18l-47 -246h-577zM504 1589q117 195 297 195q48 0 87.5 -13t60.5 -28t46 -28t47 -13q34 0 57 19t48 61l172 -119 q-114 -195 -297 -195q-48 0 -87.5 13t-60.5 28t-45.5 28t-46.5 13q-35 0 -57 -18.5t-47 -61.5zM639 659h209l-12 154q-17 227 -17 244h-4q-35 -92 -106 -246z" />
<glyph unicode="&#xc4;" horiz-adv-x="1417" d="M-59 0l45 248q53 14 90 16l559 1118h500l145 -1118q35 -2 84 -16l-47 -248h-602l47 246q87 14 125 18l-8 101h-379l-45 -101q15 -2 110 -18l-47 -246h-577zM532 1610q0 78 53.5 132t125.5 54q70 0 119 -51t49 -117q0 -79 -54 -131.5t-127 -52.5q-69 0 -117.5 49.5 t-48.5 116.5zM639 659h209l-12 154q-17 227 -17 244h-4q-35 -92 -106 -246zM967 1610q0 78 53 132t125 54q70 0 119 -51t49 -117q0 -80 -53.5 -132t-126.5 -52q-69 0 -117.5 49.5t-48.5 116.5z" />
<glyph unicode="&#xc5;" horiz-adv-x="1417" d="M-59 0l45 248q53 14 90 16l559 1118h500l145 -1118q35 -2 84 -16l-47 -248h-602l47 246q87 14 125 18l-8 101h-379l-45 -101q15 -2 110 -18l-47 -246h-577zM639 659h209l-12 154q-17 227 -17 244h-4q-35 -92 -106 -246zM666 1679q0 117 81.5 193t196.5 76 q112 0 187 -71.5t75 -176.5q0 -116 -82.5 -191t-197.5 -75q-112 0 -186 70.5t-74 174.5zM848 1688q0 -35 24.5 -60.5t59.5 -25.5q39 0 65.5 26.5t26.5 65.5q0 35 -23.5 60.5t-60.5 25.5q-40 0 -66 -27.5t-26 -64.5z" />
<glyph unicode="&#xc6;" horiz-adv-x="1660" d="M-135 0l47 248q53 14 88 16l551 848q-65 4 -170 25l47 245h1344l-76 -393h-289q0 36 4 94h-141l-47 -243h120q9 28 27 73h248l-80 -413h-246v73h-121l-51 -268h146q4 14 32 107h295l-80 -412h-942l47 252q83 13 125 18l13 74h-316l-49 -80q37 -4 80 -18l-47 -246h-559z M614 639h199l84 442h-10q-120 -201 -195 -319z" />
<glyph unicode="&#xc7;" horiz-adv-x="1103" d="M80 477q0 136 32.5 267.5t100.5 249t163.5 206.5t230.5 141t292 52q186 0 315 -29l-92 -481h-297q0 4 6 151q-6 2 -36 2q-74 0 -132.5 -51t-91 -128.5t-49 -156.5t-16.5 -147q0 -110 54 -166.5t173 -56.5q145 0 256 51l-16 -350q-172 -49 -352 -49q-95 0 -173.5 17 t-133.5 45.5t-97.5 69t-67.5 83.5t-41 93.5t-22 95t-6 91.5zM266 -477q55 52 81 98.5t25 102t-36 118.5l307 78q55 -120 27.5 -221t-127.5 -176h-277z" />
<glyph unicode="&#xc8;" horiz-adv-x="1093" d="M-49 0l47 246q100 19 178 24l160 842q-68 5 -168 25l45 245h993l-73 -393h-289q0 36 4 94h-143l-48 -243h121q1 3 29 73h246l-78 -413h-248v73h-119l-51 -268h143q15 51 35 107h293l-78 -412h-999zM393 1540l105 252l458 -156l-79 -196z" />
<glyph unicode="&#xc9;" horiz-adv-x="1093" d="M-49 0l47 246q100 19 178 24l160 842q-68 5 -168 25l45 245h993l-73 -393h-289q0 36 4 94h-143l-48 -243h121q1 3 29 73h246l-78 -413h-248v73h-119l-51 -268h143q15 51 35 107h293l-78 -412h-999zM606 1636l502 156l39 -252l-510 -100z" />
<glyph unicode="&#xca;" horiz-adv-x="1093" d="M-49 0l47 246q100 19 178 24l160 842q-68 5 -168 25l45 245h993l-73 -393h-289q0 36 4 94h-143l-48 -243h121q1 3 29 73h246l-78 -413h-248v73h-119l-51 -268h143q15 51 35 107h293l-78 -412h-999zM434 1608l371 184l336 -184l-90 -168l-269 112l-290 -112z" />
<glyph unicode="&#xcb;" horiz-adv-x="1093" d="M-49 0l47 246q100 19 178 24l160 842q-68 5 -168 25l45 245h993l-73 -393h-289q0 36 4 94h-143l-48 -243h121q1 3 29 73h246l-78 -413h-248v73h-119l-51 -268h143q15 51 35 107h293l-78 -412h-999zM385 1610q0 78 53 132t125 54q70 0 119 -51t49 -117q0 -80 -53.5 -132 t-126.5 -52q-69 0 -117.5 49.5t-48.5 116.5zM819 1610q0 78 53 132t125 54q70 0 119 -51t49 -117q0 -80 -53.5 -132t-126.5 -52q-69 0 -117.5 49.5t-48.5 116.5z" />
<glyph unicode="&#xcc;" horiz-adv-x="782" d="M-49 0l47 246q100 19 178 24l160 842q-68 5 -168 25l45 245h723l-47 -245q-108 -20 -178 -25l-162 -842q77 -5 170 -24l-45 -246h-723zM262 1540l105 252l458 -156l-80 -196z" />
<glyph unicode="&#xcd;" horiz-adv-x="782" d="M-49 0l47 246q100 19 178 24l160 842q-68 5 -168 25l45 245h723l-47 -245q-108 -20 -178 -25l-162 -842q77 -5 170 -24l-45 -246h-723zM381 1636l502 156l39 -252l-510 -100z" />
<glyph unicode="&#xce;" horiz-adv-x="782" d="M-49 0l47 246q100 19 178 24l160 842q-68 5 -168 25l45 245h723l-47 -245q-108 -20 -178 -25l-162 -842q77 -5 170 -24l-45 -246h-723zM252 1608l371 184l335 -184l-90 -168l-268 112l-291 -112z" />
<glyph unicode="&#xcf;" horiz-adv-x="782" d="M-49 0l47 246q100 19 178 24l160 842q-68 5 -168 25l45 245h723l-47 -245q-108 -20 -178 -25l-162 -842q77 -5 170 -24l-45 -246h-723zM231 1610q0 78 53.5 132t125.5 54q70 0 119 -51t49 -117q0 -79 -54 -131.5t-127 -52.5q-69 0 -117.5 49.5t-48.5 116.5zM666 1610 q0 78 53 132t125 54q70 0 119 -51t49 -117q0 -79 -54 -131.5t-127 -52.5q-69 0 -117 49.5t-48 116.5z" />
<glyph unicode="&#xd0;" horiz-adv-x="1435" d="M-31 0l47 246q100 19 179 24l53 279h-107l56 287h106l51 276q-68 5 -168 25l45 245h170q47 0 213 4.5t263 4.5q131 0 233.5 -27.5t180 -85.5t118.5 -155t41 -228q0 -143 -34.5 -275.5t-106 -247.5t-172 -200t-241 -133.5t-304.5 -48.5q-92 0 -239 5t-210 5h-174zM578 326 q28 -7 69 -7q90 0 163 40t116.5 100.5t73 136.5t40.5 141.5t11 122.5q0 106 -51 157.5t-171 51.5q-81 0 -110 -4l-43 -229h182l-55 -287h-182z" />
<glyph unicode="&#xd1;" horiz-adv-x="1529" d="M-49 0l47 246q100 19 178 24l160 842q-65 4 -170 25l47 245h653l152 -540q48 -173 74 -338q17 196 45 348l49 260q-56 6 -105 18l47 252h576l-47 -252q-51 -12 -113 -18l-211 -1112h-473l-155 539q-53 180 -74 352q-11 -146 -35 -281l-59 -340q64 -7 118 -18l-49 -252 h-655zM614 1589q117 195 297 195q48 0 87.5 -13t61 -28t46.5 -28t47 -13q34 0 56.5 19t47.5 61l173 -119q-114 -195 -297 -195q-48 0 -87.5 13t-60.5 28t-45.5 28t-46.5 13q-35 0 -57.5 -18.5t-47.5 -61.5z" />
<glyph unicode="&#xd2;" horiz-adv-x="1406" d="M74 481q0 183 64.5 353.5t174 297.5t265 203t327.5 76q261 0 395 -132.5t134 -381.5q0 -159 -42.5 -303t-119.5 -256.5t-179 -195.5t-227 -127t-258 -44q-270 0 -402 134t-132 376zM471 549q0 -227 193 -227q83 0 154 45t118 119.5t73.5 169.5t26.5 196q0 95 -48.5 153 t-145.5 58q-88 0 -160.5 -46t-117 -120.5t-69 -164.5t-24.5 -183zM602 1540l105 252l458 -156l-80 -196z" />
<glyph unicode="&#xd3;" horiz-adv-x="1406" d="M74 481q0 183 64.5 353.5t174 297.5t265 203t327.5 76q261 0 395 -132.5t134 -381.5q0 -159 -42.5 -303t-119.5 -256.5t-179 -195.5t-227 -127t-258 -44q-270 0 -402 134t-132 376zM471 549q0 -227 193 -227q83 0 154 45t118 119.5t73.5 169.5t26.5 196q0 95 -48.5 153 t-145.5 58q-88 0 -160.5 -46t-117 -120.5t-69 -164.5t-24.5 -183zM743 1636l502 156l39 -252l-510 -100z" />
<glyph unicode="&#xd4;" horiz-adv-x="1406" d="M74 481q0 183 64.5 353.5t174 297.5t265 203t327.5 76q261 0 395 -132.5t134 -381.5q0 -159 -42.5 -303t-119.5 -256.5t-179 -195.5t-227 -127t-258 -44q-270 0 -402 134t-132 376zM471 549q0 -227 193 -227q83 0 154 45t118 119.5t73.5 169.5t26.5 196q0 95 -48.5 153 t-145.5 58q-88 0 -160.5 -46t-117 -120.5t-69 -164.5t-24.5 -183zM586 1608l370 184l336 -184l-90 -168l-268 112l-291 -112z" />
<glyph unicode="&#xd5;" horiz-adv-x="1406" d="M74 481q0 183 64.5 353.5t174 297.5t265 203t327.5 76q261 0 395 -132.5t134 -381.5q0 -159 -42.5 -303t-119.5 -256.5t-179 -195.5t-227 -127t-258 -44q-270 0 -402 134t-132 376zM471 549q0 -227 193 -227q83 0 154 45t118 119.5t73.5 169.5t26.5 196q0 95 -48.5 153 t-145.5 58q-88 0 -160.5 -46t-117 -120.5t-69 -164.5t-24.5 -183zM514 1589q117 195 297 195q48 0 87.5 -13t61 -28t46.5 -28t47 -13q34 0 56.5 19t47.5 61l172 -119q-114 -195 -297 -195q-48 0 -87 13t-60 28t-45.5 28t-46.5 13q-35 0 -57.5 -18.5t-47.5 -61.5z" />
<glyph unicode="&#xd6;" horiz-adv-x="1406" d="M74 481q0 183 64.5 353.5t174 297.5t265 203t327.5 76q261 0 395 -132.5t134 -381.5q0 -159 -42.5 -303t-119.5 -256.5t-179 -195.5t-227 -127t-258 -44q-270 0 -402 134t-132 376zM471 549q0 -227 193 -227q83 0 154 45t118 119.5t73.5 169.5t26.5 196q0 95 -48.5 153 t-145.5 58q-88 0 -160.5 -46t-117 -120.5t-69 -164.5t-24.5 -183zM541 1610q0 78 53 132t125 54q70 0 119 -51t49 -117q0 -80 -53.5 -132t-126.5 -52q-69 0 -117.5 49.5t-48.5 116.5zM975 1610q0 78 53 132t125 54q70 0 119 -51t49 -117q0 -80 -53.5 -132t-126.5 -52 q-69 0 -117.5 49.5t-48.5 116.5z" />
<glyph unicode="&#xd7;" d="M49 336l336 282l-225 283l254 201l219 -273l323 273l187 -219l-330 -279l227 -285l-254 -202l-223 278l-330 -278z" />
<glyph unicode="&#xd8;" horiz-adv-x="1406" d="M74 481q0 185 62.5 355t170.5 297t263.5 202.5t330.5 75.5q45 0 68 -2l94 186l260 -82l-94 -182q205 -125 205 -434q0 -159 -42.5 -303t-119.5 -256.5t-179 -195.5t-227 -127t-258 -44q-30 0 -84 4l-96 -200l-264 86l100 196q-190 130 -190 424zM459 541q0 -49 10 -97 l326 633q-34 -6 -64 -18q-86 -35 -149.5 -119t-93 -187t-29.5 -212zM698 305q42 5 95 29q119 57 189.5 204.5t70.5 321.5q0 49 -17 98z" />
<glyph unicode="&#xd9;" horiz-adv-x="1413" d="M145 379q0 68 17 162l108 571q-54 6 -104 18l47 252h604l-47 -252q-54 -10 -127 -18l-113 -590q-10 -51 -10 -98q0 -150 156 -150q115 0 172 61t84 202l108 575q-64 7 -118 18l49 252h596l-49 -252q-53 -12 -107 -18l-117 -604q-53 -270 -227 -403.5t-446 -133.5 q-128 0 -222 31t-148.5 87.5t-80 128.5t-25.5 161zM500 1540l104 252l459 -156l-80 -196z" />
<glyph unicode="&#xda;" horiz-adv-x="1413" d="M145 379q0 68 17 162l108 571q-54 6 -104 18l47 252h604l-47 -252q-54 -10 -127 -18l-113 -590q-10 -51 -10 -98q0 -150 156 -150q115 0 172 61t84 202l108 575q-64 7 -118 18l49 252h596l-49 -252q-53 -12 -107 -18l-117 -604q-53 -270 -227 -403.5t-446 -133.5 q-128 0 -222 31t-148.5 87.5t-80 128.5t-25.5 161zM784 1636l502 156l39 -252l-510 -100z" />
<glyph unicode="&#xdb;" horiz-adv-x="1413" d="M145 379q0 68 17 162l108 571q-54 6 -104 18l47 252h604l-47 -252q-54 -10 -127 -18l-113 -590q-10 -51 -10 -98q0 -150 156 -150q115 0 172 61t84 202l108 575q-64 7 -118 18l49 252h596l-49 -252q-53 -12 -107 -18l-117 -604q-53 -270 -227 -403.5t-446 -133.5 q-128 0 -222 31t-148.5 87.5t-80 128.5t-25.5 161zM565 1608l371 184l336 -184l-90 -168l-269 112l-290 -112z" />
<glyph unicode="&#xdc;" horiz-adv-x="1413" d="M145 379q0 68 17 162l108 571q-54 6 -104 18l47 252h604l-47 -252q-54 -10 -127 -18l-113 -590q-10 -51 -10 -98q0 -150 156 -150q115 0 172 61t84 202l108 575q-64 7 -118 18l49 252h596l-49 -252q-53 -12 -107 -18l-117 -604q-53 -270 -227 -403.5t-446 -133.5 q-128 0 -222 31t-148.5 87.5t-80 128.5t-25.5 161zM543 1610q0 78 53 132t125 54q70 0 119 -51t49 -117q0 -80 -53.5 -132t-126.5 -52q-69 0 -117.5 49.5t-48.5 116.5zM977 1610q0 78 53 132t125 54q70 0 119 -51t49 -117q0 -80 -53.5 -132t-126.5 -52q-69 0 -117.5 49.5 t-48.5 116.5z" />
<glyph unicode="&#xdd;" horiz-adv-x="1275" d="M156 1130l47 252h559l-49 -252q-41 -9 -80 -12l39 -145q30 -119 39 -172h6q32 65 96 170l86 147q-42 3 -80 12l49 252h572l-47 -252q-45 -9 -86 -12l-480 -672l-32 -176q79 -5 174 -24l-47 -246h-727l47 246q105 19 180 24l33 174l-219 674q-45 4 -80 12zM721 1636 l502 156l39 -252l-510 -100z" />
<glyph unicode="&#xde;" horiz-adv-x="1290" d="M-49 0l47 246q100 19 178 24l160 842q-65 4 -170 25l47 245h723l-47 -245q-107 -20 -178 -25l-9 -41q92 10 160 10q109 0 191.5 -17t132.5 -45t81 -69.5t42.5 -83.5t11.5 -94q0 -215 -160.5 -341t-419.5 -126q-94 0 -184 8l-8 -43q78 -5 170 -24l-45 -246h-723zM616 616 q48 -10 109 -10q178 0 178 107q0 71 -125 71q-70 0 -133 -16z" />
<glyph unicode="&#xdf;" horiz-adv-x="1357" d="M-233 -473l83 295q44 -12 82 -12q63 0 96.5 40.5t53.5 141.5l143 749q-97 14 -149 17l47 246q58 9 153 12q36 165 129 279t217 166t271 52q202 0 319 -85t117 -240q0 -60 -19 -111.5t-48 -85t-62 -65t-62 -54.5t-48 -50.5t-19 -55.5q0 -24 28 -49t68 -52t80 -61.5 t68 -91.5t28 -129q0 -73 -33 -144t-94 -131t-160.5 -96.5t-221.5 -36.5q-155 0 -273 21l64 336h235q0 -42 -6 -86q24 -4 45 -4q34 0 54 18.5t20 50.5q0 30 -30 57t-72.5 53.5t-84.5 60t-72 90.5t-30 130q0 68 26.5 127t64 99.5t75 76.5t64 74.5t26.5 77.5q0 28 -24.5 49 t-65.5 21q-72 0 -130.5 -57.5t-78.5 -159.5l-195 -1026q-91 -478 -520 -478q-70 0 -159 21z" />
<glyph unicode="&#xe0;" horiz-adv-x="1191" d="M45 305q0 151 43 283t125 234t212.5 161t293.5 59q244 0 422 -34l-142 -727q87 -19 152 -21l-45 -244q-251 -27 -502 -18q26 112 60 195h-5q-148 -220 -358 -220q-256 0 -256 332zM379 1325l153 248l437 -252l-131 -207zM424 377q0 -42 8.5 -61t30.5 -19q38 0 91.5 64 t99 158t61.5 177l8 43q-37 11 -70 11q-66 0 -120 -61.5t-81.5 -146t-27.5 -165.5z" />
<glyph unicode="&#xe1;" horiz-adv-x="1191" d="M45 305q0 151 43 283t125 234t212.5 161t293.5 59q244 0 422 -34l-142 -727q87 -19 152 -21l-45 -244q-251 -27 -502 -18q26 112 60 195h-5q-148 -220 -358 -220q-256 0 -256 332zM424 377q0 -42 8.5 -61t30.5 -19q38 0 91.5 64t99 158t61.5 177l8 43q-37 11 -70 11 q-66 0 -120 -61.5t-81.5 -146t-27.5 -165.5zM561 1319l447 254l131 -252l-465 -207z" />
<glyph unicode="&#xe2;" horiz-adv-x="1191" d="M45 305q0 151 43 283t125 234t212.5 161t293.5 59q244 0 422 -34l-142 -727q87 -19 152 -21l-45 -244q-251 -27 -502 -18q26 112 60 195h-5q-148 -220 -358 -220q-256 0 -256 332zM410 1282l403 291l295 -291l-152 -168l-188 158l-248 -158zM424 377q0 -42 8.5 -61 t30.5 -19q38 0 91.5 64t99 158t61.5 177l8 43q-37 11 -70 11q-66 0 -120 -61.5t-81.5 -146t-27.5 -165.5z" />
<glyph unicode="&#xe3;" horiz-adv-x="1191" d="M45 305q0 151 43 283t125 234t212.5 161t293.5 59q244 0 422 -34l-142 -727q87 -19 152 -21l-45 -244q-251 -27 -502 -18q26 112 60 195h-5q-148 -220 -358 -220q-256 0 -256 332zM352 1278q111 217 295 217q46 0 84 -14.5t58.5 -31.5t45 -31.5t46.5 -14.5q60 0 108 88 l164 -131q-52 -106 -128 -161.5t-167 -55.5q-46 0 -83.5 14.5t-58 31.5t-45 31.5t-46.5 14.5q-62 0 -107 -88zM424 377q0 -42 8.5 -61t30.5 -19q38 0 91.5 64t99 158t61.5 177l8 43q-37 11 -70 11q-66 0 -120 -61.5t-81.5 -146t-27.5 -165.5z" />
<glyph unicode="&#xe4;" horiz-adv-x="1191" d="M45 305q0 151 43 283t125 234t212.5 161t293.5 59q244 0 422 -34l-142 -727q87 -19 152 -21l-45 -244q-251 -27 -502 -18q26 112 60 195h-5q-148 -220 -358 -220q-256 0 -256 332zM354 1307q0 78 58.5 134t136.5 56q75 0 126.5 -53.5t51.5 -126.5q0 -81 -57 -137 t-135 -56q-76 0 -128.5 54.5t-52.5 128.5zM424 377q0 -42 8.5 -61t30.5 -19q38 0 91.5 64t99 158t61.5 177l8 43q-37 11 -70 11q-66 0 -120 -61.5t-81.5 -146t-27.5 -165.5zM799 1309q0 77 58.5 132.5t135.5 55.5q75 0 126.5 -53.5t51.5 -126.5q0 -81 -57 -137t-135 -56 q-76 0 -128 54.5t-52 130.5z" />
<glyph unicode="&#xe5;" horiz-adv-x="1191" d="M45 305q0 151 43 283t125 234t212.5 161t293.5 59q244 0 422 -34l-142 -727q87 -19 152 -21l-45 -244q-251 -27 -502 -18q26 112 60 195h-5q-148 -220 -358 -220q-256 0 -256 332zM424 377q0 -42 8.5 -61t30.5 -19q38 0 91.5 64t99 158t61.5 177l8 43q-37 11 -70 11 q-66 0 -120 -61.5t-81.5 -146t-27.5 -165.5zM465 1368q0 130 91.5 213.5t219.5 83.5q124 0 207.5 -78.5t83.5 -195.5q0 -129 -91.5 -212t-219.5 -83q-124 0 -207.5 78t-83.5 194zM668 1376q0 -40 27 -67t67 -27q44 0 73 29.5t29 72.5q0 38 -26.5 66.5t-67.5 28.5 q-44 0 -73 -31t-29 -72z" />
<glyph unicode="&#xe6;" horiz-adv-x="1562" d="M18 229q0 185 160.5 291.5t452.5 106.5l12 45q14 52 -13 71t-100 19q-52 0 -90 -10l-30 -86h-236l62 325q201 58 366 58q188 0 283 -82q59 31 142.5 53t156.5 22q112 0 190.5 -24.5t117.5 -66.5t55 -86.5t16 -96.5q0 -182 -155 -282t-458 -99q-2 -18 -2 -43 q0 -43 30.5 -61.5t111.5 -18.5q147 0 309 62v-281q-207 -70 -422 -70q-266 0 -338 160q-129 -160 -348 -160q-74 0 -129 21.5t-85.5 59t-44.5 80.5t-14 93zM373 305q0 -51 63 -51t106 43t46 102q-110 -2 -162.5 -23t-52.5 -71zM987 616q221 4 221 103q0 24 -16.5 37.5 t-46.5 13.5q-57 0 -99 -47t-59 -107z" />
<glyph unicode="&#xe7;" horiz-adv-x="890" d="M51 354q0 160 50 292t134.5 217t192 131t225.5 46q161 0 285 -28l-72 -375h-239q0 36 4 90q-10 2 -23 2q-56 0 -113 -80.5t-57 -210.5q0 -73 37 -105t113 -32q89 0 190 33v-318q-152 -41 -293 -41q-223 0 -328.5 95t-105.5 284zM117 -477q55 51 81 98t24.5 102.5 t-36.5 118.5l308 78q55 -120 27.5 -221t-128.5 -176h-276z" />
<glyph unicode="&#xe8;" horiz-adv-x="1032" d="M51 342q0 136 35 252t94 197.5t137 139t164.5 84.5t175.5 27q109 0 186.5 -24.5t116.5 -66.5t55.5 -86.5t16.5 -96.5q0 -82 -31.5 -148t-86.5 -111.5t-133.5 -76.5t-169.5 -46t-197 -17v-25q0 -43 30 -61.5t111 -18.5q142 0 315 62v-281q-210 -70 -432 -70 q-109 0 -185.5 26t-120 76.5t-62.5 115t-19 149.5zM360 1325l154 248l436 -252l-131 -207zM446 598q102 2 161 34t59 87q0 51 -56 51q-110 0 -164 -172z" />
<glyph unicode="&#xe9;" horiz-adv-x="1032" d="M51 342q0 136 35 252t94 197.5t137 139t164.5 84.5t175.5 27q109 0 186.5 -24.5t116.5 -66.5t55.5 -86.5t16.5 -96.5q0 -82 -31.5 -148t-86.5 -111.5t-133.5 -76.5t-169.5 -46t-197 -17v-25q0 -43 30 -61.5t111 -18.5q142 0 315 62v-281q-210 -70 -432 -70 q-109 0 -185.5 26t-120 76.5t-62.5 115t-19 149.5zM446 598q102 2 161 34t59 87q0 51 -56 51q-110 0 -164 -172zM502 1319l446 254l131 -252l-465 -207z" />
<glyph unicode="&#xea;" horiz-adv-x="1032" d="M51 342q0 136 35 252t94 197.5t137 139t164.5 84.5t175.5 27q109 0 186.5 -24.5t116.5 -66.5t55.5 -86.5t16.5 -96.5q0 -82 -31.5 -148t-86.5 -111.5t-133.5 -76.5t-169.5 -46t-197 -17v-25q0 -43 30 -61.5t111 -18.5q142 0 315 62v-281q-210 -70 -432 -70 q-109 0 -185.5 26t-120 76.5t-62.5 115t-19 149.5zM340 1282l403 291l295 -291l-151 -168l-189 158l-247 -158zM446 598q102 2 161 34t59 87q0 51 -56 51q-110 0 -164 -172z" />
<glyph unicode="&#xeb;" horiz-adv-x="1032" d="M51 342q0 136 35 252t94 197.5t137 139t164.5 84.5t175.5 27q109 0 186.5 -24.5t116.5 -66.5t55.5 -86.5t16.5 -96.5q0 -82 -31.5 -148t-86.5 -111.5t-133.5 -76.5t-169.5 -46t-197 -17v-25q0 -43 30 -61.5t111 -18.5q142 0 315 62v-281q-210 -70 -432 -70 q-109 0 -185.5 26t-120 76.5t-62.5 115t-19 149.5zM297 1307q0 78 58.5 134t136.5 56q75 0 126.5 -53.5t51.5 -126.5q0 -81 -57.5 -137t-135.5 -56q-76 0 -128 54.5t-52 128.5zM446 598q102 2 161 34t59 87q0 51 -56 51q-110 0 -164 -172zM741 1309q0 77 58.5 132.5 t136.5 55.5q75 0 126.5 -53.5t51.5 -126.5q0 -81 -57 -137t-135 -56q-76 0 -128.5 54.5t-52.5 130.5z" />
<glyph unicode="&#xec;" horiz-adv-x="694" d="M76 758l49 246q271 25 520 16l-141 -741q83 -15 149 -19l-45 -244q-220 -25 -526 -18l143 743q-67 11 -149 17zM195 1325l153 248l436 -252l-131 -207z" />
<glyph unicode="&#xed;" horiz-adv-x="694" d="M76 758l49 246q271 25 520 16l-141 -741q83 -15 149 -19l-45 -244q-220 -25 -526 -18l143 743q-67 11 -149 17zM223 1319l447 254l131 -252l-465 -207z" />
<glyph unicode="&#xee;" horiz-adv-x="694" d="M76 758l49 246q271 25 520 16l-141 -741q83 -15 149 -19l-45 -244q-220 -25 -526 -18l143 743q-67 11 -149 17zM180 1282l404 291l295 -291l-152 -168l-188 158l-248 -158z" />
<glyph unicode="&#xef;" horiz-adv-x="694" d="M76 758l49 246q271 25 520 16l-141 -741q83 -15 149 -19l-45 -244q-220 -25 -526 -18l143 743q-67 11 -149 17zM135 1307q0 78 58.5 134t136.5 56q75 0 126.5 -53.5t51.5 -126.5q0 -81 -57.5 -137t-135.5 -56q-76 0 -128 54.5t-52 128.5zM580 1309q0 77 58.5 132.5 t135.5 55.5q75 0 126.5 -53.5t51.5 -126.5q0 -81 -57 -137t-135 -56q-76 0 -128 54.5t-52 130.5z" />
<glyph unicode="&#xf0;" horiz-adv-x="1138" d="M53 356q0 132 37 245.5t97.5 191.5t139 133.5t161 81.5t163.5 26q67 0 97 -18q-2 4 -10.5 22t-14.5 29q-28 59 -53 92l-181 -76l-110 166l153 66q-46 43 -112 88l356 151q80 -75 98 -96l170 72l111 -166l-158 -68q62 -101 97.5 -215t35.5 -266q0 -134 -22 -249.5 t-59.5 -199.5t-89 -152t-108 -112t-119.5 -73t-121.5 -41.5t-114.5 -12.5q-226 0 -334.5 100t-108.5 281zM436 430q0 -55 24 -93t79 -38q50 0 89.5 34t61 84.5t32.5 99.5t11 89q0 27 -6 50.5t-28 45t-58 21.5q-68 0 -116.5 -48t-68.5 -112t-20 -133z" />
<glyph unicode="&#xf1;" horiz-adv-x="1269" d="M96 758l49 246q238 25 500 16q-21 -109 -61 -195h4q150 219 368 219q76 0 128.5 -26t77 -71t31.5 -105t-9 -127l-84 -436q82 -18 149 -21l-45 -244q-216 -25 -522 -16l119 623q10 57 5 78.5t-26 21.5q-32 0 -83 -58.5t-100.5 -158.5t-68.5 -201l-57 -303h-367l142 737 q-105 18 -150 21zM418 1278q111 217 295 217q46 0 83.5 -14.5t58 -31.5t45 -31.5t46.5 -14.5q61 0 109 88l164 -131q-52 -106 -128 -161.5t-167 -55.5q-46 0 -84 14.5t-58.5 31.5t-45 31.5t-46.5 14.5q-61 0 -106 -88z" />
<glyph unicode="&#xf2;" horiz-adv-x="1132" d="M47 346q0 132 36.5 246.5t99 195.5t145 139.5t175 86.5t189.5 28q428 0 428 -378q0 -152 -53 -282.5t-141.5 -218.5t-204.5 -138t-242 -50q-233 0 -332.5 95.5t-99.5 275.5zM358 1325l154 248l436 -252l-131 -207zM430 401q0 -100 92 -100q55 0 98 30.5t67 79t36 100.5 t12 103q0 54 -22.5 79.5t-77.5 25.5q-50 0 -91 -31.5t-65 -81t-36.5 -103t-12.5 -102.5z" />
<glyph unicode="&#xf3;" horiz-adv-x="1132" d="M47 346q0 132 36.5 246.5t99 195.5t145 139.5t175 86.5t189.5 28q428 0 428 -378q0 -152 -53 -282.5t-141.5 -218.5t-204.5 -138t-242 -50q-233 0 -332.5 95.5t-99.5 275.5zM430 401q0 -100 92 -100q55 0 98 30.5t67 79t36 100.5t12 103q0 54 -22.5 79.5t-77.5 25.5 q-50 0 -91 -31.5t-65 -81t-36.5 -103t-12.5 -102.5zM504 1319l446 254l131 -252l-465 -207z" />
<glyph unicode="&#xf4;" horiz-adv-x="1132" d="M47 346q0 132 36.5 246.5t99 195.5t145 139.5t175 86.5t189.5 28q428 0 428 -378q0 -152 -53 -282.5t-141.5 -218.5t-204.5 -138t-242 -50q-233 0 -332.5 95.5t-99.5 275.5zM393 1282l404 291l295 -291l-152 -168l-188 158l-248 -158zM430 401q0 -100 92 -100 q55 0 98 30.5t67 79t36 100.5t12 103q0 54 -22.5 79.5t-77.5 25.5q-50 0 -91 -31.5t-65 -81t-36.5 -103t-12.5 -102.5z" />
<glyph unicode="&#xf5;" horiz-adv-x="1132" d="M47 346q0 132 36.5 246.5t99 195.5t145 139.5t175 86.5t189.5 28q428 0 428 -378q0 -152 -53 -282.5t-141.5 -218.5t-204.5 -138t-242 -50q-233 0 -332.5 95.5t-99.5 275.5zM344 1278q111 217 295 217q46 0 83.5 -14.5t58 -31.5t45 -31.5t46.5 -14.5q61 0 109 88 l164 -131q-52 -106 -128 -161.5t-167 -55.5q-46 0 -84 14.5t-58.5 31.5t-45 31.5t-46.5 14.5q-61 0 -106 -88zM430 401q0 -100 92 -100q55 0 98 30.5t67 79t36 100.5t12 103q0 54 -22.5 79.5t-77.5 25.5q-50 0 -91 -31.5t-65 -81t-36.5 -103t-12.5 -102.5z" />
<glyph unicode="&#xf6;" horiz-adv-x="1132" d="M47 346q0 132 36.5 246.5t99 195.5t145 139.5t175 86.5t189.5 28q428 0 428 -378q0 -152 -53 -282.5t-141.5 -218.5t-204.5 -138t-242 -50q-233 0 -332.5 95.5t-99.5 275.5zM326 1307q0 78 58 134t136 56q75 0 126.5 -53.5t51.5 -126.5q0 -81 -57 -137t-135 -56 q-76 0 -128 54.5t-52 128.5zM430 401q0 -100 92 -100q55 0 98 30.5t67 79t36 100.5t12 103q0 54 -22.5 79.5t-77.5 25.5q-50 0 -91 -31.5t-65 -81t-36.5 -103t-12.5 -102.5zM770 1309q0 77 58.5 132.5t136.5 55.5q75 0 126.5 -53.5t51.5 -126.5q0 -81 -57.5 -137t-135.5 -56 q-76 0 -128 54.5t-52 130.5z" />
<glyph unicode="&#xf7;" d="M76 455l59 311h983l-59 -311h-983zM307 190q0 94 66 159t155 65q86 0 145.5 -61t59.5 -142q0 -94 -66 -158.5t-155 -64.5q-86 0 -145.5 60.5t-59.5 141.5zM463 1010q0 94 66 158.5t155 64.5q86 0 145.5 -61t59.5 -142q0 -94 -66 -158.5t-155 -64.5q-86 0 -145.5 61 t-59.5 142z" />
<glyph unicode="&#xf8;" horiz-adv-x="1132" d="M47 346q0 202 81.5 361t228.5 247t333 88q30 0 80 -4l127 222l180 -82l-112 -197q155 -91 155 -317q0 -152 -52.5 -282.5t-141 -218.5t-204 -138t-241.5 -50q-19 0 -86 5l-116 -205l-185 86l101 176q-148 85 -148 309zM393 424q0 -24 6 -45l211 364q-22 0 -43 -6 q-72 -22 -123 -110.5t-51 -202.5zM553 274q13 0 37 7q42 12 75 43t52 68t31.5 80.5t17 77.5t4.5 62q0 21 -2 39z" />
<glyph unicode="&#xf9;" horiz-adv-x="1269" d="M92 758l49 243q254 28 518 19l-118 -623q-10 -57 -5.5 -78.5t25.5 -21.5q32 0 83.5 59t101 160t67.5 201l4 22q-73 13 -121 17l47 250q252 24 494 12l-141 -737q87 -16 149 -21l-45 -244q-242 -27 -500 -18q11 93 58 195h-4q-151 -220 -369 -220q-76 0 -128.5 26.5 t-76.5 71.5t-31 105t9 127l84 434q-94 16 -150 21zM397 1325l154 248l436 -252l-131 -207z" />
<glyph unicode="&#xfa;" horiz-adv-x="1269" d="M92 758l49 243q254 28 518 19l-118 -623q-10 -57 -5.5 -78.5t25.5 -21.5q32 0 83.5 59t101 160t67.5 201l4 22q-73 13 -121 17l47 250q252 24 494 12l-141 -737q87 -16 149 -21l-45 -244q-242 -27 -500 -18q11 93 58 195h-4q-151 -220 -369 -220q-76 0 -128.5 26.5 t-76.5 71.5t-31 105t9 127l84 434q-94 16 -150 21zM596 1319l446 254l132 -252l-465 -207z" />
<glyph unicode="&#xfb;" horiz-adv-x="1269" d="M92 758l49 243q254 28 518 19l-118 -623q-10 -57 -5.5 -78.5t25.5 -21.5q32 0 83.5 59t101 160t67.5 201l4 22q-73 13 -121 17l47 250q252 24 494 12l-141 -737q87 -16 149 -21l-45 -244q-242 -27 -500 -18q11 93 58 195h-4q-151 -220 -369 -220q-76 0 -128.5 26.5 t-76.5 71.5t-31 105t9 127l84 434q-94 16 -150 21zM444 1282l404 291l295 -291l-152 -168l-188 158l-248 -158z" />
<glyph unicode="&#xfc;" horiz-adv-x="1269" d="M92 758l49 243q254 28 518 19l-118 -623q-10 -57 -5.5 -78.5t25.5 -21.5q32 0 83.5 59t101 160t67.5 201l4 22q-73 13 -121 17l47 250q252 24 494 12l-141 -737q87 -16 149 -21l-45 -244q-242 -27 -500 -18q11 93 58 195h-4q-151 -220 -369 -220q-76 0 -128.5 26.5 t-76.5 71.5t-31 105t9 127l84 434q-94 16 -150 21zM393 1307q0 78 58.5 134t136.5 56q75 0 126.5 -53.5t51.5 -126.5q0 -81 -57.5 -137t-135.5 -56q-76 0 -128 54.5t-52 128.5zM838 1309q0 77 58.5 132.5t135.5 55.5q75 0 126.5 -53.5t51.5 -126.5q0 -81 -57 -137t-135 -56 q-76 0 -128 54.5t-52 130.5z" />
<glyph unicode="&#xfd;" horiz-adv-x="1136" d="M-135 -477l57 313q59 -20 121 -20q97 0 141 34q58 42 58 170q0 289 -41 717q-67 15 -129 21l47 246q209 26 452 16q11 -207 11 -307q0 -147 -15 -346h4q45 94 93.5 220t79.5 217t87 259l386 -94q-159 -365 -292 -613.5t-235 -389t-221 -259.5q-109 -109 -215 -155 t-225 -46q-87 0 -164 17zM545 1319l446 254l131 -252l-465 -207z" />
<glyph unicode="&#xfe;" horiz-adv-x="1122" d="M-236 -477l48 246q82 18 168 24l270 1415l2 6q-98 17 -162 21l45 244q253 27 537 18l-45 -237q-30 -156 -56.5 -246t-70.5 -174h10q149 204 356 204q250 0 250 -331q0 -151 -43 -283t-125 -234.5t-212.5 -161.5t-293.5 -59q-20 0 -61 5l-35 -187q73 -5 170 -24l-47 -246 h-705zM438 279q37 -11 70 -11q66 0 120 61.5t81.5 146t27.5 165.5q0 42 -8.5 61t-30.5 19q-38 0 -91.5 -64t-99 -158t-61.5 -177z" />
<glyph unicode="&#xff;" horiz-adv-x="1136" d="M-135 -477l57 313q59 -20 121 -20q97 0 141 34q58 42 58 170q0 289 -41 717q-67 15 -129 21l47 246q209 26 452 16q11 -207 11 -307q0 -147 -15 -346h4q45 94 93.5 220t79.5 217t87 259l386 -94q-159 -365 -292 -613.5t-235 -389t-221 -259.5q-109 -109 -215 -155 t-225 -46q-87 0 -164 17zM342 1307q0 78 58.5 134t136.5 56q75 0 126.5 -53.5t51.5 -126.5q0 -81 -57.5 -137t-135.5 -56q-76 0 -128 54.5t-52 128.5zM786 1309q0 77 58.5 132.5t136.5 55.5q75 0 126.5 -53.5t51.5 -126.5q0 -81 -57 -137t-135 -56q-76 0 -128.5 54.5 t-52.5 130.5z" />
<glyph unicode="&#x152;" horiz-adv-x="1738" d="M74 481q0 183 64.5 353.5t174 297.5t265 203t327.5 76q109 0 215 -29h729l-73 -393h-289q0 36 4 94h-143l-48 -243h121q1 3 29 73h246l-78 -413h-248v73h-119l-51 -268h143q15 51 35 107h293l-78 -412h-780q-120 -29 -205 -29q-270 0 -402 134t-132 376zM473 549 q0 -227 193 -227q86 0 174 38l127 676q-62 27 -123 27q-88 0 -160.5 -46t-117 -120.5t-69 -164.5t-24.5 -183z" />
<glyph unicode="&#x153;" horiz-adv-x="1677" d="M47 346q0 132 36.5 246.5t98.5 195.5t144.5 139.5t175 86.5t188.5 28q213 0 309 -96q132 96 304 96q89 0 157 -17t108.5 -43.5t65.5 -63.5t34 -73t9 -77q0 -102 -46.5 -179t-131 -123.5t-192.5 -70.5t-240 -26v-25q0 -43 28.5 -61.5t108.5 -18.5q147 0 309 62v-281 q-207 -70 -421 -70q-207 0 -289 101q-138 -101 -322 -101q-120 0 -205 26t-134.5 76t-72 116t-22.5 153zM430 401q0 -100 92 -100q55 0 98 30.5t67 79t36 100.5t12 103q0 54 -22.5 79.5t-77.5 25.5q-50 0 -91 -31.5t-65 -81t-36.5 -103t-12.5 -102.5zM1100 598 q223 4 223 121q0 51 -59 51q-110 0 -164 -172z" />
<glyph unicode="&#x178;" horiz-adv-x="1275" d="M156 1130l47 252h559l-49 -252q-41 -9 -80 -12l39 -145q30 -119 39 -172h6q32 65 96 170l86 147q-42 3 -80 12l49 252h572l-47 -252q-45 -9 -86 -12l-480 -672l-32 -176q79 -5 174 -24l-47 -246h-727l47 246q105 19 180 24l33 174l-219 674q-45 4 -80 12zM473 1610 q0 78 53 132t125 54q70 0 119 -51t49 -117q0 -80 -53.5 -132t-126.5 -52q-69 0 -117.5 49.5t-48.5 116.5zM907 1610q0 78 53 132t125 54q70 0 119 -51t49 -117q0 -80 -53.5 -132t-126.5 -52q-69 0 -117.5 49.5t-48.5 116.5z" />
<glyph unicode="&#x2c6;" horiz-adv-x="835" d="M233 1282l404 291l295 -291l-152 -168l-188 158l-248 -158z" />
<glyph unicode="&#x2dc;" horiz-adv-x="854" d="M205 1278q111 217 295 217q46 0 83.5 -14.5t58 -31.5t45 -31.5t46.5 -14.5q61 0 109 88l164 -131q-52 -106 -128 -161.5t-167 -55.5q-46 0 -84 14.5t-58.5 31.5t-45 31.5t-46.5 14.5q-61 0 -106 -88z" />
<glyph unicode="&#x2000;" horiz-adv-x="974" />
<glyph unicode="&#x2001;" horiz-adv-x="1948" />
<glyph unicode="&#x2002;" horiz-adv-x="974" />
<glyph unicode="&#x2003;" horiz-adv-x="1948" />
<glyph unicode="&#x2004;" horiz-adv-x="649" />
<glyph unicode="&#x2005;" horiz-adv-x="487" />
<glyph unicode="&#x2006;" horiz-adv-x="324" />
<glyph unicode="&#x2007;" horiz-adv-x="324" />
<glyph unicode="&#x2008;" horiz-adv-x="243" />
<glyph unicode="&#x2009;" horiz-adv-x="389" />
<glyph unicode="&#x200a;" horiz-adv-x="108" />
<glyph unicode="&#x2010;" horiz-adv-x="681" d="M74 391l57 297h522l-57 -297h-522z" />
<glyph unicode="&#x2011;" horiz-adv-x="681" d="M74 391l57 297h522l-57 -297h-522z" />
<glyph unicode="&#x2012;" horiz-adv-x="681" d="M74 391l57 297h522l-57 -297h-522z" />
<glyph unicode="&#x2013;" d="M4 446l62 328h1126l-62 -328h-1126z" />
<glyph unicode="&#x2014;" horiz-adv-x="2048" d="M209 446l61 328h1639l-62 -328h-1638z" />
<glyph unicode="&#x2018;" horiz-adv-x="602" d="M182 1059q38 205 278 407q60 50 132 99l131 -152q-132 -108 -161 -182.5t26 -147.5q32 -47 32.5 -106.5t-24 -110.5t-78 -86t-121.5 -35q-101 0 -166 79q-75 93 -49 235z" />
<glyph unicode="&#x2019;" horiz-adv-x="602" d="M139 874q132 108 161 182.5t-26 147.5q-32 47 -32.5 106.5t24 110.5t78 86t121.5 35q102 0 166 -79q75 -93 49 -235q-39 -205 -279 -407q-60 -50 -131 -98z" />
<glyph unicode="&#x201a;" horiz-adv-x="602" d="M-61 -258q132 108 161 182.5t-26 147.5q-32 47 -33 106.5t24 110.5t78 86t121 35q101 0 166 -79q76 -93 50 -235q-38 -205 -278 -407q-60 -50 -132 -99z" />
<glyph unicode="&#x201c;" horiz-adv-x="1124" d="M182 1057q38 205 278 407q60 50 132 99l131 -152q-132 -108 -161 -182.5t26 -147.5q32 -47 32.5 -106.5t-24 -110.5t-78 -86t-121.5 -35q-101 0 -166 79q-75 93 -49 235zM729 1057q38 205 278 407q60 50 132 99l131 -152q-132 -108 -161 -182.5t26 -147.5 q32 -47 32.5 -106.5t-24 -110.5t-78 -86t-121.5 -35q-101 0 -166 79q-75 93 -49 235z" />
<glyph unicode="&#x201d;" horiz-adv-x="1124" d="M139 874q132 108 161 182.5t-26 147.5q-32 47 -32.5 106.5t24 110.5t78 86t121.5 35q102 0 166 -79q75 -93 49 -235q-39 -205 -279 -407q-60 -50 -131 -98zM686 874q132 108 161 182.5t-26 147.5q-32 47 -32.5 106.5t24 110.5t78 86t121.5 35q102 0 166 -79 q75 -93 49 -235q-39 -205 -279 -407q-60 -50 -131 -98z" />
<glyph unicode="&#x201e;" horiz-adv-x="1124" d="M-61 -258q132 108 161 182.5t-26 147.5q-32 47 -33 106.5t24 110.5t78 86t121 35q101 0 166 -79q76 -93 50 -235q-38 -205 -278 -407q-60 -50 -132 -99zM485 -258q133 108 162 182.5t-26 147.5q-32 47 -33 106.5t24 110.5t78 86t121 35q101 0 166 -79q75 -93 49 -235 q-38 -205 -278 -407q-60 -50 -132 -99z" />
<glyph unicode="&#x2022;" horiz-adv-x="872" d="M90 602q0 159 113 275t272 116q158 0 267.5 -110.5t109.5 -268.5q0 -159 -113.5 -275t-271.5 -116q-159 0 -268 110t-109 269z" />
<glyph unicode="&#x202f;" horiz-adv-x="389" />
<glyph unicode="&#x2039;" horiz-adv-x="624" d="M78 612l293 422l270 -129l-217 -309l104 -313l-307 -121z" />
<glyph unicode="&#x203a;" horiz-adv-x="624" d="M51 291l217 309l-104 313l307 121l143 -450l-292 -422z" />
<glyph unicode="&#x205f;" horiz-adv-x="487" />
<glyph unicode="&#x20ac;" horiz-adv-x="1232" d="M61 418l37 186h127q6 55 15 103h-123l35 186h141q97 252 303.5 385t486.5 133q128 0 263 -27l-76 -401h-232q-11 55 -4 121q-15 6 -59 6q-86 0 -157.5 -57.5t-119.5 -159.5h324l-35 -186h-344q-9 -49 -12 -103h336l-37 -186h-285q47 -142 232 -142q133 0 225 39l28 -280 q-159 -64 -360 -64q-524 0 -553 447h-156z" />
<glyph unicode="&#x2122;" horiz-adv-x="1798" d="M162 1087l55 295h670l-58 -295h-161q0 4 2 38.5t4 54.5h-39l-53 -279q48 -3 96 -16l-31 -158h-442l31 158q51 13 102 16l51 279h-37q-5 -20 -30 -93h-160zM762 727l31 162q50 8 61 8l137 309q-33 4 -96 17l29 159h419l9 -192v-76l28 76l84 192h445l-31 -159 q-76 -14 -104 -17l20 -307q17 0 57 -6l-32 -166h-357l29 158q5 1 21.5 6t23.5 6l-4 102v48l-19 -48l-116 -272h-230l-14 274v46l-16 -43l-43 -107q25 -5 39 -12l-31 -158h-340z" />
<glyph unicode="&#x25fc;" horiz-adv-x="1095" d="M0 0v1096h1096v-1096h-1096z" />
</font>
</defs>
</svg>
