<?xml version="1.0" standalone="no"?>
<!DOCTYPE svg PUBLIC "-//W3C//DTD SVG 1.1//EN" "http://www.w3.org/Graphics/SVG/1.1/DTD/svg11.dtd" >
<svg xmlns="http://www.w3.org/2000/svg">
<metadata></metadata>
<defs>
<font id="theserifhp9_black" horiz-adv-x="1126" >
<font-face units-per-em="2048" ascent="1516" descent="-532" />
<missing-glyph horiz-adv-x="446" />
<glyph unicode="&#x2e;&#x2e;&#x2e;" horiz-adv-x="1654" d="M82 184q0 88 62.5 150.5t150.5 62.5t150.5 -62.5t62.5 -150.5t-62.5 -150.5t-150.5 -62.5t-150.5 62.5t-62.5 150.5zM614 184q0 88 62.5 150.5t150.5 62.5t150.5 -62.5t62.5 -150.5t-62.5 -150.5t-150.5 -62.5t-150.5 62.5t-62.5 150.5zM1147 184q0 88 62.5 150.5 t150.5 62.5t150.5 -62.5t62.5 -150.5t-62.5 -150.5t-150.5 -62.5t-150.5 62.5t-62.5 150.5z" />
<glyph unicode="&#xfb01;" horiz-adv-x="1492" d="M41 0v246q100 19 178 24v461h-178v287h178v24q0 111 33.5 195.5t89 137t137 85.5t167.5 45.5t190 12.5q210 0 391 -41l-66 -308q-156 39 -303 39q-149 0 -207.5 -39.5t-58.5 -121.5v-29h713v-748q73 -5 157 -24v-246h-653v246q76 19 123 24v461h-340v-461q47 -5 123 -24 v-246h-674z" />
<glyph unicode="&#xfb02;" horiz-adv-x="1492" d="M41 0v246q100 19 178 24v461h-178v287h178v29q0 165 61 266.5t204 153t382 51.5q202 0 439 -39v-1209q72 -5 157 -24v-246h-653v246q76 19 123 24v936q-49 8 -121 8q-116 0 -167.5 -43t-51.5 -124v-29h182v-287h-182v-461q47 -5 123 -24v-246h-674z" />
<glyph unicode="&#xfb03;" horiz-adv-x="2205" d="M41 0v246q100 19 178 24v461h-178v287h178v24q0 241 130.5 352t412.5 111q224 0 420 -51q140 64 366 64q210 0 391 -41l-65 -308q-156 39 -303 39q-149 0 -207.5 -39.5t-58.5 -121.5v-29h712v-748q74 -5 158 -24v-246h-653v246q76 19 123 24v461h-340v-461q46 -4 122 -24 v-246h-618v246q76 19 123 24v461h-340v-461q47 -5 123 -24v-246h-674zM592 1018h340v29q0 52 12 127q-68 22 -153 22q-106 0 -152.5 -31t-46.5 -110v-37z" />
<glyph unicode="&#xfb04;" horiz-adv-x="2205" d="M41 0v246q100 19 178 24v461h-178v287h178v24q0 241 130.5 352t412.5 111q224 0 420 -51q140 64 397 64q209 0 438 -39v-1209q74 -5 158 -24v-246h-653v246q76 19 123 24v936q-39 8 -121 8q-116 0 -167.5 -43t-51.5 -124v-29h182v-287h-182v-461q46 -4 122 -24v-246h-618 v246q76 19 123 24v461h-340v-461q47 -5 123 -24v-246h-674zM592 1018h340v29q0 52 12 127q-68 22 -153 22q-106 0 -152.5 -31t-46.5 -110v-37z" />
<glyph horiz-adv-x="0" />
<glyph horiz-adv-x="0" />
<glyph horiz-adv-x="682" />
<glyph unicode="&#xd;" horiz-adv-x="1024" />
<glyph unicode=" "  horiz-adv-x="446" />
<glyph unicode="&#x09;" horiz-adv-x="446" />
<glyph unicode="&#xa0;" horiz-adv-x="446" />
<glyph unicode="!" horiz-adv-x="663" d="M129 1464h436l-51 -1022h-328zM131 176q0 87 61.5 146t151.5 59t151.5 -59t61.5 -146t-61.5 -146t-151.5 -59t-151.5 59t-61.5 146z" />
<glyph unicode="&#x22;" horiz-adv-x="944" d="M66 1448h362l-41 -594h-281zM516 1448h363l-41 -594h-281z" />
<glyph unicode="#" horiz-adv-x="1460" d="M47 317v279h254l23 201h-215v278h243l31 307h326l-31 -307h180l31 307h328l-31 -307h227v-278h-256l-22 -201h217v-279h-246l-33 -317h-328l33 317h-180l-33 -317h-325l32 317h-225zM627 596h180l22 201h-180z" />
<glyph unicode="$" horiz-adv-x="1144" d="M49 973q0 70 28 142t78 132.5t127.5 103t168.5 52.5v219h260v-215q129 -6 307 -41v-397h-291q-10 62 -16 129q-53 18 -99 18q-157 0 -157 -108q0 -27 22 -49.5t59.5 -40t86 -34.5t102 -36t107.5 -42t102.5 -56.5t86 -74.5t59.5 -100.5t22 -130.5q0 -94 -37 -177 t-98.5 -141.5t-139 -96t-161.5 -47.5v-291h-258v284q-164 3 -326 39v439h293q7 -44 14 -125q74 -19 137 -19q81 0 116.5 23.5t35.5 83.5q0 31 -27 56t-71.5 41t-101 36t-115 40t-115 53.5t-101 75t-71.5 107.5t-27 148z" />
<glyph unicode="%" horiz-adv-x="1730" d="M55 1065q0 171 108 276t261 105q160 0 259 -89t99 -267q0 -174 -109.5 -282t-264.5 -108q-165 0 -259 98.5t-94 266.5zM209 133l1022 1313l270 -197l-1022 -1312zM358 1073q0 -71 16 -96t44 -25q27 0 45 31t18 92q0 70 -14.5 94.5t-44.5 24.5q-28 0 -46 -30.5t-18 -90.5z M932 301q0 172 107.5 276.5t260.5 104.5q160 0 259.5 -89t99.5 -267q0 -174 -110 -281.5t-265 -107.5q-165 0 -258.5 98t-93.5 266zM1235 309q0 -71 15.5 -96t43.5 -25q27 0 45.5 31t18.5 92q0 70 -14.5 94.5t-45.5 24.5q-28 0 -45.5 -30.5t-17.5 -90.5z" />
<glyph unicode="&#x26;" horiz-adv-x="1710" d="M72 389q0 219 221 397q-76 94 -113 177.5t-37 175.5q0 161 125 270t344 109q201 0 310.5 -89t109.5 -247q0 -107 -57.5 -201t-171.5 -186q123 -101 256 -197v-2q30 52 51 111l-70 12v252h576v-252q-65 -13 -127 -19q-44 -166 -143 -307l178 -125q40 -4 108 -16v-252h-375 l-180 127q-232 -156 -516 -156q-128 0 -225.5 35t-153.5 95.5t-83 132.5t-27 155zM461 432q0 -55 42 -98t115 -43q95 0 179 43q-135 102 -279 227q-57 -63 -57 -129zM512 1159q0 -74 68 -153q84 80 84 155q0 34 -19.5 57t-54.5 23q-34 0 -56 -23.5t-22 -58.5z" />
<glyph unicode="'" horiz-adv-x="493" d="M66 1448h362l-41 -594h-281z" />
<glyph unicode="(" horiz-adv-x="634" d="M53 586q0 563 309 1042l279 -121q-219 -410 -219 -913q0 -506 227 -926l-289 -125q-307 482 -307 1043z" />
<glyph unicode=")" horiz-adv-x="634" d="M-12 1503l288 125q304 -486 304 -1042q0 -564 -312 -1043l-278 121q221 408 221 914q0 501 -223 925z" />
<glyph unicode="*" horiz-adv-x="819" d="M41 1077l205 66l-205 65l129 222l158 -146l-47 211h256l-45 -211l157 146l129 -222l-205 -65l205 -66l-129 -221l-157 145l47 -210h-258l47 210l-160 -143z" />
<glyph unicode="+" d="M72 455v311h313v336h356v-336h314v-311h-314v-340h-356v340h-313z" />
<glyph unicode="," horiz-adv-x="614" d="M61 -276q113 120 129 195t-51 149q-38 43 -45.5 102.5t13 112.5t74 90t126.5 37q109 0 174 -90q73 -103 45 -259q-39 -215 -255 -418q-29 -27 -60 -53z" />
<glyph unicode="-" horiz-adv-x="696" d="M82 391v297h532v-297h-532z" />
<glyph unicode="." horiz-adv-x="614" d="M82 197q0 92 66.5 158.5t158.5 66.5t158.5 -66.5t66.5 -158.5t-66.5 -159t-158.5 -67t-158.5 67t-66.5 159z" />
<glyph unicode="/" horiz-adv-x="1024" d="M-63 -330l718 1880h375l-717 -1880h-376z" />
<glyph unicode="0" horiz-adv-x="1245" d="M57 524q0 130 46.5 239t126.5 181t185.5 112t223.5 40q109 0 197 -23t146.5 -65t100 -94t64 -116.5t32 -125t9.5 -127.5q0 -135 -48 -246t-129 -182t-185.5 -109.5t-219.5 -38.5q-89 0 -166 16t-149 55.5t-122.5 101t-81 159t-30.5 223.5zM428 532q0 -114 49 -176.5 t146 -62.5q81 0 137.5 63t56.5 181q0 112 -50.5 173.5t-141.5 61.5q-81 0 -139 -62.5t-58 -177.5z" />
<glyph unicode="1" horiz-adv-x="802" d="M2 950l330 121h282v-801q79 -6 158 -24v-246h-741v246q100 19 202 24v463l-176 -71z" />
<glyph unicode="2" horiz-adv-x="983" d="M49 0v305l121 80q301 200 301 322q0 90 -96 90q-29 0 -62 -11q-3 -47 -14 -110h-240v352q169 68 375 68q214 0 334.5 -91t120.5 -247q0 -113 -68.5 -217.5t-185.5 -182.5l-55 -36v-5q142 11 338 11v-328h-869z" />
<glyph unicode="3" horiz-adv-x="950" d="M41 -338l29 330q88 -33 213 -33q100 0 154.5 32.5t54.5 98.5q0 57 -49 88t-134 34t-198 -11v299q366 0 366 174q0 52 -24.5 82t-75.5 30q-24 0 -60 -8q-4 -53 -14 -106h-240v356q172 68 351 68q227 0 342.5 -99t115.5 -266q0 -99 -55 -178.5t-153 -124.5v-4 q121 -31 180 -111.5t59 -193.5q0 -99 -40 -185.5t-115.5 -153.5t-195.5 -106t-269 -39q-124 0 -242 27z" />
<glyph unicode="4" horiz-adv-x="1181" d="M25 301l460 764h471v-731h174v-334h-174v-92q66 -5 158 -25v-233h-708v233q108 20 178 25v92h-500zM381 332q45 2 211 2v373h-2z" />
<glyph unicode="5" horiz-adv-x="964" d="M49 -350l33 327q79 -14 176 -14q118 0 183 43t65 109q0 135 -260 135q-94 0 -156 -10v825h762v-367l-412 4v-155q223 0 351.5 -101.5t128.5 -283.5q0 -152 -91 -274t-245 -188.5t-340 -66.5q-105 0 -195 17z" />
<glyph unicode="6" horiz-adv-x="1187" d="M63 563q0 259 93.5 454t274 304t425.5 109q42 0 150 -5v-331q-96 14 -168 14q-128 0 -220 -50t-137 -147l-16 -45l2 -2q40 28 104.5 44t135.5 16q201 0 317.5 -120t116.5 -325q0 -223 -157.5 -365.5t-405.5 -142.5q-113 0 -206.5 37t-163 109t-107.5 186t-38 260z M477 463q0 -78 34.5 -123t96.5 -45q69 0 104.5 41t35.5 110q0 158 -134 158q-64 0 -100.5 -40t-36.5 -101z" />
<glyph unicode="7" horiz-adv-x="978" d="M35 596v469h909v-313q-226 -573 -332 -1102h-413q105 501 333 1091h-170q-6 -78 -20 -145h-307z" />
<glyph unicode="8" horiz-adv-x="1157" d="M51 365q0 63 18.5 117.5t52 96t64 68.5t70.5 55l-2 3q-88 53 -138 135.5t-50 187.5q0 128 68.5 225t186 147t265.5 50q229 0 364 -98.5t135 -268.5q0 -104 -50.5 -180.5t-147.5 -146.5q219 -134 219 -346q0 -139 -75.5 -240.5t-199.5 -151t-280 -49.5q-228 0 -364 107 t-136 289zM444 403q0 -54 37 -86t97 -32q61 0 97 31.5t36 78.5q0 89 -156 158h-2q-109 -73 -109 -150zM457 1042q0 -40 33.5 -71.5t103.5 -69.5l2 -2q51 39 77.5 74t26.5 78q0 38 -31.5 65t-90.5 27q-57 0 -89 -28t-32 -73z" />
<glyph unicode="9" horiz-adv-x="1187" d="M47 575q0 228 154.5 374.5t392.5 146.5q118 0 213.5 -36t167 -108t110.5 -188.5t39 -269.5q0 -149 -27.5 -276.5t-88.5 -236t-152 -184.5t-224.5 -119t-299.5 -43q-80 0 -170 17v336q86 -27 188 -27q126 0 215.5 49.5t126.5 147.5l17 45l-2 2q-37 -29 -103 -46.5 t-143 -17.5q-189 0 -301.5 120t-112.5 314zM436 625q0 -158 135 -158q65 0 99.5 45t34.5 119q0 62 -33.5 101.5t-96.5 39.5t-101 -41.5t-38 -105.5z" />
<glyph unicode=":" horiz-adv-x="645" d="M113 197q0 92 66.5 158.5t158.5 66.5t158.5 -66.5t66.5 -158.5t-66.5 -159t-158.5 -67t-158.5 67t-66.5 159zM113 748q0 92 66.5 158.5t158.5 66.5t158.5 -66.5t66.5 -158.5t-66.5 -159t-158.5 -67t-158.5 67t-66.5 159z" />
<glyph unicode=";" horiz-adv-x="645" d="M92 -276q113 120 129 195t-51 149q-38 43 -45.5 102.5t13 112.5t74 90t126.5 37q109 0 174 -90q73 -103 45 -259q-39 -215 -255 -418q-29 -27 -60 -53zM113 748q0 92 66.5 158.5t158.5 66.5t158.5 -66.5t66.5 -158.5t-66.5 -159t-158.5 -67t-158.5 67t-66.5 159z" />
<glyph unicode="&#x3c;" d="M104 610l658 635l248 -248l-424 -385l426 -387l-246 -252z" />
<glyph unicode="=" d="M102 233v297h922v-297h-922zM102 684v297h922v-297h-922z" />
<glyph unicode="&#x3e;" d="M115 993l245 252l662 -637l-657 -635l-248 248l424 385z" />
<glyph unicode="?" horiz-adv-x="940" d="M88 1151l45 338q160 -2 289 -28.5t213.5 -69t141.5 -100.5t81.5 -121t24.5 -132q0 -62 -16.5 -115t-42.5 -89t-59 -70.5t-65.5 -59t-61.5 -54t-48 -57t-24.5 -67.5t9.5 -84h-364q-33 86 -26.5 155.5t36 115t73 86t83.5 68.5t69 63t29 69q0 76 -96.5 111.5t-290.5 40.5z M186 176q0 87 61.5 146t151.5 59t151.5 -59t61.5 -146t-61.5 -146t-151.5 -59t-151.5 59t-61.5 146z" />
<glyph unicode="@" horiz-adv-x="1964" d="M147 571q0 202 70 378.5t192 301t292 196t364 71.5q175 0 314.5 -48.5t230.5 -135.5t138.5 -205.5t47.5 -260.5q0 -294 -146 -448t-390 -154q-93 0 -148 42t-61 118h-9q-46 -73 -112.5 -116.5t-149.5 -43.5q-99 0 -159 81t-60 241q0 116 30 212.5t89.5 170.5t157 115.5 t225.5 41.5q70 0 139 -16t113 -39l-62 -362q-16 -91 -7.5 -124.5t50.5 -33.5q76 0 123 68.5t47 228.5q0 77 -22 141t-69.5 116t-131 81t-196.5 29q-117 0 -220.5 -43.5t-180 -121.5t-121 -194.5t-44.5 -255.5q0 -227 119 -341t391 -114q174 0 375 68l57 -283 q-111 -40 -242.5 -63t-236.5 -23q-199 0 -351.5 51t-250 146t-146.5 228t-49 300zM834 641q0 -54 6.5 -74t25.5 -20q37 0 75 65t65 203l12 64q-20 10 -47 10q-57 0 -97 -80t-40 -168z" />
<glyph unicode="A" horiz-adv-x="1445" d="M20 0v248q53 14 89 16l352 1118h510l366 -1118q35 -2 88 -16v-248h-620v246q99 16 117 18l-29 101h-383l-29 -101q36 -4 123 -18v-246h-584zM596 659h213l-43 154q-46 160 -64 244h-4q-22 -123 -59 -246z" />
<glyph unicode="B" horiz-adv-x="1327" d="M31 0v246q100 19 178 24v842q-70 5 -178 25v245h168q59 0 255 5.5t287 5.5q231 0 361.5 -90t130.5 -267q0 -95 -41 -171.5t-119 -116.5v-7q90 -31 148.5 -115.5t58.5 -183.5q0 -95 -36.5 -175.5t-107.5 -141t-184.5 -95t-257.5 -34.5q-8 0 -162.5 2t-322.5 2h-178z M590 311q50 -4 106 -4q79 0 125.5 34t46.5 97q0 56 -47 91.5t-133 35.5q-75 0 -98 -2v-252zM590 848q23 -2 82 -2q85 0 120 33.5t35 97.5q0 53 -39 80.5t-108 27.5q-24 0 -90 -4v-233z" />
<glyph unicode="C" horiz-adv-x="1148" d="M53 637q0 351 189.5 556.5t523.5 205.5q139 0 311 -33v-483h-303q-10 55 -22 153q-28 4 -50 4q-91 0 -157 -87.5t-66 -254.5q0 -181 72 -274.5t250 -93.5q131 0 243 45l46 -342q-177 -56 -379 -56q-167 0 -293.5 46.5t-206 134t-119 207.5t-39.5 272z" />
<glyph unicode="D" horiz-adv-x="1443" d="M31 0v246q100 19 178 24v842q-70 5 -178 25v245h168q45 0 221 4.5t287 4.5q125 0 226.5 -21t188.5 -69.5t146 -124.5t92 -190t33 -261q0 -349 -202 -542t-544 -193q-87 0 -256 5t-182 5h-178zM590 326q28 -7 88 -7q135 0 219 95t84 280q0 70 -6 122t-24.5 102t-50.5 81.5 t-86 50.5t-128 19q-67 0 -96 -4v-739z" />
<glyph unicode="E" horiz-adv-x="1116" d="M31 0v246q100 19 178 24v842q-70 5 -178 25v245h1013v-393h-294l-15 94h-145v-243h123q7 44 14 73h252v-413h-252q-7 29 -14 73h-123v-268h147q3 26 15 107h299v-412h-1020z" />
<glyph unicode="F" horiz-adv-x="1081" d="M31 0v246q100 19 178 24v842q-70 5 -178 25v245h1007v-401h-295q-8 33 -14 96h-139v-260h127q8 47 14 74h252v-434h-252q-7 29 -14 73h-127v-260q78 -5 178 -24v-246h-737z" />
<glyph unicode="G" horiz-adv-x="1380" d="M53 653q0 344 217 548t584 204q192 0 401 -51v-439h-307q-14 69 -20 142q-36 8 -88 8q-181 0 -277 -103.5t-96 -281.5q0 -168 83.5 -262t254.5 -94q45 0 78 10v149q-79 5 -172 25v246h639v-252q-45 -9 -86 -15v-415q-219 -97 -502 -97q-343 0 -526 181t-183 497z" />
<glyph unicode="H" horiz-adv-x="1593" d="M31 0v246q100 19 178 24v842q-70 5 -178 25v245h688v-252q-56 -11 -129 -18v-233h414v233q-76 7 -130 18v252h689v-245q-108 -20 -179 -25v-842q79 -5 179 -24v-246h-689v252q54 11 130 18v275h-414v-275q74 -7 129 -18v-252h-688z" />
<glyph unicode="I" horiz-adv-x="798" d="M31 0v246q100 19 178 24v842q-70 5 -178 25v245h737v-245q-108 -20 -178 -25v-842q78 -5 178 -24v-246h-737z" />
<glyph unicode="J" horiz-adv-x="780" d="M31 -6v319q50 -16 104 -16q61 0 92 32t31 103v680q-70 5 -178 25v245h670v-252q-52 -12 -111 -18v-688q0 -70 -11.5 -131.5t-41 -121t-75.5 -101.5t-119 -67.5t-167 -25.5q-104 0 -194 17z" />
<glyph unicode="K" horiz-adv-x="1513" d="M31 0v246q100 19 178 24v842q-70 5 -178 25v245h669v-252q-53 -12 -110 -18v-362l291 370q-36 4 -58 10v252h629v-249q-75 -13 -104 -15l-332 -395l362 -459q41 -3 105 -14v-250h-668v252l66 10l-291 404v-396q57 -6 110 -18v-252h-669z" />
<glyph unicode="L" horiz-adv-x="1107" d="M31 0v246q100 19 178 24v842q-70 5 -178 25v245h737v-245q-108 -20 -178 -25v-797h164q8 93 37 183h284v-498h-1044z" />
<glyph unicode="M" horiz-adv-x="2002" d="M31 0v248q63 14 94 16l141 848q-51 3 -166 25v245h691l145 -479q39 -130 76 -323h4q31 179 76 329l139 473h676v-245q-113 -21 -170 -25l141 -848q31 -2 94 -16v-248h-604v246q70 13 119 18l-45 361q-19 158 -27 331h-4q-33 -228 -63 -331l-177 -625h-356l-176 627 q-38 132 -66 329h-4q-3 -190 -22 -333l-47 -359q27 -3 110 -18v-246h-579z" />
<glyph unicode="N" horiz-adv-x="1603" d="M31 0v246q100 19 178 24v842q-70 5 -178 25v245h694l250 -522q81 -169 143 -356q-22 243 -22 608q-58 6 -111 18v252h588v-252q-53 -12 -111 -18v-1112h-514l-252 518q-89 184 -145 373q24 -227 24 -621q69 -7 125 -18v-252h-669z" />
<glyph unicode="O" horiz-adv-x="1435" d="M43 664q0 167 55.5 308t150.5 236.5t223 149t273 53.5q320 0 484 -181.5t164 -510.5q0 -167 -55.5 -308.5t-151 -237t-223.5 -149t-273 -53.5q-320 0 -483.5 182t-163.5 511zM449 700q0 -378 266 -378q126 0 199 94t73 266q0 185 -66 283t-200 98q-126 0 -199 -95 t-73 -268z" />
<glyph unicode="P" horiz-adv-x="1247" d="M31 0v246q100 19 178 24v842q-70 5 -178 25v245h178q17 0 179 5.5t265 5.5q278 0 425 -117.5t147 -345.5q0 -110 -36.5 -203.5t-107 -165.5t-183.5 -112.5t-257 -40.5q-24 0 -51 2v-140q78 -5 178 -24v-246h-737zM590 729q24 -6 67 -6q77 0 125.5 44t48.5 128 q0 186 -188 186q-37 0 -53 -2v-350z" />
<glyph unicode="Q" horiz-adv-x="1435" d="M43 664q0 167 55.5 308t150.5 236.5t223 149t273 53.5q320 0 484 -181.5t164 -510.5q0 -182 -59.5 -317.5t-153.5 -202.5q30 -1 75.5 -10t73.5 -11h13q30 0 88 6v-319q-92 -13 -155 -13h-32q-71 5 -136.5 24t-110.5 40t-108.5 38t-129.5 17h-68q-320 0 -483.5 182 t-163.5 511zM449 700q0 -378 266 -378q126 0 199 94t73 266q0 185 -66 283t-200 98q-126 0 -199 -95t-73 -268z" />
<glyph unicode="R" horiz-adv-x="1347" d="M31 0v246q100 19 178 24v842q-70 5 -178 25v245h164q9 0 206.5 5.5t300.5 5.5q271 0 410 -103.5t139 -328.5q0 -113 -55 -205.5t-164 -143.5q28 -41 41 -65l144 -279l94 -14v-254h-408l-241 512h-72v-242q40 -6 88 -18v-252h-647zM590 788h84q80 0 128 41.5t48 116.5 q0 67 -40 107.5t-128 40.5q-68 0 -92 -4v-302z" />
<glyph unicode="S" horiz-adv-x="1038" d="M43 958q0 208 149.5 329.5t413.5 121.5q169 0 328 -33v-407h-305q-10 62 -17 133q-12 4 -32 4q-62 0 -94.5 -29t-32.5 -71q0 -38 30.5 -66.5t79.5 -48.5t108 -41.5t117.5 -52t107.5 -71.5t79.5 -109.5t30.5 -157.5q0 -211 -158.5 -348.5t-419.5 -137.5q-187 0 -346 33 v428h305l16 -141q20 -4 64 -4q63 0 96 27.5t33 80.5q0 40 -30.5 68.5t-79.5 47t-107.5 37t-117.5 48.5t-108 72t-79.5 116t-30.5 172z" />
<glyph unicode="T" horiz-adv-x="1277" d="M31 926v456h1216v-456h-291q-16 88 -20 141h-107v-797q79 -5 179 -24v-246h-738v246q100 19 179 24v797h-107q-4 -53 -20 -141h-291z" />
<glyph unicode="U" horiz-adv-x="1441" d="M31 1130v252h616v-252q-56 -11 -125 -18v-594q0 -125 44.5 -184.5t158.5 -59.5t158.5 57.5t44.5 196.5v584q-69 7 -125 18v252h608v-252q-54 -12 -106 -18v-573q0 -282 -156 -425t-444 -143q-130 0 -229 27.5t-161.5 74t-102.5 115t-55.5 144.5t-15.5 168v612 q-57 6 -110 18z" />
<glyph unicode="V" horiz-adv-x="1388" d="M20 1130v252h613v-245q-105 -17 -123 -19l129 -428q42 -134 68 -250h4q23 129 65 271l123 407q-5 1 -119 19v245h588v-252q-42 -9 -84 -12l-362 -1118h-449l-369 1118q-42 3 -84 12z" />
<glyph unicode="W" horiz-adv-x="1988" d="M20 1130v252h594v-245q-116 -19 -118 -19l61 -370q25 -136 39 -322h2q25 177 61 319l156 637h377l172 -641q47 -169 68 -315h2q8 167 26 336l37 356q-21 2 -59 9.5t-49 9.5v245h579v-252q-42 -9 -84 -12l-203 -1118h-499l-140 518q-45 162 -65 352h-2q-13 -198 -49 -350 l-119 -520h-500l-203 1118q-42 3 -84 12z" />
<glyph unicode="X" horiz-adv-x="1527" d="M20 0v250q64 11 105 14l381 434l-369 420q-29 2 -104 15v249h688v-252l-66 -10l142 -188l153 188l-65 10v252h606v-249q-74 -13 -105 -15l-362 -424l379 -430q39 -3 104 -14v-250h-696v252l66 10l-150 197l-160 -197l66 -10v-252h-613z" />
<glyph unicode="Y" horiz-adv-x="1302" d="M20 1130v252h588v-252q-42 -9 -78 -12l66 -145q59 -140 70 -172h2q27 86 63 168l70 149q-42 3 -84 12v252h565v-252q-42 -9 -84 -12l-358 -672v-176q78 -5 178 -24v-246h-737v246q100 19 178 24v174l-355 674q-47 4 -84 12z" />
<glyph unicode="Z" horiz-adv-x="1114" d="M74 0v301l450 692q24 41 54 78q-23 -2 -93 -2h-86q-7 -77 -20 -123h-301v436h958v-315l-475 -688q-33 -49 -39 -57q20 2 105 2h106q6 63 25 137h289v-461h-973z" />
<glyph unicode="[" horiz-adv-x="688" d="M102 -436v2044h519v-301h-166v-1440h166v-303h-519z" />
<glyph unicode="\" horiz-adv-x="1093" d="M0 1550h375l719 -1880h-377z" />
<glyph unicode="]" horiz-adv-x="688" d="M68 -133h165v1440h-165v301h518v-2044h-518v303z" />
<glyph unicode="^" d="M86 799l330 583h278l346 -579l-262 -131l-229 452l-219 -452z" />
<glyph unicode="_" d="M0 -193h1126v-303h-1126v303z" />
<glyph unicode="`" horiz-adv-x="778" d="M137 1321l152 252l434 -252l-123 -207z" />
<glyph unicode="a" horiz-adv-x="1134" d="M35 266q0 80 30 144.5t81 107.5t122.5 71.5t151 42t170.5 15.5v35q0 48 -29.5 71t-101.5 23q-29 0 -90 -16q-2 -29 -15 -90h-239v325q196 52 362 52q142 0 238 -23t151 -72.5t78 -116.5t23 -165v-389q98 -16 157 -21v-246q-175 -18 -361 -18q-67 0 -136 2q0 84 8 131h-2 q-36 -71 -116.5 -112.5t-178.5 -41.5q-148 0 -225.5 80.5t-77.5 210.5zM385 317q0 -29 20 -47t56 -18q56 0 92.5 39.5t36.5 93.5v35q-48 0 -80 -3.5t-63 -13.5t-46.5 -31.5t-15.5 -54.5z" />
<glyph unicode="b" horiz-adv-x="1150" d="M-66 1235v244q189 20 399 20q70 0 142 -2v-358q0 -115 -14 -211h2q35 52 103.5 83t160.5 31q182 0 277.5 -127t95.5 -348q0 -123 -37 -229.5t-107.5 -188.5t-182 -129t-251.5 -47q-221 0 -420 58v1183q-101 16 -168 21zM475 281q36 -9 72 -9q160 0 160 256 q0 108 -24.5 155.5t-76.5 47.5q-55 0 -93 -61.5t-38 -173.5v-215z" />
<glyph unicode="c" horiz-adv-x="915" d="M49 479q0 116 32.5 215t98.5 178t178 124.5t260 45.5q126 0 232 -32v-373h-244l-14 90q-6 2 -23 2q-56 0 -94.5 -55t-38.5 -154q0 -118 54 -168.5t172 -50.5q86 0 167 33l41 -318q-140 -41 -292 -41q-266 0 -397.5 133t-131.5 371z" />
<glyph unicode="d" horiz-adv-x="1216" d="M51 449q0 122 37 229.5t106 188.5t176 128t238 47q32 0 68 -4v176q-94 15 -178 21v244q190 20 405 20q72 0 146 -2v-1216q95 -15 157 -21v-244q-170 -21 -358 -21q-67 0 -137 3q0 72 6 117h-4q-94 -142 -293 -142q-179 0 -274 128t-95 348zM444 489q0 -108 24.5 -156 t76.5 -48q55 0 93 63t38 180v209q-31 8 -72 8q-160 0 -160 -256z" />
<glyph unicode="e" horiz-adv-x="1073" d="M49 496q0 237 140 391.5t378 154.5q115 0 202 -33.5t140.5 -95t80 -143t26.5 -180.5q0 -118 -15 -201h-575q11 -129 219 -129q147 0 301 62l33 -277q-200 -70 -393 -70q-537 0 -537 521zM424 631h229v13q0 61 -25 93q-28 35 -79 35q-54 0 -88 -39t-37 -102z" />
<glyph unicode="f" horiz-adv-x="813" d="M41 0v246q100 19 178 24v461h-178v287h178v94q0 204 105.5 305t337.5 101q82 0 176 -17l-23 -303q-57 16 -106 16q-117 0 -117 -100v-96h182v-287h-182v-461q78 -5 178 -24v-246h-729z" />
<glyph unicode="g" horiz-adv-x="1130" d="M51 -199q0 64 41 129.5t96 92.5q-96 50 -96 161q0 65 37 120.5t92 76.5q-71 36 -112 106t-41 166q0 80 29.5 149.5t86 124t149 86t210.5 31.5q97 0 196 -26h346v-293h-94q4 -12 4 -43q0 -173 -113.5 -268t-332.5 -95h-37q-25 -13 -25 -34q0 -25 22.5 -31.5t111.5 -9.5 l114 -4q172 -6 262 -79t90 -229q0 -85 -41 -163t-114.5 -138.5t-186 -96.5t-245.5 -36q-217 0 -333 76t-116 227zM416 -125q0 -43 34.5 -69.5t102.5 -26.5q82 0 126 29.5t44 74.5q0 75 -92 78l-144 4h-30q-41 -41 -41 -90zM420 674q0 -49 29.5 -79t87.5 -30q52 0 81 28.5 t29 76.5q0 49 -29.5 78.5t-87.5 29.5q-52 0 -81 -28t-29 -76z" />
<glyph unicode="h" horiz-adv-x="1298" d="M0 1235v244q184 20 396 20q71 0 145 -2v-375q0 -119 -19 -211h2q46 60 124.5 95.5t180.5 35.5q82 0 141.5 -25t93.5 -70.5t50 -101.5t16 -124v-451q76 -6 156 -24v-246h-528v643q0 84 -58 84q-61 0 -110 -73t-49 -160v-224q74 -7 129 -18v-252h-658v246q90 19 156 24v944 q-95 15 -168 21z" />
<glyph unicode="i" horiz-adv-x="759" d="M41 0v246q100 19 178 24v467q-94 15 -178 21v243q198 21 412 21q69 0 139 -2v-750q74 -5 158 -24v-246h-709zM182 1311q0 89 66 152t158 63t157.5 -63t65.5 -152t-65.5 -152t-157.5 -63t-158 63t-66 152z" />
<glyph unicode="j" horiz-adv-x="636" d="M-74 -473l19 313q52 -18 104 -18q57 0 88 28.5t31 83.5v803q-101 17 -158 21v243q188 21 395 21q67 0 136 -2v-1043q0 -219 -113.5 -342.5t-357.5 -123.5q-59 0 -144 16zM129 1311q0 89 65.5 152t157.5 63t157.5 -63t65.5 -152t-65.5 -152t-157.5 -63t-157.5 63 t-65.5 152z" />
<glyph unicode="k" horiz-adv-x="1327" d="M0 1235v244q184 20 396 20q71 0 145 -2v-934l143 193q-33 3 -59 10v252h639v-252q-54 -12 -121 -16l-185 -205l209 -275q60 -6 119 -18v-252h-399l-346 494v-224q57 -6 92 -18v-252h-621v246q83 19 156 24v944q-95 15 -168 21z" />
<glyph unicode="l" horiz-adv-x="708" d="M0 1235v244q189 20 399 20q70 0 142 -2v-1227q69 -5 155 -24v-246h-684v246q85 19 156 24v944q-95 15 -168 21z" />
<glyph unicode="m" horiz-adv-x="1951" d="M41 0v246q100 19 178 24v467q-94 15 -178 21v243q201 21 398 21q63 0 126 -2q0 -73 -10 -139h2q48 76 130 118.5t183 42.5q216 0 277 -161q43 75 124.5 118t182.5 43q153 0 231 -87.5t78 -260.5v-424q73 -5 158 -24v-246h-530v631q0 96 -58 96q-56 0 -106.5 -71 t-50.5 -164v-222q74 -7 129 -18v-252h-498v631q0 96 -57 96t-107.5 -71t-50.5 -164v-222q74 -7 129 -18v-252h-680z" />
<glyph unicode="n" horiz-adv-x="1349" d="M41 0v246q100 19 178 24v467q-94 15 -178 21v243q201 21 396 21q63 0 126 -2q0 -81 -10 -137h2q51 73 133 116t193 43q82 0 141.5 -25t93.5 -70.5t50 -101.5t16 -124v-451q72 -5 157 -24v-246h-530v643q0 84 -57 84q-61 0 -110.5 -72.5t-49.5 -158.5v-226q74 -7 129 -18 v-252h-680z" />
<glyph unicode="o" horiz-adv-x="1155" d="M47 479q0 127 43 233.5t118 178t177 111.5t219 40q249 0 376.5 -129t127.5 -374q0 -169 -75 -298.5t-200.5 -197.5t-279.5 -68q-506 0 -506 504zM434 516q0 -116 32 -166.5t107 -50.5q71 0 109.5 56.5t38.5 150.5q0 114 -32 165.5t-107 51.5q-62 0 -105 -52t-43 -155z " />
<glyph unicode="p" horiz-adv-x="1216" d="M12 -231q112 21 156 24v944q-107 17 -156 21v243q188 21 376 21q60 0 120 -2q0 -50 -6 -117h4q88 139 291 139q179 0 273.5 -126.5t94.5 -346.5q0 -131 -33 -236.5t-99 -185t-173 -122.5t-248 -43q-44 0 -71 6v-195q78 -5 178 -24v-246h-707v246zM541 281q45 -9 71 -9 q160 0 160 256q0 109 -24 157t-76 48q-55 0 -93 -63.5t-38 -180.5v-208z" />
<glyph unicode="q" horiz-adv-x="1144" d="M51 446q0 98 22.5 186.5t70 163.5t115.5 129.5t163.5 85.5t210.5 31q214 0 416 -34v-1215q75 -5 153 -24v-246h-704v246q100 19 178 24v92q0 120 14 221h-4q-37 -63 -104 -98t-152 -35q-186 0 -282.5 121t-96.5 352zM444 489q0 -108 24 -156t75 -48q56 0 94.5 65 t38.5 187v202q-48 6 -72 6q-160 0 -160 -256z" />
<glyph unicode="r" horiz-adv-x="894" d="M41 0v246q100 19 178 24v467q-94 15 -178 21v243q201 21 396 21q63 0 126 -2q0 -62 -10 -154h2q94 178 296 178h11l-18 -368q-43 10 -79 10q-69 0 -111 -39q-62 -59 -62 -221v-156q78 -5 178 -24v-246h-729z" />
<glyph unicode="s" horiz-adv-x="909" d="M37 688q0 155 123.5 254.5t353.5 99.5q142 0 309 -34v-314h-243q-12 40 -15 90q-40 7 -63 7q-92 0 -92 -62q0 -21 25.5 -38.5t66 -32t90 -30.5t99 -39.5t90 -53.5t66 -77.5t25.5 -107.5q0 -167 -136 -271t-359 -104q-149 0 -307 35v326h245q9 -55 11 -92q31 -8 75 -8 t70.5 17t26.5 46q0 22 -25.5 39.5t-66 31t-89.5 29t-98.5 38.5t-90 54t-66 81.5t-25.5 115.5z" />
<glyph unicode="t" horiz-adv-x="778" d="M20 731v287h130v287l372 100v-387h191v-287h-191v-342q0 -57 20 -80.5t66 -23.5q48 0 94 12l21 -289q-136 -33 -246 -33q-188 0 -257.5 71t-69.5 267v418h-130z" />
<glyph unicode="u" horiz-adv-x="1296" d="M12 758v246q171 18 376 18q74 0 151 -2v-645q0 -84 57 -84q61 0 110.5 72.5t49.5 158.5v217q-76 12 -129 17v250q162 17 350 17q73 0 151 -3v-739q99 -16 156 -21v-246q-175 -18 -361 -18q-67 0 -135 2q0 64 9 137h-4q-112 -160 -326 -160q-82 0 -141.5 25.5t-93.5 71 t-50 101.5t-16 124v440q-101 16 -154 21z" />
<glyph unicode="v" horiz-adv-x="1173" d="M20 766v252h525v-252l-58 -8l27 -76q47 -136 82 -297h4q29 150 74 297l22 76l-57 8v252h514v-252q-41 -9 -82 -12l-237 -754h-492l-240 754q-41 3 -82 12z" />
<glyph unicode="w" horiz-adv-x="1710" d="M20 766v252h515v-252q-19 -5 -48 -8l17 -62q43 -159 59 -239h4q19 127 72 301l80 260h315l74 -260q41 -139 76 -301h4q15 93 47 213l25 88q-37 5 -48 8v252h478v-252q-41 -9 -82 -12l-222 -754h-405l-68 238q-31 104 -61 262h-2q-20 -107 -64 -256l-69 -244h-395 l-220 754q-41 3 -82 12z" />
<glyph unicode="x" horiz-adv-x="1103" d="M20 0v252q55 11 130 18l151 248l-139 230q-73 7 -129 18v252h411l119 -268l117 268h391v-252q-55 -11 -129 -18l-125 -232l137 -246q74 -7 129 -18v-252h-438l-110 272l-111 -272h-404z" />
<glyph unicode="y" horiz-adv-x="1173" d="M20 766v252h525v-252l-58 -8l27 -76q47 -136 82 -297h4q29 150 74 297l22 76l-57 8v252h514v-252q-41 -9 -82 -12l-270 -854q-48 -152 -119.5 -240.5t-161 -123t-217.5 -34.5q-88 0 -184 21l16 315q91 -26 162 -26q43 0 81.5 27t55.5 85l23 76h-115l-240 754 q-49 3 -82 12z" />
<glyph unicode="z" horiz-adv-x="960" d="M61 0v279l404 473q-28 -4 -82 -4h-55l-15 -91h-252v361h824v-281l-391 -450q25 2 79 2h60l14 90h252v-379h-838z" />
<glyph unicode="{" horiz-adv-x="802" d="M49 494v274q44 2 75 11t58.5 31.5t41.5 67t14 111.5v86q0 290 105 411.5t343 121.5h53v-301q-65 0 -95 -15t-44 -63.5t-14 -153.5v-86q0 -96 -14.5 -165t-42 -108t-59 -58t-71.5 -25v-4q187 -26 187 -369v-156q0 -105 14 -154.5t44 -66t95 -16.5v-303h-53 q-237 0 -342.5 124t-105.5 414v158q0 128 -50 179.5t-139 54.5z" />
<glyph unicode="|" horiz-adv-x="598" d="M143 -477v2048h297v-2048h-297z" />
<glyph unicode="}" horiz-adv-x="802" d="M63 -133q49 0 76 7.5t46 33.5t25.5 71.5t6.5 124.5v156q0 343 186 369v4q-40 6 -71.5 25t-58.5 58t-41.5 108t-14.5 165v86q0 79 -6.5 124t-26 69.5t-46 31.5t-75.5 7v301h54q238 0 343 -121.5t105 -411.5v-86q0 -67 14 -111.5t41.5 -67t58.5 -31.5t75 -11v-274 q-89 -3 -139 -54.5t-50 -179.5v-158q0 -290 -105.5 -414t-342.5 -124h-54v303z" />
<glyph unicode="~" d="M51 852v61q0 168 97 267.5t262 99.5q67 0 119 -20.5t80.5 -49t50 -57.5t41 -49.5t40.5 -20.5q31 0 44.5 32t13.5 110h276v-62q0 -168 -96.5 -267t-261.5 -99q-57 0 -103 14.5t-73.5 36.5t-51 47t-38 47t-31.5 36.5t-35 14.5q-31 0 -44 -31t-13 -110h-277z" />
<glyph unicode="&#xa1;" horiz-adv-x="663" d="M98 -446l52 1021h327l58 -1021h-437zM106 842q0 87 61.5 146t151.5 59t151.5 -59t61.5 -146t-61.5 -146t-151.5 -59t-151.5 59t-61.5 146z" />
<glyph unicode="&#xa2;" horiz-adv-x="1216" d="M102 670q0 79 14 151.5t50 145.5t91 129.5t143.5 98.5t201.5 58v160h234v-153q53 -1 129 -17t127 -35v-387h-234q-11 69 -14 107q-72 16 -127 16q-104 0 -167 -58t-63 -163q0 -128 71.5 -191t219.5 -63q58 0 145 16t158 41l23 -313q-113 -47 -268 -61v-197h-234v192 q-500 54 -500 523z" />
<glyph unicode="&#xa3;" horiz-adv-x="1060" d="M59 553v287h131q-18 135 -18 166q0 207 111 307t342 100q67 0 156 -10.5t143 -26.5v-366h-244l-14 94q-8 2 -25 2q-90 0 -90 -115q0 -27 14 -151h234v-287h-205q4 -36 4 -45q0 -108 -86 -197q54 4 96 4h74q7 73 18 142h291v-457h-930v268q168 53 168 211q0 54 -10 74 h-160z" />
<glyph unicode="&#xa4;" d="M37 268l127 162q-53 89 -53 232q0 140 63 241l-135 178l293 203l137 -186q65 10 119 10q30 0 84 -4l129 184l293 -211l-123 -159q45 -92 45 -226q0 -130 -66 -239l144 -185l-295 -209l-146 197q-58 -10 -112 -10q-24 0 -74 4l-133 -187zM430 676q0 -75 33.5 -119.5 t95.5 -44.5q58 0 97.5 39t39.5 133q0 83 -32 120.5t-99 37.5q-54 0 -94.5 -42t-40.5 -124z" />
<glyph unicode="&#xa5;" horiz-adv-x="1277" d="M20 1130v252h570v-252q-39 -9 -84 -12l53 -88q68 -111 82 -141h6q31 60 92 151l52 78q-42 3 -84 12v252h550v-252q-42 -9 -83 -12l-228 -356h189v-191h-310v-84h310v-194h-310v-51q71 -5 179 -25v-217h-734v217q108 20 179 25v51h-310v194h310v84h-310v191h189l-224 356 q-47 4 -84 12z" />
<glyph unicode="&#xa6;" horiz-adv-x="598" d="M143 297h297v-774h-297v774zM143 817v754h297v-754h-297z" />
<glyph unicode="&#xa7;" horiz-adv-x="1114" d="M84 627q0 94 42 176t110 129q-72 84 -72 211q0 61 16.5 114.5t55 102t97 83t148.5 55t203 20.5q104 0 186 -15l-16 -309q-64 20 -149 20q-74 0 -106 -15.5t-32 -51.5q0 -26 24.5 -53t63.5 -55t86.5 -60t94.5 -74.5t86 -92.5t63.5 -120.5t24.5 -150.5q0 -92 -44 -174.5 t-110 -130.5q74 -84 74 -216q0 -55 -17.5 -105.5t-60 -99.5t-106 -85t-163 -58t-223.5 -22q-90 0 -182 18l21 312q77 -23 161 -23t124 22.5t40 55.5q0 29 -24.5 56.5t-63 53.5t-85.5 56t-94 70t-85.5 87.5t-63 117t-24.5 151.5zM416 674q0 -58 40.5 -104.5t190.5 -157.5 q33 30 33 80q0 30 -8 53t-31.5 48.5t-44 42.5t-67.5 54.5t-80 65.5q-33 -33 -33 -82z" />
<glyph unicode="&#xa8;" horiz-adv-x="1118" d="M131 1311q0 77 54.5 131.5t131.5 54.5t132 -55t55 -131q0 -77 -55 -132t-132 -55q-76 0 -131 55t-55 132zM575 1311q0 76 55 131t132 55q76 0 131 -54.5t55 -131.5t-55 -132t-131 -55t-131.5 55t-55.5 132z" />
<glyph unicode="&#xa9;" horiz-adv-x="1576" d="M70 680q0 145 54.5 277t148.5 229.5t228.5 155t286.5 57.5q222 0 386 -92.5t248.5 -254t84.5 -372.5q0 -166 -55.5 -303t-152.5 -227t-228.5 -139.5t-282.5 -49.5q-331 0 -524.5 191.5t-193.5 527.5zM342 680q0 -207 123 -327t323 -120q195 0 321 123.5t126 323.5 q0 205 -121.5 325.5t-325.5 120.5q-190 0 -318 -126t-128 -320zM434 664q0 79 22.5 147t68 122t122 85t176.5 31q82 0 170 -23v-272h-182l-10 61h-17q-67 0 -67 -123q0 -78 30.5 -107.5t106.5 -29.5q67 0 121 25l39 -224q-96 -37 -215 -37q-184 0 -274.5 91t-90.5 254z" />
<glyph unicode="&#xaa;" horiz-adv-x="942" d="M49 815q0 76 35 132.5t97.5 89t137.5 49t166 18.5v26q0 36 -23.5 50t-86.5 14q-40 0 -64 -8q-4 -38 -12 -64h-188v246q151 41 286 41q148 0 233.5 -33.5t118.5 -94t33 -159.5v-262q78 -13 136 -16v-217q-211 -21 -404 -15q0 64 6 101h-2q-29 -55 -91.5 -86t-139.5 -31 q-117 0 -177.5 60.5t-60.5 158.5zM100 254v287h762v-287h-762zM324 854q0 -21 15.5 -35t43.5 -14q43 0 72.5 30.5t29.5 69.5v25q-39 0 -63.5 -2t-49 -9.5t-36.5 -23.5t-12 -41z" />
<glyph unicode="&#xab;" horiz-adv-x="1167" d="M49 596l211 444l295 -120l-154 -324l160 -317l-307 -123zM569 596l236 428l285 -125l-168 -303l174 -297l-297 -127z" />
<glyph unicode="&#xac;" d="M72 455v311h952v-594h-334v283h-618z" />
<glyph unicode="&#xad;" horiz-adv-x="696" d="M82 391v297h532v-297h-532z" />
<glyph unicode="&#xae;" horiz-adv-x="1159" d="M59 1092q0 141 70 257.5t189.5 183t261.5 66.5t261 -66.5t189 -183t70 -257.5t-70 -258t-189 -183.5t-261 -66.5t-261.5 66.5t-189.5 183.5t-70 258zM270 1106q0 -158 89 -241t221 -83q131 0 220 80t89 230q0 143 -84.5 226t-224.5 83q-147 0 -228.5 -86.5t-81.5 -208.5z M385 872v99l37 8v227q0 1 -5.5 2t-15.5 2.5t-16 3.5v99h51q3 0 63.5 2t92.5 2q89 0 140.5 -34t51.5 -105q0 -34 -15.5 -66t-41.5 -49q1 -2 12 -23l21 -61l26 -6v-101h-151l-41 146h-31v-39q11 0 29 -6v-101h-207zM563 1133q2 0 10 -1.5t11 -1.5q43 0 43 35q0 31 -41 31 q-19 0 -23 -2v-61z" />
<glyph unicode="&#xaf;" horiz-adv-x="808" d="M102 1178v266h605v-266h-605z" />
<glyph unicode="&#xb0;" horiz-adv-x="829" d="M53 1194q0 75 31.5 137.5t83.5 102.5t115.5 62t128.5 22q91 0 159.5 -25t108.5 -70t59 -100.5t19 -122.5q0 -80 -30.5 -144.5t-82.5 -104t-116.5 -60.5t-135.5 -21q-159 0 -249.5 86t-90.5 238zM319 1196q0 -45 24.5 -70.5t64.5 -25.5t62 28.5t22 73.5q0 36 -23 63 t-57 27q-41 0 -67 -26.5t-26 -69.5z" />
<glyph unicode="&#xb1;" d="M72 741v308h313v333h356v-333h314v-308h-314v-335h-356v335h-313zM84 0v311h958v-311h-958z" />
<glyph unicode="&#xb2;" horiz-adv-x="870" d="M53 553v270l135 80q133 79 179.5 119.5t46.5 75.5q0 47 -66 47q-28 0 -55 -10q-3 -31 -14 -93h-224v312q159 59 361 59q377 0 377 -258q0 -84 -40.5 -148t-127.5 -118l-86 -51q76 6 270 6v-291h-756z" />
<glyph unicode="&#xb3;" horiz-adv-x="813" d="M47 543l27 235q126 -22 219 -22q67 0 98 10.5t31 36.5q0 15 -5 24.5t-24 17.5t-54.5 9.5t-98 -2t-152.5 -14.5v215q106 0 174.5 6.5t100.5 19.5t42.5 26.5t10.5 33.5q0 45 -68 45q-1 0 -55 -6q-3 -38 -14 -74h-224v268q185 41 344 41q189 0 278 -61t89 -166 q0 -126 -111 -182q62 -17 100 -67t38 -114q0 -133 -127.5 -217t-348.5 -84q-123 0 -270 21z" />
<glyph unicode="&#xb4;" horiz-adv-x="819" d="M158 1319l434 254l151 -252l-462 -207z" />
<glyph unicode="&#xb5;" horiz-adv-x="1286" d="M18 758v246q234 25 531 16v-645q0 -84 57 -84q70 0 115 66t45 173v209q-76 12 -129 17v250q226 23 502 14v-631q0 -54 12 -75t47 -25q4 0 12.5 -1t12.5 -1l26 -289q-82 -23 -176 -23q-213 0 -252 152h-2q-72 -141 -231 -141q-42 0 -74 16l43 -479h-381v1214 q-97 16 -158 21z" />
<glyph unicode="&#xb6;" horiz-adv-x="1253" d="M78 901q0 151 69 261t188 165t275 55v-960q-138 0 -242.5 38.5t-166.5 105.5t-92.5 151.5t-30.5 183.5zM643 106h133v1276h422v-303h-117v-1276h-438v303z" />
<glyph unicode="&#xb7;" horiz-adv-x="655" d="M102 610q0 92 67 159t159 67t158.5 -67t66.5 -159t-66.5 -158.5t-158.5 -66.5t-159 66.5t-67 158.5z" />
<glyph unicode="&#xb8;" horiz-adv-x="819" d="M213 -477q46 51 62.5 98t3 102t-61.5 119l299 78q53 -77 64 -151t-15.5 -135t-85.5 -111h-266z" />
<glyph unicode="&#xb9;" horiz-adv-x="763" d="M25 1305l237 86h311v-588q73 -9 150 -25v-225h-682v225q97 20 174 25v284l-139 -61z" />
<glyph unicode="&#xba;" horiz-adv-x="940" d="M51 989q0 99 35.5 180t96 133.5t139 80.5t165.5 28q195 0 298.5 -101.5t103.5 -301.5q0 -125 -59 -221t-159 -146.5t-222 -50.5q-65 0 -122 13t-108.5 43t-88 75t-58 113.5t-21.5 154.5zM96 254v287h748v-287h-748zM358 999q0 -73 27.5 -116t79.5 -43q49 0 83 36t34 123 q0 83 -27 121.5t-86 38.5q-46 0 -78.5 -39t-32.5 -121z" />
<glyph unicode="&#xbb;" horiz-adv-x="1167" d="M72 897l297 127l229 -424l-236 -428l-284 125l168 303zM606 918l307 122l205 -440l-211 -444l-295 120l154 324z" />
<glyph unicode="&#xbc;" horiz-adv-x="1671" d="M68 1323l186 63h274v-512q37 -4 107 -22v-166h-531v166q50 12 129 22v291l-120 -43zM133 -2l1210 1487l179 -137l-1211 -1487zM885 373l223 323h383v-323h108v-195h-108v-28l102 -25v-125h-510v125q67 17 115 27v26h-280zM1106 373h100v151z" />
<glyph unicode="&#xbd;" horiz-adv-x="1777" d="M68 1323l186 63h274v-512q37 -4 107 -22v-166h-531v166q50 12 129 22v291l-120 -43zM133 -2l1210 1487l179 -137l-1211 -1487zM993 0v248l142 71q131 66 155 84q35 25 35 54q0 45 -49 45q-26 0 -53 -8l-21 -76h-196l10 250q161 53 334 53q325 0 325 -195 q0 -84 -41.5 -135t-120.5 -94l-114 -64h282v-233h-688z" />
<glyph unicode="&#xbe;" horiz-adv-x="1671" d="M86 678l23 190q90 -22 161 -22q127 0 127 51q0 27 -48.5 34t-143.5 -1q-52 -4 -84 -8v180h29q65 0 112 5t72 12t39 19t17 21.5t3 22.5q0 43 -61 43q-21 0 -45 -4q-3 -33 -15 -64h-178v215q158 35 283 35q146 0 225.5 -42.5t79.5 -143.5q0 -104 -98 -156q53 -13 81.5 -55 t28.5 -99q0 -112 -105 -180.5t-304 -68.5q-117 0 -199 16zM133 -2l1210 1487l179 -137l-1211 -1487zM885 373l223 323h383v-323h108v-195h-108v-28l102 -25v-125h-510v125q67 17 115 27v26h-280zM1106 373h100v151z" />
<glyph unicode="&#xbf;" horiz-adv-x="940" d="M57 -20q0 55 13 103.5t34.5 82.5t49.5 66.5t57 55.5t57.5 49t51.5 48t38 52.5t17 62t-10 75.5h364q33 -86 26.5 -155.5t-36 -115t-73 -86t-83.5 -68.5t-69 -63t-29 -69q0 -76 96.5 -111t290.5 -40l-45 -338q-160 2 -289 28.5t-213.5 69t-141.5 100.5t-81.5 121t-24.5 132 zM328 842q0 87 61.5 146t151.5 59t151.5 -59t61.5 -146t-61.5 -146t-151.5 -59t-151.5 59t-61.5 146z" />
<glyph unicode="&#xc0;" horiz-adv-x="1445" d="M20 0v248q53 14 89 16l352 1118h510l366 -1118q35 -2 88 -16v-248h-620v246q99 16 117 18l-29 101h-383l-29 -101q36 -4 123 -18v-246h-584zM381 1540l72 252l499 -156l-53 -196zM596 659h213l-43 154q-46 160 -64 244h-4q-22 -123 -59 -246z" />
<glyph unicode="&#xc1;" horiz-adv-x="1445" d="M20 0v248q53 14 89 16l352 1118h510l366 -1118q35 -2 88 -16v-248h-620v246q99 16 117 18l-29 101h-383l-29 -101q36 -4 123 -18v-246h-584zM506 1636l500 156l71 -252l-518 -100zM596 659h213l-43 154q-46 160 -64 244h-4q-22 -123 -59 -246z" />
<glyph unicode="&#xc2;" horiz-adv-x="1445" d="M20 0v248q53 14 89 16l352 1118h510l366 -1118q35 -2 88 -16v-248h-620v246q99 16 117 18l-29 101h-383l-29 -101q36 -4 123 -18v-246h-584zM356 1616l361 178l360 -170l-78 -184l-290 98l-281 -96zM596 659h213l-43 154q-46 160 -64 244h-4q-22 -123 -59 -246z" />
<glyph unicode="&#xc3;" horiz-adv-x="1445" d="M20 0v248q53 14 89 16l352 1118h510l366 -1118q35 -2 88 -16v-248h-620v246q99 16 117 18l-29 101h-383l-29 -101q36 -4 123 -18v-246h-584zM289 1589q111 195 297 195q48 0 89 -13t63 -28t47.5 -28t48.5 -13q35 0 58 19t46 61l180 -119q-111 -195 -297 -195 q-48 0 -89 13t-63 28t-47.5 28t-48.5 13q-35 0 -58 -19t-46 -61zM596 659h213l-43 154q-46 160 -64 244h-4q-22 -123 -59 -246z" />
<glyph unicode="&#xc4;" horiz-adv-x="1445" d="M20 0v248q53 14 89 16l352 1118h510l366 -1118q35 -2 88 -16v-248h-620v246q99 16 117 18l-29 101h-383l-29 -101q36 -4 123 -18v-246h-584zM303 1620q0 74 52.5 126t125.5 52t125.5 -52t52.5 -126q0 -73 -52 -124.5t-126 -51.5t-126 51.5t-52 124.5zM596 659h213 l-43 154q-46 160 -64 244h-4q-22 -123 -59 -246zM750 1620q0 74 52 126t126 52t126 -52t52 -126q0 -73 -52 -124.5t-126 -51.5t-126 51.5t-52 124.5z" />
<glyph unicode="&#xc5;" horiz-adv-x="1445" d="M20 0v248q53 14 89 16l352 1118h510l366 -1118q35 -2 88 -16v-248h-620v246q99 16 117 18l-29 101h-383l-29 -101q36 -4 123 -18v-246h-584zM428 1700q0 111 78 183.5t192 72.5t193.5 -72.5t79.5 -183.5t-79.5 -183.5t-193.5 -72.5t-192 72.5t-78 183.5zM596 659h213 l-43 154q-46 160 -64 244h-4q-22 -123 -59 -246zM610 1700q0 -35 26.5 -61.5t61.5 -26.5t62.5 26.5t27.5 61.5t-27.5 61.5t-62.5 26.5t-61.5 -26.5t-26.5 -61.5z" />
<glyph unicode="&#xc6;" horiz-adv-x="1679" d="M-61 0v248q53 14 88 16l413 848q-70 5 -178 25v245h1346v-393h-295l-15 94h-145v-243h123q7 44 14 73h252v-413h-252q-7 29 -14 73h-123v-268h147q3 26 15 107h299v-412h-963v252q87 14 123 18v74h-340l-35 -80q37 -3 86 -18v-246h-546zM571 639h203v442h-10 q-95 -226 -137 -319z" />
<glyph unicode="&#xc7;" horiz-adv-x="1167" d="M53 637q0 351 189.5 556.5t523.5 205.5q139 0 311 -33v-483h-303q-10 55 -22 153q-28 4 -50 4q-91 0 -157 -87.5t-66 -254.5q0 -181 72 -274.5t250 -93.5q131 0 243 45l46 -342q-177 -56 -379 -56q-167 0 -293.5 46.5t-206 134t-119 207.5t-39.5 272zM485 -477 q46 51 62.5 98t3 102t-61.5 119l299 78q53 -77 64 -151t-15 -135t-85 -111h-267z" />
<glyph unicode="&#xc8;" horiz-adv-x="1116" d="M31 0v246q100 19 178 24v842q-70 5 -178 25v245h1013v-393h-294l-15 94h-145v-243h123q7 44 14 73h252v-413h-252q-7 29 -14 73h-123v-268h147q3 26 15 107h299v-412h-1020zM201 1540l71 252l500 -156l-53 -196z" />
<glyph unicode="&#xc9;" horiz-adv-x="1116" d="M31 0v246q100 19 178 24v842q-70 5 -178 25v245h1013v-393h-294l-15 94h-145v-243h123q7 44 14 73h252v-413h-252q-7 29 -14 73h-123v-268h147q3 26 15 107h299v-412h-1020zM385 1636l500 156l71 -252l-518 -100z" />
<glyph unicode="&#xca;" horiz-adv-x="1116" d="M31 0v246q100 19 178 24v842q-70 5 -178 25v245h1013v-393h-294l-15 94h-145v-243h123q7 44 14 73h252v-413h-252q-7 29 -14 73h-123v-268h147q3 26 15 107h299v-412h-1020zM207 1616l360 178l361 -170l-78 -184l-291 98l-280 -96z" />
<glyph unicode="&#xcb;" horiz-adv-x="1116" d="M31 0v246q100 19 178 24v842q-70 5 -178 25v245h1013v-393h-294l-15 94h-145v-243h123q7 44 14 73h252v-413h-252q-7 29 -14 73h-123v-268h147q3 26 15 107h299v-412h-1020zM154 1620q0 74 52 126t126 52t126 -52t52 -126q0 -73 -52 -124.5t-126 -51.5t-126 51.5 t-52 124.5zM600 1620q0 74 52 126t126 52t126 -52t52 -126q0 -73 -52 -124.5t-126 -51.5t-126 51.5t-52 124.5z" />
<glyph unicode="&#xcc;" horiz-adv-x="798" d="M31 0v246q100 19 178 24v842q-70 5 -178 25v245h737v-245q-108 -20 -178 -25v-842q78 -5 178 -24v-246h-737zM39 1540l72 252l499 -156l-53 -196z" />
<glyph unicode="&#xcd;" horiz-adv-x="798" d="M31 0v246q100 19 178 24v842q-70 5 -178 25v245h737v-245q-108 -20 -178 -25v-842q78 -5 178 -24v-246h-737zM121 1636l500 156l71 -252l-518 -100z" />
<glyph unicode="&#xce;" horiz-adv-x="798" d="M31 0v246q100 19 178 24v842q-70 5 -178 25v245h737v-245q-108 -20 -178 -25v-842q78 -5 178 -24v-246h-737zM35 1616l360 178l361 -170l-78 -184l-291 98l-281 -96z" />
<glyph unicode="&#xcf;" horiz-adv-x="798" d="M-2 1620q0 74 52 126t126 52t126 -52t52 -126q0 -73 -52 -124.5t-126 -51.5t-126 51.5t-52 124.5zM31 0v246q100 19 178 24v842q-70 5 -178 25v245h737v-245q-108 -20 -178 -25v-842q78 -5 178 -24v-246h-737zM444 1620q0 73 52.5 125.5t126.5 52.5q73 0 125.5 -52 t52.5 -126q0 -73 -52 -124.5t-126 -51.5t-126.5 51.5t-52.5 124.5z" />
<glyph unicode="&#xd0;" horiz-adv-x="1464" d="M51 0v246q100 19 178 24v279h-106v287h106v276q-70 5 -178 25v245h168q48 0 223.5 4.5t286.5 4.5q125 0 226 -21t187.5 -69.5t145 -124.5t91 -190t32.5 -261q0 -350 -200 -542.5t-545 -192.5q-72 0 -218 5t-219 5h-178zM610 326q32 -7 90 -7q135 0 219.5 95t84.5 280 q0 70 -6 122t-24.5 102t-50.5 81.5t-86 50.5t-128 19q-68 0 -99 -4v-229h187v-287h-187v-223z" />
<glyph unicode="&#xd1;" horiz-adv-x="1603" d="M31 0v246q100 19 178 24v842q-70 5 -178 25v245h694l250 -522q81 -169 143 -356q-22 243 -22 608q-58 6 -111 18v252h588v-252q-53 -12 -111 -18v-1112h-514l-252 518q-89 184 -145 373q24 -227 24 -621q69 -7 125 -18v-252h-669zM408 1589q111 195 297 195 q48 0 88.5 -13t62.5 -28t47.5 -28t48.5 -13q35 0 58.5 19t46.5 61l180 -119q-111 -195 -297 -195q-48 0 -89 13t-63 28t-47.5 28t-48.5 13q-35 0 -58 -19t-46 -61z" />
<glyph unicode="&#xd2;" horiz-adv-x="1435" d="M43 664q0 167 55.5 308t150.5 236.5t223 149t273 53.5q320 0 484 -181.5t164 -510.5q0 -167 -55.5 -308.5t-151 -237t-223.5 -149t-273 -53.5q-320 0 -483.5 182t-163.5 511zM377 1540l72 252l499 -156l-53 -196zM449 700q0 -378 266 -378q126 0 199 94t73 266 q0 185 -66 283t-200 98q-126 0 -199 -95t-73 -268z" />
<glyph unicode="&#xd3;" horiz-adv-x="1435" d="M43 664q0 167 55.5 308t150.5 236.5t223 149t273 53.5q320 0 484 -181.5t164 -510.5q0 -167 -55.5 -308.5t-151 -237t-223.5 -149t-273 -53.5q-320 0 -483.5 182t-163.5 511zM449 700q0 -378 266 -378q126 0 199 94t73 266q0 185 -66 283t-200 98q-126 0 -199 -95 t-73 -268zM518 1636l500 156l72 -252l-519 -100z" />
<glyph unicode="&#xd4;" horiz-adv-x="1435" d="M43 664q0 167 55.5 308t150.5 236.5t223 149t273 53.5q320 0 484 -181.5t164 -510.5q0 -167 -55.5 -308.5t-151 -237t-223.5 -149t-273 -53.5q-320 0 -483.5 182t-163.5 511zM379 1616l360 178l361 -170l-78 -184l-291 98l-280 -96zM449 700q0 -378 266 -378 q126 0 199 94t73 266q0 185 -66 283t-200 98q-126 0 -199 -95t-73 -268z" />
<glyph unicode="&#xd5;" horiz-adv-x="1435" d="M43 664q0 167 55.5 308t150.5 236.5t223 149t273 53.5q320 0 484 -181.5t164 -510.5q0 -167 -55.5 -308.5t-151 -237t-223.5 -149t-273 -53.5q-320 0 -483.5 182t-163.5 511zM307 1589q111 195 297 195q48 0 89 -13t63 -28t47.5 -28t48.5 -13q35 0 58 19t46 61l181 -119 q-111 -195 -297 -195q-48 0 -89 13t-63 28t-47.5 28t-48.5 13q-35 0 -58.5 -19t-46.5 -61zM449 700q0 -378 266 -378q126 0 199 94t73 266q0 185 -66 283t-200 98q-126 0 -199 -95t-73 -268z" />
<glyph unicode="&#xd6;" horiz-adv-x="1435" d="M43 664q0 167 55.5 308t150.5 236.5t223 149t273 53.5q320 0 484 -181.5t164 -510.5q0 -167 -55.5 -308.5t-151 -237t-223.5 -149t-273 -53.5q-320 0 -483.5 182t-163.5 511zM340 1620q0 74 52 126t126 52t126 -52t52 -126q0 -73 -52 -124.5t-126 -51.5t-126 51.5 t-52 124.5zM449 700q0 -378 266 -378q126 0 199 94t73 266q0 185 -66 283t-200 98q-126 0 -199 -95t-73 -268zM786 1620q0 73 52.5 125.5t126.5 52.5q73 0 125.5 -52t52.5 -126q0 -73 -52 -124.5t-126 -51.5t-126.5 51.5t-52.5 124.5z" />
<glyph unicode="&#xd7;" d="M72 319l274 277l-274 274l229 230l274 -275l277 275l203 -203l-277 -274l277 -277l-230 -229l-276 276l-275 -276z" />
<glyph unicode="&#xd8;" horiz-adv-x="1435" d="M43 672q0 164 55.5 303t150.5 234t223.5 148.5t272.5 53.5q70 0 156 -14l103 205l260 -117l-99 -199q228 -176 228 -571q0 -220 -94 -391t-253.5 -262t-355.5 -91q-84 0 -174 17l-98 -199l-258 119l98 196q-215 176 -215 568zM432 700q0 -42 6.5 -98.5t9.5 -79.5t-4 -55 l299 608h-2q-4 0 -12 1t-12 1q-55 0 -104.5 -21.5t-90.5 -65t-65.5 -118.5t-24.5 -172zM676 309q5 0 16.5 -1t16.5 -1q52 0 100.5 19t94 61t73 121.5t27.5 187.5q0 54 -8 113t-12.5 80t1.5 49z" />
<glyph unicode="&#xd9;" horiz-adv-x="1441" d="M31 1130v252h616v-252q-56 -11 -125 -18v-594q0 -125 44.5 -184.5t158.5 -59.5t158.5 57.5t44.5 196.5v584q-69 7 -125 18v252h608v-252q-54 -12 -106 -18v-573q0 -282 -156 -425t-444 -143q-130 0 -229 27.5t-161.5 74t-102.5 115t-55.5 144.5t-15.5 168v612 q-57 6 -110 18zM299 1540l72 252l499 -156l-53 -196z" />
<glyph unicode="&#xda;" horiz-adv-x="1441" d="M31 1130v252h616v-252q-56 -11 -125 -18v-594q0 -125 44.5 -184.5t158.5 -59.5t158.5 57.5t44.5 196.5v584q-69 7 -125 18v252h608v-252q-54 -12 -106 -18v-573q0 -282 -156 -425t-444 -143q-130 0 -229 27.5t-161.5 74t-102.5 115t-55.5 144.5t-15.5 168v612 q-57 6 -110 18zM567 1636l500 156l72 -252l-518 -100z" />
<glyph unicode="&#xdb;" horiz-adv-x="1441" d="M31 1130v252h616v-252q-56 -11 -125 -18v-594q0 -125 44.5 -184.5t158.5 -59.5t158.5 57.5t44.5 196.5v584q-69 7 -125 18v252h608v-252q-54 -12 -106 -18v-573q0 -282 -156 -425t-444 -143q-130 0 -229 27.5t-161.5 74t-102.5 115t-55.5 144.5t-15.5 168v612 q-57 6 -110 18zM356 1616l361 178l360 -170l-78 -184l-290 98l-281 -96z" />
<glyph unicode="&#xdc;" horiz-adv-x="1441" d="M31 1130v252h616v-252q-56 -11 -125 -18v-594q0 -125 44.5 -184.5t158.5 -59.5t158.5 57.5t44.5 196.5v584q-69 7 -125 18v252h608v-252q-54 -12 -106 -18v-573q0 -282 -156 -425t-444 -143q-130 0 -229 27.5t-161.5 74t-102.5 115t-55.5 144.5t-15.5 168v612 q-57 6 -110 18zM322 1620q0 74 52 126t126 52t126 -52t52 -126q0 -73 -52 -124.5t-126 -51.5t-126 51.5t-52 124.5zM768 1620q0 74 52 126t126 52t126 -52t52 -126q0 -73 -52 -124.5t-126 -51.5t-126 51.5t-52 124.5z" />
<glyph unicode="&#xdd;" horiz-adv-x="1302" d="M20 1130v252h588v-252q-42 -9 -78 -12l66 -145q59 -140 70 -172h2q27 86 63 168l70 149q-42 3 -84 12v252h565v-252q-42 -9 -84 -12l-358 -672v-176q78 -5 178 -24v-246h-737v246q100 19 178 24v174l-355 674q-47 4 -84 12zM504 1636l500 156l71 -252l-518 -100z" />
<glyph unicode="&#xde;" horiz-adv-x="1316" d="M31 0v242q100 19 178 24v850q-70 5 -178 25v241h737v-225q-100 -19 -178 -24v-62q92 10 182 10q253 0 383.5 -86t130.5 -272q0 -196 -142 -307t-378 -111q-86 0 -176 8v-63q70 -5 178 -25v-225h-737zM590 616q52 -10 112 -10q85 0 124.5 23t39.5 71q0 37 -34.5 60.5 t-108.5 23.5q-70 0 -133 -16v-152z" />
<glyph unicode="&#xdf;" horiz-adv-x="1533" d="M41 0v248q100 19 178 24v471q-94 15 -178 21v246q113 12 178 14q6 239 156 364t407 125q246 0 376 -100.5t130 -269.5q0 -61 -17 -107t-41 -73t-48 -50t-41 -50t-17 -60q0 -22 21.5 -42.5t56.5 -39.5t77 -40.5t84 -51.5t77 -67t56.5 -92.5t21.5 -121.5q0 -74 -28.5 -138 t-83.5 -114t-143 -79t-198 -29q-158 0 -293 22v340h246q10 -48 10 -86q21 -8 51 -8q31 0 45.5 13.5t14.5 43.5q0 24 -22 44.5t-57.5 37.5t-78 36.5t-85 46.5t-78 61t-57.5 86.5t-22 117.5q0 52 16 95t39 72.5t46 56.5t39 61.5t16 73.5q0 43 -31 77.5t-98 34.5 q-174 0 -174 -233v-709q79 -7 129 -24v-248h-680z" />
<glyph unicode="&#xe0;" horiz-adv-x="1130" d="M35 266q0 80 30 144.5t81 107.5t122.5 71.5t151 42t170.5 15.5v35q0 48 -29.5 71t-101.5 23q-29 0 -90 -16q-2 -29 -15 -90h-239v325q196 52 362 52q142 0 238 -23t151 -72.5t78 -116.5t23 -165v-389q98 -16 157 -21v-246q-238 -25 -497 -16q0 84 8 131h-2 q-36 -71 -116.5 -112.5t-178.5 -41.5q-148 0 -225.5 80.5t-77.5 210.5zM205 1321l151 252l435 -252l-123 -207zM385 317q0 -29 20 -47t56 -18q56 0 92.5 39.5t36.5 93.5v35q-48 0 -80 -3.5t-63 -13.5t-46.5 -31.5t-15.5 -54.5z" />
<glyph unicode="&#xe1;" horiz-adv-x="1130" d="M35 266q0 80 30 144.5t81 107.5t122.5 71.5t151 42t170.5 15.5v35q0 48 -29.5 71t-101.5 23q-29 0 -90 -16q-2 -29 -15 -90h-239v325q196 52 362 52q142 0 238 -23t151 -72.5t78 -116.5t23 -165v-389q98 -16 157 -21v-246q-238 -25 -497 -16q0 84 8 131h-2 q-36 -71 -116.5 -112.5t-178.5 -41.5q-148 0 -225.5 80.5t-77.5 210.5zM309 1319l434 254l152 -252l-463 -207zM385 317q0 -29 20 -47t56 -18q56 0 92.5 39.5t36.5 93.5v35q-48 0 -80 -3.5t-63 -13.5t-46.5 -31.5t-15.5 -54.5z" />
<glyph unicode="&#xe2;" horiz-adv-x="1130" d="M35 266q0 80 30 144.5t81 107.5t122.5 71.5t151 42t170.5 15.5v35q0 48 -29.5 71t-101.5 23q-29 0 -90 -16q-2 -29 -15 -90h-239v325q196 52 362 52q142 0 238 -23t151 -72.5t78 -116.5t23 -165v-389q98 -16 157 -21v-246q-238 -25 -497 -16q0 84 8 131h-2 q-36 -71 -116.5 -112.5t-178.5 -41.5q-148 0 -225.5 80.5t-77.5 210.5zM195 1282l356 291l356 -291l-133 -168l-223 158l-223 -158zM385 317q0 -29 20 -47t56 -18q56 0 92.5 39.5t36.5 93.5v35q-48 0 -80 -3.5t-63 -13.5t-46.5 -31.5t-15.5 -54.5z" />
<glyph unicode="&#xe3;" horiz-adv-x="1130" d="M35 266q0 80 30 144.5t81 107.5t122.5 71.5t151 42t170.5 15.5v35q0 48 -29.5 71t-101.5 23q-29 0 -90 -16q-2 -29 -15 -90h-239v325q196 52 362 52q142 0 238 -23t151 -72.5t78 -116.5t23 -165v-389q98 -16 157 -21v-246q-238 -25 -497 -16q0 84 8 131h-2 q-36 -71 -116.5 -112.5t-178.5 -41.5q-148 0 -225.5 80.5t-77.5 210.5zM164 1278q105 217 285 217q47 0 86 -14.5t60 -31.5t46 -31.5t47 -14.5q33 0 54.5 20.5t45.5 67.5l173 -131q-105 -217 -285 -217q-47 0 -86.5 14.5t-60.5 31.5t-46 31.5t-47 14.5q-33 0 -54.5 -20.5 t-45.5 -67.5zM385 317q0 -29 20 -47t56 -18q56 0 92.5 39.5t36.5 93.5v35q-48 0 -80 -3.5t-63 -13.5t-46.5 -31.5t-15.5 -54.5z" />
<glyph unicode="&#xe4;" horiz-adv-x="1130" d="M35 266q0 80 30 144.5t81 107.5t122.5 71.5t151 42t170.5 15.5v35q0 48 -29.5 71t-101.5 23q-29 0 -90 -16q-2 -29 -15 -90h-239v325q196 52 362 52q142 0 238 -23t151 -72.5t78 -116.5t23 -165v-389q98 -16 157 -21v-246q-238 -25 -497 -16q0 84 8 131h-2 q-36 -71 -116.5 -112.5t-178.5 -41.5q-148 0 -225.5 80.5t-77.5 210.5zM139 1311q0 76 55 131t132 55q76 0 131 -54.5t55 -131.5t-55 -132t-131 -55t-131.5 55t-55.5 132zM385 317q0 -29 20 -47t56 -18q56 0 92.5 39.5t36.5 93.5v35q-48 0 -80 -3.5t-63 -13.5t-46.5 -31.5 t-15.5 -54.5zM584 1311q0 77 55 131.5t131 54.5t131 -54.5t55 -131.5t-55 -132t-131 -55t-131 55t-55 132z" />
<glyph unicode="&#xe5;" horiz-adv-x="1130" d="M35 266q0 80 30 144.5t81 107.5t122.5 71.5t151 42t170.5 15.5v35q0 48 -29.5 71t-101.5 23q-29 0 -90 -16q-2 -29 -15 -90h-239v325q196 52 362 52q142 0 238 -23t151 -72.5t78 -116.5t23 -165v-389q98 -16 157 -21v-246q-238 -25 -497 -16q0 84 8 131h-2 q-36 -71 -116.5 -112.5t-178.5 -41.5q-148 0 -225.5 80.5t-77.5 210.5zM260 1384q0 123 87.5 204t213.5 81t213.5 -81t87.5 -204t-87.5 -203.5t-213.5 -80.5t-213.5 80.5t-87.5 203.5zM385 317q0 -29 20 -47t56 -18q56 0 92.5 39.5t36.5 93.5v35q-48 0 -80 -3.5t-63 -13.5 t-46.5 -31.5t-15.5 -54.5zM463 1384q0 -40 29 -69t69 -29t69 29t29 69t-29 69.5t-69 29.5t-69 -29.5t-29 -69.5z" />
<glyph unicode="&#xe6;" horiz-adv-x="1599" d="M31 266q0 80 30 144.5t81 107t122.5 70.5t151 40.5t170.5 12.5v41q0 51 -28 72.5t-99 21.5q-47 0 -94 -14q-3 -32 -15 -92h-239v325q185 49 364 49q235 0 344 -73h2q45 32 115.5 52.5t150.5 20.5q117 0 205.5 -34t142.5 -96t80.5 -144t26.5 -182q0 -97 -14 -193h-576 q7 -135 219 -135q157 0 302 64l32 -277q-181 -72 -393 -72q-152 0 -259.5 44t-154.5 128h-2q-100 -172 -350 -172q-156 0 -235.5 80t-79.5 211zM381 317q0 -29 20 -47t56 -18q56 0 92.5 39.5t36.5 93.5v29q-50 0 -80 -2.5t-62.5 -11.5t-47.5 -29.5t-15 -53.5zM950 637h230 q3 71 -25 105t-80 34q-54 0 -88 -38t-37 -101z" />
<glyph unicode="&#xe7;" horiz-adv-x="915" d="M49 479q0 116 32.5 215t98.5 178t178 124.5t260 45.5q126 0 232 -32v-373h-244l-14 90q-6 2 -23 2q-56 0 -94.5 -55t-38.5 -154q0 -118 54 -168.5t172 -50.5q86 0 167 33l41 -318q-140 -41 -292 -41q-266 0 -397.5 133t-131.5 371zM311 -477q46 51 62.5 98t3 102 t-61.5 119l299 78q53 -77 64 -151t-15 -135t-85 -111h-267z" />
<glyph unicode="&#xe8;" horiz-adv-x="1073" d="M49 496q0 237 140 391.5t378 154.5q115 0 202 -33.5t140.5 -95t80 -143t26.5 -180.5q0 -118 -15 -201h-575q11 -129 219 -129q147 0 301 62l33 -277q-200 -70 -393 -70q-537 0 -537 521zM197 1321l151 252l434 -252l-123 -207zM424 631h229q3 71 -25 106t-79 35 q-54 0 -88 -39t-37 -102z" />
<glyph unicode="&#xe9;" horiz-adv-x="1073" d="M49 496q0 237 140 391.5t378 154.5q115 0 202 -33.5t140.5 -95t80 -143t26.5 -180.5q0 -118 -15 -201h-575q11 -129 219 -129q147 0 301 62l33 -277q-200 -70 -393 -70q-537 0 -537 521zM338 1319l434 254l152 -252l-463 -207zM424 631h229q3 71 -25 106t-79 35 q-54 0 -88 -39t-37 -102z" />
<glyph unicode="&#xea;" horiz-adv-x="1073" d="M49 496q0 237 140 391.5t378 154.5q115 0 202 -33.5t140.5 -95t80 -143t26.5 -180.5q0 -118 -15 -201h-575q11 -129 219 -129q147 0 301 62l33 -277q-200 -70 -393 -70q-537 0 -537 521zM201 1282l356 291l356 -291l-133 -168l-223 158l-223 -158zM424 631h229 q3 71 -25 106t-79 35q-54 0 -88 -39t-37 -102z" />
<glyph unicode="&#xeb;" horiz-adv-x="1073" d="M49 496q0 237 140 391.5t378 154.5q115 0 202 -33.5t140.5 -95t80 -143t26.5 -180.5q0 -118 -15 -201h-575q11 -129 219 -129q147 0 301 62l33 -277q-200 -70 -393 -70q-537 0 -537 521zM150 1311q0 77 55 131.5t131 54.5t131 -54.5t55 -131.5t-55 -132t-131 -55t-131 55 t-55 132zM424 631h229q3 71 -25 106t-79 35q-54 0 -88 -39t-37 -102zM594 1311q0 77 55 131.5t131 54.5q77 0 132 -55t55 -131q0 -77 -55.5 -132t-131.5 -55t-131 55t-55 132z" />
<glyph unicode="&#xec;" horiz-adv-x="759" d="M41 0v246q100 19 178 24v467q-94 15 -178 21v243q262 28 551 19v-750q74 -5 158 -24v-246h-709zM45 1321l152 252l434 -252l-123 -207z" />
<glyph unicode="&#xed;" horiz-adv-x="759" d="M41 0v246q100 19 178 24v467q-94 15 -178 21v243q262 28 551 19v-750q74 -5 158 -24v-246h-709zM66 1319l434 254l151 -252l-463 -207z" />
<glyph unicode="&#xee;" horiz-adv-x="759" d="M41 0v246q100 19 178 24v467q-94 15 -178 21v243q262 28 551 19v-750q74 -5 158 -24v-246h-709zM41 1282l356 291l357 -291l-133 -168l-224 158l-223 -158z" />
<glyph unicode="&#xef;" horiz-adv-x="759" d="M-6 1311q0 77 55 131.5t131 54.5q77 0 132 -55t55 -131q0 -77 -55.5 -132t-131.5 -55t-131 55t-55 132zM41 0v246q100 19 178 24v467q-94 15 -178 21v243q262 28 551 19v-750q74 -5 158 -24v-246h-709zM438 1311q0 76 55 131t132 55t131.5 -54.5t54.5 -131.5t-55 -132 t-131 -55q-77 0 -132 55t-55 132z" />
<glyph unicode="&#xf0;" horiz-adv-x="1161" d="M49 479q0 130 41.5 237t112 175.5t162 105.5t192.5 37q56 0 86 -18l-35 51q-26 42 -76 92l-161 -69l-146 161l140 60q-52 40 -140 92l361 151q77 -58 121 -100l149 64l145 -162l-147 -62q250 -312 250 -708q0 -149 -43 -267.5t-118 -192.5t-171.5 -112.5t-208.5 -38.5 q-113 0 -206 30.5t-162.5 90.5t-107.5 158t-38 225zM436 510q0 -104 39 -157.5t107 -53.5q133 0 133 233q0 191 -140 191q-62 0 -100.5 -54.5t-38.5 -158.5z" />
<glyph unicode="&#xf1;" horiz-adv-x="1349" d="M41 0v246q100 19 178 24v467q-94 15 -178 21v243q265 28 522 19q0 -81 -10 -137h2q51 73 133 116t193 43q82 0 141.5 -25t93.5 -70.5t50 -101.5t16 -124v-451q72 -5 157 -24v-246h-530v643q0 84 -57 84q-61 0 -110.5 -72.5t-49.5 -158.5v-226q74 -7 129 -18v-252h-680z M281 1278q105 217 284 217q47 0 86.5 -14.5t60.5 -31.5t46 -31.5t47 -14.5q33 0 54.5 20.5t45.5 67.5l172 -131q-105 -217 -284 -217q-47 0 -86.5 14.5t-60.5 31.5t-46 31.5t-47 14.5q-33 0 -54.5 -20.5t-45.5 -67.5z" />
<glyph unicode="&#xf2;" horiz-adv-x="1155" d="M47 479q0 127 43 233.5t118 178t177 111.5t219 40q249 0 376.5 -129t127.5 -374q0 -169 -75 -298.5t-200.5 -197.5t-279.5 -68q-506 0 -506 504zM223 1321l152 252l434 -252l-123 -207zM434 516q0 -116 32 -166.5t107 -50.5q71 0 109.5 56.5t38.5 150.5q0 114 -32 165.5 t-107 51.5q-62 0 -105 -52t-43 -155z" />
<glyph unicode="&#xf3;" horiz-adv-x="1155" d="M47 479q0 127 43 233.5t118 178t177 111.5t219 40q249 0 376.5 -129t127.5 -374q0 -169 -75 -298.5t-200.5 -197.5t-279.5 -68q-506 0 -506 504zM352 1319l434 254l152 -252l-463 -207zM434 516q0 -116 32 -166.5t107 -50.5q71 0 109.5 56.5t38.5 150.5q0 114 -32 165.5 t-107 51.5q-62 0 -105 -52t-43 -155z" />
<glyph unicode="&#xf4;" horiz-adv-x="1155" d="M47 479q0 127 43 233.5t118 178t177 111.5t219 40q249 0 376.5 -129t127.5 -374q0 -169 -75 -298.5t-200.5 -197.5t-279.5 -68q-506 0 -506 504zM238 1282l356 291l356 -291l-133 -168l-223 158l-223 -158zM434 516q0 -116 32 -166.5t107 -50.5q71 0 109.5 56.5 t38.5 150.5q0 114 -32 165.5t-107 51.5q-62 0 -105 -52t-43 -155z" />
<glyph unicode="&#xf5;" horiz-adv-x="1155" d="M47 479q0 127 43 233.5t118 178t177 111.5t219 40q249 0 376.5 -129t127.5 -374q0 -169 -75 -298.5t-200.5 -197.5t-279.5 -68q-506 0 -506 504zM201 1278q105 217 284 217q47 0 86.5 -14.5t60.5 -31.5t46 -31.5t47 -14.5q33 0 54.5 20.5t45.5 67.5l172 -131 q-105 -217 -284 -217q-47 0 -86.5 14.5t-60.5 31.5t-46 31.5t-47 14.5q-33 0 -54.5 -20.5t-45.5 -67.5zM434 516q0 -116 32 -166.5t107 -50.5q71 0 109.5 56.5t38.5 150.5q0 114 -32 165.5t-107 51.5q-62 0 -105 -52t-43 -155z" />
<glyph unicode="&#xf6;" horiz-adv-x="1155" d="M47 479q0 127 43 233.5t118 178t177 111.5t219 40q249 0 376.5 -129t127.5 -374q0 -169 -75 -298.5t-200.5 -197.5t-279.5 -68q-506 0 -506 504zM180 1311q0 76 55 131t132 55t131.5 -54.5t54.5 -131.5t-55 -132t-131 -55q-77 0 -132 55t-55 132zM434 516 q0 -116 32 -166.5t107 -50.5q71 0 109.5 56.5t38.5 150.5q0 114 -32 165.5t-107 51.5q-62 0 -105 -52t-43 -155zM625 1311q0 77 54.5 131.5t131.5 54.5t131.5 -54.5t54.5 -131.5t-55 -132t-131 -55t-131 55t-55 132z" />
<glyph unicode="&#xf7;" d="M72 455v311h983v-311h-983zM350 201q0 88 62.5 150.5t150.5 62.5t150.5 -62.5t62.5 -150.5t-62.5 -150.5t-150.5 -62.5t-150.5 62.5t-62.5 150.5zM350 1020q0 88 62.5 150.5t150.5 62.5t150.5 -62.5t62.5 -150.5t-62.5 -150.5t-150.5 -62.5t-150.5 62.5t-62.5 150.5z" />
<glyph unicode="&#xf8;" horiz-adv-x="1155" d="M47 479q0 127 43 233.5t118 178t177 111.5t219 40q82 0 164 -16l106 172l185 -92l-105 -170q154 -130 154 -404q0 -166 -75 -294t-200.5 -195.5t-279.5 -67.5q-89 0 -176 19l-115 -189l-184 93l112 186q-143 122 -143 395zM385 401l213 349h-14q-81 0 -135 -57.5 t-54 -170.5q0 -14 0.5 -38.5t0.5 -34t-2.5 -23.5t-8.5 -25zM549 272h24q94 0 140.5 63.5t46.5 174.5v23.5v21.5v18t0.5 17t1.5 13.5t2.5 13t3 10t4.5 10.5z" />
<glyph unicode="&#xf9;" horiz-adv-x="1296" d="M12 758v246q233 25 527 16v-645q0 -84 57 -84q61 0 110.5 72.5t49.5 158.5v217q-76 12 -129 17v250q226 23 501 14v-739q99 -16 156 -21v-246q-238 -25 -496 -16q0 64 9 137h-4q-112 -160 -326 -160q-82 0 -141.5 25.5t-93.5 71t-50 101.5t-16 124v440q-101 16 -154 21z M272 1321l152 252l434 -252l-123 -207z" />
<glyph unicode="&#xfa;" horiz-adv-x="1296" d="M12 758v246q233 25 527 16v-645q0 -84 57 -84q61 0 110.5 72.5t49.5 158.5v217q-76 12 -129 17v250q226 23 501 14v-739q99 -16 156 -21v-246q-238 -25 -496 -16q0 64 9 137h-4q-112 -160 -326 -160q-82 0 -141.5 25.5t-93.5 71t-50 101.5t-16 124v440q-101 16 -154 21z M438 1319l434 254l152 -252l-463 -207z" />
<glyph unicode="&#xfb;" horiz-adv-x="1296" d="M12 758v246q233 25 527 16v-645q0 -84 57 -84q61 0 110.5 72.5t49.5 158.5v217q-76 12 -129 17v250q226 23 501 14v-739q99 -16 156 -21v-246q-238 -25 -496 -16q0 64 9 137h-4q-112 -160 -326 -160q-82 0 -141.5 25.5t-93.5 71t-50 101.5t-16 124v440q-101 16 -154 21z M295 1282l356 291l357 -291l-134 -168l-223 158l-223 -158z" />
<glyph unicode="&#xfc;" horiz-adv-x="1296" d="M12 758v246q233 25 527 16v-645q0 -84 57 -84q61 0 110.5 72.5t49.5 158.5v217q-76 12 -129 17v250q226 23 501 14v-739q99 -16 156 -21v-246q-238 -25 -496 -16q0 64 9 137h-4q-112 -160 -326 -160q-82 0 -141.5 25.5t-93.5 71t-50 101.5t-16 124v440q-101 16 -154 21z M240 1311q0 77 55 131.5t131 54.5t131 -54.5t55 -131.5t-55 -132t-131 -55t-131 55t-55 132zM684 1311q0 77 55 131.5t131 54.5q77 0 132 -55t55 -131q0 -77 -55.5 -132t-131.5 -55t-131 55t-55 132z" />
<glyph unicode="&#xfd;" horiz-adv-x="1173" d="M20 766v252h525v-252l-58 -8l27 -76q47 -136 82 -297h4q29 150 74 297l22 76l-57 8v252h514v-252q-41 -9 -82 -12l-270 -854q-48 -152 -119.5 -240.5t-161 -123t-217.5 -34.5q-88 0 -184 21l16 315q91 -26 162 -26q43 0 81.5 27t55.5 85l23 76h-115l-240 754 q-49 3 -82 12zM383 1319l434 254l152 -252l-463 -207z" />
<glyph unicode="&#xfe;" horiz-adv-x="1150" d="M-76 -231q100 19 178 24v1421q-101 16 -168 21v244q252 27 541 18v-375q0 -78 -14 -194h2q78 114 268 114q179 0 274 -126.5t95 -346.5q0 -126 -37.5 -233t-108 -188t-182 -127t-250.5 -46q-16 0 -47 7v-189q78 -5 178 -24v-246h-729v246zM475 281q45 -9 72 -9 q160 0 160 256q0 108 -24.5 155.5t-76.5 47.5q-55 0 -93 -62.5t-38 -179.5v-208z" />
<glyph unicode="&#xff;" horiz-adv-x="1173" d="M20 766v252h525v-252l-58 -8l27 -76q47 -136 82 -297h4q29 150 74 297l22 76l-57 8v252h514v-252q-41 -9 -82 -12l-270 -854q-48 -152 -119.5 -240.5t-161 -123t-217.5 -34.5q-88 0 -184 21l16 315q91 -26 162 -26q43 0 81.5 27t55.5 85l23 76h-115l-240 754 q-49 3 -82 12zM180 1311q0 76 55 131t132 55t131.5 -54.5t54.5 -131.5t-55 -132t-131 -55q-77 0 -132 55t-55 132zM625 1311q0 77 54.5 131.5t131.5 54.5t131.5 -54.5t54.5 -131.5t-55 -132t-131 -55t-131 55t-55 132z" />
<glyph unicode="&#x152;" horiz-adv-x="1773" d="M43 664q0 167 55.5 308t150.5 236.5t223 149t273 53.5q98 0 211 -29h746v-393h-295l-14 94h-146v-243h123q7 44 14 73h252v-413h-252q-7 29 -14 73h-123v-268h148q4 44 14 107h299v-412h-799q-114 -29 -219 -29q-320 0 -483.5 182t-163.5 511zM449 700q0 -378 266 -378 q72 0 153 38v676q-73 27 -151 27q-123 0 -195.5 -95.5t-72.5 -267.5z" />
<glyph unicode="&#x153;" horiz-adv-x="1722" d="M47 479q0 168 73.5 297.5t200 197.5t283.5 68q84 0 167 -23.5t140 -68.5q123 92 306 92q115 0 202 -33.5t140 -95t79.5 -142.5t26.5 -181q0 -118 -12 -201h-578q11 -129 219 -129q149 0 301 64l33 -277q-197 -72 -393 -72q-227 0 -358 107q-58 -49 -145.5 -78t-178.5 -29 q-506 0 -506 504zM434 520q0 -119 32 -170t107 -51q71 0 109.5 57t38.5 154q0 111 -32 162t-107 51q-61 0 -104.5 -51.5t-43.5 -151.5zM1073 631h230q3 71 -25 106t-80 35q-54 0 -88 -39t-37 -102z" />
<glyph unicode="&#x178;" horiz-adv-x="1302" d="M20 1130v252h588v-252q-42 -9 -78 -12l66 -145q59 -140 70 -172h2q27 86 63 168l70 149q-42 3 -84 12v252h565v-252q-42 -9 -84 -12l-358 -672v-176q78 -5 178 -24v-246h-737v246q100 19 178 24v174l-355 674q-47 4 -84 12zM264 1620q0 74 52 126t126 52t126.5 -52.5 t52.5 -125.5t-52.5 -124.5t-126.5 -51.5t-126 51.5t-52 124.5zM711 1620q0 74 52.5 126t125.5 52t125.5 -52t52.5 -126q0 -73 -52 -124.5t-126 -51.5t-126 51.5t-52 124.5z" />
<glyph unicode="&#x2c6;" horiz-adv-x="851" d="M70 1282l356 291l356 -291l-133 -168l-223 158l-223 -158z" />
<glyph unicode="&#x2dc;" horiz-adv-x="870" d="M45 1278q105 217 285 217q47 0 86 -14.5t60 -31.5t46 -31.5t47 -14.5q33 0 55 21t46 67l172 -131q-105 -217 -285 -217q-47 0 -86.5 14.5t-60.5 31.5t-46 31.5t-47 14.5q-33 0 -54.5 -20.5t-45.5 -67.5z" />
<glyph unicode="&#x2000;" horiz-adv-x="978" />
<glyph unicode="&#x2001;" horiz-adv-x="1956" />
<glyph unicode="&#x2002;" horiz-adv-x="978" />
<glyph unicode="&#x2003;" horiz-adv-x="1956" />
<glyph unicode="&#x2004;" horiz-adv-x="652" />
<glyph unicode="&#x2005;" horiz-adv-x="489" />
<glyph unicode="&#x2006;" horiz-adv-x="326" />
<glyph unicode="&#x2007;" horiz-adv-x="326" />
<glyph unicode="&#x2008;" horiz-adv-x="244" />
<glyph unicode="&#x2009;" horiz-adv-x="391" />
<glyph unicode="&#x200a;" horiz-adv-x="108" />
<glyph unicode="&#x2010;" horiz-adv-x="696" d="M82 391v297h532v-297h-532z" />
<glyph unicode="&#x2011;" horiz-adv-x="696" d="M82 391v297h532v-297h-532z" />
<glyph unicode="&#x2012;" horiz-adv-x="696" d="M82 391v297h532v-297h-532z" />
<glyph unicode="&#x2013;" d="M0 446v328h1126v-328h-1126z" />
<glyph unicode="&#x2014;" horiz-adv-x="2048" d="M205 446v328h1638v-328h-1638z" />
<glyph unicode="&#x2018;" horiz-adv-x="614" d="M88 1094q39 215 255 418q29 27 60 53l150 -133q-113 -120 -129 -195.5t51 -149.5q38 -43 45.5 -102.5t-13 -112.5t-74 -90t-126.5 -37q-109 0 -174 90q-73 103 -45 259z" />
<glyph unicode="&#x2019;" horiz-adv-x="614" d="M61 856q113 120 129 195t-51 149q-38 43 -45.5 102.5t13 112.5t74 90t126.5 37q109 0 174 -90q73 -103 45 -259q-39 -215 -256 -418q-28 -26 -59 -52z" />
<glyph unicode="&#x201a;" horiz-adv-x="614" d="M61 -276q113 120 129 195t-51 149q-38 43 -45.5 102.5t13 112.5t74 90t126.5 37q109 0 174 -90q73 -103 45 -259q-39 -215 -255 -418q-29 -27 -60 -53z" />
<glyph unicode="&#x201c;" horiz-adv-x="1146" d="M88 1094q39 215 255 418q29 27 60 53l150 -133q-113 -120 -129 -195.5t51 -149.5q38 -43 45.5 -102.5t-13 -112.5t-74 -90t-126.5 -37q-109 0 -174 90q-73 103 -45 259zM621 1094q39 215 255 418q29 27 60 53l149 -133q-113 -120 -128.5 -196t51.5 -149 q38 -43 45.5 -102.5t-13 -112.5t-74 -90t-126.5 -37q-109 0 -174 90q-73 103 -45 259z" />
<glyph unicode="&#x201d;" horiz-adv-x="1146" d="M61 856q113 120 129 195t-51 149q-38 43 -45.5 102.5t13 112.5t74 90t126.5 37q109 0 174 -90q73 -103 45 -259q-39 -215 -256 -418q-28 -26 -59 -52zM594 856q113 120 129 195t-51 149q-38 43 -45.5 102.5t13 112.5t74 90t126.5 37q109 0 174 -90q73 -103 44 -259 q-39 -215 -256 -418q-28 -26 -59 -52z" />
<glyph unicode="&#x201e;" horiz-adv-x="1146" d="M61 -276q113 120 129 195t-51 149q-38 43 -45.5 102.5t13 112.5t74 90t126.5 37q109 0 174 -90q73 -103 45 -259q-39 -215 -255 -418q-29 -27 -60 -53zM594 -276q113 120 129 195t-51 149q-38 43 -45.5 102.5t13 112.5t74 90t126.5 37q109 0 174 -90q73 -103 44 -259 q-39 -215 -255 -418q-29 -27 -60 -53z" />
<glyph unicode="&#x2022;" horiz-adv-x="872" d="M51 608q0 159 113 272t272 113q158 0 271.5 -113.5t113.5 -271.5t-113.5 -271.5t-271.5 -113.5q-159 0 -272 113t-113 272z" />
<glyph unicode="&#x202f;" horiz-adv-x="391" />
<glyph unicode="&#x2039;" horiz-adv-x="636" d="M45 596l223 438l291 -125l-162 -313l168 -307l-303 -127z" />
<glyph unicode="&#x203a;" horiz-adv-x="636" d="M72 907l303 127l217 -434l-223 -438l-291 125l162 313z" />
<glyph unicode="&#x205f;" horiz-adv-x="489" />
<glyph unicode="&#x20ac;" horiz-adv-x="1216" d="M57 418v186h111v103h-111v186h131q101 518 691 518q130 0 272 -27v-401h-240q-21 60 -24 121q-18 6 -47 6q-104 0 -161.5 -49t-80.5 -168h338v-186h-356v-103h356v-186h-322q63 -142 273 -142q136 0 223 39l82 -280q-150 -64 -354 -64q-293 0 -450 104t-202 343h-129z " />
<glyph unicode="&#x2122;" horiz-adv-x="1835" d="M35 1087v295h682v-295h-166q-11 82 -12 93h-39v-279q49 -3 100 -16v-158h-450v158q51 13 100 16v279h-39q-1 -11 -12 -93h-164zM717 727v162q50 8 61 8l80 309q-35 4 -102 17v159h436l45 -192l14 -76l17 76l47 192h448v-159q-67 -13 -102 -17l80 -307q18 0 59 -6v-166 h-364v158q41 12 43 12l-23 102l-10 48l-10 -48l-66 -272h-240l-67 274l-8 46l-8 -43l-25 -107q25 -4 43 -12v-158h-348z" />
<glyph unicode="&#x25fc;" horiz-adv-x="1013" d="M0 0v1014h1014v-1014h-1014z" />
</font>
</defs>
</svg>
