<?xml version="1.0" standalone="no"?>
<!DOCTYPE svg PUBLIC "-//W3C//DTD SVG 1.1//EN" "http://www.w3.org/Graphics/SVG/1.1/DTD/svg11.dtd" >
<svg xmlns="http://www.w3.org/2000/svg">
<metadata></metadata>
<defs>
<font id="theserifhp7_bold" horiz-adv-x="1126" >
<font-face units-per-em="2048" ascent="1516" descent="-532" />
<missing-glyph horiz-adv-x="446" />
<glyph unicode="&#x2e;&#x2e;&#x2e;" horiz-adv-x="1480" d="M96 137q0 66 47 113t113 47t114 -47t48 -113t-48 -113t-114 -47t-113 47t-47 113zM575 137q0 66 47 113t113 47t113 -47t47 -113t-47 -113t-113 -47t-113 47t-47 113zM1053 137q0 66 46.5 113t112.5 47t113 -47t47 -113t-47 -113t-113 -47t-112.5 47t-46.5 113z" />
<glyph unicode="&#xfb01;" horiz-adv-x="1380" d="M29 815v203h204v37q0 123 40 212.5t115 142t171.5 77t218.5 24.5q184 0 336 -38l-47 -218q-144 41 -281 41q-156 0 -223 -58t-67 -171v-49h680v-825q77 -5 165 -27v-166h-573v166q82 22 145 27v622h-417v-622q63 -5 145 -27v-166h-586v166q95 22 178 27v622h-204z" />
<glyph unicode="&#xfb02;" horiz-adv-x="1378" d="M29 815v203h204v74q0 214 132 316.5t428 102.5q177 0 383 -32v-1286q77 -5 165 -27v-166h-573v166q82 22 145 27v1095q-76 12 -157 12q-137 0 -198.5 -53.5t-61.5 -163.5v-65h241v-203h-241v-622q63 -5 145 -27v-166h-586v166q95 22 178 27v622h-204z" />
<glyph unicode="&#xfb03;" horiz-adv-x="2050" d="M29 815v203h204v37q0 442 490 442q211 0 385 -59q130 73 344 73q184 0 336 -38l-49 -218q-141 41 -279 41q-156 0 -223.5 -58t-67.5 -171v-49h678v-825q78 -5 166 -27v-166h-573v166q82 22 145 27v622h-416v-622q64 -5 146 -27v-166h-553v166q82 22 145 27v622h-411v-622 q63 -5 145 -27v-166h-586v166q95 22 178 27v622h-204zM496 1018h411v39q0 119 37 186q-95 39 -207 39q-126 0 -183.5 -50.5t-57.5 -160.5v-53z" />
<glyph unicode="&#xfb04;" horiz-adv-x="2050" d="M29 815v203h204v37q0 442 490 442q201 0 379 -57q127 71 362 71q183 0 383 -32v-1286q78 -5 166 -27v-166h-573v166q82 22 145 27v1095q-71 12 -158 12q-135 0 -196.5 -53.5t-61.5 -163.5v-65h242v-203h-242v-622q64 -5 146 -27v-166h-553v166q82 22 145 27v622h-411 v-622q63 -5 145 -27v-166h-586v166q95 22 178 27v622h-204zM496 1018h411v74q0 88 29 155q-87 35 -199 35q-126 0 -183.5 -50.5t-57.5 -160.5v-53z" />
<glyph horiz-adv-x="0" />
<glyph horiz-adv-x="0" />
<glyph horiz-adv-x="682" />
<glyph unicode="&#xd;" horiz-adv-x="1024" />
<glyph unicode=" "  horiz-adv-x="446" />
<glyph unicode="&#x09;" horiz-adv-x="446" />
<glyph unicode="&#xa0;" horiz-adv-x="446" />
<glyph unicode="!" horiz-adv-x="657" d="M184 133q0 65 46.5 110.5t113.5 45.5q69 0 115.5 -45.5t46.5 -110.5q0 -66 -46.5 -111t-115.5 -45q-68 0 -114 45t-46 111zM193 1450h307l-39 -1065h-225z" />
<glyph unicode="&#x22;" horiz-adv-x="829" d="M90 1438h262l-33 -520h-196zM477 1438h262l-34 -520h-195z" />
<glyph unicode="#" horiz-adv-x="1421" d="M55 360v193h287l33 305h-260v193h280l35 331h225l-32 -331h249l33 331h228l-33 -331h266v-193h-287l-32 -305h260v-193h-281l-37 -360h-227l37 360h-250l-39 -360h-225l39 360h-269zM569 553h250l33 305h-250z" />
<glyph unicode="$" horiz-adv-x="1069" d="M82 1012q0 144 104 257t271 130l4 223h188l-2 -221q110 -2 271 -35v-346h-195q-18 94 -23 158q-72 20 -129 20q-99 0 -154 -42t-55 -120q0 -41 27 -77t71 -62.5t100.5 -56t115 -56t115 -64t100.5 -79.5t71 -102.5t27 -132.5q0 -88 -33 -164t-89 -128t-127 -85.5 t-150 -42.5l-4 -295h-189l4 289q-159 3 -290 38v373h196q13 -69 23 -158q80 -22 155 -22q99 0 156 41t57 127q0 45 -34 83t-88.5 67t-120 58.5t-131 67t-120 83.5t-88.5 116.5t-34 157.5z" />
<glyph unicode="%" horiz-adv-x="1677" d="M74 1063q0 166 102 264t246 98q72 0 131 -19t105.5 -58t72 -105t25.5 -153q0 -167 -104.5 -268t-250.5 -101q-150 0 -238.5 88t-88.5 254zM233 82l994 1354l188 -136l-993 -1353zM295 1073q0 -91 29 -131.5t88 -40.5q56 0 90.5 45.5t34.5 128.5q0 93 -29.5 131.5 t-91.5 38.5q-53 0 -87 -46t-34 -126zM899 299q0 166 102 264.5t244 98.5q72 0 131.5 -19t106 -58.5t72.5 -105.5t26 -153q0 -167 -104 -268t-250 -101q-150 0 -239 88t-89 254zM1120 309q0 -91 29 -131.5t88 -40.5q55 0 89 45.5t34 128.5q0 92 -29 131t-90 39q-53 0 -87 -46 t-34 -126z" />
<glyph unicode="&#x26;" horiz-adv-x="1689" d="M96 383q0 126 66.5 226.5t193.5 199.5q-95 111 -134.5 193.5t-39.5 171.5q0 143 108.5 240t299.5 97q174 0 269 -81.5t95 -219.5q0 -107 -58.5 -202t-184.5 -193q180 -180 370 -328v-2q86 123 97 269q-63 6 -115 18v170h528v-170q-69 -15 -147 -22q-30 -228 -166 -406 q162 -119 213 -154q81 -11 125 -22v-168h-311q-155 112 -211 158q-228 -181 -533 -181q-116 0 -206.5 32.5t-146 89t-84 128.5t-28.5 156zM369 416q0 -89 64.5 -152t172.5 -63q160 0 295 100q-227 185 -391 352q-141 -121 -141 -237zM440 1188q0 -89 117 -225q69 60 104 114 t35 115q0 54 -32 88.5t-95 34.5q-57 0 -93 -35.5t-36 -91.5z" />
<glyph unicode="'" horiz-adv-x="442" d="M90 1438h262l-33 -520h-196z" />
<glyph unicode="(" horiz-adv-x="626" d="M106 584q0 549 306 1028l190 -88q-237 -422 -237 -930q0 -521 243 -942l-198 -92q-163 257 -233.5 509t-70.5 515z" />
<glyph unicode=")" horiz-adv-x="626" d="M27 1522l198 90q161 -257 230 -508.5t69 -513.5q0 -553 -305 -1030l-190 88q239 420 239 932q0 513 -241 942z" />
<glyph unicode="*" horiz-adv-x="786" d="M63 1087l207 82l-207 82l93 162l174 -139l-33 221h186l-32 -221l174 139l92 -160l-207 -82l207 -84l-92 -159l-174 139l32 -221h-186l33 221l-176 -139z" />
<glyph unicode="+" d="M80 500v219h358v379h250v-379h359v-219h-359v-381h-250v381h-358z" />
<glyph unicode="," horiz-adv-x="528" d="M55 -258q69 74 98.5 131.5t24.5 100t-39 83.5q-28 33 -32.5 76.5t11.5 81.5t54.5 64t89.5 26q87 0 134 -76q57 -94 15 -235q-53 -178 -247 -348z" />
<glyph unicode="-" horiz-adv-x="684" d="M90 463v211h504v-211h-504z" />
<glyph unicode="." horiz-adv-x="528" d="M96 145q0 68 49.5 117t118.5 49t118.5 -49t49.5 -117q0 -69 -49.5 -118.5t-118.5 -49.5t-118.5 49.5t-49.5 118.5z" />
<glyph unicode="/" horiz-adv-x="948" d="M-23 -330l717 1880h258l-716 -1880h-259z" />
<glyph unicode="0" horiz-adv-x="1253" d="M86 522q0 172 77 303t203 198t279 67q112 0 201.5 -29t149 -78.5t99 -119.5t57 -148.5t17.5 -169.5q0 -132 -46 -241t-123.5 -180t-178.5 -110t-213 -39q-111 0 -203 30.5t-165 93.5t-113.5 171t-40.5 252zM346 535q0 -153 69.5 -243.5t207.5 -90.5q122 0 203 89t81 245 q0 150 -70.5 239.5t-205.5 89.5q-121 0 -203 -88t-82 -241z" />
<glyph unicode="1" horiz-adv-x="772" d="M31 950l315 119h203v-876q59 -4 172 -25v-168h-655v168q124 20 215 25v636l-209 -88z" />
<glyph unicode="2" horiz-adv-x="985" d="M82 0v213l211 170q149 107 212.5 187.5t63.5 152.5q0 71 -42 113.5t-121 42.5q-63 0 -117 -23q-4 -43 -21 -147h-166v317q166 64 344 64q196 0 304 -90t108 -240q0 -215 -258 -412l-149 -123l-2 -2q111 8 448 8v-231h-815z" />
<glyph unicode="3" horiz-adv-x="950" d="M72 -360l22 233q89 -29 195 -29q133 0 211 57t78 160q0 123 -115.5 169t-319.5 22v209q206 0 311 63t105 178q0 79 -44.5 124.5t-127.5 45.5q-50 0 -102 -18q-3 -27 -21 -145h-166v319q161 62 318 62q210 0 315 -96t105 -253q0 -109 -64.5 -196.5t-173.5 -132.5v-2 q127 -29 196.5 -115t69.5 -207q0 -207 -158 -339t-427 -132q-107 0 -207 23z" />
<glyph unicode="4" horiz-adv-x="1144" d="M27 213l530 852h334v-829h211v-236h-211v-186q77 -5 166 -27v-158h-606v158q95 22 178 27v186h-559zM279 231q110 5 356 5v575h-2z" />
<glyph unicode="5" horiz-adv-x="964" d="M90 -373l25 236q70 -17 157 -17q157 0 242.5 67t85.5 173q0 105 -87.5 167t-248.5 62q-74 0 -133 -6v756h698v-256l-450 2v-281q240 0 375 -110.5t135 -296.5q0 -146 -83 -262.5t-226.5 -181t-319.5 -64.5q-94 0 -170 12z" />
<glyph unicode="6" horiz-adv-x="1189" d="M106 561q0 207 54 373t153 276.5t238 169t309 58.5q51 0 117 -4v-232q-72 10 -135 10q-176 0 -287.5 -93.5t-155.5 -262.5l-16 -65l2 -3q45 58 123.5 90.5t175.5 32.5q198 0 313 -118.5t115 -319.5q0 -218 -146 -357t-378 -139q-225 0 -353.5 152t-128.5 432zM399 463 q0 -114 55.5 -188t159.5 -74q103 0 163.5 68t60.5 175q0 114 -58 178t-157 64q-105 0 -164.5 -65.5t-59.5 -157.5z" />
<glyph unicode="7" horiz-adv-x="962" d="M45 666v399h868v-221q-251 -588 -389 -1215h-293q137 585 396 1207q-51 -2 -353 -2q-12 -112 -24 -168h-205z" />
<glyph unicode="8" horiz-adv-x="1140" d="M90 346q0 66 21.5 124t61 103.5t77.5 76.5t90 65l-2 2q-232 136 -232 346q0 173 132.5 280t341.5 107q204 0 325 -94t121 -250q0 -107 -59 -189.5t-181 -162.5q56 -33 98 -65.5t82.5 -78t62.5 -103t22 -124.5q0 -128 -69.5 -222t-182.5 -140t-252 -46q-213 0 -335 102 t-122 269zM367 375q0 -80 54.5 -130t147.5 -50q89 0 146 47t57 123t-55.5 131t-167.5 112h-2q-180 -111 -180 -233zM381 1075q0 -63 48.5 -112t150.5 -105l2 -2q93 62 133.5 112t40.5 113q0 66 -49.5 111t-137.5 45t-138 -45.5t-50 -116.5z" />
<glyph unicode="9" horiz-adv-x="1189" d="M78 586q0 220 143 362t369 142q227 0 361 -149t134 -449q0 -413 -195.5 -644t-565.5 -231q-76 0 -146 12v240q74 -23 162 -23q347 0 438 342q11 42 17 80l-2 2q-43 -54 -122.5 -86t-174.5 -32q-192 0 -305 119t-113 315zM352 625q0 -116 55 -179t160 -63q101 0 161 64.5 t60 160.5q0 114 -56.5 185t-160.5 71q-98 0 -158.5 -68t-60.5 -171z" />
<glyph unicode=":" horiz-adv-x="610" d="M162 145q0 68 49.5 117t118.5 49t117.5 -49t48.5 -117q0 -69 -48.5 -118.5t-117.5 -49.5t-118.5 49.5t-49.5 118.5zM162 725q0 68 49.5 117t118.5 49t117.5 -49t48.5 -117q0 -69 -48.5 -118.5t-117.5 -49.5t-118.5 49.5t-49.5 118.5z" />
<glyph unicode=";" horiz-adv-x="610" d="M123 -258q68 74 97 131.5t24.5 100t-37.5 83.5q-28 33 -32.5 76.5t11 81.5t53.5 64t89 26q89 0 136 -77q57 -94 14 -235q-53 -177 -247 -347zM162 725q0 68 49.5 117t118.5 49t117.5 -49t48.5 -117q0 -69 -48.5 -118.5t-117.5 -49.5t-118.5 49.5t-49.5 118.5z" />
<glyph unicode="&#x3c;" d="M129 616l651 603l172 -172l-485 -429l487 -428l-172 -178z" />
<glyph unicode="=" d="M109 307v211h909v-211h-909zM109 698v211h909v-211h-909z" />
<glyph unicode="&#x3e;" d="M172 1040l172 179l653 -605l-651 -602l-172 172l485 428z" />
<glyph unicode="?" horiz-adv-x="923" d="M137 1231l33 237q164 -4 292 -39.5t206.5 -94t118.5 -131t40 -154.5q0 -61 -17 -113.5t-44.5 -88.5t-61.5 -72t-67.5 -64t-62.5 -63t-47.5 -70t-21.5 -85t15 -108h-256q-27 85 -26 146t23.5 113t56.5 89t73 73.5t72.5 66.5t55.5 69t22 80q0 92 -107.5 147.5t-296.5 61.5z M236 133q0 65 46 110.5t113 45.5t113.5 -45.5t46.5 -110.5q0 -66 -46 -111t-114 -45q-67 0 -113 45t-46 111z" />
<glyph unicode="@" horiz-adv-x="1986" d="M164 573q0 200 71 374.5t192.5 297t288.5 192.5t355 70q143 0 263 -33.5t206 -94t146 -143.5t89 -181.5t29 -208.5q0 -277 -136.5 -428.5t-356.5 -151.5q-109 0 -163.5 55t-51.5 142h-6q-37 -76 -116.5 -136.5t-172.5 -60.5q-98 0 -152.5 74.5t-54.5 218.5 q0 116 29.5 214t86.5 173t150 117.5t213 42.5q145 0 250 -41l-72 -406q-18 -101 4 -144.5t86 -43.5q102 0 165 90.5t63 272.5q0 93 -28 173.5t-86.5 147t-160.5 105t-237 38.5q-136 0 -256.5 -51t-208.5 -141t-139.5 -221.5t-51.5 -284.5q0 -264 145.5 -408.5t436.5 -144.5 q181 0 358 59l39 -204q-99 -33 -215.5 -51.5t-214.5 -18.5q-378 0 -582 198.5t-204 542.5zM797 602q0 -133 65 -133q62 0 124 92t97 268l19 91q-40 12 -90 12q-67 0 -118 -55.5t-74 -129t-23 -145.5z" />
<glyph unicode="A" horiz-adv-x="1427" d="M16 0v166q56 17 109 20l414 1196h344l420 -1196q52 -3 108 -20v-166h-545v166q98 18 142 22l-60 177h-497l-60 -177q51 -4 146 -22v-166h-521zM514 571h373l-123 355q-52 166 -64 217h-2q-31 -129 -61 -219z" />
<glyph unicode="B" horiz-adv-x="1267" d="M47 0v166q95 22 178 27v997q-83 5 -178 27v165h172q47 0 205.5 5t249.5 4q224 0 343.5 -88t119.5 -254q0 -105 -51.5 -188t-147.5 -122v-4q117 -25 183.5 -112.5t66.5 -196.5q0 -63 -17 -122t-58.5 -116t-103 -99t-158.5 -67.5t-218 -25.5q-22 0 -156.5 2t-251.5 2h-178z M492 221q62 -8 149 -8q127 0 193.5 56t66.5 151q0 97 -78 143.5t-215 46.5q-87 0 -116 -2v-387zM492 811q33 -2 106 -2q258 0 258 197q0 170 -225 170q-21 0 -139 -5v-360z" />
<glyph unicode="C" horiz-adv-x="1181" d="M76 649q0 166 44.5 303t129.5 237t216.5 155t297.5 55q161 0 323 -39v-395h-202q-19 97 -27 172q-63 16 -139 16q-163 0 -256.5 -125t-93.5 -336q0 -469 409 -469q161 0 291 60l37 -234q-190 -69 -389 -69q-316 0 -478.5 176.5t-162.5 492.5z" />
<glyph unicode="D" horiz-adv-x="1447" d="M47 0v166q95 22 178 27v997q-83 5 -178 27v165h172q47 0 203 4.5t250 4.5q698 0 698 -676q0 -174 -55 -312t-156 -227.5t-240 -136.5t-309 -47q-81 0 -221.5 4t-163.5 4h-178zM492 229q62 -10 143 -10q207 0 328.5 119t121.5 356q0 232 -102 352.5t-330 120.5 q-97 0 -161 -6v-932z" />
<glyph unicode="E" horiz-adv-x="1099" d="M47 0v166q95 22 178 27v997q-83 5 -178 27v165h942v-348h-198q-2 14 -11.5 65t-11.5 75h-276v-369h223q8 51 22 113h172v-416h-172q-9 31 -22 112h-223v-399h278q6 45 25 147h200v-362h-948z" />
<glyph unicode="F" horiz-adv-x="1050" d="M47 0v166q95 22 178 27v997q-83 5 -178 27v165h940v-354h-199q-16 96 -20 141h-276v-381h231q6 56 22 113h170v-428h-170q-17 58 -22 113h-231v-393q83 -5 178 -27v-166h-623z" />
<glyph unicode="G" horiz-adv-x="1404" d="M74 659q0 164 52.5 301.5t149.5 235.5t241 152.5t321 54.5q191 0 387 -51v-371h-205q-14 69 -25 166q-79 20 -174 20q-209 0 -335 -126.5t-126 -356.5q0 -220 116.5 -342.5t326.5 -122.5q93 0 176 25v288q-85 6 -176 27v166h557v-170q-37 -8 -115 -20v-469 q-214 -86 -477 -86q-326 0 -510 181t-184 498z" />
<glyph unicode="H" horiz-adv-x="1568" d="M47 0v166q95 22 178 27v997q-83 5 -178 27v165h594v-168q-68 -17 -149 -24v-361h585v361q-85 7 -149 24v168h594v-165q-95 -21 -179 -27v-997q84 -6 179 -27v-166h-594v168q69 18 149 25v407h-585v-407q75 -6 149 -25v-168h-594z" />
<glyph unicode="I" horiz-adv-x="714" d="M47 0v166q95 22 178 27v997q-83 5 -178 27v165h623v-165q-95 -22 -178 -27v-997q83 -5 178 -27v-166h-623z" />
<glyph unicode="J" horiz-adv-x="737" d="M18 -2v229q55 -20 127 -20q77 0 114.5 41.5t37.5 148.5v793q-83 5 -178 27v165h573v-168q-62 -15 -129 -24v-803q0 -89 -19.5 -159.5t-61.5 -127.5t-116.5 -87.5t-177.5 -30.5q-76 0 -170 16z" />
<glyph unicode="K" horiz-adv-x="1425" d="M47 0v166q95 22 178 27v997q-83 5 -178 27v165h580v-168q-61 -17 -135 -24v-459l409 465q-62 4 -106 18v168h561v-168q-72 -14 -127 -20l-438 -475l466 -531q56 -6 129 -20v-168h-583v168q49 11 102 18l-413 496v-489q68 -6 135 -25v-168h-580z" />
<glyph unicode="L" horiz-adv-x="1030" d="M47 0v166q95 22 178 27v997q-83 5 -178 27v165h623v-165q-95 -22 -178 -27v-971h280q5 71 35 193h192v-412h-952z" />
<glyph unicode="M" horiz-adv-x="1951" d="M31 0v166q67 17 114 20l152 1004q-71 5 -170 27v165h541l233 -692q47 -144 78 -297h4q32 163 76 291l231 698h539v-165q-97 -22 -174 -27l155 -1004q46 -3 113 -20v-166h-530v166q90 17 145 22l-78 566q-26 192 -35 342h-4q-32 -181 -63 -279l-266 -817h-248l-258 791 q-45 144 -74 305h-4q-5 -134 -29 -348l-69 -560q45 -4 139 -22v-166h-518z" />
<glyph unicode="N" horiz-adv-x="1570" d="M47 0v166q95 22 178 27v997q-83 5 -178 27v165h539l415 -723q82 -152 154 -323q-18 251 -18 854q-76 6 -140 24v168h527v-168q-81 -20 -129 -24v-1190h-361l-418 725q-94 171 -153 332q20 -261 20 -864q75 -6 148 -25v-168h-584z" />
<glyph unicode="O" horiz-adv-x="1439" d="M68 670q0 168 53.5 308t145 232.5t214.5 143.5t262 51q308 0 468.5 -183.5t160.5 -508.5q0 -168 -53.5 -308t-145.5 -233t-215 -144t-262 -51q-307 0 -467.5 184t-160.5 509zM350 702q0 -227 93.5 -356t275.5 -129q165 0 268 122.5t103 342.5q0 226 -93.5 354.5 t-275.5 128.5q-165 0 -268 -122.5t-103 -340.5z" />
<glyph unicode="P" horiz-adv-x="1202" d="M47 0v166q95 22 178 27v997q-83 5 -178 27v165h178q19 0 163 4.5t230 4.5q270 0 407.5 -120t137.5 -325q0 -106 -38 -197.5t-109 -158.5t-178.5 -105.5t-239.5 -38.5q-23 0 -62.5 3.5t-43.5 3.5v-260q83 -5 178 -27v-166h-623zM492 678q45 -10 120 -10q131 0 203 68.5 t72 181.5q0 54 -15 98t-46.5 80.5t-88.5 57t-135 20.5q-71 0 -110 -5v-491z" />
<glyph unicode="Q" horiz-adv-x="1439" d="M68 670q0 168 53.5 308t145 232.5t214.5 143.5t262 51q308 0 468.5 -183.5t160.5 -508.5q0 -206 -77.5 -360t-211.5 -222q41 -1 102 -17t108 -24q23 -5 58 -5q37 0 87 5v-225q-79 -10 -136 -10q-25 0 -46 2q-68 6 -133 25.5t-111 40.5t-114 37.5t-142 16.5h-60 q-307 0 -467.5 184t-160.5 509zM350 702q0 -227 93.5 -356t275.5 -129q165 0 268 122.5t103 342.5q0 226 -93.5 354.5t-275.5 128.5q-165 0 -268 -122.5t-103 -340.5z" />
<glyph unicode="R" horiz-adv-x="1284" d="M47 0v166q95 22 178 27v997q-83 5 -178 27v165h160q13 0 177 4.5t257 4.5q248 0 380 -93.5t132 -300.5q0 -138 -82.5 -233t-224.5 -131q33 -43 69 -103l199 -337q83 -13 131 -23v-170h-346l-315 573h-92v-380q59 -6 124 -25v-168h-569zM492 770h126q121 0 187.5 55 t66.5 154q0 103 -63 153t-197 50q-80 0 -120 -6v-406z" />
<glyph unicode="S" horiz-adv-x="1036" d="M80 989q0 188 138 302t380 114q142 0 291 -31v-354h-203q-15 79 -22 162q-36 8 -84 8q-104 0 -161 -46.5t-57 -121.5q0 -41 20.5 -73.5t55.5 -55t80 -42.5t94.5 -39.5t99.5 -41.5t95 -52.5t80 -68.5t55.5 -95t20.5 -126q0 -198 -147 -324.5t-392 -126.5q-172 0 -315 35 v369h202q18 -105 23 -166q54 -14 117 -14q104 0 165.5 46t61.5 140q0 54 -33 92.5t-85.5 63t-116.5 47.5t-128 53t-116.5 71t-85.5 111t-33 164z" />
<glyph unicode="T" horiz-adv-x="1202" d="M35 993v389h1132v-389h-196q-23 145 -25 170h-213v-970q83 -5 178 -27v-166h-622v166q95 22 178 27v970h-211q-2 -25 -25 -170h-196z" />
<glyph unicode="U" horiz-adv-x="1456" d="M47 1214v168h543v-168q-67 -17 -148 -24v-694q0 -72 12.5 -124.5t43.5 -95t88 -64.5t141 -22q156 0 224.5 75.5t68.5 254.5v670q-84 7 -148 24v168h537v-168q-57 -15 -127 -24v-660q0 -273 -146 -413t-425 -140q-106 0 -191 18.5t-142.5 53.5t-98 79.5t-63 103t-32.5 118 t-10 129.5v711q-73 10 -127 24z" />
<glyph unicode="V" horiz-adv-x="1386" d="M16 1214v168h543v-165q-113 -20 -147 -23l204 -621q60 -186 82 -272h2q25 111 84 289l207 604q-36 3 -143 23v165h522v-168q-59 -15 -106 -18l-418 -1196h-309l-414 1196q-48 3 -107 18z" />
<glyph unicode="W" horiz-adv-x="1996" d="M16 1214v168h529v-165q-115 -20 -146 -23l140 -614q31 -144 47 -295h2q30 178 61 286l223 811h263l241 -821q43 -151 62 -276h2q18 177 35 274l129 635q-20 2 -140 23v165h514v-168q-59 -15 -106 -18l-260 -1196h-348l-217 743q-38 130 -60 285h-2q-16 -157 -49 -285 l-201 -743h-348l-262 1196q-50 3 -109 18z" />
<glyph unicode="X" horiz-adv-x="1441" d="M20 0v168q79 15 130 18l397 516l-379 494q-47 2 -127 18v168h596v-168q-54 -15 -117 -18l221 -319l226 319q-60 3 -115 18v168h547v-168q-73 -14 -129 -20l-373 -489l399 -519q51 -3 125 -18v-168h-600v168q54 15 113 18l-236 346l-239 -346q59 -4 112 -18v-168h-551z " />
<glyph unicode="Y" horiz-adv-x="1251" d="M16 1214v168h527v-168q-52 -13 -121 -20l125 -272q42 -92 88 -207h2q45 123 88 213l125 266q-75 7 -123 20v168h510v-168q-64 -15 -109 -18l-372 -725v-278q83 -5 178 -27v-166h-623v166q95 22 178 27v278l-366 725q-50 3 -107 18z" />
<glyph unicode="Z" horiz-adv-x="1112" d="M84 0v205l539 827q51 83 88 131q-98 -4 -203 -4h-186q-6 -65 -25 -153h-201v376h930v-215l-569 -845q-38 -63 -64 -97q33 4 225 4h193q12 90 29 164h194v-393h-950z" />
<glyph unicode="[" horiz-adv-x="671" d="M145 -420v2011h453v-207h-207v-1593h207v-211h-453z" />
<glyph unicode="\" horiz-adv-x="980" d="M14 1550h258l717 -1880h-258z" />
<glyph unicode="]" horiz-adv-x="671" d="M74 -209h205v1593h-205v207h450v-2011h-450v211z" />
<glyph unicode="^" d="M113 782l336 600h200l350 -598l-188 -94l-268 506l-256 -506z" />
<glyph unicode="_" d="M0 -293h1126v-211h-1126v211z" />
<glyph unicode="`" horiz-adv-x="765" d="M170 1368l121 176l348 -256l-98 -141z" />
<glyph unicode="a" horiz-adv-x="1110" d="M68 256q0 119 75.5 201t205 120.5t306.5 40.5v60q0 86 -40.5 128t-139.5 42q-72 0 -149 -25q-7 -72 -21 -133h-164v297q170 53 353 53q123 0 207 -23.5t131.5 -71t67.5 -109.5t20 -150v-485q97 -16 165 -21v-166q-147 -18 -308 -18q-49 0 -99 2q0 121 8 174l-2 2 q-37 -87 -125 -140.5t-201 -53.5q-135 0 -212.5 75.5t-77.5 200.5zM317 295q0 -52 33.5 -84.5t89.5 -32.5q93 0 154 74t61 172v27q-173 0 -255.5 -38.5t-82.5 -117.5z" />
<glyph unicode="b" horiz-adv-x="1146" d="M-27 1315v164q158 19 342 19q46 0 93 -1v-440q0 -109 -17 -199h2q39 84 120 132t187 48q182 0 278.5 -125t96.5 -352q0 -263 -146.5 -422t-404.5 -159q-205 0 -379 49v1265q-98 16 -172 21zM408 207q59 -19 135 -19q120 0 188 83.5t68 263.5q0 286 -174 286 q-99 0 -158 -96.5t-59 -230.5v-287z" />
<glyph unicode="c" horiz-adv-x="915" d="M70 477q0 96 19.5 179t61.5 153.5t104 120.5t150.5 78t196.5 28q139 0 242 -32v-328h-168q-19 110 -21 133q-31 10 -90 10q-103 0 -163 -83t-60 -224q0 -149 63.5 -227t210.5 -78q112 0 213 43l33 -219q-139 -49 -305 -49q-231 0 -359 121t-128 374z" />
<glyph unicode="d" horiz-adv-x="1193" d="M72 455q0 262 144 421.5t394 159.5q69 0 129 -8v266q-94 15 -178 21v164q158 19 343 19q46 0 95 -1v-1296q92 -15 168 -21v-164q-144 -20 -314 -20q-48 0 -97 2q0 90 12 172h-4q-41 -88 -125 -140.5t-197 -52.5q-182 0 -276 127t-94 351zM346 483q0 -288 174 -288 q99 0 159 98t60 235v285q-75 16 -137 16q-120 0 -188 -83t-68 -263z" />
<glyph unicode="e" horiz-adv-x="1052" d="M70 500q0 153 56.5 274.5t167.5 192.5t259 71q212 0 317 -119.5t105 -312.5q0 -87 -10 -143h-629v-8q0 -137 66 -203q68 -68 214.5 -68t294.5 60l29 -199q-176 -65 -369 -65q-501 0 -501 520zM340 637h375v12q-1 91 -45 142q-48 55 -131 55q-81 0 -134.5 -56.5 t-64.5 -152.5z" />
<glyph unicode="f" horiz-adv-x="768" d="M29 815v203h204v84q0 206 102.5 307.5t311.5 101.5q93 0 174 -16l-18 -215q-63 18 -135 18q-87 0 -129.5 -47t-42.5 -147v-86h241v-203h-241v-622q83 -5 178 -27v-166h-619v166q95 22 178 27v622h-204z" />
<glyph unicode="g" horiz-adv-x="1116" d="M70 -211q0 77 45.5 146t111.5 104q-46 22 -73 63t-27 93q0 59 34 108.5t87 73.5q-72 39 -112 109.5t-40 168.5q0 78 29 147t83.5 122.5t141.5 84.5t195 31q80 0 166 -22h346v-205h-139q51 -48 51 -129q0 -168 -112.5 -267.5t-324.5 -99.5q-36 0 -79 9q-24 -10 -37 -28 t-13 -38q0 -35 33.5 -47.5t124.5 -15.5l158 -7q346 -13 346 -299q0 -169 -156 -287t-403 -118q-206 0 -321 78t-115 225zM328 -162q0 -70 59 -110.5t158 -40.5q123 0 191.5 47.5t68.5 122.5q0 58 -39.5 93t-120.5 38l-176 6h-47q-94 -69 -94 -156zM346 672q0 -83 49 -129.5 t140 -46.5q86 0 135 46t49 128q0 83 -47.5 131.5t-136.5 48.5q-87 0 -138 -50t-51 -128z" />
<glyph unicode="h" horiz-adv-x="1267" d="M20 1315v164q155 19 339 19q46 0 94 -1v-440q0 -121 -17 -207h2q46 87 132.5 137.5t203.5 50.5q83 0 143.5 -25t94.5 -70.5t49.5 -101.5t15.5 -126v-522q78 -6 164 -27v-166h-426v651q0 83 -28 125.5t-97 42.5q-99 0 -168 -97t-69 -233v-296q78 -6 149 -25v-168h-575v166 q88 22 166 27v1101q-93 15 -173 21z" />
<glyph unicode="i" horiz-adv-x="684" d="M51 0v166q95 22 178 27v624q-94 15 -178 21v163q166 20 351 20q44 0 90 -1v-827q77 -5 165 -27v-166h-606zM199 1327q0 66 47.5 113t113.5 47q68 0 116 -46.5t48 -113.5q0 -65 -48.5 -111.5t-115.5 -46.5q-66 0 -113.5 46t-47.5 112z" />
<glyph unicode="j" horiz-adv-x="595" d="M-88 -489l16 223q61 -23 117 -23q82 0 115 42t33 145v919q-99 16 -166 21v163q158 20 340 20q43 0 88 -1v-1096q0 -214 -94.5 -323t-309.5 -109q-65 0 -139 19zM160 1327q0 66 48 113t116 47t114.5 -46.5t46.5 -113.5q0 -65 -47 -111.5t-114 -46.5q-68 0 -116 46t-48 112 z" />
<glyph unicode="k" horiz-adv-x="1208" d="M20 1315v164q155 19 339 19q46 0 94 -1v-940l233 274q-67 7 -94 19v168h549v-168q-71 -17 -137 -23l-256 -278l274 -356q57 -5 145 -23v-170h-340l-374 516v-323q74 -6 129 -25v-168h-555v166q88 22 166 27v1101q-93 15 -173 21z" />
<glyph unicode="l" horiz-adv-x="645" d="M20 1315v164q157 19 340 19q46 0 93 -1v-1304q76 -5 165 -27v-166h-591v166q88 22 166 27v1101q-93 15 -173 21z" />
<glyph unicode="m" horiz-adv-x="1923" d="M51 0v166q95 22 178 27v624q-94 15 -178 21v163q168 20 342 20q42 0 84 -1q0 -99 -12 -184l2 -2q46 95 134.5 149.5t201.5 54.5q65 0 116 -17.5t83 -47.5t51.5 -63.5t29.5 -73.5q40 83 126.5 142.5t205.5 59.5q305 0 305 -338v-507q77 -5 166 -27v-166h-428v643 q0 88 -26.5 132t-94.5 44q-91 0 -162 -94.5t-71 -237.5v-294q78 -6 149 -25v-168h-407v645q0 84 -25.5 129t-95.5 45q-93 0 -163 -96t-70 -236v-294q80 -7 149 -25v-168h-590z" />
<glyph unicode="n" horiz-adv-x="1304" d="M51 0v166q95 22 178 27v624q-94 15 -178 21v163q168 20 342 20q42 0 84 -1q0 -107 -14 -184h2q48 93 137 147.5t209 54.5q83 0 143.5 -25t94.5 -70.5t49.5 -101.5t15.5 -126v-522q82 -6 166 -27v-166h-426v651q0 83 -28 125.5t-97 42.5q-99 0 -168 -96.5t-69 -230.5v-299 q80 -7 149 -25v-168h-590z" />
<glyph unicode="o" horiz-adv-x="1134" d="M70 487q0 242 144.5 396.5t375.5 154.5q224 0 349.5 -126.5t125.5 -381.5q0 -242 -145 -396t-375 -154q-226 0 -350.5 123.5t-124.5 383.5zM340 512q0 -309 227 -309q101 0 164.5 79.5t63.5 225.5q0 309 -224 309q-98 0 -164.5 -76.5t-66.5 -228.5z" />
<glyph unicode="p" horiz-adv-x="1196" d="M29 -328q115 22 166 25v1120q-100 16 -166 21v163q160 20 328 20q40 0 81 -1q0 -92 -12 -172h4q44 91 125.5 140.5t196.5 49.5q179 0 274.5 -124t95.5 -351q0 -270 -138 -423.5t-398 -153.5q-74 0 -131 8v-297q70 -5 178 -25v-166h-604v166zM455 207q65 -19 137 -19 q120 0 188 83.5t68 263.5q0 288 -174 288q-99 0 -159 -98.5t-60 -235.5v-282z" />
<glyph unicode="q" horiz-adv-x="1144" d="M74 455q0 264 146 422.5t409 158.5q187 0 372 -30v-1309q73 -5 164 -25v-166h-602v166q108 20 178 25v270q0 115 15 197l-4 2q-40 -88 -120 -138.5t-181 -50.5q-184 0 -280.5 122t-96.5 356zM348 483q0 -288 172 -288q99 0 160 99t61 238v283q-75 14 -137 14 q-120 0 -188 -83t-68 -263z" />
<glyph unicode="r" horiz-adv-x="839" d="M51 0v166q95 22 178 27v624q-94 15 -178 21v163q168 20 342 20q42 0 84 -1q0 -99 -18 -207h4q86 227 307 226q18 0 37 -1l-12 -256q-38 7 -71 7q-102 -1 -158 -69q-74 -90 -74 -304v-223q83 -5 178 -27v-166h-619z" />
<glyph unicode="s" horiz-adv-x="899" d="M72 713q0 144 114 234.5t324 90.5q126 0 264 -30v-293h-166q-13 52 -20 131q-48 10 -92 10q-81 0 -121.5 -30t-40.5 -83q0 -36 27 -62.5t70.5 -43t95.5 -32.5t104.5 -37t96 -49.5t70.5 -77t27 -113.5q0 -152 -125.5 -250t-332.5 -98q-138 0 -269 28v305h166 q14 -59 21 -133q39 -10 102 -10q79 0 127.5 32.5t48.5 88.5q0 36 -27 61.5t-70.5 41.5t-95.5 31t-104.5 36.5t-96 51t-70.5 80.5t-27 120z" />
<glyph unicode="t" horiz-adv-x="768" d="M12 815v203h176v313l261 70v-383h247v-203h-247v-446q0 -97 26 -132.5t94 -35.5t117 14l19 -207q-115 -28 -222 -28q-168 0 -231.5 69.5t-63.5 249.5v516h-176z" />
<glyph unicode="u" horiz-adv-x="1267" d="M27 838v166q148 17 327 17q49 0 99 -1v-653q0 -83 28 -125.5t97 -42.5q99 0 168 96.5t69 230.5v293q-120 17 -149 19v168q155 15 313 15q48 0 96 -1v-819q96 -16 166 -21v-166q-147 -18 -310 -18q-49 0 -100 2q0 91 13 184h-4q-46 -93 -134.5 -147.5t-209.5 -54.5 q-84 0 -145 25t-95 70.5t-50 101.5t-16 126v514q-99 16 -163 21z" />
<glyph unicode="v" horiz-adv-x="1157" d="M16 850v168h496v-168q-42 -11 -109 -19l111 -323q46 -136 70 -242h4q29 130 63 238l113 327q-67 8 -109 19v168h488v-168q-51 -14 -111 -21l-289 -829h-331l-285 829q-60 7 -111 21z" />
<glyph unicode="w" horiz-adv-x="1736" d="M16 850v168h488v-168q-40 -12 -103 -19l80 -292q7 -27 30 -110t32 -126h2q20 112 71 270l140 445h241l140 -445q47 -154 73 -270h4q19 90 56 219l90 309q-68 8 -103 19v168h463v-168q-53 -15 -110 -21l-254 -829h-291l-147 451q-41 149 -60 229h-2q-15 -77 -68 -256 l-129 -424h-286l-246 829q-59 6 -111 21z" />
<glyph unicode="x" horiz-adv-x="1110" d="M20 0v170q109 21 154 25l211 319l-197 309q-47 4 -155 25v170h354l176 -330l178 330h334v-170q-109 -21 -155 -25l-187 -307l201 -321q48 -4 156 -25v-170h-369l-178 338l-178 -338h-345z" />
<glyph unicode="y" horiz-adv-x="1159" d="M16 850v168h490v-168q-40 -12 -103 -19l103 -290q37 -106 80 -273h4q27 125 86 301l90 262q-65 7 -102 19v168h479v-168q-53 -15 -111 -21l-323 -935q-78 -228 -182.5 -317t-282.5 -89q-80 0 -158 16l16 226q73 -23 144 -23q69 0 117 43t88 152l34 98h-75l-283 829 q-63 6 -111 21z" />
<glyph unicode="z" horiz-adv-x="937" d="M78 0v193l473 632q-78 -4 -182 -4h-93l-20 -125h-172v322h760v-193l-465 -618q43 2 182 2h105q7 70 20 129h170v-338h-778z" />
<glyph unicode="{" horiz-adv-x="741" d="M55 543v196q110 6 157.5 52.5t47.5 169.5v178q0 230 87.5 341t285.5 111h43v-207q-101 0 -136.5 -47.5t-35.5 -193.5v-176q0 -156 -49 -232t-140 -92v-4q189 -27 189 -330v-274q0 -101 16 -152.5t51.5 -71.5t104.5 -20v-211h-43q-198 0 -285.5 109t-87.5 348v276 q0 123 -49 173.5t-156 56.5z" />
<glyph unicode="|" horiz-adv-x="589" d="M186 -494v2048h209v-2048h-209z" />
<glyph unicode="}" horiz-adv-x="737" d="M72 -209q102 0 138 48.5t36 195.5v274q0 304 188 330v4q-188 26 -188 318v182q0 145 -36 193t-138 48v207h45q198 0 284 -111t86 -341v-172q0 -128 47 -175t158 -53v-196q-106 -6 -155.5 -56.5t-49.5 -173.5v-276q0 -240 -86.5 -348.5t-283.5 -108.5h-45v211z" />
<glyph unicode="~" d="M86 881v37q0 148 83.5 237.5t225.5 89.5q55 0 99 -16t71 -40t52 -51.5t42.5 -51.5t41.5 -40t51 -16q93 0 96 166h194v-37q0 -149 -83.5 -238.5t-225.5 -89.5q-65 0 -114.5 22t-78.5 53.5t-53 62.5t-51 53t-59 22q-93 0 -96 -163h-195z" />
<glyph unicode="&#xa1;" horiz-adv-x="657" d="M154 885q0 66 45.5 110.5t113.5 44.5t114 -44.5t46 -110.5q0 -65 -46.5 -110.5t-113.5 -45.5t-113 45.5t-46 110.5zM158 -432l39 1065h225l43 -1065h-307z" />
<glyph unicode="&#xa2;" horiz-adv-x="1150" d="M129 686q0 103 28.5 194t85 167.5t150.5 128t217 67.5v158h174v-152q134 -4 256 -47v-336h-159q-18 91 -23 146q-88 18 -149 18q-143 0 -226.5 -81.5t-83.5 -223.5q0 -162 83 -247t251 -85q145 0 303 60l17 -224q-115 -46 -269 -61v-195h-174v193q-235 22 -358 152.5 t-123 367.5z" />
<glyph unicode="&#xa3;" horiz-adv-x="1034" d="M59 614v201h172q-20 165 -20 209q0 200 102.5 291.5t309.5 91.5q116 0 243 -29v-323h-168q-19 112 -22 133q-28 4 -49 4q-72 0 -112 -42t-40 -126q0 -24 2.5 -55t8 -78.5t8.5 -75.5h280v-201h-260q8 -82 8 -100q0 -100 -29.5 -165t-103.5 -132q105 6 133 6h199 q6 75 24 164h193v-387h-866v188q102 60 147 129.5t45 174.5q0 48 -12 122h-193z" />
<glyph unicode="&#xa4;" d="M88 242l139 174q-69 98 -69 252q0 148 80 252l-148 188l199 141l145 -198q65 26 148 26q75 0 131 -22l143 196l199 -145l-146 -182q60 -89 60 -236q0 -137 -76 -244l162 -202l-201 -146l-158 211q-74 -33 -151 -33q-61 0 -113 19l-141 -195zM387 678q0 -97 43.5 -155 t132.5 -58q74 0 125 56t51 163q0 203 -178 203q-73 0 -123.5 -55.5t-50.5 -153.5z" />
<glyph unicode="&#xa5;" horiz-adv-x="1263" d="M29 1214v168h516v-168q-46 -13 -123 -20l117 -240q68 -128 94 -188h4q24 53 106 203l115 225q-72 6 -125 20v168h502v-168q-59 -15 -107 -18l-286 -520h248v-146h-328v-118h328v-148h-328v-90q78 -5 178 -24v-150h-621v150q100 19 179 24v90h-330v148h330v118h-330v146 h248l-279 520q-50 3 -108 18z" />
<glyph unicode="&#xa6;" horiz-adv-x="589" d="M186 281h209v-775h-209v775zM186 801v753h209v-753h-209z" />
<glyph unicode="&#xa7;" horiz-adv-x="1085" d="M123 666q0 182 156 297q-76 95 -76 213q0 147 106 241t324 94q100 0 168 -16l-15 -217q-70 20 -145 20q-158 0 -158 -114q0 -36 25 -74t65 -75t88.5 -78t97.5 -89t89 -100t65 -120t25 -142q0 -87 -42.5 -164t-115.5 -133q76 -93 76 -213q0 -52 -15.5 -100t-51 -91.5 t-87.5 -76t-131 -51.5t-176 -19q-94 0 -170 20l17 220q86 -25 157 -25q87 0 131.5 34.5t44.5 90.5q0 37 -25 75.5t-65 74.5t-88 75t-96 85t-88 97t-65 118.5t-25 142.5zM360 700q0 -35 13.5 -70t30.5 -61.5t60.5 -69.5t73.5 -70t99 -87q63 48 63 129q0 32 -11 63.5t-27 56.5 t-45.5 57.5t-54 55t-67 61.5t-69.5 66q-66 -51 -66 -131z" />
<glyph unicode="&#xa8;" horiz-adv-x="1118" d="M193 1327q0 60 41 100.5t100 40.5t100 -40.5t41 -100.5q0 -59 -41.5 -100t-99.5 -41t-99.5 41t-41.5 100zM606 1327q0 60 41.5 100.5t100.5 40.5t100 -40.5t41 -100.5q0 -59 -41.5 -100t-99.5 -41q-59 0 -100.5 41.5t-41.5 99.5z" />
<glyph unicode="&#xa9;" horiz-adv-x="1560" d="M78 682q0 189 91.5 350t253 255.5t355.5 94.5q206 0 366.5 -90.5t247.5 -249.5t87 -358q0 -204 -93.5 -365t-253 -248t-354.5 -87q-320 0 -510 189t-190 509zM274 684q0 -227 139 -366.5t365 -139.5q214 0 358 143t144 361q0 221 -141 363.5t-361 142.5q-212 0 -358 -145 t-146 -359zM440 670q0 78 21 144t64 120.5t116.5 85.5t171.5 31q68 0 164 -21v-256h-129q-4 16 -7 34l-6.5 39t-5.5 32q-24 4 -45 4q-137 0 -137 -195q0 -101 40.5 -147.5t133.5 -46.5q85 0 146 26l24 -164q-86 -34 -207 -34q-178 0 -261 92.5t-83 255.5z" />
<glyph unicode="&#xaa;" horiz-adv-x="876" d="M78 844q0 128 113 195.5t305 70.5v33q0 46 -26.5 73t-98.5 27q-38 0 -92 -12q-2 -35 -15 -92h-135v223q135 41 262 41q176 0 248 -66t72 -192v-301q92 -15 131 -17v-147q-138 -18 -332 -14q0 59 10 108h-4q-24 -52 -86 -87.5t-135 -35.5q-106 0 -161.5 53t-55.5 140z M113 360v203h671v-203h-671zM281 874q0 -30 19.5 -47.5t55.5 -17.5q64 0 102 49t38 98v21q-215 0 -215 -103z" />
<glyph unicode="&#xab;" horiz-adv-x="1093" d="M86 598l225 403l203 -92l-176 -309l178 -305l-209 -94zM530 598l248 393l197 -94l-191 -297l193 -293l-203 -96z" />
<glyph unicode="&#xac;" d="M80 500v219h921v-524h-231v305h-690z" />
<glyph unicode="&#xad;" horiz-adv-x="684" d="M90 463v211h504v-211h-504z" />
<glyph unicode="&#xae;" horiz-adv-x="1155" d="M98 1085q0 198 139 336t341 138q208 0 343.5 -136t135.5 -338q0 -133 -65 -241.5t-174.5 -169t-239.5 -60.5q-201 0 -340.5 136.5t-139.5 334.5zM256 1096q0 -151 93.5 -241.5t228.5 -90.5q136 0 227.5 84.5t91.5 236.5q0 142 -88 233t-231 91q-148 0 -235 -90.5 t-87 -222.5zM387 860v74q26 10 47 14v281q-21 4 -47 14v74h51q17 0 72 1t80 1q86 0 132 -33t46 -98q0 -42 -22.5 -76t-59.5 -49q2 -4 25 -41l28 -74q30 -8 43 -14v-74h-139l-65 172h-31v-84q23 -4 41 -14v-74h-201zM547 1122q4 0 13 -1t13 -1q35 0 52.5 16t17.5 40 q0 47 -59 47h-37v-101z" />
<glyph unicode="&#xaf;" horiz-adv-x="808" d="M129 1229v188h551v-188h-551z" />
<glyph unicode="&#xb0;" horiz-adv-x="794" d="M86 1223q0 87 46 154.5t115.5 100.5t147.5 33q151 0 226 -79.5t75 -202.5q0 -134 -93.5 -212.5t-221.5 -78.5q-137 0 -216 76.5t-79 208.5zM281 1225q0 -56 30 -88.5t80 -32.5q51 0 81 34.5t30 90.5q0 47 -28 83t-81 36q-50 0 -81 -34t-31 -89z" />
<glyph unicode="&#xb1;" d="M80 709v217h358v372h250v-372h359v-217h-359v-375h-250v375h-358zM88 0v219h950v-219h-950z" />
<glyph unicode="&#xb2;" horiz-adv-x="792" d="M61 553v188l183 146q109 76 150.5 127.5t41.5 99.5q0 100 -108 100q-42 0 -80 -12q-2 -34 -19 -127h-157v281q135 51 303 51q164 0 245.5 -67.5t81.5 -184.5q0 -166 -174 -295l-129 -102q74 4 328 4v-209h-666z" />
<glyph unicode="&#xb3;" horiz-adv-x="751" d="M63 549l21 176q118 -25 201 -25q161 0 161 93q0 29 -13 47t-49.5 31.5t-102 12t-170.5 -11.5v162q125 0 196 13.5t98 38.5t27 67q0 37 -27.5 60.5t-80.5 23.5q-32 0 -72 -8q-7 -57 -19 -101h-155v246q154 33 280 33q160 0 241 -60t81 -161q0 -142 -131 -193 q73 -15 116.5 -66.5t43.5 -117.5q0 -128 -113.5 -204.5t-302.5 -76.5q-102 0 -230 21z" />
<glyph unicode="&#xb4;" horiz-adv-x="804" d="M182 1288l346 256l121 -176l-370 -221z" />
<glyph unicode="&#xb5;" horiz-adv-x="1255" d="M31 838v166q189 22 428 16v-662q0 -82 30.5 -120.5t94.5 -38.5q105 0 171 92t66 239v289q-117 16 -151 19v168q204 20 411 14v-653q0 -92 15.5 -127.5t56.5 -38.5q26 0 31 2l20 -205q-53 -16 -135 -16q-204 0 -211 196h-2q-38 -90 -112 -141t-179 -51q-90 0 -131 47 l31 -527h-268v1311q-94 15 -166 21z" />
<glyph unicode="&#xb6;" horiz-adv-x="1206" d="M111 930q0 204 135.5 328t353.5 124v-909q-99 -1 -181 23t-138.5 65.5t-95 100t-56.5 125.5t-18 143zM614 12h144v1370h356v-208h-133v-1371h-367v209z" />
<glyph unicode="&#xb7;" horiz-adv-x="550" d="M106 610q0 69 50 119.5t120 50.5q69 0 119.5 -50.5t50.5 -119.5q0 -70 -50.5 -120t-119.5 -50q-70 0 -120 50t-50 120z" />
<glyph unicode="&#xb8;" horiz-adv-x="819" d="M287 -479q51 62 71 111.5t8.5 103t-59.5 114.5l217 68q148 -202 -41 -397h-196z" />
<glyph unicode="&#xb9;" horiz-adv-x="688" d="M37 1303l237 86h215v-656q98 -12 160 -26v-154h-592v154q78 20 181 26v441l-162 -68z" />
<glyph unicode="&#xba;" horiz-adv-x="901" d="M82 1018q0 176 109 281.5t272 105.5q162 0 259 -88.5t97 -278.5q0 -175 -110 -282t-277 -107q-76 0 -138 20.5t-110.5 63t-75 115t-26.5 170.5zM119 360v203h663v-203h-663zM305 1030q0 -86 33.5 -143.5t105.5 -57.5q67 0 109.5 49t42.5 150q0 195 -145 195 q-59 0 -102.5 -48t-43.5 -145z" />
<glyph unicode="&#xbb;" horiz-adv-x="1093" d="M117 895l205 96l241 -387l-248 -393l-196 94l190 297zM578 907l210 94l220 -397l-226 -403l-202 92l176 309z" />
<glyph unicode="&#xbc;" horiz-adv-x="1556" d="M82 1313l188 73h197v-559q49 -5 129 -24v-117h-490v117q53 14 148 24v392l-133 -56zM147 -8l1153 1470l130 -98l-1156 -1470zM827 311l263 385h274v-377h123v-147h-123v-57l100 -23v-92h-420v92l109 25v55h-303zM1001 319h156v238z" />
<glyph unicode="&#xbd;" horiz-adv-x="1611" d="M82 1313l188 73h197v-559q49 -5 129 -24v-117h-490v117q53 14 148 24v392l-133 -56zM139 -8l1153 1470l129 -98l-1155 -1470zM936 0v166l170 131q94 62 129 97t35 79q0 39 -23.5 61.5t-64.5 22.5q-34 0 -64 -10q-18 -81 -24 -105h-138l9 228q122 45 270 45q140 0 209 -53 t69 -142q0 -80 -39.5 -137t-111.5 -109l-135 -106h297v-168h-588z" />
<glyph unicode="&#xbe;" horiz-adv-x="1556" d="M109 686q4 25 11.5 74.5t10.5 70.5q74 -22 145 -22q74 0 114 21t40 61q0 43 -47 57.5t-150 9.5q-19 0 -77 -4v138h43q123 0 170 27t47 73q0 35 -25 55.5t-74 20.5q-28 0 -49 -6q-8 -56 -18 -82h-123v196q127 29 227 29q273 0 273 -180q0 -114 -113 -166 q62 -13 96.5 -55.5t34.5 -98.5q0 -110 -97.5 -172.5t-268.5 -62.5q-80 0 -170 16zM147 -8l1153 1470l130 -98l-1156 -1470zM827 311l263 385h274v-377h123v-147h-123v-57l100 -23v-92h-420v92l109 25v55h-303zM1001 319h156v238z" />
<glyph unicode="&#xbf;" horiz-adv-x="923" d="M96 -31q0 61 17 113.5t44.5 88.5t61.5 72t67.5 64t62.5 63t47.5 70t21.5 85t-15 108h256q27 -85 26 -146t-23.5 -113t-56 -89t-72.5 -73.5t-72.5 -66.5t-55.5 -69t-22 -80q0 -92 107 -147.5t296 -61.5l-32 -238q-164 4 -292.5 39.5t-206.5 94.5t-118.5 131.5t-40.5 154.5 zM369 885q0 66 45.5 110.5t113.5 44.5t114 -44.5t46 -110.5q0 -65 -46.5 -110.5t-113.5 -45.5t-113 45.5t-46 110.5z" />
<glyph unicode="&#xc0;" horiz-adv-x="1427" d="M16 0v166q56 17 109 20l414 1196h344l420 -1196q52 -3 108 -20v-166h-545v166q98 18 142 22l-60 177h-497l-60 -177q51 -4 146 -22v-166h-521zM401 1575l62 188l424 -153l-43 -144zM514 571h373l-123 355q-52 166 -64 217h-2q-31 -129 -61 -219z" />
<glyph unicode="&#xc1;" horiz-adv-x="1427" d="M16 0v166q56 17 109 20l414 1196h344l420 -1196q52 -3 108 -20v-166h-545v166q98 18 142 22l-60 177h-497l-60 -177q51 -4 146 -22v-166h-521zM514 571h373l-123 355q-52 166 -64 217h-2q-31 -129 -61 -219zM539 1610l424 153l59 -188l-440 -109z" />
<glyph unicode="&#xc2;" horiz-adv-x="1427" d="M16 0v166q56 17 109 20l414 1196h344l420 -1196q52 -3 108 -20v-166h-545v166q98 18 142 22l-60 177h-497l-60 -177q51 -4 146 -22v-166h-521zM375 1597l338 175l340 -168l-64 -140l-284 115l-273 -113zM514 571h373l-123 355q-52 166 -64 217h-2q-31 -129 -61 -219z" />
<glyph unicode="&#xc3;" horiz-adv-x="1427" d="M16 0v166q56 17 109 20l414 1196h344l420 -1196q52 -3 108 -20v-166h-545v166q98 18 142 22l-60 177h-497l-60 -177q51 -4 146 -22v-166h-521zM322 1589q94 168 256 168q48 0 89 -15t64.5 -33t52.5 -33t56 -15q36 0 63.5 21t54.5 65l129 -88q-94 -168 -256 -168 q-48 0 -89 15t-65 33t-53 33t-55 15q-67 0 -118 -88zM514 571h373l-123 355q-52 166 -64 217h-2q-31 -129 -61 -219z" />
<glyph unicode="&#xc4;" horiz-adv-x="1427" d="M16 0v166q56 17 109 20l414 1196h344l420 -1196q52 -3 108 -20v-166h-545v166q98 18 142 22l-60 177h-497l-60 -177q51 -4 146 -22v-166h-521zM344 1608q0 57 40 96t97 39t97 -39t40 -96t-40 -96t-97 -39t-97 39t-40 96zM514 571h373l-123 355q-52 166 -64 217h-2 q-31 -129 -61 -219zM786 1608q0 57 39.5 96t96.5 39t97 -39t40 -96t-40 -96t-97 -39t-96.5 39t-39.5 96z" />
<glyph unicode="&#xc5;" horiz-adv-x="1427" d="M16 0v166q56 17 109 20l414 1196h344l420 -1196q52 -3 108 -20v-166h-545v166q98 18 142 22l-60 177h-497l-60 -177q51 -4 146 -22v-166h-521zM461 1683q0 97 70 163.5t169 66.5q101 0 170.5 -64t69.5 -161q0 -96 -71.5 -164t-170.5 -68q-100 0 -168.5 64.5t-68.5 162.5z M514 571h373l-123 355q-52 166 -64 217h-2q-31 -129 -61 -219zM602 1686q0 -40 29 -69.5t69 -29.5t68.5 29.5t28.5 69.5t-28.5 69t-68.5 29t-69 -29t-29 -69z" />
<glyph unicode="&#xc6;" horiz-adv-x="1689" d="M-63 0v166q56 17 110 20l528 1004q-83 5 -178 27v165h1174v-348h-197q-17 85 -22 140h-275v-369h223q6 38 23 113h172v-416h-172q-11 39 -23 112h-223v-399h285q5 55 22 147h201v-362h-919v168q86 20 145 25v159h-414l-84 -164q52 -5 125 -22v-166h-501zM498 561h313v608 h-8q-67 -154 -139 -299z" />
<glyph unicode="&#xc7;" horiz-adv-x="1193" d="M76 649q0 166 44.5 303t129.5 237t216.5 155t297.5 55q161 0 323 -39v-395h-202q-19 97 -27 172q-63 16 -139 16q-163 0 -256.5 -125t-93.5 -336q0 -469 409 -469q161 0 291 60l37 -234q-190 -69 -389 -69q-316 0 -478.5 176.5t-162.5 492.5zM514 -479q51 63 71 112 t9 102.5t-59 114.5l217 68q148 -202 -41 -397h-197z" />
<glyph unicode="&#xc8;" horiz-adv-x="1099" d="M47 0v166q95 22 178 27v997q-83 5 -178 27v165h942v-348h-198q-2 14 -11.5 65t-11.5 75h-276v-369h223q8 51 22 113h172v-416h-172q-9 31 -22 112h-223v-399h278q6 45 25 147h200v-362h-948zM221 1575l62 188l424 -153l-43 -144z" />
<glyph unicode="&#xc9;" horiz-adv-x="1099" d="M47 0v166q95 22 178 27v997q-83 5 -178 27v165h942v-348h-198q-2 14 -11.5 65t-11.5 75h-276v-369h223q8 51 22 113h172v-416h-172q-9 31 -22 112h-223v-399h278q6 45 25 147h200v-362h-948zM403 1610l424 153l60 -188l-441 -109z" />
<glyph unicode="&#xca;" horiz-adv-x="1099" d="M47 0v166q95 22 178 27v997q-83 5 -178 27v165h942v-348h-198q-2 14 -11.5 65t-11.5 75h-276v-369h223q8 51 22 113h172v-416h-172q-9 31 -22 112h-223v-399h278q6 45 25 147h200v-362h-948zM219 1597l338 175l340 -168l-63 -140l-285 115l-273 -113z" />
<glyph unicode="&#xcb;" horiz-adv-x="1099" d="M47 0v166q95 22 178 27v997q-83 5 -178 27v165h942v-348h-198q-2 14 -11.5 65t-11.5 75h-276v-369h223q8 51 22 113h172v-416h-172q-9 31 -22 112h-223v-399h278q6 45 25 147h200v-362h-948zM182 1608q0 57 40 96t97 39t97.5 -39t40.5 -96t-40.5 -96t-97.5 -39t-97 39 t-40 96zM625 1608q0 57 39 96t96 39t97 -39t40 -96t-40 -96t-97 -39t-96 39t-39 96z" />
<glyph unicode="&#xcc;" horiz-adv-x="714" d="M39 1575l61 188l424 -153l-43 -144zM47 0v166q95 22 178 27v997q-83 5 -178 27v165h623v-165q-95 -22 -178 -27v-997q83 -5 178 -27v-166h-623z" />
<glyph unicode="&#xcd;" horiz-adv-x="714" d="M47 0v166q95 22 178 27v997q-83 5 -178 27v165h623v-165q-95 -22 -178 -27v-997q83 -5 178 -27v-166h-623zM152 1610l423 153l60 -188l-440 -109z" />
<glyph unicode="&#xce;" horiz-adv-x="714" d="M18 1597l338 175l340 -168l-63 -140l-285 115l-272 -113zM47 0v166q95 22 178 27v997q-83 5 -178 27v165h623v-165q-95 -22 -178 -27v-997q83 -5 178 -27v-166h-623z" />
<glyph unicode="&#xcf;" horiz-adv-x="714" d="M0 1608q0 57 40 96t97 39t97 -39t40 -96t-40 -96t-97 -39t-97 39t-40 96zM47 0v166q95 22 178 27v997q-83 5 -178 27v165h623v-165q-95 -22 -178 -27v-997q83 -5 178 -27v-166h-623zM442 1608q0 57 39.5 96t96.5 39t97 -39t40 -96t-40 -96t-97 -39t-96.5 39t-39.5 96z " />
<glyph unicode="&#xd0;" horiz-adv-x="1468" d="M68 0v166q95 22 178 27v409h-154v201h154v387q-83 5 -178 27v165h172q49 0 205 4.5t249 4.5q697 0 697 -676q0 -232 -96 -396.5t-266 -245.5t-398 -81q-73 0 -200 4t-185 4h-178zM512 229q65 -10 145 -10q207 0 329 119t122 356q0 232 -102 352.5t-330 120.5 q-96 0 -164 -6v-358h252v-201h-252v-373z" />
<glyph unicode="&#xd1;" horiz-adv-x="1570" d="M47 0v166q95 22 178 27v997q-83 5 -178 27v165h539l415 -723q82 -152 154 -323q-18 251 -18 854q-76 6 -140 24v168h527v-168q-81 -20 -129 -24v-1190h-361l-418 725q-94 171 -153 332q20 -261 20 -864q75 -6 148 -25v-168h-584zM414 1589q94 168 256 168q48 0 89 -15 t64.5 -33t52.5 -33t56 -15q66 0 119 86l129 -88q-94 -168 -256 -168q-48 0 -89 15t-65 33t-53 33t-55 15q-68 0 -119 -88z" />
<glyph unicode="&#xd2;" horiz-adv-x="1439" d="M68 670q0 168 53.5 308t145 232.5t214.5 143.5t262 51q308 0 468.5 -183.5t160.5 -508.5q0 -168 -53.5 -308t-145.5 -233t-215 -144t-262 -51q-307 0 -467.5 184t-160.5 509zM350 702q0 -227 93.5 -356t275.5 -129q165 0 268 122.5t103 342.5q0 226 -93.5 354.5 t-275.5 128.5q-165 0 -268 -122.5t-103 -340.5zM410 1575l61 188l424 -153l-43 -144z" />
<glyph unicode="&#xd3;" horiz-adv-x="1439" d="M68 670q0 168 53.5 308t145 232.5t214.5 143.5t262 51q308 0 468.5 -183.5t160.5 -508.5q0 -168 -53.5 -308t-145.5 -233t-215 -144t-262 -51q-307 0 -467.5 184t-160.5 509zM350 702q0 -227 93.5 -356t275.5 -129q165 0 268 122.5t103 342.5q0 226 -93.5 354.5 t-275.5 128.5q-165 0 -268 -122.5t-103 -340.5zM575 1610l424 153l60 -188l-441 -109z" />
<glyph unicode="&#xd4;" horiz-adv-x="1439" d="M68 670q0 168 53.5 308t145 232.5t214.5 143.5t262 51q308 0 468.5 -183.5t160.5 -508.5q0 -168 -53.5 -308t-145.5 -233t-215 -144t-262 -51q-307 0 -467.5 184t-160.5 509zM350 702q0 -227 93.5 -356t275.5 -129q165 0 268 122.5t103 342.5q0 226 -93.5 354.5 t-275.5 128.5q-165 0 -268 -122.5t-103 -340.5zM399 1597l338 175l340 -168l-63 -140l-285 115l-272 -113z" />
<glyph unicode="&#xd5;" horiz-adv-x="1439" d="M68 670q0 168 53.5 308t145 232.5t214.5 143.5t262 51q308 0 468.5 -183.5t160.5 -508.5q0 -168 -53.5 -308t-145.5 -233t-215 -144t-262 -51q-307 0 -467.5 184t-160.5 509zM350 702q0 -227 93.5 -356t275.5 -129q165 0 268 122.5t103 342.5q0 226 -93.5 354.5 t-275.5 128.5q-165 0 -268 -122.5t-103 -340.5zM350 1589q94 168 256 168q48 0 89 -15t64.5 -33t52.5 -33t56 -15q66 0 119 86l129 -88q-94 -168 -256 -168q-48 0 -89 15t-65 33t-53 33t-55 15q-68 0 -119 -88z" />
<glyph unicode="&#xd6;" horiz-adv-x="1439" d="M68 670q0 168 53.5 308t145 232.5t214.5 143.5t262 51q308 0 468.5 -183.5t160.5 -508.5q0 -168 -53.5 -308t-145.5 -233t-215 -144t-262 -51q-307 0 -467.5 184t-160.5 509zM350 702q0 -227 93.5 -356t275.5 -129q165 0 268 122.5t103 342.5q0 226 -93.5 354.5 t-275.5 128.5q-165 0 -268 -122.5t-103 -340.5zM373 1608q0 57 40 96t97 39t97 -39t40 -96t-40 -96t-97 -39t-97 39t-40 96zM815 1608q0 57 39 96t96 39t97 -39t40 -96t-40 -96t-97 -39t-96 39t-39 96z" />
<glyph unicode="&#xd7;" d="M96 285l316 315l-316 315l160 160l315 -315l316 315l143 -143l-315 -316l315 -315l-160 -160l-315 316l-315 -316z" />
<glyph unicode="&#xd8;" horiz-adv-x="1439" d="M68 674q0 167 53.5 305.5t145 231t214.5 143.5t262 51q86 0 168 -16l93 204l186 -82l-88 -198q131 -79 200.5 -230.5t69.5 -371.5q0 -167 -53 -306.5t-144.5 -232.5t-214.5 -144t-264 -51q-97 0 -184 19l-92 -207l-187 84l93 205q-258 167 -258 596zM342 702 q0 -125 30.5 -221.5t76.5 -150.5l358 835h-2q-45 9 -86 9q-76 0 -143 -29t-120 -85.5t-83.5 -148.5t-30.5 -209zM618 221q44 -12 97 -12q74 0 141 28t122.5 83.5t88.5 151t33 218.5q0 131 -32.5 230t-86.5 151z" />
<glyph unicode="&#xd9;" horiz-adv-x="1456" d="M47 1214v168h543v-168q-67 -17 -148 -24v-694q0 -72 12.5 -124.5t43.5 -95t88 -64.5t141 -22q156 0 224.5 75.5t68.5 254.5v670q-84 7 -148 24v168h537v-168q-57 -15 -127 -24v-660q0 -273 -146 -413t-425 -140q-106 0 -191 18.5t-142.5 53.5t-98 79.5t-63 103t-32.5 118 t-10 129.5v711q-73 10 -127 24zM344 1575l62 188l423 -153l-43 -144z" />
<glyph unicode="&#xda;" horiz-adv-x="1456" d="M47 1214v168h543v-168q-67 -17 -148 -24v-694q0 -72 12.5 -124.5t43.5 -95t88 -64.5t141 -22q156 0 224.5 75.5t68.5 254.5v670q-84 7 -148 24v168h537v-168q-57 -15 -127 -24v-660q0 -273 -146 -413t-425 -140q-106 0 -191 18.5t-142.5 53.5t-98 79.5t-63 103t-32.5 118 t-10 129.5v711q-73 10 -127 24zM602 1610l424 153l59 -188l-440 -109z" />
<glyph unicode="&#xdb;" horiz-adv-x="1456" d="M47 1214v168h543v-168q-67 -17 -148 -24v-694q0 -72 12.5 -124.5t43.5 -95t88 -64.5t141 -22q156 0 224.5 75.5t68.5 254.5v670q-84 7 -148 24v168h537v-168q-57 -15 -127 -24v-660q0 -273 -146 -413t-425 -140q-106 0 -191 18.5t-142.5 53.5t-98 79.5t-63 103t-32.5 118 t-10 129.5v711q-73 10 -127 24zM385 1597l338 175l340 -168l-64 -140l-284 115l-273 -113z" />
<glyph unicode="&#xdc;" horiz-adv-x="1456" d="M47 1214v168h543v-168q-67 -17 -148 -24v-694q0 -72 12.5 -124.5t43.5 -95t88 -64.5t141 -22q156 0 224.5 75.5t68.5 254.5v670q-84 7 -148 24v168h537v-168q-57 -15 -127 -24v-660q0 -273 -146 -413t-425 -140q-106 0 -191 18.5t-142.5 53.5t-98 79.5t-63 103t-32.5 118 t-10 129.5v711q-73 10 -127 24zM375 1608q0 57 40 96t97 39t97 -39t40 -96t-40 -96t-97 -39t-97 39t-40 96zM817 1608q0 57 39 96t96 39t97.5 -39t40.5 -96t-40.5 -96t-97.5 -39t-96 39t-39 96z" />
<glyph unicode="&#xdd;" horiz-adv-x="1251" d="M16 1214v168h527v-168q-52 -13 -121 -20l125 -272q42 -92 88 -207h2q45 123 88 213l125 266q-75 7 -123 20v168h510v-168q-64 -15 -109 -18l-372 -725v-278q83 -5 178 -27v-166h-623v166q95 22 178 27v278l-366 725q-50 3 -107 18zM516 1610l424 153l59 -188l-440 -109z " />
<glyph unicode="&#xde;" horiz-adv-x="1241" d="M47 0v164q100 19 178 24v1006q-70 5 -178 25v163h623v-153q-95 -22 -178 -27v-96q94 8 194 8q255 0 383.5 -101.5t128.5 -283.5q0 -200 -146 -319t-382 -119q-92 0 -178 8v-119q89 -6 178 -26v-154h-623zM492 514q70 -12 147 -12q133 0 200.5 57t67.5 150q0 39 -13 72 t-41.5 61.5t-80.5 44.5t-123 16q-98 0 -157 -10v-379z" />
<glyph unicode="&#xdf;" horiz-adv-x="1417" d="M49 842v166q106 12 180 14q5 234 138 360.5t376 126.5q209 0 323 -89t114 -232q0 -69 -23.5 -119t-56.5 -78.5t-66 -53t-56.5 -57t-23.5 -75.5q0 -34 23 -62t60 -50t81.5 -44t89 -50.5t81.5 -63t60 -88t23 -119.5q0 -69 -26.5 -130t-77 -109t-131.5 -75.5t-183 -27.5 q-123 0 -243 20v311h168q9 -49 18 -127q30 -10 70 -10q74 0 107.5 33t33.5 88q0 35 -23.5 63.5t-61 49.5t-82.5 42t-90 47.5t-82.5 59.5t-61 85.5t-23.5 117.5q0 59 23 106t56 77.5t65.5 59t55.5 66t23 84.5q0 60 -48 99.5t-130 39.5q-117 0 -177 -72t-60 -233v-800 q83 -7 139 -27v-166h-580v166q95 22 178 27v628q-92 15 -180 21z" />
<glyph unicode="&#xe0;" horiz-adv-x="1107" d="M68 256q0 119 75.5 201t205 120.5t306.5 40.5v60q0 86 -40.5 128t-139.5 42q-72 0 -149 -25q-7 -72 -21 -133h-164v297q170 53 353 53q123 0 207 -23.5t131.5 -71t67.5 -109.5t20 -150v-485q97 -16 165 -21v-166q-192 -23 -407 -16q0 121 8 174l-2 2q-37 -87 -125 -140.5 t-201 -53.5q-135 0 -212.5 75.5t-77.5 200.5zM227 1368l121 176l348 -256l-98 -141zM317 295q0 -52 33.5 -84.5t89.5 -32.5q93 0 154 74t61 172v27q-173 0 -255.5 -38.5t-82.5 -117.5z" />
<glyph unicode="&#xe1;" horiz-adv-x="1107" d="M68 256q0 119 75.5 201t205 120.5t306.5 40.5v60q0 86 -40.5 128t-139.5 42q-72 0 -149 -25q-7 -72 -21 -133h-164v297q170 53 353 53q123 0 207 -23.5t131.5 -71t67.5 -109.5t20 -150v-485q97 -16 165 -21v-166q-192 -23 -407 -16q0 121 8 174l-2 2q-37 -87 -125 -140.5 t-201 -53.5q-135 0 -212.5 75.5t-77.5 200.5zM317 295q0 -52 33.5 -84.5t89.5 -32.5q93 0 154 74t61 172v27q-173 0 -255.5 -38.5t-82.5 -117.5zM360 1288l347 256l120 -176l-370 -221z" />
<glyph unicode="&#xe2;" horiz-adv-x="1107" d="M68 256q0 119 75.5 201t205 120.5t306.5 40.5v60q0 86 -40.5 128t-139.5 42q-72 0 -149 -25q-7 -72 -21 -133h-164v297q170 53 353 53q123 0 207 -23.5t131.5 -71t67.5 -109.5t20 -150v-485q97 -16 165 -21v-166q-192 -23 -407 -16q0 121 8 174l-2 2q-37 -87 -125 -140.5 t-201 -53.5q-135 0 -212.5 75.5t-77.5 200.5zM221 1266l314 278l313 -276l-103 -121l-213 166l-210 -166zM317 295q0 -52 33.5 -84.5t89.5 -32.5q93 0 154 74t61 172v27q-173 0 -255.5 -38.5t-82.5 -117.5z" />
<glyph unicode="&#xe3;" horiz-adv-x="1107" d="M68 256q0 119 75.5 201t205 120.5t306.5 40.5v60q0 86 -40.5 128t-139.5 42q-72 0 -149 -25q-7 -72 -21 -133h-164v297q170 53 353 53q123 0 207 -23.5t131.5 -71t67.5 -109.5t20 -150v-485q97 -16 165 -21v-166q-192 -23 -407 -16q0 121 8 174l-2 2q-37 -87 -125 -140.5 t-201 -53.5q-135 0 -212.5 75.5t-77.5 200.5zM168 1294q91 183 250 183q46 0 85 -16t61.5 -35.5t50.5 -35.5t53 -16q64 0 114 92l125 -96q-90 -182 -250 -182q-46 0 -85 16t-62 35t-51 35t-53 16q-63 0 -113 -92zM317 295q0 -52 33.5 -84.5t89.5 -32.5q93 0 154 74t61 172 v27q-173 0 -255.5 -38.5t-82.5 -117.5z" />
<glyph unicode="&#xe4;" horiz-adv-x="1107" d="M68 256q0 119 75.5 201t205 120.5t306.5 40.5v60q0 86 -40.5 128t-139.5 42q-72 0 -149 -25q-7 -72 -21 -133h-164v297q170 53 353 53q123 0 207 -23.5t131.5 -71t67.5 -109.5t20 -150v-485q97 -16 165 -21v-166q-192 -23 -407 -16q0 121 8 174l-2 2q-37 -87 -125 -140.5 t-201 -53.5q-135 0 -212.5 75.5t-77.5 200.5zM186 1327q0 60 41.5 100.5t100.5 40.5t100 -40.5t41 -100.5q0 -59 -41.5 -100t-99.5 -41q-59 0 -100.5 41.5t-41.5 99.5zM317 295q0 -52 33.5 -84.5t89.5 -32.5q93 0 154 74t61 172v27q-173 0 -255.5 -38.5t-82.5 -117.5z M600 1327q0 60 41 100.5t100 40.5t100.5 -40.5t41.5 -100.5q0 -58 -41.5 -99.5t-100.5 -41.5t-100 41t-41 100z" />
<glyph unicode="&#xe5;" horiz-adv-x="1107" d="M68 256q0 119 75.5 201t205 120.5t306.5 40.5v60q0 86 -40.5 128t-139.5 42q-72 0 -149 -25q-7 -72 -21 -133h-164v297q170 53 353 53q123 0 207 -23.5t131.5 -71t67.5 -109.5t20 -150v-485q97 -16 165 -21v-166q-192 -23 -407 -16q0 121 8 174l-2 2q-37 -87 -125 -140.5 t-201 -53.5q-135 0 -212.5 75.5t-77.5 200.5zM283 1370q0 106 76 177t184 71q110 0 185 -68t75 -174t-76.5 -181t-183.5 -75q-110 0 -185 71t-75 179zM317 295q0 -52 33.5 -84.5t89.5 -32.5q93 0 154 74t61 172v27q-173 0 -255.5 -38.5t-82.5 -117.5zM434 1370 q0 -44 32.5 -76t76.5 -32t75 32t31 76q0 45 -31 77t-75 32t-76.5 -32.5t-32.5 -76.5z" />
<glyph unicode="&#xe6;" horiz-adv-x="1628" d="M66 256q0 178 159.5 272.5t427.5 94.5v55q0 87 -40 128.5t-138 41.5q-77 0 -151 -23q-4 -37 -21 -135h-164v297q170 53 353 53q236 0 333 -120h2q44 52 122.5 86t172.5 34q110 0 193 -33.5t133 -93t75 -135.5t25 -168q0 -74 -12 -168h-625q0 -128 67 -193t212 -65 q159 0 295 62l28 -199q-165 -67 -368 -67q-160 0 -264 53.5t-146 152.5h-2q-49 -95 -145.5 -150.5t-225.5 -55.5q-139 0 -217.5 75.5t-78.5 200.5zM315 295q0 -52 33.5 -84.5t89.5 -32.5q92 0 153.5 74.5t61.5 171.5v29q-338 0 -338 -158zM911 618h377q8 107 -38.5 168.5 t-137.5 61.5q-89 0 -142.5 -65.5t-58.5 -164.5z" />
<glyph unicode="&#xe7;" horiz-adv-x="915" d="M70 477q0 96 19.5 179t61.5 153.5t104 120.5t150.5 78t196.5 28q139 0 242 -32v-328h-168q-19 110 -21 133q-31 10 -90 10q-103 0 -163 -83t-60 -224q0 -149 63.5 -227t210.5 -78q112 0 213 43l33 -219q-139 -49 -305 -49q-231 0 -359 121t-128 374zM344 -479 q51 63 71 112t9 102.5t-59 114.5l217 68q148 -202 -41 -397h-197z" />
<glyph unicode="&#xe8;" horiz-adv-x="1052" d="M70 500q0 153 56.5 274.5t167.5 192.5t259 71q212 0 317 -119.5t105 -312.5q0 -87 -10 -143h-629q-2 -142 65.5 -210.5t214.5 -68.5t295 60l29 -199q-176 -65 -369 -65q-501 0 -501 520zM236 1368l120 176l349 -256l-99 -141zM340 637h375q3 99 -44.5 154t-131.5 55 q-81 0 -134.5 -56.5t-64.5 -152.5z" />
<glyph unicode="&#xe9;" horiz-adv-x="1052" d="M70 500q0 153 56.5 274.5t167.5 192.5t259 71q212 0 317 -119.5t105 -312.5q0 -87 -10 -143h-629q-2 -142 65.5 -210.5t214.5 -68.5t295 60l29 -199q-176 -65 -369 -65q-501 0 -501 520zM340 637h375q3 99 -44.5 154t-131.5 55q-81 0 -134.5 -56.5t-64.5 -152.5z M379 1288l346 256l121 -176l-371 -221z" />
<glyph unicode="&#xea;" horiz-adv-x="1052" d="M70 500q0 153 56.5 274.5t167.5 192.5t259 71q212 0 317 -119.5t105 -312.5q0 -87 -10 -143h-629q-2 -142 65.5 -210.5t214.5 -68.5t295 60l29 -199q-176 -65 -369 -65q-501 0 -501 520zM231 1266l314 278l313 -276l-102 -121l-213 166l-211 -166zM340 637h375 q3 99 -44.5 154t-131.5 55q-81 0 -134.5 -56.5t-64.5 -152.5z" />
<glyph unicode="&#xeb;" horiz-adv-x="1052" d="M70 500q0 153 56.5 274.5t167.5 192.5t259 71q212 0 317 -119.5t105 -312.5q0 -87 -10 -143h-629q-2 -142 65.5 -210.5t214.5 -68.5t295 60l29 -199q-176 -65 -369 -65q-501 0 -501 520zM199 1327q0 60 41 100.5t100 40.5t100 -40.5t41 -100.5q0 -59 -41.5 -100 t-99.5 -41t-99.5 41t-41.5 100zM340 637h375q3 99 -44.5 154t-131.5 55q-81 0 -134.5 -56.5t-64.5 -152.5zM612 1327q0 60 41.5 100.5t100.5 40.5t100 -40.5t41 -100.5q0 -59 -41.5 -100t-99.5 -41q-59 0 -100.5 41.5t-41.5 99.5z" />
<glyph unicode="&#xec;" horiz-adv-x="684" d="M51 0v166q95 22 178 27v624q-94 15 -178 21v163q206 25 441 19v-827q77 -5 165 -27v-166h-606zM63 1368l121 176l348 -256l-98 -141z" />
<glyph unicode="&#xed;" horiz-adv-x="684" d="M51 0v166q95 22 178 27v624q-94 15 -178 21v163q206 25 441 19v-827q77 -5 165 -27v-166h-606zM111 1288l346 256l121 -176l-371 -221z" />
<glyph unicode="&#xee;" horiz-adv-x="684" d="M41 1266l313 278l314 -276l-103 -121l-213 166l-211 -166zM51 0v166q95 22 178 27v624q-94 15 -178 21v163q206 25 441 19v-827q77 -5 165 -27v-166h-606z" />
<glyph unicode="&#xef;" horiz-adv-x="684" d="M10 1327q0 60 41.5 100.5t100.5 40.5t100 -40.5t41 -100.5q0 -59 -41.5 -100t-99.5 -41q-59 0 -100.5 41.5t-41.5 99.5zM51 0v166q95 22 178 27v624q-94 15 -178 21v163q206 25 441 19v-827q77 -5 165 -27v-166h-606zM424 1327q0 60 41 100.5t100 40.5t100.5 -40.5 t41.5 -100.5q0 -58 -41.5 -99.5t-100.5 -41.5t-100 41t-41 100z" />
<glyph unicode="&#xf0;" horiz-adv-x="1136" d="M68 492q0 242 138.5 392t354.5 150q116 0 162 -63q-8 15 -17.5 31t-19.5 31.5t-14 21.5q-39 68 -109 141l-188 -84l-107 123l172 76q-55 47 -155 116l256 109q73 -56 141 -123l182 80l105 -123l-176 -76q268 -329 268 -725q0 -146 -39.5 -260t-109.5 -185t-161 -107.5 t-198 -36.5q-223 0 -354 129t-131 383zM340 512q0 -149 61 -229t170 -80q100 0 158.5 82t58.5 247q0 134 -56 209.5t-167 75.5q-96 0 -160.5 -77.5t-64.5 -227.5z" />
<glyph unicode="&#xf1;" horiz-adv-x="1304" d="M51 0v166q95 22 178 27v624q-94 15 -178 21v163q208 25 426 19q0 -107 -14 -184h2q48 93 137 147.5t209 54.5q83 0 143.5 -25t94.5 -70.5t49.5 -101.5t15.5 -126v-522q82 -6 166 -27v-166h-426v651q0 83 -28 125.5t-97 42.5q-99 0 -168 -96.5t-69 -230.5v-299 q80 -7 149 -25v-168h-590zM276 1294q91 183 250 183q46 0 85 -16t61.5 -35.5t50.5 -35.5t53 -16q65 0 115 92l125 -96q-90 -182 -250 -182q-46 0 -85.5 16t-62 35t-51 35t-53.5 16q-63 0 -113 -92z" />
<glyph unicode="&#xf2;" horiz-adv-x="1134" d="M70 487q0 242 144.5 396.5t375.5 154.5q224 0 349.5 -126.5t125.5 -381.5q0 -242 -145 -396t-375 -154q-226 0 -350.5 123.5t-124.5 383.5zM276 1368l121 176l348 -256l-98 -141zM340 512q0 -309 227 -309q101 0 164.5 79.5t63.5 225.5q0 309 -224 309 q-98 0 -164.5 -76.5t-66.5 -228.5z" />
<glyph unicode="&#xf3;" horiz-adv-x="1134" d="M70 487q0 242 144.5 396.5t375.5 154.5q224 0 349.5 -126.5t125.5 -381.5q0 -242 -145 -396t-375 -154q-226 0 -350.5 123.5t-124.5 383.5zM340 512q0 -309 227 -309q101 0 164.5 79.5t63.5 225.5q0 309 -224 309q-98 0 -164.5 -76.5t-66.5 -228.5zM401 1288l347 256 l120 -176l-370 -221z" />
<glyph unicode="&#xf4;" horiz-adv-x="1134" d="M70 487q0 242 144.5 396.5t375.5 154.5q224 0 349.5 -126.5t125.5 -381.5q0 -242 -145 -396t-375 -154q-226 0 -350.5 123.5t-124.5 383.5zM260 1266l313 278l314 -276l-103 -121l-213 166l-211 -166zM340 512q0 -309 227 -309q101 0 164.5 79.5t63.5 225.5 q0 309 -224 309q-98 0 -164.5 -76.5t-66.5 -228.5z" />
<glyph unicode="&#xf5;" horiz-adv-x="1134" d="M70 487q0 242 144.5 396.5t375.5 154.5q224 0 349.5 -126.5t125.5 -381.5q0 -242 -145 -396t-375 -154q-226 0 -350.5 123.5t-124.5 383.5zM201 1294q91 183 250 183q46 0 85 -16t61 -35.5t50 -35.5t53 -16q65 0 115 92l125 -96q-90 -182 -250 -182q-46 0 -85.5 16 t-62 35t-51 35t-53.5 16q-62 0 -112 -92zM340 512q0 -309 227 -309q101 0 164.5 79.5t63.5 225.5q0 309 -224 309q-98 0 -164.5 -76.5t-66.5 -228.5z" />
<glyph unicode="&#xf6;" horiz-adv-x="1134" d="M70 487q0 242 144.5 396.5t375.5 154.5q224 0 349.5 -126.5t125.5 -381.5q0 -242 -145 -396t-375 -154q-226 0 -350.5 123.5t-124.5 383.5zM221 1327q0 60 41 100.5t100 40.5t100.5 -40.5t41.5 -100.5q0 -58 -41.5 -99.5t-100.5 -41.5q-58 0 -99.5 41t-41.5 100zM340 512 q0 -309 227 -309q101 0 164.5 79.5t63.5 225.5q0 309 -224 309q-98 0 -164.5 -76.5t-66.5 -228.5zM635 1327q0 60 41 100.5t100 40.5t100.5 -40.5t41.5 -100.5q0 -58 -41.5 -99.5t-100.5 -41.5q-58 0 -99.5 41t-41.5 100z" />
<glyph unicode="&#xf7;" d="M80 500v219h967v-219h-967zM401 199q0 66 47 112.5t113 46.5t113 -46.5t47 -112.5t-47 -113t-113 -47t-113 47t-47 113zM401 1020q0 66 47 113t113 47t113 -47t47 -113t-47 -113t-113 -47t-113 47t-47 113z" />
<glyph unicode="&#xf8;" horiz-adv-x="1134" d="M70 487q0 242 144.5 396.5t375.5 154.5q71 0 139 -12l92 180l144 -67l-91 -178q191 -127 191 -435q0 -239 -145 -392.5t-373 -153.5q-93 0 -166 20l-100 -201l-144 66l101 203q-168 121 -168 419zM317 516q0 -138 50 -225l249 538q-35 5 -45 5q-108 0 -181 -80.5 t-73 -237.5zM496 199q27 -11 71 -11q113 0 181.5 84t68.5 238q0 174 -63 240z" />
<glyph unicode="&#xf9;" horiz-adv-x="1267" d="M27 838v166q189 22 426 16v-653q0 -83 28 -125.5t97 -42.5q99 0 168 96.5t69 230.5v293q-120 17 -149 19v168q201 20 409 14v-819q96 -16 166 -21v-166q-192 -23 -410 -16q0 91 13 184h-4q-46 -93 -134.5 -147.5t-209.5 -54.5q-84 0 -145 25t-95 70.5t-50 101.5t-16 126 v514q-99 16 -163 21zM305 1368l121 176l348 -256l-98 -141z" />
<glyph unicode="&#xfa;" horiz-adv-x="1267" d="M27 838v166q189 22 426 16v-653q0 -83 28 -125.5t97 -42.5q99 0 168 96.5t69 230.5v293q-120 17 -149 19v168q201 20 409 14v-819q96 -16 166 -21v-166q-192 -23 -410 -16q0 91 13 184h-4q-46 -93 -134.5 -147.5t-209.5 -54.5q-84 0 -145 25t-95 70.5t-50 101.5t-16 126 v514q-99 16 -163 21zM479 1288l346 256l121 -176l-371 -221z" />
<glyph unicode="&#xfb;" horiz-adv-x="1267" d="M27 838v166q189 22 426 16v-653q0 -83 28 -125.5t97 -42.5q99 0 168 96.5t69 230.5v293q-120 17 -149 19v168q201 20 409 14v-819q96 -16 166 -21v-166q-192 -23 -410 -16q0 91 13 184h-4q-46 -93 -134.5 -147.5t-209.5 -54.5q-84 0 -145 25t-95 70.5t-50 101.5t-16 126 v514q-99 16 -163 21zM313 1266l314 278l313 -276l-102 -121l-213 166l-211 -166z" />
<glyph unicode="&#xfc;" horiz-adv-x="1267" d="M27 838v166q189 22 426 16v-653q0 -83 28 -125.5t97 -42.5q99 0 168 96.5t69 230.5v293q-120 17 -149 19v168q201 20 409 14v-819q96 -16 166 -21v-166q-192 -23 -410 -16q0 91 13 184h-4q-46 -93 -134.5 -147.5t-209.5 -54.5q-84 0 -145 25t-95 70.5t-50 101.5t-16 126 v514q-99 16 -163 21zM272 1327q0 60 41.5 100.5t100.5 40.5t100 -40.5t41 -100.5q0 -59 -41.5 -100t-99.5 -41q-59 0 -100.5 41.5t-41.5 99.5zM686 1327q0 60 41 100.5t100 40.5t100.5 -40.5t41.5 -100.5q0 -58 -41.5 -99.5t-100.5 -41.5t-100 41t-41 100z" />
<glyph unicode="&#xfd;" horiz-adv-x="1159" d="M16 850v168h490v-168q-40 -12 -103 -19l103 -290q37 -106 80 -273h4q27 125 86 301l90 262q-65 7 -102 19v168h479v-168q-53 -15 -111 -21l-323 -935q-78 -228 -182.5 -317t-282.5 -89q-80 0 -158 16l16 226q73 -23 144 -23q69 0 117 43t88 152l34 98h-75l-283 829 q-63 6 -111 21zM430 1288l346 256l121 -176l-371 -221z" />
<glyph unicode="&#xfe;" horiz-adv-x="1146" d="M-33 -328q108 20 178 25v1597q-98 16 -172 21v164q198 24 435 18v-420q0 -100 -17 -219h2q39 84 119 132t190 48q180 0 276.5 -124t96.5 -351q0 -265 -146 -423t-405 -158q-62 0 -116 10v-295q70 -5 178 -25v-166h-619v166zM408 207q62 -19 135 -19q120 0 188 83.5 t68 263.5q0 286 -174 286q-99 0 -158 -97.5t-59 -234.5v-282z" />
<glyph unicode="&#xff;" horiz-adv-x="1159" d="M16 850v168h490v-168q-40 -12 -103 -19l103 -290q37 -106 80 -273h4q27 125 86 301l90 262q-65 7 -102 19v168h479v-168q-53 -15 -111 -21l-323 -935q-78 -228 -182.5 -317t-282.5 -89q-80 0 -158 16l16 226q73 -23 144 -23q69 0 117 43t88 152l34 98h-75l-283 829 q-63 6 -111 21zM229 1327q0 60 41.5 100.5t100.5 40.5t100 -40.5t41 -100.5q0 -59 -41 -100t-100 -41t-100.5 41.5t-41.5 99.5zM643 1327q0 60 41 100.5t100 40.5t100.5 -40.5t41.5 -100.5q0 -58 -41.5 -99.5t-100.5 -41.5q-58 0 -99.5 41t-41.5 100z" />
<glyph unicode="&#x152;" horiz-adv-x="1771" d="M68 670q0 168 53.5 308t145 232.5t214.5 143.5t262 51q97 0 205 -23h711v-348h-199q-3 18 -8 47.5t-8.5 52t-5.5 40.5h-277v-369h225q6 38 23 113h172v-416h-172q-18 61 -23 112h-225v-399h283q1 8 22 147h201v-362h-747q-115 -23 -224 -23q-307 0 -467.5 184t-160.5 509 zM350 702q0 -227 93.5 -356t275.5 -129q73 0 178 33v889q-89 26 -178 26q-163 0 -266 -122.5t-103 -340.5z" />
<glyph unicode="&#x153;" horiz-adv-x="1761" d="M70 487q0 243 144 397t376 154q102 0 193.5 -38t146.5 -113q54 69 138.5 110t193.5 41q108 0 190.5 -33t132 -92.5t74 -136.5t24.5 -170q0 -83 -8 -143h-628q-3 -142 64 -210.5t214 -68.5q153 0 295 62l29 -199q-173 -67 -369 -67q-260 0 -377 165q-59 -76 -151.5 -120.5 t-206.5 -44.5q-225 0 -350 124t-125 383zM340 514q0 -311 227 -311q100 0 164 81t64 230q0 303 -224 303q-98 0 -164.5 -76.5t-66.5 -226.5zM1049 637h374q3 99 -44 154t-132 55q-81 0 -134 -56.5t-64 -152.5z" />
<glyph unicode="&#x178;" horiz-adv-x="1251" d="M16 1214v168h527v-168q-52 -13 -121 -20l125 -272q42 -92 88 -207h2q45 123 88 213l125 266q-75 7 -123 20v168h510v-168q-64 -15 -109 -18l-372 -725v-278q83 -5 178 -27v-166h-623v166q95 22 178 27v278l-366 725q-50 3 -107 18zM274 1608q0 57 40.5 96t97.5 39t97 -39 t40 -96t-40 -96t-97 -39t-97.5 39t-40.5 96zM717 1608q0 57 39 96t96 39t97 -39t40 -96t-40 -96t-97 -39t-96 39t-39 96z" />
<glyph unicode="&#x2c6;" horiz-adv-x="872" d="M121 1266l313 278l314 -276l-103 -121l-213 166l-211 -166z" />
<glyph unicode="&#x2dc;" horiz-adv-x="956" d="M109 1294q91 183 249 183q46 0 85 -16t61.5 -35.5t50.5 -35.5t53 -16q65 0 115 92l125 -96q-90 -182 -250 -182q-46 0 -85.5 16t-62 35t-51 35t-53.5 16q-63 0 -113 -92z" />
<glyph unicode="&#x2000;" horiz-adv-x="956" />
<glyph unicode="&#x2001;" horiz-adv-x="1913" />
<glyph unicode="&#x2002;" horiz-adv-x="956" />
<glyph unicode="&#x2003;" horiz-adv-x="1913" />
<glyph unicode="&#x2004;" horiz-adv-x="637" />
<glyph unicode="&#x2005;" horiz-adv-x="478" />
<glyph unicode="&#x2006;" horiz-adv-x="318" />
<glyph unicode="&#x2007;" horiz-adv-x="318" />
<glyph unicode="&#x2008;" horiz-adv-x="239" />
<glyph unicode="&#x2009;" horiz-adv-x="382" />
<glyph unicode="&#x200a;" horiz-adv-x="106" />
<glyph unicode="&#x2010;" horiz-adv-x="684" d="M90 463v211h504v-211h-504z" />
<glyph unicode="&#x2011;" horiz-adv-x="684" d="M90 463v211h504v-211h-504z" />
<glyph unicode="&#x2012;" horiz-adv-x="684" d="M90 463v211h504v-211h-504z" />
<glyph unicode="&#x2013;" d="M0 496v227h1126v-227h-1126z" />
<glyph unicode="&#x2014;" horiz-adv-x="2048" d="M227 496v227h1594v-227h-1594z" />
<glyph unicode="&#x2018;" horiz-adv-x="546" d="M116 1198q53 179 249 350l106 -96q-68 -73 -97 -131.5t-24.5 -101t37.5 -82.5q29 -33 34 -76.5t-11 -81.5t-54.5 -64t-89.5 -26q-87 0 -134 76q-57 93 -16 233z" />
<glyph unicode="&#x2019;" horiz-adv-x="546" d="M72 967q69 74 98.5 132t24.5 100.5t-39 82.5q-28 33 -32.5 76.5t11.5 81.5t54.5 64t89.5 26q87 0 134 -76q58 -94 16 -235q-53 -178 -249 -349z" />
<glyph unicode="&#x201a;" horiz-adv-x="546" d="M72 -258q69 74 98.5 131.5t24.5 100t-39 83.5q-28 33 -32.5 76.5t11.5 81.5t54.5 64t89.5 26q87 0 134 -76q57 -93 16 -233q-53 -179 -249 -350z" />
<glyph unicode="&#x201c;" horiz-adv-x="993" d="M116 1198q53 179 249 350l106 -96q-68 -73 -97 -131.5t-24.5 -101t37.5 -82.5q29 -33 34 -76.5t-11 -81.5t-54.5 -64t-89.5 -26q-87 0 -134 76q-57 93 -16 233zM564 1201q53 177 247 347l109 -96q-68 -73 -97 -131.5t-24.5 -101t37.5 -82.5q28 -33 32.5 -76.5t-11 -81.5 t-53.5 -64t-89 -26q-89 0 -136 77q-57 94 -15 235z" />
<glyph unicode="&#x201d;" horiz-adv-x="993" d="M72 967q69 74 98.5 132t24.5 100.5t-39 82.5q-28 33 -32.5 76.5t11.5 81.5t54.5 64t89.5 26q87 0 134 -76q58 -94 16 -235q-53 -178 -249 -349zM520 967q68 73 97 131.5t24.5 101t-37.5 82.5q-28 33 -32.5 76.5t11 81.5t53.5 64t89 26q89 0 136 -77q57 -94 15 -235 q-53 -178 -247 -348z" />
<glyph unicode="&#x201e;" horiz-adv-x="993" d="M72 -258q69 74 98.5 131.5t24.5 100t-39 83.5q-28 33 -32.5 76.5t11.5 81.5t54.5 64t89.5 26q87 0 134 -76q57 -93 16 -233q-53 -179 -249 -350zM520 -258q68 74 97 131.5t24.5 100t-37.5 83.5q-28 33 -32.5 76.5t11 81.5t53.5 64t89 26q89 0 136 -77q57 -94 15 -235 q-53 -177 -247 -347z" />
<glyph unicode="&#x2022;" horiz-adv-x="866" d="M129 608q0 125 88.5 214t214.5 89t215.5 -89t89.5 -214t-89.5 -214t-215.5 -89t-214.5 89t-88.5 214z" />
<glyph unicode="&#x202f;" horiz-adv-x="382" />
<glyph unicode="&#x2039;" horiz-adv-x="638" d="M84 598l235 399l201 -96l-184 -301l186 -297l-207 -98z" />
<glyph unicode="&#x203a;" horiz-adv-x="638" d="M117 899l207 98l233 -393l-238 -399l-198 96l184 301z" />
<glyph unicode="&#x205f;" horiz-adv-x="478" />
<glyph unicode="&#x20ac;" horiz-adv-x="1206" d="M49 451v141h148q-2 20 -2 63q0 15 1 44t1 44h-148v142h164q92 520 633 520q155 0 291 -37v-338h-166q-18 68 -25 141q-53 23 -133 23q-140 0 -216 -76.5t-101 -232.5h411v-142h-426v-151h426v-141h-401q31 -125 111 -191.5t225 -66.5q167 0 272 51l60 -201 q-70 -31 -171.5 -48.5t-199.5 -17.5q-265 0 -409.5 115.5t-184.5 358.5h-160z" />
<glyph unicode="&#x2122;" horiz-adv-x="1753" d="M68 1122v260h610v-260h-121q-15 98 -16 113h-76v-342q53 -6 108 -19v-114h-401v114q50 13 107 19v342h-76q0 -4 -17 -113h-118zM686 760v117q39 9 78 12l74 362q-32 4 -101 17v114h355l71 -270l21 -86l16 80l80 276h356v-114q-63 -13 -98 -17l74 -362q31 0 76 -10v-119 h-330v114l63 15l-30 178l-13 80l-18 -70l-88 -317h-185l-88 319l-16 68l-6 -57l-37 -201q38 -7 66 -15v-114h-320z" />
<glyph unicode="&#x25fc;" horiz-adv-x="1013" d="M0 0v1014h1014v-1014h-1014z" />
</font>
</defs>
</svg>
