<?xml version="1.0" standalone="no"?>
<!DOCTYPE svg PUBLIC "-//W3C//DTD SVG 1.1//EN" "http://www.w3.org/Graphics/SVG/1.1/DTD/svg11.dtd" >
<svg xmlns="http://www.w3.org/2000/svg">
<metadata></metadata>
<defs>
<font id="theserifhp8_extrabold_italic" horiz-adv-x="1126" >
<font-face units-per-em="2048" ascent="1516" descent="-532" />
<missing-glyph horiz-adv-x="446" />
<glyph unicode="&#x2e;&#x2e;&#x2e;" horiz-adv-x="1529" d="M33 154q0 79 55 133.5t131 54.5q73 0 124.5 -52.5t51.5 -123.5q0 -81 -55 -136t-131 -55q-73 0 -124.5 53t-51.5 126zM526 154q0 78 55 133t130 55q74 0 125 -52t51 -124q0 -81 -54.5 -136t-130.5 -55q-74 0 -125 53t-51 126zM1020 154q0 79 54 133.5t130 54.5 q74 0 125 -52t51 -124q0 -81 -54.5 -136t-129.5 -55q-74 0 -125 53t-51 126z" />
<glyph unicode="&#xfb01;" horiz-adv-x="1292" d="M-252 -483l72 256q58 -15 104 -15q75 0 117.5 46t67.5 173l151 801h-164l45 240h164l6 33q79 467 604 467q156 0 326 -39l-100 -258q-119 39 -238 39q-247 0 -282 -197l-9 -45h613l-150 -780q97 -17 154 -21l-37 -201q-230 -26 -467 -18l147 780h-307l-151 -805 q-44 -240 -167.5 -357.5t-320.5 -117.5q-88 0 -178 19z" />
<glyph unicode="&#xfb02;" horiz-adv-x="1304" d="M-252 -483l72 256q58 -15 104 -15q75 0 117.5 46t67.5 173l151 801h-164l45 240h164l21 102q35 194 183 296t386 102q205 0 428 -39l-236 -1241q70 -14 154 -21l-37 -201q-232 -26 -469 -18l238 1253q-79 11 -125 11q-90 0 -147 -42t-74 -124l-15 -78h185l-49 -240h-183 l-151 -805q-44 -240 -167.5 -357.5t-320.5 -117.5q-88 0 -178 19z" />
<glyph unicode="&#xfb03;" horiz-adv-x="1894" d="M-252 -483l72 256q58 -15 104 -15q75 0 116.5 46t65.5 173l152 801h-164l47 240h164l14 76q34 199 173.5 302t375.5 103q178 0 312 -51q134 70 336 70q155 0 325 -39l-102 -258q-119 39 -236 39q-124 0 -190.5 -48t-85.5 -151l-6 -43h604l-148 -780q69 -14 156 -21 l-39 -201q-240 -26 -469 -18l148 780h-299l-144 -778q-49 -259 -189 -371t-380 -112q-151 0 -279 51q-114 -70 -256 -70q-88 0 -178 19zM360 -203q56 -24 140 -24q95 0 146 47.5t71 159.5l149 798h-301l-151 -805q-17 -101 -54 -176zM612 1018h301l7 37q18 98 57 166 q-68 24 -129 24q-197 0 -225 -168z" />
<glyph unicode="&#xfb04;" horiz-adv-x="1896" d="M-252 -483l72 256q58 -15 104 -15q75 0 116.5 46t65.5 173l154 801h-164l45 240h166l15 76q34 200 173 302.5t375 102.5q169 0 301 -49q130 68 324 68q208 0 422 -39l-236 -1241q63 -14 154 -21l-37 -201q-240 -26 -469 -18l238 1253q-68 11 -119 11q-183 0 -213 -166 l-12 -78h202l-47 -240h-202l-146 -778q-49 -259 -189 -371t-380 -112q-151 0 -279 51q-114 -70 -256 -70q-88 0 -178 19zM360 -203q56 -24 140 -24q95 0 146 47.5t71 159.5l151 798h-303l-151 -805q-17 -101 -54 -176zM614 1018h301l19 102q12 57 37 103q-62 22 -123 22 q-195 0 -223 -168z" />
<glyph horiz-adv-x="0" />
<glyph horiz-adv-x="0" />
<glyph horiz-adv-x="682" />
<glyph unicode="&#xd;" horiz-adv-x="1024" />
<glyph unicode=" "  horiz-adv-x="446" />
<glyph unicode="&#x09;" horiz-adv-x="446" />
<glyph unicode="&#xa0;" horiz-adv-x="446" />
<glyph unicode="!" horiz-adv-x="649" d="M100 139q0 83 57.5 137t137.5 54q76 0 124 -49t48 -117q0 -82 -57.5 -135.5t-137.5 -53.5q-76 0 -124 48.5t-48 115.5zM203 412l151 1044h359l-244 -1044h-266z" />
<glyph unicode="&#x22;" horiz-adv-x="864" d="M68 889l69 553h303l-143 -553h-229zM477 889l68 553h301l-141 -553h-228z" />
<glyph unicode="#" horiz-adv-x="1404" d="M57 342l43 229h252l49 260h-251l45 232h251l60 319h268l-59 -319h211l61 319h266l-59 -319h250l-43 -232h-252l-49 -260h250l-41 -229h-254l-64 -342h-266l63 342h-213l-63 -342h-268l63 342h-250zM621 571h210l50 260h-213z" />
<glyph unicode="$" horiz-adv-x="1081" d="M-4 16l76 404h235q0 -50 -8 -144q75 -20 141 -20q95 0 152 36.5t57 113.5q0 32 -28 62.5t-73 57t-99 54.5t-108 63.5t-99 77t-73 100.5t-28 129q0 184 134 308.5t335 142.5l43 221h215l-43 -217q124 -7 275 -39l-70 -369h-233q0 66 10 144q-65 20 -123 20 q-87 0 -142 -35.5t-55 -113.5q0 -29 22.5 -57t59 -51t83.5 -50.5t95.5 -54t95.5 -62.5t83.5 -74.5t59 -92.5t22.5 -115q0 -128 -70 -232t-183 -164.5t-249 -74.5l-60 -293h-215l58 286q-163 3 -293 39z" />
<glyph unicode="%" horiz-adv-x="1673" d="M164 995q0 189 121.5 315t292.5 126q147 0 219.5 -73.5t72.5 -203.5q0 -119 -56.5 -222.5t-154 -164.5t-210.5 -61q-133 0 -209 69t-76 215zM197 113l1159 1329l188 -168l-1159 -1331zM418 1014q0 -90 69 -90q58 0 93.5 64t35.5 151q0 84 -71 84q-56 0 -91.5 -62.5 t-35.5 -146.5zM879 233q0 189 121.5 314t291.5 125q148 0 220.5 -73t72.5 -204q0 -182 -124 -314t-298 -132q-133 0 -208.5 69t-75.5 215zM1135 252q0 -90 67 -90q58 0 93.5 63.5t35.5 149.5q0 84 -69 84q-56 0 -91.5 -62.5t-35.5 -144.5z" />
<glyph unicode="&#x26;" horiz-adv-x="1685" d="M70 338q0 61 16.5 118t43.5 103.5t68.5 93t83 82.5t95.5 76q-105 168 -105 309q0 155 131 274t328 119q182 0 274.5 -81t92.5 -213q0 -119 -79.5 -219.5t-234.5 -211.5q106 -125 293 -290q51 54 88 130t49 154q-29 2 -98 17l39 207h541l-41 -207q-56 -14 -127 -21 q-65 -251 -242 -444q56 -49 131 -107q100 -9 160 -20l-39 -207h-338q-40 32 -160 135q-262 -162 -544 -162q-213 0 -319.5 101t-106.5 264zM395 393q0 -66 42.5 -107.5t123.5 -41.5q138 0 264 73q-179 168 -288 295q-70 -58 -106 -109.5t-36 -109.5zM578 1147q0 -60 55 -164 q83 61 120.5 107.5t37.5 99.5q0 41 -23 64.5t-66 23.5q-51 0 -87.5 -36.5t-36.5 -94.5z" />
<glyph unicode="'" horiz-adv-x="456" d="M68 889l69 553h303l-143 -553h-229z" />
<glyph unicode="(" horiz-adv-x="618" d="M72 262q0 328 134 683t394 671l215 -105q-197 -256 -320.5 -605t-123.5 -632q0 -340 94 -618l-248 -102q-145 329 -145 708z" />
<glyph unicode=")" horiz-adv-x="618" d="M-141 -342q196 255 319 604.5t123 632.5q0 346 -92 618l248 103q145 -337 145 -709q0 -328 -134 -682.5t-394 -670.5z" />
<glyph unicode="*" horiz-adv-x="786" d="M176 1118l219 56l-186 94l145 174l135 -156l9 221l213 -26l-84 -209l192 127l68 -201l-217 -55l184 -92l-145 -177l-136 158l-8 -221l-215 27l84 206l-188 -122z" />
<glyph unicode="+" d="M82 479l49 262h338l68 359h299l-70 -359h340l-51 -262h-338l-68 -362h-299l70 362h-338z" />
<glyph unicode="," horiz-adv-x="555" d="M-70 -250q127 103 157 178.5t-19 139.5q-26 40 -27 90t20 93t65.5 72t102.5 29q91 0 146 -74q66 -89 31 -222q-50 -197 -299 -387q-31 -24 -66 -48z" />
<glyph unicode="-" horiz-adv-x="675" d="M82 430l47 250h506l-47 -250h-506z" />
<glyph unicode="." horiz-adv-x="565" d="M35 162q0 83 60 141.5t141 58.5q77 0 131.5 -55.5t54.5 -130.5q0 -85 -60 -143t-141 -58q-77 0 -131.5 55.5t-54.5 131.5z" />
<glyph unicode="/" horiz-adv-x="962" d="M-190 -330l1067 1880h313l-1067 -1880h-313z" />
<glyph unicode="0" horiz-adv-x="1224" d="M72 383q0 139 49 268t135 226.5t210.5 156t266.5 58.5q220 0 334.5 -107t114.5 -311q0 -146 -51.5 -276t-140.5 -223t-213 -147.5t-263 -54.5q-222 0 -332 104.5t-110 305.5zM385 428q0 -81 45.5 -133.5t126.5 -52.5q129 0 221 112.5t92 280.5q0 82 -43.5 135t-130.5 53 q-137 0 -224 -116.5t-87 -278.5z" />
<glyph unicode="1" horiz-adv-x="770" d="M-37 0l39 203q124 22 209 24l111 557l-209 -82v252l340 117h233l-162 -844q79 -6 158 -24l-37 -203h-682z" />
<glyph unicode="2" horiz-adv-x="964" d="M-20 0l49 254l190 129q199 128 274.5 208.5t75.5 153.5q0 40 -28 67.5t-84 27.5q-43 0 -92 -17q-17 -63 -43 -125h-193l61 328q176 66 345 66q197 0 288.5 -81.5t91.5 -215.5q0 -116 -82 -229.5t-233 -211.5l-119 -84l-2 -2q129 6 377 6l-53 -274h-823z" />
<glyph unicode="3" horiz-adv-x="931" d="M-96 -348l76 278q87 -34 170 -34q145 0 227 59t82 156q0 168 -373 118l43 252q213 0 323.5 69t110.5 181q0 52 -28 78.5t-80 26.5q-32 0 -86 -13q-16 -60 -43 -127h-199l66 336q160 60 321 60q184 0 283.5 -78.5t99.5 -220.5q0 -117 -75 -217t-204 -156v-2 q86 -18 137.5 -91.5t51.5 -166.5q0 -103 -47 -198.5t-132.5 -171t-219 -120.5t-293.5 -45q-108 0 -211 27z" />
<glyph unicode="4" horiz-adv-x="1136" d="M-10 0v252l614 813h414l-148 -784h189l-53 -281h-191l-29 -143q69 -5 156 -25l-37 -192h-637l37 192q114 21 180 25l27 143h-522zM291 276q88 5 280 5l95 491h-2z" />
<glyph unicode="5" horiz-adv-x="929" d="M-78 -362l72 280q59 -16 139 -16q135 0 228.5 60t93.5 161q0 61 -50 101.5t-130.5 57.5t-190.5 17l145 766h693l-60 -307l-403 4l-43 -223q185 -15 288 -109t103 -237q0 -108 -41.5 -201.5t-111.5 -160t-162.5 -113.5t-194 -70t-205.5 -23q-94 0 -170 13z" />
<glyph unicode="6" horiz-adv-x="1165" d="M92 410q0 87 16 181.5t51.5 195t87 193.5t127.5 176t167.5 144.5t213 97.5t257.5 36q55 0 145 -4l-53 -277q-74 12 -129 12q-165 0 -281.5 -75.5t-183.5 -206.5q-19 -38 -27 -58l2 -2q49 44 122 69.5t145 25.5q176 0 269 -95t93 -248q0 -172 -82 -310.5t-222 -215 t-310 -76.5q-197 0 -302.5 116.5t-105.5 320.5zM420 397q0 -65 33.5 -109t103.5 -44q103 0 166 77t63 197q0 61 -36.5 97t-102.5 36q-98 0 -162.5 -76.5t-64.5 -177.5z" />
<glyph unicode="7" horiz-adv-x="950" d="M47 -360q111 282 263.5 582t320.5 571q-47 -2 -260 -2q-14 -57 -49 -158h-246l82 432h868l-51 -268q-350 -567 -569 -1157h-359z" />
<glyph unicode="8" horiz-adv-x="1124" d="M49 301q0 139 78.5 239t216.5 177q-151 121 -151 289q0 82 37 160.5t104 142t173 102.5t232 39q209 0 311.5 -83t102.5 -218q0 -127 -74 -223t-211 -178q176 -131 176 -299q0 -136 -78.5 -246t-209 -170t-283.5 -60q-210 0 -317 91t-107 237zM375 348q0 -50 36 -81 t109 -31q80 0 138.5 47t58.5 116q0 61 -40 105.5t-108 83.5q-90 -52 -142 -108.5t-52 -131.5zM516 1034q0 -45 32 -83t99 -77q90 52 138.5 103t48.5 115q0 46 -36 74t-102 28q-83 0 -131.5 -47t-48.5 -113z" />
<glyph unicode="9" horiz-adv-x="1165" d="M10 -365l53 283q70 -18 146 -18q169 0 275 68t175 206l31 64l-2 2q-45 -44 -116 -68.5t-146 -24.5q-172 0 -259 97.5t-87 251.5q0 163 76 299t214.5 216.5t309.5 80.5q216 0 321 -116t105 -317q0 -88 -13.5 -180.5t-45.5 -195t-80.5 -195.5t-124.5 -178.5t-171 -148 t-226 -99.5t-283 -37q-74 0 -152 10zM406 553q0 -59 31.5 -96t99.5 -37q74 0 128.5 40t79.5 98.5t25 123.5q0 59 -35 100t-100 41q-101 0 -165 -80t-64 -190z" />
<glyph unicode=":" horiz-adv-x="614" d="M80 160q0 85 60 143.5t141 58.5q77 0 132.5 -55.5t55.5 -128.5q0 -86 -60 -144.5t-141 -58.5q-77 0 -132.5 55.5t-55.5 129.5zM186 725q0 85 60.5 144t140.5 59q78 0 133 -56t55 -129q0 -85 -58.5 -143.5t-139.5 -58.5q-78 0 -134.5 55.5t-56.5 128.5z" />
<glyph unicode=";" horiz-adv-x="614" d="M-20 -250q125 103 155 178.5t-18 139.5q-26 40 -27 90t20 93t65 72t101 29q92 0 147 -74q66 -88 32 -222q-50 -197 -297 -386q-33 -25 -68 -49zM186 725q0 85 60.5 144t140.5 59q78 0 133 -56t55 -129q0 -85 -58.5 -143.5t-139.5 -58.5q-78 0 -134.5 55.5t-56.5 128.5z " />
<glyph unicode="&#x3c;" d="M150 631l753 600l184 -215l-534 -408l383 -415l-231 -199z" />
<glyph unicode="=" d="M74 274l47 250h913l-47 -250h-913zM154 692l45 250h915l-47 -250h-913z" />
<glyph unicode="&#x3e;" d="M100 211l535 405l-383 416l231 199l555 -637l-753 -600z" />
<glyph unicode="?" horiz-adv-x="913" d="M152 139q0 83 57 137t137 54q76 0 124 -49t48 -117q0 -82 -57 -135.5t-137 -53.5q-76 0 -124 48.5t-48 115.5zM227 412q-13 80 1 147t47 113t76 85.5t88.5 71t83.5 61.5t62.5 65.5t24.5 74.5q0 146 -354 164l90 283q300 -10 454 -117t154 -268q0 -78 -25.5 -142.5 t-66 -109.5t-88.5 -84.5t-95 -75t-84.5 -73t-56.5 -87t-12 -108.5h-299z" />
<glyph unicode="@" horiz-adv-x="1935" d="M170 469q0 133 33.5 263.5t94.5 245.5t152 213t201 169t246.5 111t284.5 40q164 0 291.5 -43t208.5 -120.5t123 -181.5t42 -230q0 -136 -37.5 -256t-108 -213t-181.5 -147t-248 -54q-101 0 -151 48.5t-42 131.5h-8q-50 -74 -128 -127t-165 -53t-136.5 60t-49.5 180 q0 80 17.5 161t59 163t102 144.5t156 102t212.5 39.5q144 0 247 -47l-108 -387q-26 -95 -15 -134.5t64 -39.5q104 0 172 106.5t68 284.5q0 76 -23 139.5t-72 114.5t-134 80t-199 29q-128 0 -239.5 -43.5t-191.5 -117t-137.5 -170t-85.5 -203.5t-28 -216q0 -420 495 -420 q172 0 371 64l25 -240q-106 -37 -232 -57.5t-227 -20.5q-354 0 -536.5 166.5t-182.5 464.5zM831 569q0 -65 41 -65q52 0 113 80.5t105 238.5l22 78q-22 10 -65 10q-58 0 -109 -55.5t-79 -134t-28 -152.5z" />
<glyph unicode="A" horiz-adv-x="1406" d="M-66 0l37 203q49 15 101 18l600 1161h411l166 -1159q53 -7 94 -20l-38 -203h-562l37 203q4 1 58.5 9.5t81.5 10.5l-17 142h-440l-72 -142q23 -2 70.5 -10.5t54.5 -9.5l-39 -203h-543zM580 612h294l-34 260q-2 21 -9.5 104t-9.5 128h-4q-27 -71 -102 -232z" />
<glyph unicode="B" horiz-adv-x="1269" d="M-45 0l37 203q99 19 180 24l176 928q-68 5 -168 25l37 202h168q64 0 229.5 4.5t237.5 4.5q202 0 312 -70.5t110 -218.5q0 -262 -236 -365v-2q76 -25 123 -94t47 -156q0 -134 -77.5 -245t-224.5 -177.5t-335 -66.5q-35 0 -183 2t-259 2h-174zM492 262q38 -6 110 -6 q125 0 196.5 61t71.5 148q0 125 -186 125q-104 0 -133 -2zM598 827q27 -2 80 -2q121 0 187.5 54.5t66.5 148.5q0 107 -160 107q-14 0 -117 -5z" />
<glyph unicode="C" horiz-adv-x="1120" d="M88 471q0 116 23.5 228.5t68 215.5t114 190t157 151.5t203 100.5t245.5 36q185 0 315 -31l-86 -434h-241q0 82 6 162q-23 8 -80 8q-75 0 -138.5 -37t-105 -96.5t-70.5 -135.5t-42 -151t-13 -146q0 -126 62.5 -193t202.5 -67q66 0 143.5 16.5t134.5 43.5l-8 -293 q-186 -57 -363 -57q-126 0 -222 31t-152.5 79t-92.5 115t-48.5 130t-12.5 134z" />
<glyph unicode="D" horiz-adv-x="1417" d="M-45 0l39 203q100 19 178 24l176 928q-68 5 -168 25l37 202h170q46 0 204 4.5t247 4.5q280 0 429.5 -124.5t149.5 -373.5q0 -142 -34 -273.5t-105.5 -246t-173 -200t-245 -134.5t-312.5 -49q-90 0 -226 5t-192 5h-174zM492 272q58 -8 100 -8q90 0 165.5 28.5t128 77.5 t92 109.5t61.5 129t33 131.5t11 122q0 128 -65.5 194t-220.5 66q-107 0 -144 -4z" />
<glyph unicode="E" horiz-adv-x="1083" d="M-47 0l39 203q99 19 180 24l176 928q-71 5 -170 25l39 202h954l-69 -368h-238q0 66 6 119h-215l-59 -312h176q11 37 37 94h201l-78 -415h-203q-2 31 -2 96h-172l-66 -340h216q3 12 43 129h239l-72 -385h-962z" />
<glyph unicode="F" horiz-adv-x="1042" d="M-47 0l39 203q99 19 178 24l178 928q-68 5 -168 25l37 202h952l-71 -374h-238q-1 13 -1 29q0 37 5 89h-209l-63 -325h180q9 29 39 96h201l-80 -432h-205q-2 24 -1.5 47.5t1.5 48.5h-180l-64 -334q78 -5 170 -24l-37 -203h-663z" />
<glyph unicode="G" horiz-adv-x="1366" d="M90 504q0 188 66 353.5t183 286t286 190t366 69.5q212 0 395 -49l-77 -402h-246q0 80 6 156q-74 12 -106 12q-123 0 -225.5 -48t-168.5 -128t-102.5 -182t-36.5 -213q0 -125 72.5 -204t226.5 -79q81 0 158 21l43 223q-82 6 -166 27l41 200h577l-39 -207l-102 -18 l-84 -446q-226 -89 -483 -89q-151 0 -264.5 38.5t-182.5 109.5t-103 166t-34 213z" />
<glyph unicode="H" horiz-adv-x="1548" d="M-47 0l37 203q105 19 180 24l176 928q-68 5 -168 25l37 202h625l-39 -206q-63 -14 -142 -21l-57 -303h498l57 303q-74 7 -133 21l39 206h623l-37 -202q-113 -21 -181 -25l-176 -928q73 -5 170 -24l-39 -203h-624l39 207q56 12 141 20l68 348h-498l-68 -348q83 -7 135 -20 l-41 -207h-622z" />
<glyph unicode="I" horiz-adv-x="737" d="M-47 0l39 203q99 19 178 24l178 928q-68 5 -168 25l37 202h662l-39 -202q-108 -20 -178 -25l-179 -928q78 -5 170 -24l-37 -203h-663z" />
<glyph unicode="J" horiz-adv-x="741" d="M-63 -4l51 270q49 -18 108 -18q69 0 111 37.5t59 124.5l142 745q-65 4 -170 25l38 202h605l-39 -206q-85 -17 -123 -21l-148 -778q-12 -63 -33.5 -118t-59.5 -107.5t-88.5 -89.5t-123.5 -59.5t-160 -22.5q-94 0 -169 16z" />
<glyph unicode="K" horiz-adv-x="1435" d="M-47 0l39 203q99 19 178 24l178 928q-68 5 -168 25l37 202h608l-41 -206q-57 -15 -122 -21l-80 -407l428 413q-40 3 -86 15l39 206h587l-41 -204q-48 -10 -106 -17l-483 -454l311 -484q98 -12 125 -18l-39 -205h-608l41 207q52 11 96 14l-277 461l-86 -455q70 -7 119 -20 l-41 -207h-608z" />
<glyph unicode="L" horiz-adv-x="1042" d="M-47 0l39 203q99 19 178 24l178 928q-68 5 -168 25l37 202h662l-39 -202q-108 -20 -178 -25l-170 -891h221q34 108 71 187h230l-84 -451h-977z" />
<glyph unicode="M" horiz-adv-x="1935" d="M-53 0l37 203q54 15 106 18l322 934q-56 4 -160 25l39 202h583l74 -596q17 -167 17 -309h4q64 165 133 309l299 596h604l-41 -202q-117 -21 -172 -25l-31 -934q44 -3 99 -18l-37 -203h-553l37 203q95 16 135 20l28 473q7 126 31 336h-2q-67 -191 -119 -303l-360 -729 h-291l-80 717q-10 108 -10 219q0 48 2 96h-4q-37 -170 -90 -342l-146 -467q21 -2 119 -20l-39 -203h-534z" />
<glyph unicode="N" horiz-adv-x="1536" d="M-45 0l37 203q105 19 180 24l176 928q-65 4 -170 25l39 202h574l215 -645q46 -146 84 -325q26 243 59 401l61 342q-63 6 -118 21l38 206h543l-39 -206q-78 -17 -123 -21l-219 -1155h-395l-219 645q-60 188 -82 336q-26 -225 -53 -360l-68 -394q78 -8 129 -20l-41 -207 h-608z" />
<glyph unicode="O" horiz-adv-x="1409" d="M82 481q0 123 28.5 241t80 220t126.5 188.5t164.5 148t197.5 96t222 34.5q254 0 386 -132.5t132 -379.5q0 -196 -65 -369t-175.5 -294t-260 -191t-314.5 -70q-262 0 -392 134t-130 374zM416 537q0 -133 59 -202t174 -69q124 0 225.5 83.5t156 219t54.5 291.5 q0 119 -59 188.5t-178 69.5q-130 0 -230.5 -86t-151 -217t-50.5 -278z" />
<glyph unicode="P" horiz-adv-x="1198" d="M-45 0l37 203q100 19 178 24l178 928q-71 5 -170 25l39 202h174q50 0 182.5 5.5t217.5 5.5q137 0 242.5 -40.5t169 -126.5t63.5 -208q0 -261 -179 -424.5t-473 -163.5q-63 0 -94 4l-37 -207q78 -5 170 -24l-39 -203h-659zM571 698q27 -6 78 -6q79 0 138.5 26.5t90.5 70 t45.5 89t14.5 93.5q0 76 -50.5 117.5t-144.5 41.5q-65 0 -90 -2z" />
<glyph unicode="Q" horiz-adv-x="1409" d="M82 481q0 148 39.5 288t113 255t173 202t226.5 135t265 48q255 0 387.5 -132.5t132.5 -379.5q0 -239 -100.5 -441t-265.5 -292q32 -2 84 -15t88 -18q15 -2 39 -2q32 0 82 4l-52 -266q-73 -10 -125 -10q-20 0 -37 1q-59 6 -118.5 24.5t-102.5 38.5t-113 36t-149 16h-45 q-262 0 -392 134t-130 374zM418 537q0 -133 59 -202t174 -69q124 0 225.5 83.5t156 219t54.5 291.5q0 119 -59 188.5t-178 69.5q-130 0 -230.5 -86t-151 -217t-50.5 -278z" />
<glyph unicode="R" horiz-adv-x="1261" d="M-45 0l37 203q105 19 178 24l178 928q-68 5 -168 25l37 202h160q56 0 202.5 5.5t227.5 5.5q453 0 453 -338q0 -165 -95.5 -287.5t-273.5 -175.5q7 -16 19.5 -44.5t23 -52.5t18.5 -46l99 -224q83 -10 127 -22l-39 -203h-369l-188 541h-39l-60 -314q61 -7 105 -20l-41 -207 h-592zM588 772q32 -4 76 -4q115 0 187.5 68t72.5 170q0 135 -166 135q-61 0 -101 -4z" />
<glyph unicode="S" horiz-adv-x="989" d="M10 8l76 398h240q1 -25 1 -50q0 -58 -5 -114q32 -4 61 -4q93 0 150 51.5t57 118.5q0 33 -18.5 62t-48.5 50.5t-69 45.5t-79 46t-79 53.5t-69 67t-48.5 87.5t-18.5 114q0 96 38 181t109.5 151t184 104.5t251.5 38.5q173 0 297 -31l-71 -381h-232q-2 21 -2 47q0 46 6 109 q-8 2 -53 2q-90 0 -139 -44.5t-49 -117.5q0 -35 24 -66t62 -55.5t84.5 -50t93 -57.5t84.5 -70.5t62 -95t24 -125.5q0 -102 -46 -194t-126 -159t-193 -106t-241 -39q-197 0 -318 33z" />
<glyph unicode="T" horiz-adv-x="1212" d="M131 963l80 419h1147l-80 -419h-234q0 68 7 157h-160l-170 -893q78 -5 170 -24l-39 -203h-662l39 203q104 19 181 24l170 893h-162q-13 -46 -53 -157h-234z" />
<glyph unicode="U" horiz-adv-x="1421" d="M156 367q0 67 16 155l119 633q-38 4 -113 21l39 206h563l-39 -206q-59 -14 -137 -21l-123 -643q-12 -64 -12 -109q0 -88 47 -132t148 -44q137 0 208.5 70.5t102.5 234.5l119 623q-73 7 -131 21l38 206h560l-41 -206q-81 -17 -117 -21l-125 -647q-51 -270 -220.5 -402.5 t-439.5 -132.5q-126 0 -217.5 29.5t-144 84.5t-76.5 124t-24 156z" />
<glyph unicode="V" horiz-adv-x="1359" d="M158 1176l39 206h551l-37 -202q-14 -2 -64 -10.5t-74 -10.5l68 -532q15 -114 21 -258h2q70 158 129 276l266 514q-24 2 -70.5 11t-56.5 10l39 202h549l-39 -206q-68 -13 -99 -15l-604 -1161h-364l-164 1161q-34 2 -92 15z" />
<glyph unicode="W" horiz-adv-x="1955" d="M158 1176l39 206h532l-37 -202q-13 -2 -61 -10.5t-74 -10.5l4 -522q0 -150 -14 -287h2q68 195 106 281l340 751h312l63 -737q9 -91 9 -184q0 -55 -3 -111h2q48 190 86 297l191 512q-23 2 -64.5 10.5t-52.5 10.5l37 202h536l-38 -206q-60 -13 -99 -15l-448 -1161h-408 l-55 639q-6 89 -6 177q0 70 4 140h-2q-43 -156 -107 -313l-286 -643h-408l-8 1161q-34 2 -92 15z" />
<glyph unicode="X" horiz-adv-x="1419" d="M-61 0l38 205q73 13 125 16l459 498l-272 442q-52 3 -113 17l39 204h584l-41 -206q-52 -12 -86 -15l127 -258l221 258q-31 2 -80 15l39 206h580l-41 -204q-79 -13 -125 -19l-432 -471l282 -467q56 -3 111 -16l-39 -205h-584l39 207q68 12 90 14l-141 287l-244 -287 q23 -2 86 -14l-41 -207h-581z" />
<glyph unicode="Y" horiz-adv-x="1249" d="M156 1176l39 206h530l-41 -206q-37 -10 -102 -17l55 -215q29 -101 45 -190h6q32 64 119 200l123 205q-62 8 -99 17l41 206h537l-37 -206q-75 -14 -98 -15l-494 -700l-43 -234q81 -6 172 -24l-37 -203h-665l39 203q105 19 180 24l43 232l-219 702q-32 2 -94 15z" />
<glyph unicode="Z" horiz-adv-x="1093" d="M-8 0l47 250l614 766q39 50 92 106q-70 -4 -145 -4h-121q-23 -83 -53 -139h-238l76 403h928l-51 -260l-645 -774q-8 -9 -20.5 -24.5t-24 -29t-23.5 -26.5q27 4 178 4h125q21 76 57 152h230l-80 -424h-946z" />
<glyph unicode="[" horiz-adv-x="665" d="M-41 -426l385 2025h473l-51 -249h-182l-291 -1524h184l-47 -252h-471z" />
<glyph unicode="\" horiz-adv-x="1011" d="M223 1550h279l366 -1880h-280z" />
<glyph unicode="]" horiz-adv-x="665" d="M-96 -426l47 252h184l289 1524h-182l47 249h473l-387 -2025h-471z" />
<glyph unicode="^" d="M154 788l440 594h233l226 -589l-232 -111l-151 481l-328 -481z" />
<glyph unicode="_" d="M-174 -500l47 252h1104l-47 -252h-1104z" />
<glyph unicode="`" horiz-adv-x="755" d="M299 1352l139 204l379 -253l-117 -170z" />
<glyph unicode="a" horiz-adv-x="1171" d="M51 299q0 149 41.5 281t121.5 235.5t208.5 164t290.5 60.5q216 0 389 -34l-148 -768q82 -18 156 -21l-37 -201q-185 -20 -351 -20q-51 0 -101 2q26 123 77 266h-4q-177 -289 -397 -289q-246 0 -246 324zM369 358q0 -58 14 -85t45 -27q55 0 123 80t120 191.5t72 209.5 l11 55q-58 13 -95 13q-69 0 -126 -41.5t-92 -107t-53.5 -140.5t-18.5 -148z" />
<glyph unicode="b" horiz-adv-x="1120" d="M41 20l238 1237q-96 16 -164 21l39 201q184 20 364 20q55 0 111 -2l-76 -395q-25 -139 -111 -350h4q166 290 398 290q248 0 248 -323q0 -119 -25.5 -227.5t-79.5 -202.5t-131 -163.5t-187 -109t-241 -39.5q-208 0 -387 43zM389 236q59 -13 94 -13q90 0 158.5 71 t100.5 168.5t32 196.5q0 113 -59 113q-55 0 -123.5 -79.5t-121 -191t-71.5 -208.5z" />
<glyph unicode="c" horiz-adv-x="882" d="M57 344q0 157 47.5 288.5t128 219.5t189 137t229.5 49q144 0 271 -30l-68 -351h-197q-1 13 -1 27q0 39 6 90q-16 4 -48 4q-92 0 -162.5 -105.5t-70.5 -258.5q0 -81 40.5 -122.5t131.5 -41.5q107 0 205 39l4 -264q-146 -45 -295 -45q-213 0 -311.5 92.5t-98.5 271.5z" />
<glyph unicode="d" horiz-adv-x="1171" d="M51 299q0 149 41.5 281t121.5 235.5t208.5 164t290.5 60.5q39 0 88 -8l43 225q-91 16 -172 21l37 201q190 20 374 20q57 0 113 -2l-242 -1259q82 -18 156 -21l-39 -201q-184 -20 -349 -20q-51 0 -99 2q17 103 75 266h-4q-177 -289 -397 -289q-246 0 -246 324zM369 358 q0 -58 14 -85t45 -27q55 0 123 80t120 191.5t72 209.5l11 55q-58 13 -95 13q-69 0 -126 -41.5t-92 -107t-53.5 -140.5t-18.5 -148z" />
<glyph unicode="e" horiz-adv-x="1011" d="M57 332q0 162 49 298t131 224.5t188 137t222 48.5q80 0 142 -15.5t100.5 -40.5t63.5 -59.5t34.5 -70t9.5 -74.5q0 -127 -80.5 -213t-219 -127.5t-332.5 -46.5q0 -8 -1.5 -27t-1.5 -26q0 -67 36 -93t130 -26q146 0 308 62l2 -238q-198 -68 -408 -68q-199 0 -286 90.5 t-87 264.5zM395 594q145 3 220 40.5t75 104.5q0 72 -82 72q-78 0 -131.5 -62t-81.5 -155z" />
<glyph unicode="f" horiz-adv-x="739" d="M-252 -483l72 256q58 -15 104 -15q75 0 116.5 46t65.5 173l154 801h-166l47 240h166l15 78q35 207 153 312t340 105q94 0 162 -16l-68 -252q-70 17 -106 17q-77 0 -120 -41t-60 -138l-11 -65h205l-47 -240h-205l-151 -805q-44 -240 -167.5 -357.5t-320.5 -117.5 q-88 0 -178 19z" />
<glyph unicode="g" horiz-adv-x="1130" d="M-63 -461l73 283q125 -64 283 -64q137 0 213.5 54t99.5 168q17 98 90 280l-4 2q-174 -287 -395 -287q-246 0 -246 324q0 149 41.5 281t121.5 235.5t208.5 164t290.5 60.5q216 0 389 -34l-203 -1051q-44 -233 -199.5 -347t-453.5 -114q-166 0 -309 45zM369 358 q0 -58 14 -85t45 -27q55 0 123 80t120 191.5t72 209.5l11 55q-58 13 -95 13q-69 0 -126 -41.5t-92 -107t-53.5 -140.5t-18.5 -148z" />
<glyph unicode="h" horiz-adv-x="1198" d="M37 0l242 1257q-96 16 -164 21l39 201q184 20 364 20q55 0 111 -2l-76 -399q-23 -127 -107 -340h5q165 284 401 284q144 0 197 -91q34 -59 34 -143q0 -46 -10 -99l-90 -473q82 -18 154 -21l-37 -201q-151 -18 -333 -18q-65 0 -134 2l121 633q7 44 7 73q0 22 -4 36 q-10 32 -46 32q-50 0 -116.5 -76t-121.5 -191.5t-76 -225.5l-53 -279h-307z" />
<glyph unicode="i" horiz-adv-x="661" d="M88 801l41 203q197 18 360 18q54 0 105 -2l-150 -784q86 -15 154 -19l-37 -201q-165 -20 -360 -20q-55 0 -111 2l154 786q-63 11 -156 17zM307 1309q0 83 60.5 139.5t140.5 56.5q77 0 127.5 -51t50.5 -119q0 -85 -60 -141.5t-141 -56.5q-77 0 -127.5 51t-50.5 121z" />
<glyph unicode="j" horiz-adv-x="620" d="M-250 -481l66 264q54 -23 102 -23q72 0 109.5 45.5t60.5 159.5l156 815q-98 17 -158 21l41 200q184 21 362 21q53 0 105 -2l-205 -1077q-20 -105 -57 -184t-95.5 -139t-145.5 -91t-200 -31q-69 0 -141 21zM309 1309q0 83 61 139.5t142 56.5q76 0 127 -51t51 -119 q0 -85 -61 -141.5t-142 -56.5q-77 0 -127.5 51t-50.5 121z" />
<glyph unicode="k" horiz-adv-x="1165" d="M37 0l239 1257q-93 16 -161 21l39 201q184 20 364 20q55 0 111 -2l-86 -442q-16 -89 -72 -232h4q60 105 157.5 161t219.5 56q143 0 219 -71.5t76 -184.5q0 -145 -96 -237.5t-285 -143.5l108 -174q76 -6 158 -22l-37 -207h-374l-205 377l-72 -377h-307zM504 549 q165 20 241 62t76 108q0 30 -18.5 48.5t-52.5 18.5q-66 0 -131.5 -67t-114.5 -170z" />
<glyph unicode="l" horiz-adv-x="606" d="M37 -2l242 1259q-96 16 -164 21l39 201q185 20 365 20q55 0 110 -2l-240 -1259q102 -17 156 -21l-39 -201q-186 -20 -362 -20q-54 0 -107 2z" />
<glyph unicode="m" horiz-adv-x="1841" d="M88 801l41 203q164 18 331 18q60 0 120 -2q-25 -126 -78 -262h4q165 284 395 284q95 0 152 -50.5t57 -149.5q0 -30 -18 -92l4 -2q163 294 399 294q95 0 153 -44q58 -46 70 -120q5 -33 5 -69q0 -47 -9 -102l-88 -469q62 -14 154 -21l-37 -203q-151 -18 -334 -18 q-66 0 -135 2l121 633q8 41 8 70q0 71 -49 71q-47 0 -111.5 -70.5t-121.5 -187.5t-79 -235l-53 -279h-305l121 631q8 46 8 76q1 20 -3 33q-10 32 -46 32q-48 0 -112.5 -71t-120.5 -187.5t-78 -234.5l-54 -279h-307l150 780q-93 17 -154 21z" />
<glyph unicode="n" horiz-adv-x="1253" d="M88 801l41 203q167 18 332 18q60 0 119 -2q-28 -134 -78 -262h4q165 284 401 284q144 0 197 -91q34 -59 34 -143q0 -46 -10 -99l-90 -473q82 -18 154 -21l-37 -201q-151 -18 -333 -18q-65 0 -134 2l121 633q8 44 8 73q-1 22 -5 36q-10 32 -46 32q-49 0 -115.5 -75.5 t-121.5 -190.5t-76 -223l-54 -283h-307l150 780q-95 17 -154 21z" />
<glyph unicode="o" horiz-adv-x="1120" d="M53 346q0 159 52.5 292.5t140 220t200 134t234.5 47.5q412 0 412 -374q0 -152 -52 -283t-138.5 -219t-199.5 -137.5t-235 -49.5q-219 0 -316.5 94.5t-97.5 274.5zM375 393q0 -145 131 -145q80 0 142 57.5t92 142.5t30 179q0 72 -32.5 108.5t-104.5 36.5q-79 0 -140 -61 t-89.5 -146t-28.5 -172z" />
<glyph unicode="p" horiz-adv-x="1169" d="M-154 -485l39 200q77 21 162 27l195 1038q-88 16 -154 21l37 200q157 22 332 22q60 0 123 -3q-23 -108 -78 -264h4q76 135 175.5 210.5t217.5 75.5q248 0 248 -323q0 -119 -25.5 -227t-79 -201.5t-130.5 -162t-186.5 -107.5t-240.5 -39q-33 0 -88 6l-45 -246 q95 -7 170 -27l-39 -200h-637zM444 242q54 -15 95 -15q68 0 125 40.5t92 105t54 139t19 147.5q0 113 -59 113q-55 0 -123 -78.5t-120 -189t-72 -207.5z" />
<glyph unicode="q" horiz-adv-x="1130" d="M51 299q0 149 41.5 281t121.5 235.5t208.5 164t290.5 60.5q201 0 389 -34l-242 -1264q75 -5 156 -27l-39 -200h-641l39 200q94 21 180 27l31 160q32 169 112 362h-4q-177 -289 -397 -289q-246 0 -246 324zM369 358q0 -58 14 -85t45 -27q55 0 123 80t120 191.5t72 209.5 l11 55q-58 13 -95 13q-69 0 -126 -41.5t-92 -107t-53.5 -140.5t-18.5 -148z" />
<glyph unicode="r" horiz-adv-x="827" d="M88 801l41 203q165 18 328 18q59 0 118 -2q-24 -125 -75 -264h4q56 105 110 170q56 64 130 96q48 20 102 20q29 0 61 -6l-71 -299q-27 8 -53 8q-99 0 -185 -116q-108 -147 -160 -414l-39 -215h-307l152 780q-83 16 -156 21z" />
<glyph unicode="s" horiz-adv-x="862" d="M-2 6l61 318h199q0 -43 -8 -117q36 -8 86 -8q63 0 99 25t36 69q0 24 -20 44.5t-52.5 37t-71.5 34t-78.5 41t-72 52.5t-52.5 74.5t-20 101.5q0 154 131 258t361 104q126 0 266 -30l-57 -301h-197q0 42 4 112q-42 6 -65 6q-61 0 -97 -23t-36 -63q0 -27 27.5 -51.5t68.5 -42 t89 -44t89 -56t68.5 -79.5t27.5 -112q0 -73 -35.5 -141t-99 -121t-162 -85t-215.5 -32t-274 29z" />
<glyph unicode="t" horiz-adv-x="755" d="M78 778l47 240h149l58 301l319 61l-69 -362h217l-49 -240h-215l-76 -413q-7 -37 -7 -62q0 -24 6 -38q14 -27 68 -27q37 0 119 14l-33 -246q-116 -29 -221 -29q-168 1 -224 85q-34 51 -34 142q0 59 14 134l82 440h-151z" />
<glyph unicode="u" horiz-adv-x="1253" d="M88 801l41 200q188 21 362 21q51 0 101 -2l-121 -633q-8 -44 -8 -73q1 -22 5 -36q10 -32 46 -32q50 0 116 75.5t121.5 192.5t75.5 227l9 41q-99 16 -134 19l39 205q169 16 314 16q69 0 133 -4l-152 -780q83 -15 156 -21l-37 -201q-176 -20 -341 -20q-55 0 -109 2 q16 116 73 262h-4q-166 -285 -401 -285q-144 -1 -197 91q-34 59 -34 144q0 46 10 99l90 471q-95 16 -154 21z" />
<glyph unicode="v" horiz-adv-x="1101" d="M68 801l38 203q153 17 316 17q44 0 90 -1l23 -412q1 -33 1 -82.5t-1 -112.5t0 -91h4l329 741l322 -84l-535 -979h-389l-65 780q-86 17 -133 21z" />
<glyph unicode="w" horiz-adv-x="1628" d="M55 801l39 203q151 17 306 17q42 0 85 -1l52 -701h2l229 412l-4 49q-91 16 -150 21l39 203q138 18 305 18q51 0 105 -2l20 -703h2l306 744l319 -80l-498 -981h-381l-28 377l-195 -377h-334l-81 780q-77 15 -138 21z" />
<glyph unicode="x" horiz-adv-x="1087" d="M-55 76l413 452l-114 263q-68 6 -138 20l39 207h351l118 -289l291 356l252 -141l-399 -450l121 -267q69 -7 137 -20l-39 -207h-352l-121 293l-297 -363z" />
<glyph unicode="y" horiz-adv-x="1114" d="M-156 -485l50 264q62 -21 122 -21q100 0 168 62q76 67 76 221q0 343 -57 739q-64 14 -140 21l39 203q155 18 303 18q53 0 105 -2q37 -254 37 -438q0 -127 -15 -303h3q56 107 115.5 246.5t97.5 240t110 297.5l320 -82q-224 -516 -400.5 -811.5t-357.5 -476.5 q-198 -195 -418 -195q-82 0 -158 17z" />
<glyph unicode="z" horiz-adv-x="935" d="M-16 0l45 231l530 564q-58 -4 -141 -4h-58q-14 -43 -41 -109h-202l63 336h778l-45 -234l-518 -544q35 2 140 2h67q23 71 39 110h203l-68 -352h-792z" />
<glyph unicode="{" horiz-adv-x="753" d="M66 520l45 234q100 3 156.5 49t78.5 172l25 135q43 256 160.5 372.5t330.5 116.5h49l-49 -249q-66 0 -102 -18t-60 -68t-43 -152l-26 -135q-60 -312 -248 -340v-4q53 -7 85.5 -42.5t45 -110.5t-13.5 -193l-43 -219q-15 -78 -16.5 -124t12.5 -73t41.5 -36t76.5 -9 l-47 -252h-47q-212 0 -284 116.5t-21 377.5l43 221q25 126 -14 176t-135 55z" />
<glyph unicode="|" horiz-adv-x="581" d="M-14 -485l389 2048h246l-392 -2048h-243z" />
<glyph unicode="}" horiz-adv-x="753" d="M-100 -426l47 252q67 0 103 18.5t60 69.5t44 154l43 219q65 324 252 348v4q-180 28 -119 338l26 135q11 62 13.5 103t-2.5 68.5t-22 41.5t-41 19.5t-64 5.5l49 249h45q213 0 284 -115.5t21 -373.5l-27 -135q-23 -125 15.5 -171.5t136.5 -49.5l-43 -234 q-100 -5 -156.5 -54t-81.5 -177l-43 -221q-51 -265 -165.5 -379.5t-325.5 -114.5h-49z" />
<glyph unicode="~" d="M162 866q9 191 104 293.5t250 102.5q66 0 116.5 -21.5t79.5 -52t51 -60.5t45.5 -51.5t49.5 -21.5q82 0 100 153h232q-9 -190 -104 -291.5t-252 -101.5q-66 0 -116 21.5t-78.5 51.5t-50.5 60.5t-45.5 52t-49.5 21.5q-83 0 -101 -156h-231z" />
<glyph unicode="&#xa1;" horiz-adv-x="649" d="M-41 -438l244 1044h266l-152 -1044h-358zM203 854q0 81 58 134.5t138 53.5q75 0 123.5 -48.5t48.5 -114.5q0 -83 -57 -137t-137 -54q-76 0 -125 49t-49 117z" />
<glyph unicode="&#xa2;" horiz-adv-x="1157" d="M127 580q0 132 39 246.5t113 203.5t189 146t261 71l31 160h196l-30 -154q54 -1 125 -15t118 -32l-69 -360h-191q4 79 9 127q-68 20 -136 20q-159 0 -242 -91t-83 -253q0 -109 70.5 -165t191.5 -56q65 0 151.5 13.5t143.5 35.5l-2 -256q-129 -50 -291 -59l-39 -197h-199 l37 193q-188 19 -290.5 127t-102.5 295z" />
<glyph unicode="&#xa3;" horiz-adv-x="1021" d="M18 0l43 225q99 43 154.5 103.5t73.5 156.5q8 72 8 101h-174l45 241h151q4 103 15 189q34 212 153.5 302.5t343.5 90.5q57 0 133 -9.5t123 -23.5l-65 -342h-199q0 39 4 117q-10 2 -34 2q-65 0 -99.5 -34.5t-48.5 -108.5q-4 -18 -7.5 -42t-5 -42t-3.5 -50t-4 -49h254 l-45 -241h-230q-4 -45 -10 -74q-17 -86 -51.5 -142t-102.5 -110q87 6 113 6h137q4 11 23 69t28 83h234l-80 -418h-877z" />
<glyph unicode="&#xa4;" d="M27 260l168 172q-27 56 -27 139q0 201 129 347l-107 184l267 164l106 -193q71 19 137 19q60 0 109 -15l172 191l213 -181l-168 -174q21 -51 21 -114q0 -198 -129 -359l116 -192l-270 -168l-113 205q-74 -23 -137 -23q-49 0 -94 10l-174 -190zM442 616q0 -59 29 -94 t86 -35q54 0 97 25.5t68 65.5t37.5 84.5t12.5 87.5q0 116 -121 116q-92 0 -150.5 -74.5t-58.5 -175.5z" />
<glyph unicode="&#xa5;" horiz-adv-x="1245" d="M104 276l35 170h310l20 103h-309l28 166h213l-163 446q-37 3 -93 15l39 206h518l-40 -206q-40 -9 -105 -17l51 -170q50 -136 58 -170h6q49 78 129 182l110 158q-62 7 -102 17l39 206h532l-39 -206q-68 -13 -98 -15l-338 -446h221l-30 -166h-320l-20 -103h319l-33 -170 h-319l-14 -71q73 -5 176 -25l-33 -180h-659l32 180q116 21 174 25l15 71h-310z" />
<glyph unicode="&#xa6;" horiz-adv-x="581" d="M-14 -485l147 774h244l-148 -774h-243zM233 809l142 754h246l-144 -754h-244z" />
<glyph unicode="&#xa7;" horiz-adv-x="1075" d="M49 -326l66 265q89 -27 153 -27q56 0 97 13.5t61 36t28.5 43.5t8.5 42q0 30 -18 60.5t-46.5 60t-63.5 61.5t-70 69t-63.5 78t-46.5 95t-18 113q0 113 57 209t156 161q-45 71 -45 160q0 50 16.5 102t57 106t99.5 96t152 68.5t206 26.5q90 0 190 -14l-63 -260 q-73 21 -144 21q-95 0 -135.5 -38t-40.5 -94q0 -35 33.5 -75.5t81 -84.5t95 -96.5t81 -131t33.5 -169.5q0 -105 -58 -200t-149 -154q37 -61 37 -147q0 -80 -35.5 -153.5t-101.5 -132.5t-173 -94.5t-239 -35.5q-114 0 -199 20zM420 647q0 -54 41.5 -110t150.5 -162 q74 49 74 141q0 56 -39.5 111t-150.5 170q-76 -56 -76 -150z" />
<glyph unicode="&#xa8;" horiz-adv-x="1095" d="M322 1317q0 68 50 117t117 49q66 0 111 -47t45 -111q0 -70 -50 -118t-118 -48q-65 0 -110 46.5t-45 111.5zM750 1317q0 68 50 117t118 49q66 0 110.5 -47t44.5 -111q0 -70 -50 -118t-118 -48q-65 0 -110 46.5t-45 111.5z" />
<glyph unicode="&#xa9;" horiz-adv-x="1536" d="M111 676q6 146 67.5 278.5t161 228t233 152t277.5 56.5q192 0 349 -94t243.5 -255.5t79.5 -353.5q-6 -146 -68 -278.5t-161 -228t-233 -152t-278 -56.5q-145 0 -272.5 55.5t-217 149.5t-138.5 224t-43 274zM342 676q-5 -128 53.5 -237t164.5 -172.5t235 -63.5t241 64.5 t180.5 176t73.5 244.5q6 195 -125.5 333t-326.5 138q-129 0 -241.5 -64t-181 -175.5t-73.5 -243.5zM483 633q23 172 141 286.5t312 114.5q89 0 162 -22l-49 -258h-154q0 55 2 84q-5 0 -15.5 1t-15.5 1q-59 0 -93 -50.5t-44 -132.5q-12 -79 16.5 -111t108.5 -32q59 0 145 25 l-22 -195q-129 -29 -205 -29q-174 0 -244.5 84t-44.5 234z" />
<glyph unicode="&#xaa;" horiz-adv-x="927" d="M51 311l47 242h701l-47 -242h-701zM111 864q0 110 32.5 207t93 172t155.5 118.5t212 43.5q158 0 297 -25q-66 -324 -102 -528l131 -18l-31 -177q-194 -22 -371 -16q27 94 54 166h-2q-114 -184 -277 -184q-93 0 -142.5 61t-49.5 180zM362 920q0 -78 41 -78q59 0 128.5 101 t86.5 214l7 41q-40 8 -68 8q-58 0 -103.5 -44t-68.5 -109t-23 -133z" />
<glyph unicode="&#xab;" horiz-adv-x="1101" d="M98 614l285 404l229 -113l-221 -307l111 -313l-258 -105zM569 612l303 394l222 -113l-232 -295l129 -297l-254 -108z" />
<glyph unicode="&#xac;" d="M82 479l49 262h936l-104 -557h-279l55 295h-657z" />
<glyph unicode="&#xad;" horiz-adv-x="675" d="M82 430l47 250h506l-47 -250h-506z" />
<glyph unicode="&#xae;" horiz-adv-x="1150" d="M195 1059q0 148 73 268t191 185t252 65q197 0 332 -132.5t135 -328.5q0 -110 -43.5 -207t-115 -164t-165 -106t-192.5 -39q-197 0 -332 132t-135 327zM379 1071q0 -125 84 -214t207 -89q130 0 226.5 98t96.5 242q0 123 -84 212t-207 89q-130 0 -226.5 -98t-96.5 -240z M471 874l16 84q17 7 43 11l48 254l-39 10l18 84h51q49 2 142 2q85 0 127 -31.5t32 -95.5q-4 -41 -32 -75t-68 -48q13 -9 22 -35l17 -65q20 -3 33 -8l-15 -87h-139l-29 158h-30l-13 -63q22 -4 33 -8l-16 -87h-201zM686 1133q2 0 11 -1.5t14 -1.5q29 0 46 14t19 38 q2 15 -8 23.5t-33 8.5q-9 0 -19.5 -1t-13.5 -1z" />
<glyph unicode="&#xaf;" horiz-adv-x="792" d="M260 1204l41 226h565l-43 -226h-563z" />
<glyph unicode="&#xb0;" horiz-adv-x="794" d="M209 1182q0 79 32 144t83.5 105t113 61t123.5 21q82 0 142.5 -22.5t94.5 -61.5t50 -85.5t16 -100.5q0 -67 -20.5 -123.5t-55.5 -95t-81 -65.5t-97 -39.5t-104 -12.5q-142 0 -219.5 75.5t-77.5 199.5zM436 1202q0 -45 25.5 -72.5t70.5 -27.5q46 0 75.5 34t29.5 89 q0 37 -23 67.5t-65 30.5q-48 0 -80.5 -33t-32.5 -88z" />
<glyph unicode="&#xb1;" d="M0 0l49 260h957l-52 -260h-954zM129 723l47 258h338l70 356h297l-68 -356h338l-49 -258h-338l-68 -356h-297l68 356h-338z" />
<glyph unicode="&#xb2;" horiz-adv-x="808" d="M74 553l43 223l178 115q137 80 191.5 129.5t54.5 93.5q0 62 -68 62q-43 0 -76 -13q-5 -18 -39 -108h-182l55 291q151 53 308 53q165 0 242 -63t77 -171q0 -70 -53 -148t-166 -147l-121 -79q114 6 295 6l-45 -244h-694z" />
<glyph unicode="&#xb3;" horiz-adv-x="755" d="M70 553l61 199q112 -23 180 -23q172 0 172 84q0 15 -5.5 25.5t-24.5 19.5t-52 12.5t-91.5 0.5t-139.5 -13l37 180q130 0 205.5 16t101 40t25.5 61q0 53 -68 53q-38 0 -65 -8q-1 -4 -33 -90h-185l48 252q178 37 286 37q72 0 127.5 -11t90 -29t57 -43.5t31 -52t8.5 -57.5 q0 -70 -42.5 -125.5t-113.5 -85.5q51 -13 77.5 -55t26.5 -90q0 -142 -135.5 -230t-337.5 -88q-109 0 -241 21z" />
<glyph unicode="&#xb4;" horiz-adv-x="794" d="M332 1303l403 253l117 -210l-422 -213z" />
<glyph unicode="&#xb5;" horiz-adv-x="1280" d="M33 -485q6 145 27.5 304t40.5 256.5t59 285t55 260.5l31 159q-91 15 -156 21l39 203q226 25 467 16l-109 -567q-20 -126 -3.5 -166.5t75.5 -40.5q51 0 118 75.5t121.5 191.5t73.5 226l7 43q-100 16 -131 19l38 205q247 23 445 12l-107 -555q-20 -109 -20 -162 q0 -35 10.5 -49t36.5 -14q25 0 37 4l-23 -248q-91 -17 -135 -17q-116 0 -165.5 41t-49.5 127q0 51 21 115h-2q-57 -125 -145 -200.5t-175 -75.5q-51 0 -91 19.5t-50 53.5q0 -98 -4 -133q-34 -220 -31 -409h-305z" />
<glyph unicode="&#xb6;" horiz-adv-x="1204" d="M172 827q0 110 41 209.5t116 177t189.5 123t251.5 45.5l-178 -933q-208 0 -314 101t-106 277zM494 -197l47 252h135l254 1327h377l-47 -252h-125l-252 -1327h-389z" />
<glyph unicode="&#xb7;" horiz-adv-x="589" d="M133 606q0 83 60.5 141t142.5 58q80 0 135 -56.5t55 -132.5q0 -84 -60 -142t-144 -58q-80 0 -134.5 56t-54.5 134z" />
<glyph unicode="&#xb8;" horiz-adv-x="802" d="M72 -479q59 59 86 107t26 103t-37 117l263 72q110 -220 -101 -399h-237z" />
<glyph unicode="&#xb9;" horiz-adv-x="708" d="M66 553l34 186q96 20 181 25l67 360l-162 -63v235l252 86h254l-117 -618q49 -4 146 -25l-37 -186h-618z" />
<glyph unicode="&#xba;" horiz-adv-x="901" d="M53 311l47 242h691l-50 -242h-688zM127 895q0 220 133 365t342 145q320 0 320 -275q0 -115 -40 -211.5t-106.5 -160.5t-152.5 -99.5t-179 -35.5q-166 0 -241.5 69.5t-75.5 202.5zM387 932q0 -94 86 -94q61 0 105.5 41t64 98.5t19.5 120.5q0 47 -21.5 71.5t-73.5 24.5 q-59 0 -102 -45.5t-60.5 -103t-17.5 -113.5z" />
<glyph unicode="&#xbb;" horiz-adv-x="1101" d="M74 307l229 295l-127 297l252 107l170 -418l-303 -393zM555 293l221 309l-110 313l258 105l145 -434l-285 -406z" />
<glyph unicode="&#xbc;" horiz-adv-x="1576" d="M-29 -6l1438 1479l127 -117l-1440 -1477zM72 686l22 139q92 19 144 23l65 346l-135 -49l-8 172l196 69h228l-101 -538q20 -2 111 -23l-27 -139h-495zM731 176l6 164l307 356h318l-68 -352h115l-35 -168h-112l-9 -45q38 -9 93 -25l-19 -106h-450l18 106q61 16 115 27l8 43 h-287zM928 344h131l35 199z" />
<glyph unicode="&#xbd;" horiz-adv-x="1652" d="M-33 -6l1438 1479l127 -117l-1440 -1477zM72 686l22 139q92 19 144 23l65 346l-135 -49l-8 172l196 69h228l-101 -538q20 -2 111 -23l-27 -139h-495zM778 0l39 203l174 104q111 60 152 90t49 68q6 32 -9 49.5t-46 17.5q-27 0 -60 -10q-7 -14 -19.5 -43.5t-21.5 -46.5 h-159l55 238q149 49 301 49q151 0 212.5 -53t43.5 -144q-14 -81 -63.5 -134t-133.5 -103l-141 -88h285l-37 -197h-621z" />
<glyph unicode="&#xbe;" horiz-adv-x="1576" d="M-29 -6l1438 1479l127 -117l-1440 -1477zM61 682q11 31 30 91.5t24 74.5q81 -23 147 -23q137 0 150 70q7 34 -37 45.5t-144 5.5l-79 -6l30 156h33q135 0 186 25t58 67q6 29 -12.5 45t-57.5 16q-5 0 -47 -6q-10 -43 -31 -74h-145l41 205q141 31 254 31q135 0 200 -43.5 t44 -138.5q-19 -109 -134 -162q55 -13 78.5 -55t12.5 -99q-21 -110 -133 -175.5t-291 -65.5q-87 0 -177 16zM731 176l6 164l307 356h318l-68 -352h115l-35 -168h-112l-9 -45q38 -9 93 -25l-19 -106h-450l18 106q61 16 115 27l8 43h-287zM928 344h131l35 199z" />
<glyph unicode="&#xbf;" horiz-adv-x="913" d="M-18 -74q0 77 25.5 142t66 110t88.5 84.5t94.5 75t84 73t56.5 87t11 108.5h301q13 -80 -1 -147t-47 -113t-76 -85.5t-88.5 -71t-83.5 -61.5t-62.5 -65.5t-24.5 -74.5q0 -146 354 -164l-90 -283q-300 10 -454 117t-154 268zM418 854q0 82 57 135t137 53q76 0 124 -48 t48 -115q0 -83 -57 -137t-137 -54q-76 0 -124 49t-48 117z" />
<glyph unicode="&#xc0;" horiz-adv-x="1406" d="M-66 0l37 203q49 15 101 18l600 1161h411l166 -1159q53 -7 94 -20l-38 -203h-562l37 203q4 1 58.5 9.5t81.5 10.5l-17 142h-440l-72 -142q23 -2 70.5 -10.5t54.5 -9.5l-39 -203h-543zM573 1559l93 217l428 -154l-68 -168zM580 612h294l-34 260q-2 21 -9.5 104t-9.5 128 h-4q-27 -71 -102 -232z" />
<glyph unicode="&#xc1;" horiz-adv-x="1406" d="M-66 0l37 203q49 15 101 18l600 1161h411l166 -1159q53 -7 94 -20l-38 -203h-562l37 203q4 1 58.5 9.5t81.5 10.5l-17 142h-440l-72 -142q23 -2 70.5 -10.5t54.5 -9.5l-39 -203h-543zM580 612h294l-34 260q-2 21 -9.5 104t-9.5 128h-4q-27 -71 -102 -232zM719 1622 l465 154l39 -217l-475 -105z" />
<glyph unicode="&#xc2;" horiz-adv-x="1406" d="M-66 0l37 203q49 15 101 18l600 1161h411l166 -1159q53 -7 94 -20l-38 -203h-562l37 203q4 1 58.5 9.5t81.5 10.5l-17 142h-440l-72 -142q23 -2 70.5 -10.5t54.5 -9.5l-39 -203h-543zM565 1599l363 181l321 -178l-80 -148l-262 117l-289 -117zM580 612h294l-34 260 q-2 21 -9.5 104t-9.5 128h-4q-27 -71 -102 -232z" />
<glyph unicode="&#xc3;" horiz-adv-x="1406" d="M-66 0l37 203q49 15 101 18l600 1161h411l166 -1159q53 -7 94 -20l-38 -203h-562l37 203q4 1 58.5 9.5t81.5 10.5l-17 142h-440l-72 -142q23 -2 70.5 -10.5t54.5 -9.5l-39 -203h-543zM516 1589q108 180 275 180q47 0 86.5 -14t61.5 -31t48.5 -31t50.5 -14q63 0 113 84 l147 -102q-108 -180 -276 -180q-47 0 -86.5 14t-61 31t-48 31t-50.5 14q-35 0 -60.5 -20t-53.5 -64zM580 612h294l-34 260q-2 21 -9.5 104t-9.5 128h-4q-27 -71 -102 -232z" />
<glyph unicode="&#xc4;" horiz-adv-x="1406" d="M-66 0l37 203q49 15 101 18l600 1161h411l166 -1159q53 -7 94 -20l-38 -203h-562l37 203q4 1 58.5 9.5t81.5 10.5l-17 142h-440l-72 -142q23 -2 70.5 -10.5t54.5 -9.5l-39 -203h-543zM547 1604q0 70 45.5 116.5t109.5 46.5q62 0 105 -44.5t43 -102.5q0 -69 -47.5 -115.5 t-110.5 -46.5q-62 0 -103.5 43t-41.5 103zM580 612h294l-34 260q-2 21 -9.5 104t-9.5 128h-4q-27 -71 -102 -232zM979 1604q0 69 46 116t110 47q62 0 104.5 -44.5t42.5 -102.5q0 -69 -47.5 -115.5t-110.5 -46.5q-62 0 -103.5 43t-41.5 103z" />
<glyph unicode="&#xc5;" horiz-adv-x="1406" d="M-66 0l37 203q49 15 101 18l600 1161h411l166 -1159q53 -7 94 -20l-38 -203h-562l37 203q4 1 58.5 9.5t81.5 10.5l-17 142h-440l-72 -142q23 -2 70.5 -10.5t54.5 -9.5l-39 -203h-543zM580 612h294l-34 260q-2 21 -9.5 104t-9.5 128h-4q-27 -71 -102 -232zM676 1671 q0 110 77.5 182t184.5 72q104 0 174 -67t70 -164q0 -108 -78.5 -180t-185.5 -72q-103 0 -172.5 65.5t-69.5 163.5zM836 1679q0 -39 25 -65.5t63 -26.5q41 0 69.5 29t28.5 72q0 37 -24.5 63.5t-63.5 26.5q-42 0 -70 -30t-28 -69z" />
<glyph unicode="&#xc6;" horiz-adv-x="1660" d="M-141 0l39 203q50 15 98 18l633 934q-65 4 -170 25l39 202h1247l-72 -368h-235q-3 60 4 119h-211l-62 -312h177q13 43 36 94h203l-80 -415h-202q-3 46 0 96h-177l-63 -340h217q3 12 43 129h242l-74 -385h-920l39 207q70 14 138 20l20 121h-356l-86 -125q24 -3 100 -20 l-39 -203h-528zM561 596h256l101 532h-9q-15 -25 -57.5 -95t-73 -118.5t-61.5 -93.5z" />
<glyph unicode="&#xc7;" horiz-adv-x="1120" d="M88 471q0 116 23.5 228.5t68 215.5t114 190t157 151.5t203 100.5t245.5 36q185 0 315 -31l-86 -434h-241q0 82 6 162q-23 8 -80 8q-75 0 -138.5 -37t-105 -96.5t-70.5 -135.5t-42 -151t-13 -146q0 -126 62.5 -193t202.5 -67q66 0 143.5 16.5t134.5 43.5l-8 -293 q-186 -57 -363 -57q-126 0 -222 31t-152.5 79t-92.5 115t-48.5 130t-12.5 134zM287 -479q59 59 86 107t26 103t-37 117l263 72q110 -220 -101 -399h-237z" />
<glyph unicode="&#xc8;" horiz-adv-x="1083" d="M-47 0l39 203q99 19 180 24l176 928q-71 5 -170 25l39 202h954l-69 -368h-238q0 66 6 119h-215l-59 -312h176q11 37 37 94h201l-78 -415h-203q-2 31 -2 96h-172l-66 -340h216q3 12 43 129h239l-72 -385h-962zM403 1559l93 217l428 -154l-68 -168z" />
<glyph unicode="&#xc9;" horiz-adv-x="1083" d="M-47 0l39 203q99 19 180 24l176 928q-71 5 -170 25l39 202h954l-69 -368h-238q0 66 6 119h-215l-59 -312h176q11 37 37 94h201l-78 -415h-203q-2 31 -2 96h-172l-66 -340h216q3 12 43 129h239l-72 -385h-962zM604 1622l465 154l39 -217l-475 -105z" />
<glyph unicode="&#xca;" horiz-adv-x="1083" d="M-47 0l39 203q99 19 180 24l176 928q-71 5 -170 25l39 202h954l-69 -368h-238q0 66 6 119h-215l-59 -312h176q11 37 37 94h201l-78 -415h-203q-2 31 -2 96h-172l-66 -340h216q3 12 43 129h239l-72 -385h-962zM430 1599l363 181l321 -178l-80 -148l-262 117l-289 -117z " />
<glyph unicode="&#xcb;" horiz-adv-x="1083" d="M-47 0l39 203q99 19 180 24l176 928q-71 5 -170 25l39 202h954l-69 -368h-238q0 66 6 119h-215l-59 -312h176q11 37 37 94h201l-78 -415h-203q-2 31 -2 96h-172l-66 -340h216q3 12 43 129h239l-72 -385h-962zM393 1604q0 69 46 116t110 47q62 0 104.5 -44.5t42.5 -102.5 q0 -69 -47 -115.5t-110 -46.5q-62 0 -104 43t-42 103zM825 1604q0 69 46 116t110 47q62 0 104.5 -44.5t42.5 -102.5q0 -69 -47 -115.5t-110 -46.5q-62 0 -104 43t-42 103z" />
<glyph unicode="&#xcc;" horiz-adv-x="737" d="M-47 0l39 203q99 19 178 24l178 928q-68 5 -168 25l37 202h662l-39 -202q-108 -20 -178 -25l-179 -928q78 -5 170 -24l-37 -203h-663zM250 1559l92 217l428 -154l-68 -168z" />
<glyph unicode="&#xcd;" horiz-adv-x="737" d="M-47 0l39 203q99 19 178 24l178 928q-68 5 -168 25l37 202h662l-39 -202q-108 -20 -178 -25l-179 -928q78 -5 170 -24l-37 -203h-663zM381 1622l465 154l39 -217l-475 -105z" />
<glyph unicode="&#xce;" horiz-adv-x="737" d="M-47 0l39 203q99 19 178 24l178 928q-68 5 -168 25l37 202h662l-39 -202q-108 -20 -178 -25l-179 -928q78 -5 170 -24l-37 -203h-663zM240 1599l362 181l322 -178l-80 -148l-262 117l-289 -117z" />
<glyph unicode="&#xcf;" horiz-adv-x="737" d="M-47 0l39 203q99 19 178 24l178 928q-68 5 -168 25l37 202h662l-39 -202q-108 -20 -178 -25l-179 -928q78 -5 170 -24l-37 -203h-663zM225 1604q0 69 46 116t110 47q62 0 104.5 -44.5t42.5 -102.5q0 -69 -47 -115.5t-110 -46.5q-62 0 -104 43t-42 103zM657 1604 q0 69 46 116t110 47q62 0 105 -44.5t43 -102.5q0 -69 -47.5 -115.5t-110.5 -46.5q-62 0 -104 43t-42 103z" />
<glyph unicode="&#xd0;" horiz-adv-x="1437" d="M-27 0l39 203q100 19 178 24l68 351h-131l45 239h131l64 338q-68 5 -168 25l37 202h170q44 0 202 4.5t248 4.5q280 0 430 -124.5t150 -373.5q0 -142 -34.5 -273.5t-106 -246t-173 -200t-245 -134.5t-312.5 -49q-88 0 -225 5t-193 5h-174zM510 272q58 -8 100 -8 q77 0 144.5 21.5t116.5 58t89 86t66 103.5t43.5 113t25 112.5t7.5 103.5q0 128 -65.5 194t-221.5 66q-106 0 -143 -4l-58 -301h220l-48 -239h-217z" />
<glyph unicode="&#xd1;" horiz-adv-x="1517" d="M-45 0l37 203q105 19 180 24l176 928q-65 4 -170 25l39 202h574l215 -645q46 -146 84 -325q26 243 59 401l61 342q-63 6 -118 21l38 206h543l-39 -206q-78 -17 -123 -21l-219 -1155h-395l-219 645q-60 188 -82 336q-26 -225 -53 -360l-68 -394q78 -8 129 -20l-41 -207 h-608zM616 1589q108 180 275 180q47 0 87 -14t62 -31t48.5 -31t50.5 -14q62 0 112 84l148 -102q-108 -180 -277 -180q-47 0 -86.5 14t-61 31t-47.5 31t-50 14q-35 0 -61 -20t-54 -64z" />
<glyph unicode="&#xd2;" horiz-adv-x="1409" d="M82 481q0 123 28.5 241t80 220t126.5 188.5t164.5 148t197.5 96t222 34.5q254 0 386 -132.5t132 -379.5q0 -196 -65 -369t-175.5 -294t-260 -191t-314.5 -70q-262 0 -392 134t-130 374zM416 537q0 -133 59 -202t174 -69q124 0 225.5 83.5t156 219t54.5 291.5 q0 119 -59 188.5t-178 69.5q-130 0 -230.5 -86t-151 -217t-50.5 -278zM606 1559l92 217l428 -154l-67 -168z" />
<glyph unicode="&#xd3;" horiz-adv-x="1409" d="M82 481q0 123 28.5 241t80 220t126.5 188.5t164.5 148t197.5 96t222 34.5q254 0 386 -132.5t132 -379.5q0 -196 -65 -369t-175.5 -294t-260 -191t-314.5 -70q-262 0 -392 134t-130 374zM416 537q0 -133 59 -202t174 -69q124 0 225.5 83.5t156 219t54.5 291.5 q0 119 -59 188.5t-178 69.5q-130 0 -230.5 -86t-151 -217t-50.5 -278zM766 1622l465 154l39 -217l-475 -105z" />
<glyph unicode="&#xd4;" horiz-adv-x="1409" d="M82 481q0 123 28.5 241t80 220t126.5 188.5t164.5 148t197.5 96t222 34.5q254 0 386 -132.5t132 -379.5q0 -196 -65 -369t-175.5 -294t-260 -191t-314.5 -70q-262 0 -392 134t-130 374zM416 537q0 -133 59 -202t174 -69q124 0 225.5 83.5t156 219t54.5 291.5 q0 119 -59 188.5t-178 69.5q-130 0 -230.5 -86t-151 -217t-50.5 -278zM594 1599l362 181l322 -178l-80 -148l-262 117l-289 -117z" />
<glyph unicode="&#xd5;" horiz-adv-x="1409" d="M82 481q0 123 28.5 241t80 220t126.5 188.5t164.5 148t197.5 96t222 34.5q254 0 386 -132.5t132 -379.5q0 -196 -65 -369t-175.5 -294t-260 -191t-314.5 -70q-262 0 -392 134t-130 374zM416 537q0 -133 59 -202t174 -69q124 0 225.5 83.5t156 219t54.5 291.5 q0 119 -59 188.5t-178 69.5q-130 0 -230.5 -86t-151 -217t-50.5 -278zM537 1589q108 180 274 180q47 0 87 -14t62 -31t48.5 -31t50.5 -14q62 0 112 84l148 -102q-108 -180 -277 -180q-47 0 -86.5 14t-61 31t-47.5 31t-50 14q-35 0 -61 -20t-54 -64z" />
<glyph unicode="&#xd6;" horiz-adv-x="1409" d="M82 481q0 123 28.5 241t80 220t126.5 188.5t164.5 148t197.5 96t222 34.5q254 0 386 -132.5t132 -379.5q0 -196 -65 -369t-175.5 -294t-260 -191t-314.5 -70q-262 0 -392 134t-130 374zM416 537q0 -133 59 -202t174 -69q124 0 225.5 83.5t156 219t54.5 291.5 q0 119 -59 188.5t-178 69.5q-130 0 -230.5 -86t-151 -217t-50.5 -278zM557 1604q0 69 46 116t110 47q62 0 104.5 -44.5t42.5 -102.5q0 -69 -47.5 -115.5t-110.5 -46.5q-62 0 -103.5 43t-41.5 103zM989 1604q0 69 46 116t110 47q62 0 104.5 -44.5t42.5 -102.5 q0 -69 -47 -115.5t-110 -46.5q-62 0 -104 43t-42 103z" />
<glyph unicode="&#xd7;" d="M55 313l361 303l-244 304l213 167l238 -294l350 294l157 -184l-356 -299l244 -305l-211 -170l-242 301l-354 -301z" />
<glyph unicode="&#xd8;" horiz-adv-x="1409" d="M82 481q0 185 62 355.5t169 296.5t259.5 201t324.5 75q53 0 92 -8l98 188l220 -71l-97 -185q209 -122 209 -436q0 -196 -65 -369t-175.5 -294t-260 -191t-314.5 -70q-48 0 -108 11l-101 -203l-223 76l104 198q-194 127 -194 426zM406 530q0 -98 40 -153l398 749 q-34 0 -82 -10q-107 -27 -189.5 -116.5t-124.5 -212.5t-42 -257zM641 258q50 0 109 16q153 44 250.5 211.5t97.5 380.5q0 102 -49 160z" />
<glyph unicode="&#xd9;" horiz-adv-x="1421" d="M156 367q0 67 16 155l119 633q-38 4 -113 21l39 206h563l-39 -206q-59 -14 -137 -21l-123 -643q-12 -64 -12 -109q0 -88 47 -132t148 -44q137 0 208.5 70.5t102.5 234.5l119 623q-73 7 -131 21l38 206h560l-41 -206q-81 -17 -117 -21l-125 -647q-51 -270 -220.5 -402.5 t-439.5 -132.5q-126 0 -217.5 29.5t-144 84.5t-76.5 124t-24 156zM516 1559l92 217l428 -154l-67 -168z" />
<glyph unicode="&#xda;" horiz-adv-x="1421" d="M156 367q0 67 16 155l119 633q-38 4 -113 21l39 206h563l-39 -206q-59 -14 -137 -21l-123 -643q-12 -64 -12 -109q0 -88 47 -132t148 -44q137 0 208.5 70.5t102.5 234.5l119 623q-73 7 -131 21l38 206h560l-41 -206q-81 -17 -117 -21l-125 -647q-51 -270 -220.5 -402.5 t-439.5 -132.5q-126 0 -217.5 29.5t-144 84.5t-76.5 124t-24 156zM793 1622l464 154l39 -217l-475 -105z" />
<glyph unicode="&#xdb;" horiz-adv-x="1421" d="M156 367q0 67 16 155l119 633q-38 4 -113 21l39 206h563l-39 -206q-59 -14 -137 -21l-123 -643q-12 -64 -12 -109q0 -88 47 -132t148 -44q137 0 208.5 70.5t102.5 234.5l119 623q-73 7 -131 21l38 206h560l-41 -206q-81 -17 -117 -21l-125 -647q-51 -270 -220.5 -402.5 t-439.5 -132.5q-126 0 -217.5 29.5t-144 84.5t-76.5 124t-24 156zM578 1599l362 181l322 -178l-80 -148l-262 117l-289 -117z" />
<glyph unicode="&#xdc;" horiz-adv-x="1421" d="M156 367q0 67 16 155l119 633q-38 4 -113 21l39 206h563l-39 -206q-59 -14 -137 -21l-123 -643q-12 -64 -12 -109q0 -88 47 -132t148 -44q137 0 208.5 70.5t102.5 234.5l119 623q-73 7 -131 21l38 206h560l-41 -206q-81 -17 -117 -21l-125 -647q-51 -270 -220.5 -402.5 t-439.5 -132.5q-126 0 -217.5 29.5t-144 84.5t-76.5 124t-24 156zM563 1604q0 69 46 116t110 47q62 0 104.5 -44.5t42.5 -102.5q0 -69 -47 -115.5t-110 -46.5q-62 0 -104 43t-42 103zM995 1604q0 69 46 116t110 47q62 0 104.5 -44.5t42.5 -102.5q0 -69 -47 -115.5 t-110 -46.5q-62 0 -104 43t-42 103z" />
<glyph unicode="&#xdd;" horiz-adv-x="1249" d="M156 1176l39 206h530l-41 -206q-37 -10 -102 -17l55 -215q29 -101 45 -190h6q32 64 119 200l123 205q-62 8 -99 17l41 206h537l-37 -206q-75 -14 -98 -15l-494 -700l-43 -234q81 -6 172 -24l-37 -203h-665l39 203q105 19 180 24l43 232l-219 702q-32 2 -94 15zM721 1622 l465 154l39 -217l-475 -105z" />
<glyph unicode="&#xde;" horiz-adv-x="1241" d="M-45 0l37 203q105 19 180 24l176 928q-65 4 -170 25l39 202h662l-39 -202q-107 -20 -178 -25l-13 -65q76 8 172 8q445 0 445 -314q0 -213 -162.5 -346t-429.5 -133q-84 0 -174 8l-17 -86q78 -5 170 -24l-37 -203h-661zM549 567q55 -10 117 -10q119 0 186.5 49.5 t67.5 130.5q0 113 -170 113q-85 0 -150 -16z" />
<glyph unicode="&#xdf;" horiz-adv-x="1306" d="M-264 -483l69 250q49 -15 99 -15q77 0 117.5 48.5t66.5 176.5l156 807q-105 15 -156 17l39 203q59 9 160 12q51 246 207 370.5t378 124.5q185 0 291.5 -80t106.5 -219q0 -55 -15.5 -102t-41 -79.5t-55.5 -60t-60.5 -50.5t-56 -45t-41 -48.5t-15.5 -56.5q0 -27 21 -54 t52 -48t67.5 -51t67.5 -61.5t52 -81.5t21 -109q0 -72 -32.5 -140.5t-92.5 -124t-154 -89.5t-207 -34q-137 0 -248 19l62 323h194q0 -57 -6 -110q32 -4 54 -4q55 0 86.5 27t31.5 73q0 30 -21.5 58t-53.5 49.5t-70 51t-70 61t-53.5 81.5t-21.5 111q0 60 21 112t52 86.5t68 69 t68 61.5t52 63t21 75q0 36 -29 61t-81 25q-88 0 -154 -64.5t-90 -187.5l-199 -1047q-47 -245 -170.5 -359t-331.5 -114q-77 0 -155 19z" />
<glyph unicode="&#xe0;" horiz-adv-x="1171" d="M51 299q0 149 41.5 281t121.5 235.5t208.5 164t290.5 60.5q216 0 389 -34l-148 -768q82 -18 156 -21l-37 -201q-242 -26 -452 -18q26 123 77 266h-4q-177 -289 -397 -289q-246 0 -246 324zM369 358q0 -58 14 -85t45 -27q55 0 123 80t120 191.5t72 209.5l11 55 q-58 13 -95 13q-69 0 -126 -41.5t-92 -107t-53.5 -140.5t-18.5 -148zM401 1352l140 204l379 -253l-117 -170z" />
<glyph unicode="&#xe1;" horiz-adv-x="1171" d="M51 299q0 149 41.5 281t121.5 235.5t208.5 164t290.5 60.5q216 0 389 -34l-148 -768q82 -18 156 -21l-37 -201q-242 -26 -452 -18q26 123 77 266h-4q-177 -289 -397 -289q-246 0 -246 324zM369 358q0 -58 14 -85t45 -27q55 0 123 80t120 191.5t72 209.5l11 55 q-58 13 -95 13q-69 0 -126 -41.5t-92 -107t-53.5 -140.5t-18.5 -148zM575 1303l404 253l117 -210l-422 -213z" />
<glyph unicode="&#xe2;" horiz-adv-x="1171" d="M51 299q0 149 41.5 281t121.5 235.5t208.5 164t290.5 60.5q216 0 389 -34l-148 -768q82 -18 156 -21l-37 -201q-242 -26 -452 -18q26 123 77 266h-4q-177 -289 -397 -289q-246 0 -246 324zM369 358q0 -58 14 -85t45 -27q55 0 123 80t120 191.5t72 209.5l11 55 q-58 13 -95 13q-69 0 -126 -41.5t-92 -107t-53.5 -140.5t-18.5 -148zM412 1274l376 282l277 -282l-133 -141l-182 161l-242 -161z" />
<glyph unicode="&#xe3;" horiz-adv-x="1171" d="M51 299q0 149 41.5 281t121.5 235.5t208.5 164t290.5 60.5q216 0 389 -34l-148 -768q82 -18 156 -21l-37 -201q-242 -26 -452 -18q26 123 77 266h-4q-177 -289 -397 -289q-246 0 -246 324zM350 1286q102 199 273 199q45 0 83 -15.5t59 -34t47 -34t50 -15.5q62 0 113 91 l141 -111q-102 -199 -274 -199q-45 0 -83 15.5t-59 34t-47 34t-49 15.5q-62 0 -112 -90zM369 358q0 -58 14 -85t45 -27q55 0 123 80t120 191.5t72 209.5l11 55q-58 13 -95 13q-69 0 -126 -41.5t-92 -107t-53.5 -140.5t-18.5 -148z" />
<glyph unicode="&#xe4;" horiz-adv-x="1171" d="M51 299q0 149 41.5 281t121.5 235.5t208.5 164t290.5 60.5q216 0 389 -34l-148 -768q82 -18 156 -21l-37 -201q-242 -26 -452 -18q26 123 77 266h-4q-177 -289 -397 -289q-246 0 -246 324zM365 1317q0 68 50 117t117 49q66 0 111 -47t45 -111q0 -70 -50 -118t-118 -48 q-65 0 -110 46.5t-45 111.5zM369 358q0 -58 14 -85t45 -27q55 0 123 80t120 191.5t72 209.5l11 55q-58 13 -95 13q-69 0 -126 -41.5t-92 -107t-53.5 -140.5t-18.5 -148zM793 1317q0 68 50 117t118 49q66 0 110.5 -47t44.5 -111q0 -70 -50 -118t-118 -48q-65 0 -110 46.5 t-45 111.5z" />
<glyph unicode="&#xe5;" horiz-adv-x="1171" d="M51 299q0 149 41.5 281t121.5 235.5t208.5 164t290.5 60.5q216 0 389 -34l-148 -768q82 -18 156 -21l-37 -201q-242 -26 -452 -18q26 123 77 266h-4q-177 -289 -397 -289q-246 0 -246 324zM369 358q0 -58 14 -85t45 -27q55 0 123 80t120 191.5t72 209.5l11 55 q-58 13 -95 13q-69 0 -126 -41.5t-92 -107t-53.5 -140.5t-18.5 -148zM463 1360q0 121 86 199.5t205 78.5q114 0 190 -73t76 -181q0 -120 -85 -198t-204 -78q-114 0 -191 72.5t-77 179.5zM639 1368q0 -41 28.5 -70.5t69.5 -29.5q46 0 77.5 32t31.5 78q0 41 -27.5 70t-70.5 29 q-47 0 -78 -32t-31 -77z" />
<glyph unicode="&#xe6;" horiz-adv-x="1562" d="M25 217q0 190 165.5 290t462.5 105l15 54q19 74 -12 106.5t-117 32.5q-64 0 -123 -17q-11 -35 -39 -110h-195l58 311q184 55 358 55q197 0 283 -106q58 43 144 72.5t171 29.5q82 0 145.5 -15.5t102 -40.5t63 -59.5t34 -69.5t9.5 -75q0 -361 -628 -372q-4 -23 -4 -68 q0 -67 35.5 -93t129.5 -26q148 0 301 62l2 -238q-195 -68 -399 -68q-144 0 -222.5 47t-109.5 136q-60 -84 -155 -133.5t-209 -49.5q-71 0 -124 20t-83 54.5t-44.5 76t-14.5 89.5zM324 283q0 -32 21.5 -51t60.5 -19q82 0 141.5 60.5t68.5 142.5q-71 -2 -122 -9.5t-91 -22.5 t-59.5 -40t-19.5 -61zM954 608q142 5 219.5 34.5t77.5 96.5q0 33 -24 52.5t-64 19.5q-74 0 -129.5 -60t-79.5 -143z" />
<glyph unicode="&#xe7;" horiz-adv-x="882" d="M57 344q0 157 47.5 288.5t128 219.5t189 137t229.5 49q144 0 271 -30l-68 -351h-197q-3 47 5 117q-16 4 -48 4q-92 0 -162.5 -105.5t-70.5 -258.5q0 -81 40.5 -122.5t131.5 -41.5q107 0 205 39l4 -264q-146 -45 -295 -45q-213 0 -311.5 92.5t-98.5 271.5zM133 -479 q59 59 86.5 107t26.5 103t-37 117l262 72q110 -221 -100 -399h-238z" />
<glyph unicode="&#xe8;" horiz-adv-x="1011" d="M57 332q0 162 49 298t131 224.5t188 137t222 48.5q80 0 142 -15.5t100.5 -40.5t63.5 -59.5t34.5 -70t9.5 -74.5q0 -127 -80.5 -213t-219 -127.5t-332.5 -46.5q0 -8 -1.5 -27t-1.5 -26q0 -67 36 -93t130 -26q146 0 308 62l2 -238q-198 -68 -408 -68q-199 0 -286 90.5 t-87 264.5zM369 1352l139 204l379 -253l-117 -170zM395 594q145 3 220 40.5t75 104.5q0 72 -82 72q-78 0 -131.5 -62t-81.5 -155z" />
<glyph unicode="&#xe9;" horiz-adv-x="1011" d="M57 332q0 162 49 298t131 224.5t188 137t222 48.5q80 0 142 -15.5t100.5 -40.5t63.5 -59.5t34.5 -70t9.5 -74.5q0 -127 -80.5 -213t-219 -127.5t-332.5 -46.5q0 -8 -1.5 -27t-1.5 -26q0 -67 36 -93t130 -26q146 0 308 62l2 -238q-198 -68 -408 -68q-199 0 -286 90.5 t-87 264.5zM395 594q145 3 220 40.5t75 104.5q0 72 -82 72q-78 0 -131.5 -62t-81.5 -155zM510 1303l403 253l117 -210l-422 -213z" />
<glyph unicode="&#xea;" horiz-adv-x="1011" d="M57 332q0 162 49 298t131 224.5t188 137t222 48.5q80 0 142 -15.5t100.5 -40.5t63.5 -59.5t34.5 -70t9.5 -74.5q0 -127 -80.5 -213t-219 -127.5t-332.5 -46.5q0 -8 -1.5 -27t-1.5 -26q0 -67 36 -93t130 -26q146 0 308 62l2 -238q-198 -68 -408 -68q-199 0 -286 90.5 t-87 264.5zM350 1274l377 282l277 -282l-134 -141l-182 161l-242 -161zM395 594q145 3 220 40.5t75 104.5q0 72 -82 72q-78 0 -131.5 -62t-81.5 -155z" />
<glyph unicode="&#xeb;" horiz-adv-x="1011" d="M57 332q0 162 49 298t131 224.5t188 137t222 48.5q80 0 142 -15.5t100.5 -40.5t63.5 -59.5t34.5 -70t9.5 -74.5q0 -127 -80.5 -213t-219 -127.5t-332.5 -46.5q0 -8 -1.5 -27t-1.5 -26q0 -67 36 -93t130 -26q146 0 308 62l2 -238q-198 -68 -408 -68q-199 0 -286 90.5 t-87 264.5zM319 1317q0 68 50.5 117t117.5 49q66 0 111 -47t45 -111q0 -70 -50 -118t-118 -48q-65 0 -110.5 46.5t-45.5 111.5zM395 594q145 3 220 40.5t75 104.5q0 72 -82 72q-78 0 -131.5 -62t-81.5 -155zM748 1317q0 69 49.5 117.5t117.5 48.5q66 0 111 -47t45 -111 q0 -70 -50 -118t-118 -48q-65 0 -110 46.5t-45 111.5z" />
<glyph unicode="&#xec;" horiz-adv-x="661" d="M88 801l41 203q263 24 465 16l-150 -784q86 -15 154 -19l-37 -201q-211 -25 -471 -18l154 786q-63 11 -156 17zM203 1352l139 204l379 -253l-117 -170z" />
<glyph unicode="&#xed;" horiz-adv-x="661" d="M88 801l41 203q263 24 465 16l-150 -784q86 -15 154 -19l-37 -201q-211 -25 -471 -18l154 786q-63 11 -156 17zM240 1303l403 253l117 -210l-422 -213z" />
<glyph unicode="&#xee;" horiz-adv-x="661" d="M88 801l41 203q263 24 465 16l-150 -784q86 -15 154 -19l-37 -201q-211 -25 -471 -18l154 786q-63 11 -156 17zM176 1274l377 282l276 -282l-133 -141l-182 161l-242 -161z" />
<glyph unicode="&#xef;" horiz-adv-x="661" d="M88 801l41 203q263 24 465 16l-150 -784q86 -15 154 -19l-37 -201q-211 -25 -471 -18l154 786q-63 11 -156 17zM145 1317q0 68 50.5 117t117.5 49q66 0 111 -47t45 -111q0 -70 -50 -118t-118 -48q-65 0 -110.5 46.5t-45.5 111.5zM573 1317q0 68 50 117t118 49 q66 0 111 -47t45 -111q0 -70 -50 -118t-118 -48q-65 0 -110.5 46.5t-45.5 111.5z" />
<glyph unicode="&#xf0;" horiz-adv-x="1124" d="M57 354q0 125 33.5 235t91.5 190t133.5 138.5t161 87.5t172.5 29q99 0 131 -43q-20 54 -28 70q-25 57 -68 119l-195 -82l-94 145l172 72q-44 44 -118 100l299 129q58 -52 108 -108l186 77l95 -145l-176 -74q141 -227 141 -497q0 -168 -37.5 -307.5t-99.5 -232.5 t-143.5 -157.5t-167 -93.5t-173.5 -29q-214 0 -319 98t-105 279zM379 418q0 -76 34 -123t105 -47q65 0 116.5 41t79 102.5t41 121.5t13.5 110q0 62 -31 106.5t-100 44.5q-83 0 -144 -57t-87.5 -135.5t-26.5 -163.5z" />
<glyph unicode="&#xf1;" horiz-adv-x="1253" d="M104 801l41 203q227 25 451 16q-28 -134 -78 -262h4q165 284 402 284q144 0 197 -91t24 -242l-90 -473q82 -18 153 -21l-37 -201q-206 -25 -466 -16l120 633q14 77 3.5 109t-46.5 32q-49 0 -115.5 -75.5t-121.5 -190.5t-76 -223l-53 -283h-307l149 780q-95 17 -154 21z M418 1286q102 199 272 199q45 0 83 -15.5t59.5 -34t47.5 -34t50 -15.5q61 0 112 91l142 -111q-102 -199 -275 -199q-45 0 -83 15.5t-59 34t-46.5 34t-48.5 15.5q-63 0 -113 -90z" />
<glyph unicode="&#xf2;" horiz-adv-x="1120" d="M63 346q0 159 52.5 292.5t140 220t200 134t234.5 47.5q412 0 412 -374q0 -152 -52 -283t-138.5 -219t-199.5 -137.5t-235 -49.5q-219 0 -316.5 94.5t-97.5 274.5zM385 393q0 -145 131 -145q80 0 142 57.5t92 142.5t30 179q0 72 -32.5 108.5t-104.5 36.5q-79 0 -140 -61 t-89.5 -146t-28.5 -172zM391 1352l139 204l379 -253l-116 -170z" />
<glyph unicode="&#xf3;" horiz-adv-x="1120" d="M63 346q0 159 52.5 292.5t140 220t200 134t234.5 47.5q412 0 412 -374q0 -152 -52 -283t-138.5 -219t-199.5 -137.5t-235 -49.5q-219 0 -316.5 94.5t-97.5 274.5zM385 393q0 -145 131 -145q80 0 142 57.5t92 142.5t30 179q0 72 -32.5 108.5t-104.5 36.5q-79 0 -140 -61 t-89.5 -146t-28.5 -172zM526 1303l404 253l117 -210l-422 -213z" />
<glyph unicode="&#xf4;" horiz-adv-x="1120" d="M63 346q0 159 52.5 292.5t140 220t200 134t234.5 47.5q412 0 412 -374q0 -152 -52 -283t-138.5 -219t-199.5 -137.5t-235 -49.5q-219 0 -316.5 94.5t-97.5 274.5zM385 393q0 -145 131 -145q80 0 142 57.5t92 142.5t30 179q0 72 -32.5 108.5t-104.5 36.5q-79 0 -140 -61 t-89.5 -146t-28.5 -172zM401 1274l377 282l277 -282l-133 -141l-183 161l-241 -161z" />
<glyph unicode="&#xf5;" horiz-adv-x="1120" d="M63 346q0 159 52.5 292.5t140 220t200 134t234.5 47.5q412 0 412 -374q0 -152 -52 -283t-138.5 -219t-199.5 -137.5t-235 -49.5q-219 0 -316.5 94.5t-97.5 274.5zM346 1286q102 199 272 199q45 0 83 -15.5t59.5 -34t47.5 -34t50 -15.5q62 0 113 91l141 -111 q-102 -199 -274 -199q-45 0 -83 15.5t-59 34t-47 34t-49 15.5q-63 0 -113 -90zM385 393q0 -145 131 -145q80 0 142 57.5t92 142.5t30 179q0 72 -32.5 108.5t-104.5 36.5q-79 0 -140 -61t-89.5 -146t-28.5 -172z" />
<glyph unicode="&#xf6;" horiz-adv-x="1120" d="M63 346q0 159 52.5 292.5t140 220t200 134t234.5 47.5q412 0 412 -374q0 -152 -52 -283t-138.5 -219t-199.5 -137.5t-235 -49.5q-219 0 -316.5 94.5t-97.5 274.5zM348 1317q0 68 50.5 117t117.5 49q66 0 111 -47t45 -111q0 -70 -50 -118t-118 -48q-65 0 -110.5 46.5 t-45.5 111.5zM385 393q0 -145 131 -145q80 0 142 57.5t92 142.5t30 179q0 72 -32.5 108.5t-104.5 36.5q-79 0 -140 -61t-89.5 -146t-28.5 -172zM776 1317q0 68 50 117t118 49q66 0 111 -47t45 -111q0 -70 -50 -118t-118 -48q-65 0 -110.5 46.5t-45.5 111.5z" />
<glyph unicode="&#xf7;" d="M82 479l49 262h975l-51 -262h-973zM330 190q0 82 56.5 137.5t133.5 55.5q74 0 126 -52.5t52 -123.5q0 -80 -57 -136.5t-133 -56.5q-74 0 -126 53t-52 123zM487 1012q0 82 56.5 137t134.5 55q74 0 125 -52t51 -124q0 -81 -56 -136.5t-132 -55.5q-75 0 -127 53t-52 123z " />
<glyph unicode="&#xf8;" horiz-adv-x="1120" d="M53 346q0 199 79 357.5t222.5 247.5t325.5 89q46 0 86 -6l123 217l158 -73l-111 -195q158 -90 158 -317q0 -152 -52 -283t-138.5 -219t-199.5 -137.5t-235 -49.5q-55 0 -98 9l-119 -207l-160 76l105 184q-144 85 -144 307zM346 410q0 -52 21 -86l264 464q-17 2 -49 -2 q-100 -17 -168 -125.5t-68 -250.5zM502 231q28 -3 55 2q59 12 106.5 54t75.5 99.5t43 119.5t15 119q0 45 -25 84z" />
<glyph unicode="&#xf9;" horiz-adv-x="1253" d="M100 801l41 200q244 27 463 19l-121 -633q-14 -77 -3.5 -109t46.5 -32q50 0 116.5 75.5t122 192.5t75.5 227l8 41q-100 16 -133 19l39 205q249 22 446 12l-151 -780q84 -15 155 -21l-37 -201q-235 -27 -450 -18q16 112 74 262h-5q-166 -285 -401 -285q-144 0 -197 91.5 t-24 242.5l90 471q-95 16 -154 21zM422 1352l139 204l379 -253l-117 -170z" />
<glyph unicode="&#xfa;" horiz-adv-x="1253" d="M100 801l41 200q244 27 463 19l-121 -633q-14 -77 -3.5 -109t46.5 -32q50 0 116.5 75.5t122 192.5t75.5 227l8 41q-100 16 -133 19l39 205q249 22 446 12l-151 -780q84 -15 155 -21l-37 -201q-235 -27 -450 -18q16 112 74 262h-5q-166 -285 -401 -285q-144 0 -197 91.5 t-24 242.5l90 471q-95 16 -154 21zM612 1303l404 253l117 -210l-422 -213z" />
<glyph unicode="&#xfb;" horiz-adv-x="1253" d="M100 801l41 200q244 27 463 19l-121 -633q-14 -77 -3.5 -109t46.5 -32q50 0 116.5 75.5t122 192.5t75.5 227l8 41q-100 16 -133 19l39 205q249 22 446 12l-151 -780q84 -15 155 -21l-37 -201q-235 -27 -450 -18q16 112 74 262h-5q-166 -285 -401 -285q-144 0 -197 91.5 t-24 242.5l90 471q-95 16 -154 21zM449 1274l376 282l277 -282l-133 -141l-183 161l-241 -161z" />
<glyph unicode="&#xfc;" horiz-adv-x="1253" d="M100 801l41 200q244 27 463 19l-121 -633q-14 -77 -3.5 -109t46.5 -32q50 0 116.5 75.5t122 192.5t75.5 227l8 41q-100 16 -133 19l39 205q249 22 446 12l-151 -780q84 -15 155 -21l-37 -201q-235 -27 -450 -18q16 112 74 262h-5q-166 -285 -401 -285q-144 0 -197 91.5 t-24 242.5l90 471q-95 16 -154 21zM410 1317q0 68 50.5 117t117.5 49q66 0 110.5 -47t44.5 -111q0 -70 -50 -118t-118 -48q-65 0 -110 46.5t-45 111.5zM838 1317q0 68 50 117t118 49q66 0 110.5 -47t44.5 -111q0 -70 -50 -118t-118 -48q-65 0 -110 46.5t-45 111.5z" />
<glyph unicode="&#xfd;" horiz-adv-x="1114" d="M-150 -485l50 264q62 -21 123 -21q99 0 167 62q76 67 76 221q0 343 -57 739q-65 14 -139 21l39 203q210 25 407 16q37 -254 37 -438q0 -138 -14 -303h2q56 107 115.5 246.5t97.5 240t110 297.5l320 -82q-224 -516 -400.5 -811.5t-357.5 -476.5q-198 -195 -418 -195 q-81 0 -158 17zM565 1303l404 253l116 -210l-421 -213z" />
<glyph unicode="&#xfe;" horiz-adv-x="1114" d="M-221 -485l39 200q83 21 170 27l288 1509l3 6q-96 16 -164 21l37 201q242 26 479 18l-58 -293q-27 -141 -53 -234t-74 -204h9q77 129 176.5 202.5t216.5 73.5q244 0 244 -323q0 -149 -41.5 -280.5t-121.5 -235t-209 -163.5t-292 -60q-51 0 -88 6l-45 -244q78 -5 170 -27 l-39 -200h-647zM389 240q46 -17 94 -17q90 0 158.5 71t100.5 168.5t32 196.5q0 113 -59 113q-55 0 -123.5 -79.5t-121 -191t-71.5 -208.5z" />
<glyph unicode="&#xff;" horiz-adv-x="1114" d="M-150 -485l50 264q62 -21 123 -21q99 0 167 62q76 67 76 221q0 343 -57 739q-65 14 -139 21l39 203q210 25 407 16q37 -254 37 -438q0 -138 -14 -303h2q56 107 115.5 246.5t97.5 240t110 297.5l320 -82q-224 -516 -400.5 -811.5t-357.5 -476.5q-198 -195 -418 -195 q-81 0 -158 17zM367 1317q0 68 50.5 117t117.5 49q66 0 110.5 -47t44.5 -111q0 -70 -50 -118t-118 -48q-65 0 -110 46.5t-45 111.5zM795 1317q0 68 50 117t118 49q66 0 110.5 -47t44.5 -111q0 -70 -50 -118t-118 -48q-65 0 -110 46.5t-45 111.5z" />
<glyph unicode="&#x152;" horiz-adv-x="1738" d="M82 481q0 123 28.5 241t80 220t126.5 188.5t164.5 148t197.5 96t222 34.5q105 0 211 -27h711l-70 -368h-237q0 49 4 119h-213l-60 -312h174q14 39 39 94h201l-78 -415h-203q-2 31 -2 96h-174l-63 -340h215q19 61 45 129h239l-73 -385h-754q-131 -27 -209 -27 q-263 0 -392.5 133.5t-129.5 374.5zM418 537q0 -271 233 -271q87 0 187 35l149 791q-70 26 -137 26q-130 0 -231 -86t-151 -216.5t-50 -278.5z" />
<glyph unicode="&#x153;" horiz-adv-x="1687" d="M53 346q0 128 34 240t94 194t139 141.5t171 89t189 29.5q224 0 315 -127q140 127 328 127q101 0 172.5 -22.5t108.5 -62t53 -82.5t16 -93q0 -127 -80 -213t-217 -127.5t-329 -46.5q0 -8 -1.5 -27t-1.5 -26q0 -67 34.5 -93t129.5 -26q145 0 301 62l2 -238 q-195 -68 -401 -68q-228 0 -295 132q-145 -132 -346 -132q-219 0 -317.5 94.5t-98.5 274.5zM375 393q0 -145 131 -145q80 0 142 57.5t92 142.5t30 179q0 73 -32 109t-105 36q-79 0 -140 -61t-89.5 -146t-28.5 -172zM1077 594q297 6 297 145q0 34 -22 53t-62 19 q-79 0 -133 -62.5t-80 -154.5z" />
<glyph unicode="&#x178;" horiz-adv-x="1249" d="M156 1176l39 206h530l-41 -206q-37 -10 -102 -17l55 -215q29 -101 45 -190h6q32 64 119 200l123 205q-62 8 -99 17l41 206h537l-37 -206q-75 -14 -98 -15l-494 -700l-43 -234q81 -6 172 -24l-37 -203h-665l39 203q105 19 180 24l43 232l-219 702q-32 2 -94 15zM475 1604 q0 69 46 116t110 47q62 0 104.5 -44.5t42.5 -102.5q0 -69 -47 -115.5t-110 -46.5q-62 0 -104 43t-42 103zM907 1604q0 69 46 116t110 47q62 0 104.5 -44.5t42.5 -102.5q0 -69 -47 -115.5t-110 -46.5q-62 0 -104 43t-42 103z" />
<glyph unicode="&#x2c6;" horiz-adv-x="845" d="M254 1274l377 282l276 -282l-133 -141l-182 161l-242 -161z" />
<glyph unicode="&#x2dc;" horiz-adv-x="899" d="M238 1286q102 199 272 199q45 0 83 -15.5t59.5 -34t47.5 -34t50 -15.5q61 0 112 91l142 -111q-102 -199 -275 -199q-45 0 -83 15.5t-59 34t-46.5 34t-48.5 15.5q-63 0 -113 -90z" />
<glyph unicode="&#x2000;" horiz-adv-x="962" />
<glyph unicode="&#x2001;" horiz-adv-x="1925" />
<glyph unicode="&#x2002;" horiz-adv-x="962" />
<glyph unicode="&#x2003;" horiz-adv-x="1925" />
<glyph unicode="&#x2004;" horiz-adv-x="641" />
<glyph unicode="&#x2005;" horiz-adv-x="481" />
<glyph unicode="&#x2006;" horiz-adv-x="320" />
<glyph unicode="&#x2007;" horiz-adv-x="320" />
<glyph unicode="&#x2008;" horiz-adv-x="240" />
<glyph unicode="&#x2009;" horiz-adv-x="385" />
<glyph unicode="&#x200a;" horiz-adv-x="106" />
<glyph unicode="&#x2010;" horiz-adv-x="675" d="M82 430l47 250h506l-47 -250h-506z" />
<glyph unicode="&#x2011;" horiz-adv-x="675" d="M82 430l47 250h506l-47 -250h-506z" />
<glyph unicode="&#x2012;" horiz-adv-x="675" d="M82 430l47 250h506l-47 -250h-506z" />
<glyph unicode="&#x2013;" d="M4 473l53 275h1127l-54 -275h-1126z" />
<glyph unicode="&#x2014;" horiz-adv-x="2048" d="M221 473l51 275h1616l-51 -275h-1616z" />
<glyph unicode="&#x2018;" horiz-adv-x="565" d="M205 1121q51 197 299 386q31 24 65 47l111 -127q-126 -104 -155 -178.5t20 -140.5q26 -40 27 -90.5t-20.5 -93t-66 -72t-102.5 -29.5q-92 0 -147 74q-66 89 -31 224z" />
<glyph unicode="&#x2019;" horiz-adv-x="565" d="M154 932q125 104 155 178.5t-18 140.5q-26 40 -27 90.5t20.5 93t66 72t102.5 29.5q91 0 145 -74q66 -88 32 -222q-51 -197 -300 -387l-66 -48z" />
<glyph unicode="&#x201a;" horiz-adv-x="565" d="M-61 -250q86 70 126.5 125.5t41 101.5t-30.5 91q-26 40 -27 90t20.5 93t66 72t102.5 29q92 0 147 -74q65 -89 30 -224q-51 -197 -299 -386q-31 -24 -65 -47z" />
<glyph unicode="&#x201c;" horiz-adv-x="1042" d="M205 1121q52 198 304 389l60 44l111 -129q-126 -104 -155 -178t20 -139q26 -41 27 -91.5t-20.5 -93t-66 -71.5t-102.5 -29q-92 0 -147 74q-66 89 -31 224zM701 1121q52 198 304 389l60 44l111 -129q-126 -105 -155.5 -178.5t19.5 -138.5q26 -41 27 -91.5t-20 -93 t-65.5 -71.5t-102.5 -29q-92 0 -147 74q-66 89 -31 224z" />
<glyph unicode="&#x201d;" horiz-adv-x="1042" d="M154 932q125 104 155 178.5t-18 140.5q-26 40 -27 90.5t20.5 93t66 72t102.5 29.5q91 0 145 -74q66 -88 32 -222q-51 -197 -300 -387l-66 -48zM649 932q125 104 155 178.5t-18 140.5q-26 40 -27 90.5t20 93t65.5 72t101.5 29.5q92 0 147 -74q66 -88 32 -222 q-50 -197 -297 -386l-68 -49z" />
<glyph unicode="&#x201e;" horiz-adv-x="1042" d="M-61 -250q86 70 126.5 125.5t41 101.5t-30.5 91q-26 40 -27 90t20.5 93t66 72t102.5 29q92 0 147 -74q65 -89 30 -224q-51 -197 -299 -386q-31 -24 -65 -47zM436 -250q125 103 154.5 178.5t-19.5 139.5q-26 40 -27 90t20.5 93t66 72t102.5 29q92 0 147 -74 q66 -89 31 -224q-51 -197 -299 -386q-31 -24 -65 -47z" />
<glyph unicode="&#x2022;" horiz-adv-x="868" d="M127 602q0 141 100.5 243.5t241.5 102.5q139 0 235.5 -97t96.5 -237q0 -141 -100.5 -243.5t-241.5 -102.5q-140 0 -236 97t-96 237z" />
<glyph unicode="&#x202f;" horiz-adv-x="385" />
<glyph unicode="&#x2039;" horiz-adv-x="626" d="M94 612l297 402l223 -113l-227 -303l119 -307l-256 -105z" />
<glyph unicode="&#x203a;" horiz-adv-x="626" d="M72 299l227 303l-119 305l256 107l156 -426l-295 -402z" />
<glyph unicode="&#x205f;" horiz-adv-x="481" />
<glyph unicode="&#x20ac;" horiz-adv-x="1218" d="M55 436l31 162h143q5 54 19 129h-137l30 162h154q93 247 290 383.5t468 136.5q133 0 272 -33l-70 -368h-192q-9 56 -2 133q-37 16 -100 16q-108 0 -191 -72t-137 -196h366l-30 -162h-385q-15 -79 -17 -129h375l-31 -162h-336q20 -103 80 -155t176 -52q141 0 254 47 l25 -237q-167 -66 -371 -66q-260 0 -383.5 119t-134.5 344h-166z" />
<glyph unicode="&#x2122;" horiz-adv-x="1757" d="M178 1106l51 276h631l-53 -276h-137q0 54 6 104h-60l-59 -313q59 -7 100 -18l-26 -134h-416l27 134q44 11 106 18l58 313h-58q-8 -33 -35 -104h-135zM748 745l24 138l70 10l141 338q-42 5 -96 16l24 135h377l15 -235l2 -82l30 80l109 237h395l-24 -135q-58 -11 -103 -16 l10 -338q30 0 66 -8l-29 -140h-336l25 134l55 14v143l2 66l-159 -357h-201l-21 299l-2 58l-16 -51l-59 -158q41 -10 51 -14l-27 -134h-323z" />
<glyph unicode="&#x25fc;" horiz-adv-x="1085" d="M0 0v1085h1085v-1085h-1085z" />
</font>
</defs>
</svg>
