<?xml version="1.0" standalone="no"?>
<!DOCTYPE svg PUBLIC "-//W3C//DTD SVG 1.1//EN" "http://www.w3.org/Graphics/SVG/1.1/DTD/svg11.dtd" >
<svg xmlns="http://www.w3.org/2000/svg">
<metadata></metadata>
<defs>
<font id="theserifhp6_semibold" horiz-adv-x="1126" >
<font-face units-per-em="2048" ascent="1516" descent="-532" />
<missing-glyph horiz-adv-x="446" />
<glyph unicode="&#x2e;&#x2e;&#x2e;" horiz-adv-x="1415" d="M102 119q0 58 41.5 99.5t98.5 41.5q58 0 99.5 -41t41.5 -100q0 -57 -41.5 -98t-99.5 -41q-57 0 -98.5 41t-41.5 98zM559 119q0 58 41 99.5t98 41.5q59 0 100.5 -41.5t41.5 -99.5q0 -57 -42 -98t-100 -41q-57 0 -98 41t-41 98zM1016 119q0 59 41 100t100 41q57 0 98 -41.5 t41 -99.5q0 -57 -41 -98t-98 -41q-58 0 -99.5 41t-41.5 98z" />
<glyph unicode="&#xfb01;" horiz-adv-x="1335" d="M25 848v170h215v41q0 230 136.5 340t379.5 110q154 0 317 -39l-43 -182q-138 41 -272 41q-159 0 -230 -65t-71 -191v-55h667v-856q83 -6 170 -27v-135h-542v135q85 22 155 27v686h-450v-686q70 -5 155 -27v-135h-551v135q95 21 179 27v686h-215z" />
<glyph unicode="&#xfb02;" horiz-adv-x="1335" d="M25 848v170h215v90q0 202 125.5 301.5t398.5 99.5q162 0 360 -30v-1317q83 -6 170 -27v-135h-542v135q85 22 155 27v1157q-83 14 -174 14q-145 0 -210.5 -57t-65.5 -178v-80h266v-170h-266v-686q70 -5 155 -27v-135h-551v135q95 21 179 27v686h-215z" />
<glyph unicode="&#xfb03;" horiz-adv-x="1990" d="M25 848v170h215v41q0 97 24.5 173.5t77.5 137t146 93t221 32.5q205 0 370 -65q129 79 336 79q158 0 314 -39l-41 -182q-138 41 -271 41q-160 0 -230.5 -64.5t-70.5 -191.5v-55h666v-856q78 -5 170 -27v-135h-545v135q90 22 156 27v686h-447v-686q71 -5 156 -27v-135h-529 v135q85 22 156 27v686h-442v-686q70 -5 155 -27v-135h-551v135q95 21 179 27v686h-215zM457 1018h442v43q0 135 43 209q-102 45 -225 45q-134 0 -197 -58t-63 -180v-59z" />
<glyph unicode="&#xfb04;" horiz-adv-x="1990" d="M25 848v170h215v41q0 97 24.5 173.5t77.5 137t146 93t221 32.5q199 0 362 -61q118 75 350 75q166 0 361 -30v-1317q78 -5 170 -27v-135h-545v135q90 22 156 27v1157q-74 14 -172 14q-145 0 -210 -57t-65 -178v-80h266v-170h-266v-686q71 -5 156 -27v-135h-529v135 q85 22 156 27v686h-442v-686q70 -5 155 -27v-135h-551v135q95 21 179 27v686h-215zM457 1018h442v90q0 106 35 168q-98 39 -217 39q-134 0 -197 -58t-63 -180v-59z" />
<glyph horiz-adv-x="0" />
<glyph horiz-adv-x="0" />
<glyph horiz-adv-x="682" />
<glyph unicode="&#xd;" horiz-adv-x="1024" />
<glyph unicode=" "  horiz-adv-x="446" />
<glyph unicode="&#x09;" horiz-adv-x="446" />
<glyph unicode="&#xa0;" horiz-adv-x="446" />
<glyph unicode="!" horiz-adv-x="655" d="M205 117q0 57 40.5 96t100.5 39q59 0 99 -39t40 -96q0 -58 -40 -97.5t-99 -39.5q-60 0 -100.5 39.5t-40.5 97.5zM217 1444h258l-35 -1082h-186z" />
<glyph unicode="&#x22;" horiz-adv-x="784" d="M98 1436h226l-31 -494h-162zM461 1436h225l-33 -494h-161z" />
<glyph unicode="#" horiz-adv-x="1406" d="M57 377v160h301l37 346h-278v159h295l37 340h186l-35 -340h277l36 340h189l-37 -340h283v-159h-299l-37 -346h278v-160h-295l-39 -377h-188l39 377h-277l-41 -377h-188l41 377h-285zM547 537h276l37 346h-276z" />
<glyph unicode="$" horiz-adv-x="1040" d="M96 1026q0 144 100.5 250t264.5 121l4 225h162l-4 -223q122 -3 258 -31v-328h-160q-18 108 -23 168q-90 23 -141 23q-109 0 -169 -48t-60 -136q0 -45 26.5 -85t70 -70t99.5 -62.5t114 -61.5t114 -68t99.5 -81t70 -101.5t26.5 -128.5q0 -85 -31.5 -157t-86 -122 t-123.5 -81t-146 -41l-6 -297h-160l4 291q-139 0 -276 36v351h160q14 -86 24 -170q95 -25 164 -25q105 0 169.5 48t64.5 143q0 49 -33.5 91.5t-87.5 75t-118.5 65.5t-129.5 72.5t-119 86t-87.5 116.5t-33.5 154z" />
<glyph unicode="%" horiz-adv-x="1656" d="M82 1061q0 165 99.5 261.5t238.5 96.5q70 0 127 -18.5t102.5 -56.5t70.5 -102.5t25 -151.5q0 -164 -101.5 -263.5t-244.5 -99.5q-144 0 -230.5 85t-86.5 249zM242 61l985 1373l155 -113l-983 -1372zM270 1075q0 -194 140 -194q66 0 106.5 52t40.5 144q0 100 -35 144.5 t-108 44.5q-61 0 -102.5 -52.5t-41.5 -138.5zM887 297q0 165 99.5 261.5t238.5 96.5q70 0 127 -18.5t102.5 -56.5t70.5 -102.5t25 -151.5q0 -164 -101.5 -263.5t-244.5 -99.5q-144 0 -230.5 85t-86.5 249zM1075 311q0 -100 34.5 -147t104.5 -47q66 0 107 52t41 144 q0 99 -35.5 144t-107.5 45q-61 0 -102.5 -52.5t-41.5 -138.5z" />
<glyph unicode="&#x26;" horiz-adv-x="1681" d="M106 381q0 128 69.5 229.5t205.5 206.5q-102 121 -143 202.5t-41 166.5q0 137 102.5 230t280.5 93q164 0 254 -78.5t90 -209.5q0 -105 -59.5 -200.5t-190.5 -199.5q220 -220 418 -375v-2q101 140 112 328q-76 7 -133 21v137h512v-137q-100 -20 -158 -25 q-24 -251 -172 -442q108 -84 226 -166q77 -10 129 -23v-137h-285q-146 104 -223 168q-229 -188 -537 -188q-112 0 -200.5 31.5t-143.5 86.5t-84 127t-29 156zM332 410q0 -102 73.5 -173t194.5 -71q194 0 342 123q-113 90 -232.5 201t-201.5 198q-93 -76 -134.5 -142 t-41.5 -136zM414 1198q0 -97 135 -252q82 69 121 128t39 128q0 62 -37 101.5t-109 39.5q-66 0 -107.5 -40.5t-41.5 -104.5z" />
<glyph unicode="'" horiz-adv-x="421" d="M98 1436h226l-31 -494h-162z" />
<glyph unicode="(" horiz-adv-x="622" d="M127 582q0 548 303 1024l158 -76q-246 -429 -246 -938q0 -523 252 -948l-166 -76q-166 261 -233.5 509.5t-67.5 504.5z" />
<glyph unicode=")" horiz-adv-x="622" d="M41 1528l164 78q166 -262 232.5 -509.5t66.5 -506.5q0 -546 -303 -1022l-158 74q248 430 248 938q0 519 -250 948z" />
<glyph unicode="*" horiz-adv-x="774" d="M72 1092l209 88l-209 88l80 137l180 -135l-29 225h160l-27 -225l180 135l78 -135l-209 -88l209 -88l-80 -140l-180 138l29 -226h-160l27 226l-180 -138z" />
<glyph unicode="+" d="M84 518v182h375v398h209v-398h374v-182h-374v-399h-209v399h-375z" />
<glyph unicode="," horiz-adv-x="493" d="M53 -252q178 191 88 303q-25 30 -29 68t10 69.5t46.5 53.5t75.5 22q79 0 119 -71q50 -90 3 -224q-54 -154 -221 -303z" />
<glyph unicode="-" horiz-adv-x="679" d="M94 492v176h492v-176h-492z" />
<glyph unicode="." horiz-adv-x="493" d="M102 125q0 60 43 102.5t103 42.5t102.5 -42.5t42.5 -102.5t-42.5 -102.5t-102.5 -42.5t-103 42.5t-43 102.5z" />
<glyph unicode="/" horiz-adv-x="919" d="M-8 -330l719 1880h213l-717 -1880h-215z" />
<glyph unicode="0" horiz-adv-x="1257" d="M96 522q0 129 44 236.5t119.5 178.5t176 110.5t213.5 39.5q130 0 229.5 -41t160.5 -114.5t91.5 -170.5t30.5 -214q0 -131 -45 -240t-121 -180.5t-176 -110.5t-211 -39q-110 0 -201.5 31.5t-162 96t-109.5 171t-39 246.5zM315 535q0 -167 78 -269t232 -102q135 0 226 99.5 t91 268.5q0 166 -78 267.5t-229 101.5q-137 0 -228.5 -99t-91.5 -267z" />
<glyph unicode="1" horiz-adv-x="759" d="M41 952l309 117h174v-905q70 -5 178 -27v-137h-624v137q120 22 221 27v702l-221 -94z" />
<glyph unicode="2" horiz-adv-x="987" d="M94 0v176l248 205q140 106 202 187.5t62 160.5q0 82 -49 132t-141 50q-65 0 -137 -28q-5 -67 -23 -160h-137v301q160 63 332 63q188 0 292.5 -89.5t104.5 -237.5q0 -110 -65 -211t-195 -203l-189 -156l-2 -4q156 9 494 9v-195h-797z" />
<glyph unicode="3" horiz-adv-x="950" d="M82 -369l20 197q85 -29 189 -29q146 0 232.5 66.5t86.5 185.5q0 93 -57.5 148t-156.5 71.5t-240 1.5v174q208 0 322 70t114 197q0 91 -52 141.5t-147 50.5q-63 0 -123 -22q-6 -71 -22 -160h-137v303q147 61 305 61q203 0 304 -95t101 -247q0 -113 -67.5 -203.5 t-180.5 -135.5v-3q129 -26 203 -115t74 -212q0 -206 -157 -336.5t-414 -130.5q-104 0 -197 22z" />
<glyph unicode="4" horiz-adv-x="1130" d="M29 178l555 887h282v-868h226v-197h-226v-221q80 -5 168 -27v-129h-565v129q95 22 178 27v221h-584zM240 195q104 2 411 2v655h-2z" />
<glyph unicode="5" horiz-adv-x="964" d="M104 -381l23 199q77 -15 152 -15q171 0 264.5 76t93.5 197q0 119 -96.5 191.5t-270.5 72.5q-84 0 -123 -4v729h672v-215l-465 2v-330q247 0 385 -114.5t138 -301.5q0 -142 -80 -256t-220 -177.5t-311 -63.5q-77 0 -162 10z" />
<glyph unicode="6" horiz-adv-x="1191" d="M123 559q0 214 54 382t152 277.5t233.5 166.5t299.5 57q47 0 105 -4v-195q-65 10 -123 10q-195 0 -313.5 -110.5t-161.5 -306.5l-17 -74l2 -2q46 69 130.5 108t191.5 39q197 0 310.5 -118.5t113.5 -317.5q0 -216 -141 -353.5t-367 -137.5q-222 0 -345.5 152t-123.5 427z M369 461q0 -126 64 -210.5t185 -84.5q116 0 184 77.5t68 200.5q0 128 -65.5 201.5t-179.5 73.5q-121 0 -188.5 -76t-67.5 -182z" />
<glyph unicode="7" horiz-adv-x="956" d="M47 692v373h856v-184q-261 -591 -414 -1258h-245q155 629 418 1247q-49 -2 -422 -2q-6 -84 -27 -176h-166z" />
<glyph unicode="8" horiz-adv-x="1132" d="M104 340q0 54 16.5 104t40.5 87t63 74.5t71.5 61.5t77.5 54h-2q-123 72 -185.5 157.5t-62.5 196.5q0 168 126 272.5t326 104.5q196 0 312.5 -93t116.5 -245q0 -107 -62 -191.5t-194 -170.5q60 -36 103.5 -68.5t87 -79t66.5 -105t23 -126.5q0 -123 -66.5 -214.5 t-175 -136.5t-241.5 -45q-209 0 -325 100t-116 263zM336 365q0 -92 62.5 -147.5t168.5 -55.5q99 0 164.5 51.5t65.5 138.5q0 86 -62.5 149t-187.5 128h-2q-101 -62 -155 -124t-54 -140zM352 1087q0 -72 54 -127t167 -118l2 -2q108 70 154.5 126t46.5 126q0 77 -56 128.5 t-155 51.5t-156 -52.5t-57 -132.5z" />
<glyph unicode="9" horiz-adv-x="1191" d="M90 590q0 217 139.5 357t360.5 140q107 0 193 -35t150.5 -106t100 -186.5t35.5 -267.5q0 -423 -195.5 -653t-551.5 -230q-74 0 -138 12v201q79 -21 150 -21q382 0 477 400q6 26 16 92l-2 2q-46 -63 -130.5 -100t-186.5 -37q-194 0 -306 117t-112 315zM322 625 q0 -132 63 -203.5t182 -71.5q113 0 182.5 73t69.5 177q0 135 -64.5 218t-183.5 83q-112 0 -180.5 -78.5t-68.5 -197.5z" />
<glyph unicode=":" horiz-adv-x="598" d="M180 125q0 60 43 102.5t103 42.5t102.5 -42.5t42.5 -102.5t-42.5 -102.5t-102.5 -42.5t-103 42.5t-43 102.5zM180 715q0 60 43 102.5t103 42.5t102.5 -42.5t42.5 -102.5t-42.5 -103t-102.5 -43t-103 43t-43 103z" />
<glyph unicode=";" horiz-adv-x="598" d="M135 -252q179 192 86 303q-24 30 -27.5 68t10.5 69.5t46.5 53.5t75.5 22q78 0 118 -70q51 -90 4 -224q-54 -155 -221 -304zM180 715q0 60 43 102.5t103 42.5t102.5 -42.5t42.5 -102.5t-42.5 -103t-102.5 -43t-103 43t-43 103z" />
<glyph unicode="&#x3c;" d="M139 618l649 590l142 -143l-510 -444l512 -445l-141 -149z" />
<glyph unicode="=" d="M113 336v178h901v-178h-901zM113 702v179h901v-179h-901z" />
<glyph unicode="&#x3e;" d="M195 1059l141 149l651 -590l-649 -591l-141 143l510 446z" />
<glyph unicode="?" horiz-adv-x="917" d="M156 1262l28 198q295 -9 459 -125.5t164 -279.5q0 -54 -14 -101.5t-37 -83t-52.5 -68t-60 -61t-59.5 -57.5t-52 -61.5t-37 -69.5t-14 -85.5t17 -105.5h-213q-21 64 -25 120t7.5 98.5t32 80.5t48.5 68.5t57.5 59t58 56t51 55t36.5 61t14 69.5q0 98 -110 161.5t-299 70.5z M254 117q0 57 40 96t99 39q60 0 99.5 -39t39.5 -96q0 -59 -39.5 -98t-99.5 -39q-59 0 -99 39.5t-40 97.5z" />
<glyph unicode="@" horiz-adv-x="1996" d="M170 575q0 199 71.5 373t193 295.5t287.5 191.5t351 70q144 0 264.5 -35t206.5 -96.5t145.5 -145.5t88 -182.5t28.5 -207.5q0 -272 -133 -423t-344 -151q-114 0 -168.5 61t-46.5 152h-6q-33 -76 -117.5 -144.5t-181.5 -68.5q-99 0 -151 73t-52 212q0 115 29.5 213t86 174 t147 119t206.5 43q129 0 252 -35l-76 -424q-20 -104 7.5 -151.5t99.5 -47.5q111 0 181.5 99t70.5 288q0 99 -30.5 185.5t-93.5 159t-172.5 115t-254.5 42.5q-142 0 -268 -53.5t-219 -148t-147 -231.5t-54 -296q0 -280 155 -436t455 -156q169 0 350 55l33 -172 q-189 -63 -410 -63q-374 0 -579 200t-205 547zM782 586q0 -146 78 -146q73 0 144.5 102.5t109.5 293.5l19 98q-41 14 -107 14q-59 0 -107.5 -35.5t-77 -91t-44 -116.5t-15.5 -119z" />
<glyph unicode="A" horiz-adv-x="1421" d="M14 0v135q57 16 119 23l436 1224h279l440 -1224q62 -7 119 -23v-135h-518v135q98 21 151 25l-71 202h-541l-72 -202q61 -5 156 -25v-135h-498zM483 539h432l-151 428q-43 127 -64 209h-4q-18 -78 -59 -207z" />
<glyph unicode="B" horiz-adv-x="1245" d="M53 0v135q95 22 178 27v1059q-89 6 -178 26v135h172q44 0 188 4t236 3q221 0 336 -87.5t115 -248.5q0 -109 -55 -193t-160 -123v-4q129 -25 198.5 -113t69.5 -202q0 -58 -15 -113.5t-54.5 -113t-99 -100.5t-156.5 -70t-220 -27q-26 0 -152.5 3t-224.5 3h-178zM453 186 q58 -10 165 -10q147 0 222 64.5t75 173.5q0 215 -337 215q-94 0 -125 -2v-441zM453 797q37 -2 118 -2q295 0 295 223q0 192 -254 192q-53 0 -159 -4v-409z" />
<glyph unicode="C" horiz-adv-x="1196" d="M84 653q0 163 43.5 299t127 236t213.5 155.5t296 55.5q155 0 326 -41v-363h-164q-13 72 -25 181q-96 22 -176 22q-127 0 -217.5 -66.5t-135 -180t-44.5 -261.5q0 -241 109 -374.5t333 -133.5q168 0 307 66l35 -193q-192 -73 -391 -73q-312 0 -474.5 177t-162.5 494z" />
<glyph unicode="D" horiz-adv-x="1447" d="M53 0v135q95 22 178 27v1059q-89 6 -178 26v135h172q49 0 198 3.5t236 3.5q338 0 520.5 -165t182.5 -513q0 -175 -56 -312t-157.5 -226t-241.5 -135t-311 -46q-79 0 -209 4t-156 4h-178zM453 193q83 -11 165 -11q234 0 370 128t136 384q0 252 -117.5 381t-365.5 129 q-90 0 -188 -4v-1007z" />
<glyph unicode="E" horiz-adv-x="1091" d="M53 0v135q95 22 178 27v1059q-89 6 -178 26v135h916v-331h-162q-23 128 -25 155h-329v-413h264q10 75 26 127h140v-418h-140q-20 65 -26 127h-264v-449h331q4 52 27 164h162v-344h-920z" />
<glyph unicode="F" horiz-adv-x="1038" d="M53 0v135q95 22 178 27v1059q-89 6 -178 26v135h914v-335h-160q-22 123 -25 157h-329v-428h272q8 61 25 127h139v-424h-139q-17 66 -25 127h-272v-444q83 -5 178 -27v-135h-578z" />
<glyph unicode="G" horiz-adv-x="1415" d="M82 662q0 217 87 383t257.5 261t402.5 95q184 0 385 -49v-346h-165q-15 69 -27 176q-110 26 -207 26q-221 0 -357 -136t-136 -388q0 -238 127.5 -372t351.5 -134q109 0 213 33v340q-94 6 -174 29v133h522v-138q-69 -14 -125 -22v-490q-215 -83 -465 -83 q-322 0 -506 181.5t-184 500.5z" />
<glyph unicode="H" horiz-adv-x="1558" d="M53 0v135q95 22 178 27v1059q-89 6 -178 26v135h557v-137q-68 -17 -157 -24v-410h653v410q-91 7 -158 24v137h559v-135q-89 -20 -178 -26v-1059q83 -5 178 -27v-135h-559v137q73 19 158 25v459h-653v-459q84 -6 157 -25v-137h-557z" />
<glyph unicode="I" horiz-adv-x="684" d="M53 0v135q95 22 178 27v1059q-89 6 -178 26v135h578v-135q-89 -20 -178 -26v-1059q83 -5 178 -27v-135h-578z" />
<glyph unicode="J" horiz-adv-x="720" d="M14 0v193q74 -21 133 -21q84 0 124 45.5t40 165.5v838q-89 6 -178 26v135h537v-137q-64 -15 -135 -24v-848q0 -389 -361 -389q-70 0 -160 16z" />
<glyph unicode="K" horiz-adv-x="1390" d="M53 0v135q95 22 178 27v1059q-89 6 -178 26v135h545v-137q-62 -17 -145 -24v-496l456 500q-62 3 -125 20v137h533v-135q-49 -12 -135 -24l-477 -504l507 -559q54 -5 136 -25v-135h-549v137q80 17 116 21l-462 532v-528q77 -7 145 -25v-137h-545z" />
<glyph unicode="L" horiz-adv-x="999" d="M53 0v135q95 22 178 27v1059q-89 6 -178 26v135h578v-135q-89 -20 -178 -26v-1037h325q11 96 37 195h156v-379h-918z" />
<glyph unicode="M" horiz-adv-x="1933" d="M31 0v135q72 17 121 23l157 1063q-80 5 -172 26v135h481l271 -774q49 -152 78 -286h2q44 185 75 276l269 784h485v-135q-90 -20 -176 -26l162 -1063q47 -5 121 -23v-135h-502v135q90 20 153 25l-90 645q-34 267 -39 344h-4q-27 -153 -63 -258l-299 -891h-207l-289 854 q-49 152 -78 295h-4q-5 -145 -30 -352l-76 -637q56 -4 149 -25v-135h-495z" />
<glyph unicode="N" horiz-adv-x="1556" d="M53 0v135q95 22 178 27v1059q-89 6 -178 26v135h479l480 -798q65 -118 157 -314q-18 300 -18 951q-85 7 -150 24v137h504v-137q-84 -19 -137 -24v-1221h-301l-481 805q-88 152 -158 315q18 -253 18 -958q81 -6 158 -25v-137h-551z" />
<glyph unicode="O" horiz-adv-x="1441" d="M78 672q0 169 52 308.5t142.5 231t211 141.5t257.5 50q303 0 463 -185t160 -507q0 -169 -52.5 -308.5t-143 -231t-211 -141.5t-257.5 -50q-303 0 -462.5 185t-159.5 507zM313 702q0 -243 103.5 -383.5t302.5 -140.5q181 0 295 132t114 370q0 243 -103.5 384.5 t-301.5 141.5q-181 0 -295.5 -133t-114.5 -371z" />
<glyph unicode="P" horiz-adv-x="1183" d="M53 0v135q95 22 178 27v1059q-89 6 -178 26v135h178q21 0 158 4.5t215 4.5q136 0 240 -33t168 -93t95.5 -138t31.5 -173q0 -216 -151 -353.5t-406 -137.5q-24 0 -129 6v-307q83 -5 178 -27v-135h-578zM453 657q55 -10 143 -10q150 0 230.5 78t80.5 203q0 58 -16 105.5 t-51.5 88t-99.5 63.5t-152 23q-98 0 -135 -4v-547z" />
<glyph unicode="Q" horiz-adv-x="1439" d="M78 672q0 169 52 308.5t142.5 231t211 141.5t257.5 50q303 0 463 -185t160 -507q0 -215 -84.5 -376.5t-235.5 -230.5q38 0 85 -11t85 -22.5t99 -18.5q26 -2 52 -2q37 0 75 5v-192q-72 -8 -126 -8q-29 0 -52 2q-67 7 -132 27t-111 41.5t-116 38t-147 16.5h-56 q-303 0 -462.5 185t-159.5 507zM313 702q0 -243 103.5 -383.5t302.5 -140.5q181 0 295 132t114 370q0 243 -103.5 384.5t-301.5 141.5q-181 0 -295.5 -133t-114.5 -371z" />
<glyph unicode="R" horiz-adv-x="1259" d="M53 0v135q95 22 178 27v1059q-89 6 -178 26v135h160q14 0 163.5 4.5t239.5 4.5q240 0 370 -89.5t130 -289.5q0 -149 -93 -246t-249 -127q41 -54 82 -117l217 -358q60 -8 148 -25v-139h-322l-346 598h-100v-436q69 -6 141 -25v-137h-541zM453 764h145q137 0 211 60.5 t74 168.5q0 116 -71.5 168.5t-225.5 52.5q-84 0 -133 -6v-444z" />
<glyph unicode="S" horiz-adv-x="1034" d="M94 999q0 182 134 293t368 111q128 0 276 -29v-334h-163q-18 90 -25 172q-46 11 -104 11q-121 0 -186.5 -53t-65.5 -142q0 -45 21 -81t57 -60.5t82.5 -46t97.5 -41.5t102 -42t97.5 -52t82.5 -68t57 -94t21 -125q0 -194 -142.5 -316t-381.5 -122q-173 0 -303 34v346h164 q20 -125 24 -176q62 -16 137 -16q119 0 193 53t74 162q0 46 -21 82.5t-57 61t-82 45t-97.5 40t-102.5 40.5t-97 51.5t-82 69t-57 96.5t-21 130z" />
<glyph unicode="T" horiz-adv-x="1173" d="M37 1018v364h1100v-364h-160q-28 167 -29 182h-250v-1038q84 -6 179 -27v-135h-580v135q95 22 178 27v1038h-252q-4 -49 -26 -182h-160z" />
<glyph unicode="U" horiz-adv-x="1460" d="M53 1245v137h514v-137q-71 -17 -155 -24v-734q0 -76 13.5 -131.5t47.5 -102.5t98 -71t158 -24q170 0 248 82.5t78 275.5v705q-89 7 -156 24v137h510v-137q-65 -15 -135 -24v-693q0 -271 -142 -409.5t-417 -138.5q-126 0 -221 27.5t-152.5 71.5t-92.5 110t-48 133t-13 149 v750q-77 10 -135 24z" />
<glyph unicode="V" horiz-adv-x="1386" d="M14 1245v137h516v-135q-88 -19 -155 -24l233 -693q49 -146 86 -282h4q24 96 88 297l240 678q-65 5 -154 24v135h500v-137q-55 -13 -117 -20l-438 -1225h-256l-430 1225q-62 7 -117 20z" />
<glyph unicode="W" horiz-adv-x="1998" d="M16 1245v137h502v-135q-89 -19 -153 -24l167 -709q30 -137 52 -283h2q23 148 57 275l252 876h217l268 -888q37 -125 62 -263h2q5 55 35 250l163 742q-57 4 -149 24v135h492v-137q-55 -13 -117 -20l-283 -1225h-291l-245 829q-44 155 -58 261h-2q-16 -139 -49 -263 l-231 -827h-291l-287 1225q-61 7 -115 20z" />
<glyph unicode="X" horiz-adv-x="1409" d="M23 0v135q75 18 137 23l401 547l-383 520q-69 6 -133 22v135h559v-137q-74 -17 -135 -20l252 -371l252 371q-62 3 -133 20v137h524v-135q-55 -13 -139 -24l-377 -512l407 -553q64 -6 134 -23v-135h-562v137q76 19 129 21l-270 403l-270 -403q59 -3 133 -21v-137h-526z " />
<glyph unicode="Y" horiz-adv-x="1232" d="M14 1245v137h504v-137q-70 -16 -137 -22l147 -322q82 -184 95 -219h2q34 93 98 229l145 312q-70 6 -139 22v137h490v-137q-55 -13 -117 -20l-377 -744v-319q83 -5 178 -27v-135h-579v135q95 22 178 27v319l-371 744q-65 7 -117 20z" />
<glyph unicode="Z" horiz-adv-x="1110" d="M86 0v170l573 879q66 100 103 149q-114 -4 -246 -4h-225q-6 -69 -25 -166h-164v354h918v-176l-602 -907q-36 -55 -74 -111q49 5 270 5h228q12 102 28 174h158v-367h-942z" />
<glyph unicode="[" horiz-adv-x="663" d="M162 -412v1997h426v-172h-221v-1651h221v-174h-426z" />
<glyph unicode="\" horiz-adv-x="940" d="M18 1550h213l719 -1880h-215z" />
<glyph unicode="]" horiz-adv-x="663" d="M76 -238h221v1651h-221v172h426v-1997h-426v174z" />
<glyph unicode="^" d="M123 774l338 608h172l352 -604l-160 -82l-284 527l-271 -527z" />
<glyph unicode="_" d="M0 -332h1126v-176h-1126v176z" />
<glyph unicode="`" horiz-adv-x="759" d="M182 1386l111 146l313 -256l-88 -117z" />
<glyph unicode="a" horiz-adv-x="1101" d="M80 254q0 169 159.5 260t440.5 94v68q0 101 -45 151t-154 50q-80 0 -172 -29q-6 -67 -22 -152h-135v287q170 55 348 55q115 0 194.5 -23.5t124 -70.5t63.5 -107.5t19 -142.5v-524q84 -14 170 -20v-136q-144 -17 -275 -17q-51 0 -100 3q0 112 11 188l-2 2 q-38 -93 -129.5 -151.5t-208.5 -58.5q-130 0 -208.5 74.5t-78.5 199.5zM291 287q0 -61 38.5 -99t102.5 -38q108 0 178 87t70 201v23q-389 0 -389 -174z" />
<glyph unicode="b" horiz-adv-x="1146" d="M-12 1346v135q155 16 294 16q50 0 99 -2v-469q0 -110 -16 -195h2q40 96 125.5 151.5t197.5 55.5q181 0 278 -124t97 -355q0 -266 -144 -420.5t-397 -154.5q-194 0 -362 43v1298q-96 16 -174 21zM381 178q64 -20 162 -20q137 0 215 92t78 289q0 317 -203 317 q-78 0 -137 -55.5t-87 -136.5t-28 -170v-316z" />
<glyph unicode="c" horiz-adv-x="913" d="M78 475q0 123 32 224.5t94.5 176.5t162 116.5t227.5 41.5q138 0 248 -35v-309h-140q-17 88 -22 152q-46 12 -117 12q-122 0 -190 -93.5t-68 -252.5q0 -161 66.5 -248.5t226.5 -87.5q126 0 229 47l33 -184q-148 -51 -309 -51q-106 0 -189.5 26.5t-148.5 82.5t-100 153 t-35 229z" />
<glyph unicode="d" horiz-adv-x="1183" d="M78 459q0 264 143 419.5t389 155.5q44 0 154 -8v299q-94 15 -178 21v135q156 16 296 16q51 0 99 -2v-1325q82 -13 170 -20v-136q-144 -17 -276 -17q-52 0 -101 3q0 110 14 190h-4q-42 -96 -128.5 -153t-202.5 -57q-184 0 -279.5 126.5t-95.5 352.5zM309 479 q0 -319 203 -319q77 0 136 56t87.5 138t28.5 172v316q-82 18 -162 18q-138 0 -215.5 -92t-77.5 -289z" />
<glyph unicode="e" horiz-adv-x="1046" d="M78 502q0 235 126.5 385.5t342.5 150.5q106 0 186.5 -33.5t128.5 -92.5t72 -134t24 -164q0 -68 -8 -125h-647v-18q-1 -159 69 -235q74 -80 232 -80q154 0 293 59l29 -170q-168 -65 -361 -65q-487 0 -487 522zM307 641h432v11q0 99 -52 159q-55 63 -152 63 q-92 0 -153 -63.5t-75 -169.5z" />
<glyph unicode="f" horiz-adv-x="751" d="M25 848v170h215v78q0 413 403 413q81 0 170 -18l-16 -180q-70 20 -144 20q-100 0 -148 -56t-48 -175v-82h266v-170h-266v-686q83 -5 178 -27v-135h-574v135q95 21 179 27v686h-215z" />
<glyph unicode="g" horiz-adv-x="1112" d="M76 -215q0 81 48 152t118 110q-46 21 -73.5 61.5t-27.5 92.5q0 55 32 103t85 73q-152 86 -152 278q0 78 29 146.5t83 121.5t139 84t190 31q65 0 153 -20h347v-172h-156q67 -58 67 -162q0 -166 -111 -267.5t-321 -101.5q-42 0 -96 13q-28 -13 -43.5 -34t-15.5 -42 q0 -39 37.5 -55t130.5 -19l172 -6q167 -6 255.5 -80.5t88.5 -214.5q0 -168 -153 -282.5t-394 -114.5q-202 0 -317 79t-115 226zM293 -176q0 -81 69 -127.5t181 -46.5q139 0 217 55t78 141q0 143 -189 152l-186 6h-55q-115 -80 -115 -180zM319 672q0 -96 55.5 -149.5 t157.5 -53.5q100 0 158 54t58 149t-55.5 150t-155.5 55q-101 0 -159.5 -57.5t-58.5 -147.5z" />
<glyph unicode="h" horiz-adv-x="1257" d="M27 1346v135q154 16 293 16q51 0 100 -2v-463q0 -128 -19 -205l5 -2q45 99 134.5 156t211.5 57q84 0 144.5 -25t95 -71t50 -102.5t15.5 -126.5v-551q77 -6 168 -27v-135h-387v653q0 101 -34 152t-118 51q-115 0 -190.5 -106t-75.5 -261v-327q81 -6 158 -25v-137h-545v135 q92 22 168 27v1163q-94 15 -174 21z" />
<glyph unicode="i" horiz-adv-x="655" d="M57 0v135q95 21 179 27v686q-82 13 -179 20v136q156 16 296 16q51 0 100 -2v-856q83 -6 170 -27v-135h-566zM205 1335q0 57 40.5 97.5t98.5 40.5t99.5 -40.5t41.5 -97.5t-41 -97t-100 -40t-99 39.5t-40 97.5z" />
<glyph unicode="j" horiz-adv-x="581" d="M-94 -498l16 189q65 -21 123 -21q89 0 123.5 46t34.5 167v965q-84 14 -170 20v136q153 16 290 16q50 0 97 -2v-1114q0 -213 -86 -315.5t-289 -102.5q-67 0 -139 16zM170 1335q0 57 41.5 97.5t99.5 40.5q59 0 100.5 -40.5t41.5 -97.5t-41.5 -97t-100.5 -40t-100 39.5 t-41 97.5z" />
<glyph unicode="k" horiz-adv-x="1161" d="M27 1346v135q154 16 293 16q51 0 100 -2v-940l268 305q-70 6 -110 21v137h514v-137q-70 -17 -142 -23l-284 -307l301 -387q82 -10 155 -27v-137h-317l-385 524v-362q80 -6 141 -25v-137h-528v135q87 21 168 27v1163q-94 15 -174 21z" />
<glyph unicode="l" horiz-adv-x="620" d="M27 1346v135q158 16 295 16q50 0 98 -2v-1333q80 -5 168 -27v-135h-555v135q87 21 168 27v1163q-94 15 -174 21z" />
<glyph unicode="m" horiz-adv-x="1910" d="M57 0v135q95 21 179 27v686q-82 13 -179 20v136q158 16 292 16q49 0 95 -2q0 -116 -14 -201l2 -2q45 102 137 162.5t209 60.5q71 0 125 -21t85 -55.5t47.5 -69.5t23.5 -73q18 39 47 75t70.5 70t100 54t124.5 20q303 0 303 -336v-540q80 -5 168 -27v-135h-387v649 q0 102 -31.5 154.5t-114.5 52.5q-103 0 -182.5 -104.5t-79.5 -266.5v-323q85 -6 158 -25v-137h-375v649q0 100 -30 153.5t-115 53.5q-107 0 -184.5 -106.5t-77.5 -264.5v-323q84 -6 157 -25v-137h-553z" />
<glyph unicode="n" horiz-adv-x="1288" d="M57 0v135q95 21 179 27v686q-82 13 -179 20v136q157 16 291 16q49 0 94 -2q0 -118 -14 -201h4q46 102 137 161.5t215 59.5q84 0 145 -25t95 -71t50 -102.5t16 -126.5v-551q78 -5 167 -27v-135h-387v653q0 101 -33.5 152t-117.5 51q-113 0 -189.5 -106t-76.5 -261v-327 q84 -6 157 -25v-137h-553z" />
<glyph unicode="o" d="M78 492q0 237 139 391.5t367 154.5q215 0 340 -126t125 -386q0 -155 -62 -279t-178 -195.5t-266 -71.5q-220 0 -342.5 127t-122.5 385zM303 510q0 -167 66 -254.5t194 -87.5q113 0 186.5 88t73.5 254q0 167 -65.5 255.5t-192.5 88.5q-52 0 -98 -20.5t-83.5 -60.5 t-59 -107.5t-21.5 -155.5z" />
<glyph unicode="p" horiz-adv-x="1187" d="M35 -367q90 24 170 29v1186q-87 14 -170 20v136q154 16 285 16q47 0 92 -2q0 -108 -15 -191h4q44 99 130 155t202 56q180 0 276.5 -124.5t96.5 -354.5q0 -270 -138.5 -421.5t-392.5 -151.5q-89 0 -153 12v-336q91 -6 178 -29v-133h-565v133zM422 178q70 -20 162 -20 q138 0 215.5 92t77.5 289q0 319 -203 319q-78 0 -137 -56t-87 -138t-28 -172v-314z" />
<glyph unicode="q" horiz-adv-x="1142" d="M82 457q0 267 144 422t401 155q191 0 356 -28v-1344q91 -6 168 -29v-133h-563v133q87 23 178 29v336q0 114 14 188l-4 2q-40 -97 -125 -152.5t-192 -55.5q-183 0 -280 121t-97 356zM311 479q0 -319 201 -319q78 0 137.5 56t88 139t28.5 175v314q-79 18 -162 18 q-137 0 -215 -93t-78 -290z" />
<glyph unicode="r" horiz-adv-x="819" d="M57 0v135q95 21 179 27v686q-82 13 -179 20v136q157 16 291 16q49 0 94 -2q0 -108 -18 -225h2q19 55 47 99t70.5 80.5t104.5 53.5q44 12 95 12q21 0 43 -2l-10 -215q-37 6 -69 6q-114 0 -175 -79q-79 -102 -79 -334v-252q83 -5 178 -27v-135h-574z" />
<glyph unicode="s" horiz-adv-x="897" d="M86 723q0 139 111 227t311 88q108 0 248 -30v-285h-135q-19 73 -25 147q-57 11 -104 11q-92 0 -139.5 -35t-47.5 -98q0 -37 21.5 -64.5t57 -43.5t80.5 -32t92 -29t92 -35t80.5 -49t57 -72t21.5 -104q0 -148 -122 -243.5t-325 -95.5q-133 0 -251 28v297h137 q16 -75 22 -149q45 -11 113 -11q93 0 150 38.5t57 103.5q0 41 -27.5 70t-72 46t-98 32t-107 35.5t-98 49.5t-72 80.5t-27.5 122.5z" />
<glyph unicode="t" horiz-adv-x="763" d="M8 848v170h195v323l219 60v-383h266v-170h-266v-488q0 -113 28 -152.5t105 -39.5q60 0 125 14l18 -176q-105 -24 -213 -24q-161 0 -221.5 69t-60.5 242v555h-195z" />
<glyph unicode="u" horiz-adv-x="1257" d="M33 868v136q145 16 284 16q51 0 101 -2v-653q0 -102 34 -152.5t119 -50.5q114 0 190.5 106t76.5 260v322q-105 14 -158 18v136q130 17 267 17q54 0 108 -3v-848q84 -14 170 -20v-136q-144 -17 -276 -17q-52 0 -101 3q0 116 14 201h-4q-46 -102 -137 -161.5t-215 -59.5 q-84 0 -144.5 25t-95 71t-50 102.5t-15.5 126.5v543q-83 14 -168 20z" />
<glyph unicode="v" horiz-adv-x="1150" d="M16 881v137h482v-137q-61 -15 -127 -21l143 -420q35 -98 66 -219h2q17 69 61 215l148 424q-71 7 -127 21v137h473v-137q-47 -13 -121 -23l-305 -858h-273l-301 858q-78 11 -121 23z" />
<glyph unicode="w" horiz-adv-x="1746" d="M14 881v137h478v-137q-59 -15 -125 -21l104 -383q59 -210 64 -233h2q18 94 69 260l164 514h213l164 -514q52 -164 74 -260h4q14 64 59 223l113 393q-71 7 -123 21v137h459v-137q-43 -12 -121 -23l-269 -858h-245l-178 532q-38 129 -58 216h-2q-20 -91 -72 -256l-151 -492 h-246l-256 858q-78 11 -121 23z" />
<glyph unicode="x" horiz-adv-x="1112" d="M18 0v137q115 25 166 29l232 346l-217 340q-48 4 -164 29v137h330l196 -354l203 354h313v-137q-115 -25 -166 -29l-211 -334l228 -352q49 -4 164 -29v-137h-342l-205 362l-203 -362h-324z" />
<glyph unicode="y" horiz-adv-x="1153" d="M14 881v137h478v-137q-56 -15 -121 -21l131 -375q50 -145 80 -260h2q20 86 92 301l117 334q-66 6 -121 21v137h467v-137q-43 -12 -121 -23l-344 -967q-81 -231 -180.5 -320t-272.5 -89q-68 0 -147 14l14 193q81 -23 139 -23q77 0 129.5 49t100.5 176l39 109h-60l-301 858 q-78 11 -121 23z" />
<glyph unicode="z" horiz-adv-x="929" d="M84 0v160l500 694q-98 -4 -219 -4h-109q-9 -70 -23 -139h-139v307h735v-160l-493 -682q49 2 221 2h121q6 64 22 144h140v-322h-756z" />
<glyph unicode="{" horiz-adv-x="716" d="M57 561v168q118 6 164.5 51.5t46.5 169.5v213q0 207 80 314.5t264 107.5h39v-172q-104 0 -142 -50.5t-38 -195.5v-211q0 -144 -47 -217.5t-141 -91.5v-2q188 -28 188 -317v-320q0 -145 38 -195.5t142 -50.5v-174h-39q-183 0 -263.5 102t-80.5 322v322q0 122 -48 171.5 t-163 55.5z" />
<glyph unicode="|" horiz-adv-x="585" d="M203 -500v2048h174v-2048h-174z" />
<glyph unicode="}" horiz-adv-x="712" d="M76 -238q104 0 142 50.5t38 195.5v320q0 289 188 317v2q-188 25 -188 303v217q0 145 -38 195.5t-142 50.5v172h39q184 0 264 -107.5t80 -314.5v-207q0 -128 46.5 -174.5t164.5 -52.5v-168q-113 -6 -162 -56t-49 -171v-322q0 -220 -80.5 -322t-263.5 -102h-39v174z" />
<glyph unicode="~" d="M100 891v27q0 141 78.5 227t210.5 86q63 0 112 -23t78.5 -55.5t54.5 -64.5t54.5 -55t65.5 -23q109 0 112 176h162v-29q0 -141 -78.5 -227t-210.5 -86q-63 0 -112 23t-78 55t-54 64.5t-54.5 55.5t-65.5 23q-110 0 -113 -174h-162z" />
<glyph unicode="&#xa1;" horiz-adv-x="655" d="M172 901q0 59 39.5 98t99.5 39q59 0 99.5 -39.5t40.5 -97.5q0 -57 -40.5 -96t-99.5 -39q-60 0 -99.5 39t-39.5 96zM180 -426l35 1081h186l37 -1081h-258z" />
<glyph unicode="&#xa2;" d="M139 692q0 139 51.5 254.5t161 195.5t262.5 99v154h150v-152q134 -3 258 -43v-317h-133q-19 91 -25 159q-86 21 -157 21q-159 0 -249.5 -90t-90.5 -246q0 -175 86.5 -268.5t263.5 -93.5q139 0 303 59l12 -188q-126 -49 -268 -60v-194h-150v192q-229 18 -352 147.5 t-123 370.5z" />
<glyph unicode="&#xa3;" horiz-adv-x="1024" d="M61 639v168h187q-2 23 -9 71.5t-10.5 85.5t-3.5 66q0 197 100 285t298 88q118 0 221 -25v-307h-137q-22 118 -25 150q-40 4 -61 4q-84 0 -129.5 -48t-45.5 -139q0 -34 21 -231h297v-168h-281q11 -90 11 -123q0 -115 -32 -187.5t-118 -148.5q70 8 143 8h248q6 74 27 172 h156v-360h-840v158q110 73 155.5 148.5t45.5 191.5q0 39 -13 141h-205z" />
<glyph unicode="&#xa4;" d="M109 231l143 181q-76 95 -76 260q0 151 86 254l-153 192l163 119l150 -205q67 33 158 33q90 0 147 -29l150 201l161 -121l-151 -190q63 -89 63 -238q0 -145 -80 -248l168 -209l-164 -120l-161 217q-74 -41 -168 -41q-69 0 -127 22l-144 -196zM371 678q0 -105 47 -168.5 t147 -63.5q79 0 135 63.5t56 174.5q0 219 -197 219q-80 0 -134 -60.5t-54 -164.5z" />
<glyph unicode="&#xa5;" horiz-adv-x="1259" d="M33 1245v137h495v-137q-69 -16 -139 -22l141 -297q83 -166 101 -207h4q32 76 110 221l138 283q-70 6 -140 22v137h484v-137q-55 -13 -117 -20l-307 -582h270v-127h-336v-133h336v-129h-336v-104q83 -5 178 -27v-123h-577v123q95 22 178 27v104h-338v129h338v133h-338v127 h273l-301 582q-65 7 -117 20z" />
<glyph unicode="&#xa6;" horiz-adv-x="585" d="M203 274h174v-774h-174v774zM203 795v753h174v-753h-174z" />
<glyph unicode="&#xa7;" horiz-adv-x="1073" d="M137 682q0 173 158 293q-78 100 -78 213q0 141 98.5 231t296.5 90q84 0 162 -16l-14 -184q-70 22 -144 22q-165 0 -165 -133q0 -40 25.5 -83t65.5 -83.5t89 -84.5t98 -93.5t89 -102.5t65.5 -120.5t25.5 -138.5q0 -85 -41 -161t-116 -132q77 -101 77 -213 q0 -64 -24.5 -120.5t-73.5 -103.5t-132.5 -74.5t-190.5 -27.5q-71 0 -164 21l14 184q92 -25 156 -25q88 0 135 40t47 104q0 41 -25.5 83.5t-66 82t-89.5 82.5t-97.5 91.5t-89 100.5t-66 119t-25.5 139zM340 711q0 -20 4 -40.5t9.5 -37.5t18.5 -39t22 -36.5t30 -38 t32.5 -36.5t39 -40t41 -39.5t47 -43.5t47.5 -45q78 55 78 148q0 42 -15 81.5t-48 81t-62 71.5t-82.5 81t-83.5 82q-78 -58 -78 -149z" />
<glyph unicode="&#xa8;" horiz-adv-x="1118" d="M217 1335q0 51 35.5 87t87.5 36t88.5 -36t36.5 -87q0 -53 -36.5 -89t-88.5 -36t-87.5 36t-35.5 89zM618 1335q0 51 36.5 87t88.5 36q51 0 87 -36t36 -87q0 -52 -36 -88.5t-87 -36.5q-53 0 -89 36t-36 89z" />
<glyph unicode="&#xa9;" horiz-adv-x="1552" d="M80 684q0 140 54 267.5t146 221t221 148.5t273 55q150 0 279.5 -53t220 -144.5t141.5 -219t51 -273.5q0 -199 -92.5 -358t-250.5 -246.5t-349 -87.5q-317 0 -505.5 187t-188.5 503zM250 686q0 -234 144.5 -381t379.5 -147q109 0 206 40t167 109.5t110.5 167.5t40.5 209 q0 226 -149.5 377t-374.5 151q-220 0 -372 -152t-152 -374zM442 672q0 77 20.5 143t62.5 120t115 85t171 31q79 0 160 -19v-250h-109q-16 82 -20 121q-36 4 -56 4q-165 0 -165 -219q0 -111 44.5 -165t143.5 -54q82 0 156 29l18 -142q-88 -32 -203 -32q-176 0 -257 93 t-81 255z" />
<glyph unicode="&#xaa;" horiz-adv-x="851" d="M88 854q0 121 111 188.5t303 69.5v37q0 50 -28 81.5t-103 31.5q-51 0 -105 -15q-8 -72 -16 -102h-113v213q131 43 250 43q162 0 228.5 -64.5t66.5 -181.5v-319q11 -1 60.5 -7.5t70.5 -7.5v-121q-124 -18 -303 -14q0 59 8 111l-4 2q-21 -52 -82 -89.5t-133 -37.5 q-103 0 -157 50t-54 132zM119 399v172h635v-172h-635zM264 881q0 -32 21.5 -52t60.5 -20q49 0 86.5 31t53.5 68t16 69v18q-122 0 -180 -28t-58 -86z" />
<glyph unicode="&#xab;" horiz-adv-x="1064" d="M100 600l232 385l166 -80l-185 -305l187 -299l-172 -82zM516 600l252 379l162 -82l-199 -297l201 -291l-168 -84z" />
<glyph unicode="&#xac;" d="M84 518v182h909v-495h-192v313h-717z" />
<glyph unicode="&#xad;" horiz-adv-x="679" d="M94 492v176h492v-176h-492z" />
<glyph unicode="&#xae;" horiz-adv-x="1153" d="M113 1083q0 126 60.5 232t166.5 167.5t235 61.5q205 0 335 -132t130 -329q0 -131 -63 -236.5t-169.5 -163.5t-232.5 -58q-195 0 -328.5 133t-133.5 325zM252 1094q0 -149 94 -243.5t229 -94.5q138 0 232 87t94 238q0 144 -90 238t-236 94q-147 0 -235 -92.5t-88 -226.5z M387 856v64q22 11 51 16v301l-51 16v64h51q24 0 76.5 2t73.5 2q85 0 128.5 -33.5t43.5 -95.5q0 -47 -24.5 -81t-65.5 -46q10 -15 28 -51l35 -78q27 -6 47 -16v-64h-133l-76 180h-30v-100q23 -3 45 -16v-64h-199zM541 1118h30q40 0 59 18.5t19 45.5q0 51 -65 51h-43v-115z " />
<glyph unicode="&#xaf;" horiz-adv-x="808" d="M139 1247v160h531v-160h-531z" />
<glyph unicode="&#xb0;" horiz-adv-x="780" d="M98 1233q0 124 88 199t203 75q141 0 212 -75.5t71 -192.5q0 -125 -88 -199.5t-207 -74.5q-129 0 -204 72t-75 196zM266 1237q0 -62 32 -97.5t87 -35.5q54 0 87.5 38t33.5 97q0 51 -29 90t-90 39q-53 0 -87 -36.5t-34 -94.5z" />
<glyph unicode="&#xb1;" d="M84 696v183h375v387h209v-387h374v-183h-374v-389h-209v389h-375zM88 0v182h950v-182h-950z" />
<glyph unicode="&#xb2;" horiz-adv-x="761" d="M66 553v158l198 168q103 78 142.5 133.5t39.5 109.5q0 55 -31.5 87t-95.5 32q-50 0 -88 -14q-5 -50 -20 -140h-131v271q123 45 278 45q153 0 231.5 -67.5t78.5 -180.5q0 -85 -41.5 -158.5t-132.5 -146.5l-148 -123q82 4 350 4v-178h-630z" />
<glyph unicode="&#xb3;" horiz-adv-x="729" d="M70 553l20 152q102 -25 191 -25q176 0 176 111q0 31 -14.5 52t-52.5 36.5t-103.5 16.5t-167.5 -9v139q176 0 247.5 31t71.5 100q0 45 -32 72.5t-91 27.5q-37 0 -77 -8q-9 -62 -21 -112h-131v237q122 29 256 29q151 0 227 -58.5t76 -160.5q0 -143 -135 -195 q76 -15 121 -66.5t45 -119.5q0 -124 -108.5 -197.5t-284.5 -73.5q-113 0 -213 21z" />
<glyph unicode="&#xb4;" horiz-adv-x="800" d="M190 1276l314 256l110 -146l-335 -227z" />
<glyph unicode="&#xb5;" horiz-adv-x="1243" d="M35 868v136q198 22 389 14v-666q0 -97 36.5 -143.5t114.5 -46.5q117 0 192 103t75 267v318q-105 14 -158 18v136q181 23 375 14v-660q0 -107 17 -148t61 -44q22 0 32 4l19 -172q-41 -14 -121 -14q-102 0 -149.5 57.5t-45.5 155.5l-2 2q-41 -100 -121.5 -157.5 t-193.5 -57.5q-106 0 -152 61l25 -545h-223v1348q-84 14 -170 20z" />
<glyph unicode="&#xb6;" horiz-adv-x="1187" d="M125 940q0 197 130 319.5t339 122.5v-890q-118 -1 -209.5 34.5t-147 97.5t-84 142t-28.5 174zM604 -25h148v1407h329v-172h-139v-1407h-338v172z" />
<glyph unicode="&#xb7;" horiz-adv-x="512" d="M106 608q0 63 44 106.5t106 43.5t104.5 -43.5t42.5 -106.5q0 -62 -42.5 -104.5t-104.5 -42.5t-106 43t-44 104z" />
<glyph unicode="&#xb8;" horiz-adv-x="819" d="M313 -481q55 67 76.5 117.5t11 104.5t-58.5 114l184 63q146 -194 -43 -399h-170z" />
<glyph unicode="&#xb9;" horiz-adv-x="659" d="M41 1303l238 86h180v-682q97 -12 162 -29v-125h-558v125q77 23 183 29v499l-172 -69z" />
<glyph unicode="&#xba;" horiz-adv-x="884" d="M92 1028q0 169 103 272t260 103q70 0 128.5 -18t107 -57.5t75.5 -110t27 -166.5q0 -171 -103.5 -275t-265.5 -104q-151 0 -241.5 86t-90.5 270zM127 399v172h631v-172h-631zM285 1040q0 -42 7.5 -77.5t24 -67.5t47.5 -50t74 -18q72 0 117 53t45 158q0 94 -37.5 151.5 t-118.5 57.5q-66 0 -112.5 -51.5t-46.5 -155.5z" />
<glyph unicode="&#xbb;" horiz-adv-x="1064" d="M133 895l170 84l246 -375l-252 -379l-162 82l199 297zM567 299l185 305l-185 299l172 82l228 -381l-232 -385z" />
<glyph unicode="&#xbc;" horiz-adv-x="1511" d="M86 1309l193 77h163v-577q45 -4 140 -25v-98h-473v98q66 16 153 25v430l-139 -61zM152 -12l1132 1466l109 -84l-1133 -1464zM805 287l278 409h232v-397h129v-129h-129v-68l98 -24v-78h-383v78q50 13 107 24v68h-314zM963 299h176v270z" />
<glyph unicode="&#xbd;" horiz-adv-x="1548" d="M86 1309l193 77h163v-577q45 -4 140 -25v-98h-473v98q66 16 153 25v430l-139 -61zM141 -12l1133 1466l108 -84l-1132 -1464zM913 0v133l183 156q84 63 117.5 102t33.5 88q0 45 -27 73t-75 28q-31 0 -66 -13l-28 -114h-113l8 219q118 41 246 41t194 -53.5t66 -141.5 q0 -80 -39 -139t-108 -113l-144 -123h301v-143h-549z" />
<glyph unicode="&#xbe;" horiz-adv-x="1511" d="M119 690l20 127q68 -22 140 -22q77 0 120 24t43 70q0 49 -47 67t-149 15l-76 -4v118h47q207 0 207 111q0 40 -27.5 64t-85.5 24q-31 0 -49 -6q-7 -52 -20 -90h-103v188q122 27 207 27q126 0 192 -45t66 -133q0 -113 -117 -170q66 -12 103 -54.5t37 -99.5q0 -107 -96 -168 t-257 -61q-78 0 -155 18zM152 -12l1132 1466l109 -84l-1133 -1464zM805 287l278 409h232v-397h129v-129h-129v-68l98 -24v-78h-383v78q50 13 107 24v68h-314zM963 299h176v270z" />
<glyph unicode="&#xbf;" horiz-adv-x="917" d="M111 -37q0 69 22.5 127.5t57 97.5t75 79.5t76.5 74t62 81.5t31.5 100.5t-15.5 131.5h213q27 -88 25.5 -150t-24.5 -116t-57.5 -92t-74 -76.5t-73.5 -70.5t-56.5 -74.5t-22.5 -87.5q0 -97 111.5 -161t300.5 -71l-29 -198q-295 9 -458.5 125.5t-163.5 279.5zM383 901 q0 58 40.5 97.5t100.5 39.5q59 0 99.5 -39.5t40.5 -97.5q0 -57 -40.5 -96t-99.5 -39q-60 0 -100.5 39t-40.5 96z" />
<glyph unicode="&#xc0;" horiz-adv-x="1421" d="M14 0v135q57 16 119 23l436 1224h279l440 -1224q62 -7 119 -23v-135h-518v135q98 21 151 25l-71 202h-541l-72 -202q61 -5 156 -25v-135h-498zM410 1589l55 162l395 -152l-39 -122zM483 539h432l-151 428q-43 127 -64 209h-4q-18 -78 -59 -207z" />
<glyph unicode="&#xc1;" horiz-adv-x="1421" d="M14 0v135q57 16 119 23l436 1224h279l440 -1224q62 -7 119 -23v-135h-518v135q98 21 151 25l-71 202h-541l-72 -202q61 -5 156 -25v-135h-498zM483 539h432l-151 428q-43 127 -64 209h-4q-18 -78 -59 -207zM551 1599l395 152l55 -162l-411 -112z" />
<glyph unicode="&#xc2;" horiz-adv-x="1421" d="M14 0v135q57 16 119 23l436 1224h279l440 -1224q62 -7 119 -23v-135h-518v135q98 21 151 25l-71 202h-541l-72 -202q61 -5 156 -25v-135h-498zM379 1589l330 174l333 -166l-59 -122l-281 118l-270 -118zM483 539h432l-151 428q-43 127 -64 209h-4q-18 -78 -59 -207z" />
<glyph unicode="&#xc3;" horiz-adv-x="1421" d="M14 0v135q57 16 119 23l436 1224h279l440 -1224q62 -7 119 -23v-135h-518v135q98 21 151 25l-71 202h-541l-72 -202q61 -5 156 -25v-135h-498zM334 1587q89 160 241 160q47 0 88.5 -16t66 -35t55.5 -35t59 -16q67 0 123 90l110 -78q-91 -158 -241 -158q-47 0 -88.5 16 t-66 35.5t-55.5 35.5t-59 16q-69 0 -123 -91zM483 539h432l-151 428q-43 127 -64 209h-4q-18 -78 -59 -207z" />
<glyph unicode="&#xc4;" horiz-adv-x="1421" d="M14 0v135q57 16 119 23l436 1224h279l440 -1224q62 -7 119 -23v-135h-518v135q98 21 151 25l-71 202h-541l-72 -202q61 -5 156 -25v-135h-498zM358 1602q0 51 35 85.5t86 34.5t86 -34.5t35 -85.5t-35 -85t-86 -34t-86 34t-35 85zM483 539h432l-151 428q-43 127 -64 209 h-4q-18 -78 -59 -207zM799 1602q0 51 35 85.5t86 34.5t85.5 -34.5t34.5 -85.5t-34.5 -85t-85.5 -34t-86 34t-35 85z" />
<glyph unicode="&#xc5;" horiz-adv-x="1421" d="M14 0v135q57 16 119 23l436 1224h279l440 -1224q62 -7 119 -23v-135h-518v135q98 21 151 25l-71 202h-541l-72 -202q61 -5 156 -25v-135h-498zM473 1677q0 93 67 156t160 63q96 0 162 -61t66 -154q0 -90 -68 -154.5t-162 -64.5q-95 0 -160 60.5t-65 154.5zM483 539h432 l-151 428q-43 127 -64 209h-4q-18 -78 -59 -207zM600 1679q0 -42 29 -72t71 -30q41 0 71 30.5t30 71.5t-30 72t-71 31q-42 0 -71 -30.5t-29 -72.5z" />
<glyph unicode="&#xc6;" horiz-adv-x="1691" d="M-63 0v135q57 16 116 23l576 1063q-89 6 -178 26v135h1105v-331h-159q-23 128 -25 155h-323v-413h262q10 75 26 127h140v-418h-140q-14 46 -26 127h-262v-449h335q10 79 27 164h162v-344h-903v137q96 20 155 25v192h-442l-104 -194q59 -5 141 -25v-135h-483zM469 530h356 v672h-8q-62 -141 -139 -291z" />
<glyph unicode="&#xc7;" horiz-adv-x="1204" d="M84 653q0 163 43.5 299t127 236t213.5 155.5t296 55.5q155 0 326 -41v-363h-164q-13 72 -25 181q-96 22 -176 22q-127 0 -217.5 -66.5t-135 -180t-44.5 -261.5q0 -241 109 -374.5t333 -133.5q168 0 307 66l35 -193q-192 -73 -391 -73q-312 0 -474.5 177t-162.5 494z M524 -481q55 67 76.5 117.5t11 104.5t-58.5 114l184 63q146 -194 -43 -399h-170z" />
<glyph unicode="&#xc8;" horiz-adv-x="1091" d="M53 0v135q95 22 178 27v1059q-89 6 -178 26v135h916v-331h-162q-23 128 -25 155h-329v-413h264q10 75 26 127h140v-418h-140q-20 65 -26 127h-264v-449h331q4 52 27 164h162v-344h-920zM229 1589l56 162l395 -152l-39 -122z" />
<glyph unicode="&#xc9;" horiz-adv-x="1091" d="M53 0v135q95 22 178 27v1059q-89 6 -178 26v135h916v-331h-162q-23 128 -25 155h-329v-413h264q10 75 26 127h140v-418h-140q-20 65 -26 127h-264v-449h331q4 52 27 164h162v-344h-920zM410 1599l395 152l55 -162l-411 -112z" />
<glyph unicode="&#xca;" horiz-adv-x="1091" d="M53 0v135q95 22 178 27v1059q-89 6 -178 26v135h916v-331h-162q-23 128 -25 155h-329v-413h264q10 75 26 127h140v-418h-140q-20 65 -26 127h-264v-449h331q4 52 27 164h162v-344h-920zM221 1589l330 174l334 -166l-60 -122l-280 118l-271 -118z" />
<glyph unicode="&#xcb;" horiz-adv-x="1091" d="M53 0v135q95 22 178 27v1059q-89 6 -178 26v135h916v-331h-162q-23 128 -25 155h-329v-413h264q10 75 26 127h140v-418h-140q-20 65 -26 127h-264v-449h331q4 52 27 164h162v-344h-920zM195 1602q0 51 34.5 85.5t85.5 34.5t86 -34.5t35 -85.5t-35 -85t-86 -34t-85.5 34 t-34.5 85zM635 1602q0 51 35 85.5t86 34.5t86 -34.5t35 -85.5t-35 -85t-86 -34t-86 34t-35 85z" />
<glyph unicode="&#xcc;" horiz-adv-x="684" d="M39 1589l55 162l395 -152l-38 -122zM53 0v135q95 22 178 27v1059q-89 6 -178 26v135h578v-135q-89 -20 -178 -26v-1059q83 -5 178 -27v-135h-578z" />
<glyph unicode="&#xcd;" horiz-adv-x="684" d="M53 0v135q95 22 178 27v1059q-89 6 -178 26v135h578v-135q-89 -20 -178 -26v-1059q83 -5 178 -27v-135h-578zM162 1599l395 152l55 -162l-411 -112z" />
<glyph unicode="&#xce;" horiz-adv-x="684" d="M10 1589l330 174l334 -166l-60 -122l-280 118l-271 -118zM53 0v135q95 22 178 27v1059q-89 6 -178 26v135h578v-135q-89 -20 -178 -26v-1059q83 -5 178 -27v-135h-578z" />
<glyph unicode="&#xcf;" horiz-adv-x="684" d="M0 1602q0 51 35 85.5t86 34.5t86 -34.5t35 -85.5t-35 -85t-86 -34t-86 34t-35 85zM53 0v135q95 22 178 27v1059q-89 6 -178 26v135h578v-135q-89 -20 -178 -26v-1059q83 -5 178 -27v-135h-578zM440 1602q0 51 35 85.5t86 34.5t86 -34.5t35 -85.5t-35 -85t-86 -34t-86 34 t-35 85z" />
<glyph unicode="&#xd0;" horiz-adv-x="1470" d="M74 0v135q95 22 178 27v461h-170v168h170v430q-89 6 -178 26v135h174q49 0 198 3.5t236 3.5q337 0 519.5 -165t182.5 -513q0 -175 -56 -312t-157.5 -226t-242 -135t-312.5 -46q-73 0 -192.5 4t-171.5 4h-178zM475 193q82 -11 166 -11q234 0 370 128t136 384 q0 252 -117.5 381t-365.5 129q-91 0 -189 -4v-409h275v-168h-275v-430z" />
<glyph unicode="&#xd1;" horiz-adv-x="1556" d="M53 0v135q95 22 178 27v1059q-89 6 -178 26v135h479l480 -798q65 -118 157 -314q-18 300 -18 951q-85 7 -150 24v137h504v-137q-84 -19 -137 -24v-1221h-301l-481 805q-88 152 -158 315q18 -253 18 -958q81 -6 158 -25v-137h-551zM414 1587q89 160 241 160q47 0 88.5 -16 t66 -35t55.5 -35t59 -16q67 0 123 90l110 -78q-91 -158 -242 -158q-47 0 -88.5 16t-66 35.5t-55 35.5t-58.5 16q-69 0 -123 -91z" />
<glyph unicode="&#xd2;" horiz-adv-x="1441" d="M78 672q0 169 52 308.5t142.5 231t211 141.5t257.5 50q303 0 463 -185t160 -507q0 -169 -52.5 -308.5t-143 -231t-211 -141.5t-257.5 -50q-303 0 -462.5 185t-159.5 507zM313 702q0 -243 103.5 -383.5t302.5 -140.5q181 0 295 132t114 370q0 243 -103.5 384.5 t-301.5 141.5q-181 0 -295.5 -133t-114.5 -371zM424 1589l55 162l395 -152l-38 -122z" />
<glyph unicode="&#xd3;" horiz-adv-x="1441" d="M78 672q0 169 52 308.5t142.5 231t211 141.5t257.5 50q303 0 463 -185t160 -507q0 -169 -52.5 -308.5t-143 -231t-211 -141.5t-257.5 -50q-303 0 -462.5 185t-159.5 507zM313 702q0 -243 103.5 -383.5t302.5 -140.5q181 0 295 132t114 370q0 243 -103.5 384.5 t-301.5 141.5q-181 0 -295.5 -133t-114.5 -371zM596 1599l395 152l56 -162l-412 -112z" />
<glyph unicode="&#xd4;" horiz-adv-x="1441" d="M78 672q0 169 52 308.5t142.5 231t211 141.5t257.5 50q303 0 463 -185t160 -507q0 -169 -52.5 -308.5t-143 -231t-211 -141.5t-257.5 -50q-303 0 -462.5 185t-159.5 507zM313 702q0 -243 103.5 -383.5t302.5 -140.5q181 0 295 132t114 370q0 243 -103.5 384.5 t-301.5 141.5q-181 0 -295.5 -133t-114.5 -371zM408 1589l329 174l334 -166l-59 -122l-281 118l-270 -118z" />
<glyph unicode="&#xd5;" horiz-adv-x="1441" d="M78 672q0 169 52 308.5t142.5 231t211 141.5t257.5 50q303 0 463 -185t160 -507q0 -169 -52.5 -308.5t-143 -231t-211 -141.5t-257.5 -50q-303 0 -462.5 185t-159.5 507zM313 702q0 -243 103.5 -383.5t302.5 -140.5q181 0 295 132t114 370q0 243 -103.5 384.5 t-301.5 141.5q-181 0 -295.5 -133t-114.5 -371zM367 1587q89 160 241 160q47 0 88.5 -16t66 -35t55.5 -35t59 -16q66 0 122 90l111 -78q-91 -158 -242 -158q-47 0 -88.5 16t-66 35.5t-55 35.5t-58.5 16q-69 0 -123 -91z" />
<glyph unicode="&#xd6;" horiz-adv-x="1441" d="M78 672q0 169 52 308.5t142.5 231t211 141.5t257.5 50q303 0 463 -185t160 -507q0 -169 -52.5 -308.5t-143 -231t-211 -141.5t-257.5 -50q-303 0 -462.5 185t-159.5 507zM313 702q0 -243 103.5 -383.5t302.5 -140.5q181 0 295 132t114 370q0 243 -103.5 384.5 t-301.5 141.5q-181 0 -295.5 -133t-114.5 -371zM385 1602q0 51 35 85.5t86 34.5t86 -34.5t35 -85.5t-35 -85t-86 -34t-86 34t-35 85zM825 1602q0 51 35 85.5t86 34.5t86 -34.5t35 -85.5t-35 -85t-86 -34t-86 34t-35 85z" />
<glyph unicode="&#xd7;" d="M104 270l332 332l-332 330l136 135l329 -332l332 332l121 -121l-332 -332l332 -329l-135 -135l-330 331l-332 -331z" />
<glyph unicode="&#xd8;" horiz-adv-x="1441" d="M78 676q0 168 52 306.5t142.5 230t211 141t257.5 49.5q84 0 174 -17l86 203l160 -67l-84 -199q140 -79 213.5 -234t73.5 -380q0 -169 -52 -308t-142.5 -230t-211 -141t-258.5 -50q-111 0 -190 20l-88 -209l-160 68l90 209q-274 166 -274 608zM307 702q0 -148 38.5 -258.5 t105.5 -167.5l380 922h-2q-44 14 -108 14q-84 0 -158 -32t-131.5 -94t-91 -161t-33.5 -223zM596 188q59 -16 121 -16q66 0 126 19t113.5 60t93 100.5t62.5 145.5t23 189q0 153 -40 265t-114 171z" />
<glyph unicode="&#xd9;" horiz-adv-x="1460" d="M53 1245v137h514v-137q-71 -17 -155 -24v-734q0 -76 13.5 -131.5t47.5 -102.5t98 -71t158 -24q170 0 248 82.5t78 275.5v705q-89 7 -156 24v137h510v-137q-65 -15 -135 -24v-693q0 -271 -142 -409.5t-417 -138.5q-126 0 -221 27.5t-152.5 71.5t-92.5 110t-48 133t-13 149 v750q-77 10 -135 24zM365 1589l55 162l395 -152l-39 -122z" />
<glyph unicode="&#xda;" horiz-adv-x="1460" d="M53 1245v137h514v-137q-71 -17 -155 -24v-734q0 -76 13.5 -131.5t47.5 -102.5t98 -71t158 -24q170 0 248 82.5t78 275.5v705q-89 7 -156 24v137h510v-137q-65 -15 -135 -24v-693q0 -271 -142 -409.5t-417 -138.5q-126 0 -221 27.5t-152.5 71.5t-92.5 110t-48 133t-13 149 v750q-77 10 -135 24zM616 1599l396 152l55 -162l-412 -112z" />
<glyph unicode="&#xdb;" horiz-adv-x="1460" d="M53 1245v137h514v-137q-71 -17 -155 -24v-734q0 -76 13.5 -131.5t47.5 -102.5t98 -71t158 -24q170 0 248 82.5t78 275.5v705q-89 7 -156 24v137h510v-137q-65 -15 -135 -24v-693q0 -271 -142 -409.5t-417 -138.5q-126 0 -221 27.5t-152.5 71.5t-92.5 110t-48 133t-13 149 v750q-77 10 -135 24zM395 1589l330 174l334 -166l-60 -122l-280 118l-270 -118z" />
<glyph unicode="&#xdc;" horiz-adv-x="1460" d="M53 1245v137h514v-137q-71 -17 -155 -24v-734q0 -76 13.5 -131.5t47.5 -102.5t98 -71t158 -24q170 0 248 82.5t78 275.5v705q-89 7 -156 24v137h510v-137q-65 -15 -135 -24v-693q0 -271 -142 -409.5t-417 -138.5q-126 0 -221 27.5t-152.5 71.5t-92.5 110t-48 133t-13 149 v750q-77 10 -135 24zM393 1602q0 51 35 85.5t86 34.5t86 -34.5t35 -85.5t-35 -85t-86 -34t-86 34t-35 85zM834 1602q0 51 34.5 85.5t85.5 34.5t86 -34.5t35 -85.5t-35 -85t-86 -34t-85.5 34t-34.5 85z" />
<glyph unicode="&#xdd;" horiz-adv-x="1232" d="M14 1245v137h504v-137q-70 -16 -137 -22l147 -322q82 -184 95 -219h2q34 93 98 229l145 312q-70 6 -139 22v137h490v-137q-55 -13 -117 -20l-377 -744v-319q83 -5 178 -27v-135h-579v135q95 22 178 27v319l-371 744q-65 7 -117 20zM520 1599l395 152l56 -162l-412 -112z " />
<glyph unicode="&#xde;" horiz-adv-x="1212" d="M53 0v133q95 22 178 27v1063q-89 6 -178 26v133h578v-125q-82 -22 -178 -28v-111q90 8 200 8q256 0 383 -107.5t127 -285.5q0 -203 -147 -325.5t-383 -122.5q-73 0 -180 10v-141q91 -6 178 -29v-125h-578zM453 475q78 -12 161 -12q154 0 231 69t77 179q0 103 -70.5 171 t-230.5 68q-103 0 -168 -8v-467z" />
<glyph unicode="&#xdf;" horiz-adv-x="1372" d="M53 872v134q102 12 183 14q2 232 128 359.5t365 127.5q195 0 302.5 -83.5t107.5 -217.5q0 -52 -14 -94t-36 -68.5t-48.5 -49t-53 -41t-48.5 -38t-36 -47t-14 -61.5q0 -38 23.5 -69.5t61.5 -54.5t83.5 -46t91 -50.5t83.5 -61.5t61.5 -86t23.5 -117q0 -145 -105.5 -240.5 t-300.5 -95.5q-112 0 -225 20v297h139q13 -63 21 -141q33 -10 80 -10q89 0 129.5 40t40.5 103q0 40 -24 72t-62 54.5t-84 44t-92 48t-84 59.5t-62 85t-24 118q0 62 25.5 109.5t62 78.5t72.5 60t61.5 68.5t25.5 89.5q0 68 -53.5 108.5t-142.5 40.5q-129 0 -195.5 -78.5 t-66.5 -253.5v-837q88 -7 143 -27v-135h-539v135q95 21 179 27v690q-80 13 -183 20z" />
<glyph unicode="&#xe0;" horiz-adv-x="1099" d="M80 254q0 169 159.5 260t440.5 94v68q0 101 -45 151t-154 50q-80 0 -172 -29q-6 -67 -22 -152h-135v287q170 55 348 55q115 0 194.5 -23.5t124 -70.5t63.5 -107.5t19 -142.5v-524q84 -14 170 -20v-136q-201 -23 -375 -14q0 112 11 188l-2 2q-38 -93 -129.5 -151.5 t-208.5 -58.5q-130 0 -208.5 74.5t-78.5 199.5zM238 1386l110 146l314 -256l-89 -117zM291 287q0 -61 38.5 -99t102.5 -38q108 0 178 87t70 201v23q-389 0 -389 -174z" />
<glyph unicode="&#xe1;" horiz-adv-x="1099" d="M80 254q0 169 159.5 260t440.5 94v68q0 101 -45 151t-154 50q-80 0 -172 -29q-6 -67 -22 -152h-135v287q170 55 348 55q115 0 194.5 -23.5t124 -70.5t63.5 -107.5t19 -142.5v-524q84 -14 170 -20v-136q-201 -23 -375 -14q0 112 11 188l-2 2q-38 -93 -129.5 -151.5 t-208.5 -58.5q-130 0 -208.5 74.5t-78.5 199.5zM291 287q0 -61 38.5 -99t102.5 -38q108 0 178 87t70 201v23q-389 0 -389 -174zM379 1276l313 256l111 -146l-336 -227z" />
<glyph unicode="&#xe2;" horiz-adv-x="1099" d="M80 254q0 169 159.5 260t440.5 94v68q0 101 -45 151t-154 50q-80 0 -172 -29q-6 -67 -22 -152h-135v287q170 55 348 55q115 0 194.5 -23.5t124 -70.5t63.5 -107.5t19 -142.5v-524q84 -14 170 -20v-136q-201 -23 -375 -14q0 112 11 188l-2 2q-38 -93 -129.5 -151.5 t-208.5 -58.5q-130 0 -208.5 74.5t-78.5 199.5zM231 1260l299 272l297 -270l-92 -103l-207 170l-209 -170zM291 287q0 -61 38.5 -99t102.5 -38q108 0 178 87t70 201v23q-389 0 -389 -174z" />
<glyph unicode="&#xe3;" horiz-adv-x="1099" d="M80 254q0 169 159.5 260t440.5 94v68q0 101 -45 151t-154 50q-80 0 -172 -29q-6 -67 -22 -152h-135v287q170 55 348 55q115 0 194.5 -23.5t124 -70.5t63.5 -107.5t19 -142.5v-524q84 -14 170 -20v-136q-201 -23 -375 -14q0 112 11 188l-2 2q-38 -93 -129.5 -151.5 t-208.5 -58.5q-130 0 -208.5 74.5t-78.5 199.5zM170 1300q86 170 236 170q45 0 84.5 -17t63 -37t52.5 -37t56 -17q64 0 118 94l107 -84q-88 -168 -236 -168q-46 0 -85.5 16.5t-62.5 37t-52 37t-56 16.5q-66 0 -119 -92zM291 287q0 -61 38.5 -99t102.5 -38q108 0 178 87 t70 201v23q-389 0 -389 -174z" />
<glyph unicode="&#xe4;" horiz-adv-x="1099" d="M80 254q0 169 159.5 260t440.5 94v68q0 101 -45 151t-154 50q-80 0 -172 -29q-6 -67 -22 -152h-135v287q170 55 348 55q115 0 194.5 -23.5t124 -70.5t63.5 -107.5t19 -142.5v-524q84 -14 170 -20v-136q-201 -23 -375 -14q0 112 11 188l-2 2q-38 -93 -129.5 -151.5 t-208.5 -58.5q-130 0 -208.5 74.5t-78.5 199.5zM205 1335q0 51 35.5 87t87.5 36t88.5 -36t36.5 -87q0 -53 -36.5 -89t-88.5 -36t-87.5 36t-35.5 89zM291 287q0 -61 38.5 -99t102.5 -38q108 0 178 87t70 201v23q-389 0 -389 -174zM606 1335q0 51 36.5 87t88.5 36q51 0 87 -36 t36 -87q0 -52 -36 -88.5t-87 -36.5q-53 0 -89 36t-36 89z" />
<glyph unicode="&#xe5;" horiz-adv-x="1099" d="M80 254q0 169 159.5 260t440.5 94v68q0 101 -45 151t-154 50q-80 0 -172 -29q-6 -67 -22 -152h-135v287q170 55 348 55q115 0 194.5 -23.5t124 -70.5t63.5 -107.5t19 -142.5v-524q84 -14 170 -20v-136q-201 -23 -375 -14q0 112 11 188l-2 2q-38 -93 -129.5 -151.5 t-208.5 -58.5q-130 0 -208.5 74.5t-78.5 199.5zM291 287q0 -61 38.5 -99t102.5 -38q108 0 178 87t70 201v23q-389 0 -389 -174zM291 1362q0 100 72 167.5t174 67.5q104 0 173.5 -62.5t69.5 -162.5q0 -99 -72 -172.5t-171 -73.5q-104 0 -175 67t-71 169zM426 1362 q0 -46 32 -79.5t79 -33.5q45 0 76.5 33.5t31.5 79.5t-31.5 79.5t-76.5 33.5q-47 0 -79 -33.5t-32 -79.5z" />
<glyph unicode="&#xe6;" horiz-adv-x="1638" d="M78 254q0 170 161.5 265t440.5 95v62q0 101 -45.5 151t-153.5 50q-86 0 -172 -27q-11 -83 -24 -154h-135v287q170 55 348 55q240 0 329 -137h2q44 59 125.5 98t182.5 39q106 0 187.5 -33.5t129.5 -92t72 -132.5t24 -162q0 -92 -12 -157h-643q0 -152 73.5 -228.5 t227.5 -76.5q161 0 293 59l29 -170q-160 -65 -361 -65q-161 0 -263.5 59t-143.5 164h-2q-48 -99 -147 -161t-230 -62q-135 0 -214 74.5t-79 199.5zM291 287q0 -61 37.5 -99t101.5 -38q108 0 179 87t71 201v31q-202 0 -295.5 -48.5t-93.5 -133.5zM895 612h436 q8 121 -45.5 193t-159.5 72q-102 0 -163.5 -76.5t-67.5 -188.5z" />
<glyph unicode="&#xe7;" horiz-adv-x="913" d="M78 475q0 123 32 224.5t94.5 176.5t162 116.5t227.5 41.5q138 0 248 -35v-309h-140q-17 88 -22 152q-46 12 -117 12q-122 0 -190 -93.5t-68 -252.5q0 -161 66.5 -248.5t226.5 -87.5q126 0 229 47l33 -184q-148 -51 -309 -51q-106 0 -189.5 26.5t-148.5 82.5t-100 153 t-35 229zM354 -481q55 67 76.5 117.5t11 104.5t-58.5 114l184 63q146 -194 -43 -399h-170z" />
<glyph unicode="&#xe8;" horiz-adv-x="1046" d="M78 502q0 235 126.5 385.5t342.5 150.5q106 0 186.5 -33.5t128.5 -92.5t72 -134t24 -164q0 -68 -8 -125h-647q-4 -172 69.5 -252.5t231.5 -80.5q154 0 293 59l29 -170q-168 -65 -361 -65q-487 0 -487 522zM250 1386l110 146l314 -256l-88 -117zM307 641h432 q3 107 -52 170t-152 63q-92 0 -153 -63.5t-75 -169.5z" />
<glyph unicode="&#xe9;" horiz-adv-x="1046" d="M78 502q0 235 126.5 385.5t342.5 150.5q106 0 186.5 -33.5t128.5 -92.5t72 -134t24 -164q0 -68 -8 -125h-647q-4 -172 69.5 -252.5t231.5 -80.5q154 0 293 59l29 -170q-168 -65 -361 -65q-487 0 -487 522zM307 641h432q3 107 -52 170t-152 63q-92 0 -153 -63.5 t-75 -169.5zM393 1276l314 256l110 -146l-336 -227z" />
<glyph unicode="&#xea;" horiz-adv-x="1046" d="M78 502q0 235 126.5 385.5t342.5 150.5q106 0 186.5 -33.5t128.5 -92.5t72 -134t24 -164q0 -68 -8 -125h-647q-4 -172 69.5 -252.5t231.5 -80.5q154 0 293 59l29 -170q-168 -65 -361 -65q-487 0 -487 522zM242 1260l299 272l297 -270l-93 -103l-206 170l-209 -170z M307 641h432q3 107 -52 170t-152 63q-92 0 -153 -63.5t-75 -169.5z" />
<glyph unicode="&#xeb;" horiz-adv-x="1046" d="M78 502q0 235 126.5 385.5t342.5 150.5q106 0 186.5 -33.5t128.5 -92.5t72 -134t24 -164q0 -68 -8 -125h-647q-4 -172 69.5 -252.5t231.5 -80.5q154 0 293 59l29 -170q-168 -65 -361 -65q-487 0 -487 522zM217 1335q0 51 35.5 87t87.5 36t88.5 -36t36.5 -87 q0 -53 -36.5 -89t-88.5 -36t-87.5 36t-35.5 89zM307 641h432q3 107 -52 170t-152 63q-92 0 -153 -63.5t-75 -169.5zM618 1335q0 51 36.5 87t88.5 36q51 0 87 -36t36 -87q0 -52 -36 -88.5t-87 -36.5q-53 0 -89 36t-36 89z" />
<glyph unicode="&#xec;" horiz-adv-x="655" d="M57 0v135q95 21 179 27v686q-82 13 -179 20v136q213 22 396 14v-856q83 -6 170 -27v-135h-566zM72 1386l110 146l314 -256l-88 -117z" />
<glyph unicode="&#xed;" horiz-adv-x="655" d="M57 0v135q95 21 179 27v686q-82 13 -179 20v136q213 22 396 14v-856q83 -6 170 -27v-135h-566zM125 1276l313 256l111 -146l-336 -227z" />
<glyph unicode="&#xee;" horiz-adv-x="655" d="M39 1260l299 272l297 -270l-92 -103l-207 170l-209 -170zM57 0v135q95 21 179 27v686q-82 13 -179 20v136q213 22 396 14v-856q83 -6 170 -27v-135h-566z" />
<glyph unicode="&#xef;" horiz-adv-x="655" d="M18 1335q0 51 35.5 87t87.5 36t88.5 -36t36.5 -87q0 -53 -36 -89t-89 -36q-52 0 -87.5 36t-35.5 89zM57 0v135q95 21 179 27v686q-82 13 -179 20v136q213 22 396 14v-856q83 -6 170 -27v-135h-566zM420 1335q0 51 36.5 87t88.5 36q51 0 87 -36t36 -87q0 -52 -36 -88.5 t-87 -36.5q-53 0 -89 36t-36 89z" />
<glyph unicode="&#xf0;" d="M76 496q0 236 134.5 387t350.5 151q62 0 114.5 -20t78.5 -60q-1 2 -58 97q-50 85 -121 159l-200 -88l-90 107l184 82q-56 49 -162 127l217 92q87 -70 148 -131l194 84l90 -109l-188 -82q134 -160 205 -346t71 -383q0 -144 -38.5 -257t-106.5 -183.5t-157.5 -106.5 t-194.5 -36q-217 0 -344 130t-127 386zM301 514q0 -166 71 -256t197 -90q111 0 179.5 90.5t68.5 276.5q0 150 -65 234.5t-191 84.5q-109 0 -184.5 -87.5t-75.5 -252.5z" />
<glyph unicode="&#xf1;" horiz-adv-x="1288" d="M57 0v135q95 21 179 27v686q-82 13 -179 20v136q214 22 385 14q0 -118 -14 -201h4q46 102 137 161.5t215 59.5q84 0 145 -25t95 -71t50 -102.5t16 -126.5v-551q78 -5 167 -27v-135h-387v653q0 101 -33.5 152t-117.5 51q-113 0 -189.5 -106t-76.5 -261v-327q84 -6 157 -25 v-137h-553zM274 1300q86 170 236 170q45 0 84.5 -17t63 -37t52.5 -37t56 -17q65 0 119 94l106 -84q-88 -168 -235 -168q-46 0 -85.5 16.5t-62.5 37t-52 37t-56 16.5q-66 0 -119 -92z" />
<glyph unicode="&#xf2;" d="M78 492q0 237 139 391.5t367 154.5q215 0 340 -126t125 -386q0 -155 -62 -279t-178 -195.5t-266 -71.5q-220 0 -342.5 127t-122.5 385zM297 1386l111 146l313 -256l-88 -117zM303 510q0 -167 66 -254.5t194 -87.5q113 0 186.5 88t73.5 254q0 167 -65.5 255.5t-192.5 88.5 q-52 0 -98 -20.5t-83.5 -60.5t-59 -107.5t-21.5 -155.5z" />
<glyph unicode="&#xf3;" d="M78 492q0 237 139 391.5t367 154.5q215 0 340 -126t125 -386q0 -155 -62 -279t-178 -195.5t-266 -71.5q-220 0 -342.5 127t-122.5 385zM303 510q0 -167 66 -254.5t194 -87.5q113 0 186.5 88t73.5 254q0 167 -65.5 255.5t-192.5 88.5q-52 0 -98 -20.5t-83.5 -60.5 t-59 -107.5t-21.5 -155.5zM418 1276l313 256l111 -146l-336 -227z" />
<glyph unicode="&#xf4;" d="M78 492q0 237 139 391.5t367 154.5q215 0 340 -126t125 -386q0 -155 -62 -279t-178 -195.5t-266 -71.5q-220 0 -342.5 127t-122.5 385zM268 1260l299 272l297 -270l-92 -103l-207 170l-209 -170zM303 510q0 -167 66 -254.5t194 -87.5q113 0 186.5 88t73.5 254 q0 167 -65.5 255.5t-192.5 88.5q-52 0 -98 -20.5t-83.5 -60.5t-59 -107.5t-21.5 -155.5z" />
<glyph unicode="&#xf5;" d="M78 492q0 237 139 391.5t367 154.5q215 0 340 -126t125 -386q0 -155 -62 -279t-178 -195.5t-266 -71.5q-220 0 -342.5 127t-122.5 385zM201 1300q86 170 235 170q45 0 84.5 -17t63 -37t52.5 -37t56 -17q65 0 119 94l107 -84q-88 -168 -236 -168q-46 0 -85.5 16.5 t-62.5 37t-52 37t-56 16.5q-66 0 -119 -92zM303 510q0 -167 66 -254.5t194 -87.5q113 0 186.5 88t73.5 254q0 167 -65.5 255.5t-192.5 88.5q-52 0 -98 -20.5t-83.5 -60.5t-59 -107.5t-21.5 -155.5z" />
<glyph unicode="&#xf6;" d="M78 492q0 237 139 391.5t367 154.5q215 0 340 -126t125 -386q0 -155 -62 -279t-178 -195.5t-266 -71.5q-220 0 -342.5 127t-122.5 385zM238 1335q0 51 35 87t87 36t88.5 -36t36.5 -87q0 -53 -36.5 -89t-88.5 -36t-87 36t-35 89zM303 510q0 -167 66 -254.5t194 -87.5 q113 0 186.5 88t73.5 254q0 167 -65.5 255.5t-192.5 88.5q-52 0 -98 -20.5t-83.5 -60.5t-59 -107.5t-21.5 -155.5zM639 1335q0 51 36.5 87t88.5 36q51 0 87 -36t36 -87q0 -52 -36 -88.5t-87 -36.5q-52 0 -88.5 36t-36.5 89z" />
<glyph unicode="&#xf7;" d="M84 518v182h958v-182h-958zM422 197q0 59 40.5 100t98.5 41t98.5 -41t40.5 -100q0 -57 -40.5 -98.5t-98.5 -41.5t-98.5 41.5t-40.5 98.5zM422 1020q0 58 40 98.5t99 40.5t99 -40.5t40 -98.5t-40 -98.5t-99 -40.5t-99 40.5t-40 98.5z" />
<glyph unicode="&#xf8;" d="M78 492q0 237 139 391.5t367 154.5q56 0 131 -14l86 184l129 -55l-86 -182q205 -123 205 -447q0 -235 -139.5 -389.5t-364.5 -154.5q-85 0 -162 22l-96 -205l-127 56l96 206q-178 122 -178 433zM287 512q0 -171 71 -262l267 610q-27 6 -58 6q-119 0 -199.5 -90 t-80.5 -264zM475 170q38 -14 90 -14q121 0 198 91.5t77 264.5q0 210 -92 283z" />
<glyph unicode="&#xf9;" horiz-adv-x="1257" d="M33 868v136q198 22 385 14v-653q0 -102 34 -152.5t119 -50.5q114 0 190.5 106t76.5 260v322q-105 14 -158 18v136q181 23 375 14v-848q84 -14 170 -20v-136q-200 -23 -377 -14q0 116 14 201h-4q-46 -102 -137 -161.5t-215 -59.5q-84 0 -144.5 25t-95 71t-50 102.5 t-15.5 126.5v543q-83 14 -168 20zM317 1386l111 146l313 -256l-88 -117z" />
<glyph unicode="&#xfa;" horiz-adv-x="1257" d="M33 868v136q198 22 385 14v-653q0 -102 34 -152.5t119 -50.5q114 0 190.5 106t76.5 260v322q-105 14 -158 18v136q181 23 375 14v-848q84 -14 170 -20v-136q-200 -23 -377 -14q0 116 14 201h-4q-46 -102 -137 -161.5t-215 -59.5q-84 0 -144.5 25t-95 71t-50 102.5 t-15.5 126.5v543q-83 14 -168 20zM494 1276l313 256l111 -146l-336 -227z" />
<glyph unicode="&#xfb;" horiz-adv-x="1257" d="M33 868v136q198 22 385 14v-653q0 -102 34 -152.5t119 -50.5q114 0 190.5 106t76.5 260v322q-105 14 -158 18v136q181 23 375 14v-848q84 -14 170 -20v-136q-200 -23 -377 -14q0 116 14 201h-4q-46 -102 -137 -161.5t-215 -59.5q-84 0 -144.5 25t-95 71t-50 102.5 t-15.5 126.5v543q-83 14 -168 20zM317 1260l299 272l297 -270l-92 -103l-207 170l-208 -170z" />
<glyph unicode="&#xfc;" horiz-adv-x="1257" d="M33 868v136q198 22 385 14v-653q0 -102 34 -152.5t119 -50.5q114 0 190.5 106t76.5 260v322q-105 14 -158 18v136q181 23 375 14v-848q84 -14 170 -20v-136q-200 -23 -377 -14q0 116 14 201h-4q-46 -102 -137 -161.5t-215 -59.5q-84 0 -144.5 25t-95 71t-50 102.5 t-15.5 126.5v543q-83 14 -168 20zM287 1335q0 51 35.5 87t87.5 36t88.5 -36t36.5 -87q0 -53 -36.5 -89t-88.5 -36t-87.5 36t-35.5 89zM688 1335q0 51 36.5 87t88.5 36q51 0 87 -36t36 -87q0 -52 -36 -88.5t-87 -36.5q-53 0 -89 36t-36 89z" />
<glyph unicode="&#xfd;" horiz-adv-x="1153" d="M14 881v137h478v-137q-56 -15 -121 -21l131 -375q50 -145 80 -260h2q20 86 92 301l117 334q-66 6 -121 21v137h467v-137q-43 -12 -121 -23l-344 -967q-81 -231 -180.5 -320t-272.5 -89q-68 0 -147 14l14 193q81 -23 139 -23q77 0 129.5 49t100.5 176l39 109h-60l-301 858 q-78 11 -121 23zM446 1276l314 256l110 -146l-335 -227z" />
<glyph unicode="&#xfe;" horiz-adv-x="1146" d="M-16 -367q87 23 178 29v1663q-96 16 -174 21v135q212 22 393 14v-434q0 -134 -16 -230h2q40 97 125 152t200 55q180 0 276.5 -124.5t96.5 -354.5q0 -266 -144 -420.5t-397 -154.5q-77 0 -143 10v-332q91 -6 178 -29v-133h-575v133zM381 178q67 -20 162 -20q137 0 215 92 t78 289q0 317 -203 317q-78 0 -137 -55.5t-87 -137t-28 -171.5v-314z" />
<glyph unicode="&#xff;" horiz-adv-x="1153" d="M14 881v137h478v-137q-56 -15 -121 -21l131 -375q50 -145 80 -260h2q20 86 92 301l117 334q-66 6 -121 21v137h467v-137q-43 -12 -121 -23l-344 -967q-81 -231 -180.5 -320t-272.5 -89q-68 0 -147 14l14 193q81 -23 139 -23q77 0 129.5 49t100.5 176l39 109h-60l-301 858 q-78 11 -121 23zM250 1335q0 51 35.5 87t87.5 36t88.5 -36t36.5 -87q0 -53 -36 -89t-89 -36q-52 0 -87.5 36t-35.5 89zM651 1335q0 51 36.5 87t88.5 36q51 0 87 -36t36 -87q0 -52 -36 -88.5t-87 -36.5q-52 0 -88.5 36t-36.5 89z" />
<glyph unicode="&#x152;" horiz-adv-x="1771" d="M78 672q0 169 52 308.5t142.5 231t211 141.5t257.5 50q106 0 205 -21h696v-331h-161q-23 128 -25 155h-328v-413h265q7 53 26 127h140v-418h-140q-14 46 -26 127h-265v-449h334q2 17 27 164h164v-344h-729q-120 -20 -224 -20q-303 0 -462.5 185t-159.5 507zM313 702 q0 -243 103.5 -383.5t302.5 -140.5q97 0 188 31v969q-89 28 -186 28q-179 0 -293.5 -133.5t-114.5 -370.5z" />
<glyph unicode="&#x153;" horiz-adv-x="1775" d="M78 492q0 237 139 391.5t367 154.5q109 0 204 -44.5t148 -131.5q54 80 141.5 128t200.5 48q106 0 186.5 -33.5t129 -92.5t72.5 -134t24 -164q0 -50 -7 -125h-649q-4 -172 69.5 -252.5t231.5 -80.5q157 0 293 59l29 -170q-168 -65 -361 -65q-271 0 -383 190 q-60 -87 -154.5 -138.5t-215.5 -51.5q-220 0 -342.5 126.5t-122.5 385.5zM303 512q0 -168 66 -256t194 -88q112 0 186 89t74 257q0 165 -65 252.5t-193 87.5q-111 0 -186.5 -86.5t-75.5 -255.5zM1038 641h432q3 107 -52 170t-152 63q-91 0 -152.5 -63.5t-75.5 -169.5z" />
<glyph unicode="&#x178;" horiz-adv-x="1232" d="M14 1245v137h504v-137q-70 -16 -137 -22l147 -322q82 -184 95 -219h2q34 93 98 229l145 312q-70 6 -139 22v137h490v-137q-55 -13 -117 -20l-377 -744v-319q83 -5 178 -27v-135h-579v135q95 22 178 27v319l-371 744q-65 7 -117 20zM279 1602q0 51 34.5 85.5t85.5 34.5 t86 -34.5t35 -85.5t-35 -85t-86 -34t-85.5 34t-34.5 85zM719 1602q0 51 35 85.5t86 34.5t86 -34.5t35 -85.5t-35 -85t-86 -34t-86 34t-35 85z" />
<glyph unicode="&#x2c6;" horiz-adv-x="880" d="M139 1260l299 272l297 -270l-92 -103l-207 170l-209 -170z" />
<glyph unicode="&#x2dc;" horiz-adv-x="989" d="M133 1300q86 170 236 170q45 0 84.5 -17t63 -37t52.5 -37t56 -17q64 0 118 94l107 -84q-88 -168 -236 -168q-46 0 -85.5 16.5t-62.5 37t-52 37t-56 16.5q-65 0 -118 -92z" />
<glyph unicode="&#x2000;" horiz-adv-x="948" />
<glyph unicode="&#x2001;" horiz-adv-x="1896" />
<glyph unicode="&#x2002;" horiz-adv-x="948" />
<glyph unicode="&#x2003;" horiz-adv-x="1896" />
<glyph unicode="&#x2004;" horiz-adv-x="632" />
<glyph unicode="&#x2005;" horiz-adv-x="474" />
<glyph unicode="&#x2006;" horiz-adv-x="316" />
<glyph unicode="&#x2007;" horiz-adv-x="316" />
<glyph unicode="&#x2008;" horiz-adv-x="237" />
<glyph unicode="&#x2009;" horiz-adv-x="379" />
<glyph unicode="&#x200a;" horiz-adv-x="105" />
<glyph unicode="&#x2010;" horiz-adv-x="679" d="M94 492v176h492v-176h-492z" />
<glyph unicode="&#x2011;" horiz-adv-x="679" d="M94 492v176h492v-176h-492z" />
<glyph unicode="&#x2012;" horiz-adv-x="679" d="M94 492v176h492v-176h-492z" />
<glyph unicode="&#x2013;" d="M0 514v191h1126v-191h-1126z" />
<glyph unicode="&#x2014;" horiz-adv-x="2048" d="M236 514v191h1576v-191h-1576z" />
<glyph unicode="&#x2018;" horiz-adv-x="520" d="M128 1239q54 153 220 301l92 -82q-178 -189 -86 -303q24 -29 28 -66.5t-10 -69t-46 -53.5t-74 -22q-80 0 -120 71q-51 90 -4 224z" />
<glyph unicode="&#x2019;" horiz-adv-x="520" d="M78 1010q64 70 92.5 128t25 98.5t-31.5 76.5q-25 29 -29 67t9.5 70t46 54t75.5 22q79 0 120 -71q50 -90 3 -225q-54 -154 -219 -302z" />
<glyph unicode="&#x201a;" horiz-adv-x="520" d="M78 -252q176 191 86 303q-25 30 -29 68t9.5 69.5t46 53.5t75.5 22q79 0 120 -71q50 -90 3 -225q-54 -154 -219 -302z" />
<glyph unicode="&#x201c;" horiz-adv-x="933" d="M128 1239q54 153 220 301l92 -82q-178 -189 -86 -303q24 -29 28 -66.5t-10 -69t-46 -53.5t-74 -22q-80 0 -120 71q-51 90 -4 224zM544 1239q54 153 220 301l92 -82q-178 -189 -86 -303q24 -29 28 -66.5t-10 -69t-46.5 -53.5t-75.5 -22q-80 0 -120 71q-50 90 -2 224z" />
<glyph unicode="&#x201d;" horiz-adv-x="933" d="M78 1010q64 70 92.5 128t25 98.5t-31.5 76.5q-25 29 -29 67t9.5 70t46 54t75.5 22q79 0 120 -71q50 -90 3 -225q-54 -154 -219 -302zM492 1010q65 70 93.5 128t25 98.5t-32.5 76.5q-24 29 -28 67t10 70t46.5 54t75.5 22q79 0 119 -71q51 -90 4 -224q-54 -154 -221 -303z " />
<glyph unicode="&#x201e;" horiz-adv-x="933" d="M78 -252q176 191 86 303q-25 30 -29 68t9.5 69.5t46 53.5t75.5 22q79 0 120 -71q50 -90 3 -225q-54 -154 -219 -302zM492 -252q179 192 86 303q-24 30 -28 68t10 69.5t46.5 53.5t75.5 22q79 0 119 -71q51 -90 4 -224q-54 -154 -221 -303z" />
<glyph unicode="&#x2022;" horiz-adv-x="862" d="M160 608q0 113 79 193t193 80q112 0 192.5 -80.5t80.5 -192.5t-80 -192t-193 -80q-114 0 -193 79.5t-79 192.5z" />
<glyph unicode="&#x202f;" horiz-adv-x="379" />
<glyph unicode="&#x2039;" horiz-adv-x="641" d="M98 600l242 383l164 -84l-193 -299l195 -293l-170 -86z" />
<glyph unicode="&#x203a;" horiz-adv-x="641" d="M135 897l170 86l238 -379l-242 -383l-164 84l193 299z" />
<glyph unicode="&#x205f;" horiz-adv-x="474" />
<glyph unicode="&#x20ac;" horiz-adv-x="1202" d="M45 463v125h162q-2 23 -2 71q0 17 1 50t1 49h-162v125h176q91 520 613 520q153 0 296 -41v-313h-137q-17 67 -24 149q-68 29 -166 29q-155 0 -237.5 -87t-108.5 -257h440v-125h-453q-2 -31 -2 -92q0 -53 2 -78h453v-125h-432q61 -303 360 -303q74 0 154.5 14.5 t136.5 40.5l51 -168q-71 -31 -177 -49t-202 -18q-255 0 -394 120t-175 363h-174z" />
<glyph unicode="&#x2122;" horiz-adv-x="1722" d="M80 1135v247h582v-247h-103q-11 57 -18 122h-90v-368q51 -3 112 -21v-94h-383v94q61 18 111 21v368h-90q-5 -47 -19 -122h-102zM676 774v96q59 13 82 15l71 383q-56 6 -98 18v96h322l84 -301l20 -90l19 84l92 307h321v-96q-41 -11 -96 -18l70 -381q29 -4 82 -15v-98h-318 v94q41 14 72 17l-33 209l-14 92l-21 -80l-98 -332h-162l-96 336l-19 76l-6 -64l-41 -237q33 -3 74 -17v-94h-307z" />
<glyph unicode="&#x25fc;" horiz-adv-x="1013" d="M0 0v1014h1014v-1014h-1014z" />
</font>
</defs>
</svg>
