<?xml version="1.0" standalone="no"?>
<!DOCTYPE svg PUBLIC "-//W3C//DTD SVG 1.1//EN" "http://www.w3.org/Graphics/SVG/1.1/DTD/svg11.dtd" >
<svg xmlns="http://www.w3.org/2000/svg">
<metadata></metadata>
<defs>
<font id="theserifhp4_semilight_italic" horiz-adv-x="1126" >
<font-face units-per-em="2048" ascent="1516" descent="-532" />
<missing-glyph horiz-adv-x="446" />
<glyph unicode="&#x2e;&#x2e;&#x2e;" horiz-adv-x="1288" d="M31 86q0 50 32.5 82.5t77.5 32.5t74 -30.5t29 -72.5q0 -48 -34 -81t-79 -33q-44 0 -72 30.5t-28 71.5zM446 86q0 50 33.5 82.5t79.5 32.5q43 0 71.5 -30.5t28.5 -72.5q0 -49 -33 -81.5t-79 -32.5q-43 0 -72 30.5t-29 71.5zM862 86q0 50 33.5 82.5t79.5 32.5 q45 0 73.5 -30.5t28.5 -72.5q0 -48 -33.5 -81t-78.5 -33q-44 0 -73.5 30.5t-29.5 71.5z" />
<glyph unicode="&#xfb01;" horiz-adv-x="1204" d="M-371 -508l39 133q70 -22 156 -22q120 0 187.5 75.5t103.5 260.5l184 958h-209l23 121h211l8 51q38 220 168.5 329t359.5 109q143 0 275 -39l-54 -129q-112 41 -233 41q-305 0 -363 -293l-12 -69h617l-170 -895q93 -16 167 -21l-16 -88q-155 -21 -326 -14l173 897h-467 l-185 -954q-46 -247 -159 -358t-300 -111q-95 0 -178 18z" />
<glyph unicode="&#xfb02;" horiz-adv-x="1206" d="M-371 -508l39 133q70 -22 156 -22q120 0 187.5 75.5t103.5 260.5l184 958h-209l23 121h211l20 112q72 377 498 377q163 0 338 -28l-256 -1356q85 -15 166 -21l-17 -88q-155 -21 -325 -14l260 1366q-84 16 -179 16q-147 0 -228 -61.5t-107 -194.5l-21 -108h291l-27 -121 h-286l-185 -954q-46 -247 -159 -358t-300 -111q-95 0 -178 18z" />
<glyph unicode="&#xfb03;" horiz-adv-x="1818" d="M-371 -508l39 133q70 -22 156 -22q120 0 187.5 75.5t103.5 260.5l184 958h-211l25 121h211l10 59q37 209 163.5 317.5t340.5 108.5q171 0 331 -71q115 75 306 75q142 0 274 -39l-57 -127q-106 39 -230 39q-154 0 -243.5 -73t-118.5 -228l-10 -61h616l-170 -895 q85 -15 166 -21l-16 -88q-158 -21 -326 -14l172 897h-465l-184 -967q-45 -242 -174 -347t-336 -105q-161 0 -318 65q-99 -69 -248 -69q-95 0 -178 18zM160 -344q101 -49 233 -49q142 0 223 74t113 239l186 977h-464l-185 -954q-33 -179 -106 -287zM473 1018h465l10 55 q24 149 111 252q-111 53 -236 53q-143 0 -229 -75t-109 -216z" />
<glyph unicode="&#xfb04;" horiz-adv-x="1820" d="M-371 -508l39 133q70 -22 156 -22q120 0 187.5 75.5t103.5 260.5l184 958h-209l23 121h211l10 59q79 426 504 426q164 0 319 -65q120 69 299 69q164 0 336 -28l-256 -1356q85 -15 166 -21l-16 -88q-155 -21 -324 -14l260 1366q-84 16 -178 16q-147 0 -227.5 -61.5 t-106.5 -194.5l-20 -108h294l-24 -121h-293l-184 -967q-45 -242 -174 -347t-336 -105q-161 0 -318 65q-99 -69 -248 -69q-95 0 -178 18zM160 -344q101 -49 233 -49q142 0 223 74t113 239l186 977h-464l-185 -954q-33 -179 -106 -287zM473 1018h467l21 112q24 122 86 199 q-103 49 -224 49q-143 0 -229 -75t-109 -216z" />
<glyph horiz-adv-x="0" />
<glyph horiz-adv-x="0" />
<glyph horiz-adv-x="682" />
<glyph unicode="&#xd;" horiz-adv-x="1024" />
<glyph unicode=" "  horiz-adv-x="446" />
<glyph unicode="&#x09;" horiz-adv-x="446" />
<glyph unicode="&#xa0;" horiz-adv-x="446" />
<glyph unicode="!" horiz-adv-x="641" d="M154 88q0 47 31 79t77 32q45 0 76 -31t31 -74q0 -47 -32.5 -78.5t-78.5 -31.5q-45 0 -74.5 30.5t-29.5 73.5zM242 328l184 1108h178l-237 -1108h-125z" />
<glyph unicode="&#x22;" horiz-adv-x="702" d="M135 979l58 451h163l-112 -451h-109zM453 979l59 451h162l-111 -451h-110z" />
<glyph unicode="#" horiz-adv-x="1337" d="M57 403l21 107h307l78 410h-307l20 108h307l68 354h127l-68 -354h314l65 354h129l-67 -354h305l-21 -108h-307l-78 -410h307l-20 -107h-307l-74 -403h-129l76 403h-311l-76 -403h-127l73 403h-305zM512 510h311l78 410h-311z" />
<glyph unicode="$" horiz-adv-x="976" d="M37 20l59 314h103q-3 -109 -9 -191q95 -26 166 -26q132 0 222 68.5t90 191.5q0 45 -25.5 87t-66.5 76.5t-90.5 69.5t-99.5 74t-91 81.5t-66.5 99.5t-25.5 122q0 168 118 283.5t297 124.5l48 227h118l-49 -225q102 0 228 -29l-58 -299h-100q0 98 10 186q-94 23 -156 23 q-129 0 -211.5 -65.5t-82.5 -186.5q0 -48 26 -92.5t68 -81t92.5 -73t100.5 -75t92 -79.5t68 -95t26 -114q0 -180 -122.5 -291.5t-314.5 -134.5l-65 -299h-117l64 293q-59 0 -131 10.5t-115 25.5z" />
<glyph unicode="%" horiz-adv-x="1595" d="M166 1018q0 170 103.5 279.5t252.5 109.5q128 0 204.5 -67.5t76.5 -209.5q0 -74 -25 -143.5t-70 -125t-115.5 -89t-154.5 -33.5q-129 0 -200.5 68.5t-71.5 210.5zM215 35l1100 1392l98 -79l-1100 -1393zM309 1030q0 -91 37.5 -134.5t116.5 -43.5q63 0 110 42.5t68 100 t21 115.5q0 94 -36.5 139t-119.5 45q-90 0 -143.5 -80t-53.5 -184zM840 254q0 170 103.5 279.5t252.5 109.5q128 0 204.5 -67t76.5 -209q0 -100 -41.5 -188t-126.5 -146t-197 -58q-129 0 -200.5 68.5t-71.5 210.5zM983 266q0 -91 36.5 -134.5t115.5 -43.5q48 0 87.5 24.5 t62.5 63.5t35.5 83t12.5 87q0 95 -35.5 139.5t-119.5 44.5q-89 0 -142 -79.5t-53 -184.5z" />
<glyph unicode="&#x26;" horiz-adv-x="1640" d="M88 303q0 73 22 140.5t54.5 118t87 104t100.5 89.5t113 83q-62 101 -93.5 177.5t-31.5 145.5q0 141 107.5 242.5t275.5 101.5q141 0 211 -64.5t70 -168.5q0 -66 -23 -124.5t-73 -114t-104.5 -100.5t-141.5 -108q160 -226 401 -456q87 91 148 228.5t79 297.5 q-69 2 -153 25l16 88h477l-18 -88q-92 -22 -166 -27q-33 -186 -109.5 -343t-179.5 -263q95 -91 184 -170q85 -9 160 -29l-18 -88h-242q-41 36 -111 102.5t-86 81.5q-257 -202 -577 -202q-186 0 -282.5 92t-96.5 229zM248 344q0 -98 63.5 -164.5t190.5 -66.5q251 0 446 157 q-266 270 -409 469q-69 -49 -112.5 -86t-89 -87t-67.5 -105t-22 -117zM494 1176q0 -88 100 -252q137 95 196.5 166t59.5 161q0 62 -36.5 97.5t-106.5 35.5q-98 0 -155.5 -58.5t-57.5 -149.5z" />
<glyph unicode="'" horiz-adv-x="385" d="M135 979l58 451h163l-112 -451h-109z" />
<glyph unicode="(" horiz-adv-x="606" d="M135 264q0 342 137.5 688.5t382.5 644.5l101 -59q-202 -253 -337.5 -596t-135.5 -666q0 -377 112 -643l-121 -55q-139 328 -139 686z" />
<glyph unicode=")" horiz-adv-x="606" d="M-104 -365q202 253 337.5 596t135.5 666q0 374 -113 643l121 57q139 -328 139 -688q0 -342 -137 -687.5t-383 -643.5z" />
<glyph unicode="*" horiz-adv-x="741" d="M195 1108l225 90l-187 109l70 94l166 -137l29 237l116 -18l-63 -219l201 127l47 -107l-228 -90l189 -107l-72 -98l-168 141l-26 -237l-119 16l63 219l-196 -127z" />
<glyph unicode="+" d="M96 545l25 129h401l80 422h146l-80 -422h403l-27 -129h-403l-80 -424h-145l80 424h-400z" />
<glyph unicode="," horiz-adv-x="436" d="M-88 -231q202 172 139 288q-27 48 0.5 97t85.5 49q65 0 92 -58q36 -78 -24 -193q-67 -129 -236 -251z" />
<glyph unicode="-" horiz-adv-x="657" d="M100 532l27 127h463l-25 -127h-465z" />
<glyph unicode="." horiz-adv-x="438" d="M31 90q0 49 33 82t79 33q45 0 76 -32t31 -75q0 -49 -32.5 -81.5t-80.5 -32.5q-45 0 -75.5 31.5t-30.5 74.5z" />
<glyph unicode="/" horiz-adv-x="858" d="M-145 -330l1063 1880h147l-1061 -1880h-149z" />
<glyph unicode="0" horiz-adv-x="1236" d="M98 367q0 150 49.5 283.5t134.5 228t203 149.5t250 55q196 0 303 -108t107 -293q0 -149 -52 -280t-140 -222.5t-206.5 -144.5t-248.5 -53q-196 0 -298 100t-102 285zM254 399q0 -131 69.5 -209.5t204.5 -78.5q120 0 226.5 73t170.5 199.5t64 273.5q0 136 -70 216.5 t-210 80.5q-129 0 -234.5 -77.5t-163 -204.5t-57.5 -273z" />
<glyph unicode="1" horiz-adv-x="727" d="M-2 0l16 90q136 27 230 29l155 801l-260 -105v135l318 117h125l-181 -948q87 -6 177 -29l-17 -90h-563z" />
<glyph unicode="2" horiz-adv-x="966" d="M14 0l23 123l342 258q180 132 250.5 221t70.5 189q0 68 -44 117.5t-140 49.5q-95 0 -180 -32q-30 -105 -62 -181h-90l54 279q150 59 311 59q153 0 235 -75.5t82 -190.5q0 -129 -82 -240.5t-254 -236.5l-274 -205v-2q114 6 535 6l-27 -139h-750z" />
<glyph unicode="3" horiz-adv-x="931" d="M-66 -383l33 143q79 -28 158 -28q194 0 316 101.5t122 264.5q0 127 -112.5 177t-319.5 26l21 125q233 0 376.5 102t143.5 265q0 79 -48 121t-141 42q-73 0 -159 -28q-15 -64 -60 -183h-90l53 283q126 55 285 55q161 0 242.5 -72.5t81.5 -193.5q0 -144 -90.5 -253.5 t-241.5 -170.5v-2q97 -12 161 -85.5t64 -184.5q0 -222 -178.5 -372t-448.5 -150q-102 0 -168 18z" />
<glyph unicode="4" horiz-adv-x="1085" d="M-43 0v127l748 938h213l-175 -926h240l-29 -139h-239l-53 -276q78 -5 167 -27l-16 -86h-498l17 86q98 21 180 27l53 276h-608zM113 135q129 4 481 4l147 779h-4z" />
<glyph unicode="5" horiz-adv-x="942" d="M-41 -393l33 145q70 -16 129 -16q129 0 233.5 42.5t168 127.5t63.5 198q0 127 -108.5 208t-332.5 81l131 672h613l-29 -150h-469l-78 -393q203 -12 322 -117.5t119 -267.5q0 -125 -56.5 -229t-150 -170.5t-209.5 -102.5t-238 -36q-81 0 -141 8z" />
<glyph unicode="6" horiz-adv-x="1167" d="M135 381q0 85 14 179t46.5 198.5t80.5 202t120.5 186.5t160.5 155t207.5 105t255.5 39q40 0 86 -4l-27 -133q-44 8 -96 8q-217 0 -371.5 -137t-240.5 -375q-3 -9 -15 -37t-20 -51v-2q60 88 160.5 138t214.5 50q90 0 159.5 -28t110 -75.5t60.5 -105.5t20 -123 q0 -130 -47 -242t-125 -187t-180 -117.5t-213 -42.5q-126 0 -208.5 53t-117.5 140t-35 206zM297 365q0 -31 5 -62t19.5 -67.5t37.5 -63.5t63 -45t92 -18q166 0 274.5 120t108.5 316q0 98 -59 161.5t-172 63.5q-149 0 -259 -121t-110 -284z" />
<glyph unicode="7" horiz-adv-x="927" d="M82 -389q313 724 692 1315q-45 -4 -512 -4q-28 -108 -63 -191h-105l66 334h813l-25 -133q-397 -602 -684 -1321h-182z" />
<glyph unicode="8" horiz-adv-x="1099" d="M84 272q0 65 21.5 124.5t54 104t85 89.5t100.5 76.5t114 68.5q-47 34 -81.5 64.5t-66 71t-47.5 89.5t-16 105q0 164 134 275.5t339 111.5q170 0 259 -74.5t89 -203.5q0 -73 -27 -136.5t-80 -116.5t-109 -93t-136 -85q106 -72 169.5 -156t63.5 -194q0 -120 -68.5 -215 t-182 -145.5t-248.5 -50.5q-189 0 -278 76.5t-89 213.5zM248 289q0 -75 56 -127.5t175 -52.5q124 0 216.5 74t92.5 179q0 50 -16.5 93.5t-51 81t-67.5 64.5t-84 63q-71 -39 -123 -75t-100 -82.5t-73 -101.5t-25 -116zM410 1077q0 -54 28.5 -102.5t66 -82t101.5 -77.5 q71 39 119 71t93.5 73t68 87.5t22.5 98.5q0 79 -54 130.5t-157 51.5q-130 0 -209 -74t-79 -176z" />
<glyph unicode="9" horiz-adv-x="1167" d="M18 -391l27 141q68 -14 123 -14q221 0 371.5 125.5t246.5 363.5q8 20 21.5 54t21.5 53v2q-66 -86 -164 -130t-208 -44q-171 0 -257.5 92.5t-86.5 241.5q0 115 40 221.5t110 188t174.5 130.5t224.5 49q194 0 285 -105t91 -294q0 -84 -13.5 -177t-45 -199.5t-78.5 -205.5 t-120 -191t-163 -160.5t-214 -109t-267 -40.5q-72 0 -119 8zM276 514q0 -95 59.5 -155t160.5 -60q159 0 268.5 108t109.5 293q0 112 -60.5 184t-176.5 72q-152 0 -256.5 -132t-104.5 -310z" />
<glyph unicode=":" horiz-adv-x="569" d="M125 92q0 47 32.5 80t78.5 33q45 0 76.5 -32t31.5 -77q0 -47 -32.5 -79.5t-78.5 -32.5q-45 0 -76.5 31.5t-31.5 76.5zM242 700q0 47 32 80t78 33t77.5 -31.5t31.5 -76.5q0 -49 -32.5 -82t-78.5 -33t-77 32t-31 78z" />
<glyph unicode=";" horiz-adv-x="569" d="M12 -231q203 172 140 288q-15 33 -11 65.5t31 56.5t66 24q65 0 92 -58q36 -78 -24 -193q-67 -129 -236 -251zM242 700q0 47 32 80t78 33t77.5 -31.5t31.5 -76.5q0 -49 -32.5 -82t-78.5 -33t-77 32t-31 78z" />
<glyph unicode="&#x3c;" d="M176 633l739 559l89 -105l-629 -466l463 -474l-111 -98z" />
<glyph unicode="=" d="M92 379l25 127h895l-25 -127h-895zM156 711l24 129h893l-22 -129h-895z" />
<glyph unicode="&#x3e;" d="M168 156l631 465l-463 473l108 98l551 -582l-739 -561z" />
<glyph unicode="?" horiz-adv-x="888" d="M197 88q0 47 31 79t77 32q45 0 76 -31t31 -74q0 -47 -32.5 -78.5t-78.5 -31.5q-45 0 -74.5 30.5t-29.5 73.5zM272 328q-12 89 5 164t53.5 128t83.5 99t96.5 85.5t91 77.5t68 84.5t26.5 98.5q0 91 -102.5 157t-259.5 85l45 141q222 -23 353.5 -126.5t131.5 -240.5 q0 -69 -27 -127.5t-70 -101.5t-94 -84t-99.5 -84t-87 -91t-57 -116t-7.5 -149h-150z" />
<glyph unicode="@" horiz-adv-x="1968" d="M193 477q0 206 78.5 395.5t210 326.5t312 218.5t375.5 81.5q166 0 294.5 -47.5t207 -130.5t118.5 -190t40 -232q0 -181 -64.5 -326.5t-178 -227t-253.5 -81.5q-65 0 -111.5 20.5t-67.5 53.5t-27.5 75t8.5 85h-7q-33 -75 -130 -154.5t-195 -79.5q-178 0 -178 213 q0 76 16.5 156t55.5 161.5t95.5 145t143.5 103.5t192 40q144 0 252 -24l-127 -449q-30 -109 -2 -163t109 -54q143 0 237.5 141t94.5 357q0 97 -30 181t-92 153.5t-169.5 110t-249.5 40.5q-165 0 -316 -71.5t-260 -190.5t-174 -282t-65 -340q0 -251 149 -396t428 -145 q171 0 342 49l9 -127q-170 -53 -379 -53q-329 0 -510.5 174.5t-181.5 482.5zM764 510q0 -115 78 -115q91 0 189 117.5t157 331.5l33 114q-49 15 -119 15q-85 0 -163 -62.5t-126.5 -170t-48.5 -230.5z" />
<glyph unicode="A" horiz-adv-x="1382" d="M-84 0l14 88q77 20 131 25l707 1269h180l217 -1267q54 -6 125 -27l-18 -88h-457l16 88q96 22 173 27l-39 247h-600l-138 -247q75 -6 158 -27l-16 -88h-453zM428 487h516l-92 543q-25 196 -25 197h-2q-40 -85 -96 -193z" />
<glyph unicode="B" horiz-adv-x="1185" d="M-37 0l17 88q94 21 180 27l217 1153q-86 6 -168 26l18 88h170q39 0 157.5 3.5t205.5 3.5q190 0 281.5 -70.5t91.5 -192.5q0 -152 -81.5 -253.5t-207.5 -143.5v-2q101 -20 161 -92t60 -166q0 -96 -39.5 -181.5t-113.5 -151t-189.5 -104t-257.5 -38.5q-38 0 -152.5 3 t-175.5 3h-174zM315 133q74 -12 183 -12q188 0 295.5 96t107.5 238q0 200 -326 200q-126 0 -161 -2zM436 776q43 -2 129 -2q184 0 295 84t111 236q0 81 -55.5 124.5t-198.5 43.5q-37 0 -189 -5z" />
<glyph unicode="C" horiz-adv-x="1165" d="M113 457q0 149 31.5 286.5t97 256.5t157 207.5t220 139t278.5 50.5q162 0 313 -41l-63 -314h-103q0 111 13 193q-95 27 -199 27q-116 0 -212.5 -45t-162.5 -121t-112 -177.5t-67 -211.5t-21 -226q0 -171 82.5 -264.5t275.5 -93.5q73 0 173 23t171 55l10 -140 q-190 -75 -389 -75q-493 0 -493 471z" />
<glyph unicode="D" horiz-adv-x="1421" d="M-37 0l19 88q94 21 180 27l217 1153q-88 6 -170 26l18 88h172q49 0 183 3.5t200 3.5q161 0 278 -37t185.5 -106t100.5 -158t32 -201q0 -139 -33.5 -267t-105.5 -242.5t-176 -199.5t-255.5 -134.5t-332.5 -49.5q-80 0 -188.5 3t-147.5 3h-176zM317 137q96 -14 181 -14 q149 0 271.5 43.5t204 116t137.5 169.5t81 201.5t25 214.5q0 89 -23 157.5t-74 123.5t-142 84t-218 29q-38 0 -230 -7z" />
<glyph unicode="E" horiz-adv-x="1058" d="M-39 0l19 88q94 21 180 27l217 1153q-88 6 -170 26l18 88h856l-57 -307h-104q0 111 6 185h-398l-92 -488h318q29 96 59 150h88l-80 -418h-90q-5 36 -5 80q0 33 3 69h-315l-101 -526h400q17 55 67 188h103l-60 -315h-862z" />
<glyph unicode="F" horiz-adv-x="999" d="M-39 0l16 88q98 21 181 27l219 1153q-86 6 -168 26l16 88h860l-59 -307h-104q5 171 6 182h-400l-94 -497h324q26 86 61 149h88l-80 -422h-90q-4 47 -4 90q0 31 2 60h-323l-101 -522q83 -6 170 -27l-16 -88h-504z" />
<glyph unicode="G" horiz-adv-x="1400" d="M109 510q0 154 43.5 293t122.5 247t185.5 187.5t238 121.5t274.5 42q188 0 360 -51l-61 -306h-105q0 86 11 191q-125 33 -226 33q-144 0 -271 -58.5t-216.5 -158.5t-141 -237t-51.5 -290q0 -78 23.5 -148t71 -129.5t132 -94.5t195.5 -35q144 0 291 45l80 418 q-90 6 -170 28l18 88h465l-16 -88q-65 -17 -145 -26l-101 -525q-213 -75 -448 -75q-274 0 -416.5 144.5t-142.5 383.5z" />
<glyph unicode="H" horiz-adv-x="1513" d="M-39 0l16 88q98 21 181 27l219 1153q-86 6 -168 26l16 88h494l-17 -88q-72 -19 -172 -26l-92 -486h738l92 486q-95 7 -160 26l16 88h492l-14 -88q-93 -20 -181 -26l-219 -1153q78 -5 170 -27l-18 -88h-494l17 88q77 20 172 27l102 536h-737l-105 -536q96 -7 164 -27 l-16 -88h-496z" />
<glyph unicode="I" horiz-adv-x="622" d="M-39 0l16 88q98 21 181 27l219 1153q-86 6 -168 26l16 88h502l-16 -88q-93 -20 -181 -26l-219 -1153q83 -6 170 -27l-16 -88h-504z" />
<glyph unicode="J" horiz-adv-x="681" d="M-90 2l27 141q63 -24 133 -24q90 0 146 52t81 181l172 916q-86 6 -168 26l16 88h474l-19 -88q-76 -20 -149 -26l-174 -924q-34 -177 -127.5 -267.5t-266.5 -90.5q-67 0 -145 16z" />
<glyph unicode="K" horiz-adv-x="1312" d="M-39 0l16 88q98 21 181 27l219 1153q-86 6 -168 26l16 88h484l-17 -88q-64 -18 -162 -26l-104 -553l614 553q-78 6 -145 26l16 88h490l-19 -88q-59 -16 -143 -26l-637 -566l432 -587q80 -7 150 -27l-17 -88h-485l16 88q70 19 144 25l-420 587l-111 -585q87 -8 152 -27 l-17 -88h-485z" />
<glyph unicode="L" horiz-adv-x="933" d="M-39 0l16 88q98 21 181 27l219 1153q-86 6 -168 26l16 88h502l-16 -88q-93 -20 -181 -26l-217 -1139h387q25 82 72 201h100l-63 -330h-848z" />
<glyph unicode="M" horiz-adv-x="1865" d="M-66 0l17 88q68 18 133 25l381 1155q-86 6 -168 26l18 88h385l136 -899q21 -149 24 -270h4q46 106 121 256l490 913h407l-16 -88q-93 -20 -178 -26l-54 -1155q54 -6 125 -25l-16 -88h-451l17 88q92 22 168 27l41 766q13 242 24 348h-4q-40 -104 -104 -228l-539 -1001 h-141l-144 948q-22 137 -26 281h-2q-45 -169 -105 -361l-233 -753q74 -5 155 -27l-16 -88h-449z" />
<glyph unicode="N" horiz-adv-x="1490" d="M-37 0l17 88q98 21 180 27l217 1153q-86 6 -168 26l16 88h367l385 -917q42 -102 108 -293q50 314 93 539l100 557q-94 7 -158 26l17 88h456l-16 -88q-76 -20 -150 -26l-239 -1268h-193l-387 920q-70 170 -104 299q-33 -233 -96 -574l-97 -530q92 -7 160 -27l-16 -88h-492 z" />
<glyph unicode="O" horiz-adv-x="1415" d="M104 483q0 186 60.5 355t164 292.5t250.5 197t312 73.5q235 0 362 -130.5t127 -369.5q0 -194 -62 -365t-167.5 -292.5t-250.5 -191.5t-306 -70q-244 0 -367 129.5t-123 371.5zM272 504q0 -180 88.5 -282.5t251.5 -102.5q121 0 231.5 59t191.5 160.5t129 243.5t48 301 q0 182 -87 282.5t-261 100.5q-167 0 -303.5 -104t-212.5 -278t-76 -380z" />
<glyph unicode="P" horiz-adv-x="1134" d="M-37 0l17 88q99 22 178 27l221 1153q-88 6 -170 26l18 88h174q27 0 138 3.5t190 3.5q204 0 324.5 -93t120.5 -260q0 -157 -81 -283t-224 -197t-322 -71q-60 0 -162 11l-74 -381q83 -6 170 -27l-16 -88h-502zM408 627q57 -13 157 -13q96 0 173.5 25t127 65t83 94.5 t47.5 110.5t14 115q0 112 -80 175t-228 63q-118 0 -174 -5z" />
<glyph unicode="Q" horiz-adv-x="1417" d="M106 483q0 149 38 288t109.5 252.5t167 198.5t217 132t253.5 47q237 0 365 -130.5t128 -369.5q0 -297 -138.5 -523.5t-348.5 -305.5q50 -2 117.5 -25t143.5 -39q47 -10 98 -10q33 0 67 4l-27 -139q-57 -6 -100 -6q-32 0 -58 3q-58 8 -119.5 28t-107.5 41t-119.5 37 t-156.5 16h-41q-242 0 -365 130t-123 371zM274 504q0 -180 88.5 -282.5t251.5 -102.5q162 0 300.5 100t220.5 276.5t82 387.5q0 181 -88 282t-263 101q-167 0 -303.5 -104t-212.5 -278t-76 -380z" />
<glyph unicode="R" horiz-adv-x="1163" d="M-37 0l17 88q99 22 178 27l219 1153q-86 6 -168 26l16 88h154q40 0 149 3.5t181 3.5q202 0 300.5 -77t98.5 -222q0 -128 -70.5 -228t-183.5 -154t-248 -61q13 -21 68 -129l205 -403q88 -7 161 -27l-18 -88h-272l-304 639h-36l-99 -524q91 -7 156 -27l-16 -88h-488z M434 760q46 -4 119 -4q172 0 282.5 83t110.5 234q0 99 -61.5 146t-198.5 47q-94 0 -156 -6z" />
<glyph unicode="S" horiz-adv-x="942" d="M35 10l61 318h103q0 -75 -9 -199q46 -12 105 -12q162 0 256 79t94 203q0 52 -24 95.5t-63 76t-85.5 63.5t-93 65t-85.5 73.5t-63 96t-24 124.5q0 82 34 155.5t96 130t158 89.5t212 33q108 0 219 -21l-60 -307h-100q0 91 8 193q-38 10 -98 10q-147 0 -229 -75t-82 -175 q0 -54 24.5 -99.5t63.5 -79.5t86.5 -66t95 -66.5t86.5 -73t63.5 -94t24.5 -121.5q0 -191 -151.5 -317.5t-385.5 -126.5q-152 0 -237 28z" />
<glyph unicode="T" horiz-adv-x="1105" d="M141 1057l64 325h1028l-62 -325h-102q1 28 3 98.5t5 99.5h-307l-215 -1140q78 -5 170 -27l-18 -88h-502l16 88q100 22 180 27l217 1140h-305q-5 -19 -67 -198h-105z" />
<glyph unicode="U" horiz-adv-x="1439" d="M180 332q0 56 17 139l149 797q-68 6 -137 26l16 88h463l-18 -88q-69 -19 -170 -26l-148 -781q-16 -78 -16 -135q0 -124 70.5 -183.5t228.5 -59.5q193 0 302 94.5t150 320.5l142 744q-95 7 -162 26l18 88h459l-16 -88q-81 -21 -148 -26l-143 -762q-52 -266 -207.5 -395 t-415.5 -129q-121 0 -207 25.5t-135 74t-70.5 109.5t-21.5 141z" />
<glyph unicode="V" horiz-adv-x="1355" d="M160 1294l18 88h457l-17 -88q-89 -20 -169 -26l118 -805q33 -228 39 -295h2q56 131 154 305l432 795q-81 6 -160 26l17 88h458l-16 -88q-63 -17 -131 -24l-700 -1270h-170l-207 1270q-64 7 -125 24z" />
<glyph unicode="W" horiz-adv-x="1970" d="M162 1294l16 88h453l-17 -88q-90 -20 -178 -26l51 -860q5 -129 5 -213v-45h2q60 158 106 251l467 981h147l117 -989q17 -161 17 -241h2q31 98 77 210l388 906q-74 6 -152 26l16 88h443l-17 -88q-63 -17 -131 -24l-553 -1270h-196l-113 954q-11 99 -11 188q0 20 1 40h-2 q-43 -117 -92 -224l-455 -958h-197l-71 1270q-68 7 -123 24z" />
<glyph unicode="X" horiz-adv-x="1325" d="M-74 0l17 88q79 19 153 25l516 608l-274 549q-79 6 -139 24l16 88h485l-18 -88q-77 -20 -162 -26l201 -443l366 443q-71 5 -145 26l16 88h484l-17 -88q-66 -16 -155 -26l-479 -561l296 -594q74 -6 138 -25l-17 -88h-485l16 88q94 22 162 27l-221 485l-397 -485 q61 -5 143 -27l-16 -88h-484z" />
<glyph unicode="Y" horiz-adv-x="1179" d="M160 1294l16 88h453l-17 -88q-64 -19 -166 -26l103 -398q52 -202 59 -237h2q9 14 178 282l226 353q-92 8 -148 26l19 88h448l-16 -88q-69 -18 -131 -24l-524 -774l-74 -381q83 -6 170 -27l-17 -88h-501l16 88q94 21 180 27l72 381l-223 774q-64 7 -125 24z" />
<glyph unicode="Z" horiz-adv-x="1064" d="M-6 0l20 115l762 956q50 62 158 182q-144 -4 -293 -4h-258q-16 -57 -64 -186h-102l59 319h861l-21 -116l-805 -1002q-85 -103 -112 -133q45 6 338 6h239q15 50 68 191h100l-61 -328h-889z" />
<glyph unicode="[" horiz-adv-x="641" d="M10 -401l377 1976h379l-25 -117h-235l-332 -1741h238l-23 -118h-379z" />
<glyph unicode="\" horiz-adv-x="856" d="M225 1550h135l353 -1880h-138z" />
<glyph unicode="]" horiz-adv-x="641" d="M-96 -401l22 118h238l332 1741h-238l23 117h378l-376 -1976h-379z" />
<glyph unicode="^" d="M180 764l453 618h125l227 -614l-119 -61l-192 557l-393 -557z" />
<glyph unicode="_" d="M-178 -512l24 121h1104l-24 -121h-1104z" />
<glyph unicode="`" horiz-adv-x="737" d="M315 1421l103 95l229 -263l-82 -75z" />
<glyph unicode="a" horiz-adv-x="1120" d="M66 287q0 114 23 220t73 202.5t122.5 167.5t179.5 113t236 42q147 0 304 -28l-170 -881q93 -16 167 -21l-16 -88q-121 -15 -249 -15q-38 0 -77 1q24 123 127 449l-4 2q-209 -471 -493 -471q-223 0 -223 307zM221 313q0 -202 115 -202q75 0 156 71.5t145 178.5t111.5 225 t66.5 217l16 88q-86 20 -157 20q-79 0 -147 -25.5t-116.5 -70t-85.5 -102.5t-59.5 -126t-33.5 -136.5t-11 -137.5z" />
<glyph unicode="b" horiz-adv-x="1095" d="M88 16l260 1356q-91 15 -170 21l17 88q118 16 243 16q42 0 84 -2l-100 -520q-14 -78 -115 -402h4q41 100 91.5 181.5t111.5 146.5t135 101t154 36q223 0 223 -307q0 -114 -23 -220t-73 -202.5t-123 -167.5t-180 -113t-236 -42q-156 0 -303 30zM260 127q82 -21 158 -21 q95 0 172.5 37t128.5 96.5t86 139t50 161t15 165.5q0 202 -114 202q-75 0 -156 -71.5t-144 -178.5t-110.5 -224t-66.5 -214z" />
<glyph unicode="c" horiz-adv-x="860" d="M70 317q0 197 69.5 359t202.5 259t305 97q113 0 232 -35l-56 -286l-90 2q-1 22 -1 42q0 76 9 140q-49 14 -112 14q-93 0 -171 -50.5t-126 -132t-74.5 -179t-26.5 -195.5q0 -49 9 -86.5t32.5 -73t71 -54.5t117.5 -19q127 0 246 53l14 -127q-147 -57 -299 -57 q-352 0 -352 329z" />
<glyph unicode="d" horiz-adv-x="1120" d="M66 287q0 114 23 220t73 202.5t122.5 167.5t179.5 113t236 42q76 0 156 -12l66 352q-86 15 -170 21l18 88q116 16 243 16q42 0 85 -2l-264 -1372q93 -16 167 -21l-16 -88q-120 -15 -247 -15q-38 0 -76 1q22 125 124 449l-4 2q-209 -471 -493 -471q-223 0 -223 307z M221 313q0 -202 115 -202q75 0 156 71.5t145 178.5t111.5 225t66.5 217l16 88q-86 20 -157 20q-79 0 -147 -25.5t-116.5 -70t-85.5 -102.5t-59.5 -126t-33.5 -136.5t-11 -137.5z" />
<glyph unicode="e" horiz-adv-x="960" d="M70 307q0 144 38.5 275.5t108 232.5t175 161t231.5 60q144 0 215 -63.5t71 -161.5q0 -323 -669 -350q-13 -72 -13 -133q0 -128 51 -173.5t183 -45.5q145 0 282 59l9 -123q-151 -63 -346 -63q-171 0 -253.5 76.5t-82.5 248.5zM262 582q255 10 372.5 62.5t117.5 148.5 q0 60 -40 92.5t-108 32.5q-124 0 -212.5 -93.5t-129.5 -242.5z" />
<glyph unicode="f" horiz-adv-x="692" d="M-371 -508l39 133q70 -22 154 -22q120 0 188.5 75.5t104.5 260.5l184 958h-209l23 121h211l12 69q37 212 147.5 315t302.5 103q78 0 166 -18l-39 -127q-67 20 -147 20q-120 0 -187.5 -69.5t-93.5 -223.5l-12 -69h293l-21 -121h-294l-185 -954q-46 -247 -159.5 -358 t-301.5 -111q-93 0 -176 18z" />
<glyph unicode="g" horiz-adv-x="1095" d="M-51 -489l35 153q123 -55 270 -55q169 0 265 76t132 258q25 129 49.5 222t81.5 273l-4 2q-207 -460 -489 -460q-223 0 -223 307q0 114 23 220t73 202.5t122.5 167.5t179.5 113t236 42q147 0 304 -28l-213 -1110q-79 -420 -576 -420q-150 0 -266 37zM221 313 q0 -202 115 -202q75 0 156 71.5t145 178.5t111.5 225t66.5 217l16 88q-86 20 -157 20q-79 0 -147 -25.5t-116.5 -70t-85.5 -102.5t-59.5 -126t-33.5 -136.5t-11 -137.5z" />
<glyph unicode="h" horiz-adv-x="1183" d="M86 0l262 1372q-91 15 -170 21l17 88q118 16 243 16q42 0 84 -2l-96 -496q-24 -131 -115 -415l4 -2q38 91 86 169t109 144t136 104.5t155 38.5q136 0 189 -92q33 -58 34 -144q0 -51 -12 -112l-111 -567q85 -18 166 -21l-14 -88q-118 -16 -241 -16q-41 0 -83 2l125 655 q13 67 13 115q0 46 -12 76q-24 60 -101 61q-74 0 -155 -71t-144.5 -177.5t-111.5 -224.5t-67 -217l-38 -217h-152z" />
<glyph unicode="i" horiz-adv-x="573" d="M115 0l174 897q-65 11 -168 18l18 89q118 16 240 16q41 0 82 -2l-174 -895q86 -15 170 -21l-17 -88q-122 -16 -244 -16q-40 0 -81 2zM342 1337q0 48 33 80.5t78 32.5q42 0 70 -29t28 -69q0 -46 -32.5 -78.5t-76.5 -32.5q-43 0 -71.5 28.5t-28.5 67.5z" />
<glyph unicode="j" horiz-adv-x="550" d="M-287 -510l31 135q53 -20 119 -20q107 0 154.5 62t80.5 231l191 997q-77 14 -170 20l18 89q116 16 240 16q42 0 84 -2l-221 -1161q-36 -198 -127 -290.5t-269 -92.5q-61 0 -131 16zM342 1337q0 48 32.5 80.5t76.5 32.5q43 0 70.5 -28.5t27.5 -69.5q0 -46 -32.5 -78.5 t-76.5 -32.5q-42 0 -70 28.5t-28 67.5z" />
<glyph unicode="k" horiz-adv-x="1044" d="M86 0l260 1372q-86 15 -168 21l17 88q118 16 243 16q42 0 84 -2l-57 -299q-37 -194 -119 -438l4 -2q130 280 385 280q117 0 180.5 -57.5t63.5 -151.5q0 -134 -107 -225t-344 -139l199 -346q75 -5 164 -27l-17 -90h-270l-272 502l-94 -502h-152zM352 541q255 39 361 97.5 t106 156.5q0 49 -32.5 82.5t-92.5 33.5q-63 0 -122 -38t-102 -98t-72.5 -119.5t-45.5 -114.5z" />
<glyph unicode="l" horiz-adv-x="544" d="M86 0l262 1372q-91 15 -170 21l17 88q118 16 242 16q41 0 83 -2l-260 -1372q95 -16 164 -21l-16 -88q-116 -16 -239 -16q-41 0 -83 2z" />
<glyph unicode="m" horiz-adv-x="1826" d="M115 0l172 895q-70 12 -166 20l18 89q104 16 232 16q43 0 88 -2q-39 -194 -121 -434l4 -2q37 90 85 168.5t108 144.5t134 104.5t152 38.5q99 0 151 -52t52 -146q0 -87 -57 -258l4 -2q37 91 85 169.5t108 145t134 105t152 38.5q132 0 184 -92q32 -56 32 -140 q0 -53 -13 -118l-109 -565q93 -16 166 -21l-16 -88q-116 -16 -239 -16q-41 0 -83 2l125 655q12 67 12 115q1 47 -11 77q-24 60 -95 60q-86 0 -185 -103t-176.5 -263t-107.5 -324l-41 -217h-150l125 655q13 69 13 119q-1 45 -11 73q-22 60 -96 60q-86 0 -185 -103 t-176.5 -263t-107.5 -324l-41 -217h-149z" />
<glyph unicode="n" horiz-adv-x="1214" d="M115 0l172 895q-80 14 -166 20l18 89q116 16 238 16q41 0 82 -2q-25 -144 -119 -434l4 -2q38 90 86.5 168.5t109 144.5t135.5 104.5t154 38.5q137 0 189 -91q33 -57 34 -144q0 -51 -12 -113l-108 -567q85 -18 164 -21l-17 -88q-116 -16 -238 -16q-41 0 -83 2l127 655 q12 65 12.5 113t-12.5 78q-25 61 -101 61q-74 0 -155 -71t-144 -176.5t-110.5 -221.5t-65.5 -211l-45 -227h-149z" />
<glyph unicode="o" horiz-adv-x="1091" d="M72 342q0 197 74 355.5t206 248.5t297 90q186 0 278.5 -98.5t92.5 -267.5q0 -153 -49 -284t-130.5 -218.5t-187 -136.5t-219.5 -49q-181 0 -271.5 91.5t-90.5 268.5zM229 371q0 -129 56 -193.5t178 -64.5q162 0 279.5 153t117.5 389q0 252 -233 252q-116 0 -208.5 -77 t-141 -198.5t-48.5 -260.5z" />
<glyph unicode="p" horiz-adv-x="1124" d="M-137 -510l16 88q77 23 162 29l246 1288q-70 12 -166 20l16 89q108 16 235 16q42 0 87 -2q-21 -123 -121 -443l4 -2q40 99 90 181t111.5 147t135 101t152.5 36q226 0 226 -307q0 -114 -23 -220t-73 -201.5t-123 -166.5t-180 -113t-236 -42q-56 0 -158 12l-74 -393 q94 -6 170 -29l-16 -88h-481zM291 137q82 -28 158 -28q94 0 171.5 36.5t128 96t85.5 138t50 160t15 165.5q0 202 -113 202q-76 0 -157 -71.5t-144 -178.5t-110.5 -223.5t-67.5 -214.5z" />
<glyph unicode="q" horiz-adv-x="1097" d="M66 287q0 114 23 220t73 202.5t122.5 167.5t179.5 113t236 42q149 0 304 -31l-267 -1394q85 -6 166 -29l-16 -88h-496l17 88q87 23 180 29l69 370q32 169 129 472l-4 2q-209 -471 -493 -471q-223 0 -223 307zM221 313q0 -202 117 -202q60 0 124.5 47t119.5 123t103.5 168 t81.5 184t48 170l16 88q-86 20 -157 20q-79 0 -147 -25.5t-116.5 -70t-85.5 -102.5t-59.5 -126t-33.5 -136.5t-11 -137.5z" />
<glyph unicode="r" horiz-adv-x="753" d="M115 0l174 895q-78 14 -168 20l18 89q116 16 238 16q41 0 82 -2q-22 -126 -115 -404h4q40 87 73 148.5t77.5 121.5t89.5 94t103 50q35 10 72 10q25 0 52 -4l-31 -149q-21 5 -42 5l-96 -28q-69 -41 -123 -116.5t-100 -171.5t-74.5 -183.5t-41.5 -157.5l-43 -233h-149z" />
<glyph unicode="s" horiz-adv-x="806" d="M25 -2l55 293h90q0 -108 -8 -176q52 -9 94 -9q112 0 180 46t68 133q0 35 -19.5 65.5t-50.5 54.5t-68.5 47.5t-75 50.5t-68.5 57.5t-50.5 74.5t-19.5 96q0 132 104 218.5t291 86.5q101 0 196 -20l-53 -281h-90q0 83 10 178q-47 7 -86 7q-104 0 -161.5 -46t-57.5 -120 q0 -36 19.5 -67.5t50.5 -56t69 -49t76 -51t69 -56.5t50.5 -72t19.5 -91q0 -135 -120 -232t-318 -97q-105 0 -196 16z" />
<glyph unicode="t" horiz-adv-x="743" d="M76 897l24 121h219l64 338l160 37l-74 -375h293l-25 -121h-291l-106 -561q-14 -70 -14 -115q0 -37 10 -57q20 -44 102 -45q80 0 146 16l-6 -131q-95 -20 -183 -20q-151 0 -199 76q-28 45 -28 122q0 54 14 125l113 590h-219z" />
<glyph unicode="u" horiz-adv-x="1214" d="M121 915l16 89q116 16 238 16q41 0 82 -2l-125 -656q-12 -65 -12.5 -112.5t12.5 -77.5q25 -60 100 -61q60 0 124.5 47t120 122t103.5 167t81 184.5t48 171.5l17 92q-73 13 -162 20l16 89q116 16 238 16q41 0 82 -2l-172 -895q84 -15 168 -21l-17 -88q-116 -16 -240 -16 q-41 0 -83 2q22 131 121 434l-5 2q-39 -91 -87.5 -168.5t-109 -144.5t-135.5 -105t-155 -38q-136 0 -189 92q-33 56 -33 140q0 52 13 116l107 565q-97 17 -162 22z" />
<glyph unicode="v" horiz-adv-x="1032" d="M86 915l16 89q108 15 215 15q32 0 64 -1l86 -680q8 -75 12 -184h4l463 907l148 -53l-559 -1008h-173l-129 895q-89 16 -147 20z" />
<glyph unicode="w" horiz-adv-x="1497" d="M57 915l19 89q111 15 224 15q34 0 69 -1l75 -862h2l320 622l-12 117q-77 13 -168 20l16 89q100 16 216 16q39 0 79 -2l78 -864h2l428 905l145 -49l-512 -1010h-184l-63 578l-295 -578h-174l-101 895q-77 14 -164 20z" />
<glyph unicode="x" horiz-adv-x="1101" d="M-6 29l463 491l-158 383q-101 8 -168 27l16 88h279l147 -387l406 442l111 -82l-453 -485l172 -389q125 -15 174 -29l-16 -88h-287l-160 395l-411 -454z" />
<glyph unicode="y" horiz-adv-x="1056" d="M-186 -510l26 141q56 -20 129 -20q57 0 121 35t119 96q65 71 94 152t29 198q0 353 -105 803q-77 14 -164 20l17 89q112 15 225 15q34 0 68 -1q48 -205 77 -417.5t29 -356.5q0 -85 -18 -195h2q227 392 485 1010l146 -45q-423 -1001 -783 -1358q-186 -180 -356 -180 q-84 0 -141 14z" />
<glyph unicode="z" horiz-adv-x="880" d="M-6 0l22 111l650 786q-132 -4 -258 -4h-115q-23 -78 -57 -160h-91l56 285h667l-22 -109l-647 -782q118 4 264 4h129q26 90 59 166h88l-55 -297h-690z" />
<glyph unicode="{" horiz-adv-x="669" d="M74 590l24 123q127 8 181 53.5t77 167.5l52 266q70 375 362 375h37l-21 -117q-108 0 -159.5 -54.5t-77.5 -197.5l-51 -262q-51 -271 -244 -295v-4q88 -12 122 -87t9 -202l-76 -387q-26 -143 3 -197.5t134 -54.5l-20 -118h-35q-156 0 -206.5 97t-14.5 279l78 392 q23 118 -16 166.5t-158 56.5z" />
<glyph unicode="|" horiz-adv-x="569" d="M31 -510l389 2048h119l-389 -2048h-119z" />
<glyph unicode="}" horiz-adv-x="669" d="M-96 -401l22 120q107 0 157.5 54t78.5 196l74 387q52 273 245 297v4q-88 12 -123 86t-10 201l53 264q28 143 -1.5 197.5t-135.5 54.5l21 117h30q81 0 135 -28.5t77 -79t27.5 -119.5t-13.5 -150l-56 -266q-23 -118 16 -165.5t158 -55.5l-22 -123q-128 -8 -182.5 -54 t-77.5 -169l-74 -390q-38 -196 -121.5 -287t-240.5 -91h-37z" />
<glyph unicode="~" d="M209 907q6 138 82 220.5t196 82.5q62 0 109 -24t75.5 -58t53.5 -67.5t58.5 -57.5t76.5 -24q66 0 105 53t47 137h114q-7 -139 -83.5 -222t-196.5 -83q-62 0 -108.5 24t-75 58t-53.5 68t-58.5 58t-75.5 24q-66 0 -105.5 -53.5t-45.5 -135.5h-115z" />
<glyph unicode="&#xa1;" horiz-adv-x="641" d="M35 -418l237 1108h123l-182 -1108h-178zM270 924q0 47 32.5 78.5t78.5 31.5q44 0 74 -30.5t30 -73.5q0 -47 -32 -79t-78 -32q-45 0 -75 31t-30 74z" />
<glyph unicode="&#xa2;" horiz-adv-x="1067" d="M168 582q0 125 36.5 236.5t106 200.5t180 146.5t248.5 69.5l29 154h113l-27 -152q122 -3 244 -39l-54 -289h-92q0 126 6 183q-78 20 -163 20q-216 0 -339.5 -132t-123.5 -359q0 -139 77 -219t226 -80q162 0 309 55l-4 -133q-134 -48 -287 -58l-37 -194h-114l37 192 q-173 12 -272 114.5t-99 283.5z" />
<glyph unicode="&#xa3;" horiz-adv-x="970" d="M29 0l22 111q137 92 198.5 178t86.5 215q6 31 20 170h-221l23 119h209q12 174 22 247q32 199 137 279t295 80q90 0 183 -19l-56 -284h-90q-3 83 4 174q-40 4 -71 4q-209 0 -250 -217q-5 -28 -9 -66t-8.5 -99.5t-7.5 -98.5h315l-22 -119h-303q-11 -107 -21 -154 q-28 -143 -74.5 -225t-162.5 -170q92 10 164 10h303q25 91 65 184h97l-58 -319h-790z" />
<glyph unicode="&#xa4;" d="M82 221l190 187q-45 61 -45 165q0 102 37.5 197.5t116.5 165.5l-123 201l123 80l113 -211q83 41 182 41q109 0 168 -39l198 209l93 -89l-201 -204q33 -51 33 -140q0 -207 -142 -352l136 -217l-121 -82l-127 225q-94 -55 -197 -55q-94 0 -145 31l-187 -201zM371 596 q0 -81 42 -128.5t132 -47.5q120 0 200 105.5t80 234.5q0 77 -43 123.5t-135 46.5q-86 0 -150.5 -51t-95 -125.5t-30.5 -157.5z" />
<glyph unicode="&#xa5;" horiz-adv-x="1226" d="M123 238l18 102h342l31 152h-342l21 102h299l-199 676q-69 7 -125 24l18 88h447l-19 -88q-66 -19 -161 -26l100 -387q44 -152 61 -234h2q14 24 164 252l236 369q-88 7 -150 26l19 88h454l-18 -88q-64 -17 -133 -24l-461 -676h301l-20 -102h-342l-29 -152h340l-19 -102 h-342l-26 -127q90 -6 174 -29l-16 -82h-502l14 82q91 23 178 29l25 127h-340z" />
<glyph unicode="&#xa6;" horiz-adv-x="569" d="M29 -510l145 774h119l-146 -774h-118zM274 784l144 754h119l-144 -754h-119z" />
<glyph unicode="&#xa7;" horiz-adv-x="1036" d="M111 -313l28 131q89 -27 148 -27t104.5 21t70.5 54.5t37.5 69t12.5 70.5q0 52 -33.5 111.5t-81 117t-95 119.5t-81 139t-33.5 154q0 202 218 350q-46 91 -46 162q0 41 12 85t42 91.5t73 84.5t112 61t153 24q80 0 149 -16l-29 -131q-67 22 -129 22q-50 0 -90.5 -15 t-64.5 -37.5t-40 -52t-22 -56t-6 -52.5q0 -49 33.5 -107t81.5 -115.5t96 -120t81.5 -141.5t33.5 -159q0 -200 -217 -344q41 -74 41 -155q0 -69 -28 -133.5t-77.5 -115.5t-126 -81.5t-166.5 -30.5q-80 0 -161 23zM336 672q0 -38 11.5 -76.5t38 -82.5t47 -72.5t63.5 -84 t61 -80.5q72 43 106.5 103.5t34.5 122.5q0 39 -12 77.5t-38 81t-48.5 74.5t-62.5 84t-62 82q-139 -83 -139 -229z" />
<glyph unicode="&#xa8;" horiz-adv-x="1095" d="M399 1341q0 42 30.5 71.5t70.5 29.5q41 0 68.5 -27.5t27.5 -64.5q0 -44 -30 -73.5t-70 -29.5q-41 0 -69 27.5t-28 66.5zM784 1341q0 42 30.5 71.5t70.5 29.5q41 0 68.5 -27.5t27.5 -64.5q0 -44 -29.5 -73.5t-70.5 -29.5t-69 27.5t-28 66.5z" />
<glyph unicode="&#xa9;" horiz-adv-x="1511" d="M115 664q2 196 97 357.5t254.5 253t346.5 91.5q183 0 331.5 -86.5t231 -236.5t80.5 -330q-1 -147 -57.5 -279t-150.5 -225.5t-221.5 -148t-266.5 -54.5q-140 0 -261.5 51.5t-205.5 139.5t-131.5 209.5t-46.5 257.5zM242 666q-1 -147 66 -271t188.5 -197t269.5 -73 q114 0 218 44.5t180 122t121 187t46 232.5q1 144 -66 267t-188.5 196t-269.5 73q-153 0 -282 -75t-205.5 -208.5t-77.5 -297.5zM465 582q5 200 118.5 333.5t301.5 133.5q81 0 159 -19l-45 -237h-77q0 75 6 145q-35 6 -70 6q-69 0 -121.5 -33t-80.5 -86t-41.5 -109 t-14.5 -114q-3 -85 35.5 -127.5t126.5 -42.5q81 0 176 29l-6 -107q-99 -30 -199 -30q-147 0 -210.5 68t-57.5 190z" />
<glyph unicode="&#xaa;" horiz-adv-x="811" d="M125 461l22 123h578l-23 -123h-577zM166 909q0 96 28 182t80 154t135 108t185 40q113 0 221 -17q-88 -458 -104 -549q68 -11 114 -14l-14 -84q-139 -19 -248 -10q15 71 64 213h-2q-52 -107 -126.5 -166t-162.5 -59q-170 0 -170 202zM299 938q0 -119 74 -119 q92 0 173.5 120.5t112.5 279.5l13 57q-47 12 -105 12q-62 0 -114 -30.5t-85 -81t-51 -112t-18 -126.5z" />
<glyph unicode="&#xab;" horiz-adv-x="989" d="M139 610l297 353l107 -70l-248 -291l151 -293l-122 -63zM512 608l313 350l105 -69l-262 -287l168 -289l-123 -65z" />
<glyph unicode="&#xac;" d="M96 545l25 129h893l-86 -457h-133l61 328h-760z" />
<glyph unicode="&#xad;" horiz-adv-x="657" d="M100 532l27 127h463l-25 -127h-465z" />
<glyph unicode="&#xae;" horiz-adv-x="1132" d="M236 1055q0 130 64.5 238t168.5 167.5t223 59.5q176 0 294 -118.5t118 -297.5q0 -96 -38.5 -182.5t-101.5 -147t-145.5 -96t-169.5 -35.5q-177 0 -295 119t-118 293zM346 1069q0 -134 89 -230t218 -96q138 0 240 102.5t102 252.5q0 131 -89 226t-218 95 q-138 0 -240 -101.5t-102 -248.5zM455 850l8 49q28 16 55 21l62 331q-32 7 -50 19l11 49l51 2h135q147 0 141 -104q0 -61 -38.5 -101.5t-94.5 -50.5q18 -27 29 -61l31 -84q31 -7 51 -21l-8 -49h-115l-70 201h-24l-27 -131q33 -11 47 -21l-8 -49h-186zM639 1114h33 q50 0 78 26.5t30 65.5q0 43 -61 43h-53z" />
<glyph unicode="&#xaf;" horiz-adv-x="792" d="M297 1276l22 117h492l-23 -117h-491z" />
<glyph unicode="&#xb0;" horiz-adv-x="745" d="M250 1235q0 123 83.5 195.5t192.5 72.5q118 0 181 -64t63 -165q0 -126 -82.5 -198t-193.5 -72q-116 0 -180 63.5t-64 167.5zM375 1245q0 -64 35 -101.5t96 -37.5q60 0 99.5 43.5t39.5 114.5q0 23 -6 45t-20 43.5t-40.5 35t-62.5 13.5q-59 0 -100 -43t-41 -113z" />
<glyph unicode="&#xb1;" d="M-4 0l24 129h945l-25 -129h-944zM123 678l22 129h402l80 410h145l-80 -410h404l-25 -129h-401l-78 -412h-146l78 412h-401z" />
<glyph unicode="&#xb2;" horiz-adv-x="698" d="M72 553l20 111l258 206q111 87 162 152t51 127q0 129 -129 129q-52 0 -96 -16q-14 -52 -55 -160h-90l47 252q129 41 223 41q125 0 189.5 -58.5t64.5 -162.5q0 -161 -230 -343l-190 -153q135 6 365 6l-25 -131h-565z" />
<glyph unicode="&#xb3;" horiz-adv-x="651" d="M80 553l37 115q67 -21 151 -21q102 0 158.5 44t56.5 118q0 61 -70.5 88t-215.5 8l22 109q162 0 243 45t81 125q0 100 -109 100q-48 0 -82 -6q-19 -70 -49 -139h-92l45 231q106 25 197 25q126 0 181.5 -51t55.5 -136q0 -79 -51.5 -140t-140.5 -89q62 -10 99.5 -53 t37.5 -101q0 -124 -107.5 -206t-269.5 -82q-96 0 -178 16z" />
<glyph unicode="&#xb4;" horiz-adv-x="776" d="M344 1262l293 254l80 -107l-309 -231z" />
<glyph unicode="&#xb5;" horiz-adv-x="1218" d="M61 -510q1 190 21.5 361.5t45 277.5t63 266.5t59.5 270.5l43 227q-95 17 -168 22l16 89q159 21 328 14l-113 -584q-31 -180 -6 -251.5t109 -71.5q72 0 151.5 71t142 177.5t110 224.5t65.5 217l18 94q-77 14 -164 20l17 89q155 21 319 14l-117 -621q-24 -133 -24 -209 q0 -40 13.5 -55.5t45.5 -15.5q24 0 47 4l-6 -125q-41 -10 -86 -10q-80 0 -121 35t-41 120q0 122 68 295h-2q-37 -90 -85 -169t-106.5 -144t-129 -103t-142.5 -38q-76 0 -122.5 36t-55.5 109q-5 -111 -10 -147q-33 -229 -33 -490h-150z" />
<glyph unicode="&#xb6;" horiz-adv-x="1138" d="M215 858q0 75 22 149.5t66.5 142t106 119.5t147.5 82.5t184 30.5l-163 -862q-180 -1 -271.5 91t-91.5 247zM442 -197l21 117h151l277 1462h287l-21 -116h-147l-279 -1463h-289z" />
<glyph unicode="&#xb7;" horiz-adv-x="448" d="M125 604q0 50 36.5 85.5t84.5 35.5q47 0 79.5 -33.5t32.5 -79.5q0 -50 -36 -85t-84 -35q-47 0 -80 33t-33 79z" />
<glyph unicode="&#xb8;" horiz-adv-x="802" d="M174 -481q68 72 99 125t31.5 107t-36.5 112l138 53q40 -65 40 -132t-33.5 -130.5t-99.5 -134.5h-139z" />
<glyph unicode="&#xb9;" horiz-adv-x="602" d="M80 553l14 84q81 23 189 29l112 579l-200 -76v127l254 86h122l-139 -716q75 -6 158 -29l-17 -84h-493z" />
<glyph unicode="&#xba;" horiz-adv-x="845" d="M129 461l27 123h551l-27 -123h-551zM188 942q0 121 47 224.5t137.5 168t205.5 64.5q266 0 266 -240q0 -109 -35 -197.5t-93.5 -143t-129 -83t-146.5 -28.5q-125 0 -188.5 57t-63.5 178zM334 967q0 -142 125 -142q104 0 170.5 91t66.5 223q0 64 -30.5 103.5t-100.5 39.5 q-60 0 -107 -31.5t-72.5 -80.5t-38.5 -101t-13 -102z" />
<glyph unicode="&#xbb;" horiz-adv-x="989" d="M129 319l262 287l-168 291l121 64l203 -361l-314 -350zM516 317l248 289l-154 293l125 66l185 -365l-297 -352z" />
<glyph unicode="&#xbc;" horiz-adv-x="1415" d="M-10 -16l1353 1456l68 -60l-1356 -1456zM74 686l12 70q86 19 168 24l92 492l-158 -70l-10 101l203 83h119l-115 -606q48 -4 141 -24l-12 -70h-440zM635 168l4 84l381 444h164l-82 -428h135l-18 -100h-136l-16 -86q54 -12 90 -23l-10 -59h-324l11 59l104 23l16 86h-319z M770 268h205l59 320z" />
<glyph unicode="&#xbd;" horiz-adv-x="1421" d="M-25 -16l1352 1456l70 -60l-1358 -1456zM74 686l12 70q86 19 168 24l92 492l-158 -70l-10 101l203 83h119l-115 -606q48 -4 141 -24l-12 -70h-440zM700 0l17 86l229 190q85 66 123.5 111t46.5 100q11 57 -13 91t-81 34q-44 0 -76 -12q-11 -25 -30.5 -75t-22.5 -58h-78 l47 205q103 39 211 39t157.5 -55.5t33.5 -141.5q-8 -53 -40.5 -104.5t-63.5 -82.5t-83 -75l-184 -148h305l-20 -104h-478z" />
<glyph unicode="&#xbe;" horiz-adv-x="1415" d="M-10 -16l1353 1456l68 -60l-1356 -1456zM96 694l41 101q58 -21 123 -21q177 0 197 113q12 58 -31 80t-147 20q-43 0 -70 -2l20 94h52q93 0 147 34.5t64 88.5q10 48 -15.5 78.5t-95.5 30.5q-23 0 -51 -8q-17 -54 -43 -103h-70l37 178q106 25 174 25q116 0 166 -46t35 -130 q-23 -119 -156 -176q66 -12 98 -54t21 -100q-21 -106 -122 -163.5t-241 -57.5q-50 0 -133 18zM635 168l4 84l381 444h164l-82 -428h135l-18 -100h-136l-16 -86q54 -12 90 -23l-10 -59h-324l11 59l104 23l16 86h-319zM770 268h205l59 320z" />
<glyph unicode="&#xbf;" horiz-adv-x="888" d="M20 -63q0 69 27.5 127.5t70 101.5t94 84t100.5 84t87.5 91t56.5 116t7 149h151q12 -89 -5 -164t-53.5 -128t-83.5 -99t-96.5 -85.5t-91 -77.5t-68 -84.5t-26.5 -98.5q0 -91 103 -157t260 -85l-47 -141q-221 23 -353.5 126.5t-132.5 240.5zM475 924q0 47 32.5 78.5 t78.5 31.5q45 0 74.5 -30.5t29.5 -73.5q0 -47 -32 -79t-78 -32q-45 0 -75 31t-30 74z" />
<glyph unicode="&#xc0;" horiz-adv-x="1382" d="M-84 0l14 88q77 20 131 25l707 1269h180l217 -1267q54 -6 125 -27l-18 -88h-457l16 88q96 22 173 27l-39 247h-600l-138 -247q75 -6 158 -27l-16 -88h-453zM428 487h516l-92 543q-25 196 -25 197h-2q-40 -85 -96 -193zM575 1610l58 125l354 -152l-39 -90z" />
<glyph unicode="&#xc1;" horiz-adv-x="1382" d="M-84 0l14 88q77 20 131 25l707 1269h180l217 -1267q54 -6 125 -27l-18 -88h-457l16 88q96 22 173 27l-39 247h-600l-138 -247q75 -6 158 -27l-16 -88h-453zM428 487h516l-92 543q-25 196 -25 197h-2q-40 -85 -96 -193zM745 1583l371 152l35 -125l-379 -117z" />
<glyph unicode="&#xc2;" horiz-adv-x="1382" d="M-84 0l14 88q77 20 131 25l707 1269h180l217 -1267q54 -6 125 -27l-18 -88h-457l16 88q96 22 173 27l-39 247h-600l-138 -247q75 -6 158 -27l-16 -88h-453zM428 487h516l-92 543q-25 196 -25 197h-2q-40 -85 -96 -193zM575 1577l338 172l289 -166l-55 -94l-246 131 l-287 -131z" />
<glyph unicode="&#xc3;" horiz-adv-x="1382" d="M-84 0l14 88q77 20 131 25l707 1269h180l217 -1267q54 -6 125 -27l-18 -88h-457l16 88q96 22 173 27l-39 247h-600l-138 -247q75 -6 158 -27l-16 -88h-453zM428 487h516l-92 543q-25 196 -25 197h-2q-40 -85 -96 -193zM545 1587q83 144 221 144q45 0 84.5 -17.5t63.5 -38 t55 -38t61 -17.5q69 0 135 94l78 -59q-86 -144 -223 -144q-45 0 -84.5 17.5t-63 38t-54 38t-60.5 17.5q-72 0 -135 -94z" />
<glyph unicode="&#xc4;" horiz-adv-x="1382" d="M-84 0l14 88q77 20 131 25l707 1269h180l217 -1267q54 -6 125 -27l-18 -88h-457l16 88q96 22 173 27l-39 247h-600l-138 -247q75 -6 158 -27l-16 -88h-453zM428 487h516l-92 543q-25 196 -25 197h-2q-40 -85 -96 -193zM582 1591q0 41 29 70t69 29q39 0 65.5 -27t26.5 -66 q0 -41 -29 -69.5t-69 -28.5t-66 26t-26 66zM1008 1591q0 41 29 70t69 29q39 0 65.5 -27t26.5 -66q0 -41 -29 -69.5t-69 -28.5t-66 26t-26 66z" />
<glyph unicode="&#xc5;" horiz-adv-x="1382" d="M-84 0l14 88q77 20 131 25l707 1269h180l217 -1267q54 -6 125 -27l-18 -88h-457l16 88q96 22 173 27l-39 247h-600l-138 -247q75 -6 158 -27l-16 -88h-453zM428 487h516l-92 543q-25 196 -25 197h-2q-40 -85 -96 -193zM702 1647q0 92 66 153.5t152 61.5q83 0 137.5 -54.5 t54.5 -134.5q0 -89 -66 -152t-153 -63q-82 0 -136.5 53t-54.5 136zM797 1653q0 -43 30 -75t72 -32q46 0 80.5 35.5t34.5 85.5q0 44 -29 75.5t-72 31.5q-46 0 -81 -35.5t-35 -85.5z" />
<glyph unicode="&#xc6;" horiz-adv-x="1660" d="M-160 0l19 88q71 19 127 25l845 1155q-84 6 -167 26l18 88h993l-59 -307h-103q0 124 5 185h-392l-92 -488h316q23 75 61 150h88l-80 -418h-90q-6 62 -2 149h-315l-101 -526h410q19 63 65 188h103l-59 -315h-859l17 88q77 20 168 27l47 243h-467l-178 -243q69 -5 151 -27 l-16 -88h-453zM420 483h407l146 770h-4q-57 -92 -191 -278z" />
<glyph unicode="&#xc7;" horiz-adv-x="1165" d="M113 457q0 149 31.5 286.5t97 256.5t157 207.5t220 139t278.5 50.5q162 0 313 -41l-63 -314h-103q0 111 13 193q-95 27 -199 27q-116 0 -212.5 -45t-162.5 -121t-112 -177.5t-67 -211.5t-21 -226q0 -171 82.5 -264.5t275.5 -93.5q73 0 173 23t171 55l10 -140 q-190 -75 -389 -75q-493 0 -493 471zM342 -481q68 72 99 125t31.5 107t-36.5 112l137 53q40 -65 40 -132t-33 -130.5t-99 -134.5h-139z" />
<glyph unicode="&#xc8;" horiz-adv-x="1058" d="M-39 0l19 88q94 21 180 27l217 1153q-88 6 -170 26l18 88h856l-57 -307h-104q0 111 6 185h-398l-92 -488h318q29 96 59 150h88l-80 -418h-90q-8 63 -2 149h-315l-101 -526h400q17 55 67 188h103l-60 -315h-862zM432 1610l57 125l355 -152l-39 -90z" />
<glyph unicode="&#xc9;" horiz-adv-x="1058" d="M-39 0l19 88q94 21 180 27l217 1153q-88 6 -170 26l18 88h856l-57 -307h-104q0 111 6 185h-398l-92 -488h318q29 96 59 150h88l-80 -418h-90q-8 63 -2 149h-315l-101 -526h400q17 55 67 188h103l-60 -315h-862zM598 1583l371 152l35 -125l-379 -117z" />
<glyph unicode="&#xca;" horiz-adv-x="1058" d="M-39 0l19 88q94 21 180 27l217 1153q-88 6 -170 26l18 88h856l-57 -307h-104q0 111 6 185h-398l-92 -488h318q29 96 59 150h88l-80 -418h-90q-8 63 -2 149h-315l-101 -526h400q17 55 67 188h103l-60 -315h-862zM422 1577l338 172l289 -166l-56 -94l-245 131l-287 -131z " />
<glyph unicode="&#xcb;" horiz-adv-x="1058" d="M-39 0l19 88q94 21 180 27l217 1153q-88 6 -170 26l18 88h856l-57 -307h-104q0 111 6 185h-398l-92 -488h318q29 96 59 150h88l-80 -418h-90q-8 63 -2 149h-315l-101 -526h400q17 55 67 188h103l-60 -315h-862zM414 1591q0 41 29 70t69 29q39 0 65.5 -27t26.5 -66 q0 -41 -29 -69.5t-69 -28.5t-66 26t-26 66zM840 1591q0 41 29 70t69 29q39 0 65.5 -27t26.5 -66q0 -41 -29 -69.5t-69 -28.5t-66 26t-26 66z" />
<glyph unicode="&#xcc;" horiz-adv-x="622" d="M-39 0l16 88q98 21 181 27l219 1153q-86 6 -168 26l16 88h502l-16 -88q-93 -20 -181 -26l-219 -1153q83 -6 170 -27l-16 -88h-504zM219 1610l57 125l355 -152l-39 -90z" />
<glyph unicode="&#xcd;" horiz-adv-x="622" d="M-39 0l16 88q98 21 181 27l219 1153q-86 6 -168 26l16 88h502l-16 -88q-93 -20 -181 -26l-219 -1153q83 -6 170 -27l-16 -88h-504zM379 1583l371 152l34 -125l-378 -117z" />
<glyph unicode="&#xce;" horiz-adv-x="622" d="M-39 0l16 88q98 21 181 27l219 1153q-86 6 -168 26l16 88h502l-16 -88q-93 -20 -181 -26l-219 -1153q83 -6 170 -27l-16 -88h-504zM205 1577l338 172l288 -166l-55 -94l-246 131l-286 -131z" />
<glyph unicode="&#xcf;" horiz-adv-x="622" d="M-39 0l16 88q98 21 181 27l219 1153q-86 6 -168 26l16 88h502l-16 -88q-93 -20 -181 -26l-219 -1153q83 -6 170 -27l-16 -88h-504zM207 1591q0 41 29 70t69 29q39 0 65.5 -27t26.5 -66q0 -41 -29 -69.5t-69 -28.5t-66 26t-26 66zM633 1591q0 41 29 70t69 29 q39 0 65.5 -27t26.5 -66q0 -41 -29 -69.5t-69 -28.5t-66 26t-26 66z" />
<glyph unicode="&#xd0;" horiz-adv-x="1443" d="M-16 0l18 88q95 22 178 27l103 538h-195l23 119h194l94 496q-86 6 -168 26l15 88h172q40 0 178 3.5t207 3.5q160 0 277 -37t186 -106t101 -158t32 -201q0 -139 -33.5 -267t-105.5 -242.5t-176 -199.5t-255.5 -134.5t-332.5 -49.5q-80 0 -189 3t-149 3h-174zM338 137 q96 -14 180 -14q149 0 271.5 43.5t204 116t137.5 169.5t81 201.5t25 214.5q0 89 -23 157.5t-74 123.5t-142 84t-218 29q-36 0 -229 -7l-92 -483h307l-25 -119h-307z" />
<glyph unicode="&#xd1;" horiz-adv-x="1486" d="M-37 0l17 88q98 21 180 27l217 1153q-86 6 -168 26l16 88h367l385 -917q42 -102 108 -293q50 314 93 539l100 557q-94 7 -158 26l17 88h456l-16 -88q-76 -20 -150 -26l-239 -1268h-193l-387 920q-70 170 -104 299q-33 -233 -96 -574l-97 -530q92 -7 160 -27l-16 -88h-492 zM618 1587q83 144 222 144q45 0 84.5 -17.5t63.5 -38t55 -38t61 -17.5q69 0 135 94l78 -59q-86 -144 -223 -144q-45 0 -84.5 17.5t-63.5 38t-54.5 38t-60.5 17.5q-72 0 -135 -94z" />
<glyph unicode="&#xd2;" horiz-adv-x="1415" d="M104 483q0 186 60.5 355t164 292.5t250.5 197t312 73.5q235 0 362 -130.5t127 -369.5q0 -194 -62 -365t-167.5 -292.5t-250.5 -191.5t-306 -70q-244 0 -367 129.5t-123 371.5zM272 504q0 -180 88.5 -282.5t251.5 -102.5q121 0 231.5 59t191.5 160.5t129 243.5t48 301 q0 182 -87 282.5t-261 100.5q-167 0 -303.5 -104t-212.5 -278t-76 -380zM616 1610l58 125l354 -152l-39 -90z" />
<glyph unicode="&#xd3;" horiz-adv-x="1415" d="M104 483q0 186 60.5 355t164 292.5t250.5 197t312 73.5q235 0 362 -130.5t127 -369.5q0 -194 -62 -365t-167.5 -292.5t-250.5 -191.5t-306 -70q-244 0 -367 129.5t-123 371.5zM272 504q0 -180 88.5 -282.5t251.5 -102.5q121 0 231.5 59t191.5 160.5t129 243.5t48 301 q0 182 -87 282.5t-261 100.5q-167 0 -303.5 -104t-212.5 -278t-76 -380zM823 1583l371 152l35 -125l-379 -117z" />
<glyph unicode="&#xd4;" horiz-adv-x="1415" d="M104 483q0 186 60.5 355t164 292.5t250.5 197t312 73.5q235 0 362 -130.5t127 -369.5q0 -194 -62 -365t-167.5 -292.5t-250.5 -191.5t-306 -70q-244 0 -367 129.5t-123 371.5zM272 504q0 -180 88.5 -282.5t251.5 -102.5q121 0 231.5 59t191.5 160.5t129 243.5t48 301 q0 182 -87 282.5t-261 100.5q-167 0 -303.5 -104t-212.5 -278t-76 -380zM616 1577l338 172l289 -166l-55 -94l-246 131l-287 -131z" />
<glyph unicode="&#xd5;" horiz-adv-x="1415" d="M104 483q0 186 60.5 355t164 292.5t250.5 197t312 73.5q235 0 362 -130.5t127 -369.5q0 -194 -62 -365t-167.5 -292.5t-250.5 -191.5t-306 -70q-244 0 -367 129.5t-123 371.5zM272 504q0 -180 88.5 -282.5t251.5 -102.5q121 0 231.5 59t191.5 160.5t129 243.5t48 301 q0 182 -87 282.5t-261 100.5q-167 0 -303.5 -104t-212.5 -278t-76 -380zM592 1587q83 144 221 144q45 0 84.5 -17.5t63.5 -38t55 -38t61 -17.5q69 0 135 94l78 -59q-86 -144 -223 -144q-45 0 -84.5 17.5t-63 38t-54 38t-60.5 17.5q-72 0 -135 -94z" />
<glyph unicode="&#xd6;" horiz-adv-x="1415" d="M104 483q0 186 60.5 355t164 292.5t250.5 197t312 73.5q235 0 362 -130.5t127 -369.5q0 -194 -62 -365t-167.5 -292.5t-250.5 -191.5t-306 -70q-244 0 -367 129.5t-123 371.5zM272 504q0 -180 88.5 -282.5t251.5 -102.5q121 0 231.5 59t191.5 160.5t129 243.5t48 301 q0 182 -87 282.5t-261 100.5q-167 0 -303.5 -104t-212.5 -278t-76 -380zM600 1591q0 41 29 70t69 29q39 0 66 -27t27 -66q0 -41 -29.5 -69.5t-69.5 -28.5t-66 26t-26 66zM1026 1591q0 41 29 70t69 29q39 0 66 -27t27 -66q0 -41 -29.5 -69.5t-69.5 -28.5t-66 26t-26 66z" />
<glyph unicode="&#xd7;" d="M72 258l424 356l-289 355l102 84l289 -355l420 355l78 -95l-422 -354l287 -356l-103 -84l-287 356l-421 -356z" />
<glyph unicode="&#xd8;" horiz-adv-x="1415" d="M104 483q0 149 38 288t109.5 252.5t167 198.5t217 132t253.5 47q81 0 155 -19l107 193l111 -49l-103 -187q223 -117 223 -438q0 -193 -62 -364.5t-168 -292.5t-251.5 -191.5t-306.5 -70.5q-94 0 -174 22l-113 -207l-110 49l110 203q-203 119 -203 434zM270 504 q0 -214 119 -305l584 1054q-60 13 -127 13q-163 -6 -295.5 -110.5t-206.5 -277t-74 -374.5zM494 137q57 -19 141 -16q117 5 224 66t186.5 161t126.5 240.5t47 296.5q0 220 -136 315z" />
<glyph unicode="&#xd9;" horiz-adv-x="1439" d="M180 332q0 56 17 139l149 797q-68 6 -137 26l16 88h463l-18 -88q-69 -19 -170 -26l-148 -781q-16 -78 -16 -135q0 -124 70.5 -183.5t228.5 -59.5q193 0 302 94.5t150 320.5l142 744q-95 7 -162 26l18 88h459l-16 -88q-81 -21 -148 -26l-143 -762q-52 -266 -207.5 -395 t-415.5 -129q-121 0 -207 25.5t-135 74t-70.5 109.5t-21.5 141zM559 1610l57 125l355 -152l-39 -90z" />
<glyph unicode="&#xda;" horiz-adv-x="1439" d="M180 332q0 56 17 139l149 797q-68 6 -137 26l16 88h463l-18 -88q-69 -19 -170 -26l-148 -781q-16 -78 -16 -135q0 -124 70.5 -183.5t228.5 -59.5q193 0 302 94.5t150 320.5l142 744q-95 7 -162 26l18 88h459l-16 -88q-81 -21 -148 -26l-143 -762q-52 -266 -207.5 -395 t-415.5 -129q-121 0 -207 25.5t-135 74t-70.5 109.5t-21.5 141zM815 1583l371 152l35 -125l-379 -117z" />
<glyph unicode="&#xdb;" horiz-adv-x="1439" d="M180 332q0 56 17 139l149 797q-68 6 -137 26l16 88h463l-18 -88q-69 -19 -170 -26l-148 -781q-16 -78 -16 -135q0 -124 70.5 -183.5t228.5 -59.5q193 0 302 94.5t150 320.5l142 744q-95 7 -162 26l18 88h459l-16 -88q-81 -21 -148 -26l-143 -762q-52 -266 -207.5 -395 t-415.5 -129q-121 0 -207 25.5t-135 74t-70.5 109.5t-21.5 141zM606 1577l338 172l289 -166l-55 -94l-246 131l-287 -131z" />
<glyph unicode="&#xdc;" horiz-adv-x="1439" d="M180 332q0 56 17 139l149 797q-68 6 -137 26l16 88h463l-18 -88q-69 -19 -170 -26l-148 -781q-16 -78 -16 -135q0 -124 70.5 -183.5t228.5 -59.5q193 0 302 94.5t150 320.5l142 744q-95 7 -162 26l18 88h459l-16 -88q-81 -21 -148 -26l-143 -762q-52 -266 -207.5 -395 t-415.5 -129q-121 0 -207 25.5t-135 74t-70.5 109.5t-21.5 141zM618 1591q0 41 29.5 70t69.5 29q39 0 65.5 -27t26.5 -66q0 -41 -29 -69.5t-69 -28.5t-66.5 26t-26.5 66zM1044 1591q0 41 29.5 70t69.5 29q39 0 65.5 -27t26.5 -66q0 -41 -29 -69.5t-69 -28.5t-66.5 26 t-26.5 66z" />
<glyph unicode="&#xdd;" horiz-adv-x="1179" d="M160 1294l16 88h453l-17 -88q-64 -19 -166 -26l103 -398q52 -202 59 -237h2q9 14 178 282l226 353q-92 8 -148 26l19 88h448l-16 -88q-69 -18 -131 -24l-524 -774l-74 -381q83 -6 170 -27l-17 -88h-501l16 88q94 21 180 27l72 381l-223 774q-64 7 -125 24zM721 1583 l371 152l34 -125l-378 -117z" />
<glyph unicode="&#xde;" horiz-adv-x="1112" d="M-37 0l17 88q100 22 180 27l219 1153q-88 6 -170 26l16 88h504l-16 -88q-93 -20 -181 -26l-24 -131q94 6 209 6q210 0 308.5 -88.5t98.5 -235.5q0 -100 -42 -192.5t-119 -165.5t-197.5 -116.5t-265.5 -43.5q-60 0 -150 12l-39 -198q83 -6 170 -27l-16 -88h-502zM375 440 q86 -12 137 -12q106 0 192.5 31.5t141 84t83.5 118t29 137.5q0 221 -284 221q-117 0 -191 -14z" />
<glyph unicode="&#xdf;" horiz-adv-x="1175" d="M-346 -510l35 133q64 -20 137 -20q120 0 179.5 69t96.5 265l187 960q-105 13 -168 18l16 89q93 11 174 14q86 487 506 487q141 0 220 -64t79 -167q0 -63 -19.5 -113t-50.5 -82.5t-68.5 -59.5t-75 -50.5t-68.5 -48.5t-50.5 -60.5t-19.5 -79.5q0 -43 22.5 -82t55.5 -68 t72.5 -63.5t72.5 -67.5t55.5 -81.5t22.5 -104.5q0 -139 -119 -235t-303 -96q-102 0 -182 14l55 291h88q0 -93 -6 -172q52 -9 72 -9q113 0 175 48.5t62 132.5q0 37 -16.5 71t-43 60.5t-58 53.5t-63.5 55.5t-58.5 60t-43 74t-16.5 90.5q0 59 19.5 107.5t50 80.5t68 59.5 t75 52.5t68 52t50 65t19.5 84q0 58 -42 93.5t-121 35.5q-265 0 -330 -344l-213 -1099q-25 -133 -64.5 -223t-96.5 -143t-127 -76t-165 -23q-73 0 -145 16z" />
<glyph unicode="&#xe0;" horiz-adv-x="1120" d="M66 287q0 114 23 220t73 202.5t122.5 167.5t179.5 113t236 42q147 0 304 -28l-170 -881q93 -16 167 -21l-16 -88q-157 -20 -326 -14q24 123 127 449l-4 2q-209 -471 -493 -471q-223 0 -223 307zM221 313q0 -202 115 -202q75 0 156 71.5t145 178.5t111.5 225t66.5 217 l16 88q-86 20 -157 20q-79 0 -147 -25.5t-116.5 -70t-85.5 -102.5t-59.5 -126t-33.5 -136.5t-11 -137.5zM461 1421l102 95l230 -263l-82 -75z" />
<glyph unicode="&#xe1;" horiz-adv-x="1120" d="M66 287q0 114 23 220t73 202.5t122.5 167.5t179.5 113t236 42q147 0 304 -28l-170 -881q93 -16 167 -21l-16 -88q-157 -20 -326 -14q24 123 127 449l-4 2q-209 -471 -493 -471q-223 0 -223 307zM221 313q0 -202 115 -202q75 0 156 71.5t145 178.5t111.5 225t66.5 217 l16 88q-86 20 -157 20q-79 0 -147 -25.5t-116.5 -70t-85.5 -102.5t-59.5 -126t-33.5 -136.5t-11 -137.5zM606 1262l293 254l80 -107l-309 -231z" />
<glyph unicode="&#xe2;" horiz-adv-x="1120" d="M66 287q0 114 23 220t73 202.5t122.5 167.5t179.5 113t236 42q147 0 304 -28l-170 -881q93 -16 167 -21l-16 -88q-157 -20 -326 -14q24 123 127 449l-4 2q-209 -471 -493 -471q-223 0 -223 307zM221 313q0 -202 115 -202q75 0 156 71.5t145 178.5t111.5 225t66.5 217 l16 88q-86 20 -157 20q-79 0 -147 -25.5t-116.5 -70t-85.5 -102.5t-59.5 -126t-33.5 -136.5t-11 -137.5zM418 1249l311 267l223 -263l-78 -75l-167 176l-226 -176z" />
<glyph unicode="&#xe3;" horiz-adv-x="1120" d="M66 287q0 114 23 220t73 202.5t122.5 167.5t179.5 113t236 42q147 0 304 -28l-170 -881q93 -16 167 -21l-16 -88q-157 -20 -326 -14q24 123 127 449l-4 2q-209 -471 -493 -471q-223 0 -223 307zM221 313q0 -202 115 -202q75 0 156 71.5t145 178.5t111.5 225t66.5 217 l16 88q-86 20 -157 20q-79 0 -147 -25.5t-116.5 -70t-85.5 -102.5t-59.5 -126t-33.5 -136.5t-11 -137.5zM342 1311q39 71 94 110t119 39q44 0 83 -18t62 -39t53 -39t58 -18q68 0 127 96l80 -64q-40 -71 -97 -110t-122 -39q-43 0 -81 18t-60.5 39t-51.5 39t-57 18 q-65 0 -131 -96z" />
<glyph unicode="&#xe4;" horiz-adv-x="1120" d="M66 287q0 114 23 220t73 202.5t122.5 167.5t179.5 113t236 42q147 0 304 -28l-170 -881q93 -16 167 -21l-16 -88q-157 -20 -326 -14q24 123 127 449l-4 2q-209 -471 -493 -471q-223 0 -223 307zM221 313q0 -202 115 -202q75 0 156 71.5t145 178.5t111.5 225t66.5 217 l16 88q-86 20 -157 20q-79 0 -147 -25.5t-116.5 -70t-85.5 -102.5t-59.5 -126t-33.5 -136.5t-11 -137.5zM391 1341q0 42 30.5 71.5t70.5 29.5q41 0 68.5 -27.5t27.5 -64.5q0 -43 -30 -73t-71 -30t-68.5 27.5t-27.5 66.5zM776 1341q0 42 30.5 71.5t70.5 29.5q41 0 68.5 -27.5 t27.5 -64.5q0 -43 -30 -73t-71 -30t-68.5 27.5t-27.5 66.5z" />
<glyph unicode="&#xe5;" horiz-adv-x="1120" d="M66 287q0 114 23 220t73 202.5t122.5 167.5t179.5 113t236 42q147 0 304 -28l-170 -881q93 -16 167 -21l-16 -88q-157 -20 -326 -14q24 123 127 449l-4 2q-209 -471 -493 -471q-223 0 -223 307zM221 313q0 -202 115 -202q75 0 156 71.5t145 178.5t111.5 225t66.5 217 l16 88q-86 20 -157 20q-79 0 -147 -25.5t-116.5 -70t-85.5 -102.5t-59.5 -126t-33.5 -136.5t-11 -137.5zM459 1339q0 98 70 164t161 66q89 0 148 -57.5t59 -143.5q0 -96 -70 -162.5t-163 -66.5q-89 0 -147 56t-58 144zM561 1346q0 -47 31 -80t78 -33q50 0 86.5 37t36.5 92 q0 46 -30.5 79.5t-78.5 33.5t-85.5 -38t-37.5 -91z" />
<glyph unicode="&#xe6;" horiz-adv-x="1566" d="M41 186q0 85 35.5 150t94 106.5t148 70.5t183 43t213.5 22l14 73q30 135 -8.5 198.5t-161.5 63.5q-100 0 -207 -26q-9 -32 -32 -98.5t-27 -79.5h-92l51 272q157 55 336 55q71 0 122.5 -13t82 -38.5t47.5 -53t28 -65.5q59 71 154.5 120.5t206.5 49.5q144 0 215.5 -63.5 t71.5 -161.5q0 -73 -30.5 -128.5t-104 -102.5t-208 -76.5t-329.5 -40.5q-10 -83 -10 -135q0 -128 50.5 -173.5t182.5 -45.5q147 0 281 59l8 -123q-148 -63 -344 -63q-80 0 -138 17.5t-93.5 51.5t-55.5 74.5t-31 95.5q-51 -97 -163 -168t-244 -71q-122 0 -184 55t-62 149z M197 225q0 -53 36.5 -86t94.5 -33q131 0 233 104.5t131 250.5q-118 -7 -200 -20t-153 -39t-106.5 -70t-35.5 -107zM870 584q96 7 163.5 15t133.5 23t105.5 36.5t63.5 55.5t24 79q0 60 -41 92.5t-109 32.5q-123 0 -211 -93t-129 -241z" />
<glyph unicode="&#xe7;" horiz-adv-x="860" d="M70 317q0 197 69.5 359t202.5 259t305 97q113 0 232 -35l-56 -286l-90 2q-3 101 8 182q-49 14 -112 14q-93 0 -171 -50.5t-126 -132t-74.5 -179t-26.5 -195.5q0 -49 9 -86.5t32.5 -73t71 -54.5t117.5 -19q127 0 246 53l14 -127q-147 -57 -299 -57q-352 0 -352 329z M176 -481q68 72 99 125t31.5 107t-36.5 112l138 53q40 -65 40 -132t-33.5 -130.5t-99.5 -134.5h-139z" />
<glyph unicode="&#xe8;" horiz-adv-x="960" d="M70 307q0 144 38.5 275.5t108 232.5t175 161t231.5 60q144 0 215 -63.5t71 -161.5q0 -323 -669 -350q-13 -72 -13 -133q0 -128 51 -173.5t183 -45.5q145 0 282 59l9 -123q-151 -63 -346 -63q-171 0 -253.5 76.5t-82.5 248.5zM262 582q255 10 372.5 62.5t117.5 148.5 q0 60 -40 92.5t-108 32.5q-124 0 -212.5 -93.5t-129.5 -242.5zM393 1421l103 95l229 -263l-82 -75z" />
<glyph unicode="&#xe9;" horiz-adv-x="960" d="M70 307q0 144 38.5 275.5t108 232.5t175 161t231.5 60q144 0 215 -63.5t71 -161.5q0 -323 -669 -350q-13 -72 -13 -133q0 -128 51 -173.5t183 -45.5q145 0 282 59l9 -123q-151 -63 -346 -63q-171 0 -253.5 76.5t-82.5 248.5zM262 582q255 10 372.5 62.5t117.5 148.5 q0 60 -40 92.5t-108 32.5q-124 0 -212.5 -93.5t-129.5 -242.5zM524 1262l293 254l80 -107l-309 -231z" />
<glyph unicode="&#xea;" horiz-adv-x="960" d="M70 307q0 144 38.5 275.5t108 232.5t175 161t231.5 60q144 0 215 -63.5t71 -161.5q0 -323 -669 -350q-13 -72 -13 -133q0 -128 51 -173.5t183 -45.5q145 0 282 59l9 -123q-151 -63 -346 -63q-171 0 -253.5 76.5t-82.5 248.5zM262 582q255 10 372.5 62.5t117.5 148.5 q0 60 -40 92.5t-108 32.5q-124 0 -212.5 -93.5t-129.5 -242.5zM373 1249l311 267l223 -263l-78 -75l-167 176l-226 -176z" />
<glyph unicode="&#xeb;" horiz-adv-x="960" d="M70 307q0 144 38.5 275.5t108 232.5t175 161t231.5 60q144 0 215 -63.5t71 -161.5q0 -323 -669 -350q-13 -72 -13 -133q0 -128 51 -173.5t183 -45.5q145 0 282 59l9 -123q-151 -63 -346 -63q-171 0 -253.5 76.5t-82.5 248.5zM262 582q255 10 372.5 62.5t117.5 148.5 q0 60 -40 92.5t-108 32.5q-124 0 -212.5 -93.5t-129.5 -242.5zM379 1341q0 42 30 71.5t70 29.5q41 0 68.5 -27.5t27.5 -64.5q0 -44 -29.5 -73.5t-70.5 -29.5t-68.5 27.5t-27.5 66.5zM764 1341q0 42 30 71.5t70 29.5q41 0 69 -27.5t28 -64.5q0 -43 -30 -73t-71 -30 t-68.5 27.5t-27.5 66.5z" />
<glyph unicode="&#xec;" horiz-adv-x="573" d="M115 0l174 897q-65 11 -168 18l18 89q158 21 322 14l-174 -895q86 -15 170 -21l-17 -88q-162 -21 -325 -14zM223 1421l103 95l229 -263l-82 -75z" />
<glyph unicode="&#xed;" horiz-adv-x="573" d="M115 0l174 897q-65 11 -168 18l18 89q158 21 322 14l-174 -895q86 -15 170 -21l-17 -88q-162 -21 -325 -14zM276 1262l293 254l80 -107l-309 -231z" />
<glyph unicode="&#xee;" horiz-adv-x="573" d="M115 0l174 897q-65 11 -168 18l18 89q158 21 322 14l-174 -895q86 -15 170 -21l-17 -88q-162 -21 -325 -14zM162 1249l311 267l223 -263l-78 -75l-167 176l-226 -176z" />
<glyph unicode="&#xef;" horiz-adv-x="573" d="M115 0l174 897q-65 11 -168 18l18 89q158 21 322 14l-174 -895q86 -15 170 -21l-17 -88q-162 -21 -325 -14zM168 1341q0 42 30 71.5t70 29.5q41 0 69 -27.5t28 -64.5q0 -43 -30 -73t-71 -30t-68.5 27.5t-27.5 66.5zM553 1341q0 42 30 71.5t70 29.5q41 0 69 -27.5 t28 -64.5q0 -43 -30 -73t-71 -30t-68.5 27.5t-27.5 66.5z" />
<glyph unicode="&#xf0;" horiz-adv-x="1089" d="M70 348q0 180 69 335t202 253t302 98q80 0 139.5 -25.5t83.5 -78.5q-7 26 -41 112q-45 107 -100 189l-238 -98l-49 92l219 90q-38 44 -133 135l150 70q69 -66 131 -144l233 97l47 -93l-219 -90q158 -251 158 -545q0 -154 -40.5 -292.5t-114 -243t-184 -166t-241.5 -61.5 q-182 0 -278 92.5t-96 273.5zM229 385q0 -128 61.5 -200t174.5 -72q86 0 156 40.5t113.5 102t73 138t41 144.5t11.5 126q0 111 -58.5 178t-172.5 67q-74 0 -139.5 -31t-112.5 -83t-81 -119.5t-50.5 -142t-16.5 -148.5z" />
<glyph unicode="&#xf1;" horiz-adv-x="1214" d="M119 0l172 895q-80 14 -166 20l18 89q155 21 320 14q-25 -144 -119 -434l4 -2q38 90 86.5 168.5t109.5 144.5t136 104.5t154 38.5q137 0 189 -91t21 -257l-108 -567q85 -18 164 -21l-17 -88q-154 -21 -321 -14l127 655q25 130 0 191t-101 61q-74 0 -155 -71t-144 -176.5 t-110.5 -221.5t-65.5 -211l-45 -227h-149zM418 1311q39 71 94 110t119 39q44 0 83 -18t62 -39t53 -39t58 -18q68 0 127 96l80 -64q-40 -71 -97 -110t-123 -39q-43 0 -81 18t-60 39t-51 39t-57 18q-65 0 -131 -96z" />
<glyph unicode="&#xf2;" horiz-adv-x="1091" d="M106 342q0 197 74.5 356t206.5 248.5t297 89.5q186 0 278.5 -98.5t92.5 -267.5q0 -153 -49 -284t-130.5 -218.5t-187 -136.5t-219.5 -49q-181 0 -272 92t-91 268zM264 371q0 -129 56 -193.5t178 -64.5q162 0 279.5 153t117.5 389q0 252 -233 252q-116 0 -208.5 -77 t-141 -198.5t-48.5 -260.5zM477 1421l103 95l229 -263l-82 -75z" />
<glyph unicode="&#xf3;" horiz-adv-x="1091" d="M106 342q0 197 74.5 356t206.5 248.5t297 89.5q186 0 278.5 -98.5t92.5 -267.5q0 -153 -49 -284t-130.5 -218.5t-187 -136.5t-219.5 -49q-181 0 -272 92t-91 268zM264 371q0 -129 56 -193.5t178 -64.5q162 0 279.5 153t117.5 389q0 252 -233 252q-116 0 -208.5 -77 t-141 -198.5t-48.5 -260.5zM580 1262l292 254l80 -107l-309 -231z" />
<glyph unicode="&#xf4;" horiz-adv-x="1091" d="M106 342q0 197 74.5 356t206.5 248.5t297 89.5q186 0 278.5 -98.5t92.5 -267.5q0 -153 -49 -284t-130.5 -218.5t-187 -136.5t-219.5 -49q-181 0 -272 92t-91 268zM264 371q0 -129 56 -193.5t178 -64.5q162 0 279.5 153t117.5 389q0 252 -233 252q-116 0 -208.5 -77 t-141 -198.5t-48.5 -260.5zM420 1249l311 267l223 -263l-77 -75l-168 176l-226 -176z" />
<glyph unicode="&#xf5;" horiz-adv-x="1091" d="M106 342q0 197 74.5 356t206.5 248.5t297 89.5q186 0 278.5 -98.5t92.5 -267.5q0 -153 -49 -284t-130.5 -218.5t-187 -136.5t-219.5 -49q-181 0 -272 92t-91 268zM264 371q0 -129 56 -193.5t178 -64.5q162 0 279.5 153t117.5 389q0 252 -233 252q-116 0 -208.5 -77 t-141 -198.5t-48.5 -260.5zM352 1311q39 71 94 110t119 39q44 0 83 -18t62 -39t53 -39t58 -18q68 0 127 96l80 -64q-40 -71 -97 -110t-122 -39q-43 0 -81 18t-60.5 39t-51.5 39t-57 18q-65 0 -131 -96z" />
<glyph unicode="&#xf6;" horiz-adv-x="1091" d="M106 342q0 197 74.5 356t206.5 248.5t297 89.5q186 0 278.5 -98.5t92.5 -267.5q0 -153 -49 -284t-130.5 -218.5t-187 -136.5t-219.5 -49q-181 0 -272 92t-91 268zM264 371q0 -129 56 -193.5t178 -64.5q162 0 279.5 153t117.5 389q0 252 -233 252q-116 0 -208.5 -77 t-141 -198.5t-48.5 -260.5zM406 1341q0 42 30 71.5t70 29.5q41 0 68.5 -27.5t27.5 -64.5q0 -44 -30 -73.5t-70 -29.5q-41 0 -68.5 27.5t-27.5 66.5zM791 1341q0 42 30 71.5t70 29.5q41 0 68.5 -27.5t27.5 -64.5q0 -44 -29.5 -73.5t-70.5 -29.5t-68.5 27.5t-27.5 66.5z" />
<glyph unicode="&#xf7;" d="M96 545l25 129h950l-27 -129h-948zM391 195q0 46 31.5 78t77.5 32q44 0 75 -32t31 -76q0 -46 -32 -78.5t-76 -32.5q-45 0 -76 32t-31 77zM551 1020q0 46 32 78t76 32q45 0 76 -31.5t31 -74.5q0 -47 -31.5 -79t-77.5 -32q-45 0 -75.5 31t-30.5 76z" />
<glyph unicode="&#xf8;" horiz-adv-x="1091" d="M72 342q0 194 72 352t205 250t302 92q55 0 105 -12l112 203l97 -49l-107 -189q164 -86 164 -319q0 -153 -49 -284t-131 -218.5t-187.5 -136.5t-218.5 -49q-74 0 -133 18l-119 -209l-96 51l113 201q-129 89 -129 299zM223 375q0 -129 58 -193l405 723q-30 6 -70 6 q-112 -3 -202.5 -78t-140.5 -196.5t-50 -261.5zM371 123q41 -14 102 -14q161 6 277 160t116 386q0 145 -84 205z" />
<glyph unicode="&#xf9;" horiz-adv-x="1214" d="M123 915l16 89q155 21 320 14l-125 -656q-25 -130 0 -190.5t100 -60.5q60 0 124.5 47t120 122t103.5 167t81 184.5t48 171.5l17 92q-73 13 -162 20l16 89q155 21 320 14l-172 -895q84 -15 168 -21l-17 -88q-155 -21 -323 -14q22 131 121 434l-5 2q-39 -91 -87.5 -168.5 t-109 -144.5t-135.5 -105t-155 -38q-136 0 -189 91.5t-20 256.5l107 565q-97 17 -162 22zM485 1421l103 95l229 -263l-82 -75z" />
<glyph unicode="&#xfa;" horiz-adv-x="1214" d="M123 915l16 89q155 21 320 14l-125 -656q-25 -130 0 -190.5t100 -60.5q60 0 124.5 47t120 122t103.5 167t81 184.5t48 171.5l17 92q-73 13 -162 20l16 89q155 21 320 14l-172 -895q84 -15 168 -21l-17 -88q-155 -21 -323 -14q22 131 121 434l-5 2q-39 -91 -87.5 -168.5 t-109 -144.5t-135.5 -105t-155 -38q-136 0 -189 91.5t-20 256.5l107 565q-97 17 -162 22zM649 1262l293 254l80 -107l-309 -231z" />
<glyph unicode="&#xfb;" horiz-adv-x="1214" d="M123 915l16 89q155 21 320 14l-125 -656q-25 -130 0 -190.5t100 -60.5q60 0 124.5 47t120 122t103.5 167t81 184.5t48 171.5l17 92q-73 13 -162 20l16 89q155 21 320 14l-172 -895q84 -15 168 -21l-17 -88q-155 -21 -323 -14q22 131 121 434l-5 2q-39 -91 -87.5 -168.5 t-109 -144.5t-135.5 -105t-155 -38q-136 0 -189 91.5t-20 256.5l107 565q-97 17 -162 22zM457 1249l311 267l223 -263l-78 -75l-168 176l-225 -176z" />
<glyph unicode="&#xfc;" horiz-adv-x="1214" d="M123 915l16 89q155 21 320 14l-125 -656q-25 -130 0 -190.5t100 -60.5q60 0 124.5 47t120 122t103.5 167t81 184.5t48 171.5l17 92q-73 13 -162 20l16 89q155 21 320 14l-172 -895q84 -15 168 -21l-17 -88q-155 -21 -323 -14q22 131 121 434l-5 2q-39 -91 -87.5 -168.5 t-109 -144.5t-135.5 -105t-155 -38q-136 0 -189 91.5t-20 256.5l107 565q-97 17 -162 22zM446 1341q0 42 30.5 71.5t70.5 29.5q41 0 68.5 -27.5t27.5 -64.5q0 -44 -29.5 -73.5t-70.5 -29.5t-69 27.5t-28 66.5zM831 1341q0 42 30.5 71.5t70.5 29.5q41 0 68.5 -27.5 t27.5 -64.5q0 -44 -30 -73.5t-70 -29.5q-41 0 -69 27.5t-28 66.5z" />
<glyph unicode="&#xfd;" horiz-adv-x="1056" d="M-184 -510l26 141q56 -20 129 -20q57 0 121 35t119 96q65 71 94 152t29 198q0 353 -105 803q-78 14 -163 20l16 89q145 20 293 14q48 -205 77 -417.5t29 -356.5q0 -85 -18 -195h2q227 392 485 1010l146 -45q-423 -1001 -783 -1358q-186 -180 -356 -180q-84 0 -141 14z M612 1262l293 254l80 -107l-309 -231z" />
<glyph unicode="&#xfe;" horiz-adv-x="1093" d="M-184 -510l16 88q86 23 178 29l336 1759l2 6q-84 15 -170 21l17 88q158 21 327 14l-84 -436q-39 -196 -129 -481l4 -3q40 98 90.5 180t111.5 146.5t135 100.5t153 36q223 0 223 -307q0 -114 -23 -220t-73 -201.5t-123 -166.5t-180 -113t-236 -42q-81 0 -155 12l-76 -393 q90 -6 170 -29l-17 -88h-497zM262 135q73 -26 158 -26q94 0 171 36.5t128 96t85.5 138t50 160.5t15.5 165q0 202 -114 202q-75 0 -156 -71.5t-144 -178.5t-110.5 -224t-66.5 -214z" />
<glyph unicode="&#xff;" horiz-adv-x="1056" d="M-184 -510l26 141q56 -20 129 -20q57 0 121 35t119 96q65 71 94 152t29 198q0 353 -105 803q-78 14 -163 20l16 89q145 20 293 14q48 -205 77 -417.5t29 -356.5q0 -85 -18 -195h2q227 392 485 1010l146 -45q-423 -1001 -783 -1358q-186 -180 -356 -180q-84 0 -141 14z M428 1341q0 42 30 71.5t70 29.5q41 0 69 -27.5t28 -64.5q0 -43 -30 -73t-71 -30t-68.5 27.5t-27.5 66.5zM813 1341q0 42 30 71.5t70 29.5q41 0 69 -27.5t28 -64.5q0 -43 -30 -73t-71 -30t-68.5 27.5t-27.5 66.5z" />
<glyph unicode="&#x152;" horiz-adv-x="1734" d="M102 483q0 186 60.5 355t164 292.5t250.5 197t312 73.5q108 0 198 -19h664l-59 -307h-103q0 136 6 185h-395l-94 -488h319q28 92 60 150h88l-80 -418h-88q-11 60 -4 149h-316l-102 -526h406q17 55 67 188h103l-62 -315h-682q-114 -18 -223 -18q-244 0 -367 129.5 t-123 371.5zM270 504q0 -180 88.5 -282.5t251.5 -102.5q115 0 226 26l206 1092q-92 29 -180 29q-167 0 -303.5 -104t-212.5 -278t-76 -380z" />
<glyph unicode="&#x153;" horiz-adv-x="1714" d="M72 342q0 197 74.5 355.5t207.5 248.5t299 90q131 0 215 -55.5t119 -155.5q153 211 391 211q143 0 214 -63.5t71 -161.5q0 -159 -166.5 -248t-501.5 -102q-12 -99 -12 -133q0 -128 51 -173.5t183 -45.5q146 0 280 59l8 -123q-151 -63 -344 -63q-136 0 -213 50t-100 161 q-75 -99 -184.5 -155t-227.5 -56q-183 0 -273.5 91.5t-90.5 268.5zM229 371q0 -129 56 -193.5t178 -64.5q162 0 280.5 153t118.5 389q0 252 -231 252q-116 0 -209.5 -76.5t-143 -198.5t-49.5 -261zM1018 582q256 10 373.5 61.5t117.5 149.5q0 60 -40.5 92.5t-108.5 32.5 q-123 0 -212 -94t-130 -242z" />
<glyph unicode="&#x178;" horiz-adv-x="1179" d="M160 1294l16 88h453l-17 -88q-64 -19 -166 -26l103 -398q52 -202 59 -237h2q9 14 178 282l226 353q-92 8 -148 26l19 88h448l-16 -88q-69 -18 -131 -24l-524 -774l-74 -381q83 -6 170 -27l-17 -88h-501l16 88q94 21 180 27l72 381l-223 774q-64 7 -125 24zM479 1591 q0 41 29.5 70t69.5 29q39 0 65.5 -27t26.5 -66q0 -41 -29.5 -69.5t-69.5 -28.5t-66 26t-26 66zM905 1591q0 41 29.5 70t69.5 29q39 0 65.5 -27t26.5 -66q0 -41 -29.5 -69.5t-69.5 -28.5t-66 26t-26 66z" />
<glyph unicode="&#x2c6;" horiz-adv-x="874" d="M305 1249l311 267l224 -263l-78 -75l-168 176l-225 -176z" />
<glyph unicode="&#x2dc;" horiz-adv-x="1019" d="M322 1311q39 71 94 110t119 39q44 0 83 -18t62 -39t53 -39t58 -18q68 0 127 96l79 -64q-40 -71 -97 -110t-122 -39q-43 0 -81 18t-60.5 39t-51.5 39t-57 18q-65 0 -131 -96z" />
<glyph unicode="&#x2000;" horiz-adv-x="931" />
<glyph unicode="&#x2001;" horiz-adv-x="1862" />
<glyph unicode="&#x2002;" horiz-adv-x="931" />
<glyph unicode="&#x2003;" horiz-adv-x="1862" />
<glyph unicode="&#x2004;" horiz-adv-x="620" />
<glyph unicode="&#x2005;" horiz-adv-x="465" />
<glyph unicode="&#x2006;" horiz-adv-x="310" />
<glyph unicode="&#x2007;" horiz-adv-x="310" />
<glyph unicode="&#x2008;" horiz-adv-x="232" />
<glyph unicode="&#x2009;" horiz-adv-x="372" />
<glyph unicode="&#x200a;" horiz-adv-x="103" />
<glyph unicode="&#x2010;" horiz-adv-x="657" d="M100 532l27 127h463l-25 -127h-465z" />
<glyph unicode="&#x2011;" horiz-adv-x="657" d="M100 532l27 127h463l-25 -127h-465z" />
<glyph unicode="&#x2012;" horiz-adv-x="657" d="M100 532l27 127h463l-25 -127h-465z" />
<glyph unicode="&#x2013;" d="M8 543l25 133h1126l-24 -133h-1127z" />
<glyph unicode="&#x2014;" horiz-adv-x="2048" d="M254 543l27 133h1552l-25 -133h-1554z" />
<glyph unicode="&#x2018;" horiz-adv-x="471" d="M252 1086q-36 78 23 192q67 129 237 252l57 -68q-203 -172 -139 -286q28 -47 0 -97.5t-86 -50.5q-65 0 -92 58z" />
<glyph unicode="&#x2019;" horiz-adv-x="471" d="M193 1083q203 172 139 287q-27 50 0.5 99t85.5 49q65 0 92 -58q36 -78 -23 -192q-68 -130 -237 -252z" />
<glyph unicode="&#x201a;" horiz-adv-x="471" d="M-57 -231q202 172 139 288q-15 33 -11 65.5t31 56.5t66 24q65 0 92 -58q36 -78 -24 -193q-67 -129 -236 -251z" />
<glyph unicode="&#x201c;" horiz-adv-x="827" d="M252 1086q-36 78 23 192q67 129 237 252l57 -68q-203 -172 -139 -286q27 -50 -0.5 -99t-85.5 -49q-65 0 -92 58zM615 1086q-36 78 23 193q67 129 236 251l58 -68q-203 -172 -139 -286q27 -50 0 -99t-86 -49q-65 0 -92 58z" />
<glyph unicode="&#x201d;" horiz-adv-x="827" d="M193 1083q203 172 139 287q-27 50 0.5 99t85.5 49q65 0 92 -58q36 -78 -23 -192q-68 -130 -237 -252zM553 1083q205 172 141 287q-27 50 -0.5 99t84.5 49q65 0 93 -58q36 -78 -23 -192q-67 -129 -238 -252z" />
<glyph unicode="&#x201e;" horiz-adv-x="827" d="M-57 -231q202 172 139 288q-15 33 -11 65.5t31 56.5t66 24q65 0 92 -58q36 -78 -24 -193q-67 -129 -236 -251zM305 -231q205 172 139 288q-27 48 0.5 97t85.5 49q65 0 92 -58q36 -78 -23 -192q-67 -129 -237 -252z" />
<glyph unicode="&#x2022;" horiz-adv-x="858" d="M221 598q0 99 68.5 167.5t161.5 68.5q92 0 155.5 -64t63.5 -152q0 -98 -68 -166.5t-162 -68.5q-92 0 -155.5 63.5t-63.5 151.5z" />
<glyph unicode="&#x202f;" horiz-adv-x="372" />
<glyph unicode="&#x2039;" horiz-adv-x="628" d="M137 612l305 349l105 -72l-256 -287l155 -287l-118 -67z" />
<glyph unicode="&#x203a;" horiz-adv-x="628" d="M125 319l256 285l-156 289l121 68l189 -365l-306 -348z" />
<glyph unicode="&#x205f;" horiz-adv-x="465" />
<glyph unicode="&#x20ac;" horiz-adv-x="1177" d="M37 481l20 99h181q8 92 34 198h-178l21 101h186q40 113 99.5 205t141.5 164.5t193.5 112.5t241.5 40q157 0 293 -47l-56 -279h-90q-2 59 9 164q-81 37 -209 37q-165 0 -281.5 -109t-181.5 -288h479l-18 -101h-490q-24 -99 -33 -198h482l-17 -99h-467q3 -181 74.5 -275.5 t245.5 -94.5q175 0 323 63l15 -123q-167 -69 -393 -69q-122 0 -206.5 33t-133.5 100t-70.5 155.5t-22.5 210.5h-192z" />
<glyph unicode="&#x2122;" horiz-adv-x="1652" d="M219 1155l43 227h529l-43 -227h-74q-2 30 4 135h-109l-77 -405q62 -6 110 -23l-12 -69h-348l12 69q61 17 119 23l76 405h-109q-22 -82 -45 -135h-76zM707 793l14 71q66 14 92 17l145 413q-42 5 -90 19l13 69h262l33 -346l4 -98l34 88l177 356h270l-14 -69 q-45 -12 -99 -19l-10 -413q51 -7 86 -17l-16 -71h-289l14 69q41 13 86 19l8 254l7 108l-43 -92l-177 -358h-124l-37 362l-6 88l-21 -72l-100 -290q40 -5 82 -19l-15 -69h-286z" />
<glyph unicode="&#x25fc;" horiz-adv-x="1075" d="M0 0v1075h1075v-1075h-1075z" />
</font>
</defs>
</svg>
