<?xml version="1.0" standalone="no"?>
<!DOCTYPE svg PUBLIC "-//W3C//DTD SVG 1.1//EN" "http://www.w3.org/Graphics/SVG/1.1/DTD/svg11.dtd" >
<svg xmlns="http://www.w3.org/2000/svg">
<metadata></metadata>
<defs>
<font id="theserifhp8_extrabold" horiz-adv-x="1126" >
<font-face units-per-em="2048" ascent="1516" descent="-532" />
<missing-glyph horiz-adv-x="446" />
<glyph unicode="&#x2e;&#x2e;&#x2e;" horiz-adv-x="1560" d="M90 160q0 75 54 128.5t130 53.5q75 0 130 -53.5t55 -128.5q0 -76 -55 -130.5t-130 -54.5q-76 0 -130 54t-54 131zM592 160q0 75 54.5 128.5t129.5 53.5q76 0 130.5 -53.5t54.5 -128.5q0 -76 -54.5 -130.5t-130.5 -54.5q-75 0 -129.5 54.5t-54.5 130.5zM1096 160 q0 75 54 128.5t130 53.5q75 0 129.5 -53.5t54.5 -128.5q0 -76 -54.5 -130.5t-129.5 -54.5q-76 0 -130 54t-54 131z" />
<glyph unicode="&#xfb01;" horiz-adv-x="1431" d="M35 778v240h192v31q0 464 578 464q194 0 360 -38l-55 -258q-149 38 -291 38q-153 0 -216.5 -49.5t-63.5 -148.5v-39h694v-791q76 -5 164 -24v-203h-611v203q83 19 136 24v551h-383v-551q58 -5 135 -24v-203h-625v203q100 19 178 24v551h-192z" />
<glyph unicode="&#xfb02;" horiz-adv-x="1431" d="M35 778v240h192v53q0 229 138.5 335.5t459.5 106.5q205 0 408 -34v-1252q75 -5 164 -24v-203h-611v203q83 19 136 24v1024q-82 11 -142 11q-127 0 -184 -49t-57 -146v-49h215v-240h-215v-551q58 -5 135 -24v-203h-625v203q100 19 178 24v551h-192z" />
<glyph unicode="&#xfb03;" horiz-adv-x="2121" d="M35 778v240h192v31q0 226 122.5 339t391.5 113q216 0 400 -57q129 69 354 69q194 0 360 -38l-55 -258q-145 38 -291 38q-153 0 -215.5 -49.5t-62.5 -148.5v-39h692v-791q76 -5 164 -24v-203h-610v203q84 19 135 24v551h-381v-551q51 -5 135 -24v-203h-584v203 q83 19 138 24v551h-381v-551q58 -5 135 -24v-203h-625v203q100 19 178 24v551h-192zM539 1018h381v35q0 101 24 159q-81 31 -182 31q-117 0 -170 -41.5t-53 -138.5v-45z" />
<glyph unicode="&#xfb04;" horiz-adv-x="2121" d="M35 778v240h192v31q0 226 122.5 339t391.5 113q210 0 398 -55q131 67 379 67q205 0 405 -34v-1252q76 -5 164 -24v-203h-610v203q84 19 135 24v1024q-72 11 -142 11q-127 0 -183 -49t-56 -146v-49h215v-240h-215v-551q51 -5 135 -24v-203h-584v203q83 19 138 24v551h-381 v-551q58 -5 135 -24v-203h-625v203q100 19 178 24v551h-192zM539 1018h381v53q0 88 20 143q-82 29 -178 29q-117 0 -170 -41.5t-53 -138.5v-45z" />
<glyph horiz-adv-x="0" />
<glyph horiz-adv-x="0" />
<glyph horiz-adv-x="682" />
<glyph unicode="&#xd;" horiz-adv-x="1024" />
<glyph unicode=" "  horiz-adv-x="446" />
<glyph unicode="&#x09;" horiz-adv-x="446" />
<glyph unicode="&#xa0;" horiz-adv-x="446" />
<glyph unicode="!" horiz-adv-x="661" d="M160 152q0 75 53 126.5t131 51.5t131 -51.5t53 -126.5q0 -74 -53 -125.5t-131 -51.5t-131 51.5t-53 125.5zM164 1456h366l-45 -1044h-272z" />
<glyph unicode="&#x22;" horiz-adv-x="880" d="M78 1442h309l-37 -553h-233zM494 1442h309l-37 -553h-234z" />
<glyph unicode="#" horiz-adv-x="1439" d="M51 342v229h273l28 260h-241v232h266l31 319h272l-33 -319h219l33 319h272l-32 -319h250v-232h-275l-29 -260h242v-229h-264l-37 -342h-272l37 342h-220l-36 -342h-271l35 342h-248zM596 571h217l29 260h-219z" />
<glyph unicode="$" horiz-adv-x="1103" d="M68 993q0 95 45.5 183t135.5 150.5t206 74.5l2 221h221l-2 -217q130 -7 287 -39v-369h-238q-15 84 -20 144q-65 20 -115 20q-88 0 -136 -35t-48 -104q0 -41 35 -74.5t91 -60t123.5 -53.5t135 -63t123.5 -80.5t91 -113.5t35 -155q0 -90 -34.5 -168.5t-93 -133.5 t-132.5 -90.5t-155 -45.5l-2 -293h-222l5 286q-169 3 -308 39v404h240q12 -74 18 -144q82 -20 148 -20q91 0 137.5 32.5t46.5 106.5q0 41 -34 73.5t-89 57.5t-121 50.5t-132 60.5t-121 80t-89 116t-34 160z" />
<glyph unicode="%" horiz-adv-x="1701" d="M66 1063q0 169 104.5 271t251.5 102q155 0 250.5 -86t95.5 -260q0 -114 -51 -202t-133 -132.5t-178 -44.5q-157 0 -248.5 92.5t-91.5 259.5zM221 104l1008 1336l225 -162l-1005 -1335zM324 1073q0 -83 23.5 -116t66.5 -33t70.5 39.5t27.5 111.5q0 83 -23 115.5t-71 32.5 q-40 0 -67 -39.5t-27 -110.5zM913 299q0 169 105 271t252 102q156 0 251 -86t95 -260q0 -114 -51.5 -202t-133.5 -132.5t-178 -44.5q-157 0 -248.5 92.5t-91.5 259.5zM1171 309q0 -83 24 -116t69 -33q42 0 69 39.5t27 111.5q0 83 -22.5 115.5t-69.5 32.5q-42 0 -69.5 -39.5 t-27.5 -110.5z" />
<glyph unicode="&#x26;" horiz-adv-x="1697" d="M86 387q0 121 62.5 220t179.5 192q-87 103 -125.5 186t-38.5 172q0 151 116.5 253.5t319.5 102.5q187 0 288 -84t101 -231q0 -107 -58 -202t-179 -191q150 -140 319 -266v-2q59 84 76 194q-29 3 -94 17v206h551v-206q-94 -17 -140 -21q-39 -206 -155 -360l196 -142 q61 -6 117 -18v-207h-338q-122 84 -199 143q-230 -170 -524 -170q-98 0 -178 22.5t-134.5 61t-91.5 91.5t-54 112.5t-17 126.5zM410 424q0 -73 55 -127.5t147 -54.5q130 0 242 73q-180 143 -340 295q-104 -95 -104 -186zM473 1174q0 -84 94 -191q115 97 115 195 q0 45 -26 74.5t-76 29.5q-46 0 -76.5 -30.5t-30.5 -77.5z" />
<glyph unicode="'" horiz-adv-x="464" d="M78 1442h309l-37 -553h-233z" />
<glyph unicode="(" horiz-adv-x="630" d="M82 584q0 557 307 1036l232 -104q-230 -416 -230 -922q0 -513 236 -936l-240 -104q-305 479 -305 1030z" />
<glyph unicode=")" horiz-adv-x="630" d="M8 1513l240 107q301 -480 301 -1032q0 -559 -307 -1034l-232 102q232 415 232 922q0 510 -234 935z" />
<glyph unicode="*" horiz-adv-x="800" d="M53 1083l207 74l-207 76l109 186l168 -141l-41 217h219l-39 -217l168 141l108 -186l-206 -76l206 -74l-110 -188l-166 141l39 -215h-219l39 215l-168 -139z" />
<glyph unicode="+" d="M76 479v262h338v359h299v-359h338v-262h-338v-362h-299v362h-338z" />
<glyph unicode="," horiz-adv-x="567" d="M59 -266q105 115 122 189t-42 138q-32 37 -38 88t12 95.5t63 76t107 31.5q97 0 152 -83q65 -97 30 -244q-49 -207 -275 -401q-2 -1 -4 -3z" />
<glyph unicode="-" horiz-adv-x="690" d="M86 430v250h516v-250h-516z" />
<glyph unicode="." horiz-adv-x="567" d="M90 168q0 79 57.5 136.5t135.5 57.5q79 0 136.5 -57t57.5 -137q0 -79 -57 -136t-137 -57q-78 0 -135.5 57t-57.5 136z" />
<glyph unicode="/" horiz-adv-x="983" d="M-41 -330l719 1880h309l-717 -1880h-311z" />
<glyph unicode="0" horiz-adv-x="1249" d="M72 524q0 129 45.5 237.5t124 180t182 111t219.5 39.5q120 0 214 -31t153.5 -82.5t98 -123.5t54 -148t15.5 -162q0 -134 -46.5 -243.5t-126 -180.5t-182 -109.5t-217.5 -38.5q-88 0 -164.5 17t-145.5 58t-118 103t-77.5 157t-28.5 216zM383 532q0 -135 60.5 -212.5 t179.5 -77.5q104 0 173.5 77t69.5 216q0 133 -61 210.5t-176 77.5q-103 0 -174.5 -77.5t-71.5 -213.5z" />
<glyph unicode="1" horiz-adv-x="786" d="M18 950l322 121h238v-844q73 -5 167 -24v-203h-696v203q113 19 211 24v559l-194 -81z" />
<glyph unicode="2" horiz-adv-x="985" d="M68 0v254l170 129q158 110 222 189t64 143q0 59 -33.5 93t-99.5 34q-46 0 -92 -17q-2 -34 -16 -131h-199v332q158 66 356 66q204 0 318 -90.5t114 -243.5q0 -220 -256 -406l-108 -82v-4q119 8 399 8v-274h-839z" />
<glyph unicode="3" horiz-adv-x="950" d="M57 -350l25 276q88 -30 205 -30q118 0 185 46t67 134q0 104 -109 140t-301 13v250q202 0 297.5 55.5t95.5 155.5q0 66 -36 105t-103 39q-37 0 -84 -15q-3 -57 -18 -127h-199v336q164 64 332 64q218 0 328 -97.5t110 -257.5q0 -104 -60 -188t-163 -129v-4 q124 -30 189 -114t65 -200q0 -100 -40.5 -186.5t-115.5 -151.5t-190 -102t-256 -37q-121 0 -224 25z" />
<glyph unicode="4" horiz-adv-x="1161" d="M27 252l497 813h396v-784h196v-281h-196v-143q67 -5 163 -25v-192h-653v192q108 20 178 25v143h-532zM326 276q85 5 288 5v483h-2z" />
<glyph unicode="5" horiz-adv-x="964" d="M72 -362l28 276q75 -14 166 -14q140 0 215.5 55.5t75.5 142.5q0 89 -77 139t-224 50q-65 0 -143 -8v786h727v-307l-434 4v-225q232 0 364.5 -107t132.5 -291q0 -147 -87 -266t-235.5 -184.5t-328.5 -65.5q-84 0 -180 15z" />
<glyph unicode="6" horiz-adv-x="1189" d="M86 561q0 406 208 639.5t564 233.5q55 0 133 -4v-277q-98 12 -151 12q-153 0 -256 -73.5t-148 -210.5l-16 -56l2 -2q44 44 115.5 69.5t156.5 25.5q199 0 314.5 -119.5t115.5 -321.5q0 -222 -150.5 -363t-389.5 -141q-229 0 -363.5 152.5t-134.5 435.5zM434 463 q0 -98 46 -158.5t132 -60.5q88 0 136.5 55.5t48.5 146.5q0 98 -47.5 150.5t-131.5 52.5q-87 0 -135.5 -54t-48.5 -132z" />
<glyph unicode="7" horiz-adv-x="970" d="M41 633v432h887v-262q-244 -588 -365 -1163h-346q124 546 367 1153q-49 -2 -271 -2q-7 -89 -22 -158h-250z" />
<glyph unicode="8" horiz-adv-x="1146" d="M72 354q0 65 20 121t57.5 100t72 73t81.5 61l-2 2q-213 127 -213 336q0 183 138.5 293t355.5 110t344 -95.5t127 -258.5q0 -105 -55.5 -185t-166.5 -157q244 -143 244 -359q0 -133 -72 -230t-189.5 -144.5t-264.5 -47.5q-220 0 -348.5 103.5t-128.5 277.5zM401 387 q0 -68 47 -109.5t125 -41.5q76 0 123 40t47 103t-49 111t-141 94h-2q-150 -93 -150 -197zM416 1061q0 -53 42 -95t128 -89h2q73 50 108 93t35 97t-41.5 90.5t-116.5 36.5q-73 0 -115 -37t-42 -96z" />
<glyph unicode="9" horiz-adv-x="1189" d="M63 582q0 223 148.5 366.5t380.5 143.5q113 0 205 -35.5t161 -107t106.5 -187.5t37.5 -268q0 -197 -47 -355t-140.5 -273.5t-242.5 -178t-344 -62.5q-81 0 -158 15v282q84 -24 174 -24q153 0 253.5 70t141.5 206q3 10 8.5 33.5t8.5 32.5h-2q-40 -42 -114.5 -67.5 t-160.5 -25.5q-190 0 -303 120t-113 315zM391 625q0 -203 178 -203q85 0 133 55.5t48 140.5q0 92 -45.5 148.5t-131.5 56.5q-82 0 -132 -56t-50 -142z" />
<glyph unicode=":" horiz-adv-x="626" d="M139 168q0 79 57.5 136.5t137.5 57.5q78 0 135 -57.5t57 -136.5t-57 -136t-135 -57q-80 0 -137.5 57t-57.5 136zM139 735q0 78 58 135.5t137 57.5q78 0 135 -57.5t57 -135.5q0 -79 -57 -136.5t-135 -57.5q-80 0 -137.5 57.5t-57.5 136.5z" />
<glyph unicode=";" horiz-adv-x="626" d="M109 -266q106 114 122.5 189t-41.5 138q-33 37 -39 88t12 95.5t63 76t106 31.5q98 0 153 -83q65 -97 30 -244q-49 -207 -275 -401q-2 -1 -4 -3zM139 735q0 78 58 135.5t137 57.5q78 0 135 -57.5t57 -135.5q0 -79 -57 -136.5t-135 -57.5q-80 0 -137.5 57.5t-57.5 136.5z " />
<glyph unicode="&#x3c;" d="M119 612l653 619l207 -207l-459 -410l461 -407l-205 -213z" />
<glyph unicode="=" d="M106 274v250h914v-250h-914zM106 692v250h914v-250h-914z" />
<glyph unicode="&#x3e;" d="M145 1020l205 211l658 -619l-654 -618l-207 207l459 409z" />
<glyph unicode="?" horiz-adv-x="931" d="M115 1194l39 283q144 -2 262.5 -27t198 -66t134 -96t79 -116t24.5 -128q0 -62 -17 -114.5t-43.5 -89t-60 -71.5t-66 -61t-62 -58.5t-48 -63.5t-23 -76.5t12.5 -97.5h-305q-27 83 -26.5 142t23 109t55.5 85t71.5 69.5t71.5 61.5t55 62t22 71q0 85 -103 131t-294 51z M213 152q0 75 53 126.5t131 51.5t131.5 -51.5t53.5 -126.5q0 -74 -53.5 -125.5t-131.5 -51.5t-131 51.5t-53 125.5z" />
<glyph unicode="@" horiz-adv-x="1976" d="M156 573q0 201 70.5 376t192.5 298t290 193.5t358 70.5q177 0 317.5 -50t230.5 -138.5t137.5 -207.5t47.5 -259q0 -285 -141 -437.5t-373 -152.5q-100 0 -154.5 49t-56.5 131h-8q-41 -74 -114 -127t-160 -53q-100 0 -156.5 77t-56.5 230q0 115 29.5 212t87.5 172 t153.5 117t218.5 42q143 0 250 -47l-66 -387q-17 -97 -1.5 -135.5t69.5 -38.5q90 0 145.5 80.5t55.5 253.5q0 85 -25.5 157.5t-78.5 133t-146.5 95t-218.5 34.5q-128 0 -240.5 -47.5t-195.5 -132.5t-131 -209.5t-48 -270.5q0 -510 549 -510q170 0 365 64l47 -240 q-102 -37 -226 -57.5t-225 -20.5q-386 0 -589 195.5t-203 539.5zM813 618q0 -62 11.5 -88t39.5 -26q51 0 102 80t83 239l14 78q-25 10 -70 10q-54 0 -97 -48t-63 -113.5t-20 -131.5z" />
<glyph unicode="A" horiz-adv-x="1435" d="M18 0v203q50 15 101 18l385 1161h418l397 -1161q52 -3 98 -18v-203h-579v203q7 1 56.5 9.5t74.5 10.5l-45 142h-447l-45 -142q19 -2 42.5 -5.5t51 -8t41.5 -6.5v-203h-549zM551 612h301l-86 262q-37 111 -64 230h-4q-18 -88 -59 -232z" />
<glyph unicode="B" horiz-adv-x="1294" d="M39 0v203q100 19 178 24v928q-70 5 -178 25v202h170q53 0 229 4.5t267 4.5q227 0 351 -89t124 -260q0 -100 -46.5 -180t-134.5 -119v-6q105 -27 168.5 -113.5t63.5 -191.5q0 -86 -33 -162t-98.5 -138.5t-178 -99t-259.5 -36.5q-16 0 -160 2t-285 2h-178zM537 262 q44 -6 129 -6q105 0 163 46t58 126q0 78 -65 120t-177 42q-83 0 -108 -2v-326zM537 827q27 -2 96 -2q111 0 160 43t49 125q0 68 -47 105t-142 37q-19 0 -116 -5v-303z" />
<glyph unicode="C" horiz-adv-x="1167" d="M66 643q0 228 80 397t239 264t381 95q135 0 317 -35v-436h-249q-12 71 -23 164q-55 10 -100 10q-129 0 -210 -108.5t-81 -299.5q0 -204 86 -313t282 -109q152 0 269 54l41 -285q-180 -61 -383 -61q-323 0 -486 175t-163 488z" />
<glyph unicode="D" horiz-adv-x="1445" d="M39 0v203q100 19 178 24v928q-70 5 -178 25v202h170q48 0 213 4.5t266 4.5q692 0 692 -672q0 -348 -204 -538.5t-549 -190.5q-83 0 -237 5t-173 5h-178zM537 272q54 -8 118 -8q173 0 278 108.5t105 321.5q0 102 -17.5 177t-58.5 133.5t-114.5 88t-179.5 29.5 q-96 0 -131 -4v-846z" />
<glyph unicode="E" horiz-adv-x="1105" d="M39 0v203q100 19 178 24v928q-70 5 -178 25v202h975v-368h-242q-11 61 -18 119h-217v-312h178q6 46 18 94h207v-415h-207q-12 46 -18 96h-178v-340h219q4 49 18 129h246v-385h-981z" />
<glyph unicode="F" horiz-adv-x="1064" d="M39 0v203q100 19 178 24v928q-70 5 -178 25v202h971v-374h-242q-12 54 -18 118h-213v-325h182q11 63 20 96h207v-432h-207q-9 33 -20 96h-182v-334q78 -5 178 -24v-203h-676z" />
<glyph unicode="G" horiz-adv-x="1394" d="M66 657q0 339 210 542.5t568 203.5q188 0 395 -49v-402h-252q-17 90 -22 154q-60 14 -136 14q-196 0 -307.5 -116t-111.5 -322q0 -195 101 -305.5t292 -110.5q72 0 131 19v225q-89 6 -172 27v200h594v-207q-74 -13 -103 -16v-446q-223 -91 -487 -91q-335 0 -517.5 181 t-182.5 499z" />
<glyph unicode="H" horiz-adv-x="1579" d="M39 0v203q100 19 178 24v928q-70 5 -178 25v202h637v-206q-60 -14 -139 -21v-303h507v303q-80 7 -141 21v206h637v-202q-108 -20 -178 -25v-928q78 -5 178 -24v-203h-637v207q54 13 141 20v348h-507v-348q86 -8 139 -20v-207h-637z" />
<glyph unicode="I" horiz-adv-x="753" d="M39 0v203q100 19 178 24v928q-70 5 -178 25v202h676v-202q-108 -20 -178 -25v-928q78 -5 178 -24v-203h-676z" />
<glyph unicode="J" horiz-adv-x="757" d="M25 -4v270q52 -18 116 -18q70 0 104 37.5t34 128.5v741q-71 5 -179 25v202h619v-206q-85 -18 -121 -21v-752q0 -70 -11.5 -130t-40 -115t-72.5 -93.5t-112.5 -61.5t-156.5 -23q-102 0 -180 16z" />
<glyph unicode="K" horiz-adv-x="1464" d="M39 0v203q100 19 178 24v928q-70 5 -178 25v202h620v-206q-57 -15 -122 -21v-416l356 422q-34 3 -86 15v206h592v-204q-51 -11 -117 -19l-389 -438l420 -498q77 -9 117 -18v-205h-621v207q5 1 86 14l-358 455v-449q71 -7 122 -20v-207h-620z" />
<glyph unicode="L" horiz-adv-x="1064" d="M39 0v203q100 19 178 24v928q-70 5 -178 25v202h676v-202q-108 -20 -178 -25v-891h227q7 94 37 187h233v-451h-995z" />
<glyph unicode="M" horiz-adv-x="1976" d="M31 0v203q54 15 104 18l148 934q-54 4 -168 25v202h608l195 -596q45 -143 75 -309h4q31 171 76 309l191 596h600v-202q-111 -21 -172 -25l149 -934q51 -3 105 -18v-203h-564v203q112 18 131 20l-61 473q-22 159 -31 336h-4q-36 -210 -63 -303l-226 -729h-299l-219 717 q-39 125 -71 315h-2q-6 -179 -27 -342l-59 -467q9 -1 127 -20v-203h-547z" />
<glyph unicode="N" horiz-adv-x="1585" d="M39 0v203q100 19 178 24v928q-70 5 -178 25v202h610l340 -630q73 -140 150 -340q-21 280 -21 743q-69 6 -127 21v206h555v-206q-87 -18 -121 -21v-1155h-430l-342 631q-81 150 -151 350q22 -232 22 -754q84 -7 138 -20v-207h-623z" />
<glyph unicode="O" horiz-adv-x="1437" d="M57 668q0 167 54 307.5t147.5 235t218.5 146.5t266 52q314 0 475.5 -183t161.5 -511q0 -167 -54 -308t-147.5 -235t-218.5 -146.5t-266 -52.5q-313 0 -475 183.5t-162 511.5zM395 700q0 -207 81 -321.5t241 -114.5q148 0 236.5 109.5t88.5 308.5q0 208 -80 322t-241 114 q-146 0 -236 -110t-90 -308z" />
<glyph unicode="P" horiz-adv-x="1222" d="M39 0v203q100 19 178 24v928q-70 5 -178 25v202h178q19 0 171 5.5t247 5.5q273 0 414 -118.5t141 -334.5q0 -224 -150.5 -367t-423.5 -143q-50 0 -79 4v-207q78 -5 178 -24v-203h-676zM537 700q46 -8 96 -8q106 0 167.5 57.5t61.5 157.5q0 101 -57 162t-184 61 q-61 0 -84 -2v-428z" />
<glyph unicode="Q" horiz-adv-x="1437" d="M57 668q0 167 54 307.5t147.5 235t218.5 146.5t266 52q314 0 475.5 -183t161.5 -511q0 -194 -69 -340t-185 -213q36 -1 89.5 -13.5t92.5 -18.5q16 -2 39 -2q35 0 87 5v-268q-86 -11 -146 -11q-20 0 -38 1q-69 5 -134 24t-110.5 40t-111.5 37.5t-136 16.5h-64 q-313 0 -475 183.5t-162 511.5zM395 700q0 -207 81 -321.5t241 -114.5q148 0 236.5 109.5t88.5 308.5q0 208 -80 322t-241 114q-146 0 -236 -110t-90 -308z" />
<glyph unicode="R" horiz-adv-x="1312" d="M39 0v203q100 19 178 24v928q-70 5 -178 25v202h162q11 0 191.5 5.5t277.5 5.5q258 0 393 -98.5t135 -313.5q0 -126 -70.5 -220.5t-197.5 -137.5q37 -51 57 -86l174 -310l113 -18v-209h-373l-283 545h-81v-318q62 -7 108 -20v-207h-606zM537 778h106q103 0 161 49t58 138 q0 176 -217 176q-68 0 -108 -4v-359z" />
<glyph unicode="S" horiz-adv-x="1036" d="M63 975q0 197 143.5 314.5t395.5 117.5q149 0 307 -31v-379h-250q-9 50 -18 148q-28 8 -61 8q-85 0 -131 -39.5t-46 -99.5q0 -45 32 -79t83 -57.5t112.5 -46t123 -53.5t112.5 -71.5t83 -108.5t32 -156q0 -205 -151.5 -336t-403.5 -131q-175 0 -330 35v396h250 q2 -11 21 -156q40 -8 92 -8q85 0 133.5 37.5t48.5 111.5q0 48 -32 82t-83 56t-112.5 43t-123 51t-112.5 71.5t-83 113t-32 167.5z" />
<glyph unicode="T" horiz-adv-x="1236" d="M33 963v419h1171v-419h-239q-19 103 -23 157h-164v-893q78 -5 178 -24v-203h-675v203q100 19 178 24v893h-164q-4 -54 -23 -157h-239z" />
<glyph unicode="U" horiz-adv-x="1449" d="M39 1176v206h577v-206q-64 -14 -137 -21v-649q0 -138 54 -208.5t194 -70.5q135 0 192.5 68t57.5 229v631q-73 7 -137 21v206h571v-206q-87 -18 -119 -21v-620q0 -278 -150 -420t-433 -142q-128 0 -225.5 27.5t-158 73.5t-98.5 113.5t-52.5 139.5t-14.5 160v668 q-34 3 -121 21z" />
<glyph unicode="V" horiz-adv-x="1388" d="M18 1176v206h574v-202q-9 -1 -59.5 -10t-75.5 -11l170 -532q40 -120 75 -262h3q24 117 75 280l168 514q-24 2 -71 10.5t-60 10.5v202h553v-206q-63 -13 -98 -15l-391 -1161h-373l-393 1161q-35 2 -97 15z" />
<glyph unicode="W" horiz-adv-x="1992" d="M18 1176v206h557v-202q-12 -2 -59 -10.5t-72 -10.5l103 -504q31 -153 43 -305h2q34 199 61 301l193 731h315l209 -739q43 -146 66 -293h2q14 181 30 301l86 508q-24 2 -67 10.5t-57 10.5v202h544v-206q-63 -13 -96 -15l-236 -1161h-415l-183 641q-40 149 -61 315h-2 q-17 -178 -49 -315l-164 -641h-418l-235 1161q-35 2 -97 15z" />
<glyph unicode="X" horiz-adv-x="1480" d="M20 0v205q62 13 119 16l389 479l-374 461q-48 3 -117 17v204h637v-206q-69 -13 -92 -15l184 -260l192 260q-23 2 -92 15v206h576v-204q-55 -11 -119 -19l-369 -459l392 -479q56 -3 114 -16v-205h-643v207q61 12 90 14l-196 279l-203 -279q32 -2 92 -14v-207h-580z" />
<glyph unicode="Y" horiz-adv-x="1275" d="M18 1176v206h553v-206q-43 -11 -100 -17l98 -215q58 -129 80 -190h2q32 95 78 192l98 213q-61 7 -104 17v206h534v-206q-63 -13 -96 -15l-366 -700v-234q78 -5 178 -24v-203h-676v203q100 19 178 24v232l-360 702q-37 3 -97 15z" />
<glyph unicode="Z" horiz-adv-x="1112" d="M80 0v250l498 766q61 91 73 104q-37 -2 -153 -2h-142q-8 -83 -22 -139h-246v403h942v-260l-526 -774q-25 -43 -51 -80q27 4 170 4h153q7 75 27 152h237v-424h-960z" />
<glyph unicode="[" horiz-adv-x="677" d="M127 -426v2025h481v-249h-188v-1524h188v-252h-481z" />
<glyph unicode="\" horiz-adv-x="1032" d="M8 1550h311l717 -1880h-311z" />
<glyph unicode="]" horiz-adv-x="677" d="M72 -174h186v1524h-186v249h481v-2025h-481v252z" />
<glyph unicode="^" d="M100 788l334 594h236l348 -589l-221 -111l-250 481l-240 -481z" />
<glyph unicode="_" d="M0 -248h1126v-252h-1126v252z" />
<glyph unicode="`" horiz-adv-x="772" d="M156 1348l135 208l385 -253l-109 -170z" />
<glyph unicode="a" horiz-adv-x="1122" d="M53 260q0 94 43.5 165.5t122.5 115.5t181 66t227 24v49q0 69 -36 102t-124 33q-55 0 -121 -20q-8 -67 -18 -115h-199v311q190 53 356 53q106 0 184 -16t130 -45t83.5 -74.5t44.5 -100.5t13 -128v-442q96 -16 164 -21v-203q-174 -18 -336 -18q-58 0 -115 2q0 86 11 156h-2 q-37 -80 -122 -128.5t-190 -48.5q-142 0 -219.5 78t-77.5 205zM348 305q0 -41 27.5 -67.5t73.5 -26.5q77 0 127.5 59t50.5 136v30q-140 0 -209.5 -30t-69.5 -101z" />
<glyph unicode="b" horiz-adv-x="1148" d="M-45 1278v201q188 20 371 20q56 0 112 -2v-403q0 -118 -16 -203l4 -2q36 70 111.5 110.5t175.5 40.5q182 0 277 -126t95 -351q0 -169 -63 -300t-192 -208.5t-308 -77.5q-204 0 -395 52v1228q-98 16 -172 21zM438 240q47 -13 107 -13q98 0 155.5 72t57.5 233 q0 127 -35 187.5t-107 60.5q-78 0 -128 -80.5t-50 -203.5v-256z" />
<glyph unicode="c" horiz-adv-x="915" d="M61 477q0 119 32 219t96.5 178t171.5 122t247 44q129 0 238 -34v-349h-201q-13 68 -18 115q-24 6 -60 6q-81 0 -131.5 -70t-50.5 -192q0 -135 59 -200.5t193 -65.5q97 0 192 39l37 -264q-149 -48 -299 -48q-247 0 -376.5 127.5t-129.5 372.5z" />
<glyph unicode="d" horiz-adv-x="1204" d="M61 453q0 168 63 299.5t188.5 208.5t295.5 77q54 0 103 -6v225q-93 15 -179 21v201q183 20 367 21q61 0 123 -3v-1259q92 -15 162 -21v-201q-167 -20 -336 -20q-56 0 -113 2q0 83 10 147h-4q-44 -78 -122 -124t-187 -46q-181 0 -276 127.5t-95 350.5zM391 485 q0 -127 34.5 -188t106.5 -61q78 0 128.5 82.5t50.5 209.5v250q-57 13 -107 13q-98 0 -155.5 -72.5t-57.5 -233.5z" />
<glyph unicode="e" horiz-adv-x="1062" d="M61 498q0 236 134.5 389t363.5 153q111 0 196 -33.5t136 -94t76.5 -139t25.5 -173.5q0 -96 -12 -172h-604q2 -103 61.5 -156t190.5 -53q148 0 299 60l30 -234q-185 -68 -380 -68q-517 0 -517 521zM377 635h309v12q0 77 -36 120q-38 46 -107 46q-67 0 -112.5 -49 t-53.5 -129z" />
<glyph unicode="f" horiz-adv-x="788" d="M35 778v240h192v88q0 205 103.5 306t322.5 101q93 0 174 -16l-18 -254q-74 19 -123 19q-147 0 -147 -154v-90h215v-240h-215v-551q78 -5 178 -24v-203h-668v203q100 19 178 24v551h-192z" />
<glyph unicode="g" horiz-adv-x="1122" d="M61 -205q0 70 44 138t104 100q-45 22 -71.5 63t-26.5 94q0 61 35.5 114t89.5 75q-71 38 -112.5 108.5t-41.5 165.5q0 166 121 277.5t342 111.5q80 0 178 -24h346v-246h-117q29 -32 29 -90q0 -170 -112.5 -267.5t-327.5 -97.5q-22 0 -62 7q-17 -8 -27 -23.5t-10 -28.5 q0 -31 27.5 -40.5t118.5 -12.5l137 -6q350 -13 350 -303q0 -172 -158.5 -295t-412.5 -123q-213 0 -328 76.5t-115 226.5zM367 -145q0 -58 48.5 -92.5t133.5 -34.5q105 0 162 39.5t57 101.5q0 46 -31 74.5t-98 31.5l-162 5q-29 0 -39 2q-71 -58 -71 -127zM381 674 q0 -69 39.5 -107.5t114.5 -38.5q70 0 110.5 38t40.5 104q0 68 -39.5 107.5t-114.5 39.5q-71 0 -111 -39.5t-40 -103.5z" />
<glyph unicode="h" horiz-adv-x="1282" d="M10 1278v201q178 20 361 20q61 0 123 -2v-410q0 -123 -19 -208h2q46 75 128.5 118t193.5 43q82 0 142.5 -25t94.5 -71t50 -102t16 -125v-490q75 -6 160 -24v-203h-474v647q0 66 -20.5 98.5t-73.5 32.5q-81 0 -140.5 -86t-59.5 -200v-265q86 -8 139 -20v-207h-613v203 q94 19 160 24v1030q-95 16 -170 21z" />
<glyph unicode="i" horiz-adv-x="718" d="M47 0v203q100 19 178 24v553q-94 15 -178 21v200q194 21 380 21q55 0 110 -2v-793q75 -5 163 -24v-203h-653zM190 1321q0 75 56.5 129.5t134.5 54.5t134 -54t56 -130t-56 -130t-134 -54t-134.5 54t-56.5 130z" />
<glyph unicode="j" horiz-adv-x="614" d="M-82 -483l19 264q55 -19 110 -19q70 0 102.5 35.5t32.5 116.5v866q-98 16 -164 21v200q187 21 369 21q54 0 107 -2v-1071q0 -217 -103 -333t-332 -116q-58 0 -141 17zM145 1321q0 75 56.5 129.5t134.5 54.5t134 -54t56 -130t-56 -130t-134 -54t-134.5 54t-56.5 130z" />
<glyph unicode="k" horiz-adv-x="1261" d="M10 1278v201q178 20 361 20q61 0 123 -2v-938l192 238q-60 7 -80 14v207h590v-207q-70 -15 -129 -18l-223 -246l243 -320q78 -8 136 -20v-207h-369l-360 506v-279q71 -7 110 -20v-207h-584v203q87 18 160 24v1030q-95 16 -170 21z" />
<glyph unicode="l" horiz-adv-x="673" d="M10 1278v201q188 20 372 20q56 0 112 -2v-1270q69 -5 159 -24v-203h-633v203q88 19 160 24v1030q-95 16 -170 21z" />
<glyph unicode="m" horiz-adv-x="1935" d="M47 0v203q100 19 178 24v553q-94 15 -178 21v200q191 21 363 21q55 0 108 -2q0 -82 -12 -164h2q46 85 132.5 134.5t193.5 49.5q112 0 182 -50t96 -134q43 80 127 132t195 52q305 0 305 -344v-469q75 -5 164 -24v-203h-476v637q0 71 -20.5 106t-71.5 35q-74 0 -136 -84.5 t-62 -204.5v-262q85 -8 141 -20v-207h-451v639q0 68 -19.5 103.5t-72.5 35.5q-76 0 -137 -85.5t-61 -203.5v-262q83 -7 141 -20v-207h-631z" />
<glyph unicode="n" horiz-adv-x="1325" d="M47 0v203q100 19 178 24v553q-94 15 -178 21v200q191 21 362 21q55 0 107 -2q0 -88 -12 -162l2 -2q50 84 136 134t202 50q82 0 142 -25t94 -71t49.5 -102t15.5 -125v-490q72 -5 162 -24v-203h-473v647q0 65 -21.5 98t-73.5 33q-82 0 -142 -86t-60 -198v-267 q83 -7 141 -20v-207h-631z" />
<glyph unicode="o" horiz-adv-x="1142" d="M59 483q0 248 151 402.5t386 154.5t362 -127.5t127 -377.5q0 -248 -151.5 -403t-384.5 -155t-361.5 123t-128.5 383zM383 514q0 -136 45 -201t141 -65q88 0 140.5 68.5t52.5 191.5q0 135 -45.5 200.5t-141.5 65.5q-81 0 -136.5 -65.5t-55.5 -194.5z" />
<glyph unicode="p" horiz-adv-x="1204" d="M20 -285q102 23 162 27v1038q-103 17 -162 21v200q187 21 354 21q49 0 97 -2q0 -63 -10 -148h4q90 168 307 168q179 0 275 -125.5t96 -349.5q0 -269 -138.5 -425t-406.5 -156q-60 0 -104 8v-250q83 -5 178 -27v-200h-652v200zM494 240q50 -13 106 -13q98 0 155.5 72 t57.5 233q0 128 -34.5 189t-106.5 61q-78 0 -128 -82.5t-50 -210.5v-249z" />
<glyph unicode="q" horiz-adv-x="1144" d="M63 451q0 126 36.5 233t106.5 186.5t179 124.5t246 45q189 0 393 -32v-1266q80 -5 158 -27v-200h-650v200q95 21 179 27v188q0 112 14 207l-4 2q-38 -77 -112 -120.5t-167 -43.5q-185 0 -282 121.5t-97 354.5zM391 485q0 -127 34 -188t105 -61q80 0 130.5 83.5 t50.5 215.5v245q-57 11 -107 11q-98 0 -155.5 -72.5t-57.5 -233.5z" />
<glyph unicode="r" horiz-adv-x="864" d="M47 0v203q100 19 178 24v553q-94 15 -178 21v200q191 21 362 21q55 0 107 -2q0 -72 -14 -182h2q93 205 302 205q12 0 25 -1l-14 -309q-39 8 -73 8q-88 0 -138 -55q-68 -76 -69 -266v-193q78 -5 178 -24v-203h-668z" />
<glyph unicode="s" horiz-adv-x="903" d="M55 702q0 148 119 243t338 95q125 0 285 -32v-301h-201q-15 49 -18 112q-54 8 -80 8q-63 0 -96 -25t-33 -65q0 -29 26.5 -51.5t68.5 -38.5t93 -32t102.5 -38t93.5 -51t68.5 -77.5t26.5 -110.5q0 -159 -130.5 -260t-346.5 -101q-153 0 -285 33v314h203q5 -28 14 -115 q45 -10 90 -10q63 0 101 26t38 70q0 29 -26.5 51t-68.5 37t-92.5 30t-101.5 37t-93 52t-68.5 81.5t-26.5 118.5z" />
<glyph unicode="t" horiz-adv-x="772" d="M16 778v240h154v301l313 84v-385h219v-240h-219v-401q0 -78 23 -108.5t82 -30.5q45 0 106 14l19 -244q-121 -31 -232 -31q-177 0 -244 70.5t-67 257.5v473h-154z" />
<glyph unicode="u" horiz-adv-x="1280" d="M20 801v203q173 18 352 18q60 0 120 -2v-649q0 -65 21 -98t73 -33q82 0 142 86t60 198v258q-116 17 -141 19v205q160 17 324 17q64 0 129 -3v-782q97 -16 160 -21v-203q-171 -18 -332 -18q-58 0 -115 2q0 96 10 162l-4 2q-50 -84 -136 -134.5t-202 -50.5q-82 0 -142 25.5 t-94 71t-49.5 102t-15.5 125.5v479q-97 16 -160 21z" />
<glyph unicode="v" horiz-adv-x="1165" d="M18 811v207h508v-207q-44 -9 -86 -12l74 -213q44 -126 76 -264h4q24 124 68 264l71 213q-39 3 -84 12v207h498v-207q-33 -9 -98 -16l-265 -795h-403l-264 795q-66 8 -99 16z" />
<glyph unicode="w" horiz-adv-x="1724" d="M18 811v207h500v-207q-39 -9 -78 -12l52 -189q53 -208 59 -237h4q18 113 72 284l112 361h275l110 -361q45 -160 74 -284h4q8 43 51 217l62 209q-41 3 -78 12v207h469v-207q-32 -8 -96 -16l-240 -795h-344l-111 354q-32 103 -59 244h-2q-26 -126 -68 -256l-100 -342h-338 l-233 795q-66 8 -97 16z" />
<glyph unicode="x" horiz-adv-x="1105" d="M20 0v207q76 16 144 22l182 287l-170 272q-60 5 -143 23v207h381l149 -301l150 301h360v-207q-85 -18 -143 -23l-158 -272l172 -287q68 -6 143 -22v-207h-401l-147 307l-148 -307h-371z" />
<glyph unicode="y" horiz-adv-x="1165" d="M18 811v207h506v-207q-45 -9 -82 -12l68 -195q43 -126 80 -282h4q32 150 80 299l59 178q-37 3 -82 12v207h496v-207q-32 -8 -96 -16l-299 -897q-39 -116 -85 -194t-105.5 -124.5t-129 -66t-162.5 -19.5q-73 0 -170 19l17 266q89 -25 153 -25q118 0 172 158l29 88h-92 l-264 795q-73 9 -97 16z" />
<glyph unicode="z" horiz-adv-x="948" d="M70 0v231l442 562q-73 -5 -137 -5h-76q-2 -18 -16 -110h-209v340h788v-234l-430 -540q33 2 135 2h84q7 61 17 110h209v-356h-807z" />
<glyph unicode="{" horiz-adv-x="770" d="M53 520v234q101 3 149 48.5t48 172.5v135q0 257 95 373t312 116h48v-249q-67 0 -100 -18t-48.5 -68t-15.5 -152v-135q0 -169 -50 -247t-139 -91v-4q189 -28 189 -348v-219q0 -103 15.5 -154t48.5 -69.5t100 -18.5v-252h-48q-217 0 -312 115t-95 379v221q0 126 -48.5 176 t-148.5 55z" />
<glyph unicode="|" horiz-adv-x="593" d="M168 -485v2048h248v-2048h-248z" />
<glyph unicode="}" horiz-adv-x="765" d="M68 -174q68 0 101 18.5t47.5 69.5t14.5 154v219q0 320 189 348v4q-189 24 -189 336v137q0 102 -14.5 152t-47.5 68t-101 18v249h49q215 0 310 -116t95 -373v-133q0 -128 48 -174t151 -49v-234q-100 -5 -149.5 -55t-49.5 -176v-221q0 -264 -94.5 -379t-310.5 -115h-49v252 z" />
<glyph unicode="~" d="M70 866v49q0 158 89 252.5t242 94.5q66 0 117 -21.5t80 -52t52 -60.5t47 -51.5t51 -21.5q40 0 58.5 37t18.5 116h232v-47q0 -158 -89.5 -252t-242.5 -94q-66 0 -116.5 21.5t-79.5 51.5t-52 60.5t-46.5 52t-49.5 21.5q-41 0 -59.5 -37t-18.5 -119h-233z" />
<glyph unicode="&#xa1;" horiz-adv-x="661" d="M131 -438l45 1044h270l52 -1044h-367zM131 866q0 74 53 125t131 51t131.5 -51t53.5 -125q0 -75 -53.5 -126.5t-131.5 -51.5t-131 51.5t-53 126.5z" />
<glyph unicode="&#xa2;" horiz-adv-x="1179" d="M117 678q0 81 16 155t53 144t92 124.5t139 93t189 52.5v160h201v-154q54 -1 129 -15t129 -32v-360h-195q-16 89 -18 127q-85 18 -139 18q-126 0 -199.5 -70.5t-73.5 -195.5q0 -297 314 -297q137 0 303 57l18 -264q-120 -48 -268 -59v-197h-201v193q-489 50 -489 520z" />
<glyph unicode="&#xa3;" horiz-adv-x="1046" d="M59 586v241h154q-2 17 -7.5 57t-9 73t-3.5 59q0 203 106.5 298t325.5 95q57 0 136.5 -9.5t131.5 -23.5v-342h-203q-13 65 -18 117q-12 2 -39 2q-58 0 -90.5 -35t-32.5 -108q0 -47 16 -183h258v-241h-233q1 -9 3.5 -34.5t2.5 -39.5q0 -84 -26 -140t-87 -112q93 6 117 6 h141q4 52 23 152h238v-418h-895v225q92 43 136 103.5t44 156.5q0 60 -10 101h-179z" />
<glyph unicode="&#xa4;" d="M66 254l133 168q-62 97 -62 244q0 144 72 245l-143 185l241 170l144 -193q65 19 133 19q58 0 110 -15l137 191l240 -174l-133 -172q51 -88 51 -232q0 -135 -69 -241l151 -195l-242 -174l-151 205q-67 -23 -135 -23q-46 0 -94 10l-140 -190zM406 676q0 -87 39 -138 t116 -51q67 0 113.5 48t46.5 149q0 92 -38.5 137t-119.5 45q-65 0 -111 -49.5t-46 -140.5z" />
<glyph unicode="&#xa5;" horiz-adv-x="1269" d="M25 1176v206h540v-206q-38 -9 -106 -17l88 -170q55 -95 90 -168h4q33 66 100 180l86 158q-62 6 -106 17v206h524v-206q-63 -13 -96 -15l-260 -446h221v-166h-319v-103h319v-170h-319v-71q70 -5 178 -25v-180h-672v180q108 20 178 25v71h-319v170h319v103h-319v166h221 l-254 446q-38 3 -98 15z" />
<glyph unicode="&#xa6;" horiz-adv-x="593" d="M168 289h248v-774h-248v774zM168 809v754h248v-754h-248z" />
<glyph unicode="&#xa7;" horiz-adv-x="1097" d="M104 649q0 91 42 170t114 129q-76 92 -76 213q0 73 26 134t80 111t147 78.5t218 28.5q105 0 176 -14l-14 -260q-71 21 -147 21q-150 0 -150 -93q0 -31 25 -64.5t64.5 -66t88 -69.5t96.5 -82.5t87.5 -96.5t64.5 -120t25 -146q0 -90 -43 -170t-113 -131q76 -94 76 -215 q0 -53 -16.5 -102t-55.5 -95t-96.5 -80t-146 -54.5t-197.5 -20.5q-88 0 -176 20l20 260q70 -22 158 -22q86 0 129 29t43 73q0 34 -25 67.5t-64.5 65t-87.5 66.5t-95.5 78.5t-87 93t-64.5 118t-25 146.5zM385 688q0 -71 52 -131.5t204 -183.5q51 42 51 106q0 35 -11 65 t-38.5 62t-51 54t-74 65.5t-81.5 71.5q-51 -42 -51 -109z" />
<glyph unicode="&#xa8;" horiz-adv-x="1118" d="M164 1321q0 66 48 114t114 48q67 0 114 -48t47 -114q0 -68 -47 -115t-114 -47q-66 0 -114 47.5t-48 114.5zM592 1321q0 66 48 114t114 48q67 0 114 -48t47 -114q0 -68 -47 -115t-114 -47q-66 0 -114 47.5t-48 114.5z" />
<glyph unicode="&#xa9;" horiz-adv-x="1566" d="M74 682q0 143 54.5 273.5t148 226.5t225.5 152.5t280 56.5q213 0 375 -91.5t248 -252t86 -365.5q0 -159 -55 -293t-150.5 -224.5t-225.5 -141t-278 -50.5q-325 0 -516.5 190t-191.5 519zM305 682q0 -218 131.5 -348.5t345.5 -130.5q206 0 342 134.5t136 344.5 q0 214 -132 345.5t-346 131.5q-202 0 -339.5 -136.5t-137.5 -340.5zM436 666q0 79 22 146t66 121t119 85t174 31q79 0 168 -21v-262h-154l-14 84q-10 2 -33 2q-106 0 -106 -162q0 -91 36.5 -129.5t121.5 -38.5q79 0 135 25l30 -191q-92 -34 -210 -34q-181 0 -268 91t-87 253 z" />
<glyph unicode="&#xaa;" horiz-adv-x="905" d="M66 831q0 137 116.5 204.5t309.5 72.5v29q0 42 -25.5 63t-93.5 21q-38 0 -80 -11q-4 -45 -12 -80h-160v234q139 41 272 41q195 0 272.5 -67t77.5 -203v-285q125 -14 134 -14v-181q-155 -18 -365 -14q0 55 8 104h-4q-25 -52 -87.5 -85t-137.5 -33q-111 0 -168 55.5 t-57 148.5zM106 311v242h713v-242h-713zM299 864q0 -25 18.5 -41t51.5 -16q55 0 89 40.5t34 86.5v22q-96 0 -144.5 -20t-48.5 -72z" />
<glyph unicode="&#xab;" d="M70 598l219 420l243 -105l-165 -315l170 -311l-254 -107zM549 598l242 408l235 -107l-180 -301l186 -295l-248 -110z" />
<glyph unicode="&#xac;" d="M76 479v262h936v-557h-279v295h-657z" />
<glyph unicode="&#xad;" horiz-adv-x="690" d="M86 430v250h516v-250h-516z" />
<glyph unicode="&#xae;" horiz-adv-x="1157" d="M80 1090q0 135 66.5 247t181 176t250.5 64q212 0 354.5 -140.5t142.5 -346.5q0 -138 -67 -250.5t-180.5 -176t-249.5 -63.5q-208 0 -353 142t-145 348zM262 1100q0 -153 91.5 -240.5t224.5 -87.5q134 0 224.5 82.5t90.5 232.5q0 142 -87 230t-228 88q-147 0 -231.5 -89 t-84.5 -216zM385 866v84q7 3 17 5.5t17 4.5t9 3v256q-2 1 -9 2.5t-17.5 3.5t-16.5 4v86h51q12 0 69.5 2t84.5 2q88 0 136 -33.5t48 -101.5q0 -40 -18.5 -73t-50.5 -48q6 -9 18 -33l27 -67q3 -1 15.5 -5t18.5 -6v-86h-145l-53 160h-31v-63q22 -4 35 -11v-86h-205zM555 1126 q3 0 11.5 -1t11.5 -1q28 0 42.5 13t14.5 34q0 39 -49 39q-25 0 -31 -2v-82z" />
<glyph unicode="&#xaf;" horiz-adv-x="808" d="M117 1204v226h575v-226h-575z" />
<glyph unicode="&#xb0;" horiz-adv-x="811" d="M72 1210q0 137 100.5 220t230.5 83q162 0 242 -84t80 -215q0 -144 -99.5 -225.5t-238.5 -81.5q-147 0 -231 81t-84 222zM299 1212q0 -52 27 -81t73 -29q45 0 72 32.5t27 82.5q0 42 -26 74t-71 32t-73.5 -31t-28.5 -80z" />
<glyph unicode="&#xb1;" d="M76 723v258h338v356h299v-356h338v-258h-338v-356h-299v356h-338zM86 0v260h954v-260h-954z" />
<glyph unicode="&#xb2;" horiz-adv-x="827" d="M57 553v225l162 115q120 80 163.5 126t43.5 89q0 76 -90 76q-25 0 -68 -13q-3 -47 -16 -110h-186v295q145 53 327 53q180 0 265 -66.5t85 -187.5q0 -166 -170 -283l-110 -77q63 4 301 4v-246h-707z" />
<glyph unicode="&#xb3;" horiz-adv-x="780" d="M55 547l25 203q129 -25 209 -25q147 0 147 72q0 25 -12 39.5t-46 25t-102.5 9t-175.5 -14.5v186q100 0 165 7t99.5 21.5t47 32t12.5 44.5q0 29 -22.5 47t-65.5 18q-6 0 -66 -6q-3 -47 -16 -90h-186v256q148 37 309 37q174 0 258 -60t84 -163q0 -133 -121 -189 q68 -15 107.5 -65.5t39.5 -116.5q0 -130 -119 -209.5t-323 -79.5q-109 0 -248 21z" />
<glyph unicode="&#xb4;" horiz-adv-x="811" d="M170 1303l387 253l135 -208l-411 -215z" />
<glyph unicode="&#xb5;" horiz-adv-x="1269" d="M25 801v203q232 24 475 16v-653q0 -65 22.5 -96t71.5 -31q89 0 146 80.5t57 209.5v252q-114 17 -142 19v205q222 23 453 14v-643q0 -75 14 -103.5t52 -33.5h28l23 -242q-65 -21 -154 -21q-209 0 -229 177l-2 2q-37 -79 -104 -124.5t-161 -45.5q-64 0 -104 32l35 -503 h-318v1265q-97 16 -163 21z" />
<glyph unicode="&#xb6;" horiz-adv-x="1228" d="M96 915q0 215 141 341t367 126v-933q-130 0 -229.5 37t-159.5 102.5t-89.5 148t-29.5 178.5zM629 55h137v1327h387v-252h-127v-1327h-397v252z" />
<glyph unicode="&#xb7;" horiz-adv-x="598" d="M104 610q0 80 58 137.5t137 57.5t137 -57.5t58 -137.5q0 -79 -57.5 -136.5t-137.5 -57.5t-137.5 57.5t-57.5 136.5z" />
<glyph unicode="&#xb8;" horiz-adv-x="819" d="M252 -479q49 58 67.5 106.5t6.5 102.5t-60 116l254 74q52 -74 62 -146t-16 -134t-85 -119h-229z" />
<glyph unicode="&#xb9;" horiz-adv-x="722" d="M31 1305l237 86h260v-627q47 -4 154 -25v-186h-633v186q97 20 178 25v371l-151 -66z" />
<glyph unicode="&#xba;" horiz-adv-x="917" d="M68 1004q0 124 56 217t147.5 139.5t203.5 46.5q176 0 275.5 -94t99.5 -289q0 -181 -117.5 -291t-294.5 -110q-78 0 -143 21t-117 64.5t-81 119t-29 176.5zM109 311v242h700v-242h-700zM330 1016q0 -80 30.5 -131t94.5 -51q58 0 96.5 43.5t38.5 138.5q0 178 -131 178 q-52 0 -90.5 -43.5t-38.5 -134.5z" />
<glyph unicode="&#xbb;" d="M96 897l246 109l238 -404l-242 -409l-238 108l181 301zM590 911l256 107l213 -416l-219 -422l-246 105l166 317z" />
<glyph unicode="&#xbc;" horiz-adv-x="1607" d="M76 1317l188 69h232v-538q22 -2 118 -23v-139h-508v139q87 19 140 23v346l-129 -49zM141 -6l1180 1479l149 -117l-1179 -1477zM854 340l244 356h323v-352h117v-168h-117v-45l101 -25v-106h-459v106q53 15 111 27v43h-293zM1049 344h131v199z" />
<glyph unicode="&#xbd;" horiz-adv-x="1687" d="M76 1317l188 69h232v-538q22 -2 118 -23v-139h-508v139q87 19 140 23v346l-129 -49zM137 -6l1180 1479l149 -117l-1179 -1477zM963 0v203l157 104q102 60 138 90t36 68q0 32 -18.5 49.5t-50.5 17.5q-27 0 -60 -10l-22 -90h-164l10 238q145 49 299 49q153 0 226 -53 t73 -144q0 -81 -40 -134.5t-115 -102.5l-127 -88h290v-197h-632z" />
<glyph unicode="&#xbe;" horiz-adv-x="1607" d="M98 682l23 166q84 -23 153 -23t105.5 18.5t36.5 51.5q0 34 -47.5 45.5t-147.5 5.5l-82 -6v156h37q72 0 120 7.5t71 22t31 29t8 33.5q0 61 -82 61q-12 0 -48 -6q-3 -34 -16 -74h-147v205q134 31 252 31q286 0 286 -182q0 -110 -106 -162q60 -13 91.5 -55t31.5 -99 q0 -111 -101.5 -176t-285.5 -65q-85 0 -183 16zM141 -6l1180 1479l149 -117l-1179 -1477zM854 340l244 356h323v-352h117v-168h-117v-45l101 -25v-106h-459v106q53 15 111 27v43h-293zM1049 344h131v199z" />
<glyph unicode="&#xbf;" horiz-adv-x="931" d="M78 -27q0 55 13.5 103t35.5 82.5t50.5 67.5t58.5 57t58.5 52t51.5 53.5t37.5 59.5t16 70.5t-12.5 87.5h305q27 -83 26.5 -142t-23 -109t-55.5 -85t-71.5 -69.5t-71.5 -61.5t-55 -62t-22 -71q0 -85 102.5 -131t292.5 -51l-37 -283q-179 3 -317.5 40t-220 98t-122 135.5 t-40.5 158.5zM350 866q0 74 53.5 125t131.5 51t131 -51t53 -125q0 -75 -53 -126.5t-131 -51.5t-131.5 51.5t-53.5 126.5z" />
<glyph unicode="&#xc0;" horiz-adv-x="1435" d="M18 0v203q50 15 101 18l385 1161h418l397 -1161q52 -3 98 -18v-203h-579v203q7 1 56.5 9.5t74.5 10.5l-45 142h-447l-45 -142q19 -2 42.5 -5.5t51 -8t41.5 -6.5v-203h-549zM393 1559l66 217l459 -154l-50 -168zM551 612h301l-86 262q-37 111 -64 230h-4q-18 -88 -59 -232 z" />
<glyph unicode="&#xc1;" horiz-adv-x="1435" d="M18 0v203q50 15 101 18l385 1161h418l397 -1161q52 -3 98 -18v-203h-579v203q7 1 56.5 9.5t74.5 10.5l-45 142h-447l-45 -142q19 -2 42.5 -5.5t51 -8t41.5 -6.5v-203h-549zM522 1622l459 154l66 -217l-478 -105zM551 612h301l-86 262q-37 111 -64 230h-4 q-18 -88 -59 -232z" />
<glyph unicode="&#xc2;" horiz-adv-x="1435" d="M18 0v203q50 15 101 18l385 1161h418l397 -1161q52 -3 98 -18v-203h-579v203q7 1 56.5 9.5t74.5 10.5l-45 142h-447l-45 -142q19 -2 42.5 -5.5t51 -8t41.5 -6.5v-203h-549zM365 1606l348 176l350 -168l-70 -160l-288 107l-275 -107zM551 612h301l-86 262q-37 111 -64 230 h-4q-18 -88 -59 -232z" />
<glyph unicode="&#xc3;" horiz-adv-x="1435" d="M18 0v203q50 15 101 18l385 1161h418l397 -1161q52 -3 98 -18v-203h-579v203q7 1 56.5 9.5t74.5 10.5l-45 142h-447l-45 -142q19 -2 42.5 -5.5t51 -8t41.5 -6.5v-203h-549zM307 1589q102 180 275 180q48 0 88.5 -14t64 -31t51 -31t52.5 -14q63 0 110 84l154 -102 q-105 -180 -275 -180q-48 0 -89 14t-64 31t-50.5 31t-52.5 14q-65 0 -112 -84zM551 612h301l-86 262q-37 111 -64 230h-4q-18 -88 -59 -232z" />
<glyph unicode="&#xc4;" horiz-adv-x="1435" d="M18 0v203q50 15 101 18l385 1161h418l397 -1161q52 -3 98 -18v-203h-579v203q7 1 56.5 9.5t74.5 10.5l-45 142h-447l-45 -142q19 -2 42.5 -5.5t51 -8t41.5 -6.5v-203h-549zM326 1614q0 64 45 108.5t110 44.5t110.5 -44.5t45.5 -108.5t-45.5 -110t-110.5 -46 q-64 0 -109.5 45.5t-45.5 110.5zM551 612h301l-86 262q-37 111 -64 230h-4q-18 -88 -59 -232zM770 1614q0 64 45.5 108.5t110.5 44.5t110 -44.5t45 -108.5q0 -65 -45.5 -110.5t-109.5 -45.5t-110 46t-46 110z" />
<glyph unicode="&#xc5;" horiz-adv-x="1435" d="M18 0v203q50 15 101 18l385 1161h418l397 -1161q52 -3 98 -18v-203h-579v203q7 1 56.5 9.5t74.5 10.5l-45 142h-447l-45 -142q19 -2 42.5 -5.5t51 -8t41.5 -6.5v-203h-549zM444 1692q0 103 74 172t180 69q107 0 180.5 -68t73.5 -171t-74.5 -173.5t-179.5 -70.5 q-107 0 -180.5 68.5t-73.5 173.5zM551 612h301l-86 262q-37 111 -64 230h-4q-18 -88 -59 -232zM606 1692q0 -39 27 -67t65 -28t66.5 28.5t28.5 66.5t-28.5 66t-66.5 28t-65 -28t-27 -66z" />
<glyph unicode="&#xc6;" horiz-adv-x="1685" d="M-61 0v203q46 15 98 18l477 934q-70 5 -178 25v202h1251v-368h-241q-14 75 -19 119h-215v-312h178q5 38 19 94h207v-415h-207q-14 54 -19 96h-178v-340h221q2 25 9.5 68t9.5 61h245v-385h-938v207q72 14 136 20v121h-381l-62 -125q41 -5 107 -20v-203h-520zM530 596h265 v532h-11q-121 -275 -137 -307z" />
<glyph unicode="&#xc7;" horiz-adv-x="1181" d="M66 643q0 228 80 397t239 264t381 95q135 0 317 -35v-436h-249q-12 71 -23 164q-55 10 -100 10q-129 0 -210 -108.5t-81 -299.5q0 -204 86 -313t282 -109q152 0 269 54l41 -285q-180 -61 -383 -61q-323 0 -486 175t-163 488zM500 -479q49 58 67.5 106.5t6.5 102.5 t-60 116l254 74q52 -74 62 -146t-16 -134t-85 -119h-229z" />
<glyph unicode="&#xc8;" horiz-adv-x="1105" d="M39 0v203q100 19 178 24v928q-70 5 -178 25v202h975v-368h-242q-11 61 -18 119h-217v-312h178q6 46 18 94h207v-415h-207q-12 46 -18 96h-178v-340h219q4 49 18 129h246v-385h-981zM213 1559l66 217l458 -154l-49 -168z" />
<glyph unicode="&#xc9;" horiz-adv-x="1105" d="M39 0v203q100 19 178 24v928q-70 5 -178 25v202h975v-368h-242q-11 61 -18 119h-217v-312h178q6 46 18 94h207v-415h-207q-12 46 -18 96h-178v-340h219q4 49 18 129h246v-385h-981zM393 1622l459 154l66 -217l-478 -105z" />
<glyph unicode="&#xca;" horiz-adv-x="1105" d="M39 0v203q100 19 178 24v928q-70 5 -178 25v202h975v-368h-242q-11 61 -18 119h-217v-312h178q6 46 18 94h207v-415h-207q-12 46 -18 96h-178v-340h219q4 49 18 129h246v-385h-981zM213 1606l348 176l350 -168l-69 -160l-289 107l-274 -107z" />
<glyph unicode="&#xcb;" horiz-adv-x="1105" d="M39 0v203q100 19 178 24v928q-70 5 -178 25v202h975v-368h-242q-11 61 -18 119h-217v-312h178q6 46 18 94h207v-415h-207q-12 46 -18 96h-178v-340h219q4 49 18 129h246v-385h-981zM170 1614q0 64 45.5 108.5t110.5 44.5t110 -44.5t45 -108.5q0 -65 -45.5 -110.5 t-109.5 -45.5t-110 46t-46 110zM614 1614q0 64 45.5 108.5t110.5 44.5t110.5 -44.5t45.5 -108.5t-46 -110t-110 -46t-110 46t-46 110z" />
<glyph unicode="&#xcc;" horiz-adv-x="753" d="M39 0v203q100 19 178 24v928q-70 5 -178 25v202h676v-202q-108 -20 -178 -25v-928q78 -5 178 -24v-203h-676zM39 1559l65 217l459 -154l-49 -168z" />
<glyph unicode="&#xcd;" horiz-adv-x="753" d="M39 0v203q100 19 178 24v928q-70 5 -178 25v202h676v-202q-108 -20 -178 -25v-928q78 -5 178 -24v-203h-676zM137 1622l459 154l66 -217l-478 -105z" />
<glyph unicode="&#xce;" horiz-adv-x="753" d="M25 1606l348 176l350 -168l-70 -160l-288 107l-275 -107zM39 0v203q100 19 178 24v928q-70 5 -178 25v202h676v-202q-108 -20 -178 -25v-928q78 -5 178 -24v-203h-676z" />
<glyph unicode="&#xcf;" horiz-adv-x="753" d="M0 1614q0 64 45.5 108.5t110.5 44.5t110 -44.5t45 -108.5q0 -65 -45.5 -110.5t-109.5 -45.5t-110 46t-46 110zM39 0v203q100 19 178 24v928q-70 5 -178 25v202h676v-202q-108 -20 -178 -25v-928q78 -5 178 -24v-203h-676zM444 1614q0 64 45.5 108.5t110.5 44.5 t110.5 -44.5t45.5 -108.5t-46 -110t-110 -46t-110 46t-46 110z" />
<glyph unicode="&#xd0;" horiz-adv-x="1466" d="M59 0v203q100 19 179 24v351h-132v239h132v338q-71 5 -179 25v202h172q48 0 213.5 4.5t266.5 4.5q690 0 690 -672q0 -348 -204 -538.5t-550 -190.5q-73 0 -208.5 5t-200.5 5h-179zM557 272q58 -8 121 -8q173 0 278 108.5t105 321.5q0 102 -17.5 177t-59 133.5t-115 88 t-179.5 29.5q-96 0 -133 -4v-301h221v-239h-221v-306z" />
<glyph unicode="&#xd1;" horiz-adv-x="1585" d="M39 0v203q100 19 178 24v928q-70 5 -178 25v202h610l340 -630q73 -140 150 -340q-21 280 -21 743q-69 6 -127 21v206h555v-206q-87 -18 -121 -21v-1155h-430l-342 631q-81 150 -151 350q22 -232 22 -754q84 -7 138 -20v-207h-623zM412 1589q102 180 274 180 q48 0 88.5 -14t64 -31t51 -31t52.5 -14q64 0 111 84l153 -102q-105 -180 -274 -180q-48 0 -89 14t-64 31t-50.5 31t-52.5 14q-66 0 -113 -84z" />
<glyph unicode="&#xd2;" horiz-adv-x="1437" d="M57 668q0 167 54 307.5t147.5 235t218.5 146.5t266 52q314 0 475.5 -183t161.5 -511q0 -167 -54 -308t-147.5 -235t-218.5 -146.5t-266 -52.5q-313 0 -475 183.5t-162 511.5zM395 700q0 -207 81 -321.5t241 -114.5q148 0 236.5 109.5t88.5 308.5q0 208 -80 322t-241 114 q-146 0 -236 -110t-90 -308zM395 1559l66 217l459 -154l-50 -168z" />
<glyph unicode="&#xd3;" horiz-adv-x="1437" d="M57 668q0 167 54 307.5t147.5 235t218.5 146.5t266 52q314 0 475.5 -183t161.5 -511q0 -167 -54 -308t-147.5 -235t-218.5 -146.5t-266 -52.5q-313 0 -475 183.5t-162 511.5zM395 700q0 -207 81 -321.5t241 -114.5q148 0 236.5 109.5t88.5 308.5q0 208 -80 322t-241 114 q-146 0 -236 -110t-90 -308zM549 1622l459 154l65 -217l-477 -105z" />
<glyph unicode="&#xd4;" horiz-adv-x="1437" d="M57 668q0 167 54 307.5t147.5 235t218.5 146.5t266 52q314 0 475.5 -183t161.5 -511q0 -167 -54 -308t-147.5 -235t-218.5 -146.5t-266 -52.5q-313 0 -475 183.5t-162 511.5zM389 1606l348 176l350 -168l-69 -160l-289 107l-274 -107zM395 700q0 -207 81 -321.5 t241 -114.5q148 0 236.5 109.5t88.5 308.5q0 208 -80 322t-241 114q-146 0 -236 -110t-90 -308z" />
<glyph unicode="&#xd5;" horiz-adv-x="1437" d="M57 668q0 167 54 307.5t147.5 235t218.5 146.5t266 52q314 0 475.5 -183t161.5 -511q0 -167 -54 -308t-147.5 -235t-218.5 -146.5t-266 -52.5q-313 0 -475 183.5t-162 511.5zM332 1589q102 180 274 180q48 0 88.5 -14t64 -31t51 -31t52.5 -14q64 0 111 84l153 -102 q-105 -180 -274 -180q-48 0 -89 14t-64 31t-50.5 31t-52.5 14q-66 0 -113 -84zM395 700q0 -207 81 -321.5t241 -114.5q148 0 236.5 109.5t88.5 308.5q0 208 -80 322t-241 114q-146 0 -236 -110t-90 -308z" />
<glyph unicode="&#xd6;" horiz-adv-x="1437" d="M57 668q0 167 54 307.5t147.5 235t218.5 146.5t266 52q314 0 475.5 -183t161.5 -511q0 -167 -54 -308t-147.5 -235t-218.5 -146.5t-266 -52.5q-313 0 -475 183.5t-162 511.5zM358 1614q0 64 45.5 108.5t110.5 44.5t110.5 -44.5t45.5 -108.5t-46 -110t-110 -46t-110 46 t-46 110zM395 700q0 -207 81 -321.5t241 -114.5q148 0 236.5 109.5t88.5 308.5q0 208 -80 322t-241 114q-146 0 -236 -110t-90 -308zM803 1614q0 64 45 108.5t110 44.5t110.5 -44.5t45.5 -108.5t-46 -110t-110 -46t-109.5 45.5t-45.5 110.5z" />
<glyph unicode="&#xd7;" d="M84 301l297 297l-297 297l192 192l297 -296l297 296l172 -172l-299 -294l299 -299l-192 -193l-299 299l-295 -299z" />
<glyph unicode="&#xd8;" horiz-adv-x="1437" d="M57 674q0 165 54 304.5t147.5 233t218.5 145.5t266 52q82 0 164 -16l97 204l219 -98l-93 -199q250 -168 250 -587q0 -167 -53.5 -307t-146 -234t-218 -146.5t-268.5 -52.5q-79 0 -180 19l-94 -203l-219 100l94 201q-238 170 -238 584zM383 700q0 -170 63 -309l332 733h-2 q-42 6 -57 6q-67 0 -126 -26t-107 -76.5t-75.5 -135t-27.5 -192.5zM645 262q40 -8 68 -8q64 0 122.5 23.5t109 73t80.5 137.5t30 204q0 200 -72 318z" />
<glyph unicode="&#xd9;" horiz-adv-x="1449" d="M39 1176v206h577v-206q-64 -14 -137 -21v-649q0 -138 54 -208.5t194 -70.5q135 0 192.5 68t57.5 229v631q-73 7 -137 21v206h571v-206q-87 -18 -119 -21v-620q0 -278 -150 -420t-433 -142q-128 0 -225.5 27.5t-158 73.5t-98.5 113.5t-52.5 139.5t-14.5 160v668 q-34 3 -121 21zM326 1559l65 217l459 -154l-49 -168z" />
<glyph unicode="&#xda;" horiz-adv-x="1449" d="M39 1176v206h577v-206q-64 -14 -137 -21v-649q0 -138 54 -208.5t194 -70.5q135 0 192.5 68t57.5 229v631q-73 7 -137 21v206h571v-206q-87 -18 -119 -21v-620q0 -278 -150 -420t-433 -142q-128 0 -225.5 27.5t-158 73.5t-98.5 113.5t-52.5 139.5t-14.5 160v668 q-34 3 -121 21zM586 1622l458 154l66 -217l-477 -105z" />
<glyph unicode="&#xdb;" horiz-adv-x="1449" d="M39 1176v206h577v-206q-64 -14 -137 -21v-649q0 -138 54 -208.5t194 -70.5q135 0 192.5 68t57.5 229v631q-73 7 -137 21v206h571v-206q-87 -18 -119 -21v-620q0 -278 -150 -420t-433 -142q-128 0 -225.5 27.5t-158 73.5t-98.5 113.5t-52.5 139.5t-14.5 160v668 q-34 3 -121 21zM373 1606l348 176l350 -168l-70 -160l-288 107l-275 -107z" />
<glyph unicode="&#xdc;" horiz-adv-x="1449" d="M39 1176v206h577v-206q-64 -14 -137 -21v-649q0 -138 54 -208.5t194 -70.5q135 0 192.5 68t57.5 229v631q-73 7 -137 21v206h571v-206q-87 -18 -119 -21v-620q0 -278 -150 -420t-433 -142q-128 0 -225.5 27.5t-158 73.5t-98.5 113.5t-52.5 139.5t-14.5 160v668 q-34 3 -121 21zM350 1614q0 64 45.5 108.5t110.5 44.5t110.5 -44.5t45.5 -108.5t-46 -110t-110 -46t-110 46t-46 110zM795 1614q0 64 45 108.5t110 44.5t110.5 -44.5t45.5 -108.5t-46 -110t-110 -46t-109.5 45.5t-45.5 110.5z" />
<glyph unicode="&#xdd;" horiz-adv-x="1275" d="M18 1176v206h553v-206q-43 -11 -100 -17l98 -215q58 -129 80 -190h2q32 95 78 192l98 213q-61 7 -104 17v206h534v-206q-63 -13 -96 -15l-366 -700v-234q78 -5 178 -24v-203h-676v203q100 19 178 24v232l-360 702q-37 3 -97 15zM510 1622l459 154l65 -217l-477 -105z" />
<glyph unicode="&#xde;" horiz-adv-x="1275" d="M39 0v199q100 19 178 24v936q-70 5 -178 25v198h676v-186q-108 -20 -178 -25v-81q85 10 188 10q253 0 382.5 -95t129.5 -278q0 -199 -143.5 -314.5t-380.5 -115.5q-90 0 -176 8v-94q70 -5 178 -25v-186h-676zM537 561q66 -12 131 -12q111 0 166 42t55 114q0 63 -49 104 t-158 41q-79 0 -145 -14v-275z" />
<glyph unicode="&#xdf;" horiz-adv-x="1470" d="M45 807v201q106 12 180 14q4 236 145.5 362.5t391.5 126.5q225 0 346 -94t121 -250q0 -65 -20.5 -113t-49.5 -76t-58.5 -51.5t-50 -53.5t-20.5 -68q0 -29 22.5 -53.5t58.5 -45t79.5 -42.5t87 -51.5t79.5 -65t58.5 -89.5t22.5 -120q0 -150 -113 -250t-321 -100 q-134 0 -267 20v324h205q10 -44 14 -109q24 -8 62 -8q104 0 104 92q0 30 -23 55t-59 44t-80 39t-88.5 47t-80.5 60t-59 86t-23 118q0 56 20 101t48 75t56 57.5t48 64t20 79.5q0 54 -40.5 91.5t-115.5 37.5q-102 0 -155 -65t-53 -210v-758q86 -7 135 -26v-203h-625v203 q89 20 178 26v557q-92 15 -180 21z" />
<glyph unicode="&#xe0;" horiz-adv-x="1118" d="M53 260q0 94 43.5 165.5t122.5 115.5t181 66t227 24v49q0 69 -36 102t-124 33q-55 0 -121 -20q-8 -67 -18 -115h-199v311q190 53 356 53q106 0 184 -16t130 -45t83.5 -74.5t44.5 -100.5t13 -128v-442q96 -16 164 -21v-203q-236 -25 -451 -16q0 86 11 156h-2 q-37 -80 -122 -128.5t-190 -48.5q-142 0 -219.5 78t-77.5 205zM217 1348l135 208l385 -253l-108 -170zM348 305q0 -41 27.5 -67.5t73.5 -26.5q77 0 127.5 59t50.5 136v30q-140 0 -209.5 -30t-69.5 -101z" />
<glyph unicode="&#xe1;" horiz-adv-x="1118" d="M53 260q0 94 43.5 165.5t122.5 115.5t181 66t227 24v49q0 69 -36 102t-124 33q-55 0 -121 -20q-8 -67 -18 -115h-199v311q190 53 356 53q106 0 184 -16t130 -45t83.5 -74.5t44.5 -100.5t13 -128v-442q96 -16 164 -21v-203q-236 -25 -451 -16q0 86 11 156h-2 q-37 -80 -122 -128.5t-190 -48.5q-142 0 -219.5 78t-77.5 205zM336 1303l387 253l135 -208l-412 -215zM348 305q0 -41 27.5 -67.5t73.5 -26.5q77 0 127.5 59t50.5 136v30q-140 0 -209.5 -30t-69.5 -101z" />
<glyph unicode="&#xe2;" horiz-adv-x="1118" d="M53 260q0 94 43.5 165.5t122.5 115.5t181 66t227 24v49q0 69 -36 102t-124 33q-55 0 -121 -20q-8 -67 -18 -115h-199v311q190 53 356 53q106 0 184 -16t130 -45t83.5 -74.5t44.5 -100.5t13 -128v-442q96 -16 164 -21v-203q-236 -25 -451 -16q0 86 11 156h-2 q-37 -80 -122 -128.5t-190 -48.5q-142 0 -219.5 78t-77.5 205zM209 1274l334 282l334 -282l-117 -141l-217 161l-217 -161zM348 305q0 -41 27.5 -67.5t73.5 -26.5q77 0 127.5 59t50.5 136v30q-140 0 -209.5 -30t-69.5 -101z" />
<glyph unicode="&#xe3;" horiz-adv-x="1118" d="M53 260q0 94 43.5 165.5t122.5 115.5t181 66t227 24v49q0 69 -36 102t-124 33q-55 0 -121 -20q-8 -67 -18 -115h-199v311q190 53 356 53q106 0 184 -16t130 -45t83.5 -74.5t44.5 -100.5t13 -128v-442q96 -16 164 -21v-203q-236 -25 -451 -16q0 86 11 156h-2 q-37 -80 -122 -128.5t-190 -48.5q-142 0 -219.5 78t-77.5 205zM166 1286q97 199 264 199q46 0 86 -15.5t62 -34t49 -34t51 -15.5q32 0 57 22t49 69l146 -111q-94 -199 -264 -199q-46 0 -85.5 15.5t-61.5 34t-48.5 34t-50.5 15.5q-34 0 -58.5 -21.5t-50.5 -68.5zM348 305 q0 -41 27.5 -67.5t73.5 -26.5q77 0 127.5 59t50.5 136v30q-140 0 -209.5 -30t-69.5 -101z" />
<glyph unicode="&#xe4;" horiz-adv-x="1118" d="M53 260q0 94 43.5 165.5t122.5 115.5t181 66t227 24v49q0 69 -36 102t-124 33q-55 0 -121 -20q-8 -67 -18 -115h-199v311q190 53 356 53q106 0 184 -16t130 -45t83.5 -74.5t44.5 -100.5t13 -128v-442q96 -16 164 -21v-203q-236 -25 -451 -16q0 86 11 156h-2 q-37 -80 -122 -128.5t-190 -48.5q-142 0 -219.5 78t-77.5 205zM164 1321q0 66 48 114t114 48q67 0 114 -48t47 -114q0 -68 -47 -115t-114 -47q-66 0 -114 47.5t-48 114.5zM348 305q0 -41 27.5 -67.5t73.5 -26.5q77 0 127.5 59t50.5 136v30q-140 0 -209.5 -30t-69.5 -101z M592 1321q0 66 48 114t114 48q67 0 114 -48t47 -114q0 -68 -47 -115t-114 -47q-66 0 -114 47.5t-48 114.5z" />
<glyph unicode="&#xe5;" horiz-adv-x="1118" d="M53 260q0 94 43.5 165.5t122.5 115.5t181 66t227 24v49q0 69 -36 102t-124 33q-55 0 -121 -20q-8 -67 -18 -115h-199v311q190 53 356 53q106 0 184 -16t130 -45t83.5 -74.5t44.5 -100.5t13 -128v-442q96 -16 164 -21v-203q-236 -25 -451 -16q0 86 11 156h-2 q-37 -80 -122 -128.5t-190 -48.5q-142 0 -219.5 78t-77.5 205zM272 1376q0 114 81 190t198 76t197.5 -74t80.5 -188q0 -113 -81 -190.5t-197 -77.5q-117 0 -198 75t-81 189zM348 305q0 -41 27.5 -67.5t73.5 -26.5q77 0 127.5 59t50.5 136v30q-140 0 -209.5 -30t-69.5 -101z M449 1376q0 -43 29.5 -73.5t72.5 -30.5t72.5 30.5t29.5 73.5t-30 74t-72 31t-72 -31t-30 -74z" />
<glyph unicode="&#xe6;" horiz-adv-x="1613" d="M49 260q0 125 77.5 210t204 123t292.5 38v49q0 70 -35 102.5t-121 32.5q-58 0 -125 -18q-1 -21 -16 -117h-201v311q186 51 358 51q235 0 338 -98h2q46 42 121.5 70t161.5 28q113 0 198.5 -34t137.5 -94.5t78 -139.5t26 -174q0 -92 -14 -178h-602q3 -203 252 -203 q156 0 297 62l30 -234q-171 -70 -379 -70q-156 0 -261 50t-150 143h-2q-50 -93 -143 -143t-218 -50q-148 0 -227.5 78t-79.5 205zM344 305q0 -41 28 -67.5t74 -26.5q75 0 126 59.5t51 135.5v30q-140 0 -209.5 -30t-69.5 -101zM928 627h311q4 91 -33 139.5t-110 48.5 t-118 -53t-50 -135z" />
<glyph unicode="&#xe7;" horiz-adv-x="915" d="M61 477q0 119 32 219t96.5 178t171.5 122t247 44q129 0 238 -34v-349h-201q-13 68 -18 115q-24 6 -60 6q-81 0 -131.5 -70t-50.5 -192q0 -135 59 -200.5t193 -65.5q97 0 192 39l37 -264q-149 -48 -299 -48q-247 0 -376.5 127.5t-129.5 372.5zM328 -479q49 58 67.5 106.5 t6.5 102.5t-60 116l254 74q52 -74 62 -146t-16 -134t-85 -119h-229z" />
<glyph unicode="&#xe8;" horiz-adv-x="1062" d="M61 498q0 236 134.5 389t363.5 153q111 0 196 -33.5t136 -94t76.5 -139t25.5 -173.5q0 -96 -12 -172h-604q2 -103 61.5 -156t190.5 -53q148 0 299 60l30 -234q-185 -68 -380 -68q-517 0 -517 521zM217 1348l135 208l385 -253l-108 -170zM377 635h309q3 86 -35.5 132 t-107.5 46q-67 0 -112.5 -49t-53.5 -129z" />
<glyph unicode="&#xe9;" horiz-adv-x="1062" d="M61 498q0 236 134.5 389t363.5 153q111 0 196 -33.5t136 -94t76.5 -139t25.5 -173.5q0 -96 -12 -172h-604q2 -103 61.5 -156t190.5 -53q148 0 299 60l30 -234q-185 -68 -380 -68q-517 0 -517 521zM358 1303l387 253l136 -208l-412 -215zM377 635h309q3 86 -35.5 132 t-107.5 46q-67 0 -112.5 -49t-53.5 -129z" />
<glyph unicode="&#xea;" horiz-adv-x="1062" d="M61 498q0 236 134.5 389t363.5 153q111 0 196 -33.5t136 -94t76.5 -139t25.5 -173.5q0 -96 -12 -172h-604q2 -103 61.5 -156t190.5 -53q148 0 299 60l30 -234q-185 -68 -380 -68q-517 0 -517 521zM215 1274l334 282l334 -282l-117 -141l-217 161l-217 -161zM377 635h309 q3 86 -35.5 132t-107.5 46q-67 0 -112.5 -49t-53.5 -129z" />
<glyph unicode="&#xeb;" horiz-adv-x="1062" d="M61 498q0 236 134.5 389t363.5 153q111 0 196 -33.5t136 -94t76.5 -139t25.5 -173.5q0 -96 -12 -172h-604q2 -103 61.5 -156t190.5 -53q148 0 299 60l30 -234q-185 -68 -380 -68q-517 0 -517 521zM176 1321q0 66 48 114t114 48q67 0 114.5 -48t47.5 -114 q0 -67 -47 -114.5t-115 -47.5q-66 0 -114 47.5t-48 114.5zM377 635h309q3 86 -35.5 132t-107.5 46q-67 0 -112.5 -49t-53.5 -129zM604 1321q0 66 48 114t114 48q67 0 114.5 -48t47.5 -114q0 -67 -47 -114.5t-115 -47.5q-66 0 -114 47.5t-48 114.5z" />
<glyph unicode="&#xec;" horiz-adv-x="718" d="M47 0v203q100 19 178 24v553q-94 15 -178 21v200q251 27 490 19v-793q75 -5 163 -24v-203h-653zM55 1348l135 208l385 -253l-108 -170z" />
<glyph unicode="&#xed;" horiz-adv-x="718" d="M47 0v203q100 19 178 24v553q-94 15 -178 21v200q251 27 490 19v-793q75 -5 163 -24v-203h-653zM88 1303l387 253l135 -208l-411 -215z" />
<glyph unicode="&#xee;" horiz-adv-x="718" d="M39 1274l334 282l334 -282l-117 -141l-217 161l-217 -161zM47 0v203q100 19 178 24v553q-94 15 -178 21v200q251 27 490 19v-793q75 -5 163 -24v-203h-653z" />
<glyph unicode="&#xef;" horiz-adv-x="718" d="M2 1321q0 66 48 114t114 48q67 0 114.5 -48t47.5 -114q0 -67 -47 -114.5t-115 -47.5q-66 0 -114 47.5t-48 114.5zM47 0v203q100 19 178 24v553q-94 15 -178 21v200q251 27 490 19v-793q75 -5 163 -24v-203h-653zM430 1321q0 66 48 114t114 48q67 0 114.5 -48t47.5 -114 q0 -67 -47 -114.5t-115 -47.5q-66 0 -114 47.5t-48 114.5z" />
<glyph unicode="&#xf0;" horiz-adv-x="1146" d="M59 485q0 125 39.5 229t107 173.5t159 108t194.5 38.5q90 0 127 -43q-8 16 -24.5 41.5t-18.5 28.5q-36 58 -94 119l-176 -78l-123 141l156 68q-51 42 -148 106l303 127q86 -66 131 -112l168 71l123 -139l-164 -70q260 -320 260 -716q0 -147 -41 -263t-112.5 -189 t-165.5 -111t-203 -38q-228 0 -363 128t-135 380zM383 512q0 -129 51 -196.5t141 -67.5q86 0 133.5 70t47.5 214q0 114 -47 178t-140 64q-80 0 -133 -67t-53 -195z" />
<glyph unicode="&#xf1;" horiz-adv-x="1325" d="M47 0v203q100 19 178 24v553q-94 15 -178 21v200q253 28 469 19q0 -88 -12 -162l2 -2q50 84 136 134t202 50q82 0 142 -25t94 -71t49.5 -102t15.5 -125v-490q72 -5 162 -24v-203h-473v647q0 65 -21.5 98t-73.5 33q-82 0 -142 -86t-60 -198v-267q83 -7 141 -20v-207h-631z M279 1286q97 199 264 199q46 0 86 -15.5t62 -34t49 -34t51 -15.5q32 0 57 22t49 69l145 -111q-94 -199 -264 -199q-46 0 -85.5 15.5t-61.5 34t-48.5 34t-50.5 15.5q-34 0 -58 -21.5t-50 -68.5z" />
<glyph unicode="&#xf2;" horiz-adv-x="1142" d="M59 483q0 248 151 402.5t386 154.5t362 -127.5t127 -377.5q0 -248 -151.5 -403t-384.5 -155t-361.5 123t-128.5 383zM254 1348l135 208l385 -253l-108 -170zM383 514q0 -136 45 -201t141 -65q88 0 140.5 68.5t52.5 191.5q0 135 -45.5 200.5t-141.5 65.5 q-81 0 -136.5 -65.5t-55.5 -194.5z" />
<glyph unicode="&#xf3;" horiz-adv-x="1142" d="M59 483q0 248 151 402.5t386 154.5t362 -127.5t127 -377.5q0 -248 -151.5 -403t-384.5 -155t-361.5 123t-128.5 383zM377 1303l387 253l135 -208l-412 -215zM383 514q0 -136 45 -201t141 -65q88 0 140.5 68.5t52.5 191.5q0 135 -45.5 200.5t-141.5 65.5 q-81 0 -136.5 -65.5t-55.5 -194.5z" />
<glyph unicode="&#xf4;" horiz-adv-x="1142" d="M59 483q0 248 151 402.5t386 154.5t362 -127.5t127 -377.5q0 -248 -151.5 -403t-384.5 -155t-361.5 123t-128.5 383zM250 1274l334 282l334 -282l-117 -141l-217 161l-217 -161zM383 514q0 -136 45 -201t141 -65q88 0 140.5 68.5t52.5 191.5q0 135 -45.5 200.5 t-141.5 65.5q-81 0 -136.5 -65.5t-55.5 -194.5z" />
<glyph unicode="&#xf5;" horiz-adv-x="1142" d="M59 483q0 248 151 402.5t386 154.5t362 -127.5t127 -377.5q0 -248 -151.5 -403t-384.5 -155t-361.5 123t-128.5 383zM201 1286q97 199 264 199q46 0 86 -15.5t62 -34t49 -34t51 -15.5q32 0 57 22t49 69l146 -111q-94 -199 -265 -199q-46 0 -85.5 15.5t-61 34t-48 34 t-50.5 15.5q-34 0 -58.5 -21.5t-50.5 -68.5zM383 514q0 -136 45 -201t141 -65q88 0 140.5 68.5t52.5 191.5q0 135 -45.5 200.5t-141.5 65.5q-81 0 -136.5 -65.5t-55.5 -194.5z" />
<glyph unicode="&#xf6;" horiz-adv-x="1142" d="M59 483q0 248 151 402.5t386 154.5t362 -127.5t127 -377.5q0 -248 -151.5 -403t-384.5 -155t-361.5 123t-128.5 383zM201 1321q0 66 47.5 114t113.5 48q67 0 114.5 -48t47.5 -114q0 -67 -47 -114.5t-115 -47.5q-66 0 -113.5 47.5t-47.5 114.5zM383 514q0 -136 45 -201 t141 -65q88 0 140.5 68.5t52.5 191.5q0 135 -45.5 200.5t-141.5 65.5q-81 0 -136.5 -65.5t-55.5 -194.5zM629 1321q0 66 48 114t114 48q67 0 114 -48t47 -114q0 -68 -47 -115t-114 -47q-66 0 -114 47.5t-48 114.5z" />
<glyph unicode="&#xf7;" d="M76 479v262h975v-262h-975zM379 199q0 77 53.5 130.5t130.5 53.5q75 0 128.5 -54t53.5 -130q0 -75 -53.5 -130t-128.5 -55q-76 0 -130 55t-54 130zM379 1020q0 75 54 129.5t130 54.5q75 0 128.5 -54.5t53.5 -129.5t-53.5 -129.5t-128.5 -54.5q-76 0 -130 54.5t-54 129.5z " />
<glyph unicode="&#xf8;" horiz-adv-x="1142" d="M59 483q0 248 151 402.5t386 154.5q66 0 152 -14l98 176l162 -78l-97 -174q174 -132 174 -422q0 -244 -152 -397.5t-384 -153.5q-86 0 -170 19l-107 -195l-161 78l106 195q-158 125 -158 409zM352 518q0 -37 3.5 -68.5t10.5 -69.5t7 -40l235 453q-10 2 -30 2 q-97 0 -161.5 -69.5t-64.5 -207.5zM520 231q21 -6 49 -6q104 0 163 75t59 210q0 120 -29 188z" />
<glyph unicode="&#xf9;" horiz-adv-x="1280" d="M20 801v203q231 24 472 16v-649q0 -65 21 -98t73 -33q82 0 142 86t60 198v258q-116 17 -141 19v205q222 23 453 14v-782q97 -16 160 -21v-203q-232 -25 -447 -16q0 96 10 162l-4 2q-50 -84 -136 -134.5t-202 -50.5q-82 0 -142 25.5t-94 71t-49.5 102t-15.5 125.5v479 q-97 16 -160 21zM291 1348l135 208l385 -253l-109 -170z" />
<glyph unicode="&#xfa;" horiz-adv-x="1280" d="M20 801v203q231 24 472 16v-649q0 -65 21 -98t73 -33q82 0 142 86t60 198v258q-116 17 -141 19v205q222 23 453 14v-782q97 -16 160 -21v-203q-232 -25 -447 -16q0 96 10 162l-4 2q-50 -84 -136 -134.5t-202 -50.5q-82 0 -142 25.5t-94 71t-49.5 102t-15.5 125.5v479 q-97 16 -160 21zM459 1303l387 253l135 -208l-412 -215z" />
<glyph unicode="&#xfb;" horiz-adv-x="1280" d="M20 801v203q231 24 472 16v-649q0 -65 21 -98t73 -33q82 0 142 86t60 198v258q-116 17 -141 19v205q222 23 453 14v-782q97 -16 160 -21v-203q-232 -25 -447 -16q0 96 10 162l-4 2q-50 -84 -136 -134.5t-202 -50.5q-82 0 -142 25.5t-94 71t-49.5 102t-15.5 125.5v479 q-97 16 -160 21zM303 1274l334 282l334 -282l-117 -141l-217 161l-217 -161z" />
<glyph unicode="&#xfc;" horiz-adv-x="1280" d="M20 801v203q231 24 472 16v-649q0 -65 21 -98t73 -33q82 0 142 86t60 198v258q-116 17 -141 19v205q222 23 453 14v-782q97 -16 160 -21v-203q-232 -25 -447 -16q0 96 10 162l-4 2q-50 -84 -136 -134.5t-202 -50.5q-82 0 -142 25.5t-94 71t-49.5 102t-15.5 125.5v479 q-97 16 -160 21zM256 1321q0 66 48 114t114 48q67 0 114.5 -48t47.5 -114q0 -67 -47 -114.5t-115 -47.5q-66 0 -114 47.5t-48 114.5zM684 1321q0 66 48 114t114 48q67 0 114.5 -48t47.5 -114q0 -67 -47 -114.5t-115 -47.5q-66 0 -114 47.5t-48 114.5z" />
<glyph unicode="&#xfd;" horiz-adv-x="1165" d="M18 811v207h506v-207q-45 -9 -82 -12l68 -195q43 -126 80 -282h4q32 150 80 299l59 178q-37 3 -82 12v207h496v-207q-32 -8 -96 -16l-299 -897q-39 -116 -85 -194t-105.5 -124.5t-129 -66t-162.5 -19.5q-73 0 -170 19l17 266q89 -25 153 -25q118 0 172 158l29 88h-92 l-264 795q-73 9 -97 16zM408 1303l387 253l135 -208l-412 -215z" />
<glyph unicode="&#xfe;" horiz-adv-x="1148" d="M-51 -285q95 22 178 27v1515q-98 16 -172 21v201q246 26 483 18v-399q0 -101 -16 -207l4 -2q35 70 109 110.5t180 40.5q180 0 275 -125t95 -350q0 -262 -148 -423.5t-415 -161.5q-43 0 -84 8v-246q83 -5 178 -27v-200h-667v200zM438 240q50 -13 107 -13q98 0 155.5 72 t57.5 233q0 127 -35 187.5t-107 60.5q-78 0 -128 -81.5t-50 -209.5v-249z" />
<glyph unicode="&#xff;" horiz-adv-x="1165" d="M18 811v207h506v-207q-45 -9 -82 -12l68 -195q43 -126 80 -282h4q32 150 80 299l59 178q-37 3 -82 12v207h496v-207q-32 -8 -96 -16l-299 -897q-39 -116 -85 -194t-105.5 -124.5t-129 -66t-162.5 -19.5q-73 0 -170 19l17 266q89 -25 153 -25q118 0 172 158l29 88h-92 l-264 795q-73 9 -97 16zM207 1321q0 66 48 114t114 48q67 0 114 -48t47 -114q0 -68 -47 -115t-114 -47q-66 0 -114 47.5t-48 114.5zM635 1321q0 66 48 114t114 48q67 0 114 -48t47 -114q0 -68 -47 -115t-114 -47q-66 0 -114 47.5t-48 114.5z" />
<glyph unicode="&#x152;" horiz-adv-x="1773" d="M57 668q0 167 54 307.5t147.5 235t218.5 146.5t266 52q94 0 209 -27h725v-368h-241q-14 75 -19 119h-217v-312h178q8 43 21 94h207v-415h-207q-12 46 -21 96h-178v-340h221q2 25 9.5 68t9.5 61h246v-385h-771q-131 -27 -221 -27q-313 0 -475 183.5t-162 511.5zM395 700 q0 -207 81 -321.5t241 -114.5q84 0 166 37v791q-76 26 -164 26q-145 0 -234.5 -110t-89.5 -308z" />
<glyph unicode="&#x153;" horiz-adv-x="1742" d="M59 483q0 248 150.5 402.5t386.5 154.5q94 0 182 -31.5t144 -93.5q118 125 319 125q111 0 196 -33.5t136 -94t76.5 -139t25.5 -173.5q0 -87 -10 -172h-606q2 -103 61.5 -156t190.5 -53q152 0 297 62l32 -234q-182 -70 -380 -70q-245 0 -369 140q-58 -64 -148.5 -102 t-193.5 -38q-232 0 -361 122.5t-129 383.5zM383 516q0 -137 45 -202.5t141 -65.5q87 0 140 69.5t53 194.5q0 132 -45.5 197t-141.5 65q-81 0 -136.5 -65t-55.5 -193zM1059 635h309q3 86 -35.5 132t-107.5 46q-68 0 -113 -49t-53 -129z" />
<glyph unicode="&#x178;" horiz-adv-x="1275" d="M18 1176v206h553v-206q-43 -11 -100 -17l98 -215q58 -129 80 -190h2q32 95 78 192l98 213q-61 7 -104 17v206h534v-206q-63 -13 -96 -15l-366 -700v-234q78 -5 178 -24v-203h-676v203q100 19 178 24v232l-360 702q-37 3 -97 15zM270 1614q0 64 45.5 108.5t110.5 44.5 t110.5 -44.5t45.5 -108.5t-46 -110t-110 -46t-110 46t-46 110zM715 1614q0 64 45 108.5t110 44.5t110.5 -44.5t45.5 -108.5t-46 -110t-110 -46t-109.5 45.5t-45.5 110.5z" />
<glyph unicode="&#x2c6;" horiz-adv-x="864" d="M96 1274l334 282l334 -282l-117 -141l-217 161l-217 -161z" />
<glyph unicode="&#x2dc;" horiz-adv-x="917" d="M80 1286q97 199 264 199q46 0 86 -15.5t62 -34t49 -34t51 -15.5q32 0 57 22t49 69l146 -111q-94 -199 -264 -199q-46 0 -85.5 15.5t-61.5 34t-48.5 34t-50.5 15.5q-34 0 -58.5 -21.5t-50.5 -68.5z" />
<glyph unicode="&#x2000;" horiz-adv-x="966" />
<glyph unicode="&#x2001;" horiz-adv-x="1933" />
<glyph unicode="&#x2002;" horiz-adv-x="966" />
<glyph unicode="&#x2003;" horiz-adv-x="1933" />
<glyph unicode="&#x2004;" horiz-adv-x="644" />
<glyph unicode="&#x2005;" horiz-adv-x="483" />
<glyph unicode="&#x2006;" horiz-adv-x="322" />
<glyph unicode="&#x2007;" horiz-adv-x="322" />
<glyph unicode="&#x2008;" horiz-adv-x="241" />
<glyph unicode="&#x2009;" horiz-adv-x="386" />
<glyph unicode="&#x200a;" horiz-adv-x="107" />
<glyph unicode="&#x2010;" horiz-adv-x="690" d="M86 430v250h516v-250h-516z" />
<glyph unicode="&#x2011;" horiz-adv-x="690" d="M86 430v250h516v-250h-516z" />
<glyph unicode="&#x2012;" horiz-adv-x="690" d="M86 430v250h516v-250h-516z" />
<glyph unicode="&#x2013;" d="M0 473v275h1126v-275h-1126z" />
<glyph unicode="&#x2014;" horiz-adv-x="2048" d="M217 473v275h1614v-275h-1614z" />
<glyph unicode="&#x2018;" horiz-adv-x="577" d="M102 1150q49 207 275 401q2 1 4 3l127 -112q-105 -113 -122 -188.5t42 -139.5q32 -38 38 -88.5t-11.5 -95.5t-62.5 -76t-107 -31q-97 0 -152 83q-65 97 -31 244z" />
<glyph unicode="&#x2019;" horiz-adv-x="577" d="M68 918q106 113 123 188.5t-41 138.5q-33 37 -39 88t11.5 95.5t62.5 76t106 31.5q98 0 153 -83q65 -97 30 -244q-49 -207 -275 -401q-2 -1 -4 -3z" />
<glyph unicode="&#x201a;" horiz-adv-x="577" d="M68 -266q106 114 123 189t-41 138q-33 37 -39 88t11.5 95.5t62.5 76t106 31.5q98 0 153 -83q65 -97 30 -244q-49 -207 -275 -401q-2 -1 -4 -3z" />
<glyph unicode="&#x201c;" horiz-adv-x="1062" d="M102 1150q49 207 275 401q2 1 4 3l127 -112q-105 -113 -122 -188.5t42 -139.5q32 -38 38 -88.5t-11.5 -95.5t-62.5 -76t-107 -31q-97 0 -152 83q-65 97 -31 244zM589 1150q49 207 275 401q2 1 4 3l127 -112q-107 -113 -124 -188.5t42 -139.5q33 -37 39 -88t-11.5 -95.5 t-62.5 -76t-106 -31.5q-98 0 -153 83q-65 97 -30 244z" />
<glyph unicode="&#x201d;" horiz-adv-x="1062" d="M68 918q106 113 123 188.5t-41 138.5q-33 37 -39 88t11.5 95.5t62.5 76t106 31.5q98 0 153 -83q65 -97 30 -244q-49 -207 -275 -401q-2 -1 -4 -3zM553 918q107 113 124 188t-42 139q-33 37 -39 88t12 95.5t63 76t107 31.5q97 0 152 -83q64 -97 29 -244 q-49 -207 -275 -401q-2 -1 -4 -3z" />
<glyph unicode="&#x201e;" horiz-adv-x="1062" d="M68 -266q106 114 123 189t-41 138q-33 37 -39 88t11.5 95.5t62.5 76t106 31.5q98 0 153 -83q65 -97 30 -244q-49 -207 -275 -401q-2 -1 -4 -3zM553 -266q107 115 124 189t-42 138q-33 37 -39 88t12 95.5t63 76t107 31.5q97 0 152 -83q64 -97 29 -244q-49 -207 -275 -401 q-2 -1 -4 -3z" />
<glyph unicode="&#x2022;" horiz-adv-x="868" d="M94 608q0 140 99.5 240t240.5 100q140 0 240 -100t100 -240t-100 -240t-240 -100q-141 0 -240.5 100t-99.5 240z" />
<glyph unicode="&#x202f;" horiz-adv-x="386" />
<glyph unicode="&#x2039;" horiz-adv-x="638" d="M66 598l231 416l240 -109l-175 -307l181 -301l-252 -111z" />
<glyph unicode="&#x203a;" horiz-adv-x="638" d="M96 903l252 111l225 -412l-231 -416l-242 109l174 307z" />
<glyph unicode="&#x205f;" horiz-adv-x="483" />
<glyph unicode="&#x20ac;" horiz-adv-x="1210" d="M53 436v162h129v55q0 49 2 74h-131v162h148q96 520 659 520q138 0 283 -33v-368h-199q-21 66 -24 133q-43 16 -95 16q-124 0 -191.5 -64.5t-90.5 -203.5h379v-162h-396v-129h396v-162h-367q63 -207 307 -207q148 0 250 47l70 -237q-155 -66 -363 -66q-277 0 -427.5 111 t-192.5 352h-146z" />
<glyph unicode="&#x2122;" horiz-adv-x="1789" d="M53 1106v276h641v-276h-139q-12 68 -16 104h-58v-313q58 -7 105 -18v-134h-424v134q45 12 104 18v313h-59q-1 -20 -7 -56t-7 -48h-140zM700 745v138l70 10l76 338q-45 5 -101 16v135h392l61 -235l16 -82l17 80l65 237h398v-135q-48 -10 -101 -16l78 -338q32 0 68 -8v-140 h-346v134l55 14l-29 143l-10 66l-14 -60l-78 -297h-211l-78 299l-12 58l-8 -51l-31 -158q43 -10 55 -14v-134h-332z" />
<glyph unicode="&#x25fc;" horiz-adv-x="1013" d="M0 0v1014h1014v-1014h-1014z" />
</font>
</defs>
</svg>
