<?xml version="1.0" standalone="no"?>
<!DOCTYPE svg PUBLIC "-//W3C//DTD SVG 1.1//EN" "http://www.w3.org/Graphics/SVG/1.1/DTD/svg11.dtd" >
<svg xmlns="http://www.w3.org/2000/svg">
<metadata></metadata>
<defs>
<font id="theserifhp3_light_italic" horiz-adv-x="1126" >
<font-face units-per-em="2048" ascent="1516" descent="-532" />
<missing-glyph horiz-adv-x="446" />
<glyph unicode="&#x2e;&#x2e;&#x2e;" horiz-adv-x="1251" d="M29 76q0 45 30 74.5t72 29.5q39 0 63.5 -27t24.5 -65q0 -44 -30 -74t-70 -30t-65 27.5t-25 64.5zM434 76q0 45 30.5 74.5t72.5 29.5q39 0 63.5 -27t24.5 -65q0 -44 -30.5 -74t-70.5 -30t-65 27.5t-25 64.5zM840 76q0 45 29.5 74.5t70.5 29.5q40 0 65 -27t25 -65 q0 -44 -30 -74t-72 -30q-38 0 -63 27.5t-25 64.5z" />
<glyph unicode="&#xfb01;" horiz-adv-x="1189" d="M-389 -510l33 113q79 -23 163 -23q128 0 200.5 79t109.5 273l188 983h-217l21 103h217l10 55q39 216 165.5 324t350.5 108q129 0 266 -37l-45 -110q-112 41 -233 41q-314 0 -375 -307l-12 -74h616l-172 -914q82 -14 168 -20l-12 -70q-167 -20 -303 -14l174 915h-492 l-188 -976q-48 -248 -158.5 -357.5t-296.5 -109.5q-95 0 -178 18z" />
<glyph unicode="&#xfb02;" horiz-adv-x="1191" d="M-389 -510l33 113q79 -23 163 -23q128 0 200.5 79t109.5 273l188 983h-217l21 103h217l22 115q72 372 486 372q148 0 323 -26l-260 -1375q81 -14 170 -20l-14 -70q-164 -20 -303 -14l264 1384q-96 17 -189 17q-155 0 -239.5 -64.5t-112.5 -206.5l-20 -112h305l-21 -103 h-305l-188 -976q-48 -248 -158.5 -357.5t-296.5 -109.5q-95 0 -178 18z" />
<glyph unicode="&#xfb03;" horiz-adv-x="1808" d="M-389 -510l33 113q79 -23 163 -23q127 0 199 79t111 273l188 983h-219l23 103h217l10 57q79 428 498 428q164 0 333 -73q112 75 301 75q130 0 267 -37l-49 -108q-106 39 -230 39q-157 0 -251 -78t-124 -240l-12 -63h619l-175 -914q74 -13 168 -20l-12 -70 q-167 -20 -303 -14l174 915h-489l-191 -997q-45 -239 -172 -342.5t-328 -103.5q-165 0 -323 67q-96 -67 -248 -67q-95 0 -178 18zM129 -365q110 -55 248 -55q150 0 235.5 78.5t118.5 253.5l193 1003h-492l-188 -976q-36 -193 -115 -304zM453 1018h489l10 57q28 164 119 264 q-117 60 -252 60q-149 0 -239 -80.5t-115 -231.5z" />
<glyph unicode="&#xfb04;" horiz-adv-x="1808" d="M-389 -510l33 113q79 -23 163 -23q127 0 199 79t111 273l188 983h-217l21 103h217l10 57q79 428 498 428q162 0 321 -67q117 69 295 69q149 0 324 -26l-261 -1375q80 -14 168 -20l-12 -70q-167 -20 -303 -14l264 1384q-96 17 -188 17q-154 0 -238 -64.5t-112 -206.5 l-23 -112h309l-22 -103h-305l-191 -997q-45 -239 -172 -342.5t-328 -103.5q-165 0 -323 67q-96 -67 -248 -67q-95 0 -178 18zM129 -365q110 -55 248 -55q150 0 235.5 78.5t118.5 253.5l193 1003h-492l-188 -976q-36 -193 -115 -304zM453 1018h489l23 115q27 131 94 213 q-109 53 -238 53q-151 0 -241 -80.5t-115 -231.5z" />
<glyph horiz-adv-x="0" />
<glyph horiz-adv-x="0" />
<glyph horiz-adv-x="682" />
<glyph unicode="&#xd;" horiz-adv-x="1024" />
<glyph unicode=" "  horiz-adv-x="446" />
<glyph unicode="&#x09;" horiz-adv-x="446" />
<glyph unicode="&#xa0;" horiz-adv-x="446" />
<glyph unicode="!" horiz-adv-x="638" d="M162 80q0 41 27.5 69.5t68.5 28.5t67.5 -28t26.5 -68q0 -41 -27.5 -69.5t-68.5 -28.5t-67.5 28t-26.5 68zM248 315l188 1117h152l-238 -1117h-102z" />
<glyph unicode="&#x22;" horiz-adv-x="677" d="M145 991l56 436h143l-108 -436h-91zM449 991l57 436h143l-108 -436h-92z" />
<glyph unicode="#" horiz-adv-x="1327" d="M57 412l17 90h315l82 430h-313l16 90h315l68 360h107l-70 -360h328l69 360h107l-70 -360h315l-18 -90h-315l-82 -430h315l-18 -90h-314l-75 -412h-107l76 412h-328l-76 -412h-106l78 412h-316zM496 502h327l82 430h-327z" />
<glyph unicode="$" horiz-adv-x="962" d="M43 23l57 296h82q-4 -133 -8 -196q86 -27 170 -27q137 0 232.5 73.5t95.5 203.5q0 47 -25.5 90.5t-66 79.5t-89.5 71.5t-98.5 75t-90 82t-66 100t-25.5 121.5q0 165 116 278.5t291 121.5l50 229h102l-47 -227q102 0 219 -27l-55 -289h-82q4 137 10 195q-93 22 -160 22 q-135 0 -222 -70.5t-87 -197.5q0 -50 26 -96.5t67 -84.5t90.5 -75t99.5 -76t91 -80t67 -94t26 -112q0 -178 -119 -286.5t-307 -131.5l-68 -301h-102l64 295q-55 0 -127 11t-111 26z" />
<glyph unicode="%" horiz-adv-x="1583" d="M168 1022q0 167 101 274t245 107q125 0 202 -66.5t77 -210.5q0 -71 -23 -138.5t-66.5 -122.5t-112.5 -88.5t-153 -33.5q-270 0 -270 279zM217 25l1092 1400l84 -67l-1092 -1401zM293 1032q0 -99 39.5 -144.5t126.5 -45.5q50 0 91.5 25.5t66 66t38 85t13.5 87.5 q0 102 -39 150.5t-129 48.5q-94 0 -150.5 -82.5t-56.5 -190.5zM834 258q0 167 101 274t247 107q125 0 201.5 -66.5t76.5 -210.5q0 -71 -23.5 -138.5t-66.5 -122t-112.5 -88t-153.5 -33.5q-129 0 -199.5 68t-70.5 210zM958 268q0 -98 40 -144t126 -46q51 0 93 25.5t66.5 66 t38 85t13.5 87.5q0 102 -40 151.5t-130 49.5q-64 0 -112 -41t-71.5 -103t-23.5 -131z" />
<glyph unicode="&#x26;" horiz-adv-x="1634" d="M90 297q0 75 23 143.5t56 120.5t89 106t103.5 90.5t117.5 84.5q-65 104 -97 180t-32 145q0 139 104.5 238.5t268.5 99.5q133 0 199.5 -62.5t66.5 -162.5q0 -54 -17 -103.5t-43.5 -90t-74.5 -86.5t-94 -82t-117 -87q159 -231 418 -483q92 98 156.5 244.5t82.5 318.5 q-74 5 -159 27l12 72h467l-14 -72q-96 -22 -172 -27q-34 -197 -112.5 -360t-184.5 -272q144 -136 194 -179q74 -7 158 -30l-14 -70h-228q-44 38 -203 193q-254 -209 -581 -209q-93 0 -166 25.5t-117 69.5t-67 99.5t-23 118.5zM225 336q0 -104 67 -174t202 -70q264 0 473 172 q-277 281 -428 494q-57 -40 -96.5 -70.5t-84 -73.5t-71 -82.5t-44.5 -90.5t-18 -105zM479 1180q0 -93 109 -265q144 100 207 175.5t63 169.5q0 66 -38 103.5t-111 37.5q-106 0 -168 -62.5t-62 -158.5z" />
<glyph unicode="'" horiz-adv-x="372" d="M145 991l56 436h143l-108 -436h-91z" />
<glyph unicode="(" horiz-adv-x="604" d="M145 266q0 342 138 687t381 640l84 -51q-204 -252 -341 -593.5t-137 -669.5q0 -385 113 -650l-100 -49q-138 332 -138 686z" />
<glyph unicode=")" horiz-adv-x="604" d="M-98 -369q203 252 340 595t137 671q0 380 -115 647l101 49q137 -319 137 -684q0 -343 -137.5 -687.5t-378.5 -641.5z" />
<glyph unicode="*" horiz-adv-x="735" d="M199 1108l225 94l-188 111l59 82l170 -135l33 239l102 -14l-61 -221l202 125l45 -91l-229 -96l188 -108l-61 -86l-172 137l-31 -240l-102 17l61 219l-198 -127z" />
<glyph unicode="+" d="M98 555l23 109h409l82 430h121l-82 -430h414l-21 -109h-413l-84 -432h-121l82 432h-410z" />
<glyph unicode="," horiz-adv-x="417" d="M-92 -227q200 169 141 282q-22 43 1.5 84t72.5 41q61 0 84 -56q31 -75 -33 -187q-65 -114 -215 -224z" />
<glyph unicode="-" horiz-adv-x="655" d="M104 549l21 106h459l-23 -106h-457z" />
<glyph unicode="." horiz-adv-x="417" d="M29 78q0 44 29 74t71 30q40 0 67 -28t27 -66q0 -44 -28.5 -74t-71.5 -30q-39 0 -66.5 28.5t-27.5 65.5z" />
<glyph unicode="/" horiz-adv-x="843" d="M-139 -330l1063 1880h123l-1061 -1880h-125z" />
<glyph unicode="0" horiz-adv-x="1239" d="M102 365q0 203 84.5 368t230 257.5t320.5 92.5q192 0 297 -109t105 -292q0 -149 -52 -280.5t-139.5 -223t-205 -144t-246.5 -52.5q-192 0 -293 100t-101 283zM233 395q0 -139 73.5 -222t217.5 -83q125 0 237 77t179.5 209.5t67.5 285.5q0 143 -74 228t-223 85 q-136 0 -246.5 -81.5t-171 -214t-60.5 -284.5z" />
<glyph unicode="1" horiz-adv-x="720" d="M4 0l12 74q134 25 234 28l162 838l-269 -106v116l314 117h108l-182 -965q88 -6 180 -28l-14 -74h-545z" />
<glyph unicode="2" horiz-adv-x="968" d="M20 0l19 102l364 277q177 134 247.5 224t70.5 194q0 33 -10 63t-31.5 57.5t-61.5 43.5t-94 16q-92 0 -192 -35q-33 -112 -64 -190h-75l53 272q150 57 305 57q146 0 226.5 -73.5t80.5 -186.5q0 -132 -82 -243t-256 -240l-299 -223v-4q101 8 559 8l-22 -119h-738z" />
<glyph unicode="3" horiz-adv-x="931" d="M-61 -389l26 125q73 -29 158 -29q200 0 327.5 108t127.5 281q0 134 -114.5 186.5t-326.5 30.5l19 105q235 0 383.5 106.5t148.5 276.5q0 84 -50.5 129t-150.5 45q-82 0 -170 -31q-22 -87 -63 -190h-74l53 274q130 55 279 55q157 0 235 -71.5t78 -190.5 q0 -149 -92.5 -259.5t-247.5 -172.5v-2q100 -11 167 -84.5t67 -187.5q0 -146 -81.5 -265.5t-223 -187.5t-314.5 -68q-89 0 -161 17z" />
<glyph unicode="4" horiz-adv-x="1077" d="M-49 0v109l770 956h180l-178 -946h248l-25 -119h-248l-55 -297q87 -6 168 -29l-12 -67h-475l12 67q90 23 180 29l57 297h-622zM84 115q139 4 514 4l154 821h-4z" />
<glyph unicode="5" horiz-adv-x="944" d="M-35 -397l25 123q74 -17 129 -17q135 0 245 45.5t176 135.5t66 210q0 63 -24 116t-75 97.5t-141.5 69.5t-211.5 25l129 657h602l-25 -127h-479l-84 -418q206 -12 327 -119t121 -274q0 -99 -36.5 -185.5t-99 -149.5t-144.5 -108t-175.5 -67.5t-189.5 -22.5q-68 0 -135 9z " />
<glyph unicode="6" horiz-adv-x="1169" d="M141 377q0 85 14 179t46 199t79 203t119 187.5t160 156.5t206.5 106.5t254.5 39.5q42 0 78 -4l-23 -111q-46 6 -92 6q-224 0 -385 -145.5t-248 -398.5q-4 -13 -17 -44.5t-20 -50.5v-2q62 94 166.5 148.5t225.5 54.5q90 0 159 -28t109 -76t60 -105.5t20 -122.5 q0 -130 -46.5 -241.5t-124.5 -186t-179 -116t-209 -41.5q-93 0 -162.5 29.5t-110.5 83t-60.5 123.5t-19.5 157zM279 360q0 -33 5 -65.5t20 -71.5t39 -67.5t66.5 -48t98.5 -19.5q175 0 290 126.5t115 334.5q0 105 -61.5 172t-181.5 67q-157 0 -274 -127.5t-117 -300.5z" />
<glyph unicode="7" horiz-adv-x="923" d="M88 -393q322 737 709 1339q-45 -4 -551 -4q-23 -92 -66 -194h-82l62 317h805l-21 -113q-409 -613 -700 -1345h-156z" />
<glyph unicode="8" horiz-adv-x="1097" d="M90 268q0 66 22.5 126.5t56 105.5t88 90.5t103.5 76.5t117 70q-39 27 -68 51t-59 56.5t-49 65t-31 74.5t-12 89q0 163 130.5 271t328.5 108q164 0 251 -73.5t87 -200.5q0 -74 -28 -137.5t-83 -117.5t-112 -93.5t-140 -86.5q52 -35 92.5 -69.5t76.5 -78.5t55.5 -97.5 t19.5 -112.5q0 -118 -67 -211t-178.5 -142.5t-244.5 -49.5q-356 0 -356 286zM227 281q0 -79 60 -135t186 -56q131 0 229.5 78.5t98.5 187.5q0 53 -17.5 98.5t-54.5 85.5t-71 68t-89 66q-60 -33 -105.5 -61.5t-92 -67t-76.5 -77t-49 -87t-19 -100.5zM393 1083q0 -81 53 -143 t154 -133q76 42 125.5 74.5t99 75.5t73.5 92t24 104q0 84 -57 139.5t-167 55.5q-137 0 -221 -79t-84 -186z" />
<glyph unicode="9" horiz-adv-x="1169" d="M20 -395l21 119q63 -13 121 -13q437 0 645 522q5 13 19.5 51.5t23.5 61.5v2q-67 -91 -170 -138.5t-219 -47.5q-170 0 -257 91.5t-87 238.5q0 114 39.5 221t108.5 189t172 131.5t222 49.5q189 0 279 -105t90 -292q0 -83 -13.5 -176t-45 -200t-78 -207t-119.5 -193 t-162 -161.5t-212.5 -110t-264.5 -41.5q-69 0 -113 8zM256 508q0 -101 63.5 -164t169.5 -63q80 0 152 28t128 80t89 134t33 182q0 120 -64 196t-188 76q-107 0 -195.5 -65.5t-138 -173t-49.5 -230.5z" />
<glyph unicode=":" horiz-adv-x="563" d="M131 82q0 41 28.5 70.5t69.5 29.5t69 -29t28 -69q0 -41 -29 -70.5t-70 -29.5t-68.5 29t-27.5 69zM250 696q0 42 27.5 70.5t68.5 28.5t68.5 -28.5t27.5 -68.5q0 -42 -28 -71t-68 -29q-41 0 -68.5 28.5t-27.5 69.5z" />
<glyph unicode=";" horiz-adv-x="563" d="M16 -227q201 170 142 282q-24 43 -0.5 84t73.5 41q60 0 83 -56q31 -76 -33 -187q-66 -114 -215 -224zM250 696q0 42 27.5 70.5t68.5 28.5t68.5 -28.5t27.5 -68.5q0 -42 -28 -71t-68 -29q-41 0 -68.5 28.5t-27.5 69.5z" />
<glyph unicode="&#x3c;" d="M180 633l738 553l73 -88l-645 -475l475 -482l-90 -82z" />
<glyph unicode="=" d="M96 393l21 111h891l-21 -111h-891zM158 715l18 108h891l-18 -108h-891z" />
<glyph unicode="&#x3e;" d="M178 145l645 478l-475 481l90 82l551 -574l-737 -553z" />
<glyph unicode="?" horiz-adv-x="884" d="M203 80q0 41 28 69.5t68 28.5q41 0 68.5 -28t27.5 -68q0 -41 -28.5 -69.5t-69.5 -28.5q-40 0 -67 28t-27 68zM279 315q-12 90 5.5 166.5t55 130.5t85.5 101t98 87.5t92 80t69 88t27 102.5q0 93 -104 163t-261 91l39 119q209 -24 338 -127.5t129 -235.5q0 -67 -27.5 -125 t-70.5 -101t-94.5 -84t-100.5 -85.5t-87.5 -94.5t-57 -120.5t-6.5 -155.5h-129z" />
<glyph unicode="@" horiz-adv-x="1974" d="M197 477q0 166 50.5 322.5t141.5 281.5t211 219t266.5 145.5t300.5 51.5q134 0 244 -31.5t186.5 -87t128.5 -132t76.5 -165.5t24.5 -188q0 -180 -65 -324.5t-176 -224.5t-245 -80q-66 0 -113.5 21.5t-68 56t-26.5 77.5t10 87h-6q-29 -75 -130 -158.5t-200 -83.5 q-176 0 -176 209q0 76 16.5 155.5t55 161t94.5 145.5t142 104t189 40q134 0 250 -22l-127 -457q-31 -112 -2 -168.5t115 -56.5q151 0 248.5 145.5t97.5 368.5q0 79 -19 151t-61.5 137.5t-106 113.5t-158.5 76t-212 28q-133 0 -259.5 -46t-230 -130t-182 -195.5 t-121.5 -250.5t-43 -286q0 -258 153.5 -408.5t436.5 -150.5q180 0 338 49l6 -110q-170 -51 -366 -51q-325 0 -506.5 176t-181.5 485zM754 502q0 -123 84 -123q97 0 200.5 123t165.5 346l33 119q-49 14 -125 14q-139 0 -248.5 -141.5t-109.5 -337.5z" />
<glyph unicode="A" horiz-adv-x="1378" d="M-88 0l12 70q81 21 135 26l723 1286h144l227 -1284q54 -5 129 -28l-14 -70h-443l15 70q82 22 176 28l-43 264h-625l-145 -264q91 -7 162 -28l-13 -70h-440zM406 469h550l-102 584q-21 132 -25 192h-2l-96 -186z" />
<glyph unicode="B" horiz-adv-x="1173" d="M-37 0l14 70q81 21 181 28l223 1186q-87 6 -168 29l14 69h172q35 0 146 2t200 2q189 0 278 -69t89 -187q0 -154 -85.5 -258.5t-213.5 -144.5v-2q105 -18 167 -90.5t62 -167.5q0 -96 -38.5 -181t-111 -150.5t-187 -103.5t-256.5 -38q-38 0 -147.5 3t-164.5 3h-174z M289 113q80 -13 192 -13q100 0 181.5 28.5t134 77t80.5 112t28 135.5q0 213 -346 213q-131 0 -166 -2zM412 768q45 -2 135 -2q194 0 312 88.5t118 249.5q0 41 -12 71.5t-40.5 55.5t-83 38t-134.5 13q-71 0 -197 -4z" />
<glyph unicode="C" horiz-adv-x="1171" d="M117 455q0 150 31.5 288.5t96.5 257.5t156.5 207t219 138.5t276.5 50.5q163 0 313 -43l-59 -293h-82q0 133 12 196q-96 29 -217 29q-102 0 -190.5 -32t-153.5 -89.5t-116 -134.5t-82.5 -168.5t-47.5 -189t-16 -199.5q0 -86 18.5 -151.5t60.5 -116.5t116 -78t178 -27 q74 0 176.5 23.5t175.5 56.5l14 -114q-191 -80 -393 -80q-487 0 -487 469z" />
<glyph unicode="D" horiz-adv-x="1423" d="M-37 0l17 70q82 22 180 28l223 1186q-90 6 -170 29l14 69h174q50 0 179.5 3.5t193.5 3.5q132 0 235 -25.5t170.5 -70t111.5 -109t62.5 -138t18.5 -161.5q0 -138 -33.5 -266t-105.5 -242.5t-176.5 -199t-257 -134t-336.5 -49.5q-78 0 -182.5 3t-141.5 3h-176zM291 117 q111 -15 192 -15q156 0 284 44t214 117.5t144.5 173.5t85 208.5t26.5 224.5q0 92 -23.5 163.5t-77 129t-150 88.5t-232.5 31q-71 0 -242 -6z" />
<glyph unicode="E" horiz-adv-x="1056" d="M-37 0l14 70q81 21 181 28l223 1186q-90 6 -170 29l14 69h844l-57 -297h-82q0 142 4 193h-426l-96 -514h338q35 112 65 160h70l-80 -420h-72q-7 39 -7 89q0 32 3 69h-336l-106 -556h426q38 117 71 197h82l-57 -303h-846z" />
<glyph unicode="F" horiz-adv-x="993" d="M-37 0l12 70q84 21 181 28l225 1186q-87 6 -168 29l12 69h846l-57 -297h-82q5 178 6 193h-428l-100 -524h346q33 100 63 157h74l-82 -419h-74q-3 65 -3 113q0 24 1 44h-344l-106 -551q94 -6 170 -28l-15 -70h-477z" />
<glyph unicode="G" horiz-adv-x="1406" d="M111 512q0 193 68 360t184 281.5t273.5 180t332.5 65.5q184 0 356 -49l-59 -291h-82q0 99 10 194q-132 37 -244 37q-196 0 -357 -102.5t-252 -279t-91 -388.5q0 -82 24 -154.5t73.5 -135t137 -99.5t203.5 -37q152 0 311 49l86 449q-84 6 -170 26l15 72h446l-12 -72 q-61 -15 -150 -26l-104 -537q-210 -71 -444 -71q-271 0 -413 144.5t-142 383.5z" />
<glyph unicode="H" horiz-adv-x="1507" d="M-39 0l14 70q84 21 181 28l225 1186q-87 6 -168 29l12 69h475l-14 -69q-87 -23 -176 -29l-96 -512h774l96 512q-87 6 -164 29l13 69h473l-13 -69q-91 -23 -180 -29l-225 -1186q94 -6 170 -28l-15 -70h-475l15 70q82 22 176 28l106 566h-774l-106 -566q90 -6 166 -28 l-13 -70h-477z" />
<glyph unicode="I" horiz-adv-x="604" d="M-37 0l12 70q84 21 181 28l225 1186q-87 6 -168 29l12 69h477l-12 -69q-91 -23 -180 -29l-225 -1186q94 -6 170 -28l-15 -70h-477z" />
<glyph unicode="J" horiz-adv-x="673" d="M-94 4l22 121q75 -27 138 -27q94 0 152 55t83 191l178 940q-87 6 -168 29l13 69h452l-16 -69q-75 -20 -152 -29l-178 -944q-35 -178 -126 -265t-257 -87q-67 0 -141 16z" />
<glyph unicode="K" horiz-adv-x="1294" d="M-37 0l12 70q84 21 181 28l225 1186q-87 6 -168 29l12 69h465l-12 -69q-84 -22 -168 -29l-109 -573l643 573q-80 6 -153 29l12 69h475l-14 -69q-82 -21 -150 -29l-659 -582l449 -604q76 -6 155 -28l-14 -70h-467l12 70q79 20 150 26l-441 609l-114 -607q86 -8 157 -28 l-14 -70h-465z" />
<glyph unicode="L" horiz-adv-x="917" d="M-37 0l12 70q84 21 181 28l225 1186q-87 6 -168 29l12 69h477l-12 -69q-91 -23 -180 -29l-223 -1178h411q19 67 72 205h82l-61 -311h-828z" />
<glyph unicode="M" horiz-adv-x="1855" d="M-68 0l13 70q78 20 137 26l391 1188q-90 6 -170 29l14 69h357l145 -946q20 -146 27 -264h2q51 114 119 248l518 962h379l-15 -69q-92 -23 -178 -29l-57 -1188q53 -5 129 -26l-12 -70h-435l13 70q83 22 174 28l43 809q15 283 22 353h-4q-41 -104 -102 -216l-565 -1044 h-119l-154 983q-26 162 -29 277h-2q-54 -200 -106 -363l-246 -799q86 -6 160 -28l-12 -70h-437z" />
<glyph unicode="N" horiz-adv-x="1484" d="M-37 0l14 70q84 21 181 28l223 1186q-87 6 -168 29l12 69h336l412 -960q60 -142 110 -287l99 559l106 590q-83 6 -164 29l15 69h442l-12 -69q-81 -21 -154 -29l-244 -1284h-159l-414 963q-80 191 -109 290q-33 -228 -102 -606l-100 -549q92 -6 164 -28l-13 -70h-475z" />
<glyph unicode="O" horiz-adv-x="1417" d="M109 483q0 249 101.5 459t281 333.5t397.5 123.5q232 0 358.5 -130.5t126.5 -367.5q0 -193 -61.5 -364t-166.5 -292t-249 -191t-305 -70q-240 0 -361.5 129t-121.5 370zM250 500q0 -187 92.5 -295.5t263.5 -108.5q126 0 241 61t200 165t135.5 251.5t50.5 313.5 q0 190 -92.5 295.5t-274.5 105.5q-173 0 -315 -106.5t-221.5 -287t-79.5 -394.5z" />
<glyph unicode="P" horiz-adv-x="1124" d="M-37 0l14 70q85 22 179 28l227 1186q-90 6 -170 29l14 69h174q25 0 133 3.5t185 3.5q203 0 321.5 -92.5t118.5 -256.5q0 -156 -81 -281t-223 -195t-318 -70q-79 0 -172 10l-80 -406q97 -7 172 -28l-15 -70h-479zM383 614q74 -12 170 -12q101 0 182 25.5t133 67.5t87.5 99 t50 116t14.5 122q0 117 -84 183.5t-240 66.5q-139 0 -186 -4z" />
<glyph unicode="Q" horiz-adv-x="1419" d="M111 483q0 249 101 459t280 333.5t397 123.5q234 0 361.5 -130.5t127.5 -367.5q0 -153 -39.5 -293.5t-108 -248.5t-160.5 -186t-198 -116q44 -2 98.5 -17.5t97.5 -31t110 -24.5q37 -6 75 -6q33 0 66 4l-23 -119q-54 -6 -97 -6q-34 0 -60 4q-59 8 -120.5 28.5t-108 41.5 t-120.5 37t-157 16h-39q-240 0 -361.5 129t-121.5 370zM252 500q0 -187 92.5 -295.5t263.5 -108.5q126 0 241.5 61t201 165t136 252t50.5 313q0 190 -93.5 295.5t-275.5 105.5q-173 0 -315 -106.5t-221.5 -287t-79.5 -394.5z" />
<glyph unicode="R" horiz-adv-x="1146" d="M-37 0l14 70q85 22 179 28l225 1186q-87 6 -168 29l12 69h156q36 0 139.5 3.5t173.5 3.5q389 0 389 -293q0 -131 -74.5 -233t-191.5 -154t-254 -54q9 -15 68 -125l223 -432q84 -6 166 -28l-16 -70h-259l-321 653h-35l-104 -555q93 -7 164 -28l-13 -70h-473zM412 758 q46 -4 125 -4q116 0 208 35.5t148.5 111.5t56.5 182q0 104 -65 152.5t-211 48.5q-96 0 -164 -6z" />
<glyph unicode="S" horiz-adv-x="935" d="M39 12l57 305h84q-3 -104 -10 -204q49 -15 113 -15q174 0 273 83t99 216q0 54 -24.5 99.5t-63 79t-85.5 65.5t-94 66.5t-85.5 73.5t-63 95.5t-24.5 124.5q0 166 130.5 282t354.5 116q109 0 207 -19l-57 -297h-80q0 109 10 201q-45 10 -106 10q-156 0 -243 -80t-87 -184 q0 -56 24.5 -104t64 -83t87.5 -68t95.5 -67.5t87 -73.5t64 -94.5t24.5 -121.5q0 -187 -148.5 -310.5t-380.5 -123.5q-143 0 -223 28z" />
<glyph unicode="T" horiz-adv-x="1089" d="M143 1071l60 311h1011l-59 -311h-82q1 29 3 102.5t5 102.5h-329l-224 -1178q90 -6 170 -28l-14 -70h-477l12 70q86 22 180 28l226 1178h-328q-8 -28 -70 -205h-84z" />
<glyph unicode="U" horiz-adv-x="1443" d="M184 326q0 49 15 137l157 821q-68 8 -143 29l12 69h449l-15 -69q-87 -23 -176 -29l-151 -799q-17 -87 -17 -141q0 -129 74.5 -191.5t241.5 -62.5q202 0 316.5 98t158.5 336l143 760q-86 6 -166 29l15 69h444l-12 -69q-88 -22 -154 -29l-145 -778q-52 -265 -205.5 -393.5 t-413.5 -128.5q-120 0 -205 25t-132.5 72t-69 107t-21.5 138z" />
<glyph unicode="V" horiz-adv-x="1355" d="M162 1313l12 69h442l-12 -69q-91 -23 -174 -29l127 -848q2 -13 18 -124.5t21 -174.5h4q50 119 158 312l456 835q-86 6 -163 29l12 69h446l-14 -69q-79 -21 -137 -27l-715 -1286h-141l-211 1286q-59 6 -129 27z" />
<glyph unicode="W" horiz-adv-x="1972" d="M164 1313l12 69h438l-12 -69q-88 -23 -184 -29l59 -911q6 -138 6 -254h2q48 130 107 248l485 1015h123l125 -1026q16 -149 18 -235h3q33 98 75 198l418 965q-78 6 -158 29l15 69h428l-13 -69q-86 -22 -137 -27l-569 -1286h-164l-121 1001q-12 116 -12 194v22h-2 q-51 -129 -90 -211l-481 -1006h-162l-82 1286q-57 6 -127 27z" />
<glyph unicode="X" horiz-adv-x="1310" d="M-76 0l13 70q89 21 157 26l527 625l-275 565q-69 5 -143 27l12 69h471l-14 -69q-83 -23 -176 -29l215 -469l387 469q-77 5 -156 29l12 69h469l-12 -69q-91 -22 -160 -29l-485 -573l297 -615q67 -5 141 -26l-12 -70h-469l12 70q83 22 172 28l-233 516l-422 -516 q80 -6 154 -28l-13 -70h-469z" />
<glyph unicode="Y" horiz-adv-x="1167" d="M160 1313l12 69h442l-12 -69q-85 -23 -178 -29l113 -424q6 -23 28.5 -111.5t32.5 -134.5h2l186 295l240 375q-82 7 -154 29l15 69h434l-14 -69q-86 -22 -136 -27l-528 -784l-78 -404q90 -6 170 -28l-14 -70h-477l12 70q82 22 180 28l78 404l-223 784q-49 5 -131 27z" />
<glyph unicode="Z" horiz-adv-x="1060" d="M-6 0l18 92l783 987q25 32 53 64t62 71t53 60q-156 -4 -316 -4h-278q-12 -44 -66 -193h-82l58 305h849l-16 -94l-829 -1036q-42 -52 -119 -141q47 4 360 4h258q3 9 70 198h82l-62 -313h-878z" />
<glyph unicode="[" horiz-adv-x="636" d="M18 -399l375 1970h365l-19 -96h-245l-338 -1774h245l-18 -100h-365z" />
<glyph unicode="\" horiz-adv-x="833" d="M227 1550h111l350 -1880h-115z" />
<glyph unicode="]" horiz-adv-x="636" d="M-96 -399l18 100h246l340 1774h-248l21 96h362l-375 -1970h-364z" />
<glyph unicode="^" d="M184 762l455 620h106l230 -618l-103 -53l-198 569l-404 -569z" />
<glyph unicode="_" d="M-178 -514l20 100h1104l-20 -100h-1104z" />
<glyph unicode="`" horiz-adv-x="735" d="M317 1432l97 77l209 -264l-78 -61z" />
<glyph unicode="a" horiz-adv-x="1112" d="M68 285q0 114 22.5 219.5t72 202t121.5 168t178.5 113.5t235.5 42q157 0 289 -29l-172 -897q81 -14 170 -20l-14 -70q-125 -15 -238 -15q-34 0 -67 1q23 125 133 477l-4 2q-25 -60 -51.5 -114.5t-75.5 -128.5t-101 -126.5t-125.5 -90t-152.5 -37.5q-110 0 -165.5 73 t-55.5 230zM199 307q0 -217 123 -217q81 0 166.5 75.5t152 188t115.5 235.5t69 226l19 92q-90 23 -168 23q-101 0 -183 -38t-135.5 -100t-90 -144.5t-52.5 -167.5t-16 -173z" />
<glyph unicode="b" horiz-adv-x="1091" d="M96 16l262 1375q-81 14 -170 20l13 70q129 15 240 15q33 0 65 -1l-105 -539q-14 -76 -114 -409l4 -2q41 104 92.5 190.5t114.5 155t140 107t159 38.5q219 0 219 -303q0 -114 -22.5 -219.5t-72 -202t-122 -168t-179 -113.5t-235.5 -42q-145 0 -289 28zM240 111 q84 -23 168 -23q101 0 183.5 38t136 100t90 144.5t52 167.5t15.5 173q0 217 -123 217q-65 0 -134 -49.5t-126.5 -128.5t-107.5 -175.5t-84 -191t-50 -174.5z" />
<glyph unicode="c" horiz-adv-x="856" d="M72 313q0 196 67.5 358t199.5 260.5t306 98.5q124 0 227 -35l-53 -276l-74 2q-2 29 -2 57q0 70 11 135q-63 17 -123 17q-81 0 -151.5 -36t-119 -95t-83.5 -136t-51.5 -158.5t-16.5 -162.5q0 -39 5 -70.5t20 -65.5t40 -56.5t69 -37t103 -14.5q126 0 252 56l17 -105 q-144 -61 -299 -61q-344 0 -344 325z" />
<glyph unicode="d" horiz-adv-x="1112" d="M68 285q0 114 22.5 219.5t72 202t121.5 168t178.5 113.5t235.5 42q82 0 168 -12l68 373q-77 14 -170 20l14 70q128 15 239 15q33 0 64 -1l-266 -1391q81 -14 170 -20l-14 -70q-125 -15 -237 -15q-34 0 -66 1q20 120 131 477l-4 2q-25 -60 -51.5 -114.5t-75.5 -128.5 t-101 -126.5t-125.5 -90t-152.5 -37.5q-110 0 -165.5 73t-55.5 230zM199 307q0 -217 123 -217q81 0 166.5 75.5t152 188t115.5 235.5t69 226l19 92q-90 23 -168 23q-101 0 -183 -38t-135.5 -100t-90 -144.5t-52.5 -167.5t-16 -173z" />
<glyph unicode="e" horiz-adv-x="952" d="M72 303q0 142 36.5 272t104.5 233t174 164.5t234 61.5q135 0 205.5 -61.5t70.5 -157.5q0 -154 -167.5 -242.5t-508.5 -101.5q-14 -61 -14 -145q0 -138 53.5 -186t190.5 -48q142 0 278 58l8 -105q-144 -61 -336 -61q-167 0 -248 73.5t-81 245.5zM242 580q272 10 396 65 t124 156q0 63 -44 98t-116 35q-131 0 -224.5 -98t-135.5 -256z" />
<glyph unicode="f" horiz-adv-x="684" d="M-389 -510l33 113q79 -23 161 -23q127 0 200 79t112 273l188 983h-217l21 103h217l12 69q38 213 147.5 315.5t296.5 102.5q74 0 166 -18l-33 -109q-76 21 -155 21q-125 0 -196 -74t-99 -235l-12 -72h305l-17 -103h-309l-188 -976q-48 -248 -159.5 -357.5t-297.5 -109.5 q-93 0 -176 18z" />
<glyph unicode="g" horiz-adv-x="1089" d="M-49 -494l29 134q124 -54 268 -54q174 0 273 79.5t136 271.5q26 139 52.5 238t87.5 292l-4 2q-16 -39 -33 -75t-46 -87t-59 -93.5t-71.5 -86.5t-85 -75t-98 -50.5t-111.5 -19.5q-110 0 -165.5 73t-55.5 230q0 113 22.5 219t72.5 202.5t122 168t178.5 113.5t234.5 42 q157 0 289 -29l-213 -1116q-78 -415 -563 -415q-150 0 -260 36zM199 307q0 -217 123 -217q81 0 166.5 75.5t152 188t115.5 235.5t69 226l19 92q-90 23 -168 23q-101 0 -183 -38t-135.5 -100t-90 -144.5t-52.5 -167.5t-16 -173z" />
<glyph unicode="h" horiz-adv-x="1181" d="M94 0l264 1391q-75 13 -170 20l13 70q129 15 240 15q33 0 65 -1l-98 -512q-29 -150 -119 -426l4 -2q39 95 89 178t112.5 152.5t140 110t158.5 40.5q135 0 188 -91q33 -56 33 -141q0 -53 -13 -118l-112 -582q82 -14 168 -20l-13 -70q-128 -15 -237 -15q-33 0 -64 1 l127 659q13 68 13 119q1 52 -13 84q-26 66 -110 66q-79 0 -164.5 -75t-152.5 -187t-116.5 -234.5t-68.5 -224.5l-37 -207h-127z" />
<glyph unicode="i" horiz-adv-x="559" d="M119 0l176 915q-72 12 -168 19l12 70q128 15 237 15q33 0 64 -1l-176 -914q78 -13 170 -20l-12 -70q-129 -15 -239 -15q-33 0 -64 1zM348 1341q0 42 28.5 70.5t67.5 28.5q36 0 61 -25t25 -61q0 -41 -28.5 -70t-65.5 -29t-62.5 25.5t-25.5 60.5z" />
<glyph unicode="j" horiz-adv-x="540" d="M-293 -514l25 117q64 -23 123 -23q111 0 159.5 64.5t83.5 242.5l197 1026q-86 15 -170 21l12 70q128 15 239 15q33 0 64 -1l-223 -1176q-36 -196 -122 -283t-259 -87q-68 0 -129 14zM346 1341q0 42 28.5 70.5t67.5 28.5q38 0 62 -25t24 -61q0 -41 -28.5 -70t-65.5 -29 t-62.5 25.5t-25.5 60.5z" />
<glyph unicode="k" horiz-adv-x="1026" d="M94 0l264 1391q-75 13 -170 20l13 70q129 15 240 15q33 0 65 -1l-53 -278q-37 -195 -125 -469l4 -3q128 289 385 289q114 0 174.5 -54t60.5 -146q0 -133 -107.5 -224t-350.5 -139l211 -371q87 -9 165 -28l-14 -72h-254l-283 520l-98 -520h-127zM328 541q269 42 379 103 t110 163q0 53 -34 88t-97 35q-54 0 -106.5 -28t-91.5 -70.5t-72.5 -96.5t-54.5 -102.5t-33 -91.5z" />
<glyph unicode="l" horiz-adv-x="536" d="M94 0l264 1391q-75 13 -170 20l13 70q128 15 239 15q33 0 64 -1l-264 -1391q83 -14 166 -20l-13 -70q-125 -15 -235 -15q-33 0 -64 1z" />
<glyph unicode="m" horiz-adv-x="1824" d="M119 0l174 913q-77 14 -166 21l12 70q109 16 224 16q38 0 77 -2q-35 -175 -127 -461l4 -2q37 94 86 177t111 153t138.5 110.5t156.5 40.5q99 0 150 -52t51 -146q0 -56 -14 -115.5t-48 -167.5h4q37 94 86 177t111 153t138.5 110.5t156.5 40.5q130 0 182 -92 q32 -56 32 -141q0 -53 -13 -117l-113 -582q81 -14 166 -20l-12 -70q-125 -15 -235 -15q-33 0 -65 1l127 659q13 68 13 119q0 152 -115 152q-93 0 -197.5 -108.5t-184.5 -275.5t-111 -339l-39 -207h-127l127 659q13 70 13 122q0 51 -12 83q-26 66 -104 66q-92 0 -196.5 -108 t-185 -276t-111.5 -339l-39 -207h-125z" />
<glyph unicode="n" horiz-adv-x="1208" d="M119 0l174 913q-89 16 -166 21l12 70q128 15 237 15q33 0 64 -1q-24 -142 -125 -461l4 -2q39 95 88.5 178t112 152.5t140 110t159.5 40.5q135 0 187 -91q33 -57 34 -145q0 -52 -12 -114l-113 -582q83 -14 166 -20l-12 -70q-125 -15 -235 -15q-33 0 -64 1l125 659 q14 70 14 121q1 50 -13 82q-26 66 -110 66q-80 0 -165 -75t-151 -186t-115 -230.5t-68 -217.5l-43 -219h-125z" />
<glyph unicode="o" horiz-adv-x="1087" d="M74 342q0 195 72 353t203 248.5t296 90.5q183 0 274 -97t91 -265q0 -154 -48.5 -285t-129.5 -218t-185.5 -136t-216.5 -49q-176 0 -266 91t-90 267zM207 367q0 -137 60.5 -206t189.5 -69q80 0 154.5 40.5t132.5 112.5t93 180t35 234q0 269 -247 269q-120 0 -217 -79 t-149 -206.5t-52 -275.5z" />
<glyph unicode="p" horiz-adv-x="1118" d="M-135 -514l12 72q79 20 162 26l254 1329q-80 14 -166 21l12 70q117 15 232 15q35 0 69 -1q-19 -115 -127 -471l4 -2q41 104 92.5 190.5t114.5 155t139 107t158 38.5q221 0 221 -303q0 -114 -22.5 -219.5t-72 -201.5t-121.5 -167t-178.5 -113t-235.5 -42q-88 0 -168 12 l-78 -418q88 -6 170 -26l-12 -72h-459zM268 121q81 -31 168 -31q99 0 181 38t135.5 99.5t90 143.5t52.5 167t16 173q0 217 -123 217q-65 0 -134 -49.5t-126.5 -128.5t-108 -175.5t-84.5 -191t-50 -174.5z" />
<glyph unicode="q" horiz-adv-x="1091" d="M68 285q0 114 22.5 219.5t72 202t121.5 168t178.5 113.5t235.5 42q157 0 289 -29l-268 -1417q83 -6 166 -26l-13 -72h-473l13 72q93 20 180 26l76 406q30 160 131 487l-4 2q-25 -60 -51.5 -114.5t-75.5 -128.5t-101 -126.5t-125.5 -90t-152.5 -37.5q-110 0 -165.5 73 t-55.5 230zM199 307q0 -217 125 -217q80 0 165 75.5t151.5 188t115.5 235.5t69 226l19 92q-90 23 -168 23q-101 0 -183 -38t-135.5 -100t-90 -144.5t-52.5 -167.5t-16 -173z" />
<glyph unicode="r" horiz-adv-x="743" d="M119 0l176 913q-87 16 -168 21l12 70q128 15 237 15q33 0 64 -1q-21 -126 -118 -424l4 -2q34 75 62 130t63.5 112.5t71.5 94.5t79 65q42 28 92 38q25 5 51 5q27 0 56 -5l-25 -125q-21 5 -41 5q-51 0 -103 -32q-72 -45 -126.5 -124.5t-101.5 -179.5t-75.5 -186.5 t-41.5 -151.5l-43 -238h-125z" />
<glyph unicode="s" horiz-adv-x="798" d="M29 -2l55 289h72q0 -105 -9 -187q50 -8 97 -8q120 0 193 49.5t73 141.5q0 50 -36.5 92t-88 75t-103 70t-88 93t-36.5 126q0 128 100.5 211.5t280.5 83.5q101 0 186 -16l-53 -279h-72q0 110 8 189q-40 6 -88 6q-111 0 -171 -49.5t-60 -128.5q0 -38 19.5 -71.5t50.5 -59 t68.5 -50.5t75 -52t68.5 -57t50.5 -71.5t19.5 -89.5q0 -133 -117 -227t-311 -94q-110 0 -184 14z" />
<glyph unicode="t" horiz-adv-x="741" d="M76 915l22 103h228l65 344l135 33l-73 -377h303l-21 -103h-301l-112 -583q-14 -74 -14 -123q0 -40 10 -61q22 -48 108 -48q76 0 149 17l-4 -113q-99 -18 -176 -18q-148 0 -194 74q-27 43 -27 118q0 54 14 125l117 612h-229z" />
<glyph unicode="u" horiz-adv-x="1208" d="M125 934l12 70q128 15 236 15q32 0 63 -1l-125 -660q-13 -69 -13 -119.5t13 -83.5q26 -65 109 -65q80 0 165.5 75t151.5 187t115.5 234.5t69.5 224.5l18 102q-86 15 -168 21l14 70q125 15 235 15q33 0 64 -1l-174 -914q75 -13 170 -20l-12 -70q-125 -15 -238 -15 q-34 0 -67 1q22 129 127 461l-4 2q-39 -95 -88.5 -178t-112 -152.5t-140 -110t-159.5 -40.5q-135 0 -187 91q-33 57 -34 145q0 52 12 114l111 579q-107 19 -164 23z" />
<glyph unicode="v" horiz-adv-x="1019" d="M90 934l12 70q120 15 212 15q24 0 46 -1l97 -721q11 -95 14 -168h2l485 930l121 -47l-563 -1012h-139l-137 913q-104 18 -150 21z" />
<glyph unicode="w" horiz-adv-x="1476" d="M59 934l13 70q123 15 225 15q27 0 53 -1l80 -887h2l332 655l-12 127q-89 15 -170 21l12 70q110 15 214 15q31 0 62 -1l88 -889h3l446 930l119 -45l-514 -1014h-154l-70 608l-309 -608h-149l-105 913q-85 15 -166 21z" />
<glyph unicode="x" horiz-adv-x="1103" d="M2 23l471 497l-166 400q-128 16 -172 28l12 70h267l153 -404l422 457l90 -74l-461 -489l179 -408q124 -15 182 -30l-14 -70h-275l-168 412l-428 -469z" />
<glyph unicode="y" horiz-adv-x="1048" d="M-190 -514l22 123q58 -21 131 -21q57 0 123.5 38t126.5 104q69 78 100 163.5t31 206.5q0 340 -113 813q-92 16 -168 21l13 70q125 15 225 15q26 0 51 -1q53 -219 85 -445t32 -380q0 -86 -20 -181h4q248 425 508 1047l120 -39q-430 -1014 -786 -1370q-184 -178 -348 -178 q-82 0 -137 14z" />
<glyph unicode="z" horiz-adv-x="872" d="M-4 0l18 92l668 821q-140 -4 -276 -4h-123q-35 -111 -60 -168h-73l55 277h649l-18 -90l-668 -817q132 4 285 4h137q23 85 61 174h74l-55 -289h-674z" />
<glyph unicode="{" horiz-adv-x="655" d="M74 600l22 107q131 7 185 53.5t77 167.5l56 284q66 359 342 359h37l-19 -96q-110 0 -163 -56t-79 -198l-55 -283q-49 -263 -244 -287v-4q89 -13 123 -86t11 -192l-80 -416q-26 -142 4 -197t137 -55l-18 -100h-33q-100 0 -154.5 46t-63 126t10.5 188l82 416 q23 118 -16.5 166.5t-161.5 56.5z" />
<glyph unicode="|" horiz-adv-x="567" d="M37 -514l389 2048h100l-389 -2048h-100z" />
<glyph unicode="}" horiz-adv-x="657" d="M-96 -397l18 100q110 0 162 55t80 197l78 414q47 262 243 286v4q-88 13 -122 86t-11 193l56 285q28 142 -2.5 198t-137.5 56l17 96h26q62 0 107.5 -19t71.5 -51.5t38 -78.5t10.5 -98t-14.5 -112l-57 -286q-23 -118 16.5 -165.5t161.5 -55.5l-22 -107q-131 -7 -185.5 -54 t-77.5 -169l-77 -414q-36 -186 -115.5 -273t-228.5 -87h-35z" />
<glyph unicode="~" d="M215 913q6 130 79.5 209.5t188.5 79.5q52 0 94 -17.5t66.5 -43t50 -56t45.5 -56t51.5 -43t69.5 -17.5q70 0 111 54.5t49 139.5h96q-6 -131 -79.5 -211t-188.5 -80q-45 0 -82 13t-62 33.5t-46 45.5t-40 50t-39 45.5t-47.5 33.5t-60.5 13q-70 0 -111 -54.5t-49 -138.5h-96z " />
<glyph unicode="&#xa1;" horiz-adv-x="638" d="M45 -414l238 1116h102l-188 -1116h-152zM281 936q0 41 27.5 69.5t68.5 28.5t67.5 -28t26.5 -68q0 -41 -27.5 -69.5t-68.5 -28.5t-67.5 28t-26.5 68z" />
<glyph unicode="&#xa2;" horiz-adv-x="1052" d="M174 582q0 98 22.5 189t69 171t112.5 141t158.5 100.5t202.5 49.5l29 151h102l-26 -149q137 -4 241 -39l-49 -276h-78q0 119 7 190q-78 20 -168 20q-225 0 -354.5 -139t-129.5 -375q0 -143 78.5 -227t231.5 -84q162 0 309 55l-2 -112q-129 -47 -287 -60l-37 -192h-100 l37 192q-171 11 -270 112t-99 282z" />
<glyph unicode="&#xa3;" horiz-adv-x="962" d="M31 0l18 92q143 100 205.5 190.5t89.5 225.5q9 42 21 180h-228l21 98h215q19 214 26 258q31 197 134 276t288 79q62 0 170 -19l-53 -274h-74q-3 86 4 182q-50 4 -77 4q-113 0 -179.5 -59.5t-87.5 -167.5q-4 -29 -7.5 -69.5t-8.5 -104.5t-8 -105h325l-20 -98h-316 q-11 -123 -20 -168q-30 -151 -79 -237t-173 -179q113 11 172 11h330q26 95 67 188h76l-55 -303h-776z" />
<glyph unicode="&#xa4;" d="M92 215l191 188q-47 63 -47 170q0 103 38.5 199.5t120.5 167.5l-127 203l101 65l114 -213q89 45 189 45q115 0 178 -45l201 213l75 -73l-206 -209q34 -53 34 -144q0 -212 -143 -350l139 -223l-100 -68l-127 228q-105 -60 -205 -60q-98 0 -156 33l-188 -201zM360 592 q0 -83 43.5 -132.5t139.5 -49.5q82 0 150 52.5t104.5 132.5t36.5 165q0 82 -45.5 131t-141.5 49q-89 0 -156.5 -53t-99 -131t-31.5 -164z" />
<glyph unicode="&#xa5;" horiz-adv-x="1222" d="M127 231l16 93h346l31 159h-346l19 92h311l-203 711q-59 6 -129 27l14 69h437l-15 -69q-87 -23 -172 -29l109 -420q43 -154 61 -243h2q30 50 96 151t72 111l256 401q-79 6 -158 29l17 69h442l-16 -69q-79 -21 -137 -27l-482 -711h314l-19 -92h-344l-31 -159h345l-17 -93 h-346l-29 -135q95 -6 174 -28l-14 -68h-477l12 68q85 22 178 28l27 135h-344z" />
<glyph unicode="&#xa6;" horiz-adv-x="567" d="M35 -514l145 774h101l-146 -774h-100zM281 780l143 754h100l-143 -754h-100z" />
<glyph unicode="&#xa7;" horiz-adv-x="1030" d="M119 -311l24 110q86 -26 146 -26t106.5 22.5t72.5 57.5t39 73t13 74q0 54 -33.5 116t-80.5 121.5t-94.5 123t-81 141.5t-33.5 155q0 196 217 347q-45 91 -45 161q0 39 11.5 82.5t39.5 90t69 83.5t106 60.5t144 23.5q83 0 144 -18l-25 -111q-70 23 -125 23 q-53 0 -94.5 -16t-66.5 -40t-41.5 -55.5t-22.5 -59.5t-6 -54q0 -51 33.5 -111.5t81 -120.5t95.5 -123.5t81.5 -143t33.5 -157.5q0 -198 -219 -344q43 -75 43 -156q0 -141 -105 -246.5t-270 -105.5q-87 0 -157 23zM322 674q0 -50 24 -107.5t50 -96t78.5 -108.5t74.5 -102 q77 48 114 111.5t37 128.5q0 41 -13 83t-40 86t-51.5 78.5t-63.5 86.5t-61 84q-149 -90 -149 -244z" />
<glyph unicode="&#xa8;" horiz-adv-x="1095" d="M412 1343q0 41 26 67t64 26q36 0 61 -24t25 -58q0 -41 -26.5 -67.5t-63.5 -26.5q-36 0 -61 24.5t-25 58.5zM791 1346q0 39 26.5 64.5t63.5 25.5q36 0 61 -24t25 -58q0 -41 -26.5 -67.5t-63.5 -26.5q-38 0 -62 25t-24 61z" />
<glyph unicode="&#xa9;" horiz-adv-x="1509" d="M117 662q0 195 93.5 356.5t251.5 252.5t345 91q181 0 328.5 -86t229.5 -233.5t81 -325.5q-1 -147 -56.5 -278.5t-148.5 -224.5t-219.5 -147.5t-265.5 -54.5q-186 0 -333 86t-227 234.5t-79 329.5zM225 666q0 -150 69 -276.5t193 -201.5t275 -75q156 0 287.5 77.5 t209.5 216.5t78 308q1 147 -68 272.5t-192.5 200t-273.5 74.5q-156 0 -288 -77t-210.5 -214.5t-79.5 -304.5zM461 573q2 134 51.5 241.5t144.5 172t220 64.5q76 0 159 -17l-45 -235h-65q0 79 6 155q-25 4 -76 4q-75 0 -131 -35.5t-86 -92.5t-44 -116t-15 -120 q-3 -174 168 -174q89 0 180 31l-2 -97q-88 -28 -199 -28q-144 0 -206 64.5t-60 182.5z" />
<glyph unicode="&#xaa;" horiz-adv-x="792" d="M135 485l21 103h559l-21 -103h-559zM176 915q0 94 27 178.5t78 151.5t132 106.5t181 39.5q108 0 207 -17q-80 -413 -103 -551q70 -11 113 -14l-14 -70q-130 -16 -228 -10q9 56 64 221h-2q-50 -109 -125.5 -170t-165.5 -61q-85 0 -124.5 49t-39.5 147zM289 942 q0 -68 20 -97.5t60 -29.5q97 0 181 123t116 289l12 61q-49 12 -109 12q-86 0 -151.5 -54t-97 -134t-31.5 -170z" />
<glyph unicode="&#xab;" horiz-adv-x="972" d="M145 608l299 346l86 -63l-249 -287l157 -291l-102 -57zM504 608l313 344l86 -63l-266 -285l176 -289l-102 -57z" />
<glyph unicode="&#xac;" d="M98 555l23 109h885l-84 -441h-111l63 332h-776z" />
<glyph unicode="&#xad;" horiz-adv-x="655" d="M104 549l21 106h459l-23 -106h-457z" />
<glyph unicode="&#xae;" horiz-adv-x="1128" d="M242 1053q0 128 63.5 234.5t166 165t218.5 58.5q172 0 288 -116.5t116 -292.5q0 -124 -64 -229.5t-166.5 -164.5t-216.5 -59q-173 0 -289 117t-116 287zM342 1067q0 -134 90 -231t219 -97q138 0 241 103.5t103 255.5q0 131 -90 227t-219 96q-139 0 -241.5 -102 t-102.5 -252zM453 846l6 45q26 15 57 20l64 344q-32 6 -50 21l9 45h184q72 0 106.5 -26t32.5 -74q0 -65 -39 -106t-98 -52l29 -64l32 -88q31 -7 54 -20l-6 -45h-111l-76 209h-24l-29 -144q29 -9 49 -20l-6 -45h-184zM633 1112h33q53 0 83.5 28.5t30.5 67.5q0 47 -63 47h-58z " />
<glyph unicode="&#xaf;" horiz-adv-x="792" d="M303 1288l19 98h479l-19 -98h-479z" />
<glyph unicode="&#xb0;" horiz-adv-x="737" d="M256 1243q0 119 80 189.5t184 70.5q112 0 174 -62.5t62 -162.5q0 -80 -39 -141t-98.5 -90t-126.5 -29q-111 0 -173.5 62t-62.5 163zM367 1251q0 -65 35.5 -104t99.5 -39q62 0 103.5 44.5t41.5 117.5q0 33 -10 63t-42 55t-83 25q-62 0 -103.5 -44.5t-41.5 -117.5z" />
<glyph unicode="&#xb1;" d="M-6 0l22 109h942l-20 -109h-944zM121 672l20 108h412l80 418h123l-82 -418h411l-18 -108h-412l-80 -422h-122l79 422h-411z" />
<glyph unicode="&#xb2;" horiz-adv-x="681" d="M70 553l18 94l270 219q109 89 159 157t50 132q0 139 -139 139q-54 0 -98 -16q-22 -76 -60 -170h-75l45 246q115 39 211 39q120 0 181.5 -57t61.5 -160q0 -163 -229 -351l-203 -163q159 7 375 4l-21 -113h-546z" />
<glyph unicode="&#xb3;" horiz-adv-x="636" d="M82 553l33 102q59 -20 147 -20q103 0 161 47t58 125q0 64 -71.5 94t-208.5 12l18 97q158 0 241 47.5t83 130.5q0 49 -27.5 78.5t-87.5 29.5q-53 0 -84 -8q-19 -71 -53 -145h-76l43 229q99 21 184 21q119 0 172.5 -50t53.5 -135q0 -80 -53.5 -142.5t-145.5 -88.5 q64 -10 102.5 -53.5t38.5 -102.5q0 -122 -102 -203t-258 -81q-90 0 -168 16z" />
<glyph unicode="&#xb4;" horiz-adv-x="772" d="M346 1255l277 254l73 -90l-293 -235z" />
<glyph unicode="&#xb5;" horiz-adv-x="1210" d="M66 -514q1 197 21 370.5t44 279t63.5 265.5t61.5 271l45 239q-103 18 -170 23l12 70q168 20 306 14l-113 -586q-33 -188 -7 -265t113 -77q77 0 161 75t150 187t115 234.5t68 224.5l20 102q-90 15 -168 21l13 70q167 20 301 14l-119 -631q-27 -138 -27 -217q0 -40 15 -56 t47 -16q24 0 49 4l-2 -106q-44 -8 -80 -8q-74 0 -114 33.5t-40 117.5q0 129 74 324h-2q-38 -95 -87 -178t-110 -152.5t-135 -110t-151 -40.5q-167 0 -184 157q-4 -102 -11 -149q-32 -226 -32 -504h-127z" />
<glyph unicode="&#xb6;" horiz-adv-x="1128" d="M221 862q0 93 34.5 184t97.5 166.5t163.5 122.5t220.5 47l-162 -850q-176 -1 -265 89.5t-89 240.5zM434 -197l19 97h151l281 1482h272l-16 -96h-150l-282 -1483h-275z" />
<glyph unicode="&#xb7;" horiz-adv-x="428" d="M123 604q0 45 33 77t77 32q41 0 70 -30t29 -71q0 -45 -32.5 -76.5t-76.5 -31.5q-41 0 -70.5 29.5t-29.5 70.5z" />
<glyph unicode="&#xb8;" horiz-adv-x="802" d="M190 -483q69 75 100.5 129t32.5 108t-36 111l119 51q40 -64 40 -130.5t-33.5 -130t-99.5 -138.5h-123z" />
<glyph unicode="&#xb9;" horiz-adv-x="585" d="M80 553l14 68q74 22 189 28l118 615l-204 -78v110l254 86h102l-143 -733q83 -7 157 -28l-12 -68h-475z" />
<glyph unicode="&#xba;" horiz-adv-x="835" d="M141 485l23 103h528l-20 -103h-531zM197 948q0 117 45 218.5t133 166t200 64.5q256 0 256 -234q0 -108 -34.5 -195.5t-91.5 -140t-125.5 -80.5t-141.5 -28q-241 0 -241 229zM326 973q0 -150 131 -150q106 0 175.5 93t69.5 229q0 66 -32.5 108.5t-106.5 42.5 q-62 0 -110 -32t-74.5 -82.5t-39.5 -104t-13 -104.5z" />
<glyph unicode="&#xbb;" horiz-adv-x="972" d="M137 322l269 286l-177 287l103 59l207 -352l-314 -344zM510 322l252 286l-160 289l105 57l188 -352l-297 -344z" />
<glyph unicode="&#xbc;" horiz-adv-x="1390" d="M-8 -16l1341 1452l60 -52l-1344 -1454zM76 686l10 57q78 22 170 27l96 512l-159 -72l-13 90l205 86h100l-116 -616q56 -5 147 -27l-10 -57h-430zM621 166l2 72l393 458h141l-84 -438h139l-18 -92h-139l-17 -92q54 -12 90 -23l-10 -51h-303l10 51l103 23l16 92h-323z M745 258h218l63 336z" />
<glyph unicode="&#xbd;" horiz-adv-x="1386" d="M-23 -16l1340 1452l57 -52l-1343 -1454zM76 686l10 57q78 22 170 27l96 512l-159 -72l-13 90l205 86h100l-116 -616q56 -5 147 -27l-10 -57h-430zM688 0l12 68l240 204q79 65 117.5 113.5t48.5 106.5q11 61 -15 97t-87 36q-38 0 -78 -15q-8 -19 -26.5 -65t-29.5 -72h-63 l43 201q95 35 199 35q102 0 149 -56t31 -139q-12 -76 -59.5 -137t-125.5 -129l-190 -158h307l-16 -90h-457z" />
<glyph unicode="&#xbe;" horiz-adv-x="1390" d="M-8 -16l1341 1452l60 -52l-1344 -1454zM102 696q11 33 39 90q52 -20 119 -20q83 0 138 29.5t65 89.5q13 62 -29.5 86t-146.5 22q-41 0 -70 -2l19 86h55q87 0 141.5 35.5t65.5 91.5q10 50 -16.5 82.5t-100.5 32.5q-25 0 -53 -8l-43 -107h-60l35 176q99 21 162 21 q114 0 162 -46t32 -126q-25 -126 -159 -178q69 -12 102 -54.5t21 -99.5q-21 -107 -119 -163t-234 -56q-46 0 -125 18zM621 166l2 72l393 458h141l-84 -438h139l-18 -92h-139l-17 -92q54 -12 90 -23l-10 -51h-303l10 51l103 23l16 92h-323zM745 258h218l63 336z" />
<glyph unicode="&#xbf;" horiz-adv-x="884" d="M27 -63q0 67 27.5 125t70.5 100.5t94.5 84t101 85.5t88 94t57 120.5t7.5 155.5h127q12 -90 -5.5 -166.5t-55 -130.5t-85.5 -101t-98 -87.5t-92 -79.5t-69 -87.5t-27 -102.5q0 -93 103.5 -163t260.5 -91l-38 -119q-209 24 -338 127.5t-129 235.5zM483 936q0 41 29 69.5 t70 28.5q40 0 67 -28t27 -68q0 -41 -28 -69.5t-68 -28.5q-41 0 -69 28t-28 68z" />
<glyph unicode="&#xc0;" horiz-adv-x="1378" d="M-88 0l12 70q81 21 135 26l723 1286h144l227 -1284q54 -5 129 -28l-14 -70h-443l15 70q82 22 176 28l-43 264h-625l-145 -264q91 -7 162 -28l-13 -70h-440zM406 469h550l-102 584q-21 132 -25 192h-2l-96 -186zM575 1618l54 111l342 -152l-35 -78z" />
<glyph unicode="&#xc1;" horiz-adv-x="1378" d="M-88 0l12 70q81 21 135 26l723 1286h144l227 -1284q54 -5 129 -28l-14 -70h-443l15 70q82 22 176 28l-43 264h-625l-145 -264q91 -7 162 -28l-13 -70h-440zM406 469h550l-102 584q-21 132 -25 192h-2l-96 -186zM748 1577l356 152l35 -111l-365 -119z" />
<glyph unicode="&#xc2;" horiz-adv-x="1378" d="M-88 0l12 70q81 21 135 26l723 1286h144l227 -1284q54 -5 129 -28l-14 -70h-443l15 70q82 22 176 28l-43 264h-625l-145 -264q91 -7 162 -28l-13 -70h-440zM406 469h550l-102 584q-21 132 -25 192h-2l-96 -186zM575 1573l334 172l285 -166l-51 -84l-244 133l-285 -133z " />
<glyph unicode="&#xc3;" horiz-adv-x="1378" d="M-88 0l12 70q81 21 135 26l723 1286h144l227 -1284q54 -5 129 -28l-14 -70h-443l15 70q82 22 176 28l-43 264h-625l-145 -264q91 -7 162 -28l-13 -70h-440zM406 469h550l-102 584q-21 132 -25 192h-2l-96 -186zM549 1587q79 137 213 137q45 0 84.5 -17.5t64 -38.5 t56 -38.5t61.5 -17.5q73 0 137 94l68 -53q-39 -65 -94 -101t-119 -36q-45 0 -84.5 18t-64 39t-56 39t-61.5 18q-76 0 -138 -96z" />
<glyph unicode="&#xc4;" horiz-adv-x="1378" d="M-88 0l12 70q81 21 135 26l723 1286h144l227 -1284q54 -5 129 -28l-14 -70h-443l15 70q82 22 176 28l-43 264h-625l-145 -264q91 -7 162 -28l-13 -70h-440zM406 469h550l-102 584q-21 132 -25 192h-2l-96 -186zM588 1589q0 37 26.5 63.5t61.5 26.5q37 0 61.5 -24.5 t24.5 -61.5t-26.5 -62.5t-63.5 -25.5t-60.5 23.5t-23.5 60.5zM1012 1589q0 37 26.5 63.5t63.5 26.5t60.5 -24.5t23.5 -61.5t-26.5 -62.5t-63.5 -25.5q-36 0 -60 24t-24 60z" />
<glyph unicode="&#xc5;" horiz-adv-x="1378" d="M-88 0l12 70q81 21 135 26l723 1286h144l227 -1284q54 -5 129 -28l-14 -70h-443l15 70q82 22 176 28l-43 264h-625l-145 -264q91 -7 162 -28l-13 -70h-440zM406 469h550l-102 584q-21 132 -25 192h-2l-96 -186zM705 1640q0 90 63.5 149.5t146.5 59.5q79 0 132 -51.5 t53 -128.5q0 -88 -64 -149.5t-147 -61.5q-79 0 -131.5 51.5t-52.5 130.5zM791 1647q0 -44 30.5 -76.5t73.5 -32.5q47 0 82 36.5t35 88.5q0 44 -29 76.5t-74 32.5q-47 0 -82.5 -36.5t-35.5 -88.5z" />
<glyph unicode="&#xc6;" horiz-adv-x="1660" d="M-162 0l15 70q75 20 133 26l876 1188q-87 6 -168 29l17 69h952l-55 -297h-82q-4 129 4 193h-420l-96 -514h338q21 73 63 160h70l-80 -420h-72q-6 49 -2 158h-338l-106 -556h440q23 77 70 197h82l-58 -303h-850l13 70q86 22 172 28l53 262h-483l-193 -262q85 -6 158 -28 l-12 -70h-441zM399 467h428l156 805h-6q-58 -90 -191 -275z" />
<glyph unicode="&#xc7;" horiz-adv-x="1171" d="M117 455q0 150 31.5 288.5t96.5 257.5t156.5 207t219 138.5t276.5 50.5q163 0 313 -43l-59 -293h-82q0 133 12 196q-96 29 -217 29q-102 0 -190.5 -32t-153.5 -89.5t-116 -134.5t-82.5 -168.5t-47.5 -189t-16 -199.5q0 -86 18.5 -151.5t60.5 -116.5t116 -78t178 -27 q74 0 176.5 23.5t175.5 56.5l14 -114q-191 -80 -393 -80q-487 0 -487 469zM350 -483q69 75 100.5 129.5t32 108t-36.5 110.5l119 51q40 -64 40 -130.5t-33 -130t-99 -138.5h-123z" />
<glyph unicode="&#xc8;" horiz-adv-x="1056" d="M-37 0l14 70q81 21 181 28l223 1186q-90 6 -170 29l14 69h844l-57 -297h-82q0 142 4 193h-426l-96 -514h338q35 112 65 160h70l-80 -420h-72q-11 64 -4 158h-336l-106 -556h426q38 117 71 197h82l-57 -303h-846zM436 1618l53 111l342 -152l-34 -78z" />
<glyph unicode="&#xc9;" horiz-adv-x="1056" d="M-37 0l14 70q81 21 181 28l223 1186q-90 6 -170 29l14 69h844l-57 -297h-82q0 142 4 193h-426l-96 -514h338q35 112 65 160h70l-80 -420h-72q-11 64 -4 158h-336l-106 -556h426q38 117 71 197h82l-57 -303h-846zM596 1577l356 152l35 -111l-364 -119z" />
<glyph unicode="&#xca;" horiz-adv-x="1056" d="M-37 0l14 70q81 21 181 28l223 1186q-90 6 -170 29l14 69h844l-57 -297h-82q0 142 4 193h-426l-96 -514h338q35 112 65 160h70l-80 -420h-72q-11 64 -4 158h-336l-106 -556h426q38 117 71 197h82l-57 -303h-846zM420 1573l334 172l284 -166l-51 -84l-244 133l-284 -133z " />
<glyph unicode="&#xcb;" horiz-adv-x="1056" d="M-37 0l14 70q81 21 181 28l223 1186q-90 6 -170 29l14 69h844l-57 -297h-82q0 142 4 193h-426l-96 -514h338q35 112 65 160h70l-80 -420h-72q-11 64 -4 158h-336l-106 -556h426q38 117 71 197h82l-57 -303h-846zM418 1589q0 37 26.5 63.5t61.5 26.5q37 0 61.5 -24.5 t24.5 -61.5t-26.5 -62.5t-63.5 -25.5t-60.5 23.5t-23.5 60.5zM842 1589q0 37 26.5 63.5t63.5 26.5t60.5 -24.5t23.5 -61.5t-26.5 -62.5t-63.5 -25.5q-36 0 -60 24t-24 60z" />
<glyph unicode="&#xcc;" horiz-adv-x="604" d="M-37 0l12 70q84 21 181 28l225 1186q-87 6 -168 29l12 69h477l-12 -69q-91 -23 -180 -29l-225 -1186q94 -6 170 -28l-15 -70h-477zM213 1618l53 111l342 -152l-35 -78z" />
<glyph unicode="&#xcd;" horiz-adv-x="604" d="M-37 0l12 70q84 21 181 28l225 1186q-87 6 -168 29l12 69h477l-12 -69q-91 -23 -180 -29l-225 -1186q94 -6 170 -28l-15 -70h-477zM379 1577l356 152l35 -111l-364 -119z" />
<glyph unicode="&#xce;" horiz-adv-x="604" d="M-37 0l12 70q84 21 181 28l225 1186q-87 6 -168 29l12 69h477l-12 -69q-91 -23 -180 -29l-225 -1186q94 -6 170 -28l-15 -70h-477zM199 1573l333 172l285 -166l-51 -84l-244 133l-284 -133z" />
<glyph unicode="&#xcf;" horiz-adv-x="604" d="M-37 0l12 70q84 21 181 28l225 1186q-87 6 -168 29l12 69h477l-12 -69q-91 -23 -180 -29l-225 -1186q94 -6 170 -28l-15 -70h-477zM203 1589q0 37 26.5 63.5t61.5 26.5q37 0 61.5 -24.5t24.5 -61.5t-26.5 -62.5t-63.5 -25.5t-60.5 23.5t-23.5 60.5zM627 1589 q0 37 26.5 63.5t63.5 26.5t60.5 -24.5t23.5 -61.5t-26.5 -62.5t-63.5 -25.5q-36 0 -60 24t-24 60z" />
<glyph unicode="&#xd0;" horiz-adv-x="1445" d="M-14 0l14 70q86 22 178 28l107 566h-203l20 102h203l98 518q-86 6 -167 29l12 69h172q38 0 173.5 3.5t201.5 3.5q132 0 235 -25.5t170.5 -70t111.5 -109t62.5 -138t18.5 -161.5q0 -138 -33.5 -266t-106 -242.5t-177 -199t-257 -134t-336.5 -49.5q-78 0 -182.5 3t-142.5 3 h-172zM311 117q111 -15 193 -15q156 0 284 44t213.5 117.5t144.5 173.5t85 208.5t26 224.5q0 92 -23.5 163.5t-77 129t-150 88.5t-232.5 31q-71 0 -242 -6l-98 -510h322l-21 -102h-321z" />
<glyph unicode="&#xd1;" horiz-adv-x="1482" d="M-37 0l14 70q84 21 181 28l223 1186q-87 6 -168 29l12 69h336l412 -960q60 -142 110 -287l99 559l106 590q-83 6 -164 29l15 69h442l-12 -69q-81 -21 -154 -29l-244 -1284h-159l-414 963q-80 191 -109 290q-33 -228 -102 -606l-100 -549q92 -6 164 -28l-13 -70h-475z M618 1587q79 137 213 137q45 0 85 -17.5t64 -38.5t56 -38.5t62 -17.5q73 0 137 94l68 -53q-39 -65 -94 -101t-119 -36q-45 0 -85 18t-64 39t-56 39t-62 18q-75 0 -137 -96z" />
<glyph unicode="&#xd2;" horiz-adv-x="1417" d="M109 483q0 249 101.5 459t281 333.5t397.5 123.5q232 0 358.5 -130.5t126.5 -367.5q0 -193 -61.5 -364t-166.5 -292t-249 -191t-305 -70q-240 0 -361.5 129t-121.5 370zM250 500q0 -187 92.5 -295.5t263.5 -108.5q126 0 241 61t200 165t135.5 251.5t50.5 313.5 q0 190 -92.5 295.5t-274.5 105.5q-173 0 -315 -106.5t-221.5 -287t-79.5 -394.5zM616 1618l54 111l342 -152l-35 -78z" />
<glyph unicode="&#xd3;" horiz-adv-x="1417" d="M109 483q0 249 101.5 459t281 333.5t397.5 123.5q232 0 358.5 -130.5t126.5 -367.5q0 -193 -61.5 -364t-166.5 -292t-249 -191t-305 -70q-240 0 -361.5 129t-121.5 370zM250 500q0 -187 92.5 -295.5t263.5 -108.5q126 0 241 61t200 165t135.5 251.5t50.5 313.5 q0 190 -92.5 295.5t-274.5 105.5q-173 0 -315 -106.5t-221.5 -287t-79.5 -394.5zM831 1577l357 152l35 -111l-365 -119z" />
<glyph unicode="&#xd4;" horiz-adv-x="1417" d="M109 483q0 249 101.5 459t281 333.5t397.5 123.5q232 0 358.5 -130.5t126.5 -367.5q0 -193 -61.5 -364t-166.5 -292t-249 -191t-305 -70q-240 0 -361.5 129t-121.5 370zM250 500q0 -187 92.5 -295.5t263.5 -108.5q126 0 241 61t200 165t135.5 251.5t50.5 313.5 q0 190 -92.5 295.5t-274.5 105.5q-173 0 -315 -106.5t-221.5 -287t-79.5 -394.5zM618 1573l334 172l285 -166l-51 -84l-244 133l-285 -133z" />
<glyph unicode="&#xd5;" horiz-adv-x="1417" d="M109 483q0 249 101.5 459t281 333.5t397.5 123.5q232 0 358.5 -130.5t126.5 -367.5q0 -193 -61.5 -364t-166.5 -292t-249 -191t-305 -70q-240 0 -361.5 129t-121.5 370zM250 500q0 -187 92.5 -295.5t263.5 -108.5q126 0 241 61t200 165t135.5 251.5t50.5 313.5 q0 190 -92.5 295.5t-274.5 105.5q-173 0 -315 -106.5t-221.5 -287t-79.5 -394.5zM600 1587q79 137 213 137q45 0 84.5 -17.5t64 -38.5t56 -38.5t61.5 -17.5q74 0 138 94l67 -53q-39 -65 -94 -101t-119 -36q-45 0 -84.5 18t-64 39t-56 39t-61.5 18q-75 0 -137 -96z" />
<glyph unicode="&#xd6;" horiz-adv-x="1417" d="M109 483q0 249 101.5 459t281 333.5t397.5 123.5q232 0 358.5 -130.5t126.5 -367.5q0 -193 -61.5 -364t-166.5 -292t-249 -191t-305 -70q-240 0 -361.5 129t-121.5 370zM250 500q0 -187 92.5 -295.5t263.5 -108.5q126 0 241 61t200 165t135.5 251.5t50.5 313.5 q0 190 -92.5 295.5t-274.5 105.5q-173 0 -315 -106.5t-221.5 -287t-79.5 -394.5zM608 1589q0 37 26.5 63.5t61.5 26.5q37 0 61.5 -24.5t24.5 -61.5t-26.5 -62.5t-63.5 -25.5t-60.5 23.5t-23.5 60.5zM1032 1589q0 37 26.5 63.5t63.5 26.5t60.5 -24.5t23.5 -61.5t-26.5 -62.5 t-63.5 -25.5q-36 0 -60 24t-24 60z" />
<glyph unicode="&#xd7;" d="M74 250l434 362l-295 365l86 70l295 -363l430 363l66 -78l-433 -365l295 -364l-86 -70l-293 362l-432 -362z" />
<glyph unicode="&#xd8;" horiz-adv-x="1417" d="M109 483q0 249 101 459t280.5 333.5t398.5 123.5q89 0 166 -21l106 195l94 -47l-104 -185q110 -57 167.5 -169t57.5 -271q0 -193 -62 -364t-167 -292t-249.5 -191t-305.5 -70q-103 0 -182 24l-117 -209l-92 47l110 201q-202 118 -202 436zM250 500q0 -230 131 -330 l612 1102q-62 16 -135 16q-128 -2 -241.5 -65.5t-193.5 -169t-126.5 -250t-46.5 -303.5zM471 119q65 -24 145 -21q166 3 308 106t227.5 284t85.5 399q0 241 -147 340z" />
<glyph unicode="&#xd9;" horiz-adv-x="1443" d="M184 326q0 49 15 137l157 821q-68 8 -143 29l12 69h449l-15 -69q-87 -23 -176 -29l-151 -799q-17 -87 -17 -141q0 -129 74.5 -191.5t241.5 -62.5q202 0 316.5 98t158.5 336l143 760q-86 6 -166 29l15 69h444l-12 -69q-88 -22 -154 -29l-145 -778q-52 -265 -205.5 -393.5 t-413.5 -128.5q-120 0 -205 25t-132.5 72t-69 107t-21.5 138zM565 1618l53 111l343 -152l-35 -78z" />
<glyph unicode="&#xda;" horiz-adv-x="1443" d="M184 326q0 49 15 137l157 821q-68 8 -143 29l12 69h449l-15 -69q-87 -23 -176 -29l-151 -799q-17 -87 -17 -141q0 -129 74.5 -191.5t241.5 -62.5q202 0 316.5 98t158.5 336l143 760q-86 6 -166 29l15 69h444l-12 -69q-88 -22 -154 -29l-145 -778q-52 -265 -205.5 -393.5 t-413.5 -128.5q-120 0 -205 25t-132.5 72t-69 107t-21.5 138zM819 1577l357 152l34 -111l-364 -119z" />
<glyph unicode="&#xdb;" horiz-adv-x="1443" d="M184 326q0 49 15 137l157 821q-68 8 -143 29l12 69h449l-15 -69q-87 -23 -176 -29l-151 -799q-17 -87 -17 -141q0 -129 74.5 -191.5t241.5 -62.5q202 0 316.5 98t158.5 336l143 760q-86 6 -166 29l15 69h444l-12 -69q-88 -22 -154 -29l-145 -778q-52 -265 -205.5 -393.5 t-413.5 -128.5q-120 0 -205 25t-132.5 72t-69 107t-21.5 138zM610 1573l334 172l285 -166l-51 -84l-244 133l-285 -133z" />
<glyph unicode="&#xdc;" horiz-adv-x="1443" d="M184 326q0 49 15 137l157 821q-68 8 -143 29l12 69h449l-15 -69q-87 -23 -176 -29l-151 -799q-17 -87 -17 -141q0 -129 74.5 -191.5t241.5 -62.5q202 0 316.5 98t158.5 336l143 760q-86 6 -166 29l15 69h444l-12 -69q-88 -22 -154 -29l-145 -778q-52 -265 -205.5 -393.5 t-413.5 -128.5q-120 0 -205 25t-132.5 72t-69 107t-21.5 138zM627 1589q0 37 26.5 63.5t61.5 26.5q37 0 61.5 -24.5t24.5 -61.5t-26.5 -62.5t-63.5 -25.5t-60.5 23.5t-23.5 60.5zM1051 1589q0 37 26.5 63.5t63.5 26.5t60.5 -24.5t23.5 -61.5t-26.5 -62.5t-63.5 -25.5 q-36 0 -60 24t-24 60z" />
<glyph unicode="&#xdd;" horiz-adv-x="1167" d="M160 1313l12 69h442l-12 -69q-85 -23 -178 -29l113 -424q6 -23 28.5 -111.5t32.5 -134.5h2l186 295l240 375q-82 7 -154 29l15 69h434l-14 -69q-86 -22 -136 -27l-528 -784l-78 -404q90 -6 170 -28l-14 -70h-477l12 70q82 22 180 28l78 404l-223 784q-49 5 -131 27z M721 1577l356 152l35 -111l-364 -119z" />
<glyph unicode="&#xde;" horiz-adv-x="1091" d="M-37 0l14 70q85 22 181 28l225 1186q-90 6 -170 29l12 69h480l-13 -69q-91 -23 -180 -29l-25 -141q92 6 213 6q205 0 304.5 -88.5t99.5 -235.5q0 -100 -42 -193t-119.5 -167t-199.5 -119t-270 -45q-59 0 -145 12l-41 -215q92 -6 168 -28l-15 -70h-477zM348 420 q90 -12 141 -12q113 0 205 34t150 90.5t89.5 128t31.5 148.5q0 112 -74 173.5t-227 61.5q-120 0 -199 -12z" />
<glyph unicode="&#xdf;" horiz-adv-x="1155" d="M-358 -514l28 115q70 -21 146 -21q84 0 135.5 29t88 104.5t64.5 216.5l191 983q-90 15 -168 21l12 70q93 11 176 14q42 249 165 367t327 118q136 0 211.5 -61t75.5 -158q0 -64 -20 -114.5t-52 -83t-71 -60t-77.5 -51t-70.5 -49t-52 -62.5t-20 -84q0 -45 22.5 -86 t56 -70.5t73 -65t73 -68.5t56 -81.5t22.5 -103.5q0 -136 -116.5 -228.5t-294.5 -92.5q-93 0 -172 12l53 285h74q0 -99 -9 -181q46 -8 74 -8q123 0 190.5 51.5t67.5 141.5q0 45 -22.5 86t-56 70.5t-73 65t-73 68t-56 81t-22.5 102.5q0 61 20 109.5t52 80.5t70.5 59.5t77.5 52 t71 51.5t52 66t20 87q0 62 -44.5 99.5t-128.5 37.5q-134 0 -220 -85.5t-122 -273.5l-215 -1110q-26 -133 -65 -223t-95 -142.5t-124.5 -74.5t-161.5 -22q-57 0 -143 16z" />
<glyph unicode="&#xe0;" horiz-adv-x="1112" d="M68 285q0 114 22.5 219.5t72 202t121.5 168t178.5 113.5t235.5 42q157 0 289 -29l-172 -897q81 -14 170 -20l-14 -70q-163 -20 -305 -14q23 125 133 477l-4 2q-25 -60 -51.5 -114.5t-75.5 -128.5t-101 -126.5t-125.5 -90t-152.5 -37.5q-110 0 -165.5 73t-55.5 230z M199 307q0 -217 123 -217q81 0 166.5 75.5t152 188t115.5 235.5t69 226l19 92q-90 23 -168 23q-101 0 -183 -38t-135.5 -100t-90 -144.5t-52.5 -167.5t-16 -173zM469 1432l96 77l209 -264l-78 -61z" />
<glyph unicode="&#xe1;" horiz-adv-x="1112" d="M68 285q0 114 22.5 219.5t72 202t121.5 168t178.5 113.5t235.5 42q157 0 289 -29l-172 -897q81 -14 170 -20l-14 -70q-163 -20 -305 -14q23 125 133 477l-4 2q-25 -60 -51.5 -114.5t-75.5 -128.5t-101 -126.5t-125.5 -90t-152.5 -37.5q-110 0 -165.5 73t-55.5 230z M199 307q0 -217 123 -217q81 0 166.5 75.5t152 188t115.5 235.5t69 226l19 92q-90 23 -168 23q-101 0 -183 -38t-135.5 -100t-90 -144.5t-52.5 -167.5t-16 -173zM612 1255l277 254l74 -90l-293 -235z" />
<glyph unicode="&#xe2;" horiz-adv-x="1112" d="M68 285q0 114 22.5 219.5t72 202t121.5 168t178.5 113.5t235.5 42q157 0 289 -29l-172 -897q81 -14 170 -20l-14 -70q-163 -20 -305 -14q23 125 133 477l-4 2q-25 -60 -51.5 -114.5t-75.5 -128.5t-101 -126.5t-125.5 -90t-152.5 -37.5q-110 0 -165.5 73t-55.5 230z M199 307q0 -217 123 -217q81 0 166.5 75.5t152 188t115.5 235.5t69 226l19 92q-90 23 -168 23q-101 0 -183 -38t-135.5 -100t-90 -144.5t-52.5 -167.5t-16 -173zM420 1245l301 264l215 -260l-70 -65l-166 178l-223 -178z" />
<glyph unicode="&#xe3;" horiz-adv-x="1112" d="M68 285q0 114 22.5 219.5t72 202t121.5 168t178.5 113.5t235.5 42q157 0 289 -29l-172 -897q81 -14 170 -20l-14 -70q-163 -20 -305 -14q23 125 133 477l-4 2q-25 -60 -51.5 -114.5t-75.5 -128.5t-101 -126.5t-125.5 -90t-152.5 -37.5q-110 0 -165.5 73t-55.5 230z M199 307q0 -217 123 -217q81 0 166.5 75.5t152 188t115.5 235.5t69 226l19 92q-90 23 -168 23q-101 0 -183 -38t-135.5 -100t-90 -144.5t-52.5 -167.5t-16 -173zM340 1315q80 141 205 141q44 0 83 -18.5t62.5 -40t53.5 -40t59 -18.5q68 0 131 97l67 -56q-37 -67 -91.5 -104 t-116.5 -37q-43 0 -81 18.5t-60.5 40t-52 40t-58.5 18.5q-69 0 -133 -99z" />
<glyph unicode="&#xe4;" horiz-adv-x="1112" d="M68 285q0 114 22.5 219.5t72 202t121.5 168t178.5 113.5t235.5 42q157 0 289 -29l-172 -897q81 -14 170 -20l-14 -70q-163 -20 -305 -14q23 125 133 477l-4 2q-25 -60 -51.5 -114.5t-75.5 -128.5t-101 -126.5t-125.5 -90t-152.5 -37.5q-110 0 -165.5 73t-55.5 230z M199 307q0 -217 123 -217q81 0 166.5 75.5t152 188t115.5 235.5t69 226l19 92q-90 23 -168 23q-101 0 -183 -38t-135.5 -100t-90 -144.5t-52.5 -167.5t-16 -173zM395 1343q0 41 26.5 67t63.5 26q36 0 61 -24t25 -58q0 -41 -26.5 -67.5t-63.5 -26.5q-36 0 -61 24.5t-25 58.5z M774 1346q0 39 26.5 64.5t63.5 25.5q36 0 61 -24t25 -58q0 -41 -26.5 -67.5t-63.5 -26.5q-38 0 -62 25t-24 61z" />
<glyph unicode="&#xe5;" horiz-adv-x="1112" d="M68 285q0 114 22.5 219.5t72 202t121.5 168t178.5 113.5t235.5 42q157 0 289 -29l-172 -897q81 -14 170 -20l-14 -70q-163 -20 -305 -14q23 125 133 477l-4 2q-25 -60 -51.5 -114.5t-75.5 -128.5t-101 -126.5t-125.5 -90t-152.5 -37.5q-110 0 -165.5 73t-55.5 230z M199 307q0 -217 123 -217q81 0 166.5 75.5t152 188t115.5 235.5t69 226l19 92q-90 23 -168 23q-101 0 -183 -38t-135.5 -100t-90 -144.5t-52.5 -167.5t-16 -173zM457 1335q0 95 67.5 158t155.5 63q86 0 141.5 -54.5t55.5 -137.5q0 -92 -68 -156.5t-156 -64.5 q-86 0 -141 53.5t-55 138.5zM549 1341q0 -48 30.5 -81t79.5 -33t87 38t38 93q0 47 -31 81t-79 34t-86.5 -39t-38.5 -93z" />
<glyph unicode="&#xe6;" horiz-adv-x="1566" d="M43 182q0 62 19 113.5t51 89t82 67t105 49t127.5 33.5t141 22.5t154.5 14.5l16 78q30 144 -9.5 212.5t-166.5 68.5q-105 0 -221 -29q-21 -76 -63 -188h-74l49 266q160 57 334 57q72 0 124 -14t82.5 -41t46 -56.5t25.5 -68.5q59 74 156 126t211 52q136 0 206 -61.5 t70 -157.5q0 -57 -17.5 -101.5t-63 -86t-120.5 -71.5t-194 -51.5t-280 -31.5q-13 -80 -13 -147q0 -138 53.5 -186t190.5 -48q140 0 276 58l11 -105q-147 -61 -336 -61q-80 0 -138.5 18t-93.5 53t-54.5 77t-29.5 99q-50 -99 -164.5 -173t-248.5 -74q-120 0 -182 52.5 t-62 145.5zM178 217q0 -57 38.5 -92t98.5 -35q140 0 248.5 110.5t138.5 266.5q-99 -7 -171 -16t-142.5 -27t-114 -44t-70 -67.5t-26.5 -95.5zM856 580q86 6 147.5 13t124.5 18.5t105 27t76.5 38t50.5 53.5t16 71q0 63 -43.5 98t-115.5 35q-131 0 -224 -98t-137 -256z" />
<glyph unicode="&#xe7;" horiz-adv-x="856" d="M72 313q0 196 67.5 358t199.5 260.5t306 98.5q124 0 227 -35l-53 -276l-74 2q-6 101 9 192q-63 17 -123 17q-81 0 -151.5 -36t-119 -95t-83.5 -136t-51.5 -158.5t-16.5 -162.5q0 -39 5 -70.5t20 -65.5t40 -56.5t69 -37t103 -14.5q126 0 252 56l17 -105q-144 -61 -299 -61 q-344 0 -344 325zM184 -483q69 75 100.5 129t32.5 108t-36 111l118 51q40 -64 40 -130.5t-33 -130t-99 -138.5h-123z" />
<glyph unicode="&#xe8;" horiz-adv-x="952" d="M72 303q0 142 36.5 272t104.5 233t174 164.5t234 61.5q135 0 205.5 -61.5t70.5 -157.5q0 -154 -167.5 -242.5t-508.5 -101.5q-14 -61 -14 -145q0 -138 53.5 -186t190.5 -48q142 0 278 58l8 -105q-144 -61 -336 -61q-167 0 -248 73.5t-81 245.5zM242 580q272 10 396 65 t124 156q0 63 -44 98t-116 35q-131 0 -224.5 -98t-135.5 -256zM397 1432l97 77l208 -264l-77 -61z" />
<glyph unicode="&#xe9;" horiz-adv-x="952" d="M72 303q0 142 36.5 272t104.5 233t174 164.5t234 61.5q135 0 205.5 -61.5t70.5 -157.5q0 -154 -167.5 -242.5t-508.5 -101.5q-14 -61 -14 -145q0 -138 53.5 -186t190.5 -48q142 0 278 58l8 -105q-144 -61 -336 -61q-167 0 -248 73.5t-81 245.5zM242 580q272 10 396 65 t124 156q0 63 -44 98t-116 35q-131 0 -224.5 -98t-135.5 -256zM528 1255l277 254l74 -90l-293 -235z" />
<glyph unicode="&#xea;" horiz-adv-x="952" d="M72 303q0 142 36.5 272t104.5 233t174 164.5t234 61.5q135 0 205.5 -61.5t70.5 -157.5q0 -154 -167.5 -242.5t-508.5 -101.5q-14 -61 -14 -145q0 -138 53.5 -186t190.5 -48q142 0 278 58l8 -105q-144 -61 -336 -61q-167 0 -248 73.5t-81 245.5zM242 580q272 10 396 65 t124 156q0 63 -44 98t-116 35q-131 0 -224.5 -98t-135.5 -256zM377 1245l301 264l215 -260l-70 -65l-166 178l-223 -178z" />
<glyph unicode="&#xeb;" horiz-adv-x="952" d="M72 303q0 142 36.5 272t104.5 233t174 164.5t234 61.5q135 0 205.5 -61.5t70.5 -157.5q0 -154 -167.5 -242.5t-508.5 -101.5q-14 -61 -14 -145q0 -138 53.5 -186t190.5 -48q142 0 278 58l8 -105q-144 -61 -336 -61q-167 0 -248 73.5t-81 245.5zM242 580q272 10 396 65 t124 156q0 63 -44 98t-116 35q-131 0 -224.5 -98t-135.5 -256zM387 1343q0 41 26.5 67t63.5 26q36 0 61 -24t25 -58q0 -41 -26.5 -67.5t-63.5 -26.5q-36 0 -61 24.5t-25 58.5zM766 1346q0 39 26.5 64.5t63.5 25.5q36 0 61 -24t25 -58q0 -41 -26.5 -67.5t-63.5 -26.5 q-38 0 -62 25t-24 61z" />
<glyph unicode="&#xec;" horiz-adv-x="559" d="M119 0l176 915q-72 12 -168 19l12 70q167 20 301 14l-176 -914q78 -13 170 -20l-12 -70q-168 -20 -303 -14zM227 1432l97 77l208 -264l-77 -61z" />
<glyph unicode="&#xed;" horiz-adv-x="559" d="M119 0l176 915q-72 12 -168 19l12 70q167 20 301 14l-176 -914q78 -13 170 -20l-12 -70q-168 -20 -303 -14zM281 1255l276 254l74 -90l-293 -235z" />
<glyph unicode="&#xee;" horiz-adv-x="559" d="M119 0l176 915q-72 12 -168 19l12 70q167 20 301 14l-176 -914q78 -13 170 -20l-12 -70q-168 -20 -303 -14zM160 1245l301 264l215 -260l-70 -65l-166 178l-223 -178z" />
<glyph unicode="&#xef;" horiz-adv-x="559" d="M119 0l176 915q-72 12 -168 19l12 70q167 20 301 14l-176 -914q78 -13 170 -20l-12 -70q-168 -20 -303 -14zM170 1343q0 41 26 67t64 26q36 0 61 -24t25 -58q0 -41 -26.5 -67.5t-63.5 -26.5q-36 0 -61 24.5t-25 58.5zM549 1346q0 39 26.5 64.5t63.5 25.5q36 0 61 -24 t25 -58q0 -41 -26.5 -67.5t-63.5 -26.5q-38 0 -62 25t-24 61z" />
<glyph unicode="&#xf0;" horiz-adv-x="1083" d="M72 346q0 104 24.5 204t73 187.5t116 154t159.5 104.5t196 38q191 0 240 -114q-8 31 -27 76l-18 44q-50 119 -105 199l-244 -100l-43 82l226 94q-46 55 -135 141l129 60q84 -84 133 -148l239 98l41 -84l-225 -94q162 -254 162 -551q0 -116 -23.5 -225.5t-72 -205 t-116 -167.5t-161.5 -113.5t-203 -41.5q-177 0 -271.5 91.5t-94.5 270.5zM205 379q0 -136 66.5 -212.5t185.5 -76.5q76 0 140.5 29.5t108.5 79.5t78 111t53 127.5t28 124.5t9 108q0 120 -62 190t-183 70q-78 0 -147 -32t-118.5 -87t-86 -125.5t-54.5 -149t-18 -157.5z" />
<glyph unicode="&#xf1;" horiz-adv-x="1208" d="M121 0l174 913q-89 16 -166 21l12 70q167 20 301 14q-24 -142 -125 -461l5 -2q39 96 88.5 178.5t112 152t139.5 110t159 40.5q135 0 187.5 -91t21.5 -259l-112 -582q84 -14 165 -20l-12 -70q-163 -20 -299 -14l125 659q27 138 0.5 203.5t-109.5 65.5q-80 0 -165 -75 t-151 -186t-115 -230.5t-68 -217.5l-43 -219h-125zM418 1315q80 141 205 141q44 0 83 -18.5t62.5 -40t53.5 -40t59 -18.5q68 0 131 97l67 -56q-36 -67 -91.5 -104t-117.5 -37q-43 0 -81 18.5t-60.5 40t-52 40t-58.5 18.5q-68 0 -133 -99z" />
<glyph unicode="&#xf2;" horiz-adv-x="1087" d="M113 342q0 195 72 353t203 248.5t296 90.5q183 0 274 -97t91 -265q0 -154 -48.5 -285t-129.5 -218t-185.5 -136t-216.5 -49q-176 0 -266 91t-90 267zM246 367q0 -137 60.5 -206t189.5 -69q80 0 154.5 40.5t132.5 112.5t93 180t35 234q0 269 -247 269q-120 0 -217 -79 t-149 -206.5t-52 -275.5zM492 1432l96 77l209 -264l-78 -61z" />
<glyph unicode="&#xf3;" horiz-adv-x="1087" d="M113 342q0 195 72 353t203 248.5t296 90.5q183 0 274 -97t91 -265q0 -154 -48.5 -285t-129.5 -218t-185.5 -136t-216.5 -49q-176 0 -266 91t-90 267zM246 367q0 -137 60.5 -206t189.5 -69q80 0 154.5 40.5t132.5 112.5t93 180t35 234q0 269 -247 269q-120 0 -217 -79 t-149 -206.5t-52 -275.5zM588 1255l276 254l74 -90l-293 -235z" />
<glyph unicode="&#xf4;" horiz-adv-x="1087" d="M113 342q0 195 72 353t203 248.5t296 90.5q183 0 274 -97t91 -265q0 -154 -48.5 -285t-129.5 -218t-185.5 -136t-216.5 -49q-176 0 -266 91t-90 267zM246 367q0 -137 60.5 -206t189.5 -69q80 0 154.5 40.5t132.5 112.5t93 180t35 234q0 269 -247 269q-120 0 -217 -79 t-149 -206.5t-52 -275.5zM424 1245l301 264l215 -260l-70 -65l-165 178l-224 -178z" />
<glyph unicode="&#xf5;" horiz-adv-x="1087" d="M113 342q0 195 72 353t203 248.5t296 90.5q183 0 274 -97t91 -265q0 -154 -48.5 -285t-129.5 -218t-185.5 -136t-216.5 -49q-176 0 -266 91t-90 267zM246 367q0 -137 60.5 -206t189.5 -69q80 0 154.5 40.5t132.5 112.5t93 180t35 234q0 269 -247 269q-120 0 -217 -79 t-149 -206.5t-52 -275.5zM352 1315q80 141 205 141q44 0 83 -18.5t62.5 -40t53.5 -40t59 -18.5q68 0 131 97l68 -56q-36 -67 -91.5 -104t-117.5 -37q-43 0 -81 18.5t-60.5 40t-52 40t-58.5 18.5q-68 0 -133 -99z" />
<glyph unicode="&#xf6;" horiz-adv-x="1087" d="M113 342q0 195 72 353t203 248.5t296 90.5q183 0 274 -97t91 -265q0 -154 -48.5 -285t-129.5 -218t-185.5 -136t-216.5 -49q-176 0 -266 91t-90 267zM246 367q0 -137 60.5 -206t189.5 -69q80 0 154.5 40.5t132.5 112.5t93 180t35 234q0 269 -247 269q-120 0 -217 -79 t-149 -206.5t-52 -275.5zM414 1343q0 41 26 67t64 26q36 0 61 -24t25 -58q0 -41 -26.5 -67.5t-63.5 -26.5q-36 0 -61 24.5t-25 58.5zM793 1346q0 39 26.5 64.5t63.5 25.5q36 0 61 -24t25 -58q0 -41 -26.5 -67.5t-63.5 -26.5q-38 0 -62 25t-24 61z" />
<glyph unicode="&#xf7;" d="M98 555l23 109h944l-21 -109h-946zM399 195q0 41 28.5 69.5t68.5 28.5q41 0 68.5 -28t27.5 -68q0 -41 -28 -70t-68 -29q-41 0 -69 28.5t-28 68.5zM561 1022q0 40 28 69t68 29q41 0 69 -29t28 -69q0 -41 -29 -69.5t-70 -28.5q-40 0 -67 28.5t-27 69.5z" />
<glyph unicode="&#xf8;" horiz-adv-x="1087" d="M74 342q0 145 42 272t116 220t181.5 146.5t233.5 53.5q52 0 107 -10l110 199l88 -45l-104 -187q162 -86 162 -319q0 -154 -48.5 -285t-129.5 -218t-185.5 -136t-216.5 -49q-76 0 -137 18l-119 -209l-88 47l117 205q-129 88 -129 297zM205 369q0 -139 61 -209l430 764 q-35 6 -73 6q-120 -1 -216.5 -79.5t-149 -206t-52.5 -275.5zM350 106q41 -16 111 -16q81 1 156 42.5t133.5 114t93.5 180.5t35 232q0 161 -95 226z" />
<glyph unicode="&#xf9;" horiz-adv-x="1208" d="M127 934l12 70q167 20 299 14l-125 -660q-26 -138 0 -203t109 -65q80 0 165.5 75t151.5 187t115.5 234.5t69.5 224.5l18 102q-86 15 -168 21l14 70q163 20 299 14l-174 -914q75 -13 170 -20l-12 -70q-163 -20 -305 -14q22 129 127 461l-4 2q-39 -95 -88.5 -178 t-112 -152.5t-140 -110t-159.5 -40.5q-135 0 -187.5 91t-21.5 259l111 579q-107 19 -164 23zM496 1432l96 77l209 -264l-78 -61z" />
<glyph unicode="&#xfa;" horiz-adv-x="1208" d="M127 934l12 70q167 20 299 14l-125 -660q-26 -138 0 -203t109 -65q80 0 165.5 75t151.5 187t115.5 234.5t69.5 224.5l18 102q-86 15 -168 21l14 70q163 20 299 14l-174 -914q75 -13 170 -20l-12 -70q-163 -20 -305 -14q22 129 127 461l-4 2q-39 -95 -88.5 -178 t-112 -152.5t-140 -110t-159.5 -40.5q-135 0 -187.5 91t-21.5 259l111 579q-107 19 -164 23zM653 1255l277 254l74 -90l-293 -235z" />
<glyph unicode="&#xfb;" horiz-adv-x="1208" d="M127 934l12 70q167 20 299 14l-125 -660q-26 -138 0 -203t109 -65q80 0 165.5 75t151.5 187t115.5 234.5t69.5 224.5l18 102q-86 15 -168 21l14 70q163 20 299 14l-174 -914q75 -13 170 -20l-12 -70q-163 -20 -305 -14q22 129 127 461l-4 2q-39 -95 -88.5 -178 t-112 -152.5t-140 -110t-159.5 -40.5q-135 0 -187.5 91t-21.5 259l111 579q-107 19 -164 23zM459 1245l301 264l215 -260l-70 -65l-166 178l-223 -178z" />
<glyph unicode="&#xfc;" horiz-adv-x="1208" d="M127 934l12 70q167 20 299 14l-125 -660q-26 -138 0 -203t109 -65q80 0 165.5 75t151.5 187t115.5 234.5t69.5 224.5l18 102q-86 15 -168 21l14 70q163 20 299 14l-174 -914q75 -13 170 -20l-12 -70q-163 -20 -305 -14q22 129 127 461l-4 2q-39 -95 -88.5 -178 t-112 -152.5t-140 -110t-159.5 -40.5q-135 0 -187.5 91t-21.5 259l111 579q-107 19 -164 23zM453 1343q0 41 26.5 67t63.5 26q36 0 61 -24t25 -58q0 -41 -26.5 -67.5t-63.5 -26.5q-36 0 -61 24.5t-25 58.5zM831 1346q0 39 26.5 64.5t64.5 25.5q36 0 61 -24t25 -58 q0 -41 -26.5 -67.5t-63.5 -26.5q-38 0 -62.5 25t-24.5 61z" />
<glyph unicode="&#xfd;" horiz-adv-x="1048" d="M-190 -514l22 123q58 -21 131 -21q57 0 123.5 38t126.5 104q69 78 100 163.5t31 206.5q0 340 -113 813q-92 16 -168 21l13 70q158 19 276 14q53 -219 85 -445t32 -380q0 -86 -20 -181h4q248 425 508 1047l120 -39q-430 -1014 -786 -1370q-184 -178 -348 -178 q-82 0 -137 14zM621 1255l276 254l74 -90l-293 -235z" />
<glyph unicode="&#xfe;" horiz-adv-x="1089" d="M-178 -514l12 72q92 20 180 26l344 1800l2 7q-74 13 -172 20l13 70q168 20 305 14l-88 -459q-34 -176 -129 -487l4 -2q85 217 214.5 353t289.5 136q219 0 219 -303q0 -114 -22.5 -219.5t-72 -202t-122 -168t-179 -113.5t-235.5 -42q-77 0 -166 14l-80 -418q88 -6 170 -26 l-12 -72h-475zM242 119q89 -29 168 -29q100 0 182 38t135.5 99.5t90 143.5t52 167t15.5 173q0 217 -123 217q-65 0 -134 -49.5t-126.5 -128.5t-107.5 -175.5t-84 -191t-50 -174.5z" />
<glyph unicode="&#xff;" horiz-adv-x="1048" d="M-190 -514l22 123q58 -21 131 -21q57 0 123.5 38t126.5 104q69 78 100 163.5t31 206.5q0 340 -113 813q-92 16 -168 21l13 70q158 19 276 14q53 -219 85 -445t32 -380q0 -86 -20 -181h4q248 425 508 1047l120 -39q-430 -1014 -786 -1370q-184 -178 -348 -178 q-82 0 -137 14zM438 1343q0 41 26 67t64 26q36 0 61 -24t25 -58q0 -41 -26.5 -67.5t-63.5 -26.5q-36 0 -61 24.5t-25 58.5zM817 1346q0 39 26.5 64.5t63.5 25.5q36 0 61 -24t25 -58q0 -41 -26.5 -67.5t-63.5 -26.5q-38 0 -62 25t-24 61z" />
<glyph unicode="&#x152;" horiz-adv-x="1734" d="M106 483q0 186 60 355t163.5 292.5t249 196t308.5 72.5q99 0 196 -17h656l-56 -297h-84q0 133 7 193h-422l-99 -514h340q27 95 64 160h72l-80 -420h-74q-9 67 -2 158h-338l-106 -556h432q23 70 71 197h82l-59 -303h-672q-125 -16 -225 -16q-240 0 -362 129t-122 370z M248 500q0 -187 92.5 -295.5t263.5 -108.5q128 0 230 27l217 1137q-92 28 -187 28q-172 0 -314 -106.5t-222 -287t-80 -394.5z" />
<glyph unicode="&#x153;" horiz-adv-x="1718" d="M74 342q0 195 72.5 353t204.5 248.5t298 90.5q135 0 220 -58.5t118 -164.5q149 223 399 223q135 0 206 -61.5t71 -157.5q0 -154 -167.5 -242.5t-508.5 -101.5q-12 -70 -12 -145q0 -138 52.5 -186t189.5 -48q142 0 278 58l8 -105q-144 -61 -334 -61q-139 0 -217 52.5 t-98 170.5q-76 -104 -189 -163.5t-235 -59.5q-176 0 -266 91t-90 267zM207 367q0 -137 60.5 -206t189.5 -69q80 0 155.5 40.5t134.5 112.5t94.5 180t35.5 234q0 131 -62 200t-186 69q-120 0 -218 -79t-151 -207t-53 -275zM1010 580q272 10 396 64.5t124 156.5q0 63 -44 98 t-116 35q-131 0 -224.5 -98t-135.5 -256z" />
<glyph unicode="&#x178;" horiz-adv-x="1167" d="M160 1313l12 69h442l-12 -69q-85 -23 -178 -29l113 -424q6 -23 28.5 -111.5t32.5 -134.5h2l186 295l240 375q-82 7 -154 29l15 69h434l-14 -69q-86 -22 -136 -27l-528 -784l-78 -404q90 -6 170 -28l-14 -70h-477l12 70q82 22 180 28l78 404l-223 784q-49 5 -131 27z M481 1589q0 37 26.5 63.5t61.5 26.5q37 0 61.5 -24.5t24.5 -61.5t-26.5 -62.5t-63.5 -25.5t-60.5 23.5t-23.5 60.5zM905 1589q0 37 26.5 63.5t63.5 26.5t60.5 -24.5t23.5 -61.5t-26.5 -62.5t-63.5 -25.5q-36 0 -60 24t-24 60z" />
<glyph unicode="&#x2c6;" horiz-adv-x="878" d="M313 1245l301 264l215 -260l-69 -65l-166 178l-223 -178z" />
<glyph unicode="&#x2dc;" horiz-adv-x="1038" d="M334 1315q80 141 205 141q44 0 83 -18.5t62.5 -40t53.5 -40t59 -18.5q68 0 131 97l67 -56q-36 -67 -91.5 -104t-117.5 -37q-43 0 -81 18.5t-60 40t-51.5 40t-58.5 18.5q-69 0 -134 -99z" />
<glyph unicode="&#x2000;" horiz-adv-x="924" />
<glyph unicode="&#x2001;" horiz-adv-x="1849" />
<glyph unicode="&#x2002;" horiz-adv-x="924" />
<glyph unicode="&#x2003;" horiz-adv-x="1849" />
<glyph unicode="&#x2004;" horiz-adv-x="616" />
<glyph unicode="&#x2005;" horiz-adv-x="462" />
<glyph unicode="&#x2006;" horiz-adv-x="308" />
<glyph unicode="&#x2007;" horiz-adv-x="308" />
<glyph unicode="&#x2008;" horiz-adv-x="231" />
<glyph unicode="&#x2009;" horiz-adv-x="369" />
<glyph unicode="&#x200a;" horiz-adv-x="102" />
<glyph unicode="&#x2010;" horiz-adv-x="655" d="M104 549l21 106h459l-23 -106h-457z" />
<glyph unicode="&#x2011;" horiz-adv-x="655" d="M104 549l21 106h459l-23 -106h-457z" />
<glyph unicode="&#x2012;" horiz-adv-x="655" d="M104 549l21 106h459l-23 -106h-457z" />
<glyph unicode="&#x2013;" d="M8 555l21 109h1126l-20 -109h-1127z" />
<glyph unicode="&#x2014;" horiz-adv-x="2048" d="M260 555l23 109h1542l-21 -109h-1544z" />
<glyph unicode="&#x2018;" horiz-adv-x="456" d="M255 1115q-31 76 32 187q66 116 217 226l49 -60q-201 -170 -141 -282q23 -43 -1 -85t-73 -42q-60 0 -83 56z" />
<glyph unicode="&#x2019;" horiz-adv-x="456" d="M199 1108q105 88 135.5 159t3.5 122q-22 43 1.5 85t72.5 42q61 0 84 -56q31 -75 -33 -187q-65 -114 -215 -224z" />
<glyph unicode="&#x201a;" horiz-adv-x="456" d="M-57 -227q200 169 141 282q-24 43 -0.5 84t72.5 41q61 0 84 -56q31 -75 -33 -187q-65 -114 -215 -224z" />
<glyph unicode="&#x201c;" horiz-adv-x="794" d="M255 1114q-31 76 31 186q66 116 218 226l49 -58q-201 -170 -141 -282q22 -43 -1.5 -85t-72.5 -42q-60 0 -83 55zM598 1115q-31 76 33 188q65 114 215 223l49 -58q-201 -170 -141 -282q24 -43 0.5 -85t-72.5 -42q-61 0 -84 56z" />
<glyph unicode="&#x201d;" horiz-adv-x="794" d="M199 1108q106 88 137 159.5t2 121.5q-22 43 1.5 85t72.5 42q61 0 84 -56q31 -75 -33 -187q-65 -114 -215 -224zM539 1108q106 88 137 159.5t4 121.5q-24 43 0 85t74 42q60 0 83 -56q30 -75 -34 -187q-66 -114 -215 -224z" />
<glyph unicode="&#x201e;" horiz-adv-x="794" d="M-57 -227q200 169 141 282q-24 43 -0.5 84t72.5 41q61 0 84 -56q31 -75 -33 -187q-65 -114 -215 -224zM285 -227q200 169 141 282q-22 43 1.5 84t72.5 41q60 0 83 -56q31 -76 -33 -187q-66 -114 -216 -224z" />
<glyph unicode="&#x2022;" horiz-adv-x="858" d="M236 598q0 92 62.5 154.5t150.5 62.5q85 0 142.5 -58.5t57.5 -138.5q0 -92 -62.5 -154.5t-150.5 -62.5q-85 0 -142.5 58.5t-57.5 138.5z" />
<glyph unicode="&#x202f;" horiz-adv-x="369" />
<glyph unicode="&#x2039;" horiz-adv-x="630" d="M143 612l308 340l86 -65l-261 -283l162 -285l-100 -63z" />
<glyph unicode="&#x203a;" horiz-adv-x="630" d="M133 324l260 282l-162 285l101 61l194 -356l-307 -340z" />
<glyph unicode="&#x205f;" horiz-adv-x="462" />
<glyph unicode="&#x20ac;" horiz-adv-x="1171" d="M35 487l18 91h185q8 90 38 208h-184l19 91h192q38 112 95.5 203.5t137.5 164.5t189.5 113.5t239.5 40.5q161 0 295 -49l-52 -265h-75q0 85 12 168q-86 41 -227 41q-174 0 -295.5 -114.5t-186.5 -302.5h496l-19 -91h-503q-29 -112 -37 -208h499l-16 -91h-487 q1 -94 16.5 -163t51.5 -123t101.5 -81.5t159.5 -27.5q178 0 336 66l13 -105q-159 -69 -398 -69q-119 0 -201.5 33.5t-129.5 101t-67.5 156.5t-21.5 212h-194z" />
<glyph unicode="&#x2122;" horiz-adv-x="1636" d="M225 1163l43 219h512l-41 -219h-63q-2 23 4 140h-119l-80 -420q61 -6 113 -23l-10 -59h-338l10 59q59 17 119 23l80 420h-115q-20 -76 -49 -140h-66zM700 801l13 59q48 13 96 19l145 426q-50 6 -90 18l13 59h243l37 -362l4 -102l35 90l186 374h250l-12 -59 q-36 -11 -96 -18l-13 -426q39 -5 86 -19l-12 -59h-282l12 59q46 14 90 19l12 270l4 117l-43 -99l-184 -366h-113l-39 370l-8 95l-20 -76l-107 -311q39 -5 86 -19l-12 -59h-281z" />
<glyph unicode="&#x25fc;" horiz-adv-x="1075" d="M0 0v1075h1075v-1075h-1075z" />
</font>
</defs>
</svg>
