<?xml version="1.0" standalone="no"?>
<!DOCTYPE svg PUBLIC "-//W3C//DTD SVG 1.1//EN" "http://www.w3.org/Graphics/SVG/1.1/DTD/svg11.dtd" >
<svg xmlns="http://www.w3.org/2000/svg">
<metadata></metadata>
<defs>
<font id="theserifhp7_bold_italic" horiz-adv-x="1126" >
<font-face units-per-em="2048" ascent="1516" descent="-532" />
<missing-glyph horiz-adv-x="446" />
<glyph unicode="&#x2e;&#x2e;&#x2e;" horiz-adv-x="1452" d="M33 131q0 70 47.5 118t114.5 48q64 0 107.5 -46t43.5 -108q0 -69 -48 -117.5t-114 -48.5q-65 0 -108 45.5t-43 108.5zM502 131q0 70 47.5 118t114.5 48q64 0 107.5 -46t43.5 -108q0 -69 -48.5 -117.5t-113.5 -48.5t-108 45.5t-43 108.5zM969 131q0 70 48 118t113 48 t109.5 -45.5t44.5 -108.5q0 -70 -48.5 -118t-115.5 -48q-64 0 -107.5 46t-43.5 108z" />
<glyph unicode="&#xfb01;" horiz-adv-x="1263" d="M-291 -489l62 215q63 -17 120 -17q90 0 141 55t79 201l161 850h-178l39 203h178l6 39q79 456 580 456q156 0 309 -36l-84 -220q-115 41 -237 41q-266 0 -307 -227l-11 -53h615l-156 -817q96 -16 158 -21l-31 -164q-190 -24 -422 -18l156 817h-359l-161 -852 q-45 -242 -165 -356.5t-313 -114.5q-90 0 -180 19z" />
<glyph unicode="&#xfb02;" horiz-adv-x="1273" d="M-291 -489l62 215q63 -17 120 -17q90 0 141 55t79 201l161 850h-178l39 203h178l21 106q35 190 175.5 289.5t371.5 99.5q176 0 399 -34l-244 -1278q75 -15 160 -21l-31 -164q-190 -24 -424 -18l246 1290q-77 12 -143 12q-219 0 -258 -194l-17 -88h219l-41 -203h-217 l-161 -852q-45 -242 -165 -356.5t-313 -114.5q-90 0 -180 19z" />
<glyph unicode="&#xfb03;" horiz-adv-x="1869" d="M-291 -489l62 215q63 -17 120 -17q90 0 140 54.5t80 201.5l159 850h-178l39 203h180l13 72q35 202 170.5 306.5t363.5 104.5q170 0 318 -57q126 69 325 69q156 0 309 -36l-86 -217q-116 38 -235 38q-133 0 -206.5 -55.5t-96.5 -175.5l-8 -49h610l-156 -817 q68 -14 158 -21l-31 -164q-195 -24 -422 -18l154 817h-352l-156 -838q-48 -254 -184 -363.5t-365 -109.5q-155 0 -293 56q-105 -68 -252 -68q-90 0 -180 19zM297 -248q67 -33 168 -33q110 0 171 56t85 186l162 854h-355l-161 -852q-23 -125 -70 -211zM567 1018h355l8 43 q17 109 74 192q-80 35 -164 35q-224 0 -260 -209z" />
<glyph unicode="&#xfb04;" horiz-adv-x="1871" d="M-291 -489l62 215q63 -17 120 -17q90 0 140 54.5t80 201.5l161 850h-178l39 203h178l15 72q35 202 170 306.5t364 104.5q167 0 307 -55q122 67 316 67q181 0 393 -34l-242 -1278q74 -14 158 -21l-29 -164q-198 -24 -424 -18l246 1290q-71 12 -139 12q-214 0 -250 -194 l-16 -88h233l-41 -203h-231l-158 -838q-48 -254 -184 -363.5t-365 -109.5q-155 0 -293 56q-105 -68 -252 -68q-90 0 -180 19zM297 -248q67 -33 168 -33q110 0 171 56t85 186l162 854h-355l-161 -852q-23 -125 -70 -211zM569 1018h353l20 106q15 77 53 133q-74 31 -153 31 q-226 0 -262 -209z" />
<glyph horiz-adv-x="0" />
<glyph horiz-adv-x="0" />
<glyph horiz-adv-x="682" />
<glyph unicode="&#xd;" horiz-adv-x="1024" />
<glyph unicode=" "  horiz-adv-x="446" />
<glyph unicode="&#x09;" horiz-adv-x="446" />
<glyph unicode="&#xa0;" horiz-adv-x="446" />
<glyph unicode="!" horiz-adv-x="645" d="M117 123q0 71 49.5 118.5t118.5 47.5q66 0 108.5 -44t42.5 -104q0 -71 -49.5 -117.5t-118.5 -46.5q-66 0 -108.5 43t-42.5 103zM215 385l162 1065h301l-242 -1065h-221z" />
<glyph unicode="&#x22;" horiz-adv-x="813" d="M90 918l64 520h260l-133 -520h-191zM469 918l66 520h256l-132 -520h-190z" />
<glyph unicode="#" horiz-adv-x="1384" d="M57 360l35 193h270l58 305h-268l36 193h271l61 331h223l-63 -331h246l61 331h223l-61 -331h268l-37 -193h-270l-57 -305h268l-37 -193h-268l-68 -360h-223l68 360h-244l-68 -360h-223l68 360h-269zM586 553h243l58 305h-244z" />
<glyph unicode="$" horiz-adv-x="1048" d="M8 18l72 373h192q0 -56 -8 -158q74 -22 150 -22q106 0 173.5 46.5t67.5 139.5q0 36 -27 70t-70.5 63t-96.5 59.5t-105.5 67t-96 78.5t-70.5 101t-27 127q0 179 128.5 300.5t321.5 135.5l45 223h185l-45 -221q111 -2 260 -35l-68 -346h-190q4 110 10 158q-68 20 -133 20 q-100 0 -163.5 -45t-63.5 -137q0 -37 28 -72.5t72.5 -66t98.5 -62.5t107.5 -69.5t98 -79.5t72.5 -100t28 -124q0 -95 -38.5 -176.5t-104.5 -138.5t-153 -93.5t-185 -47.5l-61 -295h-185l60 289q-154 3 -279 38z" />
<glyph unicode="%" horiz-adv-x="1648" d="M164 1004q0 182 116 301.5t279 119.5q142 0 216.5 -71t74.5 -205q0 -112 -52 -210t-146 -158t-206 -60q-133 0 -207.5 69t-74.5 214zM203 88l1140 1350l160 -142l-1143 -1349zM383 1018q0 -117 96 -117q68 0 110 69.5t42 157.5q0 117 -99 117q-66 0 -107.5 -68 t-41.5 -159zM866 240q0 183 116 303.5t280 120.5q140 0 214 -72t74 -205q0 -174 -116 -302t-287 -128q-132 0 -206.5 69t-74.5 214zM1085 256q0 -117 97 -117q68 0 108.5 69t40.5 159q0 116 -96 116q-67 0 -108.5 -68t-41.5 -159z" />
<glyph unicode="&#x26;" horiz-adv-x="1671" d="M76 326q0 65 18.5 125.5t47 108.5t73.5 96t89 84.5t102 78.5q-113 179 -113 316q0 150 123.5 263t312.5 113q167 0 252.5 -76t85.5 -200q0 -63 -22 -120.5t-67.5 -111.5t-99.5 -100t-133 -102q115 -148 328 -344q61 64 106 160t60 200q-51 5 -117 21l33 168h520l-35 -168 q-74 -17 -139 -23q-64 -291 -256 -496q53 -49 148 -126q73 -6 159 -25l-30 -168h-310q-86 74 -170 152q-257 -175 -555 -175q-205 0 -308 97.5t-103 251.5zM348 377q0 -76 49.5 -126t145.5 -50q171 0 321 102q-205 196 -327 350q-60 -48 -97 -84t-64.5 -87t-27.5 -105z M551 1157q0 -68 70 -192q99 71 143.5 126t44.5 119q0 47 -26.5 75t-77.5 28q-66 0 -110 -44.5t-44 -111.5z" />
<glyph unicode="'" horiz-adv-x="432" d="M90 918l64 520h260l-133 -520h-191z" />
<glyph unicode="(" horiz-adv-x="614" d="M92 262q0 333 135.5 685.5t390.5 662.5l179 -90q-198 -256 -325.5 -603.5t-127.5 -642.5q0 -360 98 -626l-206 -88q-144 332 -144 702z" />
<glyph unicode=")" horiz-adv-x="614" d="M-129 -350q198 256 325.5 603.5t127.5 641.5q0 356 -101 627l209 88q141 -330 141 -703q0 -332 -134.5 -684t-389.5 -663z" />
<glyph unicode="*" horiz-adv-x="772" d="M182 1116l221 66l-188 98l123 150l145 -152l15 227l182 -24l-78 -211l195 125l63 -168l-221 -68l184 -96l-121 -152l-145 152l-16 -225l-183 24l78 209l-192 -125z" />
<glyph unicode="+" d="M86 500l43 219h356l72 379h250l-72 -379h359l-41 -219h-361l-71 -381h-250l73 381h-358z" />
<glyph unicode="," horiz-adv-x="518" d="M-76 -244q81 67 121 122t41.5 99t-23.5 86q-22 35 -22.5 78t17.5 79t55.5 60.5t85.5 24.5q84 0 131 -70q57 -86 14 -214q-64 -191 -321 -372q-3 -1 -5 -3z" />
<glyph unicode="-" horiz-adv-x="669" d="M88 463l41 211h492l-41 -211h-492z" />
<glyph unicode="." horiz-adv-x="524" d="M33 137q0 72 51.5 123t120.5 51q68 0 115 -47.5t47 -111.5q0 -73 -51 -124t-121 -51q-68 0 -115 48t-47 112z" />
<glyph unicode="/" horiz-adv-x="929" d="M-176 -330l1067 1880h258l-1063 -1880h-262z" />
<glyph unicode="0" horiz-adv-x="1228" d="M80 379q0 142 49.5 272.5t134.5 227t207.5 154t261.5 57.5q213 0 324.5 -108t111.5 -306q0 -146 -51.5 -276.5t-140 -223.5t-210 -147t-257.5 -54q-214 0 -322 104t-108 300zM342 418q0 -97 53.5 -157t151.5 -60q148 0 254 127.5t106 314.5q0 98 -51.5 159.5t-155.5 61.5 t-186.5 -62t-127 -163.5t-44.5 -220.5z" />
<glyph unicode="1" horiz-adv-x="755" d="M-25 0l31 168q141 23 215 25l125 634l-225 -88v213l334 117h198l-168 -876q67 -5 164 -25l-31 -168h-643z" />
<glyph unicode="2" horiz-adv-x="964" d="M-8 0l41 213l237 170q193 128 267.5 212t74.5 165q0 49 -34 84t-103 35q-50 0 -121 -23q-25 -88 -47 -143h-162l60 313q168 61 334 61q184 0 272 -78.5t88 -205.5q0 -238 -321 -453l-168 -123l-2 -4q112 8 428 8l-45 -231h-799z" />
<glyph unicode="3" horiz-adv-x="931" d="M-86 -358l61 235q81 -33 168 -33q160 0 254.5 72t94.5 190q0 196 -392 148l37 211q219 0 340 78.5t121 206.5q0 124 -135 124q-47 0 -109 -16q-19 -72 -49 -145h-164l62 317q149 60 311 60q176 0 269.5 -76.5t93.5 -212.5q0 -126 -80 -229.5t-215 -159.5v-2 q89 -17 144.5 -90.5t55.5 -172.5q0 -106 -47 -201.5t-131.5 -168.5t-212.5 -116.5t-280 -43.5q-108 0 -197 25z" />
<glyph unicode="4" horiz-adv-x="1120" d="M-20 0v213l657 852h348l-156 -829h205l-45 -236h-207l-34 -186q76 -5 157 -27l-28 -158h-594l30 158q98 21 181 27l34 186h-548zM233 231q112 5 347 5l110 583h-4z" />
<glyph unicode="5" horiz-adv-x="933" d="M-66 -373l60 238q59 -17 135 -17q155 0 262 73.5t107 195.5q0 101 -104.5 157t-289.5 56l140 735h667l-49 -256l-424 2l-55 -276q191 -15 299.5 -112.5t108.5 -248.5q0 -106 -40 -197.5t-108.5 -156.5t-158 -111.5t-189 -69t-201.5 -22.5q-82 0 -160 10z" />
<glyph unicode="6" horiz-adv-x="1165" d="M106 399q0 87 15.5 181.5t50 196t85 196.5t125.5 180t165 148t210.5 100t256.5 37q53 0 127 -4l-45 -232q-56 10 -119 10q-183 0 -311 -94.5t-201 -259.5l-29 -67l2 -3q52 58 133.5 91.5t167.5 33.5q176 0 267.5 -96t91.5 -244q0 -130 -48 -242t-129 -189t-191 -121 t-232 -44q-193 0 -292.5 112.5t-99.5 309.5zM381 387q0 -46 13.5 -85.5t51.5 -70t97 -30.5q124 0 201 90t77 235q0 73 -43 117.5t-125 44.5q-115 0 -193.5 -90t-78.5 -211z" />
<glyph unicode="7" horiz-adv-x="942" d="M59 -371q249 614 617 1207q-45 -2 -340 -2q-16 -74 -53 -168h-201l76 399h852l-43 -225q-366 -579 -607 -1211h-301z" />
<glyph unicode="8" horiz-adv-x="1118" d="M59 293q0 75 25 140t72.5 117t100.5 92.5t124 80.5q-81 63 -125.5 134.5t-44.5 166.5q0 81 36.5 157.5t101.5 136.5t165.5 96t218.5 36q197 0 295 -80.5t98 -212.5t-80 -229.5t-227 -182.5q195 -135 195 -315q0 -131 -75.5 -236t-200.5 -162t-273 -57q-203 0 -304.5 87 t-101.5 231zM334 330q0 -59 42.5 -97t129.5 -38q95 0 165 55.5t70 136.5q0 71 -45.5 122t-126.5 103q-111 -64 -173 -129.5t-62 -152.5zM481 1049q0 -55 38.5 -101t113.5 -92q109 60 167 118.5t58 133.5q0 58 -41.5 93.5t-120.5 35.5q-97 0 -156 -56t-59 -132z" />
<glyph unicode="9" horiz-adv-x="1165" d="M14 -373l43 236q83 -17 140 -17q185 0 305.5 87t197.5 257q7 18 20 46t15 32l-2 2q-51 -57 -130.5 -87.5t-166.5 -30.5q-172 0 -259 95.5t-87 248.5q0 119 43.5 227.5t119 189.5t185.5 129t236 48q209 0 309 -113t100 -311q0 -86 -13 -178.5t-45 -196.5t-80 -199 t-123 -182.5t-168 -151.5t-222 -102.5t-278 -38.5q-72 0 -140 10zM365 541q0 -72 39.5 -116t119.5 -44q124 0 201.5 89.5t77.5 217.5q0 76 -42.5 127t-125.5 51q-117 0 -193.5 -96.5t-76.5 -228.5z" />
<glyph unicode=":" horiz-adv-x="600" d="M94 137q0 73 51 123.5t121 50.5q68 0 115 -47.5t47 -111.5q0 -73 -50 -124t-120 -51q-68 0 -116 48t-48 112zM205 717q0 73 51 123.5t121 50.5q68 0 115 -48t47 -112q0 -73 -50.5 -123.5t-119.5 -50.5q-68 0 -116 48t-48 112z" />
<glyph unicode=";" horiz-adv-x="600" d="M-10 -244q81 67 121 122t41 99.5t-25 85.5q-22 35 -22 78t18 79t55.5 60.5t85.5 24.5q84 0 131 -70q56 -86 13 -214q-63 -192 -321 -373q-1 -1 -3 -2zM205 717q0 73 51 123.5t121 50.5q68 0 115 -48t47 -112q0 -73 -50.5 -123.5t-119.5 -50.5q-68 0 -116 48t-48 112z" />
<glyph unicode="&#x3c;" d="M158 631l749 588l154 -181l-565 -426l407 -434l-190 -166z" />
<glyph unicode="=" d="M80 307l39 211h907l-39 -211h-907zM154 698l39 211h907l-37 -211h-909z" />
<glyph unicode="&#x3e;" d="M123 193l565 425l-409 435l192 166l553 -621l-750 -586z" />
<glyph unicode="?" horiz-adv-x="905" d="M166 123q0 71 48.5 118.5t117.5 47.5q67 0 109 -43.5t42 -104.5q0 -71 -49 -117.5t-119 -46.5q-66 0 -107.5 43t-41.5 103zM242 385q-12 83 3 152.5t49 118t78.5 90t91 76t86 67t64.5 71.5t25 82q0 55 -49 96t-127 63t-182 30l75 237q275 -14 422.5 -119.5t147.5 -258.5 q0 -75 -26 -138t-67 -107.5t-90.5 -84.5t-97 -78t-85 -79t-56.5 -96.5t-10 -121.5h-252z" />
<glyph unicode="@" horiz-adv-x="1945" d="M178 471q0 203 75.5 391.5t205.5 331t318 228t401 85.5q164 0 292 -44.5t208.5 -123.5t121.5 -184t41 -231q0 -182 -64 -330t-190.5 -238t-294.5 -90q-110 0 -159.5 55t-36.5 142h-6q-46 -76 -130 -136.5t-174 -60.5q-89 0 -136.5 58.5t-47.5 173.5q0 79 17.5 159.5 t58.5 162t100.5 144.5t152.5 102.5t206 39.5q145 0 247 -41l-112 -406q-29 -100 -13 -144t78 -44q117 0 194 117.5t77 306.5q0 83 -25.5 153.5t-78.5 127.5t-145.5 89.5t-215.5 32.5q-160 0 -298.5 -68t-230.5 -179.5t-144 -253.5t-52 -291q0 -219 130 -339t392 -120 q180 0 363 59l18 -204q-102 -33 -219.5 -51.5t-214.5 -18.5q-345 0 -527 169t-182 470zM811 551q0 -82 51 -82q65 0 137 91.5t123 268.5l25 91q-34 12 -82 12q-66 0 -125.5 -58t-94 -146t-34.5 -177z" />
<glyph unicode="A" horiz-adv-x="1398" d="M-72 0l29 166q60 17 111 20l634 1196h336l185 -1194q57 -7 104 -22l-33 -166h-528l31 166q102 18 149 22l-24 177h-492l-90 -177q39 -4 133 -22l-31 -166h-514zM532 571h365l-53 353q-18 159 -21 219h-2q-28 -68 -102 -219z" />
<glyph unicode="B" horiz-adv-x="1243" d="M-43 0l31 166q94 21 180 27l188 997q-80 5 -168 27l31 165h170q56 0 206 5t226 4q199 0 303.5 -70.5t104.5 -210.5q0 -139 -68 -234t-186 -143v-2q85 -21 136.5 -91.5t51.5 -158.5q0 -99 -43.5 -187t-123 -154.5t-198.5 -105t-261 -38.5q-36 0 -173 2t-233 2h-174z M436 221q54 -8 133 -8q145 0 228.5 72t83.5 176q0 149 -232 149q-112 0 -141 -2zM547 811q31 -2 94 -2q141 0 222 64t81 176q0 62 -43.5 94.5t-146.5 32.5q-22 0 -140 -5z" />
<glyph unicode="C" horiz-adv-x="1134" d="M96 467q0 142 32 276.5t99 253t160.5 207t225.5 140t286 51.5q182 0 313 -35l-77 -395h-197q0 99 8 172q-46 14 -119 14q-110 0 -196.5 -60t-136.5 -156t-75.5 -203.5t-25.5 -215.5q0 -140 68 -215.5t225 -75.5q69 0 153.5 18t147.5 46l-4 -242q-183 -63 -371 -63 q-121 0 -214.5 29t-149 75t-91 111.5t-48.5 129.5t-13 138z" />
<glyph unicode="D" horiz-adv-x="1419" d="M-43 0l33 166q95 22 178 27l190 997q-83 6 -170 27l31 165h172q47 0 196.5 4.5t231.5 4.5q291 0 438.5 -127.5t147.5 -372.5q0 -141 -34 -271.5t-106 -245t-175 -199.5t-249 -134t-319 -49q-86 0 -212.5 4t-178.5 4h-174zM436 229q62 -10 125 -10q120 0 218.5 42 t161.5 108.5t106 153t61 172t18 169.5q0 146 -78.5 224.5t-263.5 78.5q-108 0 -170 -6z" />
<glyph unicode="E" horiz-adv-x="1077" d="M-43 0l31 166q94 21 180 27l188 997q-80 5 -168 27l31 165h924l-66 -348h-194q0 58 4 140h-273l-69 -369h221q20 63 45 113h164l-78 -416h-168q-2 35 -2 112h-217l-76 -399h273q21 71 51 147h196l-69 -362h-928z" />
<glyph unicode="F" horiz-adv-x="1028" d="M-43 0l31 166q94 21 178 27l190 997q-80 5 -168 27l31 165h924l-70 -354h-192q-1 18 -1 38q0 46 5 103h-271l-73 -381h227q14 45 45 113h166l-82 -428h-168q0 11 -0.5 33.5t-0.5 42t1 37.5h-225l-76 -393q83 -6 170 -27l-31 -166h-610z" />
<glyph unicode="G" horiz-adv-x="1378" d="M96 506q0 190 67 356t183.5 285t282.5 187.5t356 68.5q201 0 385 -51l-74 -371h-200q0 62 8 168q-88 18 -146 18q-129 0 -239 -51t-183.5 -137.5t-115 -200t-41.5 -237.5q0 -52 11 -98t37 -87.5t64.5 -71.5t96.5 -47.5t131 -17.5q96 0 199 27l55 286q-82 6 -166 27 l33 166h540l-30 -170q-37 -8 -115 -20l-92 -474q-222 -81 -471 -81q-147 0 -258.5 38.5t-180.5 109t-103 165.5t-34 213z" />
<glyph unicode="H" horiz-adv-x="1536" d="M-45 0l31 166q100 22 180 27l190 997q-80 5 -168 27l29 165h584l-33 -168q-68 -17 -150 -24l-69 -361h575l68 361q-79 7 -141 24l30 168h582l-29 -165q-100 -22 -180 -27l-190 -997q78 -5 170 -27l-33 -166h-582l31 168q73 19 151 25l78 407h-575l-78 -407q74 -6 145 -25 l-32 -168h-584z" />
<glyph unicode="I" horiz-adv-x="700" d="M-43 0l31 166q94 21 178 27l190 997q-80 5 -168 27l31 165h610l-30 -165q-99 -22 -181 -27l-190 -997q83 -6 170 -27l-31 -166h-610z" />
<glyph unicode="J" horiz-adv-x="722" d="M-72 -2l43 229q52 -20 117 -20q76 0 122.5 42t65.5 142l152 799q-78 5 -170 27l31 165h563l-33 -168q-59 -14 -131 -24l-156 -823q-15 -82 -46.5 -148.5t-83 -121t-131 -85t-181.5 -30.5q-72 0 -162 16z" />
<glyph unicode="K" horiz-adv-x="1396" d="M-43 0l31 166q94 21 178 27l190 997q-80 5 -168 27l31 165h569l-32 -168q-60 -17 -138 -24l-86 -453l488 459q-63 4 -107 18l33 168h557l-35 -168q-60 -12 -118 -18l-533 -491l350 -517q77 -8 133 -20l-30 -168h-570l33 168q67 15 111 18l-322 502l-94 -495 q70 -7 129 -25l-33 -168h-567z" />
<glyph unicode="L" horiz-adv-x="1007" d="M-43 0l31 166q94 21 178 27l190 997q-80 5 -168 27l31 165h610l-30 -165q-99 -22 -181 -27l-184 -971h275q29 101 71 193h189l-78 -412h-934z" />
<glyph unicode="M" horiz-adv-x="1912" d="M-57 0l30 166q67 17 115 20l340 1004q-72 5 -162 27l31 165h522l94 -692q16 -158 19 -297h4q61 155 129 291l358 698h543l-33 -165q-101 -22 -174 -27l-39 -1004q39 -2 107 -20l-29 -166h-520l29 166q88 17 145 22l33 566q12 184 31 342h-5q-65 -180 -114 -279l-416 -817 h-244l-100 791q-14 132 -14 260v45h-2q-50 -206 -97 -348l-174 -560q50 -4 131 -22l-30 -166h-508z" />
<glyph unicode="N" horiz-adv-x="1521" d="M-43 0l31 166q100 22 180 27l188 997q-80 5 -168 27l31 165h508l270 -733q49 -143 90 -313q45 315 70 444l76 410q-73 6 -131 24l31 168h516l-33 -168q-53 -14 -131 -24l-225 -1190h-330l-275 733q-62 180 -90 324q-21 -186 -65 -430l-78 -434q71 -6 139 -25l-33 -168 h-571z" />
<glyph unicode="O" horiz-adv-x="1411" d="M90 481q0 248 105 459.5t291.5 338t410.5 126.5q249 0 379.5 -131.5t130.5 -374.5q0 -195 -64.5 -367.5t-173 -293.5t-257 -191t-312.5 -70q-255 0 -382.5 131.5t-127.5 372.5zM371 526q0 -147 68 -227t198 -80q137 0 250 88.5t176 237t63 323.5q0 138 -68.5 217.5 t-205.5 79.5q-141 0 -253 -91.5t-170 -236t-58 -311.5z" />
<glyph unicode="P" horiz-adv-x="1177" d="M-43 0l31 166q95 22 178 27l192 997q-83 6 -170 27l31 165h174q43 0 169 4.5t208 4.5q209 0 338 -95t129 -272q0 -255 -178.5 -416.5t-464.5 -161.5q-2 0 -117 7l-49 -260q83 -6 170 -27l-31 -166h-610zM520 674q34 -6 103 -6q74 0 133.5 20t97 52t62.5 75t35 85.5 t10 86.5q0 88 -60 137.5t-172 49.5q-76 0 -115 -5z" />
<glyph unicode="Q" horiz-adv-x="1413" d="M90 481q0 186 61.5 356t167 295t256 199t320.5 74q250 0 382 -131.5t132 -374.5q0 -257 -113 -467t-292 -299q38 -1 96 -17.5t101 -23.5q21 -4 53 -4q35 0 83 4l-43 -227q-66 -8 -113 -8q-26 0 -47 3q-59 6 -119 25t-104 39.5t-114.5 36.5t-151.5 16h-43 q-257 0 -384.5 131.5t-127.5 372.5zM373 526q0 -147 68 -227t198 -80q137 0 250 88.5t176 237t63 323.5q0 138 -68.5 217.5t-205.5 79.5q-141 0 -253 -91.5t-170 -236t-58 -311.5z" />
<glyph unicode="R" horiz-adv-x="1230" d="M-43 0l31 166q99 22 178 27l190 997q-80 5 -168 27l31 165h158q52 0 186.5 4.5t212.5 4.5q434 0 434 -324q0 -173 -110.5 -295t-298.5 -164q55 -119 63 -137l131 -281q75 -7 140 -24l-33 -166h-338l-227 571h-37l-72 -378q60 -6 121 -25l-33 -168h-559zM539 768 q36 -4 90 -4q133 0 218 73t85 189q0 156 -199 156q-77 0 -117 -6z" />
<glyph unicode="S" horiz-adv-x="974" d="M18 8l70 373h197q1 -25 1 -48q0 -70 -7 -126q31 -8 77 -8q115 0 183.5 59.5t68.5 144.5q0 42 -24 78t-62 63.5t-84.5 55t-93 60t-84.5 71t-62 95.5t-24 126q0 91 37 172t105.5 144t175.5 100t239 37q156 0 273 -27l-68 -356h-191v23q0 56 7 145q-24 4 -68 4 q-109 0 -168 -54.5t-59 -135.5q0 -41 24 -76.5t62.5 -63t85 -55.5t93 -60.5t85 -71t62.5 -94.5t24 -124q0 -203 -166.5 -342.5t-417.5 -139.5q-186 0 -291 31z" />
<glyph unicode="T" horiz-adv-x="1177" d="M135 993l74 389h1110l-76 -389h-190q5 157 6 170h-207l-184 -970q78 -5 170 -27l-33 -166h-610l30 166q99 22 181 27l186 970h-207q-15 -56 -57 -170h-193z" />
<glyph unicode="U" horiz-adv-x="1427" d="M164 354q0 59 14 152l131 684q-67 9 -121 24l31 168h533l-33 -168q-64 -17 -150 -24l-129 -684q-14 -66 -14 -119q0 -99 54.5 -148t174.5 -49q154 0 238 78t119 262l125 660q-81 7 -142 24l33 168h528l-32 -168q-62 -15 -129 -24l-129 -682q-105 -531 -650 -531 q-452 0 -452 377z" />
<glyph unicode="V" horiz-adv-x="1357" d="M158 1214l32 168h521l-31 -165q-112 -20 -148 -23l86 -621q2 -15 8.5 -75t10.5 -105t6 -90h4q63 152 135 287l320 604q-35 3 -137 23l30 165h523l-33 -168q-64 -15 -109 -18l-635 -1196h-303l-178 1196q-46 3 -102 18z" />
<glyph unicode="W" horiz-adv-x="1959" d="M160 1214l30 168h508l-30 -165q-113 -20 -150 -23l21 -631q0 -137 -9 -278h2q48 145 107 272l379 825h258l82 -817q11 -104 10 -223v-55h2q34 131 82 270l254 637q-21 2 -129 23l33 165h506l-33 -168q-59 -15 -109 -18l-481 -1196h-340l-74 739q-8 83 -8 169q0 59 4 120 h-2q-48 -160 -104 -285l-340 -743h-340l-29 1196q-45 3 -100 18z" />
<glyph unicode="X" horiz-adv-x="1388" d="M-66 0l31 168q93 16 135 18l478 533l-273 477q-49 3 -121 18l31 168h553l-35 -168q-44 -14 -110 -18l151 -317l266 317q-54 3 -100 18l33 168h549l-33 -168q-101 -17 -135 -20l-447 -500l287 -508q42 -2 119 -18l-33 -168h-551l31 168q58 15 114 18l-167 353l-293 -353 q52 -3 104 -18l-33 -168h-551z" />
<glyph unicode="Y" horiz-adv-x="1226" d="M158 1214l30 168h506l-32 -168q-49 -13 -125 -20l73 -272q38 -151 49 -207h5q19 35 137 227l155 252q-72 8 -112 20l33 168h507l-30 -168q-69 -16 -109 -18l-502 -725l-53 -278q80 -5 172 -27l-33 -166h-612l31 166q100 22 180 27l53 278l-221 725q-43 3 -102 18z" />
<glyph unicode="Z" horiz-adv-x="1083" d="M-8 0l41 205l659 827q47 60 115 131q-49 -2 -195 -2h-163q-16 -63 -58 -155h-194l71 376h906l-41 -215l-697 -845q-62 -75 -82 -97q33 2 230 2h161q21 75 60 166h190l-75 -393h-928z" />
<glyph unicode="[" horiz-adv-x="657" d="M-25 -420l383 2011h443l-41 -207h-201l-303 -1593h201l-39 -211h-443z" />
<glyph unicode="\" horiz-adv-x="962" d="M223 1550h234l362 -1880h-235z" />
<glyph unicode="]" horiz-adv-x="657" d="M-96 -420l39 211h200l306 1593h-203l41 207h442l-383 -2011h-442z" />
<glyph unicode="^" d="M162 782l444 600h199l227 -598l-196 -94l-164 506l-350 -506z" />
<glyph unicode="_" d="M-176 -504l41 211h1104l-41 -211h-1104z" />
<glyph unicode="`" horiz-adv-x="749" d="M303 1374l129 170l332 -258l-107 -139z" />
<glyph unicode="a" horiz-adv-x="1155" d="M55 295q0 117 25 225t77.5 202.5t128 164t184.5 109.5t239 40q212 0 362 -30l-156 -805q86 -18 160 -21l-31 -164q-157 -19 -326 -19q-42 0 -85 1q24 121 92 326h-4q-187 -347 -426 -347q-240 0 -240 318zM322 344q0 -141 75 -141q69 0 150 93t139.5 219.5t79.5 236.5 l12 65q-58 14 -114 14q-84 0 -152 -45.5t-108 -118.5t-61 -156.5t-21 -166.5z" />
<glyph unicode="b" horiz-adv-x="1112" d="M55 18l246 1276q-95 16 -166 21l31 164q159 19 338 19q45 0 90 -1l-82 -436q-21 -109 -113 -367h4q81 160 189.5 253t238.5 93q240 0 240 -317q0 -117 -25 -225t-77.5 -202.5t-128.5 -164t-185 -109.5t-239 -40q-201 0 -361 36zM348 201q62 -15 115 -15q84 0 152 45.5 t108 119t61 157t21 166.5q0 141 -78 141q-68 0 -148.5 -93t-139 -218.5t-79.5 -233.5z" />
<glyph unicode="c" horiz-adv-x="874" d="M61 336q0 204 77.5 364.5t211.5 248t299 87.5q140 0 258 -32l-63 -330l-162 2q-1 18 -1 38q0 46 5 99q-27 8 -68 8q-80 0 -145.5 -60t-102 -158t-36.5 -210q0 -87 43 -135.5t145 -48.5q111 0 219 43l9 -221q-152 -49 -297 -49q-205 0 -298.5 91.5t-93.5 262.5z" />
<glyph unicode="d" horiz-adv-x="1155" d="M55 295q0 117 25 225t77.5 202.5t128 164t184.5 109.5t239 40q53 0 110 -8l49 266q-91 16 -172 21l33 164q158 19 341 19q46 0 93 -1l-248 -1296q86 -18 160 -21l-33 -164q-157 -19 -323 -19q-42 0 -84 1q21 118 90 326h-4q-187 -347 -426 -347q-240 0 -240 318zM322 344 q0 -141 75 -141q69 0 150 93t139.5 219.5t79.5 236.5l12 65q-58 14 -114 14q-84 0 -152 -45.5t-108 -118.5t-61 -156.5t-21 -166.5z" />
<glyph unicode="e" horiz-adv-x="995" d="M61 324q0 156 45.5 290.5t123.5 227t184.5 144.5t226.5 52q91 0 157.5 -21t102.5 -57t53 -78t17 -91q0 -120 -79 -202.5t-221 -124.5t-345 -48q-7 -40 -7 -80q0 -87 41 -118.5t148 -31.5q141 0 297 60l4 -201q-174 -65 -387 -65q-191 0 -276 85.5t-85 258.5zM352 590 q359 12 359 166q0 43 -27.5 66.5t-77.5 23.5q-92 0 -157 -73t-97 -183z" />
<glyph unicode="f" horiz-adv-x="724" d="M-291 -489l62 215q63 -17 120 -17q89 0 139.5 55t80.5 201l161 850h-180l41 203h178l15 76q36 208 152 312.5t329 104.5q91 0 162 -16l-58 -213q-62 16 -120 16q-91 0 -142 -49t-69 -164l-13 -67h234l-39 -203h-234l-161 -852q-45 -242 -165.5 -356.5t-314.5 -114.5 q-88 0 -178 19z" />
<glyph unicode="g" horiz-adv-x="1118" d="M-59 -469l61 240q126 -60 279 -60q147 0 230 60.5t110 195.5q17 87 38 158t66 192l-4 2q-191 -342 -426 -342q-240 0 -240 318q0 117 25 225t78 202.5t128.5 164t184 109.5t238.5 40q212 0 362 -30l-207 -1069q-20 -108 -64.5 -189t-119 -140.5t-186 -89.5t-258.5 -30 q-164 0 -295 43zM322 344q0 -141 75 -141q69 0 150 93t139.5 219.5t79.5 236.5l12 65q-58 14 -114 14q-84 0 -152 -45.5t-108 -118.5t-61 -156.5t-21 -166.5z" />
<glyph unicode="h" horiz-adv-x="1193" d="M53 0l248 1294q-95 16 -166 21l31 164q159 19 338 19q45 0 90 -1l-82 -432q-22 -122 -111 -363h5q177 338 430 338q142 0 195 -91q33 -57 33 -141q0 -49 -11 -106l-97 -503q96 -16 158 -21l-29 -164q-145 -17 -322 -17q-48 0 -99 1l122 641q9 50 9 85q0 31 -7 50 q-15 41 -63 41q-65 0 -144 -89.5t-139.5 -219t-83.5 -248.5l-49 -258h-256z" />
<glyph unicode="i" horiz-adv-x="632" d="M98 -2l160 823q-60 10 -160 17l33 166q167 17 331 17q45 0 89 -1l-158 -821q93 -16 160 -19l-31 -164q-162 -19 -336 -19q-44 0 -88 1zM317 1317q0 72 53 121t122 49q65 0 108 -44t43 -104q0 -72 -51.5 -121t-120.5 -49q-66 0 -110 44t-44 104z" />
<glyph unicode="j" horiz-adv-x="598" d="M-262 -492l53 224q55 -21 111 -21q82 0 122.5 50.5t65.5 181.5l168 874q-96 16 -162 21l33 163q160 20 337 20q42 0 85 -1l-209 -1106q-40 -209 -149 -315.5t-316 -106.5q-77 0 -139 16zM319 1317q0 72 52 121t121 49q66 0 109.5 -44t43.5 -104q0 -72 -52 -121t-120 -49 q-67 0 -110.5 44t-43.5 104z" />
<glyph unicode="k" d="M53 0l246 1294q-86 15 -164 21l31 164q159 19 338 19q45 0 90 -1l-76 -397q-22 -121 -86 -297l2 -2q61 115 158 176t223 61q134 0 205.5 -66.5t71.5 -172.5q0 -279 -402 -377l137 -227q77 -9 160 -25l-31 -170h-340l-227 418l-80 -418h-256zM455 547q195 26 280.5 73 t85.5 123q0 37 -23.5 60.5t-66.5 23.5t-85 -25t-77.5 -67t-63.5 -89t-50 -99z" />
<glyph unicode="l" horiz-adv-x="585" d="M53 -2l248 1296q-95 16 -166 21l31 164q159 19 338 19q45 0 90 -1l-246 -1296q100 -17 158 -21l-31 -164q-158 -19 -333 -19q-44 0 -89 1z" />
<glyph unicode="m" horiz-adv-x="1837" d="M98 838l33 166q156 17 320 17q45 0 90 -1q-29 -145 -92 -318h4q177 338 424 338q95 0 149.5 -50.5t54.5 -147.5q0 -53 -28 -148h2q78 155 185.5 250.5t240.5 95.5q137 0 191 -92q34 -59 35 -145q0 -48 -11 -103l-97 -499q66 -14 158 -21l-31 -166q-142 -17 -321 -17 q-49 0 -100 1l122 641q10 50 10 85q0 93 -67 93q-60 0 -135.5 -81.5t-138.5 -213t-88 -264.5l-50 -258h-256l123 639q10 50 10 85q0 93 -67 93q-60 0 -135.5 -81.5t-138.5 -213t-88 -264.5l-50 -258h-256l156 817q-91 16 -158 21z" />
<glyph unicode="n" horiz-adv-x="1241" d="M98 838l33 166q162 17 322 17q44 0 88 -1q-26 -131 -90 -318h4q77 151 184.5 244.5t243.5 93.5q142 0 195 -91q34 -59 34 -145q0 -47 -10 -102l-98 -503q97 -16 157 -21l-31 -164q-142 -17 -320 -17q-48 0 -99 1l123 641q9 51 9 86q-1 30 -7 49q-14 41 -64 41 q-65 0 -144 -89.5t-138.5 -217.5t-81.5 -244l-52 -264h-256l156 817q-94 17 -158 21z" />
<glyph unicode="o" horiz-adv-x="1112" d="M59 344q0 156 49.5 287.5t133.5 220t195 137.5t233 49q208 0 303.5 -99t95.5 -271q0 -153 -51 -284t-135.5 -218.5t-195 -136.5t-230.5 -49q-207 0 -302.5 93t-95.5 271zM328 385q0 -180 164 -180q133 0 220 127.5t87 302.5q0 90 -40.5 135t-127.5 45q-91 0 -162 -66 t-106 -163t-35 -201z" />
<glyph unicode="p" horiz-adv-x="1155" d="M-150 -494l33 166q88 20 162 25l211 1120q-84 15 -158 21l31 163q148 20 319 20q45 0 93 -1q-24 -118 -92 -322l4 -2q79 159 187.5 251.5t238.5 92.5q239 0 239 -317q0 -117 -24.5 -224.5t-77 -202t-128.5 -163.5t-184.5 -109t-238.5 -40q-54 0 -111 8l-53 -295 q80 -6 170 -25l-33 -166h-588zM395 209q58 -21 115 -21q83 0 151 45.5t108 118t61.5 156t21.5 166.5q0 141 -78 141q-68 0 -148.5 -92.5t-138.5 -217.5t-79 -233z" />
<glyph unicode="q" horiz-adv-x="1120" d="M55 295q0 117 25 225t77.5 202.5t128 164t184.5 109.5t239 40q200 0 360 -32l-248 -1307q67 -5 158 -25l-31 -166h-594l31 166q107 20 180 25l43 229q27 148 117 398h-4q-187 -347 -426 -347q-240 0 -240 318zM322 344q0 -141 77 -141q68 0 148.5 93t139 219.5 t79.5 236.5l12 65q-58 14 -114 14q-84 0 -152 -45.5t-108 -118.5t-61 -156.5t-21 -166.5z" />
<glyph unicode="r" horiz-adv-x="804" d="M98 838l33 166q159 17 320 17q44 0 88 -1q-18 -101 -88 -309h4q44 88 85 148.5t92 107.5t112 65q35 10 74 10q29 0 59 -6l-58 -252q-24 7 -47 7q-69 1 -136 -59q-89 -80 -149 -215.5t-90 -295.5l-41 -221h-256l158 817q-83 15 -160 21z" />
<glyph unicode="s" horiz-adv-x="843" d="M6 4l60 309h163q0 -53 -8 -135q33 -10 90 -10q77 0 123.5 32.5t46.5 88.5q0 32 -27 59.5t-67 47t-87 47t-87 57t-67 80.5t-27 114q0 146 122.5 245t338.5 99q123 0 243 -26l-55 -295h-162q0 72 6 133q-36 8 -73 8q-74 0 -117 -31t-43 -82q0 -32 27 -60t67.5 -48t87.5 -48 t87.5 -58t67.5 -79t27 -110q0 -70 -33.5 -135t-94.5 -115.5t-154 -81t-205 -30.5q-130 0 -250 24z" />
<glyph unicode="t" horiz-adv-x="751" d="M78 815l41 203h170l59 313l268 53l-69 -366h239l-41 -203h-237l-88 -459q-9 -47 -8 -78q0 -30 8 -46q16 -32 80 -31q62 0 127 14l-25 -209q-110 -26 -209 -26q-161 0 -215 82q-33 50 -33 138q0 56 13 128l92 487h-172z" />
<glyph unicode="u" horiz-adv-x="1241" d="M98 838l33 163q161 20 334 20q42 0 84 -1l-123 -641q-9 -52 -9 -87q0 -29 6 -48q14 -41 64 -41q65 0 144 90t139.5 219.5t83.5 247.5l10 59q-104 16 -141 19l31 168q145 15 285 15q60 0 120 -3l-158 -817q85 -15 160 -21l-31 -164q-148 -20 -314 -20q-47 0 -95 2 q13 99 88 317h-4q-77 -151 -184.5 -244.5t-243.5 -93.5q-142 0 -195 91q-34 59 -34 145q0 47 10 102l96 502q-88 16 -156 21z" />
<glyph unicode="v" horiz-adv-x="1079" d="M74 838l30 166q138 17 285 17q40 0 80 -1l45 -498q2 -68 2 -254h4l373 795l266 -76l-543 -987h-319l-86 817q-85 17 -137 21z" />
<glyph unicode="w" horiz-adv-x="1585" d="M55 838l33 166q137 17 281 17q39 0 80 -1l59 -752h2l258 477l-8 72q-90 15 -154 21l31 166q124 18 277 18q47 0 96 -2l39 -754h2l344 795l264 -72l-502 -989h-317l-41 442l-226 -442h-284l-86 817q-81 15 -148 21z" />
<glyph unicode="x" horiz-adv-x="1091" d="M-39 61l428 465l-129 299q-99 14 -145 25l30 168h328l127 -322l328 385l209 -123l-418 -460l137 -305q77 -7 150 -25l-33 -168h-330l-135 326l-332 -392z" />
<glyph unicode="y" horiz-adv-x="1095" d="M-166 -494l43 226q59 -21 125 -21q107 0 191 84q47 47 69.5 109t22.5 153q0 337 -74 760q-68 14 -148 21l31 166q138 17 289 17q42 0 84 -1q59 -329 59 -545q0 -119 -18 -270h4q165 305 375 856l264 -70q-218 -505 -400.5 -816t-365.5 -494q-194 -191 -397 -191 q-85 0 -154 16z" />
<glyph unicode="z" horiz-adv-x="917" d="M-12 0l37 193l569 634q-82 -4 -180 -4h-76q-26 -79 -45 -125h-166l59 320h744l-37 -193l-561 -620q43 2 180 2h86q18 61 45 129h168l-63 -336h-760z" />
<glyph unicode="{" horiz-adv-x="727" d="M68 543l38 196q110 6 166 52.5t78 169.5l33 178q39 229 147 340.5t304 111.5h45l-41 -207q-100 0 -144 -47.5t-71 -193.5l-35 -176q-31 -161 -93 -237t-153 -89v-4q83 -13 117.5 -93t3.5 -235l-53 -274q-27 -149 -2.5 -196.5t122.5 -47.5l-38 -211h-43q-193 0 -258 111 t-19 346l53 276q25 123 -14.5 173.5t-142.5 56.5z" />
<glyph unicode="|" horiz-adv-x="577" d="M0 -494l389 2048h205l-389 -2048h-205z" />
<glyph unicode="}" horiz-adv-x="727" d="M-98 -418l39 209q99 0 143.5 49t73.5 197l51 272q58 305 250 332v4q-181 27 -123 322l35 176q26 149 1.5 195t-124.5 46l39 207h41q194 0 259 -110.5t21 -341.5l-37 -178q-24 -123 15.5 -169.5t144.5 -52.5l-37 -196q-109 -6 -164.5 -55t-80.5 -175l-52 -274 q-47 -243 -152.5 -350t-299.5 -107h-43z" />
<glyph unicode="~" d="M176 881q9 173 98.5 268.5t233.5 95.5q47 0 86 -12t65 -31t47.5 -41.5t38.5 -45.5t33 -42t36.5 -31t43.5 -12q98 0 117 166h194q-7 -174 -96.5 -269.5t-234.5 -95.5q-65 0 -114 22t-77.5 53.5t-51.5 62.5t-49.5 53t-58.5 22q-97 0 -116 -163h-195z" />
<glyph unicode="&#xa1;" horiz-adv-x="645" d="M-16 -432l241 1065h221l-161 -1065h-301zM225 877q0 71 49 117t119 46q66 0 108 -42.5t42 -102.5q0 -71 -48.5 -118.5t-117.5 -47.5q-67 0 -109.5 43.5t-42.5 104.5z" />
<glyph unicode="&#xa2;" horiz-adv-x="1128" d="M139 580q0 129 38 242.5t110.5 203t186.5 146.5t257 71l31 158h170l-29 -152q56 -2 126.5 -15.5t115.5 -31.5l-62 -336h-159q0 82 6 146q-61 18 -144 18q-178 0 -274 -103.5t-96 -287.5q0 -118 73 -182t203 -64q68 0 153.5 14t145.5 37l-2 -215q-121 -48 -291 -61 l-36 -195h-173l37 193q-184 18 -285.5 123.5t-101.5 290.5z" />
<glyph unicode="&#xa3;" horiz-adv-x="1005" d="M23 0l34 188q111 60 168.5 129.5t77.5 174.5q9 53 12 122h-188l39 201h168q9 150 18 209q33 208 148.5 295.5t328.5 87.5q118 0 232 -29l-62 -323h-163q-3 60 4 133q-32 4 -47 4q-79 0 -122 -41.5t-61 -126.5q-4 -24 -7.5 -55.5t-6.5 -78t-6 -75.5h274l-39 -201h-254 q-3 -65 -12 -100q-21 -104 -59 -168t-121 -129q99 6 129 6h190q25 79 56 164h190l-74 -387h-847z" />
<glyph unicode="&#xa4;" d="M45 248l174 176q-33 53 -33 147q0 207 138 353l-113 188l221 137l109 -198q74 26 151 26q76 0 127 -22l182 196l175 -151l-181 -182q27 -49 27 -123q0 -200 -133 -357l123 -200l-224 -142l-116 211q-84 -33 -158 -33q-65 0 -111 19l-178 -195zM420 610q0 -67 32.5 -106 t100.5 -39q57 0 103 27t74 70t43 92t15 98q0 135 -139 135q-103 0 -166 -83.5t-63 -193.5z" />
<glyph unicode="&#xa5;" horiz-adv-x="1239" d="M111 264l28 148h320l24 118h-319l26 146h240l-174 520q-52 3 -102 18l30 168h496l-33 -168q-53 -13 -125 -20l70 -240q47 -144 57 -190h4q53 82 142 205l149 225q-70 6 -117 20l33 168h508l-33 -168q-64 -16 -110 -18l-377 -520h246l-27 -146h-326l-22 -118h325l-28 -148 h-328l-18 -90q81 -5 176 -24l-29 -150h-608l29 150q101 19 174 24l18 90h-319z" />
<glyph unicode="&#xa6;" horiz-adv-x="577" d="M0 -494l145 775h205l-147 -775h-203zM246 801l143 753h205l-143 -753h-205z" />
<glyph unicode="&#xa7;" horiz-adv-x="1062" d="M68 -322l55 222q89 -27 151 -27q57 0 99.5 16.5t64 42.5t31.5 51.5t10 51.5q0 37 -24 78t-60 77t-78.5 82t-78.5 92t-60 109.5t-24 130.5q0 109 55 202t158 163q-43 79 -43 159q0 46 15 95.5t52 101.5t90.5 93t138.5 67t189 26q94 0 176 -16l-51 -217q-70 20 -139 20 q-54 0 -93.5 -14.5t-59.5 -39t-29 -50t-9 -53.5q0 -40 33.5 -86t81 -94.5t95 -104t81 -134t33.5 -165.5q0 -102 -57 -195t-154 -157q39 -63 39 -150q0 -77 -32.5 -147t-93.5 -126.5t-158 -90t-216 -33.5q-115 0 -188 20zM393 653q0 -27 10.5 -56.5t23 -52t45 -62.5t52.5 -63 t70 -77q96 62 96 170q0 33 -11 64.5t-37 69t-52.5 69t-74.5 85.5q-6 6 -9 9.5t-8 9t-9 10.5q-96 -62 -96 -176z" />
<glyph unicode="&#xa8;" horiz-adv-x="1095" d="M346 1323q0 62 44 103.5t104 41.5q58 0 96.5 -39.5t38.5 -95.5q0 -62 -43.5 -104.5t-102.5 -42.5q-58 0 -97.5 40.5t-39.5 96.5zM760 1325q0 60 43.5 101.5t103.5 41.5q58 0 96.5 -39.5t38.5 -95.5q0 -62 -43 -104.5t-102 -42.5q-58 0 -97.5 40.5t-39.5 98.5z" />
<glyph unicode="&#xa9;" horiz-adv-x="1529" d="M113 672q5 195 104.5 358.5t264.5 257.5t356 94q142 0 267 -54t213 -146t137.5 -218.5t45.5 -267.5q-6 -196 -106 -360t-265 -258t-356 -94t-345 91.5t-238 249.5t-78 347zM309 674q-3 -134 58 -248t172 -181t245 -67q138 0 256 67.5t189 187t74 263.5q4 132 -57.5 245.5 t-173 180t-245.5 66.5q-208 0 -360 -149.5t-158 -364.5zM477 616q12 118 64.5 211.5t151 152t227.5 58.5q91 0 161 -20l-49 -252h-129q0 34 4 104q-14 2 -45 2q-82 0 -124.5 -67.5t-49.5 -165.5q-9 -80 22.5 -116t112.5 -36q63 0 156 27l-16 -168q-114 -27 -203 -27 q-166 0 -234.5 78t-48.5 219z" />
<glyph unicode="&#xaa;" horiz-adv-x="890" d="M74 360l41 203h661l-41 -203h-661zM129 879q0 105 31 198.5t89 166t149.5 115t203.5 42.5q138 0 270 -23q-80 -417 -100 -534q94 -15 125 -17l-27 -147q-176 -20 -329 -14q20 80 55 182h-2q-113 -199 -281 -199q-184 0 -184 230zM342 926q0 -49 12 -70.5t39 -21.5 q70 0 144 107.5t94 236.5l8 45q-45 10 -78 10q-66 0 -117.5 -47.5t-76.5 -116.5t-25 -143z" />
<glyph unicode="&#xab;" horiz-adv-x="1067" d="M111 612l288 389l191 -100l-230 -301l123 -307l-215 -92zM551 610l307 381l182 -100l-239 -291l141 -295l-211 -94z" />
<glyph unicode="&#xac;" d="M86 500l43 219h922l-101 -524h-231l57 305h-690z" />
<glyph unicode="&#xad;" horiz-adv-x="669" d="M88 463l41 211h492l-41 -211h-492z" />
<glyph unicode="&#xae;" horiz-adv-x="1144" d="M207 1057q0 142 71 258.5t184.5 180t242.5 63.5q191 0 320.5 -128t129.5 -319q0 -105 -42 -199t-111 -159t-159.5 -102.5t-185.5 -37.5q-190 0 -320 127.5t-130 315.5zM369 1071q0 -127 86 -219t211 -92q132 0 229.5 100t97.5 246q0 125 -85.5 216t-209.5 91 q-133 0 -231 -99t-98 -243zM467 866l12 74q25 9 47 12l52 279q-40 13 -41 14l16 72l51 2h137q82 0 122.5 -29.5t31.5 -89.5q-3 -48 -33.5 -83.5t-75.5 -49.5q11 -11 23 -43l22 -72q22 -3 37 -12l-10 -74h-133l-41 172h-29l-16 -86q18 -3 37 -12l-14 -74h-195zM672 1126h26 q35 0 56.5 17.5t23.5 44.5q0 37 -47 37h-41z" />
<glyph unicode="&#xaf;" horiz-adv-x="792" d="M272 1229l35 188h541l-35 -188h-541z" />
<glyph unicode="&#xb0;" horiz-adv-x="778" d="M221 1198q0 74 29.5 135.5t78 99t106 58t116.5 20.5q145 0 214 -73t69 -185q0 -78 -29 -139.5t-76.5 -99t-106 -57t-120.5 -19.5q-133 0 -207 71.5t-74 188.5zM418 1217q0 -52 28 -82.5t78 -30.5q51 0 84 36.5t33 96.5q0 42 -25 76.5t-77 34.5q-51 0 -86 -35.5t-35 -95.5 z" />
<glyph unicode="&#xb1;" d="M-2 0l43 219h950l-41 -219h-952zM127 709l39 217h358l74 372h248l-72 -372h359l-41 -217h-359l-69 -375h-250l71 375h-358z" />
<glyph unicode="&#xb2;" horiz-adv-x="774" d="M74 553l35 188l204 144q129 83 182.5 137t53.5 104q0 82 -88 82q-45 0 -82 -12q-6 -22 -45 -127h-154l53 279q142 49 281 49q153 0 226 -60.5t73 -167.5q0 -75 -54.5 -155.5t-166.5 -155.5l-146 -102q138 7 318 4l-39 -207h-651z" />
<glyph unicode="&#xb3;" horiz-adv-x="722" d="M74 553l53 172q97 -23 170 -23q92 0 139 28.5t47 80.5q0 23 -12.5 38t-44 25.5t-94 10t-154.5 -12.5l31 158q94 0 159.5 9.5t102 28t52.5 42.5t16 55q0 68 -80 68q-41 0 -72 -8q-15 -55 -39 -105h-153l47 246q152 31 258 31q156 0 222 -53.5t66 -137.5 q0 -72 -45.5 -129.5t-121.5 -85.5q55 -13 84.5 -55.5t29.5 -93.5q0 -136 -126 -221.5t-316 -85.5q-116 0 -219 18z" />
<glyph unicode="&#xb4;" horiz-adv-x="788" d="M336 1290l369 254l104 -178l-387 -219z" />
<glyph unicode="&#xb5;" horiz-adv-x="1259" d="M41 -494q5 159 25.5 321t42.5 267t59.5 275t56.5 266l35 182q-85 15 -160 21l33 166q202 22 422 16l-109 -574q-25 -142 -5.5 -192.5t85.5 -50.5t144.5 89.5t138.5 219t80 248.5l12 59q-113 17 -143 19l33 168q206 21 405 12l-111 -576q-22 -116 -22 -178 q0 -36 11.5 -50.5t39.5 -14.5q25 0 41 4l-16 -209q-61 -12 -121 -12q-104 0 -151.5 38t-47.5 123q0 73 35 172h-2q-62 -145 -162 -238t-203 -93q-60 0 -101 24t-50 72q-5 -121 -8 -137q-31 -209 -31 -437h-256z" />
<glyph unicode="&#xb6;" horiz-adv-x="1183" d="M186 838q0 104 39 201.5t110.5 174t182 122.5t242.5 46l-172 -909q-199 -1 -300.5 97.5t-101.5 267.5zM477 -197l39 209h139l263 1370h348l-39 -208h-131l-260 -1371h-359z" />
<glyph unicode="&#xb7;" horiz-adv-x="544" d="M129 606q0 71 53.5 122.5t124.5 51.5q69 0 116.5 -49.5t47.5 -116.5q0 -73 -52.5 -123.5t-123.5 -50.5q-70 0 -118 49t-48 117z" />
<glyph unicode="&#xb8;" horiz-adv-x="802" d="M104 -479q62 63 90.5 112.5t28 104.5t-36.5 115l222 65q111 -206 -97 -397h-207z" />
<glyph unicode="&#xb9;" horiz-adv-x="673" d="M70 553l30 154q78 20 183 26l82 430l-175 -67v200l252 86h213l-125 -649q92 -12 148 -26l-29 -154h-579z" />
<glyph unicode="&#xba;" horiz-adv-x="882" d="M78 360l41 203h645l-41 -203h-645zM147 909q0 137 55.5 249t159 178.5t234.5 66.5q301 0 301 -264q0 -112 -38.5 -206t-102.5 -155.5t-145.5 -95t-168.5 -33.5q-153 0 -224 65.5t-71 194.5zM371 942q0 -108 98 -108q94 0 148.5 83t54.5 193q0 113 -105 113 q-66 0 -112.5 -48.5t-65 -109.5t-18.5 -123z" />
<glyph unicode="&#xbb;" horiz-adv-x="1067" d="M90 311l242 293l-142 295l211 92l181 -399l-308 -381zM543 301l229 303l-125 307l215 90l158 -411l-287 -387z" />
<glyph unicode="&#xbc;" horiz-adv-x="1525" d="M-23 -8l1412 1470l106 -98l-1411 -1470zM72 686l20 117q57 14 150 24l75 392l-143 -56l-8 150l199 73h192l-106 -559q49 -5 120 -24l-20 -117h-479zM700 172l5 139l331 385h269l-72 -377h121l-29 -147h-121l-10 -57q50 -11 92 -23l-16 -92h-410l17 92l110 25l10 55h-297z M877 319h155l43 238z" />
<glyph unicode="&#xbd;" horiz-adv-x="1579" d="M-29 -8l1409 1470l107 -98l-1411 -1470zM72 686l20 117q57 14 150 24l75 392l-143 -56l-8 150l199 73h192l-106 -559q49 -5 120 -24l-20 -117h-479zM754 0l30 166l193 131q101 62 141.5 97t48.5 79q8 39 -10 61.5t-57 22.5q-33 0 -66 -10q-8 -19 -21.5 -52.5t-21.5 -52.5 h-135l53 228q126 45 273 45q137 0 195 -53t40 -142q-14 -80 -63 -136.5t-129 -109.5l-156 -106h291l-31 -168h-575z" />
<glyph unicode="&#xbe;" horiz-adv-x="1525" d="M-23 -8l1412 1470l106 -98l-1411 -1470zM74 686q24 76 49 145q68 -22 139 -22t114 21t50 61q9 43 -34 57.5t-146 9.5q-18 0 -76 -4l27 138h39q83 0 135.5 14.5t72 35t25.5 50.5q8 35 -12.5 55.5t-69.5 20.5q-28 0 -49 -6q-10 -36 -33 -82h-123l39 196q130 29 230 29 q128 0 188.5 -44.5t40.5 -135.5q-20 -116 -139 -166q58 -13 83.5 -55.5t14.5 -98.5q-22 -110 -130 -172.5t-276 -62.5q-77 0 -159 16zM700 172l5 139l331 385h269l-72 -377h121l-29 -147h-121l-10 -57q50 -11 92 -23l-16 -92h-410l17 92l110 25l10 55h-297zM877 319h155 l43 238z" />
<glyph unicode="&#xbf;" horiz-adv-x="905" d="M-6 -72q0 75 26 138t67 107.5t90.5 84.5t97 78t85 79t56.5 96.5t10 121.5h252q12 -83 -3 -152.5t-49 -118.5t-78.5 -90.5t-91 -76t-86 -66.5t-64.5 -71.5t-25 -82.5q0 -55 49 -96t127 -62.5t182 -29.5l-76 -238q-139 7 -249 40t-179 84t-105 116t-36 139zM436 877 q0 71 49 117t119 46q66 0 108 -42.5t42 -102.5q0 -71 -48.5 -118.5t-117.5 -47.5q-67 0 -109.5 43.5t-42.5 104.5z" />
<glyph unicode="&#xc0;" horiz-adv-x="1398" d="M-72 0l29 166q60 17 111 20l634 1196h336l185 -1194q57 -7 104 -22l-33 -166h-528l31 166q102 18 149 22l-24 177h-492l-90 -177q39 -4 133 -22l-31 -166h-514zM532 571h365l-53 353q-18 159 -21 219h-2q-28 -68 -102 -219zM573 1575l82 188l406 -153l-60 -144z" />
<glyph unicode="&#xc1;" horiz-adv-x="1398" d="M-72 0l29 166q60 17 111 20l634 1196h336l185 -1194q57 -7 104 -22l-33 -166h-528l31 166q102 18 149 22l-24 177h-492l-90 -177q39 -4 133 -22l-31 -166h-514zM532 571h365l-53 353q-18 159 -21 219h-2q-28 -68 -102 -219zM727 1610l434 153l37 -188l-442 -109z" />
<glyph unicode="&#xc2;" horiz-adv-x="1398" d="M-72 0l29 166q60 17 111 20l634 1196h336l185 -1194q57 -7 104 -22l-33 -166h-528l31 166q102 18 149 22l-24 177h-492l-90 -177q39 -4 133 -22l-31 -166h-514zM532 571h365l-53 353q-18 159 -21 219h-2q-28 -68 -102 -219zM567 1591l355 178l311 -174l-72 -131l-258 123 l-287 -123z" />
<glyph unicode="&#xc3;" horiz-adv-x="1398" d="M-72 0l29 166q60 17 111 20l634 1196h336l185 -1194q57 -7 104 -22l-33 -166h-528l31 166q102 18 149 22l-24 177h-492l-90 -177q39 -4 133 -22l-31 -166h-514zM524 1589q102 168 258 168q46 0 86 -15t62.5 -33t51 -33t54.5 -15q63 0 119 86l125 -88q-47 -82 -113.5 -125 t-144.5 -43q-47 0 -87 15t-62 33t-50 33t-53 15q-64 0 -121 -88zM532 571h365l-53 353q-18 159 -21 219h-2q-28 -68 -102 -219z" />
<glyph unicode="&#xc4;" horiz-adv-x="1398" d="M-72 0l29 166q60 17 111 20l634 1196h336l185 -1194q57 -7 104 -22l-33 -166h-528l31 166q102 18 149 22l-24 177h-492l-90 -177q39 -4 133 -22l-31 -166h-514zM532 571h365l-53 353q-18 159 -21 219h-2q-28 -68 -102 -219zM559 1599q0 61 40.5 102.5t96.5 41.5 q55 0 92 -39t37 -92q0 -60 -40.5 -99.5t-96.5 -39.5q-55 0 -92 36.5t-37 89.5zM989 1599q0 61 40.5 102.5t96.5 41.5q55 0 92 -39t37 -92q0 -60 -41 -99.5t-98 -39.5q-54 0 -90.5 36.5t-36.5 89.5z" />
<glyph unicode="&#xc5;" horiz-adv-x="1398" d="M-72 0l29 166q60 17 111 20l634 1196h336l185 -1194q57 -7 104 -22l-33 -166h-528l31 166q102 18 149 22l-24 177h-492l-90 -177q39 -4 133 -22l-31 -166h-514zM532 571h365l-53 353q-18 159 -21 219h-2q-28 -68 -102 -219zM684 1661q0 105 73 173.5t173 68.5 q98 0 162.5 -62t64.5 -155q0 -102 -74 -172t-174 -70q-96 0 -160.5 62.5t-64.5 154.5zM821 1669q0 -40 27 -68t67 -28q42 0 72.5 31t30.5 75q0 39 -26 68t-66 29q-43 0 -74 -32t-31 -75z" />
<glyph unicode="&#xc6;" horiz-adv-x="1660" d="M-147 0l32 166q56 17 109 20l700 1004q-78 5 -170 27l33 165h1165l-67 -348h-193q-3 71 4 140h-270l-70 -369h222q18 58 43 113h165l-79 -416h-166q-4 36 0 112h-221l-76 -399h280q3 11 49 147h197l-70 -362h-899l31 168q90 20 148 25l30 159h-393l-115 -164 q47 -5 117 -22l-33 -166h-503zM516 561h303l117 608h-8q-91 -150 -193 -299z" />
<glyph unicode="&#xc7;" horiz-adv-x="1134" d="M96 467q0 142 32 276.5t99 253t160.5 207t225.5 140t286 51.5q182 0 313 -35l-77 -395h-197q0 99 8 172q-46 14 -119 14q-110 0 -196.5 -60t-136.5 -156t-75.5 -203.5t-25.5 -215.5q0 -140 68 -215.5t225 -75.5q69 0 153.5 18t147.5 46l-4 -242q-183 -63 -371 -63 q-121 0 -214.5 29t-149 75t-91 111.5t-48.5 129.5t-13 138zM305 -479q62 63 90.5 112.5t28 104.5t-36.5 115l221 65q111 -206 -96 -397h-207z" />
<glyph unicode="&#xc8;" horiz-adv-x="1077" d="M-43 0l31 166q94 21 180 27l188 997q-80 5 -168 27l31 165h924l-66 -348h-194q0 58 4 140h-273l-69 -369h221q20 63 45 113h164l-78 -416h-168q-2 35 -2 112h-217l-76 -399h273q21 71 51 147h196l-69 -362h-928zM412 1575l82 188l405 -153l-59 -144z" />
<glyph unicode="&#xc9;" horiz-adv-x="1077" d="M-43 0l31 166q94 21 180 27l188 997q-80 5 -168 27l31 165h924l-66 -348h-194q0 58 4 140h-273l-69 -369h221q20 63 45 113h164l-78 -416h-168q-2 35 -2 112h-217l-76 -399h273q21 71 51 147h196l-69 -362h-928zM602 1610l434 153l37 -188l-442 -109z" />
<glyph unicode="&#xca;" horiz-adv-x="1077" d="M-43 0l31 166q94 21 180 27l188 997q-80 5 -168 27l31 165h924l-66 -348h-194q0 58 4 140h-273l-69 -369h221q20 63 45 113h164l-78 -416h-168q-2 35 -2 112h-217l-76 -399h273q21 71 51 147h196l-69 -362h-928zM428 1591l354 178l312 -174l-72 -131l-258 123l-287 -123z " />
<glyph unicode="&#xcb;" horiz-adv-x="1077" d="M-43 0l31 166q94 21 180 27l188 997q-80 5 -168 27l31 165h924l-66 -348h-194q0 58 4 140h-273l-69 -369h221q20 63 45 113h164l-78 -416h-168q-2 35 -2 112h-217l-76 -399h273q21 71 51 147h196l-69 -362h-928zM399 1599q0 61 41 102.5t97 41.5q55 0 92 -39t37 -92 q0 -60 -41 -99.5t-97 -39.5q-55 0 -92 36.5t-37 89.5zM829 1599q0 61 41 102.5t97 41.5q55 0 92 -39t37 -92q0 -60 -41.5 -99.5t-98.5 -39.5q-54 0 -90.5 36.5t-36.5 89.5z" />
<glyph unicode="&#xcc;" horiz-adv-x="700" d="M-43 0l31 166q94 21 178 27l190 997q-80 5 -168 27l31 165h610l-30 -165q-99 -22 -181 -27l-190 -997q83 -6 170 -27l-31 -166h-610zM240 1575l82 188l405 -153l-59 -144z" />
<glyph unicode="&#xcd;" horiz-adv-x="700" d="M-43 0l31 166q94 21 178 27l190 997q-80 5 -168 27l31 165h610l-30 -165q-99 -22 -181 -27l-190 -997q83 -6 170 -27l-31 -166h-610zM381 1610l434 153l37 -188l-442 -109z" />
<glyph unicode="&#xce;" horiz-adv-x="700" d="M-43 0l31 166q94 21 178 27l190 997q-80 5 -168 27l31 165h610l-30 -165q-99 -22 -181 -27l-190 -997q83 -6 170 -27l-31 -166h-610zM227 1591l355 178l311 -174l-72 -131l-258 123l-287 -123z" />
<glyph unicode="&#xcf;" horiz-adv-x="700" d="M-43 0l31 166q94 21 178 27l190 997q-80 5 -168 27l31 165h610l-30 -165q-99 -22 -181 -27l-190 -997q83 -6 170 -27l-31 -166h-610zM219 1599q0 61 40.5 102.5t96.5 41.5q55 0 92 -39t37 -92q0 -60 -40.5 -99.5t-96.5 -39.5q-55 0 -92 36.5t-37 89.5zM649 1599 q0 61 40.5 102.5t96.5 41.5q55 0 92 -39t37 -92q0 -60 -41 -99.5t-98 -39.5q-54 0 -90.5 36.5t-36.5 89.5z" />
<glyph unicode="&#xd0;" horiz-adv-x="1439" d="M-23 0l31 166q100 22 178 27l78 409h-149l39 201h149l74 387q-80 5 -168 27l31 165h170q43 0 194.5 4.5t235.5 4.5q290 0 436.5 -127.5t146.5 -372.5q0 -141 -34 -271.5t-105.5 -245t-173.5 -199.5t-248 -134t-319 -49q-86 0 -213.5 4t-179.5 4h-173zM455 229 q62 -10 127 -10q120 0 218.5 42t161 108.5t105 153t60.5 172t18 169.5q0 146 -78 224.5t-262 78.5q-107 0 -172 -6l-68 -358h246l-39 -201h-246z" />
<glyph unicode="&#xd1;" horiz-adv-x="1507" d="M-43 0l31 166q100 22 180 27l188 997q-80 5 -168 27l31 165h508l270 -733q49 -143 90 -313q45 315 70 444l76 410q-73 6 -131 24l31 168h516l-33 -168q-53 -14 -131 -24l-225 -1190h-330l-275 733q-62 180 -90 324q-21 -186 -65 -430l-78 -434q71 -6 139 -25l-33 -168 h-571zM616 1589q102 168 258 168q46 0 86 -15t62.5 -33t51 -33t54.5 -15q63 0 119 86l125 -88q-47 -82 -113.5 -125t-144.5 -43q-47 0 -87 15t-62 33t-50 33t-53 15q-64 0 -121 -88z" />
<glyph unicode="&#xd2;" horiz-adv-x="1411" d="M90 481q0 248 105 459.5t291.5 338t410.5 126.5q249 0 379.5 -131.5t130.5 -374.5q0 -195 -64.5 -367.5t-173 -293.5t-257 -191t-312.5 -70q-255 0 -382.5 131.5t-127.5 372.5zM371 526q0 -147 68 -227t198 -80q137 0 250 88.5t176 237t63 323.5q0 138 -68.5 217.5 t-205.5 79.5q-141 0 -253 -91.5t-170 -236t-58 -311.5zM608 1575l82 188l406 -153l-60 -144z" />
<glyph unicode="&#xd3;" horiz-adv-x="1411" d="M90 481q0 248 105 459.5t291.5 338t410.5 126.5q249 0 379.5 -131.5t130.5 -374.5q0 -195 -64.5 -367.5t-173 -293.5t-257 -191t-312.5 -70q-255 0 -382.5 131.5t-127.5 372.5zM371 526q0 -147 68 -227t198 -80q137 0 250 88.5t176 237t63 323.5q0 138 -68.5 217.5 t-205.5 79.5q-141 0 -253 -91.5t-170 -236t-58 -311.5zM784 1610l435 153l36 -188l-442 -109z" />
<glyph unicode="&#xd4;" horiz-adv-x="1411" d="M90 481q0 248 105 459.5t291.5 338t410.5 126.5q249 0 379.5 -131.5t130.5 -374.5q0 -195 -64.5 -367.5t-173 -293.5t-257 -191t-312.5 -70q-255 0 -382.5 131.5t-127.5 372.5zM371 526q0 -147 68 -227t198 -80q137 0 250 88.5t176 237t63 323.5q0 138 -68.5 217.5 t-205.5 79.5q-141 0 -253 -91.5t-170 -236t-58 -311.5zM600 1591l354 178l312 -174l-72 -131l-258 123l-287 -123z" />
<glyph unicode="&#xd5;" horiz-adv-x="1411" d="M90 481q0 248 105 459.5t291.5 338t410.5 126.5q249 0 379.5 -131.5t130.5 -374.5q0 -195 -64.5 -367.5t-173 -293.5t-257 -191t-312.5 -70q-255 0 -382.5 131.5t-127.5 372.5zM371 526q0 -147 68 -227t198 -80q137 0 250 88.5t176 237t63 323.5q0 138 -68.5 217.5 t-205.5 79.5q-141 0 -253 -91.5t-170 -236t-58 -311.5zM553 1589q102 168 258 168q46 0 86 -15t62.5 -33t51 -33t54.5 -15q63 0 119 86l125 -88q-47 -82 -113.5 -125t-144.5 -43q-47 0 -87 15t-62 33t-50 33t-53 15q-64 0 -121 -88z" />
<glyph unicode="&#xd6;" horiz-adv-x="1411" d="M90 481q0 248 105 459.5t291.5 338t410.5 126.5q249 0 379.5 -131.5t130.5 -374.5q0 -195 -64.5 -367.5t-173 -293.5t-257 -191t-312.5 -70q-255 0 -382.5 131.5t-127.5 372.5zM371 526q0 -147 68 -227t198 -80q137 0 250 88.5t176 237t63 323.5q0 138 -68.5 217.5 t-205.5 79.5q-141 0 -253 -91.5t-170 -236t-58 -311.5zM571 1599q0 61 41 102.5t97 41.5q55 0 92 -39t37 -92q0 -60 -41 -99.5t-97 -39.5q-55 0 -92 36.5t-37 89.5zM1001 1599q0 61 41 102.5t97 41.5q55 0 92 -39t37 -92q0 -60 -41.5 -99.5t-98.5 -39.5q-54 0 -90.5 36.5 t-36.5 89.5z" />
<glyph unicode="&#xd7;" d="M59 297l381 319l-256 320l176 141l254 -315l373 315l131 -155l-377 -318l258 -321l-176 -142l-256 318l-377 -318z" />
<glyph unicode="&#xd8;" horiz-adv-x="1411" d="M90 481q0 186 61.5 356t167 295t256 199t320.5 74q69 0 113 -10l100 190l184 -65l-98 -185q213 -120 213 -436q0 -195 -64.5 -367.5t-173 -293.5t-257 -191t-312.5 -70q-66 0 -129 13l-104 -205l-187 70l107 198q-197 124 -197 428zM362 522q0 -134 66 -203l457 848 q-39 3 -97 -4q-125 -20 -223 -114t-150.5 -232.5t-52.5 -294.5zM594 219q57 -6 119 6q181 34 302.5 218t121.5 429q0 142 -76 209z" />
<glyph unicode="&#xd9;" horiz-adv-x="1427" d="M164 354q0 59 14 152l131 684q-67 9 -121 24l31 168h533l-33 -168q-64 -17 -150 -24l-129 -684q-14 -66 -14 -119q0 -99 54.5 -148t174.5 -49q154 0 238 78t119 262l125 660q-81 7 -142 24l33 168h528l-32 -168q-62 -15 -129 -24l-129 -682q-105 -531 -650 -531 q-452 0 -452 377zM528 1575l82 188l406 -153l-60 -144z" />
<glyph unicode="&#xda;" horiz-adv-x="1427" d="M164 354q0 59 14 152l131 684q-67 9 -121 24l31 168h533l-33 -168q-64 -17 -150 -24l-129 -684q-14 -66 -14 -119q0 -99 54.5 -148t174.5 -49q154 0 238 78t119 262l125 660q-81 7 -142 24l33 168h528l-32 -168q-62 -15 -129 -24l-129 -682q-105 -531 -650 -531 q-452 0 -452 377zM801 1610l434 153l37 -188l-443 -109z" />
<glyph unicode="&#xdb;" horiz-adv-x="1427" d="M164 354q0 59 14 152l131 684q-67 9 -121 24l31 168h533l-33 -168q-64 -17 -150 -24l-129 -684q-14 -66 -14 -119q0 -99 54.5 -148t174.5 -49q154 0 238 78t119 262l125 660q-81 7 -142 24l33 168h528l-32 -168q-62 -15 -129 -24l-129 -682q-105 -531 -650 -531 q-452 0 -452 377zM586 1591l354 178l311 -174l-71 -131l-258 123l-287 -123z" />
<glyph unicode="&#xdc;" horiz-adv-x="1427" d="M164 354q0 59 14 152l131 684q-67 9 -121 24l31 168h533l-33 -168q-64 -17 -150 -24l-129 -684q-14 -66 -14 -119q0 -99 54.5 -148t174.5 -49q154 0 238 78t119 262l125 660q-81 7 -142 24l33 168h528l-32 -168q-62 -15 -129 -24l-129 -682q-105 -531 -650 -531 q-452 0 -452 377zM582 1599q0 61 40.5 102.5t96.5 41.5q55 0 92 -39t37 -92q0 -60 -40.5 -99.5t-96.5 -39.5q-55 0 -92 36.5t-37 89.5zM1012 1599q0 61 40.5 102.5t96.5 41.5q55 0 92 -39t37 -92q0 -60 -41 -99.5t-98 -39.5q-54 0 -90.5 36.5t-36.5 89.5z" />
<glyph unicode="&#xdd;" horiz-adv-x="1226" d="M158 1214l30 168h506l-32 -168q-49 -13 -125 -20l73 -272q38 -151 49 -207h5q19 35 137 227l155 252q-72 8 -112 20l33 168h507l-30 -168q-69 -16 -109 -18l-502 -725l-53 -278q80 -5 172 -27l-33 -166h-612l31 166q100 22 180 27l53 278l-221 725q-43 3 -102 18z M721 1610l434 153l37 -188l-442 -109z" />
<glyph unicode="&#xde;" horiz-adv-x="1200" d="M-43 0l31 166q100 22 180 27l190 997q-83 6 -170 27l31 165h610l-30 -165q-94 -21 -178 -27l-17 -86q76 8 184 8q97 0 173 -16.5t124 -45t79.5 -69.5t44 -86t12.5 -98q0 -214 -165 -354t-438 -140q-58 0 -165 10l-25 -120q83 -6 170 -27l-31 -166h-610zM494 526 q62 -10 122 -10q147 0 231.5 69t84.5 173q0 145 -207 145q-93 0 -162 -14z" />
<glyph unicode="&#xdf;" horiz-adv-x="1265" d="M-291 -492l60 213q49 -16 110 -16q91 0 137.5 55t75.5 203l166 856q-90 16 -160 19l33 166q63 9 164 12q48 247 195 370t364 123q171 0 269 -74t98 -202q0 -58 -17 -106t-44 -80.5t-59.5 -60t-65 -51t-59.5 -46.5t-44 -52.5t-17 -64.5q0 -32 21.5 -62t53 -53.5t69 -55 t69 -63.5t53 -82t21.5 -108q0 -70 -32 -136t-90 -117.5t-147.5 -83t-195.5 -31.5q-128 0 -227 16l59 313h162q0 -76 -8 -131q36 -4 59 -4q75 0 116.5 33t41.5 92q0 40 -30.5 76t-74 67.5t-86.5 67.5t-73.5 92t-30.5 125q0 75 31.5 134.5t76.5 98.5t89.5 74t76 78t31.5 94 q0 43 -34 72t-95 29q-100 0 -171 -70.5t-99 -212.5l-203 -1063q-49 -250 -166.5 -360.5t-320.5 -110.5q-67 0 -152 18z" />
<glyph unicode="&#xe0;" horiz-adv-x="1155" d="M55 295q0 117 25 225t77.5 202.5t128 164t184.5 109.5t239 40q212 0 362 -30l-156 -805q86 -18 160 -21l-31 -164q-196 -24 -411 -18q24 121 92 326h-4q-187 -347 -426 -347q-240 0 -240 318zM322 344q0 -141 75 -141q69 0 150 93t139.5 219.5t79.5 236.5l12 65 q-58 14 -114 14q-84 0 -152 -45.5t-108 -118.5t-61 -156.5t-21 -166.5zM420 1374l129 170l332 -258l-107 -139z" />
<glyph unicode="&#xe1;" horiz-adv-x="1155" d="M55 295q0 117 25 225t77.5 202.5t128 164t184.5 109.5t239 40q212 0 362 -30l-156 -805q86 -18 160 -21l-31 -164q-196 -24 -411 -18q24 121 92 326h-4q-187 -347 -426 -347q-240 0 -240 318zM322 344q0 -141 75 -141q69 0 150 93t139.5 219.5t79.5 236.5l12 65 q-58 14 -114 14q-84 0 -152 -45.5t-108 -118.5t-61 -156.5t-21 -166.5zM586 1290l368 254l105 -178l-387 -219z" />
<glyph unicode="&#xe2;" horiz-adv-x="1155" d="M55 295q0 117 25 225t77.5 202.5t128 164t184.5 109.5t239 40q212 0 362 -30l-156 -805q86 -18 160 -21l-31 -164q-196 -24 -411 -18q24 121 92 326h-4q-187 -347 -426 -347q-240 0 -240 318zM322 344q0 -141 75 -141q69 0 150 93t139.5 219.5t79.5 236.5l12 65 q-58 14 -114 14q-84 0 -152 -45.5t-108 -118.5t-61 -156.5t-21 -166.5zM414 1266l356 278l258 -276l-115 -121l-178 166l-235 -166z" />
<glyph unicode="&#xe3;" horiz-adv-x="1155" d="M55 295q0 117 25 225t77.5 202.5t128 164t184.5 109.5t239 40q212 0 362 -30l-156 -805q86 -18 160 -21l-31 -164q-196 -24 -411 -18q24 121 92 326h-4q-187 -347 -426 -347q-240 0 -240 318zM322 344q0 -141 75 -141q69 0 150 93t139.5 219.5t79.5 236.5l12 65 q-58 14 -114 14q-84 0 -152 -45.5t-108 -118.5t-61 -156.5t-21 -166.5zM346 1294q94 183 254 183q45 0 83.5 -16t60 -35.5t48.5 -35.5t52 -16q66 0 119 92l120 -96q-45 -88 -112 -135t-144 -47q-45 0 -83 16t-59 35t-47.5 35t-51.5 16q-66 0 -119 -92z" />
<glyph unicode="&#xe4;" horiz-adv-x="1155" d="M55 295q0 117 25 225t77.5 202.5t128 164t184.5 109.5t239 40q212 0 362 -30l-156 -805q86 -18 160 -21l-31 -164q-196 -24 -411 -18q24 121 92 326h-4q-187 -347 -426 -347q-240 0 -240 318zM322 344q0 -141 75 -141q69 0 150 93t139.5 219.5t79.5 236.5l12 65 q-58 14 -114 14q-84 0 -152 -45.5t-108 -118.5t-61 -156.5t-21 -166.5zM373 1323q0 62 43.5 103.5t103.5 41.5q58 0 96.5 -39.5t38.5 -95.5q0 -62 -43 -104.5t-102 -42.5q-58 0 -97.5 40.5t-39.5 96.5zM786 1325q0 60 44 101.5t104 41.5q58 0 96.5 -39.5t38.5 -95.5 q0 -62 -43 -104.5t-102 -42.5q-58 0 -98 41t-40 98z" />
<glyph unicode="&#xe5;" horiz-adv-x="1155" d="M55 295q0 117 25 225t77.5 202.5t128 164t184.5 109.5t239 40q212 0 362 -30l-156 -805q86 -18 160 -21l-31 -164q-196 -24 -411 -18q24 121 92 326h-4q-187 -347 -426 -347q-240 0 -240 318zM322 344q0 -141 75 -141q69 0 150 93t139.5 219.5t79.5 236.5l12 65 q-58 14 -114 14q-84 0 -152 -45.5t-108 -118.5t-61 -156.5t-21 -166.5zM461 1354q0 114 81.5 188t190.5 74q106 0 177 -68.5t71 -169.5q0 -111 -81 -185.5t-191 -74.5q-106 0 -177 67.5t-71 168.5zM614 1362q0 -44 29 -74.5t72 -30.5q46 0 79 33t33 82q0 43 -28 74t-72 31 q-47 0 -80 -34.5t-33 -80.5z" />
<glyph unicode="&#xe6;" horiz-adv-x="1564" d="M29 207q0 98 46.5 172.5t133 121.5t202.5 71.5t263 29.5l14 60q22 94 -11.5 136t-131.5 42q-71 0 -150 -21q-10 -33 -45 -131h-162l56 297q181 57 352 57q116 0 180.5 -33.5t100.5 -93.5q60 51 148.5 87t180.5 36q93 0 160 -21t103 -57t52.5 -78t16.5 -91 q0 -82 -34 -144.5t-108.5 -111t-199.5 -76.5t-299 -33q-6 -41 -6 -90q0 -87 40 -118.5t148 -31.5q144 0 293 60l4 -201q-174 -65 -381 -65q-147 0 -223 51.5t-104 148.5q-58 -89 -158.5 -144.5t-220.5 -55.5q-132 0 -196 63.5t-64 163.5zM283 264q0 -38 26.5 -62t71.5 -24 q98 0 171 74.5t89 177.5q-87 -4 -148 -13t-111 -27.5t-74.5 -49.5t-24.5 -76zM928 600q85 4 145.5 12.5t111 25.5t76 46.5t25.5 71.5t-29 66t-79 24q-90 0 -156 -70.5t-94 -175.5z" />
<glyph unicode="&#xe7;" horiz-adv-x="874" d="M61 336q0 204 77.5 364.5t211.5 248t299 87.5q140 0 258 -32l-63 -330l-162 2q-3 61 4 137q-27 8 -68 8q-80 0 -145.5 -60t-102 -158t-36.5 -210q0 -87 43 -135.5t145 -48.5q111 0 219 43l9 -221q-152 -49 -297 -49q-205 0 -298.5 91.5t-93.5 262.5zM147 -479 q62 63 90.5 112.5t28 104.5t-36.5 115l222 65q111 -206 -97 -397h-207z" />
<glyph unicode="&#xe8;" horiz-adv-x="995" d="M61 324q0 156 45.5 290.5t123.5 227t184.5 144.5t226.5 52q91 0 157.5 -21t102.5 -57t53 -78t17 -91q0 -120 -79 -202.5t-221 -124.5t-345 -48q-7 -40 -7 -80q0 -87 41 -118.5t148 -31.5q141 0 297 60l4 -201q-174 -65 -387 -65q-191 0 -276 85.5t-85 258.5zM352 590 q359 12 359 166q0 43 -27.5 66.5t-77.5 23.5q-92 0 -157 -73t-97 -183zM377 1374l129 170l332 -258l-107 -139z" />
<glyph unicode="&#xe9;" horiz-adv-x="995" d="M61 324q0 156 45.5 290.5t123.5 227t184.5 144.5t226.5 52q91 0 157.5 -21t102.5 -57t53 -78t17 -91q0 -120 -79 -202.5t-221 -124.5t-345 -48q-7 -40 -7 -80q0 -87 41 -118.5t148 -31.5q141 0 297 60l4 -201q-174 -65 -387 -65q-191 0 -276 85.5t-85 258.5zM352 590 q359 12 359 166q0 43 -27.5 66.5t-77.5 23.5q-92 0 -157 -73t-97 -183zM514 1290l369 254l104 -178l-387 -219z" />
<glyph unicode="&#xea;" horiz-adv-x="995" d="M61 324q0 156 45.5 290.5t123.5 227t184.5 144.5t226.5 52q91 0 157.5 -21t102.5 -57t53 -78t17 -91q0 -120 -79 -202.5t-221 -124.5t-345 -48q-7 -40 -7 -80q0 -87 41 -118.5t148 -31.5q141 0 297 60l4 -201q-174 -65 -387 -65q-191 0 -276 85.5t-85 258.5zM352 590 q359 12 359 166q0 43 -27.5 66.5t-77.5 23.5q-92 0 -157 -73t-97 -183zM356 1266l357 278l258 -276l-115 -121l-178 166l-236 -166z" />
<glyph unicode="&#xeb;" horiz-adv-x="995" d="M61 324q0 156 45.5 290.5t123.5 227t184.5 144.5t226.5 52q91 0 157.5 -21t102.5 -57t53 -78t17 -91q0 -120 -79 -202.5t-221 -124.5t-345 -48q-7 -40 -7 -80q0 -87 41 -118.5t148 -31.5q141 0 297 60l4 -201q-174 -65 -387 -65q-191 0 -276 85.5t-85 258.5zM338 1323 q0 62 43.5 103.5t103.5 41.5q58 0 97 -39.5t39 -95.5q0 -62 -43.5 -104.5t-102.5 -42.5q-58 0 -97.5 40.5t-39.5 96.5zM352 590q359 12 359 166q0 43 -27.5 66.5t-77.5 23.5q-92 0 -157 -73t-97 -183zM752 1325q0 60 43.5 101.5t103.5 41.5q58 0 96.5 -39.5t38.5 -95.5 q0 -62 -43 -104.5t-102 -42.5q-58 0 -97.5 40.5t-39.5 98.5z" />
<glyph unicode="&#xec;" horiz-adv-x="632" d="M98 -2l160 823q-60 10 -160 17l33 166q213 22 420 16l-158 -821q93 -16 160 -19l-31 -164q-203 -24 -424 -18zM209 1374l129 170l332 -258l-107 -139z" />
<glyph unicode="&#xed;" horiz-adv-x="632" d="M98 -2l160 823q-60 10 -160 17l33 166q213 22 420 16l-158 -821q93 -16 160 -19l-31 -164q-203 -24 -424 -18zM250 1290l368 254l105 -178l-387 -219z" />
<glyph unicode="&#xee;" horiz-adv-x="632" d="M98 -2l160 823q-60 10 -160 17l33 166q213 22 420 16l-158 -821q93 -16 160 -19l-31 -164q-203 -24 -424 -18zM172 1266l356 278l258 -276l-114 -121l-178 166l-236 -166z" />
<glyph unicode="&#xef;" horiz-adv-x="632" d="M98 -2l160 823q-60 10 -160 17l33 166q213 22 420 16l-158 -821q93 -16 160 -19l-31 -164q-203 -24 -424 -18zM152 1323q0 62 43.5 103.5t103.5 41.5q58 0 96.5 -39.5t38.5 -95.5q0 -62 -43 -104.5t-102 -42.5q-58 0 -97.5 40.5t-39.5 96.5zM565 1325q0 60 44 101.5 t104 41.5q58 0 96.5 -39.5t38.5 -95.5q0 -62 -43.5 -104.5t-102.5 -42.5q-58 0 -97.5 40.5t-39.5 98.5z" />
<glyph unicode="&#xf0;" horiz-adv-x="1114" d="M61 352q0 148 48.5 277t129.5 217t187 138t221 50q124 0 162 -63q-19 51 -35 84q-39 85 -76 141l-209 -88l-79 129l186 78q-32 34 -123 112l252 109q71 -68 115 -119l200 84l80 -129l-190 -80q147 -232 147 -512q0 -153 -33.5 -284.5t-92 -225t-136 -160t-165.5 -98.5 t-181 -32q-203 0 -305.5 95.5t-102.5 276.5zM330 408q0 -93 43.5 -149t128.5 -56q63 0 115.5 32t85 80.5t55 108.5t32 113.5t9.5 97.5q0 78 -40.5 130t-123.5 52q-72 0 -132 -37.5t-96.5 -97.5t-56.5 -131t-20 -143z" />
<glyph unicode="&#xf1;" horiz-adv-x="1241" d="M111 838l32 166q206 22 410 16q-26 -131 -90 -318h4q77 151 184.5 244.5t243.5 93.5q142 0 195 -91t24 -247l-98 -503q96 -16 158 -21l-31 -164q-181 -22 -420 -16l123 641q17 94 2.5 135t-64.5 41q-65 0 -144 -89.5t-138.5 -217.5t-81.5 -244l-51 -264h-256l155 817 q-94 17 -157 21zM418 1294q94 183 254 183q45 0 83 -16t60 -35.5t48.5 -35.5t51.5 -16q66 0 119 92l121 -96q-45 -88 -112 -135t-144 -47q-45 0 -83 16t-59.5 35t-48 35t-51.5 16q-65 0 -118 -92z" />
<glyph unicode="&#xf2;" horiz-adv-x="1112" d="M78 344q0 156 49.5 287.5t133.5 220t194.5 137.5t232.5 49q208 0 303.5 -99t95.5 -271q0 -153 -51 -284t-135.5 -218.5t-195 -136.5t-230.5 -49q-207 0 -302 93t-95 271zM346 385q0 -180 164 -180q133 0 220 127.5t87 302.5q0 90 -40.5 135t-127.5 45q-91 0 -162 -66 t-106 -163t-35 -201zM418 1374l129 170l332 -258l-107 -139z" />
<glyph unicode="&#xf3;" horiz-adv-x="1112" d="M78 344q0 156 49.5 287.5t133.5 220t194.5 137.5t232.5 49q208 0 303.5 -99t95.5 -271q0 -153 -51 -284t-135.5 -218.5t-195 -136.5t-230.5 -49q-207 0 -302 93t-95 271zM346 385q0 -180 164 -180q133 0 220 127.5t87 302.5q0 90 -40.5 135t-127.5 45q-91 0 -162 -66 t-106 -163t-35 -201zM543 1290l368 254l105 -178l-387 -219z" />
<glyph unicode="&#xf4;" horiz-adv-x="1112" d="M78 344q0 156 49.5 287.5t133.5 220t194.5 137.5t232.5 49q208 0 303.5 -99t95.5 -271q0 -153 -51 -284t-135.5 -218.5t-195 -136.5t-230.5 -49q-207 0 -302 93t-95 271zM346 385q0 -180 164 -180q133 0 220 127.5t87 302.5q0 90 -40.5 135t-127.5 45q-91 0 -162 -66 t-106 -163t-35 -201zM408 1266l356 278l258 -276l-115 -121l-178 166l-235 -166z" />
<glyph unicode="&#xf5;" horiz-adv-x="1112" d="M78 344q0 156 49.5 287.5t133.5 220t194.5 137.5t232.5 49q208 0 303.5 -99t95.5 -271q0 -153 -51 -284t-135.5 -218.5t-195 -136.5t-230.5 -49q-207 0 -302 93t-95 271zM346 385q0 -180 164 -180q133 0 220 127.5t87 302.5q0 90 -40.5 135t-127.5 45q-91 0 -162 -66 t-106 -163t-35 -201zM348 1294q94 183 254 183q45 0 83.5 -16t60 -35.5t48.5 -35.5t52 -16q66 0 119 92l120 -96q-45 -88 -112 -135t-144 -47q-45 0 -83 16t-59 35t-47.5 35t-51.5 16q-66 0 -119 -92z" />
<glyph unicode="&#xf6;" horiz-adv-x="1112" d="M78 344q0 156 49.5 287.5t133.5 220t194.5 137.5t232.5 49q208 0 303.5 -99t95.5 -271q0 -153 -51 -284t-135.5 -218.5t-195 -136.5t-230.5 -49q-207 0 -302 93t-95 271zM346 385q0 -180 164 -180q133 0 220 127.5t87 302.5q0 90 -40.5 135t-127.5 45q-91 0 -162 -66 t-106 -163t-35 -201zM367 1323q0 62 43.5 103.5t103.5 41.5q58 0 96.5 -39.5t38.5 -95.5q0 -62 -43 -104.5t-102 -42.5q-58 0 -97.5 40.5t-39.5 96.5zM780 1325q0 60 44 101.5t104 41.5q58 0 96.5 -39.5t38.5 -95.5q0 -62 -43 -104.5t-102 -42.5q-58 0 -98 41t-40 98z" />
<glyph unicode="&#xf7;" d="M86 500l43 219h965l-41 -219h-967zM350 193q0 70 48.5 117.5t115.5 47.5q65 0 109.5 -45.5t44.5 -107.5q0 -70 -48.5 -118t-115.5 -48q-65 0 -109.5 45.5t-44.5 108.5zM508 1016q0 68 49 117t115 49q65 0 110 -46.5t45 -109.5q0 -70 -48.5 -118t-116.5 -48 q-65 0 -109.5 46t-44.5 110z" />
<glyph unicode="&#xf8;" horiz-adv-x="1112" d="M59 344q0 199 77 357t217 247.5t317 89.5q52 0 92 -6l121 211l137 -65l-109 -193q158 -87 158 -317q0 -153 -50.5 -284t-135.5 -218.5t-195 -136.5t-229 -49q-56 0 -111 10l-117 -207l-141 67l109 191q-140 86 -140 303zM307 399q0 -75 31 -120l311 546q-27 3 -57 0 q-122 -12 -203.5 -136t-81.5 -290zM461 197q31 -7 69 -4q86 12 153 80t101.5 163.5t34.5 198.5q0 80 -43 123z" />
<glyph unicode="&#xf9;" horiz-adv-x="1241" d="M109 838l32 163q200 25 418 19l-123 -641q-17 -94 -2.5 -135t64.5 -41q65 0 144 90t139 219.5t83 247.5l10 59q-104 16 -141 19l31 168q207 21 405 12l-157 -817q86 -15 159 -21l-30 -164q-189 -25 -410 -18q13 99 88 317h-4q-77 -151 -184.5 -244.5t-243.5 -93.5 q-142 0 -195 91t-24 247l96 502q-89 16 -155 21zM440 1374l129 170l332 -258l-106 -139z" />
<glyph unicode="&#xfa;" horiz-adv-x="1241" d="M109 838l32 163q200 25 418 19l-123 -641q-17 -94 -2.5 -135t64.5 -41q65 0 144 90t139 219.5t83 247.5l10 59q-104 16 -141 19l31 168q207 21 405 12l-157 -817q86 -15 159 -21l-30 -164q-189 -25 -410 -18q13 99 88 317h-4q-77 -151 -184.5 -244.5t-243.5 -93.5 q-142 0 -195 91t-24 247l96 502q-89 16 -155 21zM623 1290l368 254l105 -178l-387 -219z" />
<glyph unicode="&#xfb;" horiz-adv-x="1241" d="M109 838l32 163q200 25 418 19l-123 -641q-17 -94 -2.5 -135t64.5 -41q65 0 144 90t139 219.5t83 247.5l10 59q-104 16 -141 19l31 168q207 21 405 12l-157 -817q86 -15 159 -21l-30 -164q-189 -25 -410 -18q13 99 88 317h-4q-77 -151 -184.5 -244.5t-243.5 -93.5 q-142 0 -195 91t-24 247l96 502q-89 16 -155 21zM451 1266l356 278l258 -276l-115 -121l-178 166l-235 -166z" />
<glyph unicode="&#xfc;" horiz-adv-x="1241" d="M109 838l32 163q200 25 418 19l-123 -641q-17 -94 -2.5 -135t64.5 -41q65 0 144 90t139 219.5t83 247.5l10 59q-104 16 -141 19l31 168q207 21 405 12l-157 -817q86 -15 159 -21l-30 -164q-189 -25 -410 -18q13 99 88 317h-4q-77 -151 -184.5 -244.5t-243.5 -93.5 q-142 0 -195 91t-24 247l96 502q-89 16 -155 21zM420 1323q0 62 43.5 103.5t103.5 41.5q58 0 96.5 -39.5t38.5 -95.5q0 -62 -43 -104.5t-102 -42.5q-58 0 -97.5 40.5t-39.5 96.5zM834 1325q0 60 43.5 101.5t103.5 41.5q58 0 96.5 -39.5t38.5 -95.5q0 -62 -43 -104.5 t-102 -42.5q-58 0 -97.5 40.5t-39.5 98.5z" />
<glyph unicode="&#xfd;" horiz-adv-x="1095" d="M-162 -494l43 226q58 -21 125 -21q107 0 191 84q47 47 69.5 109t22.5 153q0 337 -74 760q-69 15 -147 21l30 166q175 22 373 16q59 -329 59 -545q0 -119 -18 -270h4q165 305 375 856l264 -70q-218 -505 -400.5 -816t-365.5 -494q-194 -191 -397 -191q-85 0 -154 16z M580 1290l368 254l105 -178l-387 -219z" />
<glyph unicode="&#xfe;" horiz-adv-x="1107" d="M-209 -494l31 166q97 20 174 25l303 1591l2 6q-89 16 -166 21l31 164q196 24 430 18l-66 -340q-24 -128 -50.5 -224t-76.5 -226l7 -2q80 154 187.5 244.5t236.5 90.5q237 0 237 -317q0 -117 -25 -225t-77.5 -202.5t-128.5 -164t-185 -109.5t-239 -40q-54 0 -109 8 l-55 -293q65 -4 170 -25l-31 -166h-600zM348 205q63 -19 115 -19q83 0 151 46t108 119t61.5 156.5t21.5 166.5q0 141 -78 141q-68 0 -148.5 -93t-139 -218.5t-79.5 -233.5z" />
<glyph unicode="&#xff;" horiz-adv-x="1095" d="M-162 -494l43 226q58 -21 125 -21q107 0 191 84q47 47 69.5 109t22.5 153q0 337 -74 760q-69 15 -147 21l30 166q175 22 373 16q59 -329 59 -545q0 -119 -18 -270h4q165 305 375 856l264 -70q-218 -505 -400.5 -816t-365.5 -494q-194 -191 -397 -191q-85 0 -154 16z M387 1323q0 62 44 103.5t104 41.5q58 0 96.5 -39.5t38.5 -95.5q0 -62 -43.5 -104.5t-102.5 -42.5q-58 0 -97.5 40.5t-39.5 96.5zM801 1325q0 60 43.5 101.5t103.5 41.5q58 0 96.5 -39.5t38.5 -95.5q0 -62 -43 -104.5t-102 -42.5q-58 0 -97.5 40.5t-39.5 98.5z" />
<glyph unicode="&#x152;" horiz-adv-x="1736" d="M88 481q0 185 62.5 355t169.5 295t258 199.5t319 74.5q107 0 207 -23h694l-65 -348h-195q0 78 6 140h-272l-70 -369h221q20 63 45 113h166l-80 -416h-168q-3 53 0 112h-219l-77 -399h276q5 16 51 147h197l-70 -362h-731q-115 -23 -213 -23q-257 0 -384.5 131.5 t-127.5 372.5zM371 526q0 -148 67.5 -227.5t198.5 -79.5q100 0 201 33l168 887q-76 26 -152 26q-107 0 -199 -53.5t-153.5 -142.5t-96 -204t-34.5 -239z" />
<glyph unicode="&#x153;" horiz-adv-x="1695" d="M59 344q0 156 49.5 287.5t134 220t195.5 137.5t234 49q235 0 321 -153q143 153 348 153q91 0 158 -21t103 -57t52.5 -78t16.5 -91q0 -179 -167.5 -272.5t-473.5 -102.5q-6 -69 -6 -80q0 -87 39.5 -118.5t146.5 -31.5q143 0 295 60l4 -201q-174 -65 -383 -65 q-123 0 -197 37t-104 118q-71 -74 -166.5 -114.5t-199.5 -40.5q-208 0 -304 93t-96 271zM328 385q0 -180 164 -180q133 0 221 127.5t88 302.5q0 180 -168 180q-91 0 -162.5 -66t-107 -163t-35.5 -201zM1059 590q180 6 269 46t89 120q0 43 -27.5 66.5t-76.5 23.5 q-93 0 -158 -73t-96 -183z" />
<glyph unicode="&#x178;" horiz-adv-x="1226" d="M158 1214l30 168h506l-32 -168q-49 -13 -125 -20l73 -272q38 -151 49 -207h5q19 35 137 227l155 252q-72 8 -112 20l33 168h507l-30 -168q-69 -16 -109 -18l-502 -725l-53 -278q80 -5 172 -27l-33 -166h-612l31 166q100 22 180 27l53 278l-221 725q-43 3 -102 18z M477 1599q0 61 40.5 102.5t96.5 41.5q55 0 92 -39t37 -92q0 -60 -40.5 -99.5t-96.5 -39.5q-55 0 -92 36.5t-37 89.5zM907 1599q0 61 40.5 102.5t96.5 41.5q55 0 92.5 -39t37.5 -92q0 -60 -41.5 -99.5t-98.5 -39.5q-54 0 -90.5 36.5t-36.5 89.5z" />
<glyph unicode="&#x2c6;" horiz-adv-x="856" d="M270 1266l357 278l258 -276l-115 -121l-178 166l-236 -166z" />
<glyph unicode="&#x2dc;" horiz-adv-x="937" d="M264 1294q94 183 254 183q45 0 83.5 -16t60 -35.5t48.5 -35.5t52 -16q66 0 119 92l120 -96q-45 -88 -112 -135t-144 -47q-45 0 -83 16t-59 35t-47.5 35t-51.5 16q-66 0 -119 -92z" />
<glyph unicode="&#x2000;" horiz-adv-x="951" />
<glyph unicode="&#x2001;" horiz-adv-x="1903" />
<glyph unicode="&#x2002;" horiz-adv-x="951" />
<glyph unicode="&#x2003;" horiz-adv-x="1903" />
<glyph unicode="&#x2004;" horiz-adv-x="634" />
<glyph unicode="&#x2005;" horiz-adv-x="475" />
<glyph unicode="&#x2006;" horiz-adv-x="317" />
<glyph unicode="&#x2007;" horiz-adv-x="317" />
<glyph unicode="&#x2008;" horiz-adv-x="237" />
<glyph unicode="&#x2009;" horiz-adv-x="380" />
<glyph unicode="&#x200a;" horiz-adv-x="105" />
<glyph unicode="&#x2010;" horiz-adv-x="669" d="M88 463l41 211h492l-41 -211h-492z" />
<glyph unicode="&#x2011;" horiz-adv-x="669" d="M88 463l41 211h492l-41 -211h-492z" />
<glyph unicode="&#x2012;" horiz-adv-x="669" d="M88 463l41 211h492l-41 -211h-492z" />
<glyph unicode="&#x2013;" d="M6 496l43 227h1127l-43 -227h-1127z" />
<glyph unicode="&#x2014;" horiz-adv-x="2048" d="M231 496l45 227h1594l-43 -227h-1596z" />
<glyph unicode="&#x2018;" horiz-adv-x="534" d="M226 1173q63 191 320 372l5 3l94 -110q-81 -67 -121 -122.5t-41 -99.5t25 -86q22 -35 22 -78t-18 -78.5t-55.5 -60t-85.5 -24.5q-84 0 -131 70q-57 86 -14 214z" />
<glyph unicode="&#x2019;" horiz-adv-x="534" d="M166 981q81 67 121 122t41 99.5t-25 85.5q-22 35 -22 78t18 79t55.5 60.5t85.5 24.5q84 0 131 -69q57 -86 15 -214q-62 -189 -317 -369q-4 -3 -9 -6z" />
<glyph unicode="&#x201a;" horiz-adv-x="534" d="M-59 -244q81 67 121 122t41 99.5t-25 85.5q-22 35 -22 78t18 79t55.5 60.5t85.5 24.5q84 0 131 -70q56 -86 13 -214q-63 -192 -321 -373q-1 -1 -3 -2z" />
<glyph unicode="&#x201c;" horiz-adv-x="972" d="M225 1172q63 189 318 369q4 2 8 5l94 -108q-82 -68 -121.5 -123.5t-40.5 -100t25 -86.5q22 -35 22 -77t-18 -78t-55.5 -60t-85.5 -24q-84 0 -131 69q-57 86 -15 214zM679 1173q64 190 320 370l5 3l94 -108q-82 -68 -121.5 -123.5t-40.5 -100t25 -86.5q22 -35 22 -77 t-18.5 -78t-56 -60t-85.5 -24q-84 0 -130 69q-57 86 -14 215z" />
<glyph unicode="&#x201d;" horiz-adv-x="972" d="M166 981q81 67 121 122t41 99.5t-25 85.5q-22 35 -22 78t18 79t55.5 60.5t85.5 24.5q84 0 131 -69q57 -86 15 -214q-62 -189 -317 -369q-4 -3 -9 -6zM618 981q82 67 121.5 122t41 99.5t-24.5 85.5q-22 35 -22 78t18 79t55.5 60.5t85.5 24.5q84 0 130 -69q57 -86 15 -215 q-63 -190 -319 -370l-6 -4z" />
<glyph unicode="&#x201e;" horiz-adv-x="972" d="M-59 -244q81 67 121 122t41 99.5t-25 85.5q-22 35 -22 78t18 79t55.5 60.5t85.5 24.5q84 0 131 -70q56 -86 13 -214q-63 -192 -321 -373q-1 -1 -3 -2zM393 -244q81 67 121 122t41 99.5t-25 85.5q-22 35 -22 78t18.5 79t56 60.5t85.5 24.5q84 0 131 -70q57 -86 14 -214 q-64 -191 -321 -372l-5 -3z" />
<glyph unicode="&#x2022;" horiz-adv-x="866" d="M158 600q0 129 89.5 220t215.5 91q125 0 211 -86.5t86 -208.5q0 -129 -90.5 -220t-216.5 -91q-125 0 -210 86t-85 209z" />
<glyph unicode="&#x202f;" horiz-adv-x="380" />
<glyph unicode="&#x2039;" horiz-adv-x="626" d="M109 612l299 385l186 -100l-238 -297l131 -301l-213 -94z" />
<glyph unicode="&#x203a;" horiz-adv-x="626" d="M88 305l238 297l-131 301l213 94l165 -407l-299 -385z" />
<glyph unicode="&#x205f;" horiz-adv-x="475" />
<glyph unicode="&#x20ac;" horiz-adv-x="1204" d="M49 451l29 141h153q6 72 25 151h-150l27 142h164q90 243 278 381.5t453 138.5q152 0 279 -37l-66 -338h-160q-6 63 4 141q-50 23 -137 23q-126 0 -219.5 -83.5t-150.5 -225.5h403l-27 -142h-417q-19 -79 -25 -151h412l-27 -141h-379q14 -127 78.5 -192.5t198.5 -65.5 q155 0 276 51l21 -201q-157 -66 -377 -66q-253 0 -368.5 121t-123.5 353h-174z" />
<glyph unicode="&#x2122;" horiz-adv-x="1724" d="M190 1122l50 260h598l-50 -260h-116q-1 24 4 113h-74l-65 -342q57 -6 102 -19l-21 -114h-395l23 114q49 13 108 19l66 342h-74q-10 -46 -39 -113h-117zM733 760l23 117q39 9 78 12l141 362q-29 3 -94 17l20 114h340l21 -270l2 -88l32 82l131 276h355l-23 -114 q-60 -12 -100 -17l6 -362q25 0 70 -10l-23 -119h-323l22 114l66 15l2 178l2 80l-29 -70l-147 -317h-177l-26 319l-4 68l-17 -57l-73 -201q40 -8 61 -15l-22 -114h-314z" />
<glyph unicode="&#x25fc;" horiz-adv-x="1085" d="M0 0v1085h1085v-1085h-1085z" />
</font>
</defs>
</svg>
