<?xml version="1.0" encoding="UTF-8" standalone="no"?>
<!-- Created with Inkscape (http://www.inkscape.org/) -->

<svg
   xmlns:dc="http://purl.org/dc/elements/1.1/"
   xmlns:cc="http://creativecommons.org/ns#"
   xmlns:rdf="http://www.w3.org/1999/02/22-rdf-syntax-ns#"
   xmlns:svg="http://www.w3.org/2000/svg"
   xmlns="http://www.w3.org/2000/svg"
   xmlns:sodipodi="http://sodipodi.sourceforge.net/DTD/sodipodi-0.dtd"
   xmlns:inkscape="http://www.inkscape.org/namespaces/inkscape"
   width="103.07237"
   height="66.86834"
   id="svg2"
   version="1.1"
   preserveAspectRatio="none"
   inkscape:version="0.48.4 r9939"
   sodipodi:docname="flash.svg">
  <defs
     id="defs4" />
  <sodipodi:namedview
     id="base"
     pagecolor="#ffffff"
     bordercolor="#666666"
     borderopacity="1.0"
     inkscape:pageopacity="0.0"
     inkscape:pageshadow="2"
     inkscape:zoom="0.7"
     inkscape:cx="84.528508"
     inkscape:cy="-316.24893"
     inkscape:document-units="px"
     inkscape:current-layer="layer1"
     showgrid="false"
     inkscape:window-width="959"
     inkscape:window-height="1048"
     inkscape:window-x="960"
     inkscape:window-y="0"
     inkscape:window-maximized="0"
     fit-margin-top="0"
     fit-margin-left="0"
     fit-margin-right="0"
     fit-margin-bottom="0" />
  <metadata
     id="metadata7">
    <rdf:RDF>
      <cc:Work
         rdf:about="">
        <dc:format>image/svg+xml</dc:format>
        <dc:type
           rdf:resource="http://purl.org/dc/dcmitype/StillImage" />
        <dc:title></dc:title>
      </cc:Work>
    </rdf:RDF>
  </metadata>
  <g
     inkscape:label="Layer 1"
     inkscape:groupmode="layer"
     id="layer1"
     transform="translate(-210.92859,-422.14791)">
    <g
       id="g3049"
       transform="translate(-195.71429,-127.14286)">
      <path
         style="fill:#f0edf3"
         d="m 436.64288,614.9049 c 0,-1.98309 3.95161,-9.61413 4.97852,-9.61413 0.42713,0 1.34873,0.68939 2.04802,1.53198 1.06049,1.27782 0.78074,2.13825 -1.68617,5.18621 -3.32839,4.11233 -5.34037,5.20338 -5.34037,2.89594 z m 39.24491,-6.40358 c -2.7345,-7.05207 -2.78438,-8.21055 -0.35349,-8.21055 2.19175,0 5.10858,6.2922 5.10858,11.02024 0,4.83287 -2.32413,3.45959 -4.75509,-2.80969 z m -68.72595,-11.17987 c -1.04521,-1.69119 0.33649,-2.91294 4.09081,-3.61725 3.70183,-0.69447 6.63898,0.80152 4.84023,2.46528 -1.54668,1.43061 -8.22634,2.29219 -8.93104,1.15197 z m 87.60915,-13.93034 c -2.40537,-1.52371 -0.67525,-3.36564 4.42263,-4.70843 12.97705,-3.41818 14.43876,0.27891 1.64526,4.16135 -2.5828,0.7838 -4.696,1.42307 -4.696,1.4206 0,-0.003 -0.61735,-0.39555 -1.37189,-0.87352 z m -79.62811,-17.3769 c -0.55,-0.68724 -1.63343,-2.05023 -2.40762,-3.02887 -0.88339,-1.11667 -1.05582,-2.13113 -0.463,-2.72395 1.20323,-1.20323 8.64062,3.71339 8.10044,5.35494 -0.53952,1.63952 -4.02397,1.90461 -5.22982,0.39788 z m 47.51365,-8.97344 c 0.0222,-5.27962 1.03772,-7.75 3.18591,-7.75 1.77371,0 1.9136,0.51423 1.42822,5.25 -0.29594,2.8875 -0.55826,5.3625 -0.58293,5.5 -0.0247,0.1375 -0.94485,0.25 -2.04485,0.25 -1.59254,0 -1.99722,-0.66212 -1.98635,-3.25 z"
         id="path3079"
         inkscape:connector-curvature="0" />
      <path
         style="fill:#e7e3ed"
         d="m 437.21005,615.39945 c -0.67813,-1.09723 3.20611,-10.10868 4.35718,-10.10868 0.45692,0 1.33542,0.60808 1.95224,1.3513 0.86176,1.03835 0.42549,2.31207 -1.88383,5.5 -3.18501,4.39678 -3.55369,4.66814 -4.42559,3.25738 z m 38.8778,-6.63719 c -2.8119,-6.3582 -3.05338,-8.47149 -0.96802,-8.47149 2.22635,0 4.70979,4.47717 5.27757,9.51443 0.70934,6.2933 -1.27779,5.8124 -4.30955,-1.04294 z m -68.85567,-11.21552 c -0.32411,-0.32412 -0.5893,-0.89207 -0.5893,-1.26212 0,-0.9611 4.74471,-2.99385 6.98804,-2.99385 2.18817,0 3.64079,1.80865 2.37483,2.95689 -1.13944,1.03349 -8.02033,2.05232 -8.77357,1.29908 z m 87.43863,-14.23871 c -2.31973,-1.43367 -0.48989,-3.30499 4.52281,-4.62535 8.08413,-2.12938 11.74574,-1.51149 8.19926,1.38361 -2.10098,1.7151 -11.37047,4.07708 -12.72207,3.24174 z m -80.70107,-18.86259 c -3.27289,-4.19496 -1.53743,-5.66179 3.02813,-2.55942 3.92042,2.664 4.35426,4.74836 1.06668,5.12477 -1.09887,0.12581 -2.85214,-0.97259 -4.09481,-2.56535 z m 48.67314,-7.08957 c 0,-4.18211 1.68721,-8.0651 3.5044,-8.0651 1.22399,0 1.47466,0.92215 1.18065,4.34325 -0.43176,5.02394 -1.22749,6.65675 -3.24407,6.65675 -0.92732,0 -1.44098,-1.04619 -1.44098,-2.9349 z"
         id="path3077"
         inkscape:connector-curvature="0" />
      <path
         style="fill:#e0dbe7"
         d="m 437.21005,615.39945 c -0.67813,-1.09723 3.20611,-10.10868 4.35718,-10.10868 0.45692,0 1.33542,0.60808 1.95224,1.3513 0.86176,1.03835 0.42549,2.31207 -1.88383,5.5 -3.18501,4.39678 -3.55369,4.66814 -4.42559,3.25738 z m 38.92022,-6.73311 c -2.94884,-6.66785 -3.12883,-8.64575 -0.745,-8.18667 2.13066,0.41033 4.30176,4.7214 5.00021,9.9287 0.77035,5.7434 -1.32398,4.88601 -4.25521,-1.74203 z m -68.9858,-11.37299 c -0.75827,-1.22691 3.51482,-4.00258 6.1619,-4.00258 2.45651,0 4.04319,1.73804 2.69938,2.95689 -1.32713,1.20373 -8.25811,2.02162 -8.86128,1.04569 z m 87.52634,-13.98532 c -2.31973,-1.43367 -0.48989,-3.30499 4.52281,-4.62535 8.08413,-2.12938 11.74574,-1.51149 8.19926,1.38361 -2.10098,1.7151 -11.37047,4.07708 -12.72207,3.24174 z m -80.27793,-18.48679 c -0.9625,-1.32368 -1.75,-3.12537 -1.75,-4.00376 0,-1.21758 0.41584,-1.37052 1.75,-0.64363 3.04043,1.6565 6.31725,5.19909 5.71316,6.17653 -1.04792,1.69557 -3.92908,0.92442 -5.71316,-1.52914 z m 48.25,-7.46537 c 0,-4.25089 1.69724,-8.0651 3.58879,-8.0651 1.38757,0 1.5295,0.72695 0.92738,4.75 -0.83672,5.5906 -1.16117,6.25 -3.07519,6.25 -0.92732,0 -1.44098,-1.04619 -1.44098,-2.9349 z"
         id="path3075"
         inkscape:connector-curvature="0" />
      <path
         style="fill:#dad3e2"
         d="m 437.21005,615.39945 c -0.67813,-1.09723 3.20611,-10.10868 4.35718,-10.10868 0.45692,0 1.33542,0.60808 1.95224,1.3513 0.86176,1.03835 0.42549,2.31207 -1.88383,5.5 -3.18501,4.39678 -3.55369,4.66814 -4.42559,3.25738 z m 38.8885,-6.80483 c -2.46299,-5.56925 -2.60728,-8.30385 -0.43816,-8.30385 1.47056,0 4.9334,7.85339 4.96053,11.25 0.0351,4.39851 -1.80411,3.20032 -4.52237,-2.94615 z m -68.45596,-11.30403 c -1.60717,-0.99329 2.6501,-3.99982 5.66378,-3.99982 2.18148,0 4.03699,1.63285 3.01587,2.65397 -1.06306,1.06306 -7.51779,2.06392 -8.67965,1.34585 z m 87.25029,-13.73036 c -1.85001,-0.64547 -1.516,-3.06142 0.5,-3.61668 11.46822,-3.15865 15.31047,-3.22633 12.19048,-0.21473 -1.72937,1.66929 -10.92782,4.44641 -12.69048,3.83141 z m -80.5,-18.73899 c -0.9625,-1.32368 -1.75,-3.12537 -1.75,-4.00376 0,-1.21758 0.41584,-1.37052 1.75,-0.64363 3.04043,1.6565 6.31725,5.19909 5.71316,6.17653 -1.04792,1.69557 -3.92908,0.92442 -5.71316,-1.52914 z m 48.25,-7.46537 c 0,-4.25089 1.69724,-8.0651 3.58879,-8.0651 1.38757,0 1.5295,0.72695 0.92738,4.75 -0.83672,5.5906 -1.16117,6.25 -3.07519,6.25 -0.92732,0 -1.44098,-1.04619 -1.44098,-2.9349 z"
         id="path3073"
         inkscape:connector-curvature="0" />
      <path
         style="fill:#d1c8db"
         d="m 437.32035,615.57793 c -0.93646,-1.51523 3.22335,-10.48585 4.64544,-10.01786 0.6474,0.21304 1.30526,1.25211 1.46191,2.30903 0.34468,2.32557 -5.14888,9.25966 -6.10735,7.70883 z m 38.7782,-6.98331 c -2.46299,-5.56925 -2.60728,-8.30385 -0.43816,-8.30385 1.47056,0 4.9334,7.85339 4.96053,11.25 0.0351,4.39851 -1.80411,3.20032 -4.52237,-2.94615 z m -68.02001,-11.40796 c -0.91254,-1.47652 0.40386,-2.70173 3.67464,-3.42012 2.93504,-0.64464 6.00806,0.7392 4.65226,2.09501 -1.16603,1.16602 -7.7752,2.21778 -8.3269,1.32511 z m 86.45482,-14.52785 c -1.55544,-1.8742 -1.17402,-2.14317 5.50694,-3.88334 6.64978,-1.73205 8.60258,-1.85006 8.60258,-0.51988 0,1.24862 -2.99977,2.82982 -8.52101,4.49147 -3.74606,1.1274 -4.59068,1.11406 -5.58851,-0.0883 z m -79.71617,-17.68249 c -2.72374,-2.89929 -3.01668,-6.21486 -0.42431,-4.80247 3.04043,1.6565 6.31725,5.19909 5.71316,6.17653 -0.97802,1.58247 -3.0064,1.05549 -5.28885,-1.37406 z m 48.14493,-6.29602 c -1.04331,-2.71881 0.9829,-8.83052 3.059,-9.22693 1.70565,-0.32569 1.81157,0.0869 1.15263,4.48938 -0.39909,2.66641 -0.93335,5.18552 -1.18726,5.59802 -0.78744,1.2793 -2.37679,0.82711 -3.02437,-0.86047 z"
         id="path3071"
         inkscape:connector-curvature="0" />
      <path
         style="fill:#c5bad2"
         d="m 437.24006,615.44801 c -0.7528,-1.21805 3.19084,-10.15724 4.481,-10.15724 1.80986,0 2.08235,2.78889 0.56011,5.73258 -1.8612,3.59917 -4.25355,5.69897 -5.04111,4.42466 z m 40.31348,-3.89222 c -0.57191,-1.50425 -1.72631,-4.18162 -2.56534,-5.94973 -1.4991,-3.15914 -1.18976,-5.31529 0.76259,-5.31529 1.39882,0 4.84384,7.958 4.87013,11.25 0.0282,3.53512 -1.72577,3.54371 -3.06738,0.015 z m -69.475,-14.36913 c -0.91254,-1.47652 0.40386,-2.70173 3.67464,-3.42012 2.93504,-0.64464 6.00806,0.7392 4.65226,2.09501 -1.16603,1.16602 -7.7752,2.21778 -8.3269,1.32511 z m 86.17362,-14.71907 c -0.83711,-1.35447 0.86586,-2.38734 6.39072,-3.87602 5.55633,-1.49717 8,-1.59689 8,-0.32648 0,2.53307 -13.06454,6.3483 -14.39072,4.2025 z m -79.52547,-17.58761 c -1.24565,-1.32593 -2.11159,-3.13432 -1.92432,-4.01863 0.29302,-1.3836 0.79135,-1.29145 3.57323,0.66079 3.24505,2.27728 4.42016,5.76863 1.94159,5.76863 -0.72912,0 -2.34485,-1.08486 -3.5905,-2.41079 z m 48.28255,-6.07688 c -1.00925,-2.63007 1.0566,-8.9701 3.04779,-9.35357 1.66211,-0.32009 1.77135,0.11945 1.11672,4.49322 -0.39909,2.66641 -0.93335,5.18552 -1.18726,5.59802 -0.76532,1.24335 -2.36959,0.84586 -2.97725,-0.73767 z"
         id="path3069"
         inkscape:connector-curvature="0" />
      <path
         style="fill:#b5a7c6"
         d="m 436.64288,614.75093 c 0,-1.1412 4.02211,-8.35579 4.99277,-8.95569 0.56175,-0.34718 1.28694,0.0609 1.61154,0.90676 0.74113,1.93135 -3.2786,8.58877 -5.18587,8.58877 -0.78014,0 -1.41844,-0.24293 -1.41844,-0.53984 z m 41.0941,-2.71016 c -0.47102,-1.2375 -1.58189,-3.98531 -2.46861,-6.10623 -1.59452,-3.81392 -1.43811,-5.64377 0.48242,-5.64377 1.39882,0 4.84384,7.958 4.87013,11.25 0.0265,3.31933 -1.6971,3.61816 -2.88394,0.5 z m -69.89893,-15.83551 c 0.66298,-1.98894 6.58946,-3.52986 8.03117,-2.08815 1.58698,1.58698 0.60869,2.25197 -4.27693,2.90727 -3.31591,0.44476 -4.11725,0.26991 -3.75424,-0.81912 z m 86.41411,-13.73767 c -0.83711,-1.35447 0.86586,-2.38734 6.39072,-3.87602 5.55633,-1.49717 8,-1.59689 8,-0.32648 0,2.53307 -13.06454,6.3483 -14.39072,4.2025 z m -79.52547,-17.58761 c -1.24565,-1.32593 -2.11159,-3.118 -1.92432,-3.98236 0.28032,-1.29376 0.91502,-1.11995 3.59051,0.98327 3.3153,2.60617 4.31259,5.40988 1.92431,5.40988 -0.72912,0 -2.34485,-1.08486 -3.5905,-2.41079 z m 48.28255,-6.07688 c -0.99132,-2.58332 1.0552,-8.96983 2.99397,-9.34321 1.59362,-0.3069 1.71203,0.18271 1.08667,4.49322 -0.386,2.66071 -0.89605,5.17516 -1.13343,5.58766 -0.71863,1.24877 -2.34074,0.84276 -2.94721,-0.73767 z"
         id="path3067"
         inkscape:connector-curvature="0" />
      <path
         style="fill:#a898bc"
         d="m 437.64288,614.25865 c 0,-2.51964 3.0421,-7.96788 4.44897,-7.96788 2.10222,0 1.94973,1.61882 -0.53053,5.63197 -2.02977,3.28423 -3.91844,4.41013 -3.91844,2.33591 z m 40.35814,-1.6545 c -0.34525,-0.99736 -1.4634,-3.77479 -2.48478,-6.17207 -1.79603,-4.21545 -1.74586,-6.14131 0.15998,-6.14131 2.42737,0 6.09594,12.18403 4.0494,13.44886 -0.60327,0.37285 -1.37935,-0.13812 -1.7246,-1.13548 z m -70.35814,-16.33813 c 0,-1.08855 4.16314,-2.97525 6.5651,-2.97525 2.30519,0 1.64989,2.70912 -0.8151,3.36971 -3.399,0.9109 -5.75,0.74962 -5.75,-0.39446 z m 86.57074,-13.86079 c -0.68567,-1.10944 0.66641,-1.82811 7.50026,-3.98657 4.46655,-1.41075 6.929,-1.43807 6.929,-0.0769 0,2.39771 -13.16707,6.10571 -14.42926,4.06344 z m -79.39643,-17.42891 c -2.21758,-2.36051 -2.86721,-4.68555 -1.30917,-4.68555 1.59123,0 6.13486,4.12719 6.13486,5.57258 0,2.15288 -2.38101,1.71521 -4.82569,-0.88703 z m 48.22754,-6.08074 c -0.87845,-2.28919 1.51965,-9.60481 3.14851,-9.60481 1.15996,0 1.3467,0.90383 0.87808,4.25 -0.32735,2.3375 -0.76855,4.8125 -0.98043,5.5 -0.51699,1.67749 -2.38082,1.58866 -3.04616,-0.14519 z"
         id="path3065"
         inkscape:connector-curvature="0" />
      <path
         style="fill:#9884b0"
         d="m 437.64288,614.41289 c 0,-2.35701 3.20364,-8.12212 4.51342,-8.12212 2.03876,0 1.86413,1.65304 -0.59498,5.63197 -1.96692,3.18253 -3.91844,4.42272 -3.91844,2.49015 z m 40.39799,-1.7049 c -0.36717,-1.05447 -1.51698,-3.90966 -2.55514,-6.34487 -1.1712,-2.7473 -1.53263,-4.78257 -0.95233,-5.36287 1.57574,-1.57574 2.9512,0.11261 4.75591,5.83781 1.30509,4.14022 1.44515,5.76113 0.57314,6.63314 -0.87201,0.87201 -1.31714,0.6855 -1.82158,-0.76321 z m -70.39799,-16.3194 c 0,-0.83647 5.2188,-3.09782 7.14922,-3.09782 1.86974,0 0.70463,2.8059 -1.39922,3.36971 -3.27831,0.87856 -5.75,0.76168 -5.75,-0.27189 z m 87,-14.44793 c 0,-0.94904 1.13077,-1.85367 2.75,-2.20005 1.5125,-0.32354 3.78367,-1.00711 5.04705,-1.51905 3.06399,-1.24156 6.20295,-1.18072 6.20295,0.12024 0,1.26287 -6.0982,3.92837 -10.69351,4.67408 -2.5963,0.42133 -3.30649,0.19038 -3.30649,-1.07522 z m -79.82569,-16.96434 c -2.26207,-2.40786 -2.86002,-4.68555 -1.23007,-4.68555 1.84337,0 6.37471,4.6749 5.65699,5.83621 -1.04598,1.69243 -1.98535,1.44827 -4.42692,-1.15066 z m 48.25945,-5.99758 c -0.71695,-1.86834 1.33786,-9.68797 2.54577,-9.68797 1.53352,0 1.79093,1.33191 1.14384,5.9186 -0.62819,4.4528 -2.63904,6.50711 -3.68961,3.76937 z"
         id="path3063"
         inkscape:connector-curvature="0" />
      <path
         style="fill:#8b75a6"
         d="m 437.64288,614.41289 c 0,-2.35701 3.20364,-8.12212 4.51342,-8.12212 2.09653,0 1.84871,1.84431 -0.76342,5.68129 -2.18599,3.21102 -3.75,4.22901 -3.75,2.44083 z m 38.69448,-6.22434 c -2.70936,-6.27924 -2.75869,-8.24339 -0.18222,-7.2547 1.98436,0.76147 5.18292,11.06174 3.84918,12.39547 -0.68283,0.68284 -1.87586,-0.98967 -3.66696,-5.14077 z m -68.69448,-11.79996 c 0,-0.83647 5.2188,-3.09782 7.14922,-3.09782 0.46793,0 0.85078,0.61875 0.85078,1.375 0,0.75625 -1.40625,1.65625 -3.125,2 -4.15873,0.83175 -4.875,0.79102 -4.875,-0.27718 z m 87,-14.46748 c 0,-0.92445 1.15336,-1.8446 2.75,-2.19396 1.5125,-0.33095 4.05465,-1.01453 5.64922,-1.51906 3.58551,-1.13446 5.60078,-1.17136 5.60078,-0.10253 0,1.14683 -6.11141,3.92788 -10.39928,4.73229 -2.90951,0.54583 -3.60072,0.36985 -3.60072,-0.91674 z m -79.92742,-17.2652 c -3.69753,-4.70064 -2.08056,-5.9964 2.5319,-2.02893 1.56549,1.34658 2.41132,2.8292 1.99675,3.5 -1.10342,1.78536 -2.26358,1.4085 -4.52865,-1.47107 z m 48.42262,-8.61514 c 1.15509,-5.73915 1.65046,-6.86811 2.83966,-6.47171 0.64083,0.21361 1.12014,0.91338 1.06514,1.55504 -0.055,0.64167 -0.1675,2.74167 -0.25,4.66667 -0.12128,2.82982 -0.54817,3.5 -2.22946,3.5 -1.81356,0 -1.99581,-0.41557 -1.42534,-3.25 z"
         id="path3061"
         inkscape:connector-curvature="0" />
      <path
         style="fill:#7b639a"
         d="m 437.64288,614.3247 c 0,-2.11661 3.45085,-8.03393 4.68521,-8.03393 1.92977,0 1.60998,1.94263 -0.93521,5.68129 -2.22512,3.26849 -3.75,4.22516 -3.75,2.35264 z m 39.91395,-3.78393 c -0.5701,-1.5125 -1.68396,-4.05664 -2.47525,-5.65364 -1.80467,-3.64224 -1.80989,-3.59636 0.40939,-3.59636 1.34127,0 2.30112,1.4027 3.5,5.11483 1.9285,5.97126 2.01175,6.88517 0.62716,6.88517 -0.56361,0 -1.4912,-1.2375 -2.0613,-2.75 z m -69.91395,-14.04088 c 0,-1.5564 6.17645,-3.43267 7.37021,-2.23891 1.33976,1.33976 0.78844,1.72839 -3.62021,2.5519 -2.32733,0.43473 -3.75,0.31598 -3.75,-0.31299 z m 87,-14.69007 c 0,-0.81452 1.2375,-1.75172 2.75,-2.08267 1.5125,-0.33095 4.05465,-1.01453 5.64922,-1.51906 7.52561,-2.38113 7.57982,0.19853 0.0633,3.01083 -6.56551,2.45646 -8.46252,2.58892 -8.46252,0.5909 z m -80.0061,-17.52762 c -1.21665,-1.70862 -1.9639,-3.35476 -1.66057,-3.6581 0.86217,-0.86217 6.80846,3.74129 6.40317,4.95716 -0.74094,2.22281 -2.59678,1.71448 -4.7426,-1.29906 z m 48.5013,-8.24143 c 1.1281,-5.60504 1.64434,-6.87015 2.66466,-6.53005 0.54458,0.18153 0.95639,0.6563 0.91514,1.05505 -0.0412,0.39875 -0.075,2.525 -0.075,4.725 0,3.38428 -0.32009,4 -2.07946,4 -1.81356,0 -1.99581,-0.41557 -1.42534,-3.25 z"
         id="path3059"
         inkscape:connector-curvature="0" />
      <path
         style="fill:#694d8c"
         d="m 437.68352,614.5747 c -0.0709,-2.12016 3.30572,-8.33514 4.34096,-7.99006 1.97031,0.65677 1.5834,2.32212 -1.33196,5.73312 -1.6326,1.91016 -2.98665,2.92578 -3.009,2.25694 z m 39.87331,-4.03393 c -0.5701,-1.5125 -1.68396,-4.05664 -2.47525,-5.65364 -1.77345,-3.57924 -1.77328,-3.59636 0.0356,-3.59636 1.68654,0 3.95966,3.99018 4.9847,8.75 0.87482,4.06228 -1.05914,4.44222 -2.54507,0.5 z m -69.91395,-14.11012 c 0,-1.41873 6.22704,-3.1089 7.43333,-2.01758 1.29275,1.16952 0.64555,1.5912 -3.68333,2.39981 -2.4556,0.45869 -3.75,0.32675 -3.75,-0.38223 z m 87.00139,-14.31043 c 10e-4,-1.15123 9.86824,-4.82945 12.95531,-4.82945 2.35449,0 0.79806,1.88007 -2.7067,3.26951 -6.22914,2.46951 -10.2502,3.08156 -10.24861,1.55994 z M 415.2601,564.63376 c -4.36875,-4.7115 -3.1371,-5.96269 1.88278,-1.91266 2.2475,1.81327 2.71586,2.71071 1.86722,3.57781 -0.85359,0.87216 -1.77781,0.46177 -3.75,-1.66515 z m 47.38278,-5.90017 c 0,-2.15758 2.40612,-9.44282 3.11871,-9.44282 0.48471,0 0.88129,2.25 0.88129,5 0,4.33333 -0.26667,5 -2,5 -1.1,0 -2,-0.25073 -2,-0.55718 z"
         id="path3057"
         inkscape:connector-curvature="0" />
      <path
         style="fill:#5a3b80"
         d="m 437.64288,614.36355 c 0,-1.00016 2.63628,-6.86623 3.56065,-7.92292 0.16846,-0.19257 0.78458,-0.0545 1.36915,0.30675 0.72485,0.44798 0.60796,1.53658 -0.36753,3.42297 -1.72793,3.34145 -4.56227,5.9465 -4.56227,4.1932 z m 39.99521,-3.82278 c -0.52541,-1.5125 -1.61257,-3.97744 -2.41592,-5.47765 -1.40762,-2.62868 -0.64288,-4.54772 1.3271,-3.3302 0.86317,0.53346 4.09361,9.0057 4.09361,10.73599 0,1.9525 -2.13198,0.58444 -3.00479,-1.92814 z m -69.59548,-14.08775 c 1.0013,-1.62015 6.47568,-3.17285 7.1783,-2.03599 0.82721,1.33845 0.56579,1.49191 -3.92647,2.30486 -2.39357,0.43316 -3.62289,0.33151 -3.25183,-0.26887 z m 86.60027,-14.35424 c 0,-1.57137 12.05792,-5.06685 13.31529,-3.85997 0.87576,0.84058 -4.75593,3.36372 -10.06529,4.5095 -2.40892,0.51986 -3.25,0.35177 -3.25,-0.64953 z m -79.9963,-18.30407 c -1.2897,-1.37283 -2.07852,-2.76245 -1.75292,-3.08805 0.69624,-0.69625 6.74922,3.58363 6.74922,4.77217 0,1.65343 -2.72316,0.73552 -4.9963,-1.68412 z m 48.38931,-6.08573 c 0.33384,-0.86998 0.60699,-2.35897 0.60699,-3.30887 0,-0.94989 0.66069,-2.60059 1.4682,-3.66821 1.35179,-1.78724 1.47071,-1.52491 1.5,3.30887 0.0284,4.68226 -0.19605,5.25 -2.07519,5.25 -1.51045,0 -1.93514,-0.44784 -1.5,-1.58179 z"
         id="path3055"
         inkscape:connector-curvature="0" />
      <path
         style="fill:#55357c"
         d="m 437.64288,614.81101 c 0,-1.47598 3.34805,-8.52024 4.04956,-8.52024 1.92984,0 1.70598,1.89549 -0.62984,5.33295 -2.28501,3.3627 -3.41972,4.42028 -3.41972,3.18729 z m 38.98127,-7.06638 c -2.1484,-5.29333 -2.10693,-7.97952 0.0893,-5.7833 1.55172,1.55172 3.9447,10.20197 2.98613,10.7944 -0.45798,0.28305 -1.84192,-1.97195 -3.07542,-5.0111 z m -68.58154,-11.29161 c 1.0013,-1.62015 6.47568,-3.17285 7.1783,-2.03599 0.82721,1.33845 0.56579,1.49191 -3.92647,2.30486 -2.39357,0.43316 -3.62289,0.33151 -3.25183,-0.26887 z m 87.06142,-14.22511 c -0.85983,-1.39123 -0.77077,-1.44419 4.6601,-2.77159 2.54168,-0.62123 5.35418,-1.41076 6.25,-1.75452 0.92715,-0.35578 1.62875,-0.12618 1.62875,0.53301 0,2.18013 -11.41304,5.8147 -12.53885,3.9931 z m -80.45745,-18.4332 c -1.2897,-1.37283 -2.14383,-2.69715 -1.89805,-2.94292 0.64622,-0.64623 6.89435,3.46568 6.89435,4.53718 0,1.73339 -2.67073,0.8812 -4.9963,-1.59426 z m 48.8004,-5.03317 c -0.81869,-0.81869 0.82823,-7.50496 2.17816,-8.84303 0.84926,-0.8418 1.05913,0.1202 0.82773,3.79409 -0.28143,4.46838 -1.51479,6.54004 -3.00589,5.04894 z"
         id="path3053"
         inkscape:connector-curvature="0" />
      <path
         style="fill:#4b2975"
         d="m 437.81453,614.54077 c 0.18608,-0.4125 0.98898,-2.4375 1.78423,-4.5 1.42541,-3.69686 2.43169,-4.54995 3.44088,-2.91705 0.51598,0.83488 -3.98738,8.16705 -5.01614,8.16705 -0.30101,0 -0.39504,-0.3375 -0.20897,-0.75 z m 39.07835,-6.13335 c -2.52761,-6.04755 -2.70772,-7.11665 -1.19897,-7.11665 1.53338,0 4.11273,6.76736 3.75545,9.85305 -0.26645,2.30121 -0.60037,1.94379 -2.55648,-2.7364 z m -67.80887,-12.54243 c 2.15618,-1.74862 6.55887,-2.13407 6.55887,-0.57422 0,0.55 -0.7875,1.00614 -1.75,1.01365 -0.9625,0.007 -2.875,0.26591 -4.25,0.57422 -2.41289,0.54104 -2.43237,0.50572 -0.55887,-1.01365 z m 85.98045,-13.7011 c -0.7918,-1.28117 -1.02848,-1.16682 6.32842,-3.05752 3.4375,-0.88343 6.25,-1.2299 6.25,-0.76994 0,1.15638 -0.74583,1.52093 -6.72828,3.28871 -3.39164,1.00221 -5.44673,1.19147 -5.85014,0.53875 z m -80.41788,-18.36918 c -1.2897,-1.37283 -2.13109,-2.70989 -1.86974,-2.97123 0.59495,-0.59495 6.82524,3.69635 6.84876,4.71729 0.037,1.60586 -2.74736,0.62943 -4.97902,-1.74606 z m 49.26785,-8.49185 c 0.86567,-6.45401 2.92286,-7.74759 2.5369,-1.59522 -0.19484,3.10585 -0.82394,5.08863 -1.70798,5.38318 -1.10871,0.36941 -1.28096,-0.41774 -0.82892,-3.78796 z"
         id="path3051"
         inkscape:connector-curvature="0" />
    </g>
  </g>
</svg>
