<?xml version="1.0" encoding="UTF-8" standalone="no"?>
<!-- Created with Inkscape (http://www.inkscape.org/) -->

<svg
   xmlns:dc="http://purl.org/dc/elements/1.1/"
   xmlns:cc="http://creativecommons.org/ns#"
   xmlns:rdf="http://www.w3.org/1999/02/22-rdf-syntax-ns#"
   xmlns:svg="http://www.w3.org/2000/svg"
   xmlns="http://www.w3.org/2000/svg"
   xmlns:sodipodi="http://sodipodi.sourceforge.net/DTD/sodipodi-0.dtd"
   xmlns:inkscape="http://www.inkscape.org/namespaces/inkscape"
   width="149.06821"
   height="90.249413"
   id="svg2"
   version="1.1"
   preserveAspectRatio="none"
   inkscape:version="0.48.4 r9939"
   sodipodi:docname="ring.svg">
  <defs
     id="defs4" />
  <sodipodi:namedview
     id="base"
     pagecolor="#ffffff"
     bordercolor="#666666"
     borderopacity="1.0"
     inkscape:pageopacity="0.0"
     inkscape:pageshadow="2"
     inkscape:zoom="0.35"
     inkscape:cx="198.4335"
     inkscape:cy="897.18735"
     inkscape:document-units="px"
     inkscape:current-layer="layer1"
     showgrid="false"
     inkscape:window-width="959"
     inkscape:window-height="1048"
     inkscape:window-x="960"
     inkscape:window-y="0"
     inkscape:window-maximized="0"
     fit-margin-top="0"
     fit-margin-left="0"
     fit-margin-right="0"
     fit-margin-bottom="0" />
  <metadata
     id="metadata7">
    <rdf:RDF>
      <cc:Work
         rdf:about="">
        <dc:format>image/svg+xml</dc:format>
        <dc:type
           rdf:resource="http://purl.org/dc/dcmitype/StillImage" />
        <dc:title></dc:title>
      </cc:Work>
    </rdf:RDF>
  </metadata>
  <g
     inkscape:label="Layer 1"
     inkscape:groupmode="layer"
     id="layer1"
     transform="translate(-4.9878166,-890.38472)">
    <g
       id="ring"
       transform="matrix(1.2371136,0,0,1.7960283,-718.70846,-103.25377)">
      <path
         style="fill:#fcf3ea"
         d="m 602.07014,601.59188 c -7.32821,-1.97744 -13.05658,-5.10761 -15.3566,-8.39134 l -1.49925,-2.14048 0,-4.50086 0,-4.50085 6.0349,-5.74262 6.03491,-5.74262 9.89419,-4.9532 9.8942,-4.95321 5.3209,-0.64129 c 2.92649,-0.3527 7.1209,-0.25824 9.3209,0.20991 l 4,0.8512 0.3002,2.06161 0.3002,2.06161 -8.39174,-0.053 -8.39175,-0.053 -8.40845,4.05164 c -8.91184,4.29419 -17.80596,10.73749 -20.50248,14.85291 l -1.62645,2.48228 0.64676,2.57692 0.64677,2.57692 6.24966,2.92456 6.24965,2.92457 8.17552,1.15617 8.17552,1.15617 11.57244,-1.17324 c 31.16099,-3.15916 65.23612,-13.21022 70.13557,-20.68773 l 1.42172,-2.16981 -0.95713,-2.51744 c -3.47363,-9.13633 -34.58391,-15.71089 -74.59601,-15.76442 -7.7,-0.0103 -14.66197,-0.43737 -15.47104,-0.94904 l -1.47104,-0.93031 0.80576,-0.80438 c 4.05313,-4.04613 62.98024,0.70129 79.94468,6.4407 l 7.80836,2.64172 3.44164,3.80949 3.44164,3.80948 0,4.31003 0,4.31003 -2.754,2.6385 c -10.41421,9.97745 -54.34005,20.84782 -83.54722,20.67551 l -10.19878,-0.0602 -6.64415,-1.79286 z"
         id="path3034"
         inkscape:connector-curvature="0" />
      <path
         style="fill:#fbe9d8"
         d="m 607.21429,602.89458 c -1.375,-0.26209 -5.39892,-1.46945 -8.94205,-2.68302 l -6.44206,-2.20649 -3.30794,-3.11808 -3.30795,-3.11807 0,-4.85992 0,-4.85992 5.93487,-5.56046 5.93487,-5.56047 8.81513,-4.64387 8.81513,-4.64386 6.5,-1.18419 6.5,-1.18419 4.31265,1.17193 4.31266,1.17193 -0.34448,1.69459 -0.34447,1.69458 -5.17939,-0.31776 -5.17939,-0.31776 -6.13201,1.57095 c -8.15072,2.08812 -18.24241,7.84808 -24.69557,14.0953 l -5.25,5.08246 0,2.62531 0,2.62531 3.09173,2.20151 c 4.2692,3.03993 13.893,5.87437 22.38171,6.59192 l 7.11629,0.60155 10.45513,-1.1834 c 31.65453,-3.58293 63.73344,-13.22882 68.57664,-20.62047 l 1.6622,-2.53685 -1.1019,-2.41841 c -0.60605,-1.33012 -2.83686,-3.56655 -4.95737,-4.96984 l -3.85547,-2.55143 -9.50056,-2.41001 c -11.83901,-3.00321 -36.77667,-5.54617 -55.29588,-5.63867 -7.73988,-0.0387 -14.94265,-0.41103 -16.00614,-0.82749 l -1.93363,-0.75721 1.18772,-0.73405 c 0.65324,-0.40373 6.69837,-0.98323 13.43362,-1.28777 l 12.24591,-0.55373 17.5,1.66759 c 19.36124,1.84495 29.49555,3.66003 37.90767,6.78937 l 5.59233,2.08037 3.80726,3.78621 3.80726,3.78622 -0.30726,4.76677 -0.30726,4.76678 -4.15179,3.15941 c -8.41771,6.40568 -27.2414,12.51838 -50.84821,16.51216 l -12,2.03015 -14,0.37577 c -7.7,0.20668 -15.125,0.16134 -16.5,-0.10075 z"
         id="path3032"
         inkscape:connector-curvature="0" />
      <path
         style="fill:#fae2ca"
         d="m 604.61609,602.09028 c -7.47174,-1.71248 -15.72453,-5.78018 -17.83219,-8.78929 l -1.56961,-2.24093 0,-4.20077 0,-4.20077 2.61608,-3.10903 c 5.99595,-7.12578 22.6688,-16.8986 32.33102,-18.95087 l 5.44711,-1.15698 4.27067,0.64043 c 4.45043,0.66738 6.97914,2.57194 5.84699,4.40379 l -0.66031,1.06841 -4.74316,-0.62921 -4.74316,-0.6292 -6.33457,1.62284 c -8.37226,2.14487 -20.15246,8.94558 -25.62538,14.79353 l -4.40529,4.70716 0,2.52865 0,2.52865 3.90295,2.58285 c 5.26967,3.4873 11.85141,5.33811 21.66581,6.09251 l 8.19395,0.62984 9.86864,-1.18588 c 22.65229,-2.72204 47.89602,-8.82001 58.73228,-14.1876 11.41096,-5.65226 13.012,-8.92668 7.09384,-14.50822 l -3.54252,-3.34103 -6.66134,-2.05748 c -13.22244,-4.08399 -35.84434,-6.71388 -62.98102,-7.32179 -7.27508,-0.16297 -13.52699,-0.59589 -13.89313,-0.96203 -1.59766,-1.59766 4.2772,-2.20817 20.62054,-2.14285 l 17.5,0.0699 14.20145,1.73031 c 22.13588,2.69705 33.40146,6.3981 38.72203,12.72123 l 2.67505,3.17913 -0.29926,4.57111 -0.29927,4.57111 -4.21449,3.20723 c -11.92902,9.07802 -47.75947,17.90253 -76.78551,18.91114 l -13,0.45173 -6.0982,-1.39766 z"
         id="path3030"
         inkscape:connector-curvature="0" />
      <path
         style="fill:#fadec2"
         d="m 604.60304,602.01668 c -7.0276,-1.52873 -13.61275,-4.6447 -17.02304,-8.05499 l -2.36571,-2.36571 0,-4.75839 0,-4.75839 5.34314,-5.03706 c 10.58443,-9.97813 25.08605,-16.75047 35.97409,-16.80011 l 6.81722,-0.0311 1.5511,1.5511 c 0.8531,0.8531 1.26032,2.02159 0.90491,2.59664 l -0.64618,1.04555 -4.75467,-0.56312 -4.75466,-0.56312 -6.46748,1.65104 c -11.94489,3.04932 -28.04914,14.06893 -29.6019,20.25561 -0.92512,3.68599 0.42109,5.4089 6.70775,8.58474 l 5.47205,2.76432 8.81168,1.17899 8.81168,1.179 11.95302,-1.1951 c 35.91659,-3.59105 70.87825,-15.12376 70.87825,-23.38042 0,-1.10611 -1.48373,-3.49484 -3.29717,-5.30828 l -3.29718,-3.29718 -6.90668,-2.13325 c -14.57504,-4.50177 -45.05104,-7.77328 -74.94897,-8.04554 l -2.95,-0.0269 1.25027,-1.25 1.25026,-1.25 18.19974,0.0716 18.19973,0.0716 14,1.70483 c 23.01901,2.8031 35.41452,7.18387 39.55893,13.98076 l 1.93359,3.17112 0.004,3.66111 0.004,3.6611 -3.25,2.75244 c -14.98064,12.68673 -73.64269,24.09662 -97.36177,18.93696 z"
         id="path3028"
         inkscape:connector-curvature="0" />
      <path
         style="fill:#f9d9b8"
         d="m 604.60304,602.08944 c -7.09258,-1.62731 -13.65665,-4.76136 -17.02304,-8.12775 l -2.36571,-2.36571 0,-4.72929 0,-4.7293 4.87059,-4.69462 c 5.5067,-5.30776 16.35817,-12.06223 24.29585,-15.1229 l 5.33356,-2.05656 6.81723,-0.0262 6.81722,-0.0262 1.5511,1.5511 c 0.8531,0.85311 1.26032,2.0216 0.90491,2.59665 l -0.64618,1.04554 -4.75467,-0.56312 -4.75466,-0.56312 -6.46748,1.65104 c -11.91383,3.04139 -28.02618,13.97744 -29.55237,20.05829 l -0.70961,2.82729 0.98814,1.59523 c 7.26306,11.72532 45.67128,11.48521 87.19231,-0.54507 21.26318,-6.16078 28.56462,-12.49023 22.36406,-19.38688 l -2.75,-3.05872 -7,-2.53574 c -9.93019,-3.59718 -29.37564,-6.23748 -55.80803,-7.57757 l -22.80802,-1.15635 1.57069,-0.879 c 0.86388,-0.48346 6.17749,-1.13761 11.80803,-1.45369 l 10.23733,-0.57468 18,1.67798 c 38.72714,3.6102 52.5,9.28568 52.5,21.63407 l 0,3.14845 -3.17532,2.96619 c -10.31887,9.63928 -47.27963,19.24571 -78.32468,20.35728 l -13,0.46547 -6.11125,-1.40215 z"
         id="path3026"
         inkscape:connector-curvature="0" />
      <path
         style="fill:#f8d2ac"
         d="m 606.21429,602.37934 c -3.025,-0.49056 -8.31656,-2.26815 -11.75902,-3.9502 l -6.25902,-3.05828 -1.49098,-2.88323 c -0.82004,-1.58578 -1.49098,-4.50202 -1.49098,-6.48052 l 0,-3.59728 4.77267,-4.77267 c 5.33341,-5.33341 16.31088,-12.21437 24.39377,-15.29064 l 5.33356,-2.0299 6.72975,-0.045 6.72976,-0.045 1.55355,1.28933 c 0.85445,0.70913 1.40182,1.74451 1.21638,2.30084 l -0.33717,1.0115 -7.94613,0.18858 -7.94614,0.18859 -5.80367,2.24176 c -12.68714,4.90059 -24.6827,14.97373 -24.69259,20.73531 l -0.004,2.17742 2.58299,2.03178 c 1.42065,1.11748 5.13315,3.03499 8.25,4.26114 l 5.66701,2.22935 15,0.0202 15,0.0203 9.97936,-1.81974 c 25.87934,-4.71908 46.00939,-11.07013 52.77064,-16.64917 l 3.75,-3.09431 0,-2.02719 c 0,-1.11496 -1.4806,-3.5078 -3.29023,-5.31743 l -3.29022,-3.29022 -8.08326,-2.5535 c -11.25876,-3.55664 -25.98873,-5.45774 -53.115,-6.85518 l -23.27871,-1.19923 1.47641,-0.82624 c 0.81202,-0.45443 6.33745,-1.09455 12.27871,-1.42248 l 10.8023,-0.59623 17,1.66404 c 39.50002,3.86645 52.5,9.21957 52.5,21.6184 l 0,3.14845 -2.93969,2.74608 c -13.28473,12.40979 -69.94504,24.16568 -96.06031,19.93061 z"
         id="path3024"
         inkscape:connector-curvature="0" />
      <path
         style="fill:#f7cca3"
         d="m 606.33572,602.37789 c -2.95821,-0.49136 -8.24615,-2.26195 -11.75097,-3.93464 l -6.37241,-3.04128 -1.49903,-2.89879 c -0.82446,-1.59433 -1.49902,-4.31417 -1.49902,-6.04408 l 0,-3.14529 2.09911,-2.94793 c 6.89719,-9.68621 27.87578,-20.14355 40.27387,-20.0756 l 5.87299,0.0322 1.49534,1.49534 c 0.82244,0.82244 1.21102,1.95538 0.86351,2.51765 l -0.63182,1.02232 -5.38206,-0.55548 -5.38206,-0.55548 -6.85444,2.09704 c -8.35987,2.55761 -18.16339,8.22454 -24.00121,13.87391 l -4.35323,4.21269 0,2.96473 0,2.96472 2.58299,2.03178 c 1.42065,1.11748 5.13315,2.98669 8.25,4.15379 l 5.66701,2.122 10.57525,0.55939 10.57525,0.55939 8.42475,-1.18067 c 92.16397,-12.91605 88.01415,-37.88818 -6.93053,-41.70542 l -17.35527,-0.69777 1.82183,-1.01954 1.82182,-1.01955 13.03345,-0.17967 c 47.05684,-0.64872 77.53345,8.22325 77.53345,22.57056 l 0,3.14845 -2.93969,2.74608 c -13.23678,12.36501 -70.21743,24.20147 -95.93888,19.92916 z"
         id="path3022"
         inkscape:connector-curvature="0" />
      <path
         style="fill:#f6c494"
         d="m 606.21429,602.15009 c -3.575,-0.63976 -9.09494,-2.43335 -12.26654,-3.98575 l -5.76653,-2.82255 -1.48347,-2.8687 c -4.44959,-8.60456 2.51955,-17.48631 21.18672,-27.00119 11.78637,-6.00765 29.89788,-7.17102 28.1094,-1.80557 l -0.34195,1.02584 -8.69427,0.19975 -8.69427,0.19975 -9.45093,4.78578 -9.45093,4.78578 -5.07362,4.86454 -5.07361,4.86453 0,2.9014 0,2.9014 1.75,1.53847 c 8.23897,7.24312 26.18894,9.55809 48.50658,6.25581 88.68795,-13.12292 82.03318,-37.43982 -11.25658,-41.13222 l -17.5,-0.69264 3,-0.98239 c 1.65,-0.54032 9.975,-0.97592 18.5,-0.968 l 15.5,0.0144 14.5,1.68079 c 23.40059,2.71252 36.31306,7.01154 40.75,13.56714 l 2.25,3.32439 0,3.4509 0,3.45091 -2.93969,2.74608 c -13.47158,12.58434 -70.48701,24.27784 -96.06031,19.70136 z"
         id="path3020"
         inkscape:connector-curvature="0" />
      <path
         style="fill:#f5bc83"
         d="m 608.16489,602.51343 c -30.9162,-4.93778 -30.44741,-21.71039 1.0494,-37.54549 l 7.5,-3.77064 7,-0.44047 7,-0.44047 2.83128,1.10051 c 1.55721,0.60528 2.66609,1.5961 2.46418,2.20182 l -0.3671,1.10131 -8.60566,0.14254 -8.60566,0.14253 -9.7185,4.92205 -9.71851,4.92205 -4.89001,4.76303 -4.89002,4.76302 0,2.90994 0,2.90994 1.75,1.53847 c 11.58475,10.18449 40.42681,10.23238 79.75,0.13241 26.55551,-6.82065 35.98039,-14.09403 28.25,-21.80111 l -3.25,-3.2402 -5.66663,-2.11457 c -10.65427,-3.97577 -31.32844,-6.63746 -60.76623,-7.82333 l -17.43286,-0.70227 2.36255,-0.87396 c 9.61862,-3.55816 58.1903,0.20706 74.91531,5.80734 11.49474,3.84895 16.08786,8.18892 16.08786,15.20117 l 0,2.91329 -2.75,2.79248 c -11.5451,11.72345 -69.85554,24.39267 -94.2994,20.48861 z"
         id="path3018"
         inkscape:connector-curvature="0" />
      <path
         style="fill:#f4b476"
         d="m 609.00207,602.57759 c -3.14172,-0.44023 -8.43154,-1.81737 -11.75515,-3.06032 l -6.04293,-2.2599 -2.99485,-3.41095 -2.99485,-3.41094 0,-3.16146 0,-3.16145 2.56926,-3.70744 c 3.06998,-4.42999 11.1819,-10.268 21.37995,-15.3868 l 7.44921,-3.73904 5.70162,-0.51701 c 3.13588,-0.28435 7.32124,-0.21316 9.30079,0.15821 l 3.59917,0.67521 0.002,1.70468 0.002,1.70469 -5.94946,-0.33618 -5.94946,-0.33618 -5.79798,1.68552 c -7.54917,2.19461 -18.52125,8.64876 -23.97601,14.10351 l -4.33069,4.3307 0,2.97542 0,2.97543 3.25,2.44808 c 1.7875,1.34645 5.5,3.23538 8.25,4.19762 l 5,1.74954 12,0.46105 12,0.46104 15.5,-2.61586 c 35.13106,-5.9289 57,-14.40431 57,-22.09061 l 0,-2.11675 -3.25,-3.04836 c -7.88038,-7.39147 -29.73266,-11.49395 -69.25,-13.00077 l -18,-0.68635 3,-0.97075 c 7.47188,-2.41779 50.88099,0.0394 67.08508,3.7974 15.54075,3.60414 23.39163,9.32933 23.40833,17.07033 l 0.007,3.05384 -3.25,3.09093 c -12.51417,11.90128 -67.47119,23.94585 -92.96263,20.37392 z"
         id="path3016"
         inkscape:connector-curvature="0" />
      <path
         style="fill:#f3ac65"
         d="m 609.82253,602.44256 c -3.79047,-0.43982 -9.53029,-1.78641 -12.75515,-2.99243 l -5.86339,-2.19276 -2.99485,-3.41095 -2.99485,-3.41094 0,-3.28707 0,-3.28706 2.75,-3.65654 c 3.49496,-4.64707 13.14914,-11.43531 22.18934,-15.60221 l 7.0259,-3.23845 5.41899,-0.55929 c 2.98045,-0.30761 7.03827,-0.25551 9.01738,0.11578 l 3.59839,0.67506 0,1.45468 0,1.45469 -6.84345,0 -6.84345,0 -5.40655,1.87137 c -7.37655,2.55325 -17.16695,8.45362 -22.49008,13.55407 l -4.41647,4.23173 0,3.08252 0,3.08252 3.04742,2.56424 c 1.67608,1.41033 5.38858,3.31856 8.25,4.24051 l 5.20258,1.67628 12.5,0.43876 12.5,0.43877 15,-2.61854 c 35.48896,-6.19528 56.5,-14.35558 56.5,-21.94357 l 0,-2.38134 -3.16137,-3.09083 -3.16138,-3.09083 -6.08862,-1.99605 c -13.50702,-4.42803 -31.31723,-6.74327 -59.58863,-7.74623 l -18.5,-0.65631 3,-0.91119 c 13.40699,-4.0721 68.93371,2.01121 81.67992,8.94856 l 4.8703,2.65075 1.97489,3.19544 c 1.08619,1.75749 1.97489,4.51655 1.97489,6.13124 l 0,2.9358 -3.25,3.14725 c -8.19127,7.9323 -34.75627,15.99165 -65.08933,19.74695 -13.03372,1.61361 -16.42893,1.66828 -27.05243,0.43562 z"
         id="path3014"
         inkscape:connector-curvature="0" />
      <path
         style="fill:#f1a457"
         d="m 610.21429,602.53345 c -3.575,-0.46222 -9.2,-1.8546 -12.5,-3.09419 l -6,-2.25379 -3.25,-3.2402 -3.25,-3.2402 0,-3.43897 0,-3.43897 2.72016,-3.48988 c 8.91953,-11.44344 30.46715,-21.23085 42.70187,-19.39614 l 4.57797,0.68651 0,1.43872 0,1.43873 -6.84345,0 -6.84345,0 -5.40655,1.9068 c -8.17552,2.88337 -16.1777,7.62235 -21.82699,12.92618 l -5.07956,4.76894 0,3.02473 0,3.02472 2.36016,2.21725 c 1.29808,1.21949 4.78558,3.17007 7.75,4.33462 l 5.38984,2.11736 12.50988,0.45046 12.50988,0.45046 13.25354,-2.11063 c 36.00204,-5.73333 59.2267,-14.55325 59.2267,-22.49223 l 0,-2.38134 -3.16137,-3.09083 -3.16138,-3.09083 -6.08862,-2.00701 c -13.59064,-4.4799 -41.86804,-7.93191 -66.58863,-8.12891 l -11.5,-0.0916 3,-0.93787 c 8.30387,-2.59599 52.27889,0.0981 68.33201,4.18634 14.95172,3.80773 20.84341,8.08465 21.89044,15.89081 l 0.49502,3.69064 -4.24692,3.6352 c -13.35874,11.43459 -66.31492,22.92291 -90.97055,19.73517 z"
         id="path3012"
         inkscape:connector-curvature="0" />
      <path
         style="fill:#f09b47"
         d="m 610.61257,602.47119 c -8.72827,-1.08552 -17.6465,-4.32252 -21.57123,-7.82958 l -2.95054,-2.63654 -0.52523,-4 -0.52523,-4 2.83698,-3.66234 c 8.70937,-11.24322 30.68122,-21.2128 42.759,-19.40162 l 4.57797,0.68651 0,1.3164 0,1.31641 -8.76394,0.41901 -8.76394,0.41901 -7.87484,3.89104 c -9.05869,4.47598 -17.93264,11.32963 -20.10263,15.52593 l -1.49591,2.89277 1.10362,2.42218 c 1.40091,3.07468 6.91166,6.18283 14.4377,8.14312 l 5.88014,1.53158 11.56516,0 11.56517,0 14.43047,-2.53124 c 23.91735,-4.19532 41.01655,-9.28576 49.78491,-14.82099 l 4.19629,-2.649 0.67266,-2.68009 0.67266,-2.68009 -1.42906,-2.54606 -1.42907,-2.54606 -5.22033,-2.60845 c -10.68194,-5.33745 -32.08738,-8.58933 -63.72906,-9.68162 l -19,-0.65589 3,-0.68194 c 14.29441,-3.24931 61.59191,1.02826 77.60162,7.01826 l 5.50134,2.05832 3.27745,3.38147 3.27746,3.38147 0.5298,3.94996 0.5298,3.94996 -4.1441,3.54719 c -13.35311,11.42977 -65.78548,22.85641 -90.67509,19.76092 z"
         id="path3010"
         inkscape:connector-curvature="0" />
      <path
         style="fill:#f0953b"
         d="m 611.17902,602.45038 c -9.12092,-0.98372 -18.08313,-4.18579 -22.32593,-7.97674 l -3.1388,-2.80451 0,-4.51637 0,-4.51637 3,-3.16744 c 11.54696,-12.19145 30.56731,-20.4799 42.40702,-18.47959 l 4.09298,0.69151 0,1.3126 0,1.3126 -8.87303,0.3495 -8.87304,0.3495 -8.41566,4.26883 c -13.59046,6.89373 -21.53706,14.84301 -20.14799,20.15479 l 0.55916,2.13826 4.12528,2.39039 c 2.26891,1.31472 6.79303,3.15605 10.0536,4.09186 l 5.92833,1.70147 11.07167,-0.0241 11.07168,-0.0241 14.92265,-2.62152 c 24.92903,-4.37937 42.9558,-9.81599 51.07735,-15.4042 l 4,-2.75229 0.31612,-3.24674 0.31612,-3.24675 -3.11423,-2.90913 c -7.94018,-7.41723 -39.09437,-12.79658 -75.9679,-13.11727 l -11.55011,-0.10045 4,-0.98898 4,-0.98897 18.5,0.52901 c 25.93745,0.74169 41.77747,2.97562 54.28735,7.65616 l 5.31561,1.98883 3.27745,3.38147 3.27746,3.38147 0.5298,3.94996 0.5298,3.94996 -4.1441,3.54719 c -13.21488,11.31145 -64.36422,22.51675 -90.10864,19.74011 z"
         id="path3008"
         inkscape:connector-curvature="0" />
      <path
         style="fill:#ef9033"
         d="m 611.71429,602.36938 -8,-0.69835 -5.8612,-2.19643 c -3.22366,-1.20804 -7.27366,-3.45847 -9,-5.00096 l -3.1388,-2.80451 0,-4.52649 0,-4.52649 3.5,-3.6342 c 11.18853,-11.61754 29.91714,-19.76611 41.45397,-18.03605 l 4.54603,0.68172 0,1.38317 0,1.38317 -7.25,0.005 -7.25,0.005 -4.45206,1.57697 c -11.24604,3.98352 -26.16496,14.86892 -27.46218,20.03746 -1.29458,5.15802 4.73343,9.75477 16.39809,12.5046 l 5.48385,1.29276 10.51615,-0.0565 10.51615,-0.0565 12.52783,-2.06634 c 25.7095,-4.24053 47.45896,-11.00779 55.36483,-17.22655 l 2.60734,-2.05093 0,-2.70491 c 0,-11.01111 -23.68914,-17.31594 -71,-18.89655 l -19.5,-0.65148 3,-0.68263 c 13.04149,-2.96754 59.03053,0.84263 75.44608,6.25066 l 6.44608,2.12363 3.83806,3.60322 3.83805,3.60322 0.60098,3.77631 0.60097,3.7763 -4.01734,3.82161 -4.01735,3.82161 -8.86776,3.51669 c -22.30535,8.84563 -56.32522,14.44501 -76.86777,12.65179 z"
         id="path3006"
         inkscape:connector-curvature="0" />
      <path
         style="fill:#ee8b29"
         d="m 614.21429,602.4246 c -19.70274,-1.44006 -30.33377,-7.99641 -28.53275,-17.59666 l 0.59994,-3.19794 5.13881,-4.62023 c 12.94048,-11.63461 29.52206,-18.10909 40.669,-15.8797 l 3.125,0.625 0,1.30648 0,1.30649 -7.25,-0.0203 -7.25,-0.0203 -5.5,2.08722 c -16.57431,6.28988 -29.23826,18.03963 -25.9883,24.11224 1.3524,2.52698 8.90875,6.323 15.9883,8.03191 l 5.5,1.32762 10.5,-0.0451 10.5,-0.0451 15.70409,-2.6814 c 24.78085,-4.23121 43.46482,-10.12046 51.54591,-16.24745 l 3.25,-2.46411 0,-2.7266 c 0,-11.07428 -23.61145,-17.35988 -71,-18.90088 l -19.5,-0.6341 4,-0.91266 4,-0.91265 19,0.59309 c 44.07696,1.37587 66.5,8.59113 66.5,21.3983 l 0,2.50695 -3.93336,3.74172 -3.93336,3.74171 -9.31664,3.57899 c -22.21397,8.53348 -54.24407,13.978 -73.81664,12.54744 z"
         id="path3004"
         inkscape:connector-curvature="0" />
      <path
         style="fill:#ed821a"
         d="m 601.48605,600.58112 c -3.42553,-0.97981 -7.96646,-2.93178 -10.09096,-4.3377 l -3.86272,-2.55624 -1.27232,-3.07164 -1.27232,-3.07165 0.61299,-2.44234 c 1.84452,-7.34915 20.33526,-20.26302 33.8543,-23.64373 l 4.74073,-1.18551 5.50927,0.68833 5.50927,0.68834 0,1.5581 0,1.55809 -4.47907,-0.50485 c -6.6723,-0.75207 -13.07881,0.76352 -22.21067,5.25437 l -8.18974,4.02754 -5.45226,4.98306 c -10.48953,9.58684 -7.30773,15.7588 10.33174,20.04118 l 5.5,1.33526 11,-0.0689 11,-0.0689 12.5,-2.14927 c 26.00356,-4.47108 44.62065,-10.15456 52.89372,-16.14754 l 4.10628,-2.97458 0,-2.85886 c 0,-11.20139 -30.68364,-18.82026 -77.51354,-19.2469 l -12.98646,-0.11832 3,-0.76337 c 17.4467,-4.43943 73.46909,2.66569 84.25105,10.68527 17.2331,12.81791 -3.71632,26.36867 -52.98451,34.27208 l -12.73346,2.04265 -12.76654,-0.0712 -12.76654,-0.0712 -6.22824,-1.78147 z"
         id="path3002"
         inkscape:connector-curvature="0" />
      <path
         style="fill:#ed7e11"
         d="m 602.76414,600.89948 c -3.27258,-0.79143 -7.92599,-2.59687 -10.3409,-4.01211 l -4.39074,-2.57315 -1.45836,-3.49033 -1.45835,-3.49033 1.1223,-3.4006 1.1223,-3.4006 5.00312,-4.37661 c 5.90163,-5.1626 20.374,-13.0132 27.09151,-14.69591 l 4.74073,-1.18753 5.50927,0.68833 5.50927,0.68834 0,1.55972 0,1.55971 -4.21395,-0.56521 c -6.29026,-0.8437 -13.33478,0.82192 -22.47579,5.31422 l -8.18974,4.02481 -5.5102,5.03601 c -10.19552,9.31813 -7.58375,15.52157 8.1614,19.38485 25.52668,6.26332 90.14425,-6.7168 98.73919,-19.83433 l 1.54223,-2.35373 -0.91181,-2.38498 c -3.76334,-9.84366 -34.74953,-16.67192 -77.07871,-16.98543 l -13.56262,-0.10045 4,-0.99211 4,-0.99211 17.5,0.55502 c 43.46957,1.37864 64.85662,7.59487 67.49743,19.61841 l 0.63572,2.89439 -1.13768,2.12577 c -3.99019,7.45573 -31.48464,17.06551 -61.27574,21.41692 l -10.78028,1.57461 -11.71972,-0.0833 -11.71973,-0.0833 -5.95015,-1.43896 z"
         id="path3000"
         inkscape:connector-curvature="0" />
      <path
         style="fill:#ec7602"
         d="m 603.21429,600.97691 c -3.025,-0.83224 -7.525,-2.53068 -10,-3.77431 l -4.5,-2.26115 -1.82952,-3.71224 -1.82951,-3.71224 1.16984,-3.54467 1.16985,-3.54466 5.87018,-4.88522 c 3.2286,-2.68687 9.91271,-6.90891 14.85358,-9.38232 l 8.9834,-4.4971 5.33053,-0.66601 c 5.98435,-0.74769 11.91552,0.4097 12.59843,2.45842 l 0.45282,1.35846 -4.61413,-0.63244 c -9.37368,-1.2848 -22.37835,3.37331 -33.97351,12.16889 -8.85742,6.71885 -10.53669,11.61975 -5.57091,16.25849 l 3.11105,2.90616 7.13895,2.22285 7.13895,2.22285 13,-0.11529 13,-0.1153 14,-2.65976 c 30.45665,-5.78624 47.24503,-11.61177 52.41887,-18.18923 l 2.11616,-2.69028 -0.63245,-2.09287 C 699.48979,563.75 677.14993,558.22488 632.71429,556.80955 l -21,-0.66888 4,-0.91036 4,-0.91036 17.5,0.55266 c 32.45533,1.02494 54.79357,5.38066 62.99754,12.28384 l 2.96634,2.49601 1.14963,3.83715 1.14964,3.83715 -2.20443,3.09584 -2.20443,3.09584 -8.17714,3.94054 c -9.93507,4.78768 -21.77148,8.28223 -39.67715,11.71415 l -13.5,2.58751 -15.5,0.36471 -15.5,0.36472 -5.5,-1.51316 z"
         id="path2998"
         inkscape:connector-curvature="0" />
    </g>
  </g>
</svg>
